<!-- Generator: Adobe Illustrator 19.0.0, SVG Export Plug-In  -->
<svg version="1.1"
	 xmlns="http://www.w3.org/2000/svg" xmlns:xlink="http://www.w3.org/1999/xlink" xmlns:a="http://ns.adobe.com/AdobeSVGViewerExtensions/3.0/"
	 x="0px" y="0px" width="260.8px" height="281.5px" viewBox="0 0 260.8 281.5" style="enable-background:new 0 0 260.8 281.5;"
	 xml:space="preserve">
<style type="text/css">
	.st0{fill:#FFFFFF;}
	.st1{fill:#B0AFB0;}
	.st2{fill:#4C5256;}
	.st3{font-family:'Futura-Medium';}
	.st4{font-size:18px;}
	.st5{font-family:'Futura-MediumItalic';}
	.st6{fill:none;}
	.st7{font-family:'Bebas';}
	.st8{font-size:55px;}
</style>
<defs>
</defs>
<path class="st0" d="M260.8,253.9c0,15.2-12.4,27.6-27.6,27.6H27.6C12.4,281.5,0,269.2,0,253.9V27.6C0,12.4,12.4,0,27.6,0h205.6
	c15.2,0,27.6,12.4,27.6,27.6V253.9z"/>
<circle class="st1" cx="129.7" cy="138.9" r="63.1"/>
<text transform="matrix(1 0 0 1 23.5134 33.0023)"><tspan x="0" y="0" class="st2 st3 st4">A recent survey of music </tspan><tspan x="0" y="28.2" class="st2 st3 st4">reveals that a whopping</tspan><tspan x="0" y="56.5" class="st2 st3 st4"> </tspan><tspan x="0" y="113" class="st2 st3 st4"> </tspan><tspan x="0" y="197.8" class="st2 st3 st4">of people said </tspan><tspan x="123" y="197.8" class="st2 st5 st4">Metal</tspan><tspan x="171.4" y="197.8" class="st2 st3 st4"> music  </tspan><tspan x="0" y="226" class="st2 st3 st4">makes them feel angry!</tspan></text>
<rect x="80.5" y="113" class="st6" width="141" height="80"/>
<text transform="matrix(1 0 0 1 80.5006 162.019)" class="st0 st7 st8">84% </text>
</svg>
