<?xml version="1.0" encoding="utf-8"?>
<!-- Generator: Adobe Illustrator 19.2.0, SVG Export Plug-In . SVG Version: 6.00 Build 0)  -->
<svg version="1.1" id="Layer_1" xmlns="http://www.w3.org/2000/svg" xmlns:xlink="http://www.w3.org/1999/xlink" x="0px" y="0px"
	 viewBox="0 0 260.8 281.5" style="enable-background:new 0 0 260.8 281.5;" xml:space="preserve">
<style type="text/css">
	.st0{fill:#FFFFFF;}
	.st1{fill:#B0AFB0;}
	.st2{enable-background:new    ;}
	.st3{fill:#4C5256;}
	.st4{fill:none;}
</style>
<path class="st0" d="M260.8,253.9c0,15.2-12.4,27.6-27.6,27.6H27.6C12.4,281.5,0,269.2,0,253.9V27.6C0,12.4,12.4,0,27.6,0h205.6
	c15.2,0,27.6,12.4,27.6,27.6L260.8,253.9L260.8,253.9z"/>
<circle class="st1" cx="129.7" cy="138.9" r="63.1"/>
<g class="st2">
	<path class="st3" d="M33.1,29.7h-5.8L25.8,33h-2.2l6.7-14.4L36.8,33h-2.2L33.1,29.7z M32.3,27.8l-2-4.6l-2.1,4.6H32.3z"/>
	<path class="st3" d="M43.6,24.4h2v0.8c0.4-0.4,0.7-0.6,1-0.8c0.3-0.1,0.6-0.2,1-0.2c0.5,0,1.1,0.2,1.6,0.5l-0.9,1.8
		c-0.4-0.3-0.7-0.4-1.1-0.4c-1.1,0-1.6,0.8-1.6,2.4V33h-2V24.4z"/>
	<path class="st3" d="M58.1,29.2h-6.1c0.1,0.7,0.3,1.3,0.7,1.7c0.4,0.4,0.9,0.6,1.6,0.6c0.5,0,0.9-0.1,1.2-0.4
		c0.3-0.2,0.7-0.7,1.1-1.3l1.7,0.9c-0.3,0.4-0.5,0.8-0.8,1.1s-0.6,0.6-0.9,0.8c-0.3,0.2-0.7,0.3-1.1,0.4s-0.8,0.1-1.2,0.1
		c-1.3,0-2.3-0.4-3.1-1.2c-0.8-0.8-1.2-1.9-1.2-3.3c0-1.4,0.4-2.4,1.1-3.3c0.8-0.8,1.8-1.2,3-1.2c1.3,0,2.3,0.4,3,1.2
		c0.7,0.8,1.1,1.9,1.1,3.3L58.1,29.2z M56,27.6c-0.3-1.1-0.9-1.6-2-1.6c-0.2,0-0.5,0-0.7,0.1c-0.2,0.1-0.4,0.2-0.6,0.3
		c-0.2,0.1-0.3,0.3-0.4,0.5s-0.2,0.4-0.3,0.7H56z"/>
	<path class="st3" d="M66.9,24.8v2.6c-0.5-0.6-0.9-0.9-1.2-1.1c-0.4-0.2-0.8-0.3-1.2-0.3c-0.7,0-1.4,0.3-1.9,0.8s-0.7,1.2-0.7,2
		c0,0.8,0.2,1.5,0.7,2c0.5,0.5,1.1,0.8,1.8,0.8c0.5,0,0.9-0.1,1.3-0.3c0.4-0.2,0.8-0.6,1.2-1.2v2.6c-0.8,0.4-1.6,0.6-2.4,0.6
		c-1.3,0-2.4-0.4-3.3-1.3c-0.9-0.9-1.3-1.9-1.3-3.2s0.5-2.4,1.4-3.2s2-1.3,3.3-1.3C65.3,24.2,66.1,24.4,66.9,24.8z"/>
	<path class="st3" d="M76.6,29.2h-6.1c0.1,0.7,0.3,1.3,0.7,1.7c0.4,0.4,0.9,0.6,1.6,0.6c0.5,0,0.9-0.1,1.2-0.4
		c0.3-0.2,0.7-0.7,1.1-1.3l1.7,0.9c-0.3,0.4-0.5,0.8-0.8,1.1s-0.6,0.6-0.9,0.8c-0.3,0.2-0.7,0.3-1.1,0.4s-0.8,0.1-1.2,0.1
		c-1.3,0-2.3-0.4-3.1-1.2c-0.8-0.8-1.2-1.9-1.2-3.3c0-1.4,0.4-2.4,1.1-3.3c0.8-0.8,1.8-1.2,3-1.2c1.3,0,2.3,0.4,3,1.2
		c0.7,0.8,1.1,1.9,1.1,3.3L76.6,29.2z M74.6,27.6c-0.3-1.1-0.9-1.6-2-1.6c-0.2,0-0.5,0-0.7,0.1c-0.2,0.1-0.4,0.2-0.6,0.3
		c-0.2,0.1-0.3,0.3-0.4,0.5s-0.2,0.4-0.3,0.7H74.6z"/>
	<path class="st3" d="M78.8,24.4h2v0.8c0.7-0.7,1.5-1,2.3-1c1,0,1.8,0.3,2.3,0.9c0.5,0.5,0.7,1.4,0.7,2.6V33h-2v-4.8
		c0-0.8-0.1-1.4-0.4-1.7c-0.2-0.3-0.6-0.5-1.2-0.5c-0.7,0-1.1,0.2-1.4,0.7c-0.3,0.4-0.4,1.2-0.4,2.2V33h-2V24.4z"/>
	<path class="st3" d="M90.7,26.3V33h-2v-6.7h-0.8v-1.8h0.8v-3.1h2v3.1h1.5v1.8H90.7z"/>
	<path class="st3" d="M104.1,25.9l-1.6,0.9c-0.3-0.5-0.6-0.8-1-0.8c-0.2,0-0.3,0.1-0.5,0.2s-0.2,0.3-0.2,0.5c0,0.3,0.4,0.7,1.1,1
		c1,0.5,1.8,0.9,2.1,1.2s0.5,0.9,0.5,1.5c0,0.8-0.3,1.5-0.9,2.1c-0.6,0.5-1.3,0.8-2.1,0.8c-1.4,0-2.5-0.7-3-2.1l1.7-0.8
		c0.2,0.4,0.4,0.7,0.5,0.8c0.2,0.2,0.5,0.3,0.9,0.3c0.7,0,1-0.3,1-0.9c0-0.4-0.3-0.7-0.8-1c-0.2-0.1-0.4-0.2-0.6-0.3
		s-0.4-0.2-0.6-0.3c-0.6-0.3-1-0.6-1.2-0.8c-0.3-0.4-0.4-0.8-0.4-1.4c0-0.7,0.3-1.4,0.8-1.8c0.5-0.5,1.2-0.7,1.9-0.7
		C102.7,24.2,103.5,24.8,104.1,25.9z"/>
	<path class="st3" d="M108.4,24.4v4.9c0,1.4,0.6,2.1,1.7,2.1s1.7-0.7,1.7-2.1v-4.9h2v5c0,0.7-0.1,1.3-0.3,1.8
		c-0.2,0.4-0.4,0.8-0.9,1.2c-0.7,0.6-1.5,0.9-2.5,0.9c-1,0-1.9-0.3-2.5-0.9c-0.4-0.4-0.7-0.8-0.9-1.2c-0.2-0.4-0.2-1-0.2-1.8v-5
		H108.4z"/>
	<path class="st3" d="M116.2,24.4h2v0.8c0.4-0.4,0.7-0.6,1-0.8c0.3-0.1,0.6-0.2,1-0.2c0.5,0,1.1,0.2,1.6,0.5l-0.9,1.8
		c-0.4-0.3-0.7-0.4-1.1-0.4c-1.1,0-1.6,0.8-1.6,2.4V33h-2V24.4z"/>
	<path class="st3" d="M124.8,24.4l2.2,4.8l2.2-4.8h2.2l-4.4,9.1l-4.4-9.1H124.8z"/>
	<path class="st3" d="M140.2,29.2h-6.1c0.1,0.7,0.3,1.3,0.7,1.7c0.4,0.4,0.9,0.6,1.6,0.6c0.5,0,0.9-0.1,1.2-0.4
		c0.3-0.2,0.7-0.7,1.1-1.3l1.7,0.9c-0.3,0.4-0.5,0.8-0.8,1.1s-0.6,0.6-0.9,0.8c-0.3,0.2-0.7,0.3-1.1,0.4s-0.8,0.1-1.2,0.1
		c-1.3,0-2.3-0.4-3.1-1.2c-0.8-0.8-1.2-1.9-1.2-3.3c0-1.4,0.4-2.4,1.1-3.3c0.8-0.8,1.8-1.2,3-1.2c1.3,0,2.3,0.4,3,1.2
		c0.7,0.8,1.1,1.9,1.1,3.3L140.2,29.2z M138.2,27.6c-0.3-1.1-0.9-1.6-2-1.6c-0.2,0-0.5,0-0.7,0.1c-0.2,0.1-0.4,0.2-0.6,0.3
		c-0.2,0.1-0.3,0.3-0.4,0.5s-0.2,0.4-0.3,0.7H138.2z"/>
	<path class="st3" d="M144.8,31.4l-3.8-7h2.3l2.6,4.9l2.4-4.9h2.2l-6.8,13.2h-2.3L144.8,31.4z"/>
	<path class="st3" d="M157,28.7c0-1.2,0.4-2.3,1.3-3.2s2-1.3,3.2-1.3c1.3,0,2.4,0.4,3.3,1.3c0.9,0.9,1.3,1.9,1.3,3.2
		c0,1.3-0.4,2.4-1.3,3.2c-0.9,0.9-2,1.3-3.3,1.3c-1.3,0-2.4-0.4-3.2-1.3C157.5,31.1,157,30,157,28.7z M159.1,28.7
		c0,0.9,0.2,1.5,0.7,2c0.5,0.5,1.1,0.8,1.9,0.8c0.8,0,1.4-0.2,1.9-0.7s0.7-1.2,0.7-2s-0.2-1.5-0.7-2c-0.5-0.5-1.1-0.8-1.9-0.8
		c-0.8,0-1.4,0.3-1.8,0.8S159.1,27.9,159.1,28.7z"/>
	<path class="st3" d="M170.3,26.3V33h-2v-6.7h-0.7v-1.8h0.7v-3.3c0-1.1,0.2-1.8,0.6-2.3c0.5-0.6,1.3-0.9,2.2-0.9
		c0.4,0,0.8,0.1,1.3,0.3v2l-0.2-0.1c-0.4-0.2-0.8-0.3-1.1-0.3c-0.4,0-0.6,0.1-0.7,0.4c-0.1,0.2-0.2,0.7-0.2,1.4v2.8h2.2v1.8H170.3z"
		/>
	<path class="st3" d="M179.2,24.4h2v0.8c0.4-0.4,0.7-0.7,1-0.8c0.3-0.1,0.6-0.2,1.1-0.2c1,0,1.7,0.4,2.3,1.3
		c0.6-0.8,1.5-1.3,2.5-1.3c1.9,0,2.9,1.2,2.9,3.5V33h-2v-4.8c0-0.8-0.1-1.4-0.3-1.7c-0.2-0.3-0.5-0.5-1-0.5c-0.5,0-0.9,0.2-1.2,0.6
		s-0.4,1.1-0.4,2V33h-2v-4.7c0-1.5-0.4-2.3-1.3-2.3c-0.6,0-1,0.2-1.2,0.6s-0.4,1.1-0.4,2V33h-2V24.4z"/>
	<path class="st3" d="M195.4,24.4v4.9c0,1.4,0.6,2.1,1.7,2.1s1.7-0.7,1.7-2.1v-4.9h2v5c0,0.7-0.1,1.3-0.3,1.8
		c-0.2,0.4-0.4,0.8-0.9,1.2c-0.7,0.6-1.5,0.9-2.5,0.9c-1,0-1.9-0.3-2.5-0.9c-0.4-0.4-0.7-0.8-0.9-1.2c-0.2-0.4-0.2-1-0.2-1.8v-5
		H195.4z"/>
	<path class="st3" d="M208.2,25.9l-1.6,0.9c-0.3-0.5-0.6-0.8-1-0.8c-0.2,0-0.3,0.1-0.5,0.2s-0.2,0.3-0.2,0.5c0,0.3,0.4,0.7,1.1,1
		c1,0.5,1.8,0.9,2.1,1.2s0.5,0.9,0.5,1.5c0,0.8-0.3,1.5-0.9,2.1c-0.6,0.5-1.3,0.8-2.1,0.8c-1.4,0-2.5-0.7-3-2.1l1.7-0.8
		c0.2,0.4,0.4,0.7,0.5,0.8c0.2,0.2,0.5,0.3,0.9,0.3c0.7,0,1-0.3,1-0.9c0-0.4-0.3-0.7-0.8-1c-0.2-0.1-0.4-0.2-0.6-0.3
		s-0.4-0.2-0.6-0.3c-0.6-0.3-1-0.6-1.2-0.8c-0.3-0.4-0.4-0.8-0.4-1.4c0-0.7,0.3-1.4,0.8-1.8c0.5-0.5,1.2-0.7,1.9-0.7
		C206.8,24.2,207.6,24.8,208.2,25.9z"/>
	<path class="st3" d="M210.2,20.9c0-0.3,0.1-0.6,0.4-0.9s0.6-0.4,0.9-0.4c0.4,0,0.7,0.1,0.9,0.4c0.3,0.2,0.4,0.5,0.4,0.9
		s-0.1,0.7-0.4,0.9c-0.2,0.3-0.5,0.4-0.9,0.4s-0.7-0.1-0.9-0.4S210.2,21.2,210.2,20.9z M212.5,24.4V33h-2v-8.6H212.5z"/>
	<path class="st3" d="M221.7,24.8v2.6c-0.5-0.6-0.9-0.9-1.2-1.1c-0.4-0.2-0.8-0.3-1.2-0.3c-0.7,0-1.4,0.3-1.9,0.8s-0.7,1.2-0.7,2
		c0,0.8,0.2,1.5,0.7,2c0.5,0.5,1.1,0.8,1.8,0.8c0.5,0,0.9-0.1,1.3-0.3c0.4-0.2,0.8-0.6,1.2-1.2v2.6c-0.8,0.4-1.6,0.6-2.4,0.6
		c-1.3,0-2.4-0.4-3.3-1.3c-0.9-0.9-1.3-1.9-1.3-3.2s0.5-2.4,1.4-3.2s2-1.3,3.3-1.3C220.1,24.2,220.9,24.4,221.7,24.8z"/>
</g>
<g class="st2">
	<path class="st3" d="M24.8,52.6h2v0.8c0.4-0.4,0.7-0.6,1-0.8c0.3-0.1,0.6-0.2,1-0.2c0.5,0,1.1,0.2,1.6,0.5l-0.9,1.8
		c-0.4-0.3-0.7-0.4-1.1-0.4c-1.1,0-1.6,0.8-1.6,2.4v4.4h-2V52.6z"/>
	<path class="st3" d="M39.2,57.4H33c0.1,0.7,0.3,1.3,0.7,1.7c0.4,0.4,0.9,0.6,1.6,0.6c0.5,0,0.9-0.1,1.2-0.4
		c0.3-0.2,0.7-0.7,1.1-1.3l1.7,0.9c-0.3,0.4-0.5,0.8-0.8,1.1s-0.6,0.6-0.9,0.8c-0.3,0.2-0.7,0.3-1.1,0.4s-0.8,0.1-1.2,0.1
		c-1.3,0-2.3-0.4-3.1-1.2c-0.8-0.8-1.2-1.9-1.2-3.3c0-1.4,0.4-2.4,1.1-3.3c0.8-0.8,1.8-1.2,3-1.2c1.3,0,2.3,0.4,3,1.2
		c0.7,0.8,1.1,1.9,1.1,3.3L39.2,57.4z M37.1,55.8c-0.3-1.1-0.9-1.6-2-1.6c-0.2,0-0.5,0-0.7,0.1c-0.2,0.1-0.4,0.2-0.6,0.3
		c-0.2,0.1-0.3,0.3-0.4,0.5s-0.2,0.4-0.3,0.7H37.1z"/>
	<path class="st3" d="M42.1,52.6l2.2,4.8l2.2-4.8h2.2l-4.4,9.1l-4.4-9.1H42.1z"/>
	<path class="st3" d="M57.6,57.4h-6.1c0.1,0.7,0.3,1.3,0.7,1.7c0.4,0.4,0.9,0.6,1.6,0.6c0.5,0,0.9-0.1,1.2-0.4
		c0.3-0.2,0.7-0.7,1.1-1.3l1.7,0.9c-0.3,0.4-0.5,0.8-0.8,1.1s-0.6,0.6-0.9,0.8c-0.3,0.2-0.7,0.3-1.1,0.4s-0.8,0.1-1.2,0.1
		c-1.3,0-2.3-0.4-3.1-1.2c-0.8-0.8-1.2-1.9-1.2-3.3c0-1.4,0.4-2.4,1.1-3.3c0.8-0.8,1.8-1.2,3-1.2c1.3,0,2.3,0.4,3,1.2
		c0.7,0.8,1.1,1.9,1.1,3.3L57.6,57.4z M55.5,55.8c-0.3-1.1-0.9-1.6-2-1.6c-0.2,0-0.5,0-0.7,0.1c-0.2,0.1-0.4,0.2-0.6,0.3
		c-0.2,0.1-0.3,0.3-0.4,0.5s-0.2,0.4-0.3,0.7H55.5z"/>
	<path class="st3" d="M66,52.6h2v8.6h-2v-0.9c-0.8,0.8-1.7,1.1-2.6,1.1c-1.2,0-2.2-0.4-2.9-1.3c-0.8-0.9-1.2-2-1.2-3.3
		c0-1.3,0.4-2.4,1.2-3.2s1.7-1.3,2.9-1.3c1,0,1.9,0.4,2.7,1.2V52.6z M61.3,56.9c0,0.8,0.2,1.5,0.7,2c0.5,0.5,1,0.8,1.7,0.8
		c0.7,0,1.3-0.3,1.8-0.8c0.5-0.5,0.7-1.2,0.7-2s-0.2-1.5-0.7-2c-0.5-0.5-1-0.8-1.8-0.8c-0.7,0-1.2,0.3-1.7,0.8
		C61.6,55.5,61.3,56.1,61.3,56.9z"/>
	<path class="st3" d="M72.5,46.4v14.8h-2V46.4H72.5z"/>
	<path class="st3" d="M80,54.1L78.3,55c-0.3-0.5-0.6-0.8-1-0.8c-0.2,0-0.3,0.1-0.5,0.2s-0.2,0.3-0.2,0.5c0,0.3,0.4,0.7,1.1,1
		c1,0.5,1.8,0.9,2.1,1.2s0.5,0.9,0.5,1.5c0,0.8-0.3,1.5-0.9,2.1c-0.6,0.5-1.3,0.8-2.1,0.8c-1.4,0-2.5-0.7-3-2.1l1.7-0.8
		c0.2,0.4,0.4,0.7,0.5,0.8c0.2,0.2,0.5,0.3,0.9,0.3c0.7,0,1-0.3,1-0.9c0-0.4-0.3-0.7-0.8-1c-0.2-0.1-0.4-0.2-0.6-0.3
		s-0.4-0.2-0.6-0.3c-0.6-0.3-1-0.6-1.2-0.8C75,56,74.9,55.5,74.9,55c0-0.7,0.3-1.4,0.8-1.8c0.5-0.5,1.2-0.7,1.9-0.7
		C78.6,52.4,79.4,53,80,54.1z"/>
	<path class="st3" d="M89.9,54.5v6.7h-2v-6.7h-0.8v-1.8h0.8v-3.1h2v3.1h1.5v1.8H89.9z"/>
	<path class="st3" d="M93.1,46.4h2v7c0.7-0.6,1.5-0.9,2.3-0.9c1,0,1.7,0.3,2.3,0.9c0.5,0.5,0.7,1.4,0.7,2.6v5.2h-2v-5.1
		c0-0.7-0.1-1.2-0.4-1.5c-0.2-0.3-0.6-0.5-1.2-0.5c-0.7,0-1.2,0.2-1.5,0.6c-0.3,0.4-0.4,1.2-0.4,2.2v4.1h-2V46.4z"/>
	<path class="st3" d="M109.3,52.6h2v8.6h-2v-0.9c-0.8,0.8-1.7,1.1-2.6,1.1c-1.2,0-2.2-0.4-2.9-1.3c-0.8-0.9-1.2-2-1.2-3.3
		c0-1.3,0.4-2.4,1.2-3.2s1.7-1.3,2.9-1.3c1,0,1.9,0.4,2.7,1.2V52.6z M104.6,56.9c0,0.8,0.2,1.5,0.7,2c0.5,0.5,1,0.8,1.7,0.8
		c0.7,0,1.3-0.3,1.8-0.8c0.5-0.5,0.7-1.2,0.7-2s-0.2-1.5-0.7-2c-0.5-0.5-1-0.8-1.8-0.8c-0.7,0-1.2,0.3-1.7,0.8
		C104.8,55.5,104.6,56.1,104.6,56.9z"/>
	<path class="st3" d="M115.8,54.5v6.7h-2v-6.7H113v-1.8h0.8v-3.1h2v3.1h1.5v1.8H115.8z"/>
	<path class="st3" d="M130.6,52.6h2v8.6h-2v-0.9c-0.8,0.8-1.7,1.1-2.6,1.1c-1.2,0-2.2-0.4-2.9-1.3c-0.8-0.9-1.2-2-1.2-3.3
		c0-1.3,0.4-2.4,1.2-3.2s1.7-1.3,2.9-1.3c1,0,1.9,0.4,2.7,1.2V52.6z M125.9,56.9c0,0.8,0.2,1.5,0.7,2c0.5,0.5,1,0.8,1.7,0.8
		c0.7,0,1.3-0.3,1.8-0.8c0.5-0.5,0.7-1.2,0.7-2s-0.2-1.5-0.7-2c-0.5-0.5-1-0.8-1.8-0.8c-0.7,0-1.2,0.3-1.7,0.8
		C126.1,55.5,125.9,56.1,125.9,56.9z"/>
	<path class="st3" d="M141.7,52.6l2.2,4.9l2.4-5.7l2.4,5.7l2.2-4.9h2.2l-4.5,9.2l-2.4-5.5l-2.4,5.5l-4.5-9.2H141.7z"/>
	<path class="st3" d="M154.5,46.4h2v7c0.7-0.6,1.5-0.9,2.3-0.9c1,0,1.7,0.3,2.3,0.9c0.5,0.5,0.7,1.4,0.7,2.6v5.2h-2v-5.1
		c0-0.7-0.1-1.2-0.4-1.5c-0.2-0.3-0.6-0.5-1.2-0.5c-0.7,0-1.2,0.2-1.5,0.6c-0.3,0.4-0.4,1.2-0.4,2.2v4.1h-2V46.4z"/>
	<path class="st3" d="M164,56.9c0-1.2,0.4-2.3,1.3-3.2s2-1.3,3.2-1.3c1.3,0,2.4,0.4,3.3,1.3c0.9,0.9,1.3,1.9,1.3,3.2
		c0,1.3-0.4,2.4-1.3,3.2c-0.9,0.9-2,1.3-3.3,1.3c-1.3,0-2.4-0.4-3.2-1.3C164.4,59.3,164,58.2,164,56.9z M166,56.9
		c0,0.9,0.2,1.5,0.7,2c0.5,0.5,1.1,0.8,1.9,0.8c0.8,0,1.4-0.2,1.9-0.7s0.7-1.2,0.7-2s-0.2-1.5-0.7-2c-0.5-0.5-1.1-0.8-1.9-0.8
		c-0.8,0-1.4,0.3-1.8,0.8S166,56.1,166,56.9z"/>
	<path class="st3" d="M177.2,65.9h-2V52.6h2v0.9c0.8-0.8,1.7-1.2,2.7-1.2c1.2,0,2.1,0.4,2.9,1.3c0.8,0.9,1.2,1.9,1.2,3.3
		c0,1.3-0.4,2.4-1.2,3.2c-0.8,0.8-1.7,1.3-2.9,1.3c-1,0-1.9-0.4-2.7-1.2V65.9z M181.9,57c0-0.8-0.2-1.5-0.7-2
		c-0.5-0.5-1-0.8-1.7-0.8c-0.7,0-1.3,0.3-1.8,0.8s-0.7,1.2-0.7,2c0,0.8,0.2,1.5,0.7,2c0.4,0.5,1,0.8,1.8,0.8c0.7,0,1.3-0.3,1.7-0.8
		C181.7,58.4,181.9,57.7,181.9,57z"/>
	<path class="st3" d="M188,65.9h-2V52.6h2v0.9c0.8-0.8,1.7-1.2,2.7-1.2c1.2,0,2.1,0.4,2.9,1.3c0.8,0.9,1.2,1.9,1.2,3.3
		c0,1.3-0.4,2.4-1.2,3.2c-0.8,0.8-1.7,1.3-2.9,1.3c-1,0-1.9-0.4-2.7-1.2V65.9z M192.7,57c0-0.8-0.2-1.5-0.7-2
		c-0.5-0.5-1-0.8-1.7-0.8c-0.7,0-1.3,0.3-1.8,0.8s-0.7,1.2-0.7,2c0,0.8,0.2,1.5,0.7,2c0.4,0.5,1,0.8,1.8,0.8c0.7,0,1.3-0.3,1.7-0.8
		C192.5,58.4,192.7,57.7,192.7,57z"/>
	<path class="st3" d="M196.5,49.1c0-0.3,0.1-0.6,0.4-0.9s0.6-0.4,0.9-0.4c0.4,0,0.7,0.1,0.9,0.4c0.3,0.2,0.4,0.5,0.4,0.9
		s-0.1,0.7-0.4,0.9c-0.2,0.3-0.5,0.4-0.9,0.4s-0.7-0.1-0.9-0.4S196.5,49.4,196.5,49.1z M198.8,52.6v8.6h-2v-8.6H198.8z"/>
	<path class="st3" d="M201.3,52.6h2v0.8c0.7-0.7,1.5-1,2.3-1c1,0,1.8,0.3,2.3,0.9c0.5,0.5,0.7,1.4,0.7,2.6v5.2h-2v-4.8
		c0-0.8-0.1-1.4-0.4-1.7c-0.2-0.3-0.6-0.5-1.2-0.5c-0.7,0-1.1,0.2-1.4,0.7c-0.3,0.4-0.4,1.2-0.4,2.2v4.1h-2V52.6z"/>
	<path class="st3" d="M219.5,61c0,0.4,0,0.8,0,1.1c0,0.3-0.1,0.6-0.1,0.8c-0.1,0.6-0.4,1.2-0.8,1.7c-0.8,0.9-1.8,1.3-3.2,1.3
		c-1.1,0-2.1-0.3-2.8-0.9c-0.8-0.6-1.2-1.5-1.3-2.6h2c0.1,0.4,0.2,0.7,0.4,1c0.4,0.5,1,0.8,1.8,0.8c1.4,0,2.2-0.9,2.2-2.7v-1.2
		c-0.8,0.8-1.7,1.2-2.7,1.2c-1.2,0-2.1-0.4-2.9-1.3c-0.8-0.9-1.1-1.9-1.1-3.2c0-1.2,0.3-2.3,1-3.2c0.8-0.9,1.7-1.4,3-1.4
		c1.1,0,2,0.4,2.7,1.2v-1h2V61z M217.6,56.9c0-0.8-0.2-1.5-0.7-2c-0.5-0.5-1-0.8-1.7-0.8c-0.8,0-1.3,0.3-1.8,0.8
		c-0.4,0.5-0.6,1.1-0.6,1.9c0,0.8,0.2,1.4,0.6,1.9c0.4,0.5,1,0.8,1.8,0.8s1.4-0.3,1.8-0.8C217.4,58.4,217.6,57.7,217.6,56.9z"/>
</g>
<g class="st2">
</g>
<g class="st2">
</g>
<g class="st2">
	<path class="st3" d="M24.4,226.5c0-1.2,0.4-2.3,1.3-3.2s2-1.3,3.2-1.3c1.3,0,2.4,0.4,3.3,1.3c0.9,0.9,1.3,1.9,1.3,3.2
		c0,1.3-0.4,2.4-1.3,3.2c-0.9,0.9-2,1.3-3.3,1.3c-1.3,0-2.4-0.4-3.2-1.3C24.8,228.9,24.4,227.8,24.4,226.5z M26.4,226.5
		c0,0.9,0.2,1.5,0.7,2c0.5,0.5,1.1,0.8,1.9,0.8c0.8,0,1.4-0.2,1.9-0.7s0.7-1.2,0.7-2s-0.2-1.5-0.7-2c-0.5-0.5-1.1-0.8-1.9-0.8
		c-0.8,0-1.4,0.3-1.8,0.8S26.4,225.7,26.4,226.5z"/>
	<path class="st3" d="M37.6,224.1v6.7h-2v-6.7h-0.7v-1.8h0.7v-3.3c0-1.1,0.2-1.8,0.6-2.3c0.5-0.6,1.3-0.9,2.2-0.9
		c0.4,0,0.8,0.1,1.3,0.3v2l-0.2-0.1c-0.4-0.2-0.8-0.3-1.1-0.3c-0.4,0-0.6,0.1-0.7,0.4c-0.1,0.2-0.2,0.7-0.2,1.4v2.8h2.2v1.8H37.6z"
		/>
	<path class="st3" d="M48.5,235.5h-2v-13.2h2v0.9c0.8-0.8,1.7-1.2,2.7-1.2c1.2,0,2.1,0.4,2.9,1.3c0.8,0.9,1.2,1.9,1.2,3.3
		c0,1.3-0.4,2.4-1.2,3.2c-0.8,0.8-1.7,1.3-2.9,1.3c-1,0-1.9-0.4-2.7-1.2V235.5z M53.2,226.6c0-0.8-0.2-1.5-0.7-2
		c-0.5-0.5-1-0.8-1.7-0.8c-0.7,0-1.3,0.3-1.8,0.8s-0.7,1.2-0.7,2c0,0.8,0.2,1.5,0.7,2c0.4,0.5,1,0.8,1.8,0.8c0.7,0,1.3-0.3,1.7-0.8
		C52.9,228,53.2,227.3,53.2,226.6z"/>
	<path class="st3" d="M65.1,227h-6.1c0.1,0.7,0.3,1.3,0.7,1.7c0.4,0.4,0.9,0.6,1.6,0.6c0.5,0,0.9-0.1,1.2-0.4
		c0.3-0.2,0.7-0.7,1.1-1.3l1.7,0.9c-0.3,0.4-0.5,0.8-0.8,1.1s-0.6,0.6-0.9,0.8c-0.3,0.2-0.7,0.3-1.1,0.4s-0.8,0.1-1.2,0.1
		c-1.3,0-2.3-0.4-3.1-1.2c-0.8-0.8-1.2-1.9-1.2-3.3c0-1.4,0.4-2.4,1.1-3.3c0.8-0.8,1.8-1.2,3-1.2c1.3,0,2.3,0.4,3,1.2
		c0.7,0.8,1.1,1.9,1.1,3.3L65.1,227z M63,225.4c-0.3-1.1-0.9-1.6-2-1.6c-0.2,0-0.5,0-0.7,0.1c-0.2,0.1-0.4,0.2-0.6,0.3
		c-0.2,0.1-0.3,0.3-0.4,0.5s-0.2,0.4-0.3,0.7H63z"/>
	<path class="st3" d="M66.8,226.5c0-1.2,0.4-2.3,1.3-3.2s2-1.3,3.2-1.3c1.3,0,2.4,0.4,3.3,1.3c0.9,0.9,1.3,1.9,1.3,3.2
		c0,1.3-0.4,2.4-1.3,3.2c-0.9,0.9-2,1.3-3.3,1.3c-1.3,0-2.4-0.4-3.2-1.3C67.3,228.9,66.8,227.8,66.8,226.5z M68.8,226.5
		c0,0.9,0.2,1.5,0.7,2c0.5,0.5,1.1,0.8,1.9,0.8c0.8,0,1.4-0.2,1.9-0.7s0.7-1.2,0.7-2s-0.2-1.5-0.7-2c-0.5-0.5-1.1-0.8-1.9-0.8
		c-0.8,0-1.4,0.3-1.8,0.8S68.8,225.7,68.8,226.5z"/>
	<path class="st3" d="M80,235.5h-2v-13.2h2v0.9c0.8-0.8,1.7-1.2,2.7-1.2c1.2,0,2.1,0.4,2.9,1.3c0.8,0.9,1.2,1.9,1.2,3.3
		c0,1.3-0.4,2.4-1.2,3.2c-0.8,0.8-1.7,1.3-2.9,1.3c-1,0-1.9-0.4-2.7-1.2V235.5z M84.7,226.6c0-0.8-0.2-1.5-0.7-2
		c-0.5-0.5-1-0.8-1.7-0.8c-0.7,0-1.3,0.3-1.8,0.8s-0.7,1.2-0.7,2c0,0.8,0.2,1.5,0.7,2c0.4,0.5,1,0.8,1.8,0.8c0.7,0,1.3-0.3,1.7-0.8
		C84.5,228,84.7,227.3,84.7,226.6z"/>
	<path class="st3" d="M90.8,216v14.8h-2V216H90.8z"/>
	<path class="st3" d="M101.1,227H95c0.1,0.7,0.3,1.3,0.7,1.7c0.4,0.4,0.9,0.6,1.6,0.6c0.5,0,0.9-0.1,1.2-0.4
		c0.3-0.2,0.7-0.7,1.1-1.3l1.7,0.9c-0.3,0.4-0.5,0.8-0.8,1.1s-0.6,0.6-0.9,0.8c-0.3,0.2-0.7,0.3-1.1,0.4s-0.8,0.1-1.2,0.1
		c-1.3,0-2.3-0.4-3.1-1.2c-0.8-0.8-1.2-1.9-1.2-3.3c0-1.4,0.4-2.4,1.1-3.3c0.8-0.8,1.8-1.2,3-1.2c1.3,0,2.3,0.4,3,1.2
		c0.7,0.8,1.1,1.9,1.1,3.3L101.1,227z M99.1,225.4c-0.3-1.1-0.9-1.6-2-1.6c-0.2,0-0.5,0-0.7,0.1c-0.2,0.1-0.4,0.2-0.6,0.3
		c-0.2,0.1-0.3,0.3-0.4,0.5s-0.2,0.4-0.3,0.7H99.1z"/>
	<path class="st3" d="M113.8,223.7l-1.6,0.9c-0.3-0.5-0.6-0.8-1-0.8c-0.2,0-0.3,0.1-0.5,0.2s-0.2,0.3-0.2,0.5c0,0.3,0.4,0.7,1.1,1
		c1,0.5,1.8,0.9,2.1,1.2s0.5,0.9,0.5,1.5c0,0.8-0.3,1.5-0.9,2.1c-0.6,0.5-1.3,0.8-2.1,0.8c-1.4,0-2.5-0.7-3-2.1l1.7-0.8
		c0.2,0.4,0.4,0.7,0.5,0.8c0.2,0.2,0.5,0.3,0.9,0.3c0.7,0,1-0.3,1-0.9c0-0.4-0.3-0.7-0.8-1c-0.2-0.1-0.4-0.2-0.6-0.3
		s-0.4-0.2-0.6-0.3c-0.6-0.3-1-0.6-1.2-0.8c-0.3-0.4-0.4-0.8-0.4-1.4c0-0.7,0.3-1.4,0.8-1.8c0.5-0.5,1.2-0.7,1.9-0.7
		C112.5,222,113.3,222.6,113.8,223.7z"/>
	<path class="st3" d="M122.5,222.2h2v8.6h-2v-0.9c-0.8,0.8-1.7,1.1-2.6,1.1c-1.2,0-2.2-0.4-2.9-1.3c-0.8-0.9-1.2-2-1.2-3.3
		c0-1.3,0.4-2.4,1.2-3.2s1.7-1.3,2.9-1.3c1,0,1.9,0.4,2.7,1.2V222.2z M117.8,226.5c0,0.8,0.2,1.5,0.7,2c0.5,0.5,1,0.8,1.7,0.8
		c0.7,0,1.3-0.3,1.8-0.8c0.5-0.5,0.7-1.2,0.7-2s-0.2-1.5-0.7-2c-0.5-0.5-1-0.8-1.8-0.8c-0.7,0-1.2,0.3-1.7,0.8
		C118,225.1,117.8,225.7,117.8,226.5z"/>
	<path class="st3" d="M126.6,218.7c0-0.3,0.1-0.6,0.4-0.9s0.6-0.4,0.9-0.4c0.4,0,0.7,0.1,0.9,0.4c0.3,0.2,0.4,0.5,0.4,0.9
		s-0.1,0.7-0.4,0.9c-0.2,0.3-0.5,0.4-0.9,0.4s-0.7-0.1-0.9-0.4S126.6,219,126.6,218.7z M128.9,222.2v8.6h-2v-8.6H128.9z"/>
	<path class="st3" d="M137.7,216h2v14.8h-2v-0.9c-0.8,0.8-1.7,1.1-2.6,1.1c-1.2,0-2.1-0.4-2.9-1.3c-0.8-0.9-1.2-2-1.2-3.3
		c0-1.3,0.4-2.3,1.2-3.2c0.8-0.9,1.7-1.3,2.9-1.3c1,0,1.9,0.4,2.7,1.2V216z M133,226.5c0,0.8,0.2,1.5,0.7,2c0.5,0.5,1,0.8,1.7,0.8
		c0.7,0,1.3-0.3,1.8-0.8c0.5-0.5,0.7-1.2,0.7-2s-0.2-1.5-0.7-2c-0.5-0.5-1-0.8-1.8-0.8c-0.7,0-1.2,0.3-1.7,0.8
		C133.3,225.1,133,225.7,133,226.5z"/>
</g>
<g class="st2">
	<path class="st3" d="M161.4,215.9l1.1,14.9h-1.9l-0.6-8.6l-5.3,9.6l-2.9-9.6l-2.7,8.6H147l4.7-14.5l3.4,11.1L161.4,215.9z"/>
	<path class="st3" d="M166.8,227.4c0,0.6,0.2,1.1,0.6,1.5c0.4,0.4,1,0.6,1.6,0.6c0.9,0,1.6-0.3,2.1-1l1.5,0.8
		c-0.5,0.7-1,1.2-1.6,1.4c-0.5,0.3-1.2,0.4-2,0.4c-1.3,0-2.3-0.4-3.1-1.1s-1.1-1.8-1.1-3c0-1.3,0.4-2.4,1.3-3.3
		c0.8-0.9,1.9-1.3,3.2-1.3c1.2,0,2.2,0.4,2.9,1.2c0.7,0.8,1.1,1.9,1.1,3.2c0,0.1,0,0.4,0,0.7H166.8z M171.2,225.8
		c-0.2-1.3-0.9-1.9-2.1-1.9c-1.1,0-1.9,0.6-2.2,1.9H171.2z"/>
	<path class="st3" d="M177.8,224.3l-0.8,6.5h-1.9l0.8-6.5h-1.1l0.2-1.8h1.1l0.5-3.8h1.9l-0.5,3.8h1.8l-0.2,1.8H177.8z"/>
	<path class="st3" d="M189.7,222.5l-1,8.3h-1.9l0.1-0.9c-0.8,0.7-1.7,1.1-2.6,1.1c-1.1,0-2-0.4-2.7-1.1s-1-1.7-1-2.9
		c0-1.4,0.4-2.5,1.2-3.4c0.8-0.9,1.8-1.3,3.1-1.3c0.6,0,1.1,0.1,1.5,0.3c0.4,0.2,0.9,0.5,1.3,1l0.1-1.1H189.7z M187.3,226.4
		c0-0.7-0.2-1.3-0.6-1.8c-0.4-0.5-1-0.7-1.6-0.7c-0.7,0-1.3,0.3-1.8,0.9c-0.5,0.6-0.7,1.3-0.7,2.1c0,0.7,0.2,1.3,0.6,1.8
		s0.9,0.7,1.6,0.7c0.7,0,1.3-0.3,1.9-0.9C187.1,227.9,187.3,227.2,187.3,226.4z"/>
	<path class="st3" d="M195.1,216l-1.8,14.8h-1.9l1.8-14.8H195.1z"/>
</g>
<g class="st2">
	<path class="st3" d="M201.7,222.2h2v0.8c0.4-0.4,0.7-0.7,1-0.8c0.3-0.1,0.6-0.2,1.1-0.2c1,0,1.7,0.4,2.3,1.3
		c0.6-0.8,1.5-1.3,2.5-1.3c1.9,0,2.9,1.2,2.9,3.5v5.3h-2V226c0-0.8-0.1-1.4-0.3-1.7c-0.2-0.3-0.5-0.5-1-0.5c-0.5,0-0.9,0.2-1.2,0.6
		s-0.4,1.1-0.4,2v4.4h-2v-4.7c0-1.5-0.4-2.3-1.3-2.3c-0.6,0-1,0.2-1.2,0.6s-0.4,1.1-0.4,2v4.4h-2V222.2z"/>
	<path class="st3" d="M217.9,222.2v4.9c0,1.4,0.6,2.1,1.7,2.1s1.7-0.7,1.7-2.1v-4.9h2v5c0,0.7-0.1,1.3-0.3,1.8
		c-0.2,0.4-0.4,0.8-0.9,1.2c-0.7,0.6-1.5,0.9-2.5,0.9c-1,0-1.9-0.3-2.5-0.9c-0.4-0.4-0.7-0.8-0.9-1.2c-0.2-0.4-0.2-1-0.2-1.8v-5
		H217.9z"/>
	<path class="st3" d="M230.7,223.7l-1.6,0.9c-0.3-0.5-0.6-0.8-1-0.8c-0.2,0-0.3,0.1-0.5,0.2s-0.2,0.3-0.2,0.5c0,0.3,0.4,0.7,1.1,1
		c1,0.5,1.8,0.9,2.1,1.2s0.5,0.9,0.5,1.5c0,0.8-0.3,1.5-0.9,2.1c-0.6,0.5-1.3,0.8-2.1,0.8c-1.4,0-2.5-0.7-3-2.1l1.7-0.8
		c0.2,0.4,0.4,0.7,0.5,0.8c0.2,0.2,0.5,0.3,0.9,0.3c0.7,0,1-0.3,1-0.9c0-0.4-0.3-0.7-0.8-1c-0.2-0.1-0.4-0.2-0.6-0.3
		s-0.4-0.2-0.6-0.3c-0.6-0.3-1-0.6-1.2-0.8c-0.3-0.4-0.4-0.8-0.4-1.4c0-0.7,0.3-1.4,0.8-1.8c0.5-0.5,1.2-0.7,1.9-0.7
		C229.4,222,230.2,222.6,230.7,223.7z"/>
	<path class="st3" d="M232.8,218.7c0-0.3,0.1-0.6,0.4-0.9s0.6-0.4,0.9-0.4c0.4,0,0.7,0.1,0.9,0.4c0.3,0.2,0.4,0.5,0.4,0.9
		s-0.1,0.7-0.4,0.9c-0.2,0.3-0.5,0.4-0.9,0.4s-0.7-0.1-0.9-0.4S232.8,219,232.8,218.7z M235,222.2v8.6h-2v-8.6H235z"/>
	<path class="st3" d="M244.2,222.6v2.6c-0.5-0.6-0.9-0.9-1.2-1.1c-0.4-0.2-0.8-0.3-1.2-0.3c-0.7,0-1.4,0.3-1.9,0.8s-0.7,1.2-0.7,2
		c0,0.8,0.2,1.5,0.7,2c0.5,0.5,1.1,0.8,1.8,0.8c0.5,0,0.9-0.1,1.3-0.3c0.4-0.2,0.8-0.6,1.2-1.2v2.6c-0.8,0.4-1.6,0.6-2.4,0.6
		c-1.3,0-2.4-0.4-3.3-1.3c-0.9-0.9-1.3-1.9-1.3-3.2s0.5-2.4,1.4-3.2s2-1.3,3.3-1.3C242.7,222,243.5,222.2,244.2,222.6z"/>
</g>
<g class="st2">
	<path class="st3" d="M24.8,250.4h2v0.8c0.4-0.4,0.7-0.7,1-0.8c0.3-0.1,0.6-0.2,1.1-0.2c1,0,1.7,0.4,2.3,1.3
		c0.6-0.8,1.5-1.3,2.5-1.3c1.9,0,2.9,1.2,2.9,3.5v5.3h-2v-4.8c0-0.8-0.1-1.4-0.3-1.7c-0.2-0.3-0.5-0.5-1-0.5c-0.5,0-0.9,0.2-1.2,0.6
		s-0.4,1.1-0.4,2v4.4h-2v-4.7c0-1.5-0.4-2.3-1.3-2.3c-0.6,0-1,0.2-1.2,0.6s-0.4,1.1-0.4,2v4.4h-2V250.4z"/>
	<path class="st3" d="M45.3,250.4h2v8.6h-2v-0.9c-0.8,0.8-1.7,1.1-2.6,1.1c-1.2,0-2.2-0.4-2.9-1.3c-0.8-0.9-1.2-2-1.2-3.3
		c0-1.3,0.4-2.4,1.2-3.2s1.7-1.3,2.9-1.3c1,0,1.9,0.4,2.7,1.2V250.4z M40.6,254.7c0,0.8,0.2,1.5,0.7,2c0.5,0.5,1,0.8,1.7,0.8
		c0.7,0,1.3-0.3,1.8-0.8c0.5-0.5,0.7-1.2,0.7-2s-0.2-1.5-0.7-2c-0.5-0.5-1-0.8-1.8-0.8c-0.7,0-1.2,0.3-1.7,0.8
		C40.8,253.3,40.6,253.9,40.6,254.7z"/>
	<path class="st3" d="M51.8,244.2v9.1l2.8-2.8h2.7l-3.7,3.6l4,5h-2.6l-2.8-3.6l-0.3,0.3v3.3h-2v-14.8H51.8z"/>
	<path class="st3" d="M66.3,255.2h-6.1c0.1,0.7,0.3,1.3,0.7,1.7c0.4,0.4,0.9,0.6,1.6,0.6c0.5,0,0.9-0.1,1.2-0.4
		c0.3-0.2,0.7-0.7,1.1-1.3l1.7,0.9c-0.3,0.4-0.5,0.8-0.8,1.1s-0.6,0.6-0.9,0.8c-0.3,0.2-0.7,0.3-1.1,0.4s-0.8,0.1-1.2,0.1
		c-1.3,0-2.3-0.4-3.1-1.2c-0.8-0.8-1.2-1.9-1.2-3.3c0-1.4,0.4-2.4,1.1-3.3c0.8-0.8,1.8-1.2,3-1.2c1.3,0,2.3,0.4,3,1.2
		c0.7,0.8,1.1,1.9,1.1,3.3L66.3,255.2z M64.2,253.6c-0.3-1.1-0.9-1.6-2-1.6c-0.2,0-0.5,0-0.7,0.1c-0.2,0.1-0.4,0.2-0.6,0.3
		c-0.2,0.1-0.3,0.3-0.4,0.5s-0.2,0.4-0.3,0.7H64.2z"/>
	<path class="st3" d="M73.4,251.9l-1.6,0.9c-0.3-0.5-0.6-0.8-1-0.8c-0.2,0-0.3,0.1-0.5,0.2s-0.2,0.3-0.2,0.5c0,0.3,0.4,0.7,1.1,1
		c1,0.5,1.8,0.9,2.1,1.2s0.5,0.9,0.5,1.5c0,0.8-0.3,1.5-0.9,2.1c-0.6,0.5-1.3,0.8-2.1,0.8c-1.4,0-2.5-0.7-3-2.1l1.7-0.8
		c0.2,0.4,0.4,0.7,0.5,0.8c0.2,0.2,0.5,0.3,0.9,0.3c0.7,0,1-0.3,1-0.9c0-0.4-0.3-0.7-0.8-1c-0.2-0.1-0.4-0.2-0.6-0.3
		s-0.4-0.2-0.6-0.3c-0.6-0.3-1-0.6-1.2-0.8c-0.3-0.4-0.4-0.8-0.4-1.4c0-0.7,0.3-1.4,0.8-1.8c0.5-0.5,1.2-0.7,1.9-0.7
		C72.1,250.2,72.9,250.8,73.4,251.9z"/>
	<path class="st3" d="M83.3,252.3v6.7h-2v-6.7h-0.8v-1.8h0.8v-3.1h2v3.1h1.5v1.8H83.3z"/>
	<path class="st3" d="M86.6,244.2h2v7c0.7-0.6,1.5-0.9,2.3-0.9c1,0,1.7,0.3,2.3,0.9c0.5,0.5,0.7,1.4,0.7,2.6v5.2h-2v-5.1
		c0-0.7-0.1-1.2-0.4-1.5c-0.2-0.3-0.6-0.5-1.2-0.5c-0.7,0-1.2,0.2-1.5,0.6c-0.3,0.4-0.4,1.2-0.4,2.2v4.1h-2V244.2z"/>
	<path class="st3" d="M104.2,255.2h-6.1c0.1,0.7,0.3,1.3,0.7,1.7c0.4,0.4,0.9,0.6,1.6,0.6c0.5,0,0.9-0.1,1.2-0.4
		c0.3-0.2,0.7-0.7,1.1-1.3l1.7,0.9c-0.3,0.4-0.5,0.8-0.8,1.1s-0.6,0.6-0.9,0.8c-0.3,0.2-0.7,0.3-1.1,0.4s-0.8,0.1-1.2,0.1
		c-1.3,0-2.3-0.4-3.1-1.2c-0.8-0.8-1.2-1.9-1.2-3.3c0-1.4,0.4-2.4,1.1-3.3c0.8-0.8,1.8-1.2,3-1.2c1.3,0,2.3,0.4,3,1.2
		c0.7,0.8,1.1,1.9,1.1,3.3L104.2,255.2z M102.2,253.6c-0.3-1.1-0.9-1.6-2-1.6c-0.2,0-0.5,0-0.7,0.1c-0.2,0.1-0.4,0.2-0.6,0.3
		c-0.2,0.1-0.3,0.3-0.4,0.5s-0.2,0.4-0.3,0.7H102.2z"/>
	<path class="st3" d="M106.4,250.4h2v0.8c0.4-0.4,0.7-0.7,1-0.8c0.3-0.1,0.6-0.2,1.1-0.2c1,0,1.7,0.4,2.3,1.3
		c0.6-0.8,1.5-1.3,2.5-1.3c1.9,0,2.9,1.2,2.9,3.5v5.3h-2v-4.8c0-0.8-0.1-1.4-0.3-1.7c-0.2-0.3-0.5-0.5-1-0.5c-0.5,0-0.9,0.2-1.2,0.6
		s-0.4,1.1-0.4,2v4.4h-2v-4.7c0-1.5-0.4-2.3-1.3-2.3c-0.6,0-1,0.2-1.2,0.6s-0.4,1.1-0.4,2v4.4h-2V250.4z"/>
	<path class="st3" d="M128.2,252.3v6.7h-2v-6.7h-0.7v-1.8h0.7v-3.3c0-1.1,0.2-1.8,0.6-2.3c0.5-0.6,1.3-0.9,2.2-0.9
		c0.4,0,0.8,0.1,1.3,0.3v2l-0.2-0.1c-0.4-0.2-0.8-0.3-1.1-0.3c-0.4,0-0.6,0.1-0.7,0.4c-0.1,0.2-0.2,0.7-0.2,1.4v2.8h2.2v1.8H128.2z"
		/>
	<path class="st3" d="M139.6,255.2h-6.1c0.1,0.7,0.3,1.3,0.7,1.7c0.4,0.4,0.9,0.6,1.6,0.6c0.5,0,0.9-0.1,1.2-0.4
		c0.3-0.2,0.7-0.7,1.1-1.3l1.7,0.9c-0.3,0.4-0.5,0.8-0.8,1.1s-0.6,0.6-0.9,0.8c-0.3,0.2-0.7,0.3-1.1,0.4s-0.8,0.1-1.2,0.1
		c-1.3,0-2.3-0.4-3.1-1.2c-0.8-0.8-1.2-1.9-1.2-3.3c0-1.4,0.4-2.4,1.1-3.3c0.8-0.8,1.8-1.2,3-1.2c1.3,0,2.3,0.4,3,1.2
		c0.7,0.8,1.1,1.9,1.1,3.3L139.6,255.2z M137.6,253.6c-0.3-1.1-0.9-1.6-2-1.6c-0.2,0-0.5,0-0.7,0.1c-0.2,0.1-0.4,0.2-0.6,0.3
		c-0.2,0.1-0.3,0.3-0.4,0.5s-0.2,0.4-0.3,0.7H137.6z"/>
	<path class="st3" d="M149.6,255.2h-6.1c0.1,0.7,0.3,1.3,0.7,1.7c0.4,0.4,0.9,0.6,1.6,0.6c0.5,0,0.9-0.1,1.2-0.4
		c0.3-0.2,0.7-0.7,1.1-1.3l1.7,0.9c-0.3,0.4-0.5,0.8-0.8,1.1s-0.6,0.6-0.9,0.8c-0.3,0.2-0.7,0.3-1.1,0.4s-0.8,0.1-1.2,0.1
		c-1.3,0-2.3-0.4-3.1-1.2c-0.8-0.8-1.2-1.9-1.2-3.3c0-1.4,0.4-2.4,1.1-3.3c0.8-0.8,1.8-1.2,3-1.2c1.3,0,2.3,0.4,3,1.2
		c0.7,0.8,1.1,1.9,1.1,3.3L149.6,255.2z M147.5,253.6c-0.3-1.1-0.9-1.6-2-1.6c-0.2,0-0.5,0-0.7,0.1c-0.2,0.1-0.4,0.2-0.6,0.3
		c-0.2,0.1-0.3,0.3-0.4,0.5s-0.2,0.4-0.3,0.7H147.5z"/>
	<path class="st3" d="M153.7,244.2V259h-2v-14.8H153.7z"/>
	<path class="st3" d="M168.1,250.4h2v8.6h-2v-0.9c-0.8,0.8-1.7,1.1-2.6,1.1c-1.2,0-2.2-0.4-2.9-1.3c-0.8-0.9-1.2-2-1.2-3.3
		c0-1.3,0.4-2.4,1.2-3.2s1.7-1.3,2.9-1.3c1,0,1.9,0.4,2.7,1.2V250.4z M163.4,254.7c0,0.8,0.2,1.5,0.7,2c0.5,0.5,1,0.8,1.7,0.8
		c0.7,0,1.3-0.3,1.8-0.8c0.5-0.5,0.7-1.2,0.7-2s-0.2-1.5-0.7-2c-0.5-0.5-1-0.8-1.8-0.8c-0.7,0-1.2,0.3-1.7,0.8
		C163.6,253.3,163.4,253.9,163.4,254.7z"/>
	<path class="st3" d="M172.5,250.4h2v0.8c0.7-0.7,1.5-1,2.3-1c1,0,1.8,0.3,2.3,0.9c0.5,0.5,0.7,1.4,0.7,2.6v5.2h-2v-4.8
		c0-0.8-0.1-1.4-0.4-1.7c-0.2-0.3-0.6-0.5-1.2-0.5c-0.7,0-1.1,0.2-1.4,0.7c-0.3,0.4-0.4,1.2-0.4,2.2v4.1h-2V250.4z"/>
	<path class="st3" d="M190.7,258.8c0,0.4,0,0.8,0,1.1c0,0.3-0.1,0.6-0.1,0.8c-0.1,0.6-0.4,1.2-0.8,1.7c-0.8,0.9-1.8,1.3-3.2,1.3
		c-1.1,0-2.1-0.3-2.8-0.9c-0.8-0.6-1.2-1.5-1.3-2.6h2c0.1,0.4,0.2,0.7,0.4,1c0.4,0.5,1,0.8,1.8,0.8c1.4,0,2.2-0.9,2.2-2.7V258
		c-0.8,0.8-1.7,1.2-2.7,1.2c-1.2,0-2.1-0.4-2.9-1.3c-0.8-0.9-1.1-1.9-1.1-3.2c0-1.2,0.3-2.3,1-3.2c0.8-0.9,1.7-1.4,3-1.4
		c1.1,0,2,0.4,2.7,1.2v-1h2V258.8z M188.8,254.7c0-0.8-0.2-1.5-0.7-2c-0.5-0.5-1-0.8-1.7-0.8c-0.8,0-1.3,0.3-1.8,0.8
		c-0.4,0.5-0.6,1.1-0.6,1.9c0,0.8,0.2,1.4,0.6,1.9c0.4,0.5,1,0.8,1.8,0.8s1.4-0.3,1.8-0.8C188.6,256.2,188.8,255.5,188.8,254.7z"/>
	<path class="st3" d="M193.2,250.4h2v0.8c0.4-0.4,0.7-0.6,1-0.8c0.3-0.1,0.6-0.2,1-0.2c0.5,0,1.1,0.2,1.6,0.5l-0.9,1.8
		c-0.4-0.3-0.7-0.4-1.1-0.4c-1.1,0-1.6,0.8-1.6,2.4v4.4h-2V250.4z"/>
	<path class="st3" d="M203.4,257.4l-3.8-7h2.3l2.6,4.9l2.4-4.9h2.2l-6.8,13.2h-2.3L203.4,257.4z"/>
	<path class="st3" d="M211,258c0-0.3,0.1-0.6,0.4-0.9s0.5-0.4,0.9-0.4s0.6,0.1,0.9,0.4s0.4,0.5,0.4,0.9c0,0.3-0.1,0.6-0.4,0.9
		c-0.2,0.2-0.5,0.4-0.9,0.4c-0.3,0-0.6-0.1-0.9-0.4S211,258.4,211,258z M211.2,256v-10.5h2V256H211.2z"/>
</g>
<rect x="80.5" y="113" class="st4" width="141" height="80"/>
<g class="st2">
	<path class="st0" d="M107,150.8c0,3.3-1.1,6-3.4,8.3c-2.3,2.3-5.1,3.4-8.3,3.4h-0.6c-3.3,0-6-1.1-8.3-3.4c-2.3-2.3-3.4-5-3.4-8.2
		v-4.5c0-3,1-5.6,3-7.9c0.9-1,1.9-1.8,3-2.4c-2-1-3.5-2.7-4.6-5.1c-0.5-1.2-0.8-2.8-0.8-4.6v-2.7c0-3.2,0.9-5.8,2.8-7.9
		c2.1-2.3,4.8-3.5,8.3-3.5h0.6c3.5,0,6.2,1.2,8.3,3.5c1.9,2.1,2.8,4.7,2.8,7.9v2.7c0,3-0.9,5.6-2.7,7.6c-0.8,0.9-1.7,1.6-2.7,2.1
		c2.2,1.2,3.9,3.1,5.1,5.6c0.6,1.3,0.9,2.8,0.9,4.6V150.8z M99.9,125.8c-0.1-3.3-1.1-5.5-3.2-6.3c-0.5-0.2-1-0.3-1.7-0.3
		c-1.3,0-2.3,0.4-3.1,1.1c-0.7,0.6-1.1,1.3-1.4,2.2c-0.3,0.9-0.4,2-0.3,3.4c0.1,2.1,0.4,3.7,1,4.6c0.8,1.2,2.1,1.9,3.8,1.9
		c1.8,0,3.1-0.7,3.9-2C99.6,129.2,99.9,127.7,99.9,125.8z M99.6,147.4c0-2.9-0.7-4.9-2-5.9c-0.6-0.5-1.5-0.7-2.6-0.7
		c-2,0-3.3,0.8-4,2.5c-0.4,1-0.6,2.4-0.6,4.1v2.3c0,1.6,0.5,2.9,1.5,3.9c0.8,0.8,1.9,1.3,3.1,1.3c2-0.1,3.4-1.1,4.2-3
		c0.3-0.6,0.4-1.4,0.4-2.3V147.4z"/>
	<path class="st0" d="M112.1,144l13-31h7.4v31h4.7v7.4h-4.7V162h-7.4v-10.5h-13V144z M125.1,144v-15.3l-6.1,15.3H125.1z"/>
	<path class="st0" d="M154.6,131c0,1.7-0.6,3.1-1.8,4.3c-1.2,1.2-2.7,1.8-4.3,1.8c-1.7,0-3.1-0.6-4.3-1.8c-1.2-1.2-1.8-2.6-1.8-4.3
		v-14c0-1.7,0.6-3.1,1.8-4.3c1.2-1.2,2.6-1.8,4.3-1.8c1.7,0,3.1,0.6,4.3,1.8c1.2,1.2,1.8,2.7,1.8,4.3V131z M149,162.8h-4.3l25-51.8
		h4.3L149,162.8z M146.1,131c0,0.6,0.2,1.2,0.6,1.6s1,0.6,1.6,0.6s1.2-0.2,1.6-0.6s0.6-1,0.6-1.6v-14c0-0.6-0.2-1.2-0.6-1.6
		s-1-0.6-1.6-0.6s-1.2,0.2-1.6,0.6s-0.6,1-0.6,1.6V131z M170.2,136.1c1.7,0,3.1,0.6,4.3,1.8c1.2,1.2,1.8,2.7,1.8,4.3v14
		c0,1.7-0.6,3.1-1.8,4.3c-1.2,1.2-2.6,1.8-4.3,1.8c-1.7,0-3.1-0.6-4.3-1.8c-1.2-1.2-1.8-2.6-1.8-4.3v-14c0-1.7,0.6-3.1,1.8-4.3
		C167.1,136.7,168.5,136.1,170.2,136.1z M172.3,142.1c0-0.6-0.2-1.2-0.6-1.6s-1-0.6-1.6-0.6s-1.2,0.2-1.6,0.6s-0.6,1-0.6,1.6v14
		c0,0.6,0.2,1.2,0.6,1.6s1,0.6,1.6,0.6s1.2-0.2,1.6-0.6s0.6-1,0.6-1.6V142.1z"/>
</g>
</svg>
