<!-- Generator: Adobe Illustrator 18.1.1, SVG Export Plug-In  -->
<svg version="1.1"
	 xmlns="http://www.w3.org/2000/svg" xmlns:xlink="http://www.w3.org/1999/xlink" xmlns:a="http://ns.adobe.com/AdobeSVGViewerExtensions/3.0/"
	 x="0px" y="0px" width="394.1px" height="630.6px" viewBox="0 0 394.1 630.6" enable-background="new 0 0 394.1 630.6"
	 xml:space="preserve">
<defs>
</defs>
<g>
	<path fill="#4C5256" d="M196.7,607.6c-52.3,21.1-109.3,27.9-164.8,19.5l2.3-15.2c52.8,8,106.9,1.6,156.7-18.5
		c74.3-30,132.4-87.1,163.7-160.8c31.3-73.7,32-155.2,2.1-229.5c-27.4-67.9-78.5-123.3-144-156C147.9,14.7,73.7,6.8,3.9,24.9L0,10
		C73.4-9,151.4-0.7,219.6,33.3c68.8,34.4,122.6,92.6,151.4,164c31.5,78.1,30.8,163.8-2.2,241.3C335.9,516,274.8,576.1,196.7,607.6z"
		/>
</g>
</svg>
