<?xml version="1.0" encoding="utf-8"?>
<!-- Generator: Adobe Illustrator 19.2.0, SVG Export Plug-In . SVG Version: 6.00 Build 0)  -->
<svg version="1.1" id="Layer_1" xmlns="http://www.w3.org/2000/svg" xmlns:xlink="http://www.w3.org/1999/xlink" x="0px" y="0px"
	 viewBox="0 0 700.2 49.2" style="enable-background:new 0 0 700.2 49.2;" xml:space="preserve">
<style type="text/css">
	.st0{enable-background:new    ;}
	.st1{fill:#DAEBF1;}
</style>
<g class="st0">
	<path class="st1" d="M8.1,25.6v17h-6v-40h6v17h7.3v-17h6v40h-6v-17H8.1z"/>
	<path class="st1" d="M36.3,2c2.7,0,4.9,0.9,6.8,2.8c1.9,1.9,2.8,4.1,2.8,6.8v21.9c0,2.7-0.9,4.9-2.8,6.8C41.2,42.1,39,43,36.3,43
		c-2.7,0-4.9-0.9-6.8-2.8s-2.8-4.1-2.8-6.8V11.6c0-2.7,0.9-4.9,2.8-6.8C31.5,2.9,33.7,2,36.3,2z M39.6,11.4c0-1-0.3-1.8-1-2.4
		c-0.7-0.7-1.5-1-2.4-1c-1,0-1.8,0.3-2.5,1c-0.7,0.7-1,1.5-1,2.4v21.9c0,1,0.3,1.8,1,2.4c0.7,0.7,1.5,1,2.5,1c1,0,1.8-0.3,2.4-1
		c0.7-0.7,1-1.5,1-2.4V11.4z"/>
	<path class="st1" d="M74.9,2.5h6.3l-6.3,40h-5.8l-3.4-22l-3.2,22h-5.8l-6.7-40h6.3l3.2,21.4l2.9-21.4h6.3L72,23.9L74.9,2.5z"/>
	<path class="st1" d="M95.6,42.5h-6V2.4h8.7l5.6,28.8l5.4-28.8h8.3v40.1h-6V17.3l-5.2,25.2h-4.9l-5.8-25.1V42.5z"/>
	<path class="st1" d="M132.5,43c-2.7,0-4.9-0.9-6.8-2.8s-2.8-4.1-2.8-6.7v-31h5.9v30.9c0,1,0.3,1.8,1,2.4c0.7,0.7,1.5,1,2.5,1
		c1,0,1.8-0.3,2.4-1c0.7-0.7,1-1.5,1-2.4V2.5h6.3v31c0,2.7-0.9,4.9-2.8,6.8C137.4,42.1,135.1,43,132.5,43z"/>
	<path class="st1" d="M167.1,32.6c0,2.8-0.7,5.2-2.2,7.2c-1,1.3-2.4,2.3-4.2,2.8c-1,0.3-2.1,0.4-3.4,0.4c-2.4,0-4.3-0.6-5.9-1.8
		c-1.3-1-2.3-2.3-3.1-3.9c-0.8-1.7-1.2-3.5-1.3-5.7l5.8-0.4c0.3,2.3,0.9,4,1.9,5.1c0.7,0.8,1.6,1.2,2.5,1.1c1.3,0,2.4-0.7,3.2-2
		c0.4-0.6,0.6-1.5,0.6-2.7c0-1.7-0.8-3.3-2.3-5c-1.2-1.1-3-2.8-5.4-5.1c-2-1.9-3.4-3.7-4.3-5.2c-0.9-1.7-1.3-3.6-1.3-5.6
		c0-3.6,1.2-6.4,3.7-8.3c1.5-1.1,3.4-1.7,5.6-1.7c2.2,0,4,0.5,5.5,1.4c1.2,0.7,2.2,1.8,2.9,3.1c0.7,1.3,1.2,2.9,1.3,4.6l-5.8,1.1
		c-0.2-1.6-0.6-2.9-1.4-3.8c-0.6-0.7-1.4-1-2.4-1c-1.1,0-1.9,0.5-2.5,1.5c-0.5,0.8-0.7,1.8-0.7,2.9c0,1.8,0.8,3.7,2.4,5.6
		c0.6,0.7,1.5,1.6,2.7,2.6c1.4,1.2,2.3,2,2.8,2.5c1.5,1.5,2.6,3,3.5,4.4c0.4,0.7,0.7,1.3,0.9,1.9C166.7,30.1,167,31.4,167.1,32.6z"
		/>
	<path class="st1" d="M178.1,42.5h-6v-40h6V42.5z"/>
	<path class="st1" d="M193,43c-2.7,0-4.9-0.9-6.8-2.8c-1.9-1.9-2.8-4.1-2.8-6.8V11.6c0-2.7,0.9-4.9,2.8-6.8C188.1,3,190.4,2,193,2
		c2.7,0,4.9,0.9,6.8,2.8c1.9,1.9,2.8,4.1,2.8,6.8v4.6h-6.3v-4.7c0-1-0.3-1.8-1-2.5c-0.7-0.7-1.5-1-2.5-1c-1,0-1.8,0.3-2.4,1
		c-0.7,0.7-1,1.5-1,2.5v21.9c0,1,0.3,1.8,1,2.4c0.7,0.7,1.5,1,2.4,1c1,0,1.8-0.3,2.5-1c0.7-0.7,1-1.5,1-2.4v-5.5h6.3v5.6
		c0,2.7-0.9,4.9-2.8,6.8C197.9,42.1,195.7,43,193,43z"/>
	<path class="st1" d="M217.3,8.6h-6.4V2.5h18.9v6.1h-6.4v34h-6V8.6z"/>
	<path class="st1" d="M244.1,2.5c3.4,0,5.8,0.9,7.4,2.8c1.4,1.6,2.1,3.9,2.1,6.8v5.8c0,2.8-1.1,5.2-3.2,7.2l4.5,17.5h-6.5l-3.7-15.1
		c-0.2,0-0.4,0-0.5,0h-3.5v15.1h-6v-40H244.1z M247.7,12.1c0-2.3-1.2-3.5-3.5-3.5h-3.6v12.8h3.6c1,0,1.8-0.3,2.4-1
		c0.7-0.7,1-1.5,1-2.5V12.1z"/>
	<path class="st1" d="M267.5,33.3l-1.5,9.2h-6.3l6.8-40h8.3l6.7,40h-6.4l-1.4-9.2H267.5z M270.7,11.6l-2.2,15.8h4.5L270.7,11.6z"/>
	<path class="st1" d="M287.5,42.5l-7.2-40h6.3l5,31.2l5.1-31.2h6.3l-7.3,40H287.5z"/>
	<path class="st1" d="M308.2,42.5V2.4h17.2v6.1h-11.2v10.9h8.1v6.1h-8.1v10.9h11.2v6.1H308.2z"/>
	<path class="st1" d="M346,42.5h-16.5v-40h6v34H346V42.5z"/>
	<path class="st1" d="M369.3,32.6c0,2.8-0.7,5.2-2.2,7.2c-1,1.3-2.4,2.3-4.2,2.8c-1,0.3-2.1,0.4-3.4,0.4c-2.4,0-4.3-0.6-5.9-1.8
		c-1.3-1-2.3-2.3-3.1-3.9c-0.8-1.7-1.2-3.5-1.3-5.7l5.8-0.4c0.3,2.3,0.9,4,1.9,5.1c0.7,0.8,1.6,1.2,2.5,1.1c1.3,0,2.4-0.7,3.2-2
		c0.4-0.6,0.6-1.5,0.6-2.7c0-1.7-0.8-3.3-2.3-5c-1.2-1.1-3-2.8-5.4-5.1c-2-1.9-3.4-3.7-4.2-5.2c-0.9-1.7-1.3-3.6-1.3-5.6
		c0-3.6,1.2-6.4,3.7-8.3c1.5-1.1,3.4-1.7,5.6-1.7c2.2,0,4,0.5,5.5,1.4c1.2,0.7,2.2,1.8,2.9,3.1c0.7,1.3,1.2,2.9,1.3,4.6l-5.8,1.1
		c-0.2-1.6-0.6-2.9-1.4-3.8c-0.6-0.7-1.4-1-2.4-1c-1.1,0-1.9,0.5-2.5,1.5c-0.5,0.8-0.7,1.8-0.7,2.9c0,1.8,0.8,3.7,2.4,5.6
		c0.6,0.7,1.5,1.6,2.7,2.6c1.4,1.2,2.3,2,2.8,2.5c1.5,1.5,2.6,3,3.5,4.4c0.4,0.7,0.7,1.3,0.9,1.9C369,30.1,369.3,31.4,369.3,32.6z"
		/>
	<path class="st1" d="M384.1,8.6h-6.4V2.5h18.9v6.1h-6.4v34h-6V8.6z"/>
	<path class="st1" d="M407.4,25.6v17h-6v-40h6v17h7.3v-17h6v40h-6v-17H407.4z"/>
	<path class="st1" d="M435.6,2.5c3.4,0,5.8,0.9,7.4,2.8c1.4,1.6,2.1,3.9,2.1,6.8v5.8c0,2.8-1.1,5.2-3.2,7.2l4.5,17.5h-6.5l-3.7-15.1
		c-0.2,0-0.4,0-0.5,0h-3.5v15.1h-6v-40H435.6z M439.3,12.1c0-2.3-1.2-3.5-3.5-3.5h-3.6v12.8h3.6c1,0,1.8-0.3,2.4-1
		c0.7-0.7,1-1.5,1-2.5V12.1z"/>
	<path class="st1" d="M460.1,2c2.7,0,4.9,0.9,6.8,2.8s2.8,4.1,2.8,6.8v21.9c0,2.7-0.9,4.9-2.8,6.8c-1.9,1.9-4.1,2.8-6.8,2.8
		c-2.7,0-4.9-0.9-6.8-2.8c-1.9-1.9-2.8-4.1-2.8-6.8V11.6c0-2.7,0.9-4.9,2.8-6.8S457.5,2,460.1,2z M463.4,11.4c0-1-0.3-1.8-1-2.4
		c-0.7-0.7-1.5-1-2.4-1s-1.8,0.3-2.5,1c-0.7,0.7-1,1.5-1,2.4v21.9c0,1,0.3,1.8,1,2.4s1.5,1,2.5,1s1.8-0.3,2.4-1c0.7-0.7,1-1.5,1-2.4
		V11.4z"/>
	<path class="st1" d="M484.5,43c-2.7,0-4.9-0.9-6.8-2.8c-1.9-1.9-2.8-4.1-2.8-6.7v-31h5.9v30.9c0,1,0.3,1.8,1,2.4
		c0.7,0.7,1.5,1,2.5,1s1.8-0.3,2.4-1c0.7-0.7,1-1.5,1-2.4V2.5h6.3v31c0,2.7-0.9,4.9-2.8,6.8C489.4,42.1,487.1,43,484.5,43z"/>
	<path class="st1" d="M509,43c-2.7,0-4.9-0.9-6.8-2.8c-1.9-1.9-2.8-4.1-2.8-6.7V11.6c0-2.7,0.9-4.9,2.8-6.8C504.1,3,506.3,2,509,2
		c2.7,0,4.9,0.9,6.8,2.8c1.9,1.9,2.8,4.1,2.8,6.8v4.6h-6.3v-4.7c0-1-0.3-1.8-1-2.5s-1.5-1-2.5-1s-1.8,0.3-2.4,1
		c-0.7,0.7-1,1.5-1,2.5v21.9c0,1,0.3,1.8,1,2.4c0.7,0.7,1.5,1,2.4,1s1.8-0.3,2.5-1c0.7-0.7,1-1.5,1-2.4v-7.9h-3.4v-6.1h9.6v14
		c0,2.7-0.9,4.9-2.8,6.8C513.8,42.1,511.6,43,509,43z"/>
	<path class="st1" d="M529.8,25.6v17h-6v-40h6v17h7.3v-17h6v40h-6v-17H529.8z"/>
	<path class="st1" d="M557.9,8.6h-6.4V2.5h18.9v6.1h-6.4v34h-6V8.6z"/>
	<path class="st1" d="M581.2,25.6v17h-6v-40h6v17h7.3v-17h6v40h-6v-17H581.2z"/>
	<path class="st1" d="M599.9,42.5V2.4h17.2v6.1H606v10.9h8.1v6.1H606v10.9h11.2v6.1H599.9z"/>
	<path class="st1" d="M625.4,42.5V2.4h17.2v6.1h-11.2v10.9h8.1v6.1h-8.1v10.9h11.2v6.1H625.4z"/>
	<path class="st1" d="M654.5,33.3l-1.5,9.2h-6.3l6.8-40h8.3l6.7,40h-6.4l-1.4-9.2H654.5z M657.7,11.6l-2.2,15.8h4.5L657.7,11.6z"/>
	<path class="st1" d="M683.2,2.5c3.4,0,5.8,0.9,7.4,2.8c1.4,1.6,2.1,3.9,2.1,6.8v5.8c0,2.8-1.1,5.2-3.2,7.2l4.5,17.5h-6.5l-3.7-15.1
		c-0.2,0-0.4,0-0.5,0h-3.5v15.1h-6v-40H683.2z M686.8,12.1c0-2.3-1.2-3.5-3.5-3.5h-3.6v12.8h3.6c1,0,1.8-0.3,2.4-1
		c0.7-0.7,1-1.5,1-2.5V12.1z"/>
</g>
</svg>
