<!-- Generator: Adobe Illustrator 18.1.1, SVG Export Plug-In  -->
<svg version="1.1"
	 xmlns="http://www.w3.org/2000/svg" xmlns:xlink="http://www.w3.org/1999/xlink" xmlns:a="http://ns.adobe.com/AdobeSVGViewerExtensions/3.0/"
	 x="0px" y="0px" width="687.6px" height="711.4px" viewBox="0 0 687.6 711.4" enable-background="new 0 0 687.6 711.4"
	 xml:space="preserve">
<defs>
</defs>
<path fill="#5BB4E5" d="M687.6,350.6c-0.6-45.7-9.9-89.4-26.3-129.4c-1.3-3.2-2.6-6.3-4-9.4c-17.2-38.8-41.1-73.9-70.2-103.9
	c-2.4-2.5-4.8-4.9-7.3-7.3C548.2,69.9,510.9,45,469.7,27.7c-3.1-1.3-6.3-2.6-9.5-3.8C421.9,9,380.4,0.7,337,0c-1.7,0-3.4,0-5.1,0
	c-1.7,0-3.4,0-5.1,0C281,0.7,237.4,10,197.4,26.3c-3.2,1.3-6.3,2.6-9.4,4C149.1,47.5,114,71.4,84,100.6c-2.5,2.4-4.9,4.8-7.3,7.3
	c-30.7,31.6-55.6,68.9-72.9,110.1c-1.3,3.2-2.6,6.3-3.8,9.5L63.3,253c1.2-3.2,2.5-6.4,3.8-9.5c13.9-32.7,33.6-62.2,57.9-87.4
	c2.4-2.5,4.8-4.9,7.3-7.3c23.9-23,51.7-42,82.4-55.7c3.1-1.4,6.3-2.7,9.4-4c31.8-12.9,66.4-20.2,102.7-20.9c1.7,0,3.4-0.1,5.1-0.1
	s3.4,0,5.1,0.1c34.4,0.6,67.2,7.2,97.6,18.9c3.2,1.2,6.4,2.5,9.5,3.8c32.7,13.9,62.2,33.6,87.4,57.9c2.5,2.4,4.9,4.8,7.3,7.3
	c23,23.9,42,51.7,55.7,82.4c1.4,3.1,2.7,6.3,4,9.4c12.9,31.8,20.2,66.4,20.9,102.7c0,1.7,0.1,3.4,0.1,5.1c0,1.7,0,3.4-0.1,5.1
	c-0.6,34.4-7.2,67.2-18.9,97.6c-1.2,3.2-2.5,6.4-3.8,9.5c-13.9,32.7-33.6,62.2-57.9,87.4c-2.4,2.5-4.8,4.9-7.3,7.3
	c-23.9,23-51.7,42-82.4,55.7c-3.1,1.4-6.3,2.7-9.4,4c-31.8,12.9-66.4,20.2-102.7,20.9c-1.7,0-3.4,0.1-5.1,0.1s-3.4,0-5.1-0.1v68.2
	c1.7,0,3.4,0,5.1,0c1.7,0,3.4,0,5.1,0c45.7-0.6,89.4-9.9,129.4-26.3c3.2-1.3,6.3-2.6,9.4-4c38.8-17.2,73.9-41.1,103.9-70.2
	c2.5-2.4,4.9-4.8,7.3-7.3c30.7-31.6,55.6-68.9,72.9-110.1c1.3-3.2,2.6-6.3,3.8-9.5c14.8-38.3,23.2-79.8,23.8-123.1
	c0-1.7,0-3.4,0-5.1C687.6,354,687.6,352.3,687.6,350.6z"/>
</svg>
