<?xml version="1.0" encoding="utf-8"?>
<!-- Generator: Adobe Illustrator 19.2.0, SVG Export Plug-In . SVG Version: 6.00 Build 0)  -->
<svg version="1.1" id="Layer_1" xmlns="http://www.w3.org/2000/svg" xmlns:xlink="http://www.w3.org/1999/xlink" x="0px" y="0px"
	 viewBox="0 0 177.7 241.8" style="enable-background:new 0 0 177.7 241.8;" xml:space="preserve">
<style type="text/css">
	.st0{enable-background:new    ;}
	.st1{fill:#FFFFFF;}
</style>
<g class="st0">
	<path class="st1" d="M6.3,33.1H1.6V1.9h6.7l4.4,22.4l4.2-22.4h6.5v31.2h-4.7V13.5l-4.1,19.6h-3.8L6.3,13.5V33.1z"/>
	<path class="st1" d="M35,33.4c-2.1,0-3.8-0.7-5.3-2.2c-1.4-1.4-2.2-3.2-2.2-5.2V1.9h4.6v24c0,0.7,0.3,1.4,0.8,1.9
		c0.5,0.5,1.2,0.8,1.9,0.8c0.7,0,1.4-0.3,1.9-0.8c0.5-0.5,0.8-1.2,0.8-1.9v-24h4.9V26c0,2.1-0.7,3.8-2.2,5.3
		C38.8,32.7,37.1,33.4,35,33.4z"/>
	<path class="st1" d="M61.9,25.3c0,2.2-0.5,4-1.7,5.6c-0.8,1-1.8,1.8-3.2,2.2c-0.7,0.2-1.6,0.3-2.6,0.3c-1.8,0-3.4-0.5-4.6-1.4
		c-1-0.7-1.8-1.8-2.4-3c-0.6-1.3-0.9-2.8-1-4.4l4.5-0.3c0.2,1.8,0.7,3.1,1.4,3.9c0.6,0.6,1.2,0.9,1.9,0.9c1,0,1.8-0.5,2.5-1.5
		c0.3-0.5,0.5-1.2,0.5-2.1c0-1.3-0.6-2.6-1.8-3.9c-0.9-0.9-2.3-2.2-4.2-4c-1.6-1.5-2.7-2.9-3.3-4.1c-0.7-1.3-1-2.8-1-4.4
		c0-2.8,1-5,2.9-6.4c1.2-0.9,2.6-1.3,4.4-1.3c1.7,0,3.1,0.4,4.3,1.1c0.9,0.6,1.7,1.4,2.2,2.4s0.9,2.2,1,3.6l-4.5,0.8
		c-0.1-1.3-0.5-2.3-1.1-3C55.6,6,55,5.8,54.2,5.8c-0.9,0-1.5,0.4-2,1.1c-0.4,0.6-0.5,1.4-0.5,2.3c0,1.4,0.6,2.9,1.8,4.4
		c0.5,0.6,1.2,1.2,2.1,2c1.1,0.9,1.8,1.5,2.2,1.9c1.2,1.2,2.1,2.3,2.7,3.4c0.3,0.5,0.5,1,0.7,1.5C61.6,23.4,61.9,24.4,61.9,25.3z"/>
	<path class="st1" d="M70.5,33.1h-4.7V1.9h4.7V33.1z"/>
	<path class="st1" d="M82.1,33.5c-2.1,0-3.8-0.7-5.3-2.2c-1.5-1.5-2.2-3.2-2.2-5.3V9c0-2.1,0.7-3.8,2.2-5.3c1.5-1.4,3.2-2.2,5.3-2.2
		c2.1,0,3.8,0.7,5.3,2.2C88.8,5.2,89.5,7,89.5,9v3.6h-4.9V8.9c0-0.7-0.3-1.4-0.8-1.9S82.7,6.2,82,6.2c-0.7,0-1.4,0.3-1.9,0.8
		s-0.8,1.2-0.8,1.9V26c0,0.7,0.3,1.4,0.8,1.9c0.5,0.5,1.2,0.8,1.9,0.8c0.7,0,1.4-0.3,1.9-0.8c0.5-0.5,0.8-1.2,0.8-1.9v-4.3h4.9V26
		c0,2.1-0.7,3.8-2.2,5.3C85.9,32.8,84.1,33.5,82.1,33.5z"/>
	<path class="st1" d="M98.3,25.9l-1.1,7.2h-4.9l5.3-31.1h6.5l5.2,31.1h-4.9l-1.1-7.2H98.3z M100.7,9.1L99,21.3h3.5L100.7,9.1z"/>
	<path class="st1" d="M126,33.1h-12.8V1.9h4.7v26.5h8.1V33.1z"/>
	<path class="st1" d="M133.9,33.1h-4.7V1.9h4.7V33.1z"/>
	<path class="st1" d="M142.7,6.7h-5V1.9h14.7v4.7h-5v26.4h-4.7V6.7z"/>
	<path class="st1" d="M161.8,20l-6.3-18.1h5.2l3.5,11.2l3.5-11.2h5.2L166.5,20v13.1h-4.7V20z"/>
</g>
<g class="st0">
	<path class="st1" d="M8.3,80.6H2.1V39.6h6.2V80.6z"/>
	<path class="st1" d="M33.9,70.4c0,2.9-0.7,5.3-2.2,7.3c-1,1.4-2.4,2.3-4.2,2.9c-1,0.3-2.1,0.5-3.4,0.5c-2.4,0-4.4-0.6-6-1.8
		c-1.3-1-2.4-2.3-3.2-4c-0.8-1.7-1.2-3.6-1.4-5.8l5.9-0.4c0.3,2.4,0.9,4.1,1.9,5.2c0.7,0.8,1.6,1.2,2.5,1.1c1.4,0,2.4-0.7,3.2-2
		c0.4-0.6,0.6-1.5,0.6-2.7c0-1.7-0.8-3.4-2.3-5.1c-1.2-1.2-3-2.9-5.5-5.2c-2-2-3.5-3.8-4.3-5.3c-0.9-1.8-1.4-3.7-1.4-5.8
		c0-3.7,1.3-6.6,3.8-8.5c1.5-1.2,3.5-1.7,5.8-1.7c2.2,0,4.1,0.5,5.7,1.5c1.2,0.8,2.2,1.8,3,3.2s1.2,3,1.4,4.7l-5.9,1.1
		c-0.2-1.7-0.7-3-1.4-3.9c-0.6-0.7-1.4-1-2.5-1c-1.1,0-2,0.5-2.6,1.5c-0.5,0.8-0.7,1.8-0.7,3c0,1.9,0.8,3.8,2.4,5.7
		c0.6,0.7,1.5,1.6,2.7,2.6c1.4,1.2,2.4,2,2.8,2.5c1.5,1.5,2.7,3,3.5,4.5c0.4,0.7,0.7,1.3,0.9,1.9C33.6,67.9,33.9,69.2,33.9,70.4z"/>
	<path class="st1" d="M61.8,70.8c0,2.7-0.9,5-2.8,6.9c-1.9,1.9-4.2,2.9-6.9,2.9h-9.7v-41h9.7c2.7,0,5,1,6.9,2.9
		c1.9,1.9,2.8,4.2,2.8,6.9V70.8z M48.5,74.5h3.7c1,0,1.8-0.4,2.5-1.1c0.7-0.7,1-1.5,1-2.5V49.5c0-1-0.3-1.8-1-2.5
		c-0.7-0.7-1.5-1-2.5-1h-3.7V74.5z"/>
	<path class="st1" d="M67.2,80.6v-41h17.6v6.2H73.4V57h8.3v6.2h-8.3v11.2h11.4v6.2H67.2z"/>
	<path class="st1" d="M89,80.6v-41h17.6v6.2H95.2V57h8.3v6.2h-8.3v11.2h11.4v6.2H89z"/>
	<path class="st1" d="M120.6,39.6c3,0,5.4,0.9,7.2,2.8c1.7,1.8,2.5,4.1,2.5,6.9v5.9c0,2.7-0.9,5-2.8,6.9c-1.9,1.9-4.2,2.9-6.8,2.9
		H117v15.4h-6.2V39.6H120.6z M124.3,49.5c0-1.1-0.3-1.9-1-2.6c-0.6-0.7-1.5-1-2.6-1H117V59h3.7c1,0,1.8-0.3,2.5-1
		c0.7-0.7,1-1.5,1-2.5V49.5z"/>
	<path class="st1" d="M152,80.6h-16.8V39.6h6.2v34.8H152V80.6z"/>
	<path class="st1" d="M156.9,63.4l-8.3-23.8h6.8l4.6,14.7l4.5-14.7h6.8l-8.3,23.8v17.2h-6.2V63.4z"/>
</g>
<g class="st0">
</g>
<g class="st0">
	<path class="st1" d="M11.1,85.9c3.2,0,5.6,0.9,7.1,2.7c1.3,1.5,2,3.7,2,6.5v5.6c0,2.7-1,5-3.1,6.9l4.3,16.7h-6.2l-3.5-14.4
		c-0.2,0-0.3,0-0.5,0H7.8v14.4H2V85.9H11.1z M14.5,95.1c0-2.2-1.1-3.3-3.3-3.3H7.8V104h3.5c0.9,0,1.7-0.3,2.3-1c0.6-0.7,1-1.4,1-2.4
		V95.1z"/>
	<path class="st1" d="M34.4,85.4c2.5,0,4.7,0.9,6.5,2.7c1.8,1.8,2.7,4,2.7,6.5v20.9c0,2.5-0.9,4.7-2.7,6.5s-4,2.7-6.5,2.7
		c-2.5,0-4.7-0.9-6.5-2.7c-1.8-1.8-2.7-3.9-2.7-6.5V94.6c0-2.5,0.9-4.7,2.7-6.5C29.8,86.3,31.9,85.4,34.4,85.4z M37.6,94.5
		c0-0.9-0.3-1.7-1-2.3c-0.6-0.6-1.4-1-2.3-1c-0.9,0-1.7,0.3-2.4,1c-0.7,0.6-1,1.4-1,2.3v21c0,0.9,0.3,1.7,1,2.3c0.7,0.6,1.4,1,2.4,1
		c0.9,0,1.7-0.3,2.3-1c0.6-0.6,1-1.4,1-2.3V94.5z"/>
	<path class="st1" d="M57.7,85.4c2.5,0,4.7,0.9,6.5,2.7c1.8,1.8,2.7,4,2.7,6.5v20.9c0,2.5-0.9,4.7-2.7,6.5s-4,2.7-6.5,2.7
		c-2.5,0-4.7-0.9-6.5-2.7c-1.8-1.8-2.7-3.9-2.7-6.5V94.6c0-2.5,0.9-4.7,2.7-6.5C53.1,86.3,55.2,85.4,57.7,85.4z M60.9,94.5
		c0-0.9-0.3-1.7-1-2.3c-0.6-0.6-1.4-1-2.3-1c-0.9,0-1.7,0.3-2.4,1c-0.7,0.6-1,1.4-1,2.3v21c0,0.9,0.3,1.7,1,2.3c0.7,0.6,1.4,1,2.4,1
		c0.9,0,1.7-0.3,2.3-1c0.6-0.6,1-1.4,1-2.3V94.5z"/>
	<path class="st1" d="M77,91.7h-6.1v-5.8h18v5.8h-6.1v32.5H77V91.7z"/>
	<path class="st1" d="M93.5,124.2V85.9h16.4v5.8H99.3v10.4h7.8v5.8h-7.8v10.4h10.7v5.8H93.5z"/>
	<path class="st1" d="M132.1,115c0,2.5-0.9,4.7-2.7,6.5c-1.8,1.8-3.9,2.7-6.4,2.7h-9.1V85.9h9.1c2.5,0,4.7,0.9,6.4,2.7
		c1.8,1.8,2.6,3.9,2.6,6.4V115z M119.7,118.5h3.5c0.9,0,1.7-0.3,2.3-1c0.6-0.7,0.9-1.4,0.9-2.3v-20c0-0.9-0.3-1.7-1-2.4
		c-0.6-0.7-1.4-1-2.3-1h-3.5V118.5z"/>
	<path class="st1" d="M145.8,124.2H140V85.9h5.8V124.2z"/>
	<path class="st1" d="M157.4,85.9l7.7,25.7V85.9h5.8v38.3h-6.2l-7.9-24.5v24.5h-5.8V85.9H157.4z"/>
</g>
<g class="st0">
	<path class="st1" d="M10.6,160.7V183H2.7v-52.5h7.9v22.3h9.6v-22.3h7.9V183h-7.9v-22.3H10.6z"/>
	<path class="st1" d="M47.7,183.6c-3.5,0-6.5-1.2-8.9-3.6c-2.4-2.4-3.6-5.4-3.6-8.8v-40.6h7.8V171c0,1.3,0.4,2.3,1.3,3.2
		c0.9,0.9,2,1.3,3.2,1.3c1.3,0,2.3-0.4,3.2-1.3c0.9-0.9,1.3-1.9,1.3-3.2v-40.5h8.3v40.6c0,3.5-1.2,6.5-3.7,8.9
		C54.1,182.4,51.1,183.6,47.7,183.6z"/>
	<path class="st1" d="M75.2,183h-7.9v-52.5h11.4l7.4,37.7l7.1-37.7H104V183h-7.9v-33l-6.9,33h-6.4L75.2,150V183z"/>
	<path class="st1" d="M120.8,170.9l-1.9,12.1h-8.2l8.9-52.5h10.9l8.8,52.5H131l-1.9-12.1H120.8z M125,142.5l-2.9,20.7h5.9L125,142.5
		z"/>
	<path class="st1" d="M154.8,130.4l10.5,35.3v-35.3h7.9V183h-8.5l-10.9-33.6V183h-7.9v-52.5H154.8z"/>
</g>
<g class="st0">
	<path class="st1" d="M2.4,234.2v-45.4h10.3c2.7,0,5.1,0.7,7.3,2.1c1.9,1.2,3.2,3.1,4,5.6c0.4,1.4,0.7,3,0.7,4.8
		c0,3-0.8,5.5-2.4,7.3c-0.7,0.8-1.5,1.4-2.4,1.8c1.5,0.6,2.8,1.7,3.9,3.4c0.7,1.2,1.2,2.7,1.6,4.5c0.2,0.9,0.3,2,0.3,3.2
		c0,2.9-0.5,5.3-1.6,7.3c-0.8,1.6-2,2.8-3.6,3.8c-1.7,1.1-3.5,1.6-5.2,1.6H2.4z M9.7,207.3h2.9c2.1,0,3.5-1,4.3-3.1
		c0.3-0.8,0.4-1.7,0.4-2.9c0-1.9-0.5-3.3-1.4-4.3c-0.8-0.9-1.9-1.3-3.3-1.3H9.7V207.3z M9.7,227.4h2.9c2.3,0,3.9-1.2,4.8-3.6
		c0.3-0.8,0.5-1.8,0.5-2.8c0-2.5-0.5-4.4-1.4-5.5c-0.9-1.1-2.1-1.6-3.8-1.6H9.7V227.4z"/>
	<path class="st1" d="M38.2,234.2h-6.8v-45.4h6.8V234.2z"/>
	<path class="st1" d="M55.1,188.2c3,0,5.6,1.1,7.7,3.2c2.1,2.1,3.2,4.7,3.2,7.7v24.8c0,3-1.1,5.6-3.2,7.7c-2.1,2.1-4.7,3.2-7.7,3.2
		c-3,0-5.6-1.1-7.7-3.2c-2.1-2.1-3.2-4.7-3.2-7.7v-24.8c0-3,1.1-5.6,3.2-7.7C49.6,189.3,52.1,188.2,55.1,188.2z M58.8,198.9
		c0-1.1-0.4-2-1.1-2.8S56,195,54.9,195c-1.1,0-2,0.4-2.8,1.1c-0.8,0.8-1.2,1.7-1.2,2.8v24.8c0,1.1,0.4,2,1.2,2.8
		c0.8,0.8,1.7,1.1,2.8,1.1c1.1,0,2-0.4,2.8-1.1s1.1-1.7,1.1-2.8V198.9z"/>
	<path class="st1" d="M90.7,234.2H72v-45.4h6.8v38.6h11.8V234.2z"/>
	<path class="st1" d="M106.2,188.2c3,0,5.6,1.1,7.7,3.2c2.1,2.1,3.2,4.7,3.2,7.7v24.8c0,3-1.1,5.6-3.2,7.7s-4.7,3.2-7.7,3.2
		c-3,0-5.6-1.1-7.7-3.2c-2.1-2.1-3.2-4.7-3.2-7.7v-24.8c0-3,1.1-5.6,3.2-7.7C100.7,189.3,103.2,188.2,106.2,188.2z M109.9,198.9
		c0-1.1-0.4-2-1.1-2.8s-1.7-1.1-2.8-1.1c-1.1,0-2,0.4-2.8,1.1c-0.8,0.8-1.2,1.7-1.2,2.8v24.8c0,1.1,0.4,2,1.2,2.8
		c0.8,0.8,1.7,1.1,2.8,1.1c1.1,0,2-0.4,2.8-1.1s1.1-1.7,1.1-2.8V198.9z"/>
	<path class="st1" d="M133.8,234.8c-3,0-5.6-1.1-7.7-3.2c-2.1-2.1-3.2-4.7-3.2-7.6v-24.8c0-3,1.1-5.6,3.2-7.7
		c2.1-2.1,4.7-3.2,7.7-3.2c3,0,5.6,1.1,7.7,3.2c2.1,2.1,3.2,4.7,3.2,7.7v5.2h-7.1V199c0-1.1-0.4-2-1.2-2.8c-0.8-0.8-1.7-1.2-2.8-1.2
		c-1.1,0-2,0.4-2.8,1.2c-0.8,0.8-1.1,1.7-1.1,2.8v24.8c0,1.1,0.4,2,1.1,2.8c0.8,0.8,1.7,1.1,2.8,1.1c1.1,0,2-0.4,2.8-1.1
		c0.8-0.8,1.2-1.7,1.2-2.8v-8.9h-3.8v-6.9h10.9v15.9c0,3-1.1,5.6-3.2,7.7C139.4,233.7,136.8,234.8,133.8,234.8z"/>
	<path class="st1" d="M156.7,215.2l-9.2-26.4h7.5l5.1,16.3l5-16.3h7.6l-9.2,26.4v19h-6.8V215.2z"/>
</g>
</svg>
