<?xml version="1.0" encoding="utf-8"?>
<!-- Generator: Adobe Illustrator 19.2.0, SVG Export Plug-In . SVG Version: 6.00 Build 0)  -->
<svg version="1.1" id="Layer_1" xmlns="http://www.w3.org/2000/svg" xmlns:xlink="http://www.w3.org/1999/xlink" x="0px" y="0px"
	 viewBox="0 0 527.6 49.2" style="enable-background:new 0 0 527.6 49.2;" xml:space="preserve">
<style type="text/css">
	.st0{enable-background:new    ;}
	.st1{fill:#FFFFFF;}
</style>
<g class="st0">
	<path class="st1" d="M8.1,42.5h-6V2.4h8.7l5.6,28.8l5.4-28.8h8.3v40.1h-6V17.3l-5.2,25.2H14L8.1,17.4V42.5z"/>
	<path class="st1" d="M45,43c-2.7,0-4.9-0.9-6.8-2.8s-2.8-4.1-2.8-6.7v-31h5.9v30.9c0,1,0.3,1.8,1,2.4c0.7,0.7,1.5,1,2.5,1
		c1,0,1.8-0.3,2.4-1c0.7-0.7,1-1.5,1-2.4V2.5h6.3v31c0,2.7-0.9,4.9-2.8,6.8C49.9,42.1,47.7,43,45,43z"/>
	<path class="st1" d="M79.6,32.6c0,2.8-0.7,5.2-2.2,7.2c-1,1.3-2.4,2.3-4.2,2.8c-1,0.3-2.1,0.4-3.4,0.4c-2.4,0-4.3-0.6-5.9-1.8
		c-1.3-1-2.3-2.3-3.1-3.9c-0.8-1.7-1.2-3.5-1.3-5.7l5.8-0.4c0.3,2.3,0.9,4,1.9,5.1c0.7,0.8,1.6,1.2,2.5,1.1c1.3,0,2.4-0.7,3.2-2
		c0.4-0.6,0.6-1.5,0.6-2.7c0-1.7-0.8-3.3-2.3-5c-1.2-1.1-3-2.8-5.4-5.1c-2-1.9-3.4-3.7-4.3-5.2c-0.9-1.7-1.3-3.6-1.3-5.6
		c0-3.6,1.2-6.4,3.7-8.3C65.4,2.5,67.3,2,69.5,2c2.2,0,4,0.5,5.5,1.4c1.2,0.7,2.2,1.8,2.9,3.1c0.7,1.3,1.2,2.9,1.3,4.6l-5.8,1.1
		c-0.2-1.6-0.6-2.9-1.4-3.8c-0.6-0.7-1.4-1-2.4-1c-1.1,0-1.9,0.5-2.5,1.5c-0.5,0.8-0.7,1.8-0.7,2.9c0,1.8,0.8,3.7,2.4,5.6
		c0.6,0.7,1.5,1.6,2.7,2.6c1.4,1.2,2.3,2,2.8,2.5c1.5,1.5,2.6,3,3.5,4.4c0.4,0.7,0.7,1.3,0.9,1.9C79.3,30.1,79.6,31.4,79.6,32.6z"/>
	<path class="st1" d="M90.6,42.5h-6v-40h6V42.5z"/>
	<path class="st1" d="M105.6,43c-2.7,0-4.9-0.9-6.8-2.8c-1.9-1.9-2.8-4.1-2.8-6.8V11.6c0-2.7,0.9-4.9,2.8-6.8
		c1.9-1.9,4.1-2.8,6.8-2.8c2.7,0,4.9,0.9,6.8,2.8c1.9,1.9,2.8,4.1,2.8,6.8v4.6h-6.3v-4.7c0-1-0.3-1.8-1-2.5c-0.7-0.7-1.5-1-2.5-1
		c-1,0-1.8,0.3-2.4,1c-0.7,0.7-1,1.5-1,2.5v21.9c0,1,0.3,1.8,1,2.4c0.7,0.7,1.5,1,2.4,1c1,0,1.8-0.3,2.5-1c0.7-0.7,1-1.5,1-2.4v-5.5
		h6.3v5.6c0,2.7-0.9,4.9-2.8,6.8C110.4,42.1,108.2,43,105.6,43z"/>
	<path class="st1" d="M137.2,43c-2.7,0-4.9-0.9-6.8-2.8c-1.9-1.9-2.8-4.1-2.8-6.8V11.6c0-2.7,0.9-4.9,2.8-6.8
		c1.9-1.9,4.1-2.8,6.8-2.8c2.7,0,4.9,0.9,6.8,2.8c1.9,1.9,2.8,4.1,2.8,6.8v4.6h-6.3v-4.7c0-1-0.3-1.8-1-2.5c-0.7-0.7-1.5-1-2.5-1
		c-1,0-1.8,0.3-2.4,1c-0.7,0.7-1,1.5-1,2.5v21.9c0,1,0.3,1.8,1,2.4c0.7,0.7,1.5,1,2.4,1c1,0,1.8-0.3,2.5-1c0.7-0.7,1-1.5,1-2.4v-5.5
		h6.3v5.6c0,2.7-0.9,4.9-2.8,6.8C142,42.1,139.8,43,137.2,43z"/>
	<path class="st1" d="M157.9,33.3l-1.5,9.2h-6.3l6.8-40h8.3l6.7,40h-6.4l-1.4-9.2H157.9z M161.1,11.7l-2.2,15.8h4.5L161.1,11.7z"/>
	<path class="st1" d="M183.9,2.4l8,26.9V2.4h6v40.1h-6.5l-8.3-25.7v25.7h-6V2.4H183.9z"/>
	<path class="st1" d="M216.4,42.5h-6V2.4h8.7l5.6,28.8l5.4-28.8h8.3v40.1h-6V17.3l-5.2,25.2h-4.9l-5.8-25.1V42.5z"/>
	<path class="st1" d="M251.2,33.3l-1.5,9.2h-6.3l6.8-40h8.3l6.7,40h-6.4l-1.4-9.2H251.2z M254.4,11.7l-2.2,15.8h4.5L254.4,11.7z"/>
	<path class="st1" d="M276.4,29.8v12.7h-6V2.4h6v14.3l7.4-14.3h6.4L282,18.8l9.7,23.7h-7.1l-6.3-16.3L276.4,29.8z"/>
	<path class="st1" d="M296.6,42.5V2.4h17.2v6.1h-11.2v10.9h8.2v6.1h-8.2v10.9h11.2v6.1H296.6z"/>
	<path class="st1" d="M334.3,25.7l-8.1-23.3h6.6l4.5,14.4l4.4-14.4h6.7l-8.1,23.3v16.8h-6V25.7z"/>
	<path class="st1" d="M360.7,2c2.7,0,4.9,0.9,6.8,2.8s2.8,4.1,2.8,6.8v21.9c0,2.7-0.9,4.9-2.8,6.8c-1.9,1.9-4.1,2.8-6.8,2.8
		c-2.7,0-4.9-0.9-6.8-2.8s-2.8-4.1-2.8-6.8V11.6c0-2.7,0.9-4.9,2.8-6.8S358,2,360.7,2z M364,11.4c0-1-0.3-1.8-1-2.4
		c-0.7-0.7-1.5-1-2.4-1s-1.8,0.3-2.5,1c-0.7,0.7-1,1.5-1,2.4v21.9c0,1,0.3,1.8,1,2.4c0.7,0.7,1.5,1,2.5,1s1.8-0.3,2.4-1
		c0.7-0.7,1-1.5,1-2.4V11.4z"/>
	<path class="st1" d="M385.1,43c-2.7,0-4.9-0.9-6.8-2.8s-2.8-4.1-2.8-6.7v-31h5.9v30.9c0,1,0.3,1.8,1,2.4c0.7,0.7,1.5,1,2.5,1
		s1.8-0.3,2.4-1c0.7-0.7,1-1.5,1-2.4V2.5h6.3v31c0,2.7-0.9,4.9-2.8,6.8C390,42.1,387.7,43,385.1,43z"/>
	<path class="st1" d="M413.2,25.6v17h-6v-40h6v17h7.3v-17h6v40h-6v-17H413.2z"/>
	<path class="st1" d="M439.3,33.3l-1.5,9.2h-6.3l6.8-40h8.3l6.7,40H447l-1.4-9.2H439.3z M442.5,11.7l-2.2,15.8h4.5L442.5,11.7z"/>
	<path class="st1" d="M468,2.5c2.9,0,5.3,0.9,7,2.8c1.6,1.8,2.4,4,2.4,6.8v5.8c0,2.6-0.9,4.9-2.8,6.8s-4.1,2.8-6.7,2.8h-3.5v15.1h-6
		v-40H468z M471.6,12.1c0-1-0.3-1.9-0.9-2.5c-0.6-0.6-1.5-1-2.5-1h-3.6v12.8h3.6c1,0,1.8-0.3,2.4-1c0.7-0.7,1-1.5,1-2.5V12.1z"/>
	<path class="st1" d="M491.8,2.5c2.9,0,5.3,0.9,7,2.8c1.6,1.8,2.4,4,2.4,6.8v5.8c0,2.6-0.9,4.9-2.8,6.8s-4.1,2.8-6.7,2.8h-3.5v15.1
		h-6v-40H491.8z M495.4,12.1c0-1-0.3-1.9-0.9-2.5c-0.6-0.6-1.5-1-2.5-1h-3.6v12.8h3.6c1,0,1.8-0.3,2.4-1c0.7-0.7,1-1.5,1-2.5V12.1z"
		/>
	<path class="st1" d="M511.4,25.7l-8.1-23.3h6.6l4.5,14.4l4.4-14.4h6.7l-8.1,23.3v16.8h-6V25.7z"/>
</g>
</svg>
