<!-- Generator: Adobe Illustrator 18.1.1, SVG Export Plug-In  -->
<svg version="1.1"
	 xmlns="http://www.w3.org/2000/svg" xmlns:xlink="http://www.w3.org/1999/xlink" xmlns:a="http://ns.adobe.com/AdobeSVGViewerExtensions/3.0/"
	 x="0px" y="0px" width="735.3px" height="792px" viewBox="0 0 735.3 792" enable-background="new 0 0 735.3 792"
	 xml:space="preserve">
<defs>
</defs>
<path fill="none" stroke="#14A085" stroke-width="9.2522" stroke-miterlimit="10" d="M4.4,285.2C20.9,235,49.1,187.8,89,147.9
	c136.1-136.1,356.8-136.1,492.9,0c136.1,136.1,136.1,356.8,0,492.9c-126.1,126.1-324.8,135.4-461.6,27.8"/>
<path fill="#894B9D" d="M347.9,0.1C345,0,342.2,0,339.3,0c-2.9,0-5.8,0-8.6,0.1C227.8,2.3,134.6,43.7,65.4,110
	c-4.2,4-8.2,8.1-12.2,12.2l53.7,53.7c4-4.2,8-8.2,12.2-12.2c55.4-52.5,129.7-85.5,211.6-87.6c2.9-0.1,5.7-0.1,8.6-0.1
	c2.9,0,5.8,0,8.6,0.1c172.8,4.6,311.5,146.1,311.5,320c0,85.3-33.4,162.8-87.8,220.2c-4,4.2-8,8.2-12.2,12.2
	C504,681,429.8,713.9,347.9,716.1V792c102.9-2.2,196.1-43.6,265.3-109.9c4.2-4,8.2-8.1,12.2-12.2c68.1-71.1,110-167.6,110-273.9
	C735.3,180.2,562.7,4.7,347.9,0.1z"/>
</svg>
