<?xml version="1.0" encoding="utf-8"?>
<!-- Generator: Adobe Illustrator 19.2.0, SVG Export Plug-In . SVG Version: 6.00 Build 0)  -->
<svg version="1.1" id="Layer_1" xmlns="http://www.w3.org/2000/svg" xmlns:xlink="http://www.w3.org/1999/xlink" x="0px" y="0px"
	 viewBox="0 0 540.9 101.5" style="enable-background:new 0 0 540.9 101.5;" xml:space="preserve">
<style type="text/css">
	.st0{enable-background:new    ;}
	.st1{fill:#E0BB45;}
</style>
<g class="st0">
	<path class="st1" d="M22.1,32.6c0,2.8-0.7,5.2-2.2,7.2c-1,1.3-2.4,2.3-4.2,2.8c-1,0.3-2.1,0.4-3.4,0.4C10,43,8,42.4,6.5,41.2
		c-1.3-1-2.3-2.3-3.1-3.9c-0.8-1.7-1.2-3.5-1.3-5.7l5.8-0.4c0.3,2.3,0.9,4,1.9,5.1c0.7,0.8,1.6,1.2,2.5,1.1c1.3,0,2.4-0.7,3.2-2
		c0.4-0.6,0.6-1.5,0.6-2.7c0-1.7-0.8-3.3-2.3-5c-1.2-1.1-3-2.8-5.4-5.1c-2-1.9-3.4-3.7-4.3-5.2c-0.9-1.7-1.3-3.6-1.3-5.6
		c0-3.6,1.2-6.4,3.7-8.3C7.9,2.5,9.8,2,12,2c2.2,0,4,0.5,5.5,1.4c1.2,0.7,2.2,1.8,2.9,3.1c0.7,1.3,1.2,2.9,1.3,4.6L16,12.2
		c-0.2-1.6-0.6-2.9-1.4-3.8c-0.6-0.7-1.4-1-2.4-1c-1.1,0-1.9,0.5-2.5,1.5c-0.5,0.8-0.7,1.8-0.7,2.9c0,1.8,0.8,3.7,2.4,5.6
		c0.6,0.7,1.5,1.6,2.7,2.6c1.4,1.2,2.3,2,2.8,2.5c1.5,1.5,2.6,3,3.5,4.4c0.4,0.7,0.7,1.3,0.9,1.9C21.7,30.1,22,31.4,22.1,32.6z"/>
	<path class="st1" d="M36.5,2c2.7,0,4.9,0.9,6.8,2.8c1.9,1.9,2.8,4.1,2.8,6.8v21.9c0,2.7-0.9,4.9-2.8,6.8c-1.9,1.9-4.1,2.8-6.8,2.8
		c-2.7,0-4.9-0.9-6.8-2.8S27,36.1,27,33.4V11.6c0-2.7,0.9-4.9,2.8-6.8C31.7,2.9,33.9,2,36.5,2z M39.8,11.4c0-1-0.3-1.8-1-2.4
		c-0.7-0.7-1.5-1-2.4-1c-1,0-1.8,0.3-2.5,1c-0.7,0.7-1,1.5-1,2.4v21.9c0,1,0.3,1.8,1,2.4c0.7,0.7,1.5,1,2.5,1c1,0,1.8-0.3,2.4-1
		c0.7-0.7,1-1.5,1-2.4V11.4z"/>
	<path class="st1" d="M50.3,42.5v-6h6v6l-2.2,4.6h-2.5l1.4-4.6H50.3z"/>
	<path class="st1" d="M85.3,42.5H68.8v-40h6v34h10.4V42.5z"/>
	<path class="st1" d="M95.5,42.5h-6v-40h6V42.5z"/>
	<path class="st1" d="M120.5,32.6c0,2.8-0.7,5.2-2.2,7.2c-1,1.3-2.4,2.3-4.2,2.8c-1,0.3-2.1,0.4-3.4,0.4c-2.4,0-4.3-0.6-5.9-1.8
		c-1.3-1-2.3-2.3-3.1-3.9c-0.8-1.7-1.2-3.5-1.3-5.7l5.8-0.4c0.3,2.3,0.9,4,1.9,5.1c0.7,0.8,1.6,1.2,2.5,1.1c1.3,0,2.4-0.7,3.2-2
		c0.4-0.6,0.6-1.5,0.6-2.7c0-1.7-0.8-3.3-2.3-5c-1.2-1.1-3-2.8-5.4-5.1c-2-1.9-3.4-3.7-4.3-5.2c-0.9-1.7-1.3-3.6-1.3-5.6
		c0-3.6,1.2-6.4,3.7-8.3c1.5-1.1,3.4-1.7,5.6-1.7c2.2,0,4,0.5,5.5,1.4c1.2,0.7,2.2,1.8,2.9,3.1c0.7,1.3,1.2,2.9,1.3,4.6l-5.8,1.1
		c-0.2-1.6-0.6-2.9-1.4-3.8c-0.6-0.7-1.4-1-2.4-1c-1.1,0-1.9,0.5-2.5,1.5c-0.5,0.8-0.7,1.8-0.7,2.9c0,1.8,0.8,3.7,2.4,5.6
		c0.6,0.7,1.5,1.6,2.7,2.6c1.4,1.2,2.3,2,2.8,2.5c1.5,1.5,2.6,3,3.5,4.4c0.4,0.7,0.7,1.3,0.9,1.9C120.2,30.1,120.5,31.4,120.5,32.6z
		"/>
	<path class="st1" d="M131.1,8.6h-6.4V2.5h18.9v6.1h-6.4v34h-6V8.6z"/>
	<path class="st1" d="M148.4,42.5V2.4h17.2v6.1h-11.2v10.9h8.1v6.1h-8.1v10.9h11.2v6.1H148.4z"/>
	<path class="st1" d="M176.5,2.4l8,26.9V2.4h6v40.1h-6.5l-8.3-25.7v25.7h-6V2.4H176.5z"/>
	<path class="st1" d="M209.4,8.6H203V2.5h18.9v6.1h-6.4v34h-6V8.6z"/>
	<path class="st1" d="M235.6,2c2.7,0,4.9,0.9,6.8,2.8c1.9,1.9,2.8,4.1,2.8,6.8v21.9c0,2.7-0.9,4.9-2.8,6.8c-1.9,1.9-4.1,2.8-6.8,2.8
		c-2.7,0-4.9-0.9-6.8-2.8s-2.8-4.1-2.8-6.8V11.6c0-2.7,0.9-4.9,2.8-6.8C230.7,2.9,233,2,235.6,2z M238.9,11.4c0-1-0.3-1.8-1-2.4
		c-0.7-0.7-1.5-1-2.4-1c-1,0-1.8,0.3-2.5,1c-0.7,0.7-1,1.5-1,2.4v21.9c0,1,0.3,1.8,1,2.4c0.7,0.7,1.5,1,2.5,1c1,0,1.8-0.3,2.4-1
		c0.7-0.7,1-1.5,1-2.4V11.4z"/>
	<path class="st1" d="M264,8.6h-6.4V2.5h18.9v6.1h-6.4v34h-6V8.6z"/>
	<path class="st1" d="M287.4,25.6v17h-6v-40h6v17h7.3v-17h6v40h-6v-17H287.4z"/>
	<path class="st1" d="M312.1,42.5h-6v-40h6V42.5z"/>
	<path class="st1" d="M337.2,32.6c0,2.8-0.7,5.2-2.2,7.2c-1,1.3-2.4,2.3-4.2,2.8c-1,0.3-2.1,0.4-3.4,0.4c-2.4,0-4.3-0.6-5.9-1.8
		c-1.3-1-2.3-2.3-3.1-3.9c-0.8-1.7-1.2-3.5-1.3-5.7l5.8-0.4c0.3,2.3,0.9,4,1.9,5.1c0.7,0.8,1.6,1.2,2.5,1.1c1.3,0,2.4-0.7,3.2-2
		c0.4-0.6,0.6-1.5,0.6-2.7c0-1.7-0.8-3.3-2.3-5c-1.2-1.1-3-2.8-5.4-5.1c-2-1.9-3.4-3.7-4.2-5.2c-0.9-1.7-1.3-3.6-1.3-5.6
		c0-3.6,1.2-6.4,3.7-8.3c1.5-1.1,3.4-1.7,5.6-1.7c2.2,0,4,0.5,5.5,1.4c1.2,0.7,2.2,1.8,2.9,3.1c0.7,1.3,1.2,2.9,1.3,4.6l-5.8,1.1
		c-0.2-1.6-0.6-2.9-1.4-3.8c-0.6-0.7-1.4-1-2.4-1c-1.1,0-1.9,0.5-2.5,1.5c-0.5,0.8-0.7,1.8-0.7,2.9c0,1.8,0.8,3.7,2.4,5.6
		c0.6,0.7,1.5,1.6,2.7,2.6c1.4,1.2,2.3,2,2.8,2.5c1.5,1.5,2.6,3,3.5,4.4c0.4,0.7,0.7,1.3,0.9,1.9C336.9,30.1,337.1,31.4,337.2,32.6z
		"/>
	<path class="st1" d="M369.6,32.6c0,2.8-0.7,5.2-2.2,7.2c-1,1.3-2.4,2.3-4.2,2.8c-1,0.3-2.1,0.4-3.4,0.4c-2.4,0-4.3-0.6-5.9-1.8
		c-1.3-1-2.3-2.3-3.1-3.9c-0.8-1.7-1.2-3.5-1.3-5.7l5.8-0.4c0.3,2.3,0.9,4,1.9,5.1c0.7,0.8,1.6,1.2,2.5,1.1c1.3,0,2.4-0.7,3.2-2
		c0.4-0.6,0.6-1.5,0.6-2.7c0-1.7-0.8-3.3-2.3-5c-1.2-1.1-3-2.8-5.4-5.1c-2-1.9-3.4-3.7-4.2-5.2c-0.9-1.7-1.3-3.6-1.3-5.6
		c0-3.6,1.2-6.4,3.7-8.3c1.5-1.1,3.4-1.7,5.6-1.7c2.2,0,4,0.5,5.5,1.4c1.2,0.7,2.2,1.8,2.9,3.1c0.7,1.3,1.2,2.9,1.3,4.6l-5.8,1.1
		c-0.2-1.6-0.6-2.9-1.4-3.8c-0.6-0.7-1.4-1-2.4-1c-1.1,0-1.9,0.5-2.5,1.5c-0.5,0.8-0.7,1.8-0.7,2.9c0,1.8,0.8,3.7,2.4,5.6
		c0.6,0.7,1.5,1.6,2.7,2.6c1.4,1.2,2.3,2,2.8,2.5c1.5,1.5,2.6,3,3.5,4.4c0.4,0.7,0.7,1.3,0.9,1.9C369.3,30.1,369.6,31.4,369.6,32.6z
		"/>
	<path class="st1" d="M384.1,2c2.7,0,4.9,0.9,6.8,2.8c1.9,1.9,2.8,4.1,2.8,6.8v21.9c0,2.7-0.9,4.9-2.8,6.8c-1.9,1.9-4.1,2.8-6.8,2.8
		c-2.7,0-4.9-0.9-6.8-2.8s-2.8-4.1-2.8-6.8V11.6c0-2.7,0.9-4.9,2.8-6.8C379.2,2.9,381.5,2,384.1,2z M387.4,11.4c0-1-0.3-1.8-1-2.4
		c-0.7-0.7-1.5-1-2.4-1c-1,0-1.8,0.3-2.5,1c-0.7,0.7-1,1.5-1,2.4v21.9c0,1,0.3,1.8,1,2.4s1.5,1,2.5,1c1,0,1.8-0.3,2.4-1s1-1.5,1-2.4
		V11.4z"/>
	<path class="st1" d="M405.8,2.4l8,26.9V2.4h6v40.1h-6.5L405,16.9v25.7h-6V2.4H405.8z"/>
	<path class="st1" d="M434.7,43c-2.7,0-4.9-0.9-6.8-2.8c-1.9-1.9-2.8-4.1-2.8-6.7V11.6c0-2.7,0.9-4.9,2.8-6.8
		c1.9-1.9,4.1-2.8,6.8-2.8c2.7,0,4.9,0.9,6.8,2.8c1.9,1.9,2.8,4.1,2.8,6.8v4.6H438v-4.7c0-1-0.3-1.8-1-2.5s-1.5-1-2.5-1
		s-1.8,0.3-2.4,1c-0.7,0.7-1,1.5-1,2.5v21.9c0,1,0.3,1.8,1,2.4c0.7,0.7,1.5,1,2.4,1s1.8-0.3,2.5-1c0.7-0.7,1-1.5,1-2.4v-7.9h-3.4
		v-6.1h9.6v14c0,2.7-0.9,4.9-2.8,6.8C439.6,42.1,437.3,43,434.7,43z"/>
	<path class="st1" d="M448.4,36.5h6v6h-6V36.5z"/>
</g>
<g class="st0">
	<path class="st1" d="M8.1,77.8v17h-6v-40h6v17h7.3v-17h6v40h-6v-17H8.1z"/>
	<path class="st1" d="M36.3,54.2c2.7,0,4.9,0.9,6.8,2.8c1.9,1.9,2.8,4.1,2.8,6.8v21.9c0,2.7-0.9,4.9-2.8,6.8
		c-1.9,1.9-4.1,2.8-6.8,2.8c-2.7,0-4.9-0.9-6.8-2.8s-2.8-4.1-2.8-6.8V63.8c0-2.7,0.9-4.9,2.8-6.8C31.5,55.1,33.7,54.2,36.3,54.2z
		 M39.6,63.6c0-1-0.3-1.8-1-2.4c-0.7-0.7-1.5-1-2.4-1c-1,0-1.8,0.3-2.5,1c-0.7,0.7-1,1.5-1,2.4v21.9c0,1,0.3,1.8,1,2.4
		c0.7,0.7,1.5,1,2.5,1c1,0,1.8-0.3,2.4-1c0.7-0.7,1-1.5,1-2.4V63.6z"/>
	<path class="st1" d="M74.9,54.7h6.3l-6.3,40h-5.8l-3.4-22l-3.2,22h-5.8l-6.7-40h6.3l3.2,21.4l2.9-21.4h6.3L72,76.1L74.9,54.7z"/>
	<path class="st1" d="M112.7,85.1c0,2.6-0.9,4.9-2.8,6.8s-4.1,2.8-6.7,2.8h-9.5V54.6h9.5c2.6,0,4.9,0.9,6.7,2.8
		c1.8,1.9,2.8,4.1,2.8,6.7V85.1z M99.7,88.7h3.6c1,0,1.8-0.3,2.4-1c0.7-0.7,1-1.5,1-2.4v-21c0-1-0.3-1.8-1-2.5c-0.7-0.7-1.5-1-2.4-1
		h-3.6V88.7z"/>
	<path class="st1" d="M127.5,54.2c2.7,0,4.9,0.9,6.8,2.8c1.9,1.9,2.8,4.1,2.8,6.8v21.9c0,2.7-0.9,4.9-2.8,6.8
		c-1.9,1.9-4.1,2.8-6.8,2.8c-2.7,0-4.9-0.9-6.8-2.8s-2.8-4.1-2.8-6.8V63.8c0-2.7,0.9-4.9,2.8-6.8C122.6,55.1,124.8,54.2,127.5,54.2z
		 M130.7,63.6c0-1-0.3-1.8-1-2.4c-0.7-0.7-1.5-1-2.4-1c-1,0-1.8,0.3-2.5,1c-0.7,0.7-1,1.5-1,2.4v21.9c0,1,0.3,1.8,1,2.4
		c0.7,0.7,1.5,1,2.5,1c1,0,1.8-0.3,2.4-1c0.7-0.7,1-1.5,1-2.4V63.6z"/>
	<path class="st1" d="M142.3,94.7V54.6h17.2v6.1h-11.2v10.9h8.1v6.1h-8.1v10.9h11.2v6.1H142.3z"/>
	<path class="st1" d="M183.7,84.8c0,2.8-0.7,5.2-2.2,7.2c-1,1.3-2.4,2.3-4.2,2.8c-1,0.3-2.1,0.4-3.4,0.4c-2.4,0-4.3-0.6-5.9-1.8
		c-1.3-1-2.3-2.3-3.1-3.9c-0.8-1.7-1.2-3.5-1.3-5.7l5.8-0.4c0.3,2.3,0.9,4,1.9,5.1c0.7,0.8,1.6,1.2,2.5,1.1c1.3,0,2.4-0.7,3.2-2
		c0.4-0.6,0.6-1.5,0.6-2.7c0-1.7-0.8-3.3-2.3-5c-1.2-1.1-3-2.8-5.4-5.1c-2-1.9-3.4-3.7-4.3-5.2c-0.9-1.7-1.3-3.6-1.3-5.6
		c0-3.6,1.2-6.4,3.7-8.3c1.5-1.1,3.4-1.7,5.6-1.7c2.2,0,4,0.5,5.5,1.4c1.2,0.7,2.2,1.8,2.9,3.1c0.7,1.3,1.2,2.9,1.3,4.6l-5.8,1.1
		c-0.2-1.6-0.6-2.9-1.4-3.8c-0.6-0.7-1.4-1-2.4-1c-1.1,0-1.9,0.5-2.5,1.5c-0.5,0.8-0.7,1.8-0.7,2.9c0,1.8,0.8,3.7,2.4,5.6
		c0.6,0.7,1.5,1.6,2.7,2.6c1.4,1.2,2.3,2,2.8,2.5c1.5,1.5,2.6,3,3.5,4.4c0.4,0.7,0.7,1.3,0.9,1.9C183.4,82.3,183.6,83.6,183.7,84.8z
		"/>
	<path class="st1" d="M202.2,94.7h-6v-40h6V94.7z"/>
	<path class="st1" d="M213.5,60.8H207v-6.1h18.9v6.1h-6.4v34h-6V60.8z"/>
	<path class="st1" d="M244.4,94.7h-6V54.6h8.7l5.6,28.8l5.4-28.8h8.3v40.1h-6V69.5l-5.2,25.2h-4.9l-5.8-25.1V94.7z"/>
	<path class="st1" d="M279.2,85.5l-1.5,9.2h-6.3l6.8-40h8.3l6.7,40h-6.4l-1.4-9.2H279.2z M282.4,63.9l-2.2,15.8h4.5L282.4,63.9z"/>
	<path class="st1" d="M304.4,82v12.7h-6V54.6h6v14.3l7.4-14.3h6.4L309.9,71l9.7,23.7h-7.1l-6.3-16.3L304.4,82z"/>
	<path class="st1" d="M324.5,94.7V54.6h17.2v6.1h-11.2v10.9h8.2v6.1h-8.2v10.9h11.2v6.1H324.5z"/>
	<path class="st1" d="M362.3,77.9l-8.1-23.3h6.6l4.5,14.4l4.4-14.4h6.7l-8.1,23.3v16.8h-6V77.9z"/>
	<path class="st1" d="M388.6,54.2c2.7,0,4.9,0.9,6.8,2.8s2.8,4.1,2.8,6.8v21.9c0,2.7-0.9,4.9-2.8,6.8c-1.9,1.9-4.1,2.8-6.8,2.8
		c-2.7,0-4.9-0.9-6.8-2.8s-2.8-4.1-2.8-6.8V63.8c0-2.7,0.9-4.9,2.8-6.8S386,54.2,388.6,54.2z M391.9,63.6c0-1-0.3-1.8-1-2.4
		c-0.7-0.7-1.5-1-2.4-1s-1.8,0.3-2.5,1c-0.7,0.7-1,1.5-1,2.4v21.9c0,1,0.3,1.8,1,2.4c0.7,0.7,1.5,1,2.5,1s1.8-0.3,2.4-1
		c0.7-0.7,1-1.5,1-2.4V63.6z"/>
	<path class="st1" d="M413,95.2c-2.7,0-4.9-0.9-6.8-2.8c-1.9-1.9-2.8-4.1-2.8-6.7v-31h5.9v30.9c0,1,0.3,1.8,1,2.4
		c0.7,0.7,1.5,1,2.5,1s1.8-0.3,2.4-1c0.7-0.7,1-1.5,1-2.4V54.7h6.3v31c0,2.7-0.9,4.9-2.8,6.8C417.9,94.3,415.7,95.2,413,95.2z"/>
	<path class="st1" d="M441.1,94.7h-6V54.6h17.2v6.1h-11.2v10.9h8.1v6.1h-8.1V94.7z"/>
	<path class="st1" d="M456.4,94.7V54.6h17.2v6.1h-11.2v10.9h8.1v6.1h-8.1v10.9h11.2v6.1H456.4z"/>
	<path class="st1" d="M477.8,94.7V54.6H495v6.1h-11.2v10.9h8.1v6.1h-8.1v10.9H495v6.1H477.8z"/>
	<path class="st1" d="M515.6,94.7h-16.5v-40h6v34h10.4V94.7z"/>
	<path class="st1" d="M529.5,54.1c3.2,0,5.7,1.2,7.4,3.5c1.3,1.8,2,4,2,6.5c0,4.1-1.9,8.1-5.6,11.8c-1.3,1.3-2,2.8-2.1,4.5
		c0,0.6-0.1,1.2-0.1,1.9v2.4h-6v-2.4c0-3.8,0.9-6.6,2.8-8.4c2-2,3.4-4,4.1-6.1c0.4-1.2,0.6-2.5,0.6-3.8c0-1.4-0.3-2.5-0.9-3.3
		c-0.7-0.9-1.7-1.3-3-1.1c-1.2,0.1-2.1,1-2.6,2.5c-0.2,0.6-0.4,1.4-0.5,2.2l-5.8-1c0.2-2.5,1-4.6,2.5-6.3c1-1.2,2.3-2,4.1-2.5
		C527.3,54.3,528.3,54.1,529.5,54.1z M525,88.9h6V95h-6V88.9z"/>
</g>
</svg>
