<!-- Generator: Adobe Illustrator 18.1.1, SVG Export Plug-In  -->
<svg version="1.1"
	 xmlns="http://www.w3.org/2000/svg" xmlns:xlink="http://www.w3.org/1999/xlink" xmlns:a="http://ns.adobe.com/AdobeSVGViewerExtensions/3.0/"
	 x="0px" y="0px" width="555.7px" height="418.8px" viewBox="0 0 555.7 418.8" enable-background="new 0 0 555.7 418.8"
	 xml:space="preserve">
<defs>
</defs>
<g>
	<path fill="#E8C967" d="M517.8,418.8L513,416c20.5-35.2,33-75.2,36.3-115.7c3.4-42.4-3-84.1-19-123.9
		c-27.3-67.6-79.3-120.6-146.4-149.1C316.7-1.1,242.5-1.8,174.9,25.5C81,63.4,16,149.6,5.5,250.4L0,249.8
		C10.8,147,77,59.1,172.8,20.4c69-27.8,144.7-27.2,213.1,1.9c68.5,29.1,121.5,83.1,149.4,152.1c16.4,40.6,22.9,83.1,19.4,126.4
		C551.4,342.1,538.6,382.9,517.8,418.8z"/>
</g>
</svg>
