<?xml version="1.0" encoding="utf-8"?>
<!-- Generator: Adobe Illustrator 19.2.0, SVG Export Plug-In . SVG Version: 6.00 Build 0)  -->
<svg version="1.1" id="Layer_1" xmlns="http://www.w3.org/2000/svg" xmlns:xlink="http://www.w3.org/1999/xlink" x="0px" y="0px"
	 viewBox="0 0 302.8 73" style="enable-background:new 0 0 302.8 73;" xml:space="preserve">
<style type="text/css">
	.st0{fill:none;}
	.st1{enable-background:new    ;}
	.st2{fill:#FFFFFF;}
</style>
<g>
	<rect y="0.9" class="st0" width="302.8" height="72.1"/>
	<g class="st1">
		<path class="st2" d="M3.3,2v12.1H1.4V2H3.3z"/>
		<path class="st2" d="M7.6,8.1v6H5.9v-6H5.1V6.5h0.8V3.7h1.8v2.8H9v1.6H7.6z"/>
		<path class="st2" d="M21.1,6.8v2.3c-0.4-0.5-0.8-0.8-1.1-1c-0.3-0.2-0.7-0.3-1.1-0.3c-0.7,0-1.2,0.2-1.6,0.7s-0.7,1-0.7,1.7
			c0,0.7,0.2,1.3,0.6,1.8c0.4,0.5,1,0.7,1.6,0.7c0.4,0,0.8-0.1,1.1-0.3c0.3-0.2,0.7-0.5,1.1-1v2.3c-0.7,0.4-1.4,0.6-2.1,0.6
			c-1.2,0-2.2-0.4-3-1.1c-0.8-0.8-1.2-1.7-1.2-2.9s0.4-2.1,1.2-2.9c0.8-0.8,1.8-1.2,3-1.2C19.7,6.3,20.4,6.4,21.1,6.8z"/>
		<path class="st2" d="M28.4,6.5h1.8v7.6h-1.8v-0.8c-0.7,0.7-1.5,1-2.3,1c-1.1,0-1.9-0.4-2.6-1.1c-0.7-0.8-1-1.7-1-2.9
			c0-1.1,0.3-2.1,1-2.9C24.1,6.6,25,6.3,26,6.3c0.9,0,1.7,0.4,2.4,1.1V6.5z M24.2,10.3c0,0.7,0.2,1.3,0.6,1.8
			c0.4,0.5,0.9,0.7,1.5,0.7c0.7,0,1.2-0.2,1.6-0.7c0.4-0.5,0.6-1.1,0.6-1.8S28.3,9,27.9,8.5c-0.4-0.5-0.9-0.7-1.6-0.7
			c-0.6,0-1.1,0.2-1.5,0.7C24.4,9,24.2,9.6,24.2,10.3z"/>
		<path class="st2" d="M32.4,6.5h1.8v0.7c0.6-0.6,1.3-0.9,2.1-0.9c0.9,0,1.6,0.3,2.1,0.8c0.4,0.5,0.6,1.2,0.6,2.3v4.7h-1.8V9.8
			c0-0.8-0.1-1.3-0.3-1.6c-0.2-0.3-0.6-0.4-1.1-0.4c-0.6,0-1,0.2-1.2,0.6c-0.2,0.4-0.4,1-0.4,2v3.7h-1.8V6.5z"/>
		<path class="st2" d="M52,6.8v2.3c-0.4-0.5-0.8-0.8-1.1-1c-0.3-0.2-0.7-0.3-1.1-0.3c-0.7,0-1.2,0.2-1.6,0.7s-0.7,1-0.7,1.7
			c0,0.7,0.2,1.3,0.6,1.8c0.4,0.5,1,0.7,1.6,0.7c0.4,0,0.8-0.1,1.1-0.3c0.3-0.2,0.7-0.5,1.1-1v2.3c-0.7,0.4-1.4,0.6-2.1,0.6
			c-1.2,0-2.2-0.4-3-1.1c-0.8-0.8-1.2-1.7-1.2-2.9s0.4-2.1,1.2-2.9c0.8-0.8,1.8-1.2,3-1.2C50.6,6.3,51.3,6.4,52,6.8z"/>
		<path class="st2" d="M53.3,10.2c0-1.1,0.4-2,1.2-2.8c0.8-0.8,1.7-1.2,2.9-1.2c1.1,0,2.1,0.4,2.9,1.2c0.8,0.8,1.2,1.7,1.2,2.9
			c0,1.1-0.4,2.1-1.2,2.9c-0.8,0.8-1.8,1.1-2.9,1.1c-1.1,0-2.1-0.4-2.9-1.2C53.7,12.4,53.3,11.4,53.3,10.2z M55.1,10.3
			c0,0.8,0.2,1.4,0.6,1.8c0.4,0.4,1,0.7,1.6,0.7c0.7,0,1.2-0.2,1.6-0.7c0.4-0.4,0.6-1,0.6-1.8S59.5,9,59,8.5c-0.4-0.4-1-0.7-1.6-0.7
			c-0.7,0-1.2,0.2-1.6,0.7C55.3,9,55.1,9.6,55.1,10.3z"/>
		<path class="st2" d="M63.3,6.5h1.8v0.7c0.6-0.6,1.3-0.9,2.1-0.9c0.9,0,1.6,0.3,2.1,0.8c0.4,0.5,0.6,1.2,0.6,2.3v4.7h-1.8V9.8
			c0-0.8-0.1-1.3-0.3-1.6c-0.2-0.3-0.6-0.4-1.1-0.4c-0.6,0-1,0.2-1.2,0.6c-0.2,0.4-0.4,1-0.4,2v3.7h-1.8V6.5z"/>
		<path class="st2" d="M72.8,6.5l2,4.3l2-4.3h2l-4,8.1l-3.9-8.1H72.8z"/>
		<path class="st2" d="M86.5,10.7h-5.5c0,0.6,0.2,1.1,0.6,1.5c0.4,0.4,0.8,0.5,1.4,0.5c0.4,0,0.8-0.1,1.1-0.3c0.3-0.2,0.6-0.6,1-1.2
			l1.5,0.8c-0.2,0.4-0.5,0.7-0.7,1c-0.3,0.3-0.5,0.5-0.8,0.7c-0.3,0.2-0.6,0.3-0.9,0.4c-0.3,0.1-0.7,0.1-1.1,0.1
			c-1.1,0-2-0.4-2.7-1.1c-0.7-0.7-1-1.7-1-2.9c0-1.2,0.3-2.2,1-2.9c0.7-0.7,1.6-1.1,2.7-1.1c1.1,0,2,0.4,2.7,1.1
			c0.6,0.7,1,1.7,1,2.9L86.5,10.7z M84.7,9.3c-0.2-0.9-0.8-1.4-1.8-1.4c-0.2,0-0.4,0-0.6,0.1S82,8.1,81.8,8.2
			c-0.2,0.1-0.3,0.3-0.4,0.4S81.3,9,81.2,9.3H84.7z"/>
		<path class="st2" d="M90.6,12.7l-3.4-6.2h2l2.3,4.4l2.2-4.4h2l-6.1,11.8h-2L90.6,12.7z"/>
		<path class="st2" d="M107.4,6.5h1.8v7.6h-1.8v-0.8c-0.7,0.7-1.5,1-2.3,1c-1.1,0-1.9-0.4-2.6-1.1c-0.7-0.8-1-1.7-1-2.9
			c0-1.1,0.3-2.1,1-2.9c0.7-0.8,1.5-1.1,2.6-1.1c0.9,0,1.7,0.4,2.4,1.1V6.5z M103.3,10.3c0,0.7,0.2,1.3,0.6,1.8
			c0.4,0.5,0.9,0.7,1.5,0.7c0.7,0,1.2-0.2,1.6-0.7c0.4-0.5,0.6-1.1,0.6-1.8s-0.2-1.3-0.6-1.8c-0.4-0.5-0.9-0.7-1.6-0.7
			c-0.6,0-1.1,0.2-1.5,0.7C103.5,9,103.3,9.6,103.3,10.3z"/>
		<path class="st2" d="M116.4,6.5h1.8v0.7c0.3-0.4,0.6-0.6,0.9-0.7c0.3-0.1,0.6-0.2,1-0.2c0.9,0,1.5,0.4,2,1.1
			c0.6-0.8,1.3-1.1,2.2-1.1c1.7,0,2.6,1,2.6,3.1v4.7H125V9.9c0-0.7-0.1-1.2-0.3-1.5c-0.2-0.3-0.5-0.5-0.9-0.5
			c-0.5,0-0.8,0.2-1.1,0.5c-0.2,0.4-0.3,1-0.3,1.8v3.9h-1.8V9.9c0-1.4-0.4-2-1.2-2c-0.5,0-0.9,0.2-1.1,0.6s-0.3,1-0.3,1.8v3.9h-1.8
			V6.5z"/>
		<path class="st2" d="M135.9,10.7h-5.5c0,0.6,0.2,1.1,0.6,1.5c0.4,0.4,0.8,0.5,1.4,0.5c0.4,0,0.8-0.1,1.1-0.3
			c0.3-0.2,0.6-0.6,1-1.2l1.5,0.8c-0.2,0.4-0.5,0.7-0.7,1c-0.3,0.3-0.5,0.5-0.8,0.7c-0.3,0.2-0.6,0.3-0.9,0.4
			c-0.3,0.1-0.7,0.1-1.1,0.1c-1.1,0-2-0.4-2.7-1.1c-0.7-0.7-1-1.7-1-2.9c0-1.2,0.3-2.2,1-2.9c0.7-0.7,1.6-1.1,2.7-1.1
			c1.1,0,2,0.4,2.7,1.1c0.6,0.7,1,1.7,1,2.9L135.9,10.7z M134.1,9.3c-0.2-0.9-0.8-1.4-1.8-1.4c-0.2,0-0.4,0-0.6,0.1
			s-0.4,0.2-0.5,0.3c-0.2,0.1-0.3,0.3-0.4,0.4s-0.2,0.4-0.2,0.6H134.1z"/>
		<path class="st2" d="M142.3,7.8l-1.5,0.8c-0.2-0.5-0.5-0.7-0.9-0.7c-0.2,0-0.3,0.1-0.4,0.2c-0.1,0.1-0.2,0.2-0.2,0.4
			c0,0.3,0.3,0.6,1,0.9c0.9,0.4,1.6,0.8,1.9,1.1c0.3,0.3,0.5,0.8,0.5,1.4c0,0.7-0.3,1.3-0.8,1.8c-0.5,0.5-1.2,0.7-1.9,0.7
			c-1.3,0-2.2-0.6-2.7-1.9l1.5-0.7c0.2,0.4,0.4,0.6,0.5,0.7c0.2,0.2,0.5,0.3,0.8,0.3c0.6,0,0.9-0.3,0.9-0.8c0-0.3-0.2-0.6-0.7-0.9
			c-0.2-0.1-0.4-0.2-0.5-0.3c-0.2-0.1-0.4-0.2-0.5-0.3c-0.5-0.2-0.9-0.5-1.1-0.8c-0.3-0.3-0.4-0.7-0.4-1.2c0-0.7,0.2-1.2,0.7-1.6
			c0.5-0.4,1-0.6,1.7-0.6C141.1,6.3,141.8,6.8,142.3,7.8z"/>
		<path class="st2" d="M148.8,7.8l-1.5,0.8c-0.2-0.5-0.5-0.7-0.9-0.7c-0.2,0-0.3,0.1-0.4,0.2c-0.1,0.1-0.2,0.2-0.2,0.4
			c0,0.3,0.3,0.6,1,0.9c0.9,0.4,1.6,0.8,1.9,1.1c0.3,0.3,0.5,0.8,0.5,1.4c0,0.7-0.3,1.3-0.8,1.8c-0.5,0.5-1.2,0.7-1.9,0.7
			c-1.3,0-2.2-0.6-2.7-1.9l1.5-0.7c0.2,0.4,0.4,0.6,0.5,0.7c0.2,0.2,0.5,0.3,0.8,0.3c0.6,0,0.9-0.3,0.9-0.8c0-0.3-0.2-0.6-0.7-0.9
			c-0.2-0.1-0.4-0.2-0.5-0.3c-0.2-0.1-0.4-0.2-0.5-0.3c-0.5-0.2-0.9-0.5-1.1-0.8c-0.3-0.3-0.4-0.7-0.4-1.2c0-0.7,0.2-1.2,0.7-1.6
			c0.5-0.4,1-0.6,1.7-0.6C147.6,6.3,148.3,6.8,148.8,7.8z"/>
		<path class="st2" d="M156.5,6.5h1.8v7.6h-1.8v-0.8c-0.7,0.7-1.5,1-2.3,1c-1.1,0-1.9-0.4-2.6-1.1c-0.7-0.8-1-1.7-1-2.9
			c0-1.1,0.3-2.1,1-2.9c0.7-0.8,1.5-1.1,2.6-1.1c0.9,0,1.7,0.4,2.4,1.1V6.5z M152.3,10.3c0,0.7,0.2,1.3,0.6,1.8
			c0.4,0.5,0.9,0.7,1.5,0.7c0.7,0,1.2-0.2,1.6-0.7c0.4-0.5,0.6-1.1,0.6-1.8S156.4,9,156,8.5c-0.4-0.5-0.9-0.7-1.6-0.7
			c-0.6,0-1.1,0.2-1.5,0.7C152.5,9,152.3,9.6,152.3,10.3z"/>
		<path class="st2" d="M167.8,13.9c0,0.4,0,0.7,0,0.9s-0.1,0.5-0.1,0.7c-0.1,0.6-0.4,1.1-0.7,1.5c-0.7,0.8-1.6,1.2-2.8,1.2
			c-1,0-1.9-0.3-2.5-0.8c-0.7-0.6-1.1-1.3-1.2-2.3h1.8c0.1,0.4,0.2,0.7,0.3,0.9c0.4,0.5,0.9,0.7,1.6,0.7c1.3,0,1.9-0.8,1.9-2.4v-1.1
			c-0.7,0.7-1.5,1.1-2.4,1.1c-1,0-1.9-0.4-2.5-1.1c-0.7-0.8-1-1.7-1-2.9c0-1.1,0.3-2.1,0.9-2.8c0.7-0.8,1.5-1.2,2.6-1.2
			c1,0,1.8,0.4,2.4,1.1V6.5h1.8V13.9z M166.1,10.3c0-0.7-0.2-1.3-0.6-1.8c-0.4-0.5-0.9-0.7-1.5-0.7c-0.7,0-1.2,0.2-1.6,0.7
			c-0.3,0.4-0.5,1-0.5,1.7c0,0.7,0.2,1.3,0.5,1.7c0.4,0.5,0.9,0.7,1.6,0.7s1.2-0.2,1.6-0.7C165.9,11.6,166.1,11,166.1,10.3z"/>
		<path class="st2" d="M176.9,10.7h-5.5c0,0.6,0.2,1.1,0.6,1.5c0.4,0.4,0.8,0.5,1.4,0.5c0.4,0,0.8-0.1,1.1-0.3
			c0.3-0.2,0.6-0.6,1-1.2l1.5,0.8c-0.2,0.4-0.5,0.7-0.7,1c-0.3,0.3-0.5,0.5-0.8,0.7c-0.3,0.2-0.6,0.3-0.9,0.4
			c-0.3,0.1-0.7,0.1-1.1,0.1c-1.1,0-2-0.4-2.7-1.1c-0.7-0.7-1-1.7-1-2.9c0-1.2,0.3-2.2,1-2.9c0.7-0.7,1.6-1.1,2.7-1.1
			c1.1,0,2,0.4,2.7,1.1c0.6,0.7,1,1.7,1,2.9L176.9,10.7z M175.1,9.3c-0.2-0.9-0.8-1.4-1.8-1.4c-0.2,0-0.4,0-0.6,0.1
			s-0.4,0.2-0.5,0.3c-0.2,0.1-0.3,0.3-0.4,0.4s-0.2,0.4-0.2,0.6H175.1z"/>
		<path class="st2" d="M183.4,10.2c0-1.1,0.4-2,1.2-2.8c0.8-0.8,1.7-1.2,2.9-1.2c1.1,0,2.1,0.4,2.9,1.2c0.8,0.8,1.2,1.7,1.2,2.9
			c0,1.1-0.4,2.1-1.2,2.9c-0.8,0.8-1.8,1.1-2.9,1.1c-1.1,0-2.1-0.4-2.9-1.2C183.8,12.4,183.4,11.4,183.4,10.2z M185.2,10.3
			c0,0.8,0.2,1.4,0.6,1.8c0.4,0.4,1,0.7,1.6,0.7c0.7,0,1.2-0.2,1.6-0.7c0.4-0.4,0.6-1,0.6-1.8s-0.2-1.3-0.6-1.8
			c-0.4-0.4-1-0.7-1.6-0.7c-0.7,0-1.2,0.2-1.6,0.7C185.5,9,185.2,9.6,185.2,10.3z"/>
		<path class="st2" d="M195.2,8.1v6h-1.8v-6h-0.6V6.5h0.6V3.5c0-1,0.2-1.6,0.5-2c0.5-0.6,1.1-0.8,2-0.8c0.3,0,0.7,0.1,1.2,0.3v1.8
			L197,2.7c-0.4-0.2-0.7-0.3-0.9-0.3c-0.3,0-0.5,0.1-0.6,0.3c-0.1,0.2-0.2,0.6-0.2,1.3v2.5h1.9v1.6H195.2z"/>
	</g>
	<g class="st1">
		<path class="st2" d="M2.9,37.4H1.1V25.7h1.8v0.8c0.7-0.7,1.5-1,2.4-1c1,0,1.9,0.4,2.6,1.2c0.7,0.8,1,1.7,1,2.9
			c0,1.1-0.3,2.1-1,2.9c-0.7,0.8-1.5,1.1-2.6,1.1c-0.9,0-1.7-0.4-2.4-1.1V37.4z M7,29.5c0-0.7-0.2-1.3-0.6-1.8
			c-0.4-0.5-0.9-0.7-1.5-0.7c-0.6,0-1.2,0.2-1.6,0.7c-0.4,0.4-0.6,1-0.6,1.8c0,0.7,0.2,1.3,0.6,1.8c0.4,0.5,0.9,0.7,1.6,0.7
			c0.6,0,1.1-0.2,1.5-0.7C6.8,30.8,7,30.2,7,29.5z"/>
		<path class="st2" d="M17.6,29.9h-5.5c0,0.6,0.2,1.1,0.6,1.5c0.4,0.4,0.8,0.5,1.4,0.5c0.4,0,0.8-0.1,1.1-0.3c0.3-0.2,0.6-0.6,1-1.2
			l1.5,0.8c-0.2,0.4-0.5,0.7-0.7,1c-0.3,0.3-0.5,0.5-0.8,0.7c-0.3,0.2-0.6,0.3-0.9,0.4c-0.3,0.1-0.7,0.1-1.1,0.1
			c-1.1,0-2-0.4-2.7-1.1c-0.7-0.7-1-1.7-1-2.9c0-1.2,0.3-2.2,1-2.9c0.7-0.7,1.6-1.1,2.7-1.1c1.1,0,2,0.4,2.7,1.1
			c0.6,0.7,1,1.7,1,2.9L17.6,29.9z M15.8,28.5c-0.2-0.9-0.8-1.4-1.8-1.4c-0.2,0-0.4,0-0.6,0.1s-0.4,0.2-0.5,0.3
			c-0.2,0.1-0.3,0.3-0.4,0.4s-0.2,0.4-0.2,0.6H15.8z"/>
		<path class="st2" d="M25.2,25.7h1.8v7.6h-1.8v-0.8c-0.7,0.7-1.5,1-2.3,1c-1.1,0-1.9-0.4-2.6-1.1c-0.7-0.8-1-1.7-1-2.9
			c0-1.1,0.3-2.1,1-2.9c0.7-0.8,1.5-1.1,2.6-1.1c0.9,0,1.7,0.4,2.4,1.1V25.7z M21,29.5c0,0.7,0.2,1.3,0.6,1.8
			c0.4,0.5,0.9,0.7,1.5,0.7c0.7,0,1.2-0.2,1.6-0.7c0.4-0.5,0.6-1.1,0.6-1.8s-0.2-1.3-0.6-1.8c-0.4-0.5-0.9-0.7-1.6-0.7
			c-0.6,0-1.1,0.2-1.5,0.7C21.2,28.2,21,28.8,21,29.5z"/>
		<path class="st2" d="M35.1,26v2.3c-0.4-0.5-0.8-0.8-1.1-1c-0.3-0.2-0.7-0.3-1.1-0.3c-0.7,0-1.2,0.2-1.6,0.7s-0.7,1-0.7,1.7
			c0,0.7,0.2,1.3,0.6,1.8c0.4,0.5,1,0.7,1.6,0.7c0.4,0,0.8-0.1,1.1-0.3c0.3-0.2,0.7-0.5,1.1-1V33c-0.7,0.4-1.4,0.6-2.1,0.6
			c-1.2,0-2.2-0.4-3-1.1c-0.8-0.8-1.2-1.7-1.2-2.9s0.4-2.1,1.2-2.9c0.8-0.8,1.8-1.2,3-1.2C33.7,25.5,34.4,25.6,35.1,26z"/>
		<path class="st2" d="M43.7,29.9h-5.5c0,0.6,0.2,1.1,0.6,1.5c0.4,0.4,0.8,0.5,1.4,0.5c0.4,0,0.8-0.1,1.1-0.3c0.3-0.2,0.6-0.6,1-1.2
			l1.5,0.8c-0.2,0.4-0.5,0.7-0.7,1c-0.3,0.3-0.5,0.5-0.8,0.7c-0.3,0.2-0.6,0.3-0.9,0.4c-0.3,0.1-0.7,0.1-1.1,0.1
			c-1.1,0-2-0.4-2.7-1.1c-0.7-0.7-1-1.7-1-2.9c0-1.2,0.3-2.2,1-2.9c0.7-0.7,1.6-1.1,2.7-1.1c1.1,0,2,0.4,2.7,1.1
			c0.6,0.7,1,1.7,1,2.9L43.7,29.9z M41.9,28.5c-0.2-0.9-0.8-1.4-1.8-1.4c-0.2,0-0.4,0-0.6,0.1s-0.4,0.2-0.5,0.3
			c-0.2,0.1-0.3,0.3-0.4,0.4s-0.2,0.4-0.2,0.6H41.9z"/>
		<path class="st2" d="M56.2,25.7h1.8v7.6h-1.8v-0.8c-0.7,0.7-1.5,1-2.3,1c-1.1,0-1.9-0.4-2.6-1.1c-0.7-0.8-1-1.7-1-2.9
			c0-1.1,0.3-2.1,1-2.9c0.7-0.8,1.5-1.1,2.6-1.1c0.9,0,1.7,0.4,2.4,1.1V25.7z M52,29.5c0,0.7,0.2,1.3,0.6,1.8
			c0.4,0.5,0.9,0.7,1.5,0.7c0.7,0,1.2-0.2,1.6-0.7c0.4-0.5,0.6-1.1,0.6-1.8s-0.2-1.3-0.6-1.8c-0.4-0.5-0.9-0.7-1.6-0.7
			c-0.6,0-1.1,0.2-1.5,0.7C52.2,28.2,52,28.8,52,29.5z"/>
		<path class="st2" d="M60.2,25.7h1.8v0.7c0.6-0.6,1.3-0.9,2.1-0.9c0.9,0,1.6,0.3,2.1,0.8c0.4,0.5,0.6,1.2,0.6,2.3v4.7h-1.8V29
			c0-0.8-0.1-1.3-0.3-1.6c-0.2-0.3-0.6-0.4-1.1-0.4c-0.6,0-1,0.2-1.2,0.6c-0.2,0.4-0.4,1-0.4,2v3.7h-1.8V25.7z"/>
		<path class="st2" d="M74.5,20.1h1.8v13.2h-1.8v-0.8c-0.7,0.7-1.5,1-2.4,1c-1,0-1.9-0.4-2.6-1.1c-0.7-0.8-1-1.7-1-2.9
			c0-1.1,0.3-2.1,1-2.8c0.7-0.8,1.5-1.1,2.6-1.1c0.9,0,1.7,0.4,2.4,1.1V20.1z M70.4,29.5c0,0.7,0.2,1.3,0.6,1.8
			c0.4,0.5,0.9,0.7,1.5,0.7c0.7,0,1.2-0.2,1.6-0.7c0.4-0.5,0.6-1.1,0.6-1.8s-0.2-1.3-0.6-1.8c-0.4-0.5-0.9-0.7-1.6-0.7
			c-0.6,0-1.1,0.2-1.5,0.7C70.6,28.2,70.4,28.8,70.4,29.5z"/>
		<path class="st2" d="M85.2,20.1v6.5c0.7-0.7,1.5-1.1,2.4-1.1c1,0,1.9,0.4,2.6,1.1c0.7,0.8,1,1.7,1,2.8c0,1.2-0.3,2.1-1,2.9
			c-0.7,0.8-1.5,1.1-2.6,1.1c-0.9,0-1.7-0.3-2.4-1v0.8h-1.8V20.1H85.2z M89.4,29.5c0-0.7-0.2-1.3-0.6-1.8c-0.4-0.5-0.9-0.7-1.5-0.7
			c-0.6,0-1.2,0.2-1.6,0.7c-0.4,0.4-0.6,1-0.6,1.8c0,0.7,0.2,1.3,0.6,1.8c0.4,0.5,0.9,0.7,1.6,0.7c0.6,0,1.1-0.2,1.5-0.7
			C89.2,30.8,89.4,30.2,89.4,29.5z"/>
		<path class="st2" d="M93.1,25.7h1.8v0.7c0.3-0.3,0.6-0.6,0.9-0.7c0.3-0.1,0.6-0.2,0.9-0.2c0.5,0,0.9,0.2,1.5,0.5l-0.8,1.6
			c-0.3-0.2-0.7-0.4-1-0.4c-1,0-1.4,0.7-1.4,2.2v3.9h-1.8V25.7z"/>
		<path class="st2" d="M98.5,29.4c0-1.1,0.4-2,1.2-2.8c0.8-0.8,1.7-1.2,2.9-1.2c1.1,0,2.1,0.4,2.9,1.2c0.8,0.8,1.2,1.7,1.2,2.9
			c0,1.1-0.4,2.1-1.2,2.9c-0.8,0.8-1.8,1.1-2.9,1.1c-1.1,0-2.1-0.4-2.9-1.2C98.9,31.6,98.5,30.6,98.5,29.4z M100.3,29.5
			c0,0.8,0.2,1.4,0.6,1.8c0.4,0.4,1,0.7,1.6,0.7c0.7,0,1.2-0.2,1.6-0.7c0.4-0.4,0.6-1,0.6-1.8s-0.2-1.3-0.6-1.8
			c-0.4-0.4-1-0.7-1.6-0.7c-0.7,0-1.2,0.2-1.6,0.7C100.5,28.2,100.3,28.8,100.3,29.5z"/>
		<path class="st2" d="M110.4,27.3v6h-1.8v-6h-0.8v-1.6h0.8v-2.8h1.8v2.8h1.4v1.6H110.4z"/>
		<path class="st2" d="M113.3,20.1h1.8v6.2c0.6-0.6,1.3-0.8,2.1-0.8c0.9,0,1.5,0.3,2.1,0.8c0.4,0.5,0.7,1.3,0.7,2.3v4.7h-1.8v-4.5
			c0-0.6-0.1-1.1-0.3-1.3c-0.2-0.3-0.6-0.4-1-0.4c-0.6,0-1,0.2-1.3,0.6c-0.2,0.4-0.4,1-0.4,2v3.7h-1.8V20.1z"/>
		<path class="st2" d="M129,29.9h-5.5c0,0.6,0.2,1.1,0.6,1.5c0.4,0.4,0.8,0.5,1.4,0.5c0.4,0,0.8-0.1,1.1-0.3c0.3-0.2,0.6-0.6,1-1.2
			l1.5,0.8c-0.2,0.4-0.5,0.7-0.7,1c-0.3,0.3-0.5,0.5-0.8,0.7c-0.3,0.2-0.6,0.3-0.9,0.4c-0.3,0.1-0.7,0.1-1.1,0.1
			c-1.1,0-2-0.4-2.7-1.1c-0.7-0.7-1-1.7-1-2.9c0-1.2,0.3-2.2,1-2.9c0.7-0.7,1.6-1.1,2.7-1.1c1.1,0,2,0.4,2.7,1.1
			c0.6,0.7,1,1.7,1,2.9L129,29.9z M127.2,28.5c-0.2-0.9-0.8-1.4-1.8-1.4c-0.2,0-0.4,0-0.6,0.1s-0.4,0.2-0.5,0.3
			c-0.2,0.1-0.3,0.3-0.4,0.4s-0.2,0.4-0.2,0.6H127.2z"/>
		<path class="st2" d="M130.9,25.7h1.8v0.7c0.3-0.3,0.6-0.6,0.9-0.7c0.3-0.1,0.6-0.2,0.9-0.2c0.5,0,0.9,0.2,1.5,0.5l-0.8,1.6
			c-0.3-0.2-0.7-0.4-1-0.4c-1,0-1.4,0.7-1.4,2.2v3.9h-1.8V25.7z"/>
		<path class="st2" d="M137.2,20.1h1.8v6.2c0.6-0.6,1.3-0.8,2.1-0.8c0.9,0,1.5,0.3,2.1,0.8c0.4,0.5,0.7,1.3,0.7,2.3v4.7h-1.8v-4.5
			c0-0.6-0.1-1.1-0.3-1.3c-0.2-0.3-0.6-0.4-1-0.4c-0.6,0-1,0.2-1.3,0.6c-0.2,0.4-0.4,1-0.4,2v3.7h-1.8V20.1z"/>
		<path class="st2" d="M145.6,29.4c0-1.1,0.4-2,1.2-2.8c0.8-0.8,1.7-1.2,2.9-1.2c1.1,0,2.1,0.4,2.9,1.2c0.8,0.8,1.2,1.7,1.2,2.9
			c0,1.1-0.4,2.1-1.2,2.9c-0.8,0.8-1.8,1.1-2.9,1.1c-1.1,0-2.1-0.4-2.9-1.2C146,31.6,145.6,30.6,145.6,29.4z M147.4,29.5
			c0,0.8,0.2,1.4,0.6,1.8c0.4,0.4,1,0.7,1.6,0.7c0.7,0,1.2-0.2,1.6-0.7c0.4-0.4,0.6-1,0.6-1.8s-0.2-1.3-0.6-1.8
			c-0.4-0.4-1-0.7-1.6-0.7c-0.7,0-1.2,0.2-1.6,0.7C147.6,28.2,147.4,28.8,147.4,29.5z"/>
		<path class="st2" d="M155.2,29.4c0-1.1,0.4-2,1.2-2.8c0.8-0.8,1.7-1.2,2.9-1.2c1.1,0,2.1,0.4,2.9,1.2c0.8,0.8,1.2,1.7,1.2,2.9
			c0,1.1-0.4,2.1-1.2,2.9c-0.8,0.8-1.8,1.1-2.9,1.1c-1.1,0-2.1-0.4-2.9-1.2C155.6,31.6,155.2,30.6,155.2,29.4z M157,29.5
			c0,0.8,0.2,1.4,0.6,1.8c0.4,0.4,1,0.7,1.6,0.7c0.7,0,1.2-0.2,1.6-0.7c0.4-0.4,0.6-1,0.6-1.8s-0.2-1.3-0.6-1.8
			c-0.4-0.4-1-0.7-1.6-0.7c-0.7,0-1.2,0.2-1.6,0.7C157.2,28.2,157,28.8,157,29.5z"/>
		<path class="st2" d="M170.8,20.1h1.8v13.2h-1.8v-0.8c-0.7,0.7-1.5,1-2.4,1c-1,0-1.9-0.4-2.6-1.1c-0.7-0.8-1-1.7-1-2.9
			c0-1.1,0.3-2.1,1-2.8c0.7-0.8,1.5-1.1,2.6-1.1c0.9,0,1.7,0.4,2.4,1.1V20.1z M166.6,29.5c0,0.7,0.2,1.3,0.6,1.8
			c0.4,0.5,0.9,0.7,1.5,0.7c0.7,0,1.2-0.2,1.6-0.7c0.4-0.5,0.6-1.1,0.6-1.8s-0.2-1.3-0.6-1.8c-0.4-0.5-0.9-0.7-1.6-0.7
			c-0.6,0-1.1,0.2-1.5,0.7C166.8,28.2,166.6,28.8,166.6,29.5z"/>
		<path class="st2" d="M175,32.4c0-0.3,0.1-0.5,0.3-0.8c0.2-0.2,0.5-0.3,0.8-0.3s0.6,0.1,0.8,0.3c0.2,0.2,0.3,0.5,0.3,0.8
			c0,0.3-0.1,0.6-0.3,0.8c-0.2,0.2-0.5,0.3-0.8,0.3c-0.3,0-0.6-0.1-0.8-0.3C175.1,33,175,32.7,175,32.4z"/>
	</g>
</g>
</svg>
