<!-- Generator: Adobe Illustrator 18.1.1, SVG Export Plug-In  -->
<svg version="1.1"
	 xmlns="http://www.w3.org/2000/svg" xmlns:xlink="http://www.w3.org/1999/xlink" xmlns:a="http://ns.adobe.com/AdobeSVGViewerExtensions/3.0/"
	 x="0px" y="0px" width="517.6px" height="41px" viewBox="0 0 517.6 41" enable-background="new 0 0 517.6 41" xml:space="preserve"
	>
<defs>
</defs>
<g>
	<path fill="#DAEBF1" d="M24.8,0.5h6.3l-6.3,40h-5.8l-3.4-22l-3.2,22H6.7L0,0.5h6.3L9.5,22l2.9-21.4h6.3l3.2,21.4L24.8,0.5z"/>
	<path fill="#DAEBF1" d="M42.3,23.6v17h-6v-40h6v17h7.3v-17h6v40h-6v-17H42.3z"/>
	<path fill="#DAEBF1" d="M68.4,31.4l-1.5,9.2h-6.3l6.8-40h8.3l6.7,40h-6.4l-1.4-9.2H68.4z M71.6,9.7l-2.2,15.8h4.5L71.6,9.7z"/>
	<path fill="#DAEBF1" d="M88.3,6.6h-6.4V0.5h18.9v6.1h-6.4v34h-6V6.6z"/>
	<path fill="#DAEBF1" d="M119.3,23.6v17h-6v-40h6v17h7.3v-17h6v40h-6v-17H119.3z"/>
	<path fill="#DAEBF1" d="M145.4,31.4l-1.5,9.2h-6.3l6.8-40h8.3l6.7,40h-6.4l-1.4-9.2H145.4z M148.6,9.7l-2.2,15.8h4.5L148.6,9.7z"/>
	<path fill="#DAEBF1" d="M174.1,0.5c2.9,0,5.3,0.9,7,2.8c1.6,1.8,2.4,4,2.4,6.8v5.8c0,2.6-0.9,4.9-2.8,6.8c-1.8,1.9-4.1,2.8-6.7,2.8
		h-3.5v15.1h-6v-40H174.1z M177.7,10.2c0-1-0.3-1.9-0.9-2.5c-0.6-0.6-1.5-1-2.5-1h-3.6v12.8h3.6c1,0,1.8-0.3,2.4-1
		c0.7-0.7,1-1.5,1-2.5V10.2z"/>
	<path fill="#DAEBF1" d="M197.9,0.5c2.9,0,5.3,0.9,7,2.8c1.6,1.8,2.4,4,2.4,6.8v5.8c0,2.6-0.9,4.9-2.8,6.8c-1.8,1.9-4.1,2.8-6.7,2.8
		h-3.5v15.1h-6v-40H197.9z M201.5,10.2c0-1-0.3-1.9-0.9-2.5c-0.6-0.6-1.5-1-2.5-1h-3.6v12.8h3.6c1,0,1.8-0.3,2.4-1
		c0.7-0.7,1-1.5,1-2.5V10.2z"/>
	<path fill="#DAEBF1" d="M212.2,40.6V0.5h17.2v6.1h-11.2v10.9h8.1v6.1h-8.1v10.9h11.2v6.1H212.2z"/>
	<path fill="#DAEBF1" d="M240.3,0.5l8,26.9V0.5h6v40.1h-6.5l-8.3-25.7v25.7h-6V0.5H240.3z"/>
	<path fill="#DAEBF1" d="M279.4,30.6c0,2.8-0.7,5.2-2.2,7.2c-1,1.3-2.4,2.3-4.2,2.8c-1,0.3-2.1,0.4-3.4,0.4c-2.4,0-4.3-0.6-5.9-1.8
		c-1.3-1-2.3-2.3-3.1-3.9c-0.8-1.7-1.2-3.5-1.3-5.7l5.8-0.4c0.3,2.3,0.9,4,1.9,5.1c0.7,0.8,1.6,1.2,2.5,1.1c1.3,0,2.4-0.7,3.2-2
		c0.4-0.6,0.6-1.5,0.6-2.7c0-1.7-0.8-3.3-2.3-5c-1.2-1.1-3-2.8-5.4-5.1c-2-1.9-3.4-3.7-4.3-5.2c-0.9-1.7-1.3-3.6-1.3-5.6
		c0-3.6,1.2-6.4,3.7-8.3c1.5-1.1,3.4-1.7,5.6-1.7c2.2,0,4,0.5,5.5,1.4c1.2,0.7,2.2,1.8,2.9,3.1c0.7,1.3,1.2,2.9,1.3,4.6l-5.8,1.1
		c-0.2-1.6-0.6-2.9-1.4-3.8c-0.6-0.7-1.4-1-2.4-1c-1.1,0-1.9,0.5-2.5,1.5c-0.5,0.8-0.7,1.8-0.7,2.9c0,1.8,0.8,3.7,2.4,5.6
		c0.6,0.7,1.5,1.6,2.7,2.6c1.4,1.2,2.3,2,2.8,2.5c1.5,1.5,2.6,3,3.5,4.4c0.4,0.7,0.7,1.3,0.9,1.9C279.1,28.2,279.4,29.5,279.4,30.6z
		"/>
	<path fill="#DAEBF1" d="M294.1,6.6h-6.4V0.5h18.9v6.1h-6.4v34h-6V6.6z"/>
	<path fill="#DAEBF1" d="M320.3,0c2.7,0,4.9,0.9,6.8,2.8s2.8,4.1,2.8,6.8v21.9c0,2.7-0.9,4.9-2.8,6.8s-4.1,2.8-6.8,2.8
		c-2.7,0-4.9-0.9-6.8-2.8c-1.9-1.9-2.8-4.1-2.8-6.8V9.6c0-2.7,0.9-4.9,2.8-6.8C315.4,0.9,317.6,0,320.3,0z M323.6,9.5
		c0-1-0.3-1.8-1-2.4c-0.7-0.7-1.5-1-2.4-1s-1.8,0.3-2.5,1c-0.7,0.7-1,1.5-1,2.4v21.9c0,1,0.3,1.8,1,2.4c0.7,0.7,1.5,1,2.5,1
		s1.8-0.3,2.4-1c0.7-0.7,1-1.5,1-2.4V9.5z"/>
	<path fill="#DAEBF1" d="M351.9,0c2.7,0,4.9,0.9,6.8,2.8s2.8,4.1,2.8,6.8v21.9c0,2.7-0.9,4.9-2.8,6.8s-4.1,2.8-6.8,2.8
		c-2.7,0-4.9-0.9-6.8-2.8c-1.9-1.9-2.8-4.1-2.8-6.8V9.6c0-2.7,0.9-4.9,2.8-6.8C347,0.9,349.3,0,351.9,0z M355.2,9.5
		c0-1-0.3-1.8-1-2.4c-0.7-0.7-1.5-1-2.4-1s-1.8,0.3-2.5,1c-0.7,0.7-1,1.5-1,2.4v21.9c0,1,0.3,1.8,1,2.4c0.7,0.7,1.5,1,2.5,1
		s1.8-0.3,2.4-1c0.7-0.7,1-1.5,1-2.4V9.5z"/>
	<path fill="#DAEBF1" d="M376.3,41c-2.7,0-4.9-0.9-6.8-2.8c-1.9-1.9-2.8-4.1-2.8-6.7v-31h5.9v30.9c0,1,0.3,1.8,1,2.4
		c0.7,0.7,1.5,1,2.5,1s1.8-0.3,2.4-1c0.7-0.7,1-1.5,1-2.4V0.5h6.3v31c0,2.7-0.9,4.9-2.8,6.8C381.2,40.1,378.9,41,376.3,41z"/>
	<path fill="#DAEBF1" d="M400.8,0.5c3.4,0,5.8,0.9,7.4,2.8c1.4,1.6,2.1,3.9,2.1,6.8v5.8c0,2.8-1.1,5.2-3.2,7.2l4.5,17.5H405
		l-3.7-15.1c-0.2,0-0.4,0-0.5,0h-3.5v15.1h-6v-40H400.8z M404.4,10.2c0-2.3-1.2-3.5-3.5-3.5h-3.6v12.8h3.6c1,0,1.8-0.3,2.4-1
		c0.7-0.7,1-1.5,1-2.5V10.2z"/>
	<path fill="#DAEBF1" d="M424,40.6V0.5h9c2.4,0,4.5,0.6,6.5,1.9c1.6,1.1,2.8,2.7,3.5,5c0.4,1.2,0.6,2.6,0.6,4.3
		c0,2.7-0.7,4.8-2.1,6.5c-0.6,0.7-1.3,1.2-2.1,1.6c1.3,0.5,2.5,1.5,3.4,3c0.6,1,1.1,2.3,1.4,4c0.1,0.8,0.2,1.8,0.2,2.8
		c0,2.5-0.5,4.7-1.4,6.5c-0.7,1.4-1.8,2.5-3.2,3.3c-1.5,0.9-3.1,1.4-4.6,1.4H424z M430.5,16.8h2.5c1.9,0,3.1-0.9,3.8-2.7
		c0.2-0.7,0.4-1.5,0.4-2.5c0-1.7-0.4-2.9-1.2-3.8c-0.7-0.8-1.7-1.2-2.9-1.2h-2.5V16.8z M430.5,34.6h2.5c2,0,3.5-1.1,4.3-3.2
		c0.3-0.7,0.4-1.6,0.4-2.5c0-2.2-0.4-3.9-1.3-4.9c-0.8-0.9-1.9-1.4-3.4-1.4h-2.5V34.6z"/>
	<path fill="#DAEBF1" d="M459,0c2.7,0,4.9,0.9,6.8,2.8s2.8,4.1,2.8,6.8v21.9c0,2.7-0.9,4.9-2.8,6.8S461.7,41,459,41
		c-2.7,0-4.9-0.9-6.8-2.8c-1.9-1.9-2.8-4.1-2.8-6.8V9.6c0-2.7,0.9-4.9,2.8-6.8C454.2,0.9,456.4,0,459,0z M462.3,9.5
		c0-1-0.3-1.8-1-2.4c-0.7-0.7-1.5-1-2.4-1s-1.8,0.3-2.5,1c-0.7,0.7-1,1.5-1,2.4v21.9c0,1,0.3,1.8,1,2.4c0.7,0.7,1.5,1,2.5,1
		s1.8-0.3,2.4-1c0.7-0.7,1-1.5,1-2.4V9.5z"/>
	<path fill="#DAEBF1" d="M492.9,31c0,2.6-0.9,4.9-2.8,6.8s-4.1,2.8-6.7,2.8h-9.5V0.5h9.5c2.6,0,4.9,0.9,6.7,2.8s2.8,4.1,2.8,6.7V31z
		 M480,34.6h3.6c1,0,1.8-0.3,2.4-1c0.7-0.7,1-1.5,1-2.4v-21c0-1-0.3-1.8-1-2.5c-0.7-0.7-1.5-1-2.4-1H480V34.6z"/>
	<path fill="#DAEBF1" d="M503.5,23.8l-8.1-23.3h6.6l4.5,14.4L511,0.5h6.7l-8.1,23.3v16.8h-6V23.8z"/>
</g>
</svg>
