<!-- Generator: Adobe Illustrator 18.1.1, SVG Export Plug-In  -->
<svg version="1.1"
	 xmlns="http://www.w3.org/2000/svg" xmlns:xlink="http://www.w3.org/1999/xlink" xmlns:a="http://ns.adobe.com/AdobeSVGViewerExtensions/3.0/"
	 x="0px" y="0px" width="408.3px" height="402.4px" viewBox="0 0 408.3 402.4" enable-background="new 0 0 408.3 402.4"
	 xml:space="preserve">
<defs>
</defs>
<g>
	<path fill="#BC4B2F" d="M359.9,383.2c-64.9,26.2-136,25.5-200.4-1.8c-64.4-27.3-114.2-78.1-140.4-143
		c-15.8-39.2-22-82.1-17.8-123.9C5.3,74,19,34.4,40.9,0l4.4,2.8C23.8,36.5,10.4,75.4,6.4,115c-4.1,41,1.9,83,17.5,121.5
		c25.7,63.6,74.5,113.3,137.6,140.1c63.1,26.8,132.9,27.4,196.4,1.8c16.7-6.7,32.6-15.2,47.4-25.1l2.9,4.3
		C393.2,367.7,376.9,376.4,359.9,383.2z"/>
</g>
</svg>
