<!-- Generator: Adobe Illustrator 18.1.1, SVG Export Plug-In  -->
<svg version="1.1"
	 xmlns="http://www.w3.org/2000/svg" xmlns:xlink="http://www.w3.org/1999/xlink" xmlns:a="http://ns.adobe.com/AdobeSVGViewerExtensions/3.0/"
	 x="0px" y="0px" width="593.5px" height="593.5px" viewBox="0 0 593.5 593.5" enable-background="new 0 0 593.5 593.5"
	 xml:space="preserve">
<defs>
</defs>
<g>
	<path fill="#4894BF" d="M198.3,77.9L176,25.5c-31.9,14.2-60.8,33.9-85.6,57.9l40.2,40.2C150.3,104.8,173.1,89.2,198.3,77.9z"/>
	<path fill="#4894BF" d="M301.7,536.6v56.9c37.7-0.6,73.7-8.3,106.7-21.7l-22.3-52.4C359.9,530,331.5,536,301.7,536.6z"/>
	<path fill="#4894BF" d="M462.8,123.6l40.2-40.2c-26.1-25.2-56.8-45.8-90.7-60.1L391,76.1C417.8,87.5,442.1,103.7,462.8,123.6z"/>
	<path fill="#4894BF" d="M77.9,395.2l-52.4,22.3c14.2,31.9,33.9,60.8,57.9,85.6l40.2-40.2C104.8,443.2,89.2,420.4,77.9,395.2z"/>
	<path fill="#4894BF" d="M291.8,56.9V0c-37.7,0.6-73.7,8.3-106.7,21.7L207.4,74C233.6,63.5,262,57.5,291.8,56.9z"/>
	<path fill="#4894BF" d="M515.6,198.3l52.4-22.3c-14.2-31.9-33.9-60.8-57.9-85.6l-40.2,40.2C488.7,150.3,504.2,173.1,515.6,198.3z"
		/>
	<path fill="#4894BF" d="M381.9,72.4l21.3-52.8C371.6,7.5,337.4,0.6,301.7,0v56.9C329.9,57.5,356.9,62.9,381.9,72.4z"/>
	<path fill="#4894BF" d="M536.6,291.8h56.9c-0.6-37.7-8.3-73.7-21.7-106.7l-52.4,22.3C530,233.6,536,262,536.6,291.8z"/>
	<path fill="#4894BF" d="M123.6,130.6L83.4,90.4c-25.2,26.1-45.8,56.8-60.1,90.7l52.8,21.3C87.5,175.6,103.7,151.4,123.6,130.6z"/>
	<path fill="#4894BF" d="M130.6,469.8l-40.2,40.2c26.1,25.2,56.8,45.8,90.7,60.1l21.3-52.8C175.6,505.9,151.4,489.7,130.6,469.8z"/>
	<path fill="#4894BF" d="M56.9,301.7H0c0.6,37.7,8.3,73.7,21.7,106.7L74,386.1C63.5,359.9,57.5,331.5,56.9,301.7z"/>
	<path fill="#4894BF" d="M211.6,521.1l-21.3,52.8c31.6,12.1,65.7,19,101.5,19.6v-56.9C263.6,536,236.6,530.6,211.6,521.1z"/>
	<path fill="#4894BF" d="M536.6,301.7c-0.6,28.2-6,55.2-15.5,80.2l52.8,21.3c12.1-31.6,19-65.7,19.6-101.5H536.6z"/>
	<path fill="#4894BF" d="M469.8,462.8l40.2,40.2c25.2-26.1,45.8-56.8,60.1-90.7L517.4,391C505.9,417.8,489.7,442.1,469.8,462.8z"/>
	<path fill="#4894BF" d="M395.2,515.6l22.3,52.4c31.9-14.2,60.8-33.9,85.6-57.9l-40.2-40.2C443.2,488.7,420.3,504.2,395.2,515.6z"/>
	<path fill="#4894BF" d="M72.4,211.6l-52.8-21.3C7.5,221.9,0.6,256.1,0,291.8h56.9C57.5,263.6,62.9,236.6,72.4,211.6z"/>
</g>
</svg>
