<?xml version="1.0" encoding="utf-8"?>
<!-- Generator: Adobe Illustrator 19.2.0, SVG Export Plug-In . SVG Version: 6.00 Build 0)  -->
<svg version="1.1" id="Layer_1" xmlns="http://www.w3.org/2000/svg" xmlns:xlink="http://www.w3.org/1999/xlink" x="0px" y="0px"
	 viewBox="0 0 777.7 49.2" style="enable-background:new 0 0 777.7 49.2;" xml:space="preserve">
<style type="text/css">
	.st0{enable-background:new    ;}
	.st1{fill:#DAEBF1;}
</style>
<g class="st0">
	<path class="st1" d="M10.2,25.7L2.1,2.4h6.6l4.5,14.4l4.4-14.4h6.7l-8.1,23.3v16.8h-6V25.7z"/>
	<path class="st1" d="M36.5,2c2.7,0,4.9,0.9,6.8,2.8c1.9,1.9,2.8,4.1,2.8,6.8v21.9c0,2.7-0.9,4.9-2.8,6.8c-1.9,1.9-4.1,2.8-6.8,2.8
		c-2.7,0-4.9-0.9-6.8-2.8s-2.8-4.1-2.8-6.8V11.6c0-2.7,0.9-4.9,2.8-6.8C31.6,2.9,33.9,2,36.5,2z M39.8,11.4c0-1-0.3-1.8-1-2.4
		c-0.7-0.7-1.5-1-2.4-1c-1,0-1.8,0.3-2.5,1c-0.7,0.7-1,1.5-1,2.4v21.9c0,1,0.3,1.8,1,2.4c0.7,0.7,1.5,1,2.5,1c1,0,1.8-0.3,2.4-1
		c0.7-0.7,1-1.5,1-2.4V11.4z"/>
	<path class="st1" d="M60.9,43c-2.7,0-4.9-0.9-6.8-2.8s-2.8-4.1-2.8-6.7v-31h5.9v30.9c0,1,0.3,1.8,1,2.4c0.7,0.7,1.5,1,2.5,1
		c1,0,1.8-0.3,2.4-1c0.7-0.7,1-1.5,1-2.4V2.5h6.3v31c0,2.7-0.9,4.9-2.8,6.8C65.8,42.1,63.6,43,60.9,43z"/>
	<path class="st1" d="M85.4,2.5c3.4,0,5.8,0.9,7.4,2.8c1.4,1.6,2.1,3.9,2.1,6.8v5.8c0,2.8-1.1,5.2-3.2,7.2l4.5,17.5h-6.5l-3.7-15.1
		c-0.2,0-0.4,0-0.5,0h-3.5v15.1h-6v-40H85.4z M89,12.1c0-2.3-1.2-3.5-3.5-3.5h-3.6v12.8h3.6c1,0,1.8-0.3,2.4-1c0.7-0.7,1-1.5,1-2.5
		V12.1z"/>
	<path class="st1" d="M110.5,25.6v17h-6v-40h6v17h7.3v-17h6v40h-6v-17H110.5z"/>
	<path class="st1" d="M129.2,42.5V2.4h17.2v6.1h-11.2v10.9h8.1v6.1h-8.1v10.9h11.2v6.1H129.2z"/>
	<path class="st1" d="M158.3,33.3l-1.5,9.2h-6.3l6.8-40h8.3l6.7,40H166l-1.4-9.2H158.3z M161.5,11.6l-2.2,15.8h4.5L161.5,11.6z"/>
	<path class="st1" d="M187,2.5c3.4,0,5.8,0.9,7.4,2.8c1.4,1.6,2.1,3.9,2.1,6.8v5.8c0,2.8-1.1,5.2-3.2,7.2l4.5,17.5h-6.5l-3.7-15.1
		c-0.2,0-0.4,0-0.5,0h-3.5v15.1h-6v-40H187z M190.6,12.1c0-2.3-1.2-3.5-3.5-3.5h-3.6v12.8h3.6c1,0,1.8-0.3,2.4-1
		c0.7-0.7,1-1.5,1-2.5V12.1z"/>
	<path class="st1" d="M207.4,8.6h-6.4V2.5h18.9v6.1h-6.4v34h-6V8.6z"/>
	<path class="st1" d="M234.1,42.5h-6V2.4h8.7l5.6,28.8l5.4-28.8h8.3v40.1h-6V17.3l-5.2,25.2H240l-5.8-25.1V42.5z"/>
	<path class="st1" d="M267.6,42.5h-6v-40h6V42.5z"/>
	<path class="st1" d="M279,42.5h-6V2.4h8.7l5.6,28.8l5.4-28.8h8.3v40.1h-6V17.3l-5.2,25.2h-4.9L279,17.4V42.5z"/>
	<path class="st1" d="M312.4,42.5h-6v-40h6V42.5z"/>
	<path class="st1" d="M327.4,43c-2.7,0-4.9-0.9-6.8-2.8c-1.9-1.9-2.8-4.1-2.8-6.8V11.6c0-2.7,0.9-4.9,2.8-6.8
		c1.9-1.9,4.1-2.8,6.8-2.8c2.7,0,4.9,0.9,6.8,2.8c1.9,1.9,2.8,4.1,2.8,6.8v4.6h-6.3v-4.7c0-1-0.3-1.8-1-2.5c-0.7-0.7-1.5-1-2.5-1
		c-1,0-1.8,0.3-2.4,1c-0.7,0.7-1,1.5-1,2.5v21.9c0,1,0.3,1.8,1,2.4c0.7,0.7,1.5,1,2.4,1c1,0,1.8-0.3,2.5-1c0.7-0.7,1-1.5,1-2.4v-5.5
		h6.3v5.6c0,2.7-0.9,4.9-2.8,6.8C332.2,42.1,330,43,327.4,43z"/>
	<path class="st1" d="M361,32.6c0,2.8-0.7,5.2-2.2,7.2c-1,1.3-2.4,2.3-4.2,2.8c-1,0.3-2.1,0.4-3.4,0.4c-2.4,0-4.3-0.6-5.9-1.8
		c-1.3-1-2.3-2.3-3.1-3.9c-0.8-1.7-1.2-3.5-1.3-5.7l5.8-0.4c0.3,2.3,0.9,4,1.9,5.1c0.7,0.8,1.6,1.2,2.5,1.1c1.3,0,2.4-0.7,3.2-2
		c0.4-0.6,0.6-1.5,0.6-2.7c0-1.7-0.8-3.3-2.3-5c-1.2-1.1-3-2.8-5.4-5.1c-2-1.9-3.4-3.7-4.3-5.2c-0.9-1.7-1.3-3.6-1.3-5.6
		c0-3.6,1.2-6.4,3.7-8.3c1.5-1.1,3.4-1.7,5.6-1.7c2.2,0,4,0.5,5.5,1.4c1.2,0.7,2.2,1.8,2.9,3.1c0.7,1.3,1.2,2.9,1.3,4.6l-5.8,1.1
		c-0.2-1.6-0.6-2.9-1.4-3.8c-0.6-0.7-1.4-1-2.4-1c-1.1,0-1.9,0.5-2.5,1.5c-0.5,0.8-0.7,1.8-0.7,2.9c0,1.8,0.8,3.7,2.4,5.6
		c0.6,0.7,1.5,1.6,2.7,2.6c1.4,1.2,2.3,2,2.8,2.5c1.5,1.5,2.6,3,3.5,4.4c0.4,0.7,0.7,1.3,0.9,1.9C360.7,30.1,361,31.4,361,32.6z"/>
	<path class="st1" d="M375.8,8.6h-6.4V2.5h18.9v6.1h-6.4v34h-6V8.6z"/>
	<path class="st1" d="M399.1,25.6v17h-6v-40h6v17h7.3v-17h6v40h-6v-17H399.1z"/>
	<path class="st1" d="M417.8,42.5V2.4H435v6.1h-11.2v10.9h8.1v6.1h-8.1v10.9H435v6.1H417.8z"/>
	<path class="st1" d="M443.3,42.5V2.4h9c2.4,0,4.5,0.6,6.5,1.9c1.6,1.1,2.8,2.7,3.5,5c0.4,1.2,0.6,2.6,0.6,4.2
		c0,2.7-0.7,4.8-2.1,6.5c-0.6,0.7-1.3,1.2-2.1,1.6c1.3,0.5,2.5,1.5,3.4,3c0.6,1,1.1,2.3,1.4,4c0.1,0.8,0.2,1.8,0.2,2.8
		c0,2.5-0.5,4.7-1.4,6.5c-0.7,1.4-1.8,2.5-3.2,3.3c-1.5,0.9-3.1,1.4-4.6,1.4H443.3z M449.9,18.8h2.5c1.9,0,3.1-0.9,3.8-2.7
		c0.2-0.7,0.4-1.5,0.4-2.5c0-1.7-0.4-2.9-1.2-3.8c-0.7-0.8-1.7-1.2-2.9-1.2h-2.5V18.8z M449.9,36.5h2.5c2,0,3.5-1.1,4.3-3.2
		c0.3-0.7,0.4-1.6,0.4-2.5c0-2.2-0.4-3.9-1.3-4.9c-0.8-0.9-1.9-1.4-3.4-1.4h-2.5V36.5z"/>
	<path class="st1" d="M468.9,42.5V2.4h17.2v6.1H475v10.9h8.1v6.1H475v10.9h11.2v6.1H468.9z"/>
	<path class="st1" d="M498,33.3l-1.5,9.2h-6.3l6.8-40h8.3l6.7,40h-6.4l-1.4-9.2H498z M501.2,11.6L499,27.4h4.5L501.2,11.6z"/>
	<path class="st1" d="M517.9,8.6h-6.4V2.5h18.9v6.1H524v34h-6V8.6z"/>
	<path class="st1" d="M548.2,2c2.7,0,4.9,0.9,6.8,2.8s2.8,4.1,2.8,6.8v21.9c0,2.7-0.9,4.9-2.8,6.8c-1.9,1.9-4.1,2.8-6.8,2.8
		c-2.7,0-4.9-0.9-6.8-2.8c-1.9-1.9-2.8-4.1-2.8-6.8V11.6c0-2.7,0.9-4.9,2.8-6.8S545.6,2,548.2,2z M551.5,11.4c0-1-0.3-1.8-1-2.4
		c-0.7-0.7-1.5-1-2.4-1s-1.8,0.3-2.5,1c-0.7,0.7-1,1.5-1,2.4v21.9c0,1,0.3,1.8,1,2.4s1.5,1,2.5,1s1.8-0.3,2.4-1c0.7-0.7,1-1.5,1-2.4
		V11.4z"/>
	<path class="st1" d="M569.2,42.5h-6V2.4h17.2v6.1h-11.2v10.9h8.1v6.1h-8.1V42.5z"/>
	<path class="st1" d="M595.1,8.6h-6.4V2.5h18.9v6.1h-6.4v34h-6V8.6z"/>
	<path class="st1" d="M618.4,25.6v17h-6v-40h6v17h7.3v-17h6v40h-6v-17H618.4z"/>
	<path class="st1" d="M637.1,42.5V2.4h17.2v6.1h-11.2v10.9h8.1v6.1h-8.1v10.9h11.2v6.1H637.1z"/>
	<path class="st1" d="M668.7,42.5h-6V2.4h8.7l5.6,28.8l5.4-28.8h8.3v40.1h-6V17.3l-5.2,25.2h-4.9l-5.8-25.1V42.5z"/>
	<path class="st1" d="M705.6,43c-2.7,0-4.9-0.9-6.8-2.8c-1.9-1.9-2.8-4.1-2.8-6.7v-31h5.9v30.9c0,1,0.3,1.8,1,2.4
		c0.7,0.7,1.5,1,2.5,1s1.8-0.3,2.4-1c0.7-0.7,1-1.5,1-2.4V2.5h6.3v31c0,2.7-0.9,4.9-2.8,6.8C710.5,42.1,708.2,43,705.6,43z"/>
	<path class="st1" d="M740.1,32.6c0,2.8-0.7,5.2-2.2,7.2c-1,1.3-2.4,2.3-4.2,2.8c-1,0.3-2.1,0.4-3.4,0.4c-2.4,0-4.3-0.6-5.9-1.8
		c-1.3-1-2.3-2.3-3.1-3.9c-0.8-1.7-1.2-3.5-1.3-5.7l5.8-0.4c0.3,2.3,0.9,4,1.9,5.1c0.7,0.8,1.6,1.2,2.5,1.1c1.3,0,2.4-0.7,3.2-2
		c0.4-0.6,0.6-1.5,0.6-2.7c0-1.7-0.8-3.3-2.3-5c-1.2-1.1-3-2.8-5.4-5.1c-2-1.9-3.4-3.7-4.3-5.2c-0.9-1.7-1.3-3.6-1.3-5.6
		c0-3.6,1.2-6.4,3.7-8.3c1.5-1.1,3.4-1.7,5.6-1.7c2.2,0,4,0.5,5.5,1.4c1.2,0.7,2.2,1.8,2.9,3.1c0.7,1.3,1.2,2.9,1.3,4.6l-5.8,1.1
		c-0.2-1.6-0.6-2.9-1.4-3.8c-0.6-0.7-1.4-1-2.4-1c-1.1,0-1.9,0.5-2.5,1.5c-0.5,0.8-0.7,1.8-0.7,2.9c0,1.8,0.8,3.7,2.4,5.6
		c0.6,0.7,1.5,1.6,2.7,2.6c1.4,1.2,2.3,2,2.8,2.5c1.5,1.5,2.6,3,3.5,4.4c0.4,0.7,0.7,1.3,0.9,1.9C739.8,30.1,740.1,31.4,740.1,32.6z
		"/>
	<path class="st1" d="M751.2,42.5h-6v-40h6V42.5z"/>
	<path class="st1" d="M766.1,43c-2.7,0-4.9-0.9-6.8-2.8c-1.9-1.9-2.8-4.1-2.8-6.8V11.6c0-2.7,0.9-4.9,2.8-6.8
		c1.9-1.9,4.1-2.8,6.8-2.8c2.7,0,4.9,0.9,6.8,2.8c1.9,1.9,2.8,4.1,2.8,6.8v4.6h-6.3v-4.7c0-1-0.3-1.8-1-2.5s-1.5-1-2.5-1
		s-1.8,0.3-2.4,1c-0.7,0.7-1,1.5-1,2.5v21.9c0,1,0.3,1.8,1,2.4c0.7,0.7,1.5,1,2.4,1s1.8-0.3,2.5-1c0.7-0.7,1-1.5,1-2.4v-5.5h6.3v5.6
		c0,2.7-0.9,4.9-2.8,6.8C771,42.1,768.7,43,766.1,43z"/>
</g>
</svg>
