<!-- Generator: Adobe Illustrator 18.1.1, SVG Export Plug-In  -->
<svg version="1.1"
	 xmlns="http://www.w3.org/2000/svg" xmlns:xlink="http://www.w3.org/1999/xlink" xmlns:a="http://ns.adobe.com/AdobeSVGViewerExtensions/3.0/"
	 x="0px" y="0px" width="716px" height="716px" viewBox="0 0 716 716" enable-background="new 0 0 716 716" xml:space="preserve">
<defs>
</defs>
<circle fill="#CFCECE" cx="358" cy="358" r="324"/>
<path fill="none" stroke="#894B9D" stroke-width="10" stroke-miterlimit="10" d="M242.5,37.6c36-13,74.9-20.1,115.4-20.1
	c188,0,340.5,152.4,340.5,340.5c0,188-152.4,340.5-340.5,340.5C169.9,698.5,17.5,546,17.5,358c0-21.3,2-42.1,5.7-62.3"/>
<path fill="none" stroke="#4C5256" stroke-width="5" stroke-miterlimit="10" d="M706.5,287.4c4.6,22.8,7,46.4,7,70.6
	c0,196.3-159.2,355.5-355.5,355.5C161.7,713.5,2.5,554.3,2.5,358C2.5,161.7,161.7,2.5,358,2.5c99.7,0,189.7,41,254.3,107.1"/>
</svg>
