<?xml version="1.0" encoding="utf-8"?>
<!-- Generator: Adobe Illustrator 19.2.0, SVG Export Plug-In . SVG Version: 6.00 Build 0)  -->
<svg version="1.1" id="Layer_1" xmlns="http://www.w3.org/2000/svg" xmlns:xlink="http://www.w3.org/1999/xlink" x="0px" y="0px"
	 viewBox="0 0 379.7 50.5" style="enable-background:new 0 0 379.7 50.5;" xml:space="preserve">
<style type="text/css">
	.st0{enable-background:new    ;}
	.st1{fill:#1A2935;}
</style>
<g class="st0">
	<path class="st1" d="M8.1,42.6l-6,0L2.2,2.5l8.7,0l5.5,28.8l5.5-28.8l8.3,0l-0.1,40.1l-6,0l0.1-25.2l-5.3,25.2l-4.9,0L8.2,17.4
		L8.1,42.6z"/>
	<path class="st1" d="M45.1,43.1c-2.7,0-4.9-0.9-6.8-2.8c-1.8-1.9-2.8-4.1-2.8-6.8l0.1-31l5.9,0l-0.1,30.9c0,1,0.3,1.8,1,2.4
		c0.7,0.7,1.5,1,2.5,1c1,0,1.8-0.3,2.4-1c0.7-0.7,1-1.5,1-2.4l0.1-30.9l6.3,0l-0.1,31c0,2.7-1,4.9-2.8,6.8
		C50,42.2,47.7,43.1,45.1,43.1z"/>
	<path class="st1" d="M79.6,32.8c0,2.8-0.7,5.2-2.2,7.2c-1,1.3-2.4,2.3-4.2,2.8c-1,0.3-2.1,0.4-3.4,0.4c-2.4,0-4.3-0.6-5.9-1.8
		c-1.3-1-2.3-2.3-3.1-3.9c-0.8-1.7-1.2-3.5-1.3-5.7l5.8-0.4c0.2,2.3,0.9,4,1.8,5.1c0.7,0.8,1.6,1.2,2.5,1.1c1.3,0,2.4-0.7,3.2-1.9
		c0.4-0.6,0.6-1.5,0.6-2.7c0-1.7-0.7-3.3-2.3-5c-1.2-1.1-3-2.8-5.4-5.1c-2-1.9-3.4-3.7-4.2-5.2c-0.9-1.7-1.3-3.6-1.3-5.6
		c0-3.6,1.2-6.4,3.7-8.3c1.5-1.1,3.4-1.7,5.6-1.7c2.2,0,4,0.5,5.5,1.5c1.2,0.8,2.2,1.8,2.9,3.1c0.7,1.3,1.2,2.9,1.3,4.6l-5.8,1
		c-0.2-1.6-0.6-2.9-1.4-3.8c-0.6-0.7-1.4-1-2.4-1c-1.1,0-2,0.5-2.5,1.5c-0.5,0.8-0.7,1.8-0.7,2.9c0,1.8,0.8,3.7,2.3,5.6
		c0.6,0.7,1.5,1.6,2.7,2.6c1.4,1.2,2.3,2,2.8,2.5c1.5,1.5,2.6,3,3.4,4.4c0.4,0.7,0.7,1.3,0.9,1.9C79.3,30.4,79.6,31.7,79.6,32.8z"/>
	<path class="st1" d="M90.7,42.8l-6,0l0.1-40l6,0L90.7,42.8z"/>
	<path class="st1" d="M105.6,43.4c-2.7,0-4.9-0.9-6.8-2.8c-1.9-1.9-2.8-4.1-2.8-6.8l0.1-21.9c0-2.7,1-4.9,2.8-6.8
		c1.9-1.9,4.1-2.8,6.8-2.8c2.7,0,4.9,1,6.8,2.8c1.8,1.9,2.8,4.1,2.8,6.8l0,4.6l-6.3,0l0-4.7c0-1-0.3-1.8-1-2.5c-0.7-0.7-1.5-1-2.5-1
		c-1,0-1.8,0.3-2.4,1c-0.7,0.7-1,1.5-1,2.5L102,33.8c0,1,0.3,1.8,1,2.4c0.7,0.7,1.5,1,2.4,1c1,0,1.8-0.3,2.5-1c0.7-0.7,1-1.5,1-2.4
		l0-5.5l6.3,0l0,5.6c0,2.7-1,4.9-2.8,6.8C110.5,42.5,108.2,43.4,105.6,43.4z"/>
	<path class="st1" d="M123.4,42.9l0.1-40.1l9,0c2.4,0,4.5,0.6,6.4,1.9c1.6,1.1,2.8,2.7,3.5,5c0.4,1.2,0.6,2.6,0.6,4.3
		c0,2.7-0.7,4.8-2.2,6.4c-0.6,0.7-1.3,1.2-2.1,1.6c1.3,0.5,2.5,1.5,3.4,3c0.6,1,1.1,2.3,1.4,4c0.1,0.8,0.2,1.8,0.2,2.8
		c0,2.5-0.5,4.7-1.5,6.5c-0.8,1.4-1.8,2.5-3.2,3.3c-1.5,0.9-3.1,1.4-4.6,1.4L123.4,42.9z M130,37l2.5,0c2,0,3.5-1,4.3-3.1
		c0.3-0.7,0.4-1.6,0.4-2.5c0-2.2-0.4-3.9-1.3-4.9c-0.8-0.9-1.9-1.4-3.4-1.4l-2.5,0L130,37z M130,19.2l2.5,0c1.9,0,3.1-0.9,3.8-2.7
		c0.2-0.7,0.4-1.5,0.4-2.5c0-1.7-0.4-2.9-1.2-3.8c-0.7-0.8-1.7-1.2-2.9-1.2l-2.5,0L130,19.2z"/>
	<path class="st1" d="M158.7,3c3.4,0,5.8,0.9,7.4,2.8c1.4,1.6,2.1,3.9,2.1,6.8l0,5.8c0,2.8-1.1,5.2-3.3,7.2l4.4,17.5l-6.5,0
		L159.2,28c-0.2,0-0.4,0-0.5,0l-3.5,0L155.1,43l-6,0l0.1-40L158.7,3z M162.3,12.7c0-2.3-1.1-3.5-3.4-3.5l-3.6,0l0,12.8l3.6,0
		c1,0,1.8-0.3,2.4-1c0.7-0.7,1-1.5,1-2.5L162.3,12.7z"/>
	<path class="st1" d="M180.5,43.1l-6,0l0.1-40l6,0L180.5,43.1z"/>
	<path class="st1" d="M204.9,33.6c0,2.6-0.9,4.9-2.8,6.8c-1.9,1.9-4.1,2.8-6.7,2.8l-9.5,0l0.1-40.1l9.5,0c2.6,0,4.9,1,6.7,2.8
		c1.8,1.9,2.8,4.1,2.7,6.8L204.9,33.6z M192,37.2l3.6,0c1,0,1.8-0.3,2.4-1c0.7-0.7,1-1.5,1-2.4l0.1-21c0-1-0.3-1.8-1-2.5
		c-0.7-0.7-1.5-1-2.4-1l-3.6,0L192,37.2z"/>
	<path class="st1" d="M219.7,43.8c-2.7,0-4.9-1-6.8-2.8c-1.9-1.9-2.8-4.1-2.8-6.8l0.1-21.9c0-2.7,1-4.9,2.8-6.8
		c1.9-1.9,4.1-2.8,6.8-2.8c2.7,0,4.9,1,6.8,2.8c1.8,1.9,2.8,4.1,2.8,6.8l0,4.6l-6.3,0l0-4.7c0-1-0.3-1.8-1-2.5s-1.5-1-2.5-1
		c-1,0-1.8,0.3-2.4,1c-0.7,0.7-1,1.5-1,2.5l-0.1,21.9c0,1,0.3,1.8,1,2.4c0.7,0.7,1.5,1,2.4,1c1,0,1.8-0.3,2.5-1c0.7-0.7,1-1.5,1-2.4
		l0-7.9l-3.4,0l0-6.1l9.6,0l0,14c0,2.7-1,4.9-2.8,6.8C224.6,42.9,222.3,43.8,219.7,43.8z"/>
	<path class="st1" d="M234.5,43.3l0.1-40.1l17.2,0.1l0,6.1l-11.2,0l0,10.9l8.1,0l0,6.1l-8.1,0l0,10.9l11.2,0l0,6.1L234.5,43.3z"/>
	<path class="st1" d="M275.9,33.5c0,2.8-0.7,5.2-2.2,7.2c-1,1.3-2.4,2.3-4.2,2.8c-1,0.3-2.1,0.4-3.4,0.4c-2.4,0-4.3-0.6-5.9-1.8
		c-1.3-1-2.3-2.3-3.1-3.9c-0.8-1.7-1.2-3.5-1.3-5.7l5.8-0.4c0.2,2.3,0.9,4,1.8,5.1c0.7,0.8,1.6,1.2,2.5,1.1c1.3,0,2.4-0.7,3.2-1.9
		c0.4-0.6,0.6-1.5,0.6-2.7c0-1.7-0.7-3.3-2.3-5c-1.2-1.1-3-2.8-5.4-5.1c-2-1.9-3.4-3.7-4.2-5.2c-0.9-1.7-1.3-3.6-1.3-5.6
		c0-3.6,1.2-6.4,3.7-8.3c1.5-1.1,3.4-1.7,5.6-1.7c2.2,0,4,0.5,5.5,1.5c1.2,0.8,2.2,1.8,2.9,3.1s1.2,2.9,1.3,4.6l-5.8,1
		c-0.2-1.6-0.6-2.9-1.4-3.8c-0.6-0.7-1.3-1-2.4-1c-1.1,0-2,0.5-2.5,1.5c-0.5,0.8-0.7,1.8-0.7,2.9c0,1.8,0.8,3.7,2.3,5.6
		c0.6,0.7,1.5,1.6,2.7,2.6c1.4,1.2,2.3,2,2.8,2.5c1.5,1.5,2.6,3,3.4,4.4c0.4,0.7,0.7,1.3,0.9,1.9C275.6,31.1,275.8,32.3,275.9,33.5z
		"/>
	<path class="st1" d="M293.7,44c-2.7,0-4.9-1-6.8-2.8c-1.9-1.9-2.8-4.1-2.8-6.8l0.1-21.9c0-2.7,1-4.9,2.8-6.8
		c1.9-1.9,4.1-2.8,6.8-2.8c2.7,0,4.9,1,6.8,2.8s2.8,4.1,2.8,6.8l0,4.6l-6.3,0l0-4.7c0-1-0.3-1.8-1-2.5c-0.7-0.7-1.5-1-2.5-1
		c-1,0-1.8,0.3-2.4,1c-0.7,0.7-1,1.5-1,2.5l-0.1,21.9c0,1,0.3,1.8,1,2.4s1.5,1,2.4,1c1,0,1.8-0.3,2.5-1c0.7-0.7,1-1.5,1-2.4l0-7.9
		l-3.4,0l0-6.1l9.6,0l0,14c0,2.7-1,4.9-2.8,6.8C298.6,43.1,296.3,44,293.7,44z"/>
	<path class="st1" d="M315.2,34.4l-1.5,9.2l-6.3,0l6.9-40l8.3,0l6.6,40.1l-6.4,0l-1.4-9.2L315.2,34.4z M318.5,12.7l-2.3,15.8l4.5,0
		L318.5,12.7z"/>
	<path class="st1" d="M344,3.6c2.9,0,5.3,0.9,7,2.8c1.6,1.8,2.4,4,2.4,6.8l0,5.8c0,2.6-0.9,4.9-2.8,6.8c-1.8,1.9-4.1,2.8-6.7,2.8
		l-3.5,0l-0.1,15.1l-6,0l0.1-40L344,3.6z M347.6,13.3c0-1-0.3-1.9-0.9-2.5c-0.6-0.6-1.5-1-2.5-1l-3.6,0l0,12.8l3.6,0
		c1,0,1.8-0.3,2.4-1c0.7-0.7,1-1.5,1-2.5L347.6,13.3z"/>
	<path class="st1" d="M377.5,33.8c0,2.8-0.7,5.2-2.2,7.2c-1,1.3-2.4,2.3-4.2,2.8c-1,0.3-2.1,0.4-3.4,0.4c-2.4,0-4.3-0.6-5.9-1.8
		c-1.3-1-2.3-2.3-3.1-3.9c-0.8-1.7-1.2-3.5-1.3-5.7l5.8-0.4c0.2,2.3,0.9,4,1.8,5.1c0.7,0.8,1.6,1.2,2.5,1.1c1.3,0,2.4-0.7,3.2-1.9
		c0.4-0.6,0.6-1.5,0.6-2.7c0-1.7-0.7-3.3-2.3-5c-1.2-1.1-3-2.8-5.4-5.1c-2-1.9-3.4-3.7-4.2-5.2c-0.9-1.7-1.3-3.6-1.3-5.6
		c0-3.6,1.2-6.4,3.7-8.3c1.5-1.1,3.4-1.7,5.6-1.7c2.2,0,4,0.5,5.5,1.5c1.2,0.8,2.2,1.8,2.9,3.1c0.7,1.3,1.2,2.9,1.3,4.6l-5.8,1
		c-0.2-1.6-0.6-2.9-1.4-3.8c-0.6-0.7-1.4-1-2.4-1c-1.1,0-2,0.5-2.5,1.5c-0.5,0.8-0.7,1.8-0.7,2.9c0,1.8,0.8,3.7,2.3,5.6
		c0.6,0.7,1.5,1.6,2.7,2.6c1.4,1.2,2.3,2,2.8,2.5c1.5,1.5,2.6,3,3.4,4.4c0.4,0.7,0.7,1.3,0.9,1.9C377.2,31.4,377.5,32.7,377.5,33.8z
		"/>
</g>
</svg>
