<!-- Generator: Adobe Illustrator 18.1.1, SVG Export Plug-In  -->
<svg version="1.1"
	 xmlns="http://www.w3.org/2000/svg" xmlns:xlink="http://www.w3.org/1999/xlink" xmlns:a="http://ns.adobe.com/AdobeSVGViewerExtensions/3.0/"
	 x="0px" y="0px" width="502.5px" height="41.1px" viewBox="0 0 502.5 41.1" enable-background="new 0 0 502.5 41.1"
	 xml:space="preserve">
<defs>
</defs>
<g>
	<path fill="#DAEBF1" d="M24.8,0.5h6.3l-6.3,40h-5.8l-3.4-22l-3.2,22H6.7L0,0.5h6.3L9.5,22l2.9-21.4h6.3L21.9,22L24.8,0.5z"/>
	<path fill="#DAEBF1" d="M42.3,23.6v17h-6v-40h6v17h7.3v-17h6v40h-6v-17H42.3z"/>
	<path fill="#DAEBF1" d="M61,40.6V0.5h17.2v6.1H67.1v10.9h8.1v6.1h-8.1v10.9h11.2v6.1H61z"/>
	<path fill="#DAEBF1" d="M89.1,0.5l8,26.9V0.5h6v40.1h-6.5l-8.3-25.7v25.7h-6V0.5H89.1z"/>
	<path fill="#DAEBF1" d="M136.3,0.5h6.3l-6.3,40h-5.8l-3.4-22l-3.2,22h-5.8l-6.7-40h6.3L121,22l2.9-21.4h6.3l3.2,21.4L136.3,0.5z"/>
	<path fill="#DAEBF1" d="M147.7,40.6V0.5h17.2v6.1h-11.2v10.9h8.1v6.1h-8.1v10.9h11.2v6.1H147.7z"/>
	<path fill="#DAEBF1" d="M193.9,40.6h-16.5v-40h6v34h10.4V40.6z"/>
	<path fill="#DAEBF1" d="M204.1,40.6h-6v-40h6V40.6z"/>
	<path fill="#DAEBF1" d="M229.1,30.6c0,2.8-0.7,5.2-2.2,7.2c-1,1.3-2.4,2.3-4.2,2.8c-1,0.3-2.1,0.4-3.4,0.4c-2.4,0-4.3-0.6-5.9-1.8
		c-1.3-1-2.3-2.3-3.1-3.9c-0.8-1.7-1.2-3.5-1.3-5.7l5.8-0.4c0.3,2.3,0.9,4,1.9,5.1c0.7,0.8,1.6,1.2,2.5,1.1c1.3,0,2.4-0.7,3.2-2
		c0.4-0.6,0.6-1.5,0.6-2.7c0-1.7-0.8-3.3-2.3-5c-1.2-1.1-3-2.8-5.4-5.1c-2-1.9-3.4-3.7-4.3-5.2c-0.9-1.7-1.3-3.6-1.3-5.6
		c0-3.6,1.2-6.4,3.7-8.3c1.5-1.1,3.4-1.7,5.6-1.7c2.2,0,4,0.5,5.5,1.4c1.2,0.7,2.2,1.8,2.9,3.1c0.7,1.3,1.2,2.9,1.3,4.6l-5.8,1.1
		c-0.2-1.6-0.6-2.9-1.4-3.8c-0.6-0.7-1.4-1-2.4-1c-1.1,0-1.9,0.5-2.5,1.5c-0.5,0.8-0.7,1.8-0.7,2.9c0,1.8,0.8,3.7,2.4,5.6
		c0.6,0.7,1.5,1.6,2.7,2.6c1.4,1.2,2.3,2,2.8,2.5c1.5,1.5,2.6,3,3.5,4.4c0.4,0.7,0.7,1.3,0.9,1.9C228.8,28.2,229.1,29.5,229.1,30.6z
		"/>
	<path fill="#DAEBF1" d="M239.7,6.6h-6.4V0.5h18.9v6.1h-6.4v34h-6V6.6z"/>
	<path fill="#DAEBF1" d="M257,40.6V0.5h17.2v6.1H263v10.9h8.1v6.1H263v10.9h11.2v6.1H257z"/>
	<path fill="#DAEBF1" d="M285.1,0.5l8,26.9V0.5h6v40.1h-6.5l-8.3-25.7v25.7h-6V0.5H285.1z"/>
	<path fill="#DAEBF1" d="M318,6.6h-6.4V0.5h18.9v6.1h-6.4v34h-6V6.6z"/>
	<path fill="#DAEBF1" d="M344.2,0c2.7,0,4.9,0.9,6.8,2.8s2.8,4.1,2.8,6.8v21.9c0,2.7-0.9,4.9-2.8,6.8s-4.1,2.8-6.8,2.8
		c-2.7,0-4.9-0.9-6.8-2.8c-1.9-1.9-2.8-4.1-2.8-6.8V9.6c0-2.7,0.9-4.9,2.8-6.8C339.3,1,341.5,0,344.2,0z M347.5,9.5
		c0-1-0.3-1.8-1-2.4c-0.7-0.7-1.5-1-2.4-1s-1.8,0.3-2.5,1c-0.7,0.7-1,1.5-1,2.4v21.9c0,1,0.3,1.8,1,2.4c0.7,0.7,1.5,1,2.5,1
		s1.8-0.3,2.4-1c0.7-0.7,1-1.5,1-2.4V9.5z"/>
	<path fill="#DAEBF1" d="M372.3,40.6h-6V0.5h8.7l5.6,28.8l5.4-28.8h8.3v40.1h-6V15.4L383,40.6h-4.9l-5.8-25.1V40.6z"/>
	<path fill="#DAEBF1" d="M409.2,41c-2.7,0-4.9-0.9-6.8-2.8c-1.9-1.9-2.8-4.1-2.8-6.7v-31h5.9v30.9c0,1,0.3,1.8,1,2.4
		c0.7,0.7,1.5,1,2.5,1s1.8-0.3,2.4-1c0.7-0.7,1-1.5,1-2.4V0.5h6.3v31c0,2.7-0.9,4.9-2.8,6.8C414.1,40.1,411.8,41,409.2,41z"/>
	<path fill="#DAEBF1" d="M443.7,30.6c0,2.8-0.7,5.2-2.2,7.2c-1,1.3-2.4,2.3-4.2,2.8c-1,0.3-2.1,0.4-3.4,0.4c-2.4,0-4.3-0.6-5.9-1.8
		c-1.3-1-2.3-2.3-3.1-3.9c-0.8-1.7-1.2-3.5-1.3-5.7l5.8-0.4c0.3,2.3,0.9,4,1.9,5.1c0.7,0.8,1.6,1.2,2.5,1.1c1.3,0,2.4-0.7,3.2-2
		c0.4-0.6,0.6-1.5,0.6-2.7c0-1.7-0.8-3.3-2.3-5c-1.2-1.1-3-2.8-5.4-5.1c-2-1.9-3.4-3.7-4.3-5.2c-0.9-1.7-1.3-3.6-1.3-5.6
		c0-3.6,1.2-6.4,3.7-8.3c1.5-1.1,3.4-1.7,5.6-1.7c2.2,0,4,0.5,5.5,1.4c1.2,0.7,2.2,1.8,2.9,3.1c0.7,1.3,1.2,2.9,1.3,4.6l-5.8,1.1
		c-0.2-1.6-0.6-2.9-1.4-3.8c-0.6-0.7-1.4-1-2.4-1c-1.1,0-1.9,0.5-2.5,1.5c-0.5,0.8-0.7,1.8-0.7,2.9c0,1.8,0.8,3.7,2.4,5.6
		c0.6,0.7,1.5,1.6,2.7,2.6c1.4,1.2,2.3,2,2.8,2.5c1.5,1.5,2.6,3,3.5,4.4c0.4,0.7,0.7,1.3,0.9,1.9C443.4,28.2,443.7,29.5,443.7,30.6z
		"/>
	<path fill="#DAEBF1" d="M454.8,40.6h-6v-40h6V40.6z"/>
	<path fill="#DAEBF1" d="M469.7,41.1c-2.7,0-4.9-0.9-6.8-2.8c-1.9-1.9-2.8-4.1-2.8-6.8V9.7c0-2.7,0.9-4.9,2.8-6.8s4.1-2.8,6.8-2.8
		c2.7,0,4.9,0.9,6.8,2.8c1.9,1.9,2.8,4.1,2.8,6.8v4.6H473V9.6c0-1-0.3-1.8-1-2.5s-1.5-1-2.5-1s-1.8,0.3-2.4,1c-0.7,0.7-1,1.5-1,2.5
		v21.9c0,1,0.3,1.8,1,2.4c0.7,0.7,1.5,1,2.4,1s1.8-0.3,2.5-1s1-1.5,1-2.4V26h6.3v5.6c0,2.7-0.9,4.9-2.8,6.8S472.3,41.1,469.7,41.1z"
		/>
	<path fill="#DAEBF1" d="M493.2,0c3.2,0,5.7,1.2,7.4,3.5c1.3,1.8,2,4,2,6.5c0,4.1-1.9,8.1-5.6,11.8c-1.3,1.3-2,2.8-2.1,4.5
		c0,0.6-0.1,1.2-0.1,1.9v2.4h-6v-2.4c0-3.8,0.9-6.6,2.8-8.4c2-2,3.4-4,4.1-6.1c0.4-1.2,0.6-2.5,0.6-3.8c0-1.4-0.3-2.5-0.9-3.3
		c-0.7-0.9-1.7-1.3-3-1.1c-1.2,0.1-2.1,1-2.6,2.5c-0.2,0.6-0.4,1.4-0.5,2.2l-5.8-1c0.2-2.5,1-4.6,2.5-6.3c1-1.2,2.3-2,4.1-2.5
		C490.9,0.1,492,0,493.2,0z M488.7,34.8h6v6.1h-6V34.8z"/>
</g>
</svg>
