<!-- Generator: Adobe Illustrator 18.1.1, SVG Export Plug-In  -->
<svg version="1.1"
	 xmlns="http://www.w3.org/2000/svg" xmlns:xlink="http://www.w3.org/1999/xlink" xmlns:a="http://ns.adobe.com/AdobeSVGViewerExtensions/3.0/"
	 x="0px" y="0px" width="548.1px" height="395.7px" viewBox="0 0 548.1 395.7" enable-background="new 0 0 548.1 395.7"
	 xml:space="preserve">
<defs>
</defs>
<path fill="#24AE5F" d="M395.7,395.7c50.4-0.7,98.5-10.9,142.6-29c3.3-1.3,6.6-2.7,9.8-4.2l-5.4-12.7c-3.2,1.4-6.5,2.8-9.8,4.2
	c-42.4,17.4-88.7,27.2-137.2,27.9c-1.8,0-3.5,0-5.3,0c-1.8,0-3.6,0-5.3,0c-46-0.6-90-9.5-130.6-25.2c-3.3-1.3-6.6-2.6-9.9-4
	c-43.7-18.4-83.3-44.8-116.7-77.3c-2.5-2.5-5.1-5-7.5-7.5c-30.9-31.8-56.3-69.1-74.5-110.2c-1.4-3.2-2.8-6.5-4.2-9.8
	C24.3,105.5,14.5,59.2,13.8,10.6c0-1.8,0-3.5,0-5.3c0-1.8,0-3.6,0-5.3L0,0c0,1.8,0,3.5,0,5.3c0,1.8,0,3.6,0,5.3
	c0.7,50.4,10.9,98.5,29,142.6c1.3,3.3,2.7,6.6,4.2,9.8c18.9,42.8,45.3,81.5,77.4,114.5c2.5,2.5,5,5.1,7.5,7.5
	c34.8,33.9,75.9,61.3,121.3,80.4c3.3,1.4,6.6,2.7,9.9,4c42.2,16.4,87.9,25.6,135.7,26.2c1.8,0,3.5,0,5.3,0
	C392.2,395.7,394,395.7,395.7,395.7z"/>
</svg>
