<?xml version="1.0" encoding="utf-8"?>
<!-- Generator: Adobe Illustrator 19.2.0, SVG Export Plug-In . SVG Version: 6.00 Build 0)  -->
<svg version="1.1" id="Layer_1" xmlns="http://www.w3.org/2000/svg" xmlns:xlink="http://www.w3.org/1999/xlink" x="0px" y="0px"
	 viewBox="0 0 521.4 51" style="enable-background:new 0 0 521.4 51;" xml:space="preserve">
<style type="text/css">
	.st0{enable-background:new    ;}
	.st1{fill:#5BB4E5;}
</style>
<g class="st0">
	<path class="st1" d="M8.1,42.6l-6,0L2.2,2.5l8.7,0l5.5,28.8l5.5-28.8l8.3,0l-0.1,40.1l-6,0l0.1-25.2l-5.3,25.2l-4.9,0L8.2,17.4
		L8.1,42.6z"/>
	<path class="st1" d="M45.1,43.1c-2.7,0-4.9-0.9-6.8-2.8c-1.8-1.9-2.8-4.1-2.8-6.8l0.1-31l5.9,0l-0.1,30.9c0,1,0.3,1.8,1,2.4
		c0.7,0.7,1.5,1,2.5,1c1,0,1.8-0.3,2.4-1c0.7-0.7,1-1.5,1-2.4l0.1-30.9l6.3,0l-0.1,31c0,2.7-1,4.9-2.8,6.8
		C50,42.2,47.7,43.1,45.1,43.1z"/>
	<path class="st1" d="M79.6,32.8c0,2.8-0.7,5.2-2.2,7.2c-1,1.3-2.4,2.3-4.2,2.8c-1,0.3-2.1,0.4-3.4,0.4c-2.4,0-4.3-0.6-5.9-1.8
		c-1.3-1-2.3-2.3-3.1-3.9c-0.8-1.7-1.2-3.5-1.3-5.7l5.8-0.4c0.2,2.3,0.9,4,1.8,5.1c0.7,0.8,1.6,1.2,2.5,1.1c1.3,0,2.4-0.7,3.2-1.9
		c0.4-0.6,0.6-1.5,0.6-2.7c0-1.7-0.7-3.3-2.3-5c-1.2-1.1-3-2.8-5.4-5.1c-2-1.9-3.4-3.7-4.2-5.2c-0.9-1.7-1.3-3.6-1.3-5.6
		c0-3.6,1.2-6.4,3.7-8.3c1.5-1.1,3.4-1.7,5.6-1.7c2.2,0,4,0.5,5.5,1.5c1.2,0.8,2.2,1.8,2.9,3.1c0.7,1.3,1.2,2.9,1.3,4.6l-5.8,1
		c-0.2-1.6-0.6-2.9-1.4-3.8c-0.6-0.7-1.4-1-2.4-1c-1.1,0-2,0.5-2.5,1.5c-0.5,0.8-0.7,1.8-0.7,2.9c0,1.8,0.8,3.7,2.3,5.6
		c0.6,0.7,1.5,1.6,2.7,2.6c1.4,1.2,2.3,2,2.8,2.5c1.5,1.5,2.6,3,3.4,4.4c0.4,0.7,0.7,1.3,0.9,1.9C79.3,30.4,79.6,31.7,79.6,32.8z"/>
	<path class="st1" d="M90.7,42.8l-6,0l0.1-40l6,0L90.7,42.8z"/>
	<path class="st1" d="M105.6,43.4c-2.7,0-4.9-0.9-6.8-2.8c-1.9-1.9-2.8-4.1-2.8-6.8l0.1-21.9c0-2.7,1-4.9,2.8-6.8
		c1.9-1.9,4.1-2.8,6.8-2.8c2.7,0,4.9,1,6.8,2.8c1.8,1.9,2.8,4.1,2.8,6.8l0,4.6l-6.3,0l0-4.7c0-1-0.3-1.8-1-2.5c-0.7-0.7-1.5-1-2.5-1
		c-1,0-1.8,0.3-2.4,1c-0.7,0.7-1,1.5-1,2.5L102,33.8c0,1,0.3,1.8,1,2.4c0.7,0.7,1.5,1,2.4,1c1,0,1.8-0.3,2.5-1c0.7-0.7,1-1.5,1-2.4
		l0-5.5l6.3,0l0,5.6c0,2.7-1,4.9-2.8,6.8C110.5,42.5,108.2,43.4,105.6,43.4z"/>
	<path class="st1" d="M133,43.5c-2.7,0-4.9-0.9-6.8-2.8c-1.9-1.9-2.8-4.1-2.8-6.8l0.1-21.9c0-2.7,1-4.9,2.8-6.8
		c1.9-1.9,4.1-2.8,6.8-2.8c2.7,0,4.9,1,6.8,2.8c1.8,1.9,2.8,4.1,2.8,6.8l0,4.6l-6.3,0l0-4.7c0-1-0.3-1.8-1-2.5c-0.7-0.7-1.5-1-2.5-1
		c-1,0-1.8,0.3-2.4,1s-1,1.5-1,2.5l-0.1,21.9c0,1,0.3,1.8,1,2.4c0.7,0.7,1.5,1,2.4,1c1,0,1.8-0.3,2.5-1s1-1.5,1-2.4l0-5.5l6.3,0
		l0,5.6c0,2.7-1,4.9-2.8,6.8C137.9,42.6,135.7,43.5,133,43.5z"/>
	<path class="st1" d="M157.1,2.5c2.7,0,4.9,1,6.8,2.8c1.9,1.9,2.8,4.1,2.8,6.8L166.6,34c0,2.7-1,4.9-2.8,6.8
		c-1.9,1.9-4.1,2.8-6.8,2.8c-2.7,0-4.9-1-6.8-2.8c-1.8-1.9-2.8-4.1-2.8-6.8l0.1-21.9c0-2.7,1-4.9,2.8-6.8
		C152.3,3.4,154.5,2.5,157.1,2.5z M160.4,12c0-1-0.3-1.8-1-2.4s-1.5-1-2.4-1c-1,0-1.8,0.3-2.5,1c-0.7,0.7-1,1.5-1,2.4l-0.1,21.9
		c0,1,0.3,1.8,1,2.4c0.7,0.7,1.5,1,2.5,1c1,0,1.8-0.3,2.4-1c0.7-0.7,1-1.5,1-2.4L160.4,12z"/>
	<path class="st1" d="M178.8,3l7.9,27l0.1-26.9l6,0l-0.1,40.1l-6.5,0L178,17.5l-0.1,25.7l-6,0L172,3L178.8,3z"/>
	<path class="st1" d="M205.1,3.1l7.9,27l0.1-26.9l6,0L219,43.3l-6.5,0l-8.2-25.7l-0.1,25.7l-6,0l0.1-40.1L205.1,3.1z"/>
	<path class="st1" d="M224.4,43.3l0.1-40.1l17.2,0.1l0,6.1l-11.2,0l0,10.9l8.1,0l0,6.1l-8.1,0l0,10.9l11.2,0l0,6.1L224.4,43.3z"/>
	<path class="st1" d="M255.3,43.9c-2.7,0-4.9-0.9-6.8-2.8c-1.9-1.9-2.8-4.1-2.8-6.8l0.1-21.9c0-2.7,1-4.9,2.8-6.8
		c1.9-1.9,4.1-2.8,6.8-2.8c2.7,0,4.9,1,6.8,2.8c1.8,1.9,2.8,4.1,2.8,6.8l0,4.6l-6.3,0l0-4.7c0-1-0.3-1.8-1-2.5c-0.7-0.7-1.5-1-2.5-1
		c-1,0-1.8,0.3-2.4,1c-0.7,0.7-1,1.5-1,2.5l-0.1,21.9c0,1,0.3,1.8,1,2.4s1.5,1,2.4,1c1,0,1.8-0.3,2.5-1c0.7-0.7,1-1.5,1-2.4l0-5.5
		l6.3,0l0,5.6c0,2.7-1,4.9-2.8,6.8C260.2,43,257.9,43.9,255.3,43.9z"/>
	<path class="st1" d="M275.6,9.5l-6.4,0l0-6.1L288,3.4l0,6.1l-6.4,0l-0.1,34l-6,0L275.6,9.5z"/>
	<path class="st1" d="M312,33.6c0,2.8-0.7,5.2-2.2,7.2c-1,1.3-2.4,2.3-4.2,2.8c-1,0.3-2.1,0.4-3.4,0.4c-2.4,0-4.3-0.6-5.9-1.8
		c-1.3-1-2.3-2.3-3.1-3.9c-0.8-1.7-1.2-3.5-1.3-5.7l5.8-0.4c0.2,2.3,0.9,4,1.8,5.1c0.7,0.8,1.6,1.2,2.5,1.1c1.3,0,2.4-0.7,3.2-1.9
		c0.4-0.6,0.6-1.5,0.6-2.7c0-1.7-0.7-3.3-2.3-5c-1.2-1.1-3-2.8-5.4-5.1c-2-1.9-3.4-3.7-4.2-5.2c-0.9-1.7-1.3-3.6-1.3-5.6
		c0-3.6,1.2-6.4,3.7-8.3c1.5-1.1,3.4-1.7,5.6-1.7c2.2,0,4,0.5,5.5,1.5c1.2,0.8,2.2,1.8,2.9,3.1c0.7,1.3,1.2,2.9,1.3,4.6l-5.8,1
		c-0.2-1.6-0.6-2.9-1.4-3.8c-0.6-0.7-1.3-1-2.4-1c-1.1,0-2,0.5-2.5,1.5c-0.5,0.8-0.7,1.8-0.7,2.9c0,1.8,0.8,3.7,2.3,5.6
		c0.6,0.7,1.5,1.6,2.7,2.6c1.4,1.2,2.3,2,2.8,2.5c1.5,1.5,2.6,3,3.4,4.4c0.4,0.7,0.7,1.3,0.9,1.9C311.7,31.2,312,32.5,312,33.6z"/>
	<path class="st1" d="M326.9,9.6l-6.4,0l0-6.1l18.9,0.1l0,6.1l-6.4,0l-0.1,34l-6,0L326.9,9.6z"/>
	<path class="st1" d="M350.1,26.7l-0.1,17l-6,0l0.1-40l6,0l-0.1,17l7.3,0l0.1-17l6,0l-0.1,40l-6,0l0.1-17L350.1,26.7z"/>
	<path class="st1" d="M368.8,43.8l0.1-40.1l17.2,0.1l0,6.1l-11.2,0l0,10.9l8.1,0l0,6.1l-8.1,0l0,10.9l11.2,0l0,6.1L368.8,43.8z"/>
	<path class="st1" d="M419.3,3.9l6.3,0l-6.4,40l-5.8,0l-3.4-22l-3.3,22l-5.8,0l-6.6-40.1l6.3,0l3.1,21.5l3-21.4l6.3,0l3.1,21.4
		L419.3,3.9z"/>
	<path class="st1" d="M439.3,3.4c2.7,0,4.9,1,6.8,2.8c1.9,1.9,2.8,4.1,2.8,6.8l-0.1,21.9c0,2.7-1,4.9-2.8,6.8
		c-1.9,1.9-4.1,2.8-6.8,2.8c-2.7,0-4.9-1-6.8-2.8s-2.8-4.1-2.8-6.8l0.1-21.9c0-2.7,1-4.9,2.8-6.8C434.4,4.4,436.7,3.4,439.3,3.4z
		 M442.6,12.9c0-1-0.3-1.8-1-2.4c-0.7-0.7-1.5-1-2.4-1c-1,0-1.8,0.3-2.5,1c-0.7,0.7-1,1.5-1,2.4l-0.1,21.9c0,1,0.3,1.8,1,2.4
		c0.7,0.7,1.5,1,2.5,1c1,0,1.8-0.3,2.4-1s1-1.5,1-2.4L442.6,12.9z"/>
	<path class="st1" d="M463.8,4c3.4,0,5.8,0.9,7.4,2.8c1.4,1.6,2.1,3.9,2.1,6.8l0,5.8c0,2.8-1.1,5.2-3.3,7.2l4.4,17.5l-6.5,0
		L464.2,29c-0.2,0-0.4,0-0.5,0l-3.5,0l-0.1,15.1l-6,0l0.1-40L463.8,4z M467.3,13.7c0-2.3-1.1-3.5-3.4-3.5l-3.6,0l0,12.8l3.6,0
		c1,0,1.8-0.3,2.4-1c0.7-0.7,1-1.5,1-2.5L467.3,13.7z"/>
	<path class="st1" d="M496,44.2l-16.5-0.1l0.1-40l6,0l-0.1,34l10.4,0L496,44.2z"/>
	<path class="st1" d="M519.2,34.7c0,2.6-0.9,4.9-2.8,6.8c-1.9,1.9-4.1,2.8-6.7,2.8l-9.5,0l0.1-40.1l9.5,0c2.6,0,4.9,1,6.7,2.8
		c1.8,1.9,2.8,4.1,2.7,6.8L519.2,34.7z M506.2,38.2l3.6,0c1,0,1.8-0.3,2.4-1c0.7-0.7,1-1.5,1-2.4l0.1-21c0-1-0.3-1.8-1-2.5
		c-0.7-0.7-1.5-1-2.4-1l-3.6,0L506.2,38.2z"/>
</g>
</svg>
