<!-- Generator: Adobe Illustrator 18.1.1, SVG Export Plug-In  -->
<svg version="1.1"
	 xmlns="http://www.w3.org/2000/svg" xmlns:xlink="http://www.w3.org/1999/xlink" xmlns:a="http://ns.adobe.com/AdobeSVGViewerExtensions/3.0/"
	 x="0px" y="0px" width="209.4px" height="277.9px" viewBox="0 0 209.4 277.9" enable-background="new 0 0 209.4 277.9"
	 xml:space="preserve">
<defs>
</defs>
<g>
	<path fill="#FFFFFF" d="M12.9,72.9H2V0.9h15.6l10.1,51.8l9.7-51.8h15v72.1H41.5V27.6l-9.4,45.3h-8.7L12.9,27.8V72.9z"/>
	<path fill="#FFFFFF" d="M79.2,73.7c-4.8,0-8.8-1.7-12.2-5c-3.3-3.3-5-7.4-5-12.1V0.9h10.6v55.6c0,1.7,0.6,3.2,1.8,4.4
		c1.2,1.2,2.7,1.8,4.4,1.8c1.7,0,3.2-0.6,4.4-1.8c1.2-1.2,1.8-2.7,1.8-4.4V0.9h11.3v55.7c0,4.8-1.7,8.9-5.1,12.2
		C88,72.1,84,73.7,79.2,73.7z"/>
	<path fill="#FFFFFF" d="M141.3,55c0.1,5-1.2,9.3-3.9,12.9c-1.8,2.4-4.3,4.1-7.5,5.1c-1.7,0.5-3.7,0.8-6,0.8
		c-4.3,0-7.8-1.1-10.6-3.2c-2.3-1.7-4.2-4.1-5.5-7c-1.4-3-2.2-6.4-2.4-10.2l10.3-0.7c0.5,4.2,1.6,7.2,3.3,9.1c1.3,1.4,2.8,2.1,4.5,2
		c2.4-0.1,4.3-1.2,5.7-3.5c0.7-1.1,1.1-2.7,1.1-4.8c0-3-1.4-6-4.1-8.9c-2.1-2-5.4-5.1-9.7-9.1c-3.6-3.5-6.1-6.6-7.6-9.4
		c-1.6-3.1-2.4-6.5-2.4-10.1c0-6.6,2.2-11.5,6.6-14.9c2.7-2,6.1-3,10.1-3c3.9,0,7.2,0.9,9.9,2.6c2.1,1.3,3.9,3.2,5.2,5.6
		c1.3,2.4,2.1,5.2,2.4,8.3l-10.4,1.9c-0.3-2.9-1.1-5.2-2.5-6.9c-1-1.2-2.4-1.8-4.3-1.8c-2,0-3.5,0.9-4.5,2.6
		c-0.8,1.4-1.3,3.2-1.3,5.3c0,3.3,1.4,6.6,4.3,10.1c1.1,1.3,2.7,2.8,4.8,4.6c2.5,2.1,4.2,3.6,5,4.4c2.7,2.7,4.8,5.3,6.2,7.9
		c0.7,1.2,1.2,2.4,1.7,3.4C140.7,50.7,141.3,53,141.3,55z"/>
	<path fill="#FFFFFF" d="M161.2,72.9h-10.9v-72h10.9V72.9z"/>
	<path fill="#FFFFFF" d="M188,73.8c-4.8,0-8.9-1.7-12.2-5c-3.4-3.4-5-7.4-5-12.2V17.4c0-4.8,1.7-8.9,5.1-12.2c3.4-3.4,7.4-5,12.2-5
		c4.8,0,8.8,1.7,12.2,5.1c3.3,3.4,5,7.4,5,12.2v8.2h-11.3v-8.4c0-1.7-0.6-3.2-1.8-4.4c-1.2-1.2-2.7-1.8-4.4-1.8
		c-1.7,0-3.2,0.6-4.4,1.8c-1.2,1.2-1.8,2.7-1.8,4.4v39.4c0,1.7,0.6,3.2,1.8,4.4c1.2,1.2,2.7,1.8,4.4,1.8c1.7,0,3.2-0.6,4.4-1.8
		c1.2-1.2,1.8-2.7,1.8-4.4v-9.9h11.3v10.1c0,4.8-1.7,8.8-5.1,12.2C196.8,72.2,192.7,73.8,188,73.8z"/>
	<path fill="#FFFFFF" d="M8,121.9c-2.2,0-4.1-0.8-5.7-2.3C0.8,118,0,116.1,0,113.9V95.5c0-2.2,0.8-4.1,2.4-5.7
		c1.6-1.6,3.5-2.3,5.7-2.3c2.2,0,4.1,0.8,5.7,2.4c1.6,1.6,2.3,3.5,2.3,5.7v3.8h-5.3v-3.9c0-0.8-0.3-1.5-0.9-2.1
		c-0.6-0.6-1.3-0.9-2.1-0.9c-0.8,0-1.5,0.3-2.1,0.9C5.3,93.9,5,94.6,5,95.4v18.4c0,0.8,0.3,1.5,0.8,2.1c0.6,0.6,1.2,0.8,2.1,0.8
		c0.8,0,1.5-0.3,2.1-0.8c0.6-0.6,0.9-1.2,0.9-2.1v-4.6h5.3v4.7c0,2.2-0.8,4.1-2.4,5.7C12.1,121.1,10.2,121.9,8,121.9z"/>
	<path fill="#FFFFFF" d="M25.5,113.7l-1.2,7.7H19l5.7-33.6h7l5.6,33.6h-5.3l-1.2-7.7H25.5z M28.1,95.5l-1.9,13.2H30L28.1,95.5z"/>
	<path fill="#FFFFFF" d="M47.2,87.8l6.7,22.6V87.8H59v33.6h-5.4l-7-21.5v21.5h-5.1V87.8H47.2z"/>
	<path fill="#FFFFFF" d="M77.5,121.9c-2.2,0-4.1-0.8-5.7-2.3c-1.6-1.6-2.3-3.5-2.3-5.7V95.5c0-2.2,0.8-4.1,2.4-5.7
		c1.6-1.6,3.5-2.3,5.7-2.3c2.2,0,4.1,0.8,5.7,2.4c1.6,1.6,2.3,3.5,2.3,5.7v3.8h-5.3v-3.9c0-0.8-0.3-1.5-0.9-2.1
		c-0.6-0.6-1.3-0.9-2.1-0.9c-0.8,0-1.5,0.3-2.1,0.9c-0.6,0.6-0.8,1.3-0.8,2.1v18.4c0,0.8,0.3,1.5,0.8,2.1c0.6,0.6,1.2,0.8,2.1,0.8
		c0.8,0,1.5-0.3,2.1-0.8c0.6-0.6,0.9-1.2,0.9-2.1v-4.6h5.3v4.7c0,2.2-0.8,4.1-2.4,5.7C81.6,121.1,79.7,121.9,77.5,121.9z"/>
	<path fill="#FFFFFF" d="M97.6,87.4c2.2,0,4.1,0.8,5.7,2.4c1.6,1.6,2.3,3.5,2.3,5.7v18.3c0,2.2-0.8,4.1-2.4,5.7
		c-1.6,1.6-3.5,2.3-5.7,2.3c-2.2,0-4.1-0.8-5.7-2.4c-1.6-1.6-2.3-3.5-2.3-5.7V95.5c0-2.2,0.8-4.1,2.4-5.7
		C93.5,88.2,95.4,87.4,97.6,87.4z M100.4,95.4c0-0.8-0.3-1.5-0.8-2.1c-0.6-0.6-1.2-0.8-2.1-0.8c-0.8,0-1.5,0.3-2.1,0.8
		c-0.6,0.6-0.9,1.2-0.9,2.1v18.4c0,0.8,0.3,1.5,0.9,2.1c0.6,0.6,1.3,0.8,2.1,0.8c0.8,0,1.5-0.3,2.1-0.8c0.6-0.6,0.8-1.2,0.8-2.1
		V95.4z"/>
	<path fill="#FFFFFF" d="M115.8,87.8l6.7,22.6V87.8h5.1v33.6h-5.4l-7-21.5v21.5h-5.1V87.8H115.8z"/>
	<path fill="#FFFFFF" d="M137.1,92.9h-5.4v-5.1h15.8v5.1h-5.4v28.5h-5.1V92.9z"/>
	<path fill="#FFFFFF" d="M159.6,87.9c2.8,0,4.9,0.8,6.2,2.3c1.2,1.4,1.7,3.3,1.7,5.7v4.9c0,2.4-0.9,4.4-2.7,6l3.8,14.7h-5.5
		l-3.1-12.7c-0.1,0-0.3,0-0.5,0h-2.9v12.7h-5.1V87.9H159.6z M162.6,96c0-1.9-1-2.9-2.9-2.9h-3.1v10.8h3.1c0.8,0,1.5-0.3,2.1-0.9
		c0.6-0.6,0.8-1.3,0.8-2.1V96z"/>
	<path fill="#FFFFFF" d="M180.1,87.4c2.2,0,4.1,0.8,5.7,2.4c1.6,1.6,2.3,3.5,2.3,5.7v18.3c0,2.2-0.8,4.1-2.4,5.7
		c-1.6,1.6-3.5,2.3-5.7,2.3c-2.2,0-4.1-0.8-5.7-2.4c-1.6-1.6-2.3-3.5-2.3-5.7V95.5c0-2.2,0.8-4.1,2.4-5.7
		C176,88.2,177.9,87.4,180.1,87.4z M182.8,95.4c0-0.8-0.3-1.5-0.8-2.1c-0.6-0.6-1.2-0.8-2.1-0.8c-0.8,0-1.5,0.3-2.1,0.8
		c-0.6,0.6-0.9,1.2-0.9,2.1v18.4c0,0.8,0.3,1.5,0.9,2.1c0.6,0.6,1.3,0.8,2.1,0.8c0.8,0,1.5-0.3,2.1-0.8c0.6-0.6,0.8-1.2,0.8-2.1
		V95.4z"/>
	<path fill="#FFFFFF" d="M206.4,121.5h-13.8V87.9h5.1v28.6h8.7V121.5z"/>
	<path fill="#FFFFFF" d="M20.5,184L2.8,133h14.5l9.8,31.5l9.7-31.5h14.6l-17.8,51v36.7H20.5V184z"/>
	<path fill="#FFFFFF" d="M78.1,132c5.8,0,10.8,2.1,14.9,6.2c4.1,4.1,6.1,9,6.1,14.8v47.8c0,5.8-2.1,10.8-6.2,14.9
		c-4.1,4.1-9,6.1-14.8,6.1c-5.8,0-10.8-2.1-14.8-6.2c-4.1-4.1-6.1-9-6.1-14.8v-47.8c0-5.8,2.1-10.8,6.2-14.9
		C67.4,134,72.4,132,78.1,132z M85.3,152.7c0-2.1-0.7-3.9-2.2-5.3c-1.5-1.5-3.2-2.2-5.3-2.2c-2.1,0-3.9,0.7-5.4,2.2
		c-1.5,1.5-2.2,3.3-2.2,5.3v48c0,2.1,0.7,3.9,2.2,5.3c1.5,1.5,3.3,2.2,5.4,2.2c2.1,0,3.9-0.7,5.3-2.2c1.5-1.5,2.2-3.3,2.2-5.3V152.7
		z"/>
	<path fill="#FFFFFF" d="M131.5,221.7c-5.8,0-10.8-2-14.8-6.1c-4.1-4.1-6.1-9-6.1-14.8v-67.7h12.9v67.6c0,2.1,0.7,3.9,2.2,5.3
		c1.5,1.5,3.3,2.2,5.4,2.2c2.1,0,3.9-0.7,5.3-2.2c1.5-1.5,2.2-3.3,2.2-5.3v-67.6h13.8v67.7c0,5.9-2.1,10.8-6.2,14.8
		C142.2,219.7,137.3,221.7,131.5,221.7z"/>
	<path fill="#FFFFFF" d="M185,133.1c7.4,0,12.8,2,16.2,6.1c3,3.5,4.5,8.5,4.5,14.8v12.7c0,6.2-2.4,11.4-7.1,15.7l9.8,38.2h-14.3
		l-8-33c-0.4,0-0.8,0-1.2,0h-7.6v33h-13.2v-87.6H185z M192.9,154.2c0-5.1-2.5-7.6-7.5-7.6h-8v28h8c2.1,0,3.9-0.7,5.3-2.2
		c1.5-1.5,2.2-3.3,2.2-5.4V154.2z"/>
	<path fill="#FFFFFF" d="M0.6,277.3v-45.6h19.6v6.9H7.5V251h9.3v6.9H7.5v12.4h12.7v6.9H0.6z"/>
	<path fill="#FFFFFF" d="M31.8,277.3h-6.9v-45.6h9.9l6.4,32.8l6.2-32.8h9.5v45.6H50v-28.7l-6,28.7h-5.5l-6.7-28.6V277.3z"/>
	<path fill="#FFFFFF" d="M73.8,231.1c3,0,5.6,1.1,7.7,3.2c2.1,2.1,3.2,4.7,3.2,7.7v24.9c0,3-1.1,5.6-3.2,7.7
		c-2.1,2.1-4.7,3.2-7.7,3.2c-3,0-5.6-1.1-7.7-3.2c-2.1-2.1-3.2-4.7-3.2-7.7v-24.9c0-3,1.1-5.6,3.2-7.7
		C68.2,232.2,70.8,231.1,73.8,231.1z M77.5,241.9c0-1.1-0.4-2-1.1-2.8c-0.8-0.8-1.7-1.1-2.8-1.1c-1.1,0-2,0.4-2.8,1.1
		c-0.8,0.8-1.2,1.7-1.2,2.8v25c0,1.1,0.4,2,1.2,2.8c0.8,0.8,1.7,1.1,2.8,1.1c1.1,0,2-0.4,2.8-1.1c0.8-0.8,1.1-1.7,1.1-2.8V241.9z"/>
	<path fill="#FFFFFF" d="M96.7,238.6h-7.3v-6.9h21.5v6.9h-7.3v38.7h-6.9V238.6z"/>
	<path fill="#FFFFFF" d="M123.3,277.3h-6.9v-45.6h6.9V277.3z"/>
	<path fill="#FFFFFF" d="M140.2,231.1c3,0,5.6,1.1,7.7,3.2c2.1,2.1,3.2,4.7,3.2,7.7v24.9c0,3-1.1,5.6-3.2,7.7
		c-2.1,2.1-4.7,3.2-7.7,3.2c-3,0-5.6-1.1-7.7-3.2c-2.1-2.1-3.2-4.7-3.2-7.7v-24.9c0-3,1.1-5.6,3.2-7.7
		C134.7,232.2,137.3,231.1,140.2,231.1z M144,241.9c0-1.1-0.4-2-1.1-2.8c-0.8-0.8-1.7-1.1-2.8-1.1c-1.1,0-2,0.4-2.8,1.1
		c-0.8,0.8-1.2,1.7-1.2,2.8v25c0,1.1,0.4,2,1.2,2.8c0.8,0.8,1.7,1.1,2.8,1.1c1.1,0,2-0.4,2.8-1.1c0.8-0.8,1.1-1.7,1.1-2.8V241.9z"/>
	<path fill="#FFFFFF" d="M164.9,231.7l9.1,30.7v-30.7h6.9v45.6h-7.4l-9.5-29.2v29.2h-6.9v-45.6H164.9z"/>
	<path fill="#FFFFFF" d="M209.4,266c0,3.2-0.8,5.9-2.5,8.2c-1.1,1.5-2.7,2.6-4.7,3.2c-1.1,0.3-2.4,0.5-3.8,0.5c-2.7,0-4.9-0.7-6.7-2
		c-1.5-1.1-2.7-2.6-3.5-4.5c-0.9-1.9-1.4-4-1.5-6.5l6.5-0.5c0.3,2.7,1,4.6,2.1,5.8c0.8,0.9,1.8,1.3,2.8,1.3c1.5,0,2.7-0.8,3.6-2.2
		c0.5-0.7,0.7-1.7,0.7-3c0-1.9-0.9-3.8-2.6-5.6c-1.4-1.3-3.4-3.2-6.1-5.8c-2.3-2.2-3.9-4.2-4.8-5.9c-1-2-1.5-4.1-1.5-6.4
		c0-4.2,1.4-7.3,4.2-9.4c1.7-1.3,3.9-1.9,6.4-1.9c2.5,0,4.5,0.5,6.3,1.6c1.4,0.8,2.5,2,3.3,3.6c0.8,1.5,1.3,3.3,1.5,5.3l-6.6,1.2
		c-0.2-1.9-0.7-3.3-1.6-4.4c-0.6-0.8-1.5-1.1-2.7-1.1c-1.3,0-2.2,0.6-2.9,1.7c-0.5,0.9-0.8,2-0.8,3.3c0,2.1,0.9,4.2,2.7,6.4
		c0.7,0.8,1.7,1.8,3.1,2.9c1.6,1.3,2.7,2.3,3.2,2.8c1.7,1.7,3,3.4,3.9,5c0.4,0.8,0.8,1.5,1.1,2.1C209.1,263.2,209.4,264.7,209.4,266
		z"/>
</g>
</svg>
