<?xml version="1.0" encoding="utf-8"?>
<!-- Generator: Adobe Illustrator 19.2.0, SVG Export Plug-In . SVG Version: 6.00 Build 0)  -->
<svg version="1.1" id="Layer_1" xmlns="http://www.w3.org/2000/svg" xmlns:xlink="http://www.w3.org/1999/xlink" x="0px" y="0px"
	 viewBox="0 0 316.1 141.8" style="enable-background:new 0 0 316.1 141.8;" xml:space="preserve">
<style type="text/css">
	.st0{fill:none;}
	.st1{enable-background:new    ;}
	.st2{fill:#FFFFFF;}
</style>
<g>
	<rect y="0.9" class="st0" width="316.1" height="140.9"/>
	<g class="st1">
		<path class="st2" d="M1,14.1l2.5-13l4.1,9.4L12,1.1l2.3,13h-1.9l-1.2-7.3l-3.6,7.8L4.2,6.8l-1.3,7.3H1z"/>
		<path class="st2" d="M18.3,6.5v4.4c0,1.3,0.5,1.9,1.5,1.9c1,0,1.5-0.6,1.5-1.9V6.5H23v4.4c0,0.6-0.1,1.1-0.2,1.6
			c-0.1,0.4-0.4,0.8-0.8,1.1c-0.6,0.5-1.3,0.8-2.3,0.8c-0.9,0-1.7-0.3-2.3-0.8c-0.4-0.3-0.6-0.7-0.8-1.1c-0.1-0.4-0.2-0.9-0.2-1.6
			V6.5H18.3z"/>
		<path class="st2" d="M29.6,7.8l-1.5,0.8c-0.2-0.5-0.5-0.7-0.9-0.7c-0.2,0-0.3,0.1-0.4,0.2c-0.1,0.1-0.2,0.2-0.2,0.4
			c0,0.3,0.3,0.6,1,0.9c0.9,0.4,1.6,0.8,1.9,1.1c0.3,0.3,0.5,0.8,0.5,1.4c0,0.7-0.3,1.3-0.8,1.8c-0.5,0.5-1.2,0.7-1.9,0.7
			c-1.3,0-2.2-0.6-2.7-1.9l1.5-0.7c0.2,0.4,0.4,0.6,0.5,0.7c0.2,0.2,0.5,0.3,0.8,0.3c0.6,0,0.9-0.3,0.9-0.8c0-0.3-0.2-0.6-0.7-0.9
			c-0.2-0.1-0.4-0.2-0.5-0.3c-0.2-0.1-0.4-0.2-0.5-0.3c-0.5-0.2-0.9-0.5-1.1-0.8c-0.3-0.3-0.4-0.7-0.4-1.2c0-0.7,0.2-1.2,0.7-1.6
			c0.5-0.4,1-0.6,1.7-0.6C28.4,6.3,29.2,6.8,29.6,7.8z"/>
		<path class="st2" d="M31.4,3.3c0-0.3,0.1-0.6,0.3-0.8c0.2-0.2,0.5-0.3,0.8-0.3c0.3,0,0.6,0.1,0.8,0.3c0.2,0.2,0.3,0.5,0.3,0.8
			s-0.1,0.6-0.3,0.8c-0.2,0.2-0.5,0.3-0.8,0.3c-0.3,0-0.6-0.1-0.8-0.3C31.5,3.9,31.4,3.6,31.4,3.3z M33.5,6.5v7.6h-1.8V6.5H33.5z"/>
		<path class="st2" d="M41.6,6.8v2.3c-0.4-0.5-0.8-0.8-1.1-1c-0.3-0.2-0.7-0.3-1.1-0.3c-0.7,0-1.2,0.2-1.6,0.7s-0.7,1-0.7,1.7
			c0,0.7,0.2,1.3,0.6,1.8c0.4,0.5,1,0.7,1.6,0.7c0.4,0,0.8-0.1,1.1-0.3c0.3-0.2,0.7-0.5,1.1-1v2.3c-0.7,0.4-1.4,0.6-2.1,0.6
			c-1.2,0-2.2-0.4-3-1.1c-0.8-0.8-1.2-1.7-1.2-2.9s0.4-2.1,1.2-2.9c0.8-0.8,1.8-1.2,3-1.2C40.2,6.3,40.9,6.4,41.6,6.8z"/>
		<path class="st2" d="M50.1,8.1v6h-1.8v-6h-0.8V6.5h0.8V3.7h1.8v2.8h1.4v1.6H50.1z"/>
		<path class="st2" d="M52.6,6.5h1.8v0.7c0.3-0.3,0.6-0.6,0.9-0.7c0.3-0.1,0.6-0.2,0.9-0.2c0.5,0,0.9,0.2,1.5,0.5l-0.8,1.6
			c-0.3-0.2-0.7-0.4-1-0.4c-1,0-1.4,0.7-1.4,2.2v3.9h-1.8V6.5z"/>
		<path class="st2" d="M64.1,6.5h1.8v7.6h-1.8v-0.8c-0.7,0.7-1.5,1-2.3,1c-1.1,0-1.9-0.4-2.6-1.1c-0.7-0.8-1-1.7-1-2.9
			c0-1.1,0.3-2.1,1-2.9c0.7-0.8,1.5-1.1,2.6-1.1c0.9,0,1.7,0.4,2.4,1.1V6.5z M59.9,10.3c0,0.7,0.2,1.3,0.6,1.8
			c0.4,0.5,0.9,0.7,1.5,0.7c0.7,0,1.2-0.2,1.6-0.7c0.4-0.5,0.6-1.1,0.6-1.8S64,9,63.6,8.5c-0.4-0.5-0.9-0.7-1.6-0.7
			c-0.6,0-1.1,0.2-1.5,0.7C60.1,9,59.9,9.6,59.9,10.3z"/>
		<path class="st2" d="M68.1,6.5h1.8v0.7c0.6-0.6,1.3-0.9,2.1-0.9c0.9,0,1.6,0.3,2.1,0.8c0.4,0.5,0.6,1.2,0.6,2.3v4.7h-1.8V9.8
			c0-0.8-0.1-1.3-0.3-1.6C72.4,8,72,7.8,71.5,7.8c-0.6,0-1,0.2-1.2,0.6c-0.2,0.4-0.4,1-0.4,2v3.7h-1.8V6.5z"/>
		<path class="st2" d="M81.3,7.8l-1.5,0.8c-0.2-0.5-0.5-0.7-0.9-0.7c-0.2,0-0.3,0.1-0.4,0.2c-0.1,0.1-0.2,0.2-0.2,0.4
			c0,0.3,0.3,0.6,1,0.9c0.9,0.4,1.6,0.8,1.9,1.1c0.3,0.3,0.5,0.8,0.5,1.4c0,0.7-0.3,1.3-0.8,1.8c-0.5,0.5-1.2,0.7-1.9,0.7
			c-1.3,0-2.2-0.6-2.7-1.9l1.5-0.7c0.2,0.4,0.4,0.6,0.5,0.7c0.2,0.2,0.5,0.3,0.8,0.3c0.6,0,0.9-0.3,0.9-0.8c0-0.3-0.2-0.6-0.7-0.9
			c-0.2-0.1-0.4-0.2-0.5-0.3c-0.2-0.1-0.4-0.2-0.5-0.3c-0.5-0.2-0.9-0.5-1.1-0.8c-0.3-0.3-0.4-0.7-0.4-1.2c0-0.7,0.2-1.2,0.7-1.6
			c0.5-0.4,1-0.6,1.7-0.6C80.1,6.3,80.8,6.8,81.3,7.8z"/>
		<path class="st2" d="M83.4,6.5h1.8v0.7c0.3-0.4,0.6-0.6,0.9-0.7c0.3-0.1,0.6-0.2,1-0.2c0.9,0,1.5,0.4,2,1.1
			c0.6-0.8,1.3-1.1,2.2-1.1c1.7,0,2.6,1,2.6,3.1v4.7H92V9.9c0-0.7-0.1-1.2-0.3-1.5c-0.2-0.3-0.5-0.5-0.9-0.5c-0.5,0-0.8,0.2-1.1,0.5
			c-0.2,0.4-0.3,1-0.3,1.8v3.9h-1.8V9.9c0-1.4-0.4-2-1.2-2c-0.5,0-0.9,0.2-1.1,0.6s-0.3,1-0.3,1.8v3.9h-1.8V6.5z"/>
		<path class="st2" d="M95.8,3.3c0-0.3,0.1-0.6,0.3-0.8c0.2-0.2,0.5-0.3,0.8-0.3c0.3,0,0.6,0.1,0.8,0.3C97.9,2.7,98,3,98,3.3
			s-0.1,0.6-0.3,0.8c-0.2,0.2-0.5,0.3-0.8,0.3c-0.3,0-0.6-0.1-0.8-0.3C95.9,3.9,95.8,3.6,95.8,3.3z M97.8,6.5v7.6H96V6.5H97.8z"/>
		<path class="st2" d="M101.8,8.1v6h-1.8v-6h-0.8V6.5h0.8V3.7h1.8v2.8h1.4v1.6H101.8z"/>
		<path class="st2" d="M108.8,7.8l-1.5,0.8c-0.2-0.5-0.5-0.7-0.9-0.7c-0.2,0-0.3,0.1-0.4,0.2c-0.1,0.1-0.2,0.2-0.2,0.4
			c0,0.3,0.3,0.6,1,0.9c0.9,0.4,1.6,0.8,1.9,1.1c0.3,0.3,0.5,0.8,0.5,1.4c0,0.7-0.3,1.3-0.8,1.8c-0.5,0.5-1.2,0.7-1.9,0.7
			c-1.3,0-2.2-0.6-2.7-1.9l1.5-0.7c0.2,0.4,0.4,0.6,0.5,0.7c0.2,0.2,0.5,0.3,0.8,0.3c0.6,0,0.9-0.3,0.9-0.8c0-0.3-0.2-0.6-0.7-0.9
			c-0.2-0.1-0.4-0.2-0.5-0.3c-0.2-0.1-0.4-0.2-0.5-0.3c-0.5-0.2-0.9-0.5-1.1-0.8c-0.3-0.3-0.4-0.7-0.4-1.2c0-0.7,0.2-1.2,0.7-1.6
			c0.5-0.4,1-0.6,1.7-0.6C107.6,6.3,108.3,6.8,108.8,7.8z"/>
		<path class="st2" d="M115.5,3.3c0-0.3,0.1-0.6,0.3-0.8c0.2-0.2,0.5-0.3,0.8-0.3c0.3,0,0.6,0.1,0.8,0.3c0.2,0.2,0.3,0.5,0.3,0.8
			s-0.1,0.6-0.3,0.8c-0.2,0.2-0.5,0.3-0.8,0.3c-0.3,0-0.6-0.1-0.8-0.3C115.7,3.9,115.5,3.6,115.5,3.3z M117.6,6.5v7.6h-1.8V6.5
			H117.6z"/>
		<path class="st2" d="M125.4,0.9h1.8v13.2h-1.8v-0.8c-0.7,0.7-1.5,1-2.4,1c-1,0-1.9-0.4-2.6-1.1c-0.7-0.8-1-1.7-1-2.9
			c0-1.1,0.3-2.1,1-2.8c0.7-0.8,1.5-1.1,2.6-1.1c0.9,0,1.7,0.4,2.4,1.1V0.9z M121.2,10.3c0,0.7,0.2,1.3,0.6,1.8
			c0.4,0.5,0.9,0.7,1.5,0.7c0.7,0,1.2-0.2,1.6-0.7c0.4-0.5,0.6-1.1,0.6-1.8s-0.2-1.3-0.6-1.8c-0.4-0.5-0.9-0.7-1.6-0.7
			c-0.6,0-1.1,0.2-1.5,0.7C121.4,9,121.2,9.6,121.2,10.3z"/>
		<path class="st2" d="M136.3,10.7h-5.5c0,0.6,0.2,1.1,0.6,1.5c0.4,0.4,0.8,0.5,1.4,0.5c0.4,0,0.8-0.1,1.1-0.3
			c0.3-0.2,0.6-0.6,1-1.2l1.5,0.8c-0.2,0.4-0.5,0.7-0.7,1c-0.3,0.3-0.5,0.5-0.8,0.7c-0.3,0.2-0.6,0.3-0.9,0.4
			c-0.3,0.1-0.7,0.1-1.1,0.1c-1.1,0-2-0.4-2.7-1.1c-0.7-0.7-1-1.7-1-2.9c0-1.2,0.3-2.2,1-2.9c0.7-0.7,1.6-1.1,2.7-1.1
			c1.1,0,2,0.4,2.7,1.1c0.6,0.7,1,1.7,1,2.9L136.3,10.7z M134.5,9.3c-0.2-0.9-0.8-1.4-1.8-1.4c-0.2,0-0.4,0-0.6,0.1
			s-0.4,0.2-0.5,0.3c-0.2,0.1-0.3,0.3-0.4,0.4S131,9,131,9.3H134.5z"/>
		<path class="st2" d="M143.8,6.5h1.8v7.6h-1.8v-0.8c-0.7,0.7-1.5,1-2.3,1c-1.1,0-1.9-0.4-2.6-1.1c-0.7-0.8-1-1.7-1-2.9
			c0-1.1,0.3-2.1,1-2.9c0.7-0.8,1.5-1.1,2.6-1.1c0.9,0,1.7,0.4,2.4,1.1V6.5z M139.7,10.3c0,0.7,0.2,1.3,0.6,1.8
			c0.4,0.5,0.9,0.7,1.5,0.7c0.7,0,1.2-0.2,1.6-0.7c0.4-0.5,0.6-1.1,0.6-1.8s-0.2-1.3-0.6-1.8c-0.4-0.5-0.9-0.7-1.6-0.7
			c-0.6,0-1.1,0.2-1.5,0.7C139.9,9,139.7,9.6,139.7,10.3z"/>
		<path class="st2" d="M152.3,7.8l-1.5,0.8c-0.2-0.5-0.5-0.7-0.9-0.7c-0.2,0-0.3,0.1-0.4,0.2c-0.1,0.1-0.2,0.2-0.2,0.4
			c0,0.3,0.3,0.6,1,0.9c0.9,0.4,1.6,0.8,1.9,1.1c0.3,0.3,0.5,0.8,0.5,1.4c0,0.7-0.3,1.3-0.8,1.8c-0.5,0.5-1.2,0.7-1.9,0.7
			c-1.3,0-2.2-0.6-2.7-1.9l1.5-0.7c0.2,0.4,0.4,0.6,0.5,0.7c0.2,0.2,0.5,0.3,0.8,0.3c0.6,0,0.9-0.3,0.9-0.8c0-0.3-0.2-0.6-0.7-0.9
			c-0.2-0.1-0.4-0.2-0.5-0.3c-0.2-0.1-0.4-0.2-0.5-0.3c-0.5-0.2-0.9-0.5-1.1-0.8c-0.3-0.3-0.4-0.7-0.4-1.2c0-0.7,0.2-1.2,0.7-1.6
			c0.5-0.4,1-0.6,1.7-0.6C151.1,6.3,151.8,6.8,152.3,7.8z"/>
		<path class="st2" d="M164.9,6.5h1.8v7.6h-1.8v-0.8c-0.7,0.7-1.5,1-2.3,1c-1.1,0-1.9-0.4-2.6-1.1c-0.7-0.8-1-1.7-1-2.9
			c0-1.1,0.3-2.1,1-2.9s1.5-1.1,2.6-1.1c0.9,0,1.7,0.4,2.4,1.1V6.5z M160.7,10.3c0,0.7,0.2,1.3,0.6,1.8c0.4,0.5,0.9,0.7,1.5,0.7
			c0.7,0,1.2-0.2,1.6-0.7c0.4-0.5,0.6-1.1,0.6-1.8s-0.2-1.3-0.6-1.8c-0.4-0.5-0.9-0.7-1.6-0.7c-0.6,0-1.1,0.2-1.5,0.7
			C160.9,9,160.7,9.6,160.7,10.3z"/>
		<path class="st2" d="M168.9,6.5h1.8v0.7c0.6-0.6,1.3-0.9,2.1-0.9c0.9,0,1.6,0.3,2.1,0.8c0.4,0.5,0.6,1.2,0.6,2.3v4.7h-1.8V9.8
			c0-0.8-0.1-1.3-0.3-1.6c-0.2-0.3-0.6-0.4-1.1-0.4c-0.6,0-1,0.2-1.2,0.6c-0.2,0.4-0.4,1-0.4,2v3.7h-1.8V6.5z"/>
		<path class="st2" d="M183.2,0.9h1.8v13.2h-1.8v-0.8c-0.7,0.7-1.5,1-2.4,1c-1,0-1.9-0.4-2.6-1.1c-0.7-0.8-1-1.7-1-2.9
			c0-1.1,0.3-2.1,1-2.8c0.7-0.8,1.5-1.1,2.6-1.1c0.9,0,1.7,0.4,2.4,1.1V0.9z M179.1,10.3c0,0.7,0.2,1.3,0.6,1.8
			c0.4,0.5,0.9,0.7,1.5,0.7c0.7,0,1.2-0.2,1.6-0.7c0.4-0.5,0.6-1.1,0.6-1.8s-0.2-1.3-0.6-1.8c-0.4-0.5-0.9-0.7-1.6-0.7
			c-0.6,0-1.1,0.2-1.5,0.7C179.3,9,179.1,9.6,179.1,10.3z"/>
		<path class="st2" d="M199.1,10.7h-5.5c0,0.6,0.2,1.1,0.6,1.5c0.4,0.4,0.8,0.5,1.4,0.5c0.4,0,0.8-0.1,1.1-0.3
			c0.3-0.2,0.6-0.6,1-1.2l1.5,0.8c-0.2,0.4-0.5,0.7-0.7,1s-0.5,0.5-0.8,0.7s-0.6,0.3-0.9,0.4s-0.7,0.1-1.1,0.1c-1.1,0-2-0.4-2.7-1.1
			c-0.7-0.7-1-1.7-1-2.9c0-1.2,0.3-2.2,1-2.9c0.7-0.7,1.6-1.1,2.7-1.1c1.1,0,2,0.4,2.7,1.1c0.6,0.7,1,1.7,1,2.9L199.1,10.7z
			 M197.3,9.3c-0.2-0.9-0.8-1.4-1.8-1.4c-0.2,0-0.4,0-0.6,0.1s-0.4,0.2-0.5,0.3s-0.3,0.3-0.4,0.4s-0.2,0.4-0.2,0.6H197.3z"/>
		<path class="st2" d="M201,6.5h1.8v0.7c0.3-0.4,0.6-0.6,0.9-0.7c0.3-0.1,0.6-0.2,1-0.2c0.9,0,1.5,0.4,2,1.1
			c0.6-0.8,1.3-1.1,2.2-1.1c1.7,0,2.6,1,2.6,3.1v4.7h-1.8V9.9c0-0.7-0.1-1.2-0.3-1.5c-0.2-0.3-0.5-0.5-0.9-0.5
			c-0.5,0-0.8,0.2-1.1,0.5s-0.3,1-0.3,1.8v3.9h-1.8V9.9c0-1.4-0.4-2-1.2-2c-0.5,0-0.9,0.2-1.1,0.6s-0.3,1-0.3,1.8v3.9H201V6.5z"/>
		<path class="st2" d="M213.3,10.2c0-1.1,0.4-2,1.2-2.8s1.7-1.2,2.9-1.2c1.1,0,2.1,0.4,2.9,1.2c0.8,0.8,1.2,1.7,1.2,2.9
			c0,1.1-0.4,2.1-1.2,2.9c-0.8,0.8-1.8,1.1-2.9,1.1c-1.1,0-2.1-0.4-2.9-1.2C213.7,12.4,213.3,11.4,213.3,10.2z M215.1,10.3
			c0,0.8,0.2,1.4,0.6,1.8c0.4,0.4,1,0.7,1.6,0.7c0.7,0,1.2-0.2,1.6-0.7s0.6-1,0.6-1.8S219.4,9,219,8.5c-0.4-0.4-1-0.7-1.6-0.7
			c-0.7,0-1.2,0.2-1.6,0.7S215.1,9.6,215.1,10.3z"/>
		<path class="st2" d="M225.2,8.1v6h-1.8v-6h-0.8V6.5h0.8V3.7h1.8v2.8h1.4v1.6H225.2z"/>
		<path class="st2" d="M227.5,3.3c0-0.3,0.1-0.6,0.3-0.8s0.5-0.3,0.8-0.3c0.3,0,0.6,0.1,0.8,0.3c0.2,0.2,0.3,0.5,0.3,0.8
			s-0.1,0.6-0.3,0.8c-0.2,0.2-0.5,0.3-0.8,0.3s-0.6-0.1-0.8-0.3S227.5,3.6,227.5,3.3z M229.5,6.5v7.6h-1.8V6.5H229.5z"/>
		<path class="st2" d="M231.4,10.2c0-1.1,0.4-2,1.2-2.8s1.7-1.2,2.9-1.2c1.1,0,2.1,0.4,2.9,1.2c0.8,0.8,1.2,1.7,1.2,2.9
			c0,1.1-0.4,2.1-1.2,2.9c-0.8,0.8-1.8,1.1-2.9,1.1c-1.1,0-2.1-0.4-2.9-1.2C231.8,12.4,231.4,11.4,231.4,10.2z M233.2,10.3
			c0,0.8,0.2,1.4,0.6,1.8c0.4,0.4,1,0.7,1.6,0.7c0.7,0,1.2-0.2,1.6-0.7s0.6-1,0.6-1.8s-0.2-1.3-0.6-1.8c-0.4-0.4-1-0.7-1.6-0.7
			c-0.7,0-1.2,0.2-1.6,0.7S233.2,9.6,233.2,10.3z"/>
		<path class="st2" d="M241.4,6.5h1.8v0.7c0.6-0.6,1.3-0.9,2.1-0.9c0.9,0,1.6,0.3,2.1,0.8c0.4,0.5,0.6,1.2,0.6,2.3v4.7h-1.8V9.8
			c0-0.8-0.1-1.3-0.3-1.6c-0.2-0.3-0.6-0.4-1.1-0.4c-0.6,0-1,0.2-1.2,0.6c-0.2,0.4-0.4,1-0.4,2v3.7h-1.8V6.5z"/>
		<path class="st2" d="M254.5,7.8l-1.5,0.8c-0.2-0.5-0.5-0.7-0.9-0.7c-0.2,0-0.3,0.1-0.4,0.2s-0.2,0.2-0.2,0.4c0,0.3,0.3,0.6,1,0.9
			c0.9,0.4,1.6,0.8,1.9,1.1s0.5,0.8,0.5,1.4c0,0.7-0.3,1.3-0.8,1.8c-0.5,0.5-1.2,0.7-1.9,0.7c-1.3,0-2.2-0.6-2.7-1.9l1.5-0.7
			c0.2,0.4,0.4,0.6,0.5,0.7c0.2,0.2,0.5,0.3,0.8,0.3c0.6,0,0.9-0.3,0.9-0.8c0-0.3-0.2-0.6-0.7-0.9c-0.2-0.1-0.4-0.2-0.5-0.3
			s-0.4-0.2-0.5-0.3c-0.5-0.2-0.9-0.5-1.1-0.8c-0.3-0.3-0.4-0.7-0.4-1.2c0-0.7,0.2-1.2,0.7-1.6c0.5-0.4,1-0.6,1.7-0.6
			C253.3,6.3,254.1,6.8,254.5,7.8z"/>
	</g>
	<g class="st1">
		<path class="st2" d="M2.9,27.3v6H1.2v-6H0.5v-1.6h0.6v-2.9c0-1,0.2-1.6,0.5-2c0.5-0.6,1.1-0.8,2-0.8c0.3,0,0.7,0.1,1.2,0.3V22
			l-0.2-0.1c-0.4-0.2-0.7-0.3-0.9-0.3c-0.3,0-0.5,0.1-0.6,0.3c-0.1,0.2-0.2,0.6-0.2,1.3v2.5h1.9v1.6H2.9z"/>
		<path class="st2" d="M5.9,25.7h1.8v0.7c0.3-0.3,0.6-0.6,0.9-0.7c0.3-0.1,0.6-0.2,0.9-0.2c0.5,0,0.9,0.2,1.5,0.5L10,27.5
			c-0.3-0.2-0.7-0.4-1-0.4c-1,0-1.4,0.7-1.4,2.2v3.9H5.9V25.7z"/>
		<path class="st2" d="M11.3,29.4c0-1.1,0.4-2,1.2-2.8c0.8-0.8,1.7-1.2,2.9-1.2c1.1,0,2.1,0.4,2.9,1.2c0.8,0.8,1.2,1.7,1.2,2.9
			c0,1.1-0.4,2.1-1.2,2.9c-0.8,0.8-1.8,1.1-2.9,1.1c-1.1,0-2.1-0.4-2.9-1.2C11.7,31.6,11.3,30.6,11.3,29.4z M13.1,29.5
			c0,0.8,0.2,1.4,0.6,1.8c0.4,0.4,1,0.7,1.6,0.7c0.7,0,1.2-0.2,1.6-0.7c0.4-0.4,0.6-1,0.6-1.8s-0.2-1.3-0.6-1.8
			c-0.4-0.4-1-0.7-1.6-0.7c-0.7,0-1.2,0.2-1.6,0.7C13.3,28.2,13.1,28.8,13.1,29.5z"/>
		<path class="st2" d="M21.3,25.7h1.8v0.7c0.3-0.4,0.6-0.6,0.9-0.7c0.3-0.1,0.6-0.2,1-0.2c0.9,0,1.5,0.4,2,1.1
			c0.6-0.8,1.3-1.1,2.2-1.1c1.7,0,2.6,1,2.6,3.1v4.7H30v-4.2c0-0.7-0.1-1.2-0.3-1.5c-0.2-0.3-0.5-0.5-0.9-0.5
			c-0.5,0-0.8,0.2-1.1,0.5c-0.2,0.4-0.3,1-0.3,1.8v3.9h-1.8v-4.2c0-1.4-0.4-2-1.2-2c-0.5,0-0.9,0.2-1.1,0.6s-0.3,1-0.3,1.8v3.9h-1.8
			V25.7z"/>
		<path class="st2" d="M38.6,22.5c0-0.3,0.1-0.6,0.3-0.8c0.2-0.2,0.5-0.3,0.8-0.3c0.3,0,0.6,0.1,0.8,0.3c0.2,0.2,0.3,0.5,0.3,0.8
			s-0.1,0.6-0.3,0.8c-0.2,0.2-0.5,0.3-0.8,0.3c-0.3,0-0.6-0.1-0.8-0.3C38.8,23.1,38.6,22.8,38.6,22.5z M40.7,25.7v7.6h-1.8v-7.6
			H40.7z"/>
		<path class="st2" d="M42.9,25.7h1.8v0.7c0.6-0.6,1.3-0.9,2.1-0.9c0.9,0,1.6,0.3,2.1,0.8c0.4,0.5,0.6,1.2,0.6,2.3v4.7h-1.8V29
			c0-0.8-0.1-1.3-0.3-1.6c-0.2-0.3-0.6-0.4-1.1-0.4c-0.6,0-1,0.2-1.2,0.6c-0.2,0.4-0.4,1-0.4,2v3.7h-1.8V25.7z"/>
		<path class="st2" d="M57.3,20.1H59v13.2h-1.8v-0.8c-0.7,0.7-1.5,1-2.4,1c-1,0-1.9-0.4-2.6-1.1c-0.7-0.8-1-1.7-1-2.9
			c0-1.1,0.3-2.1,1-2.8c0.7-0.8,1.5-1.1,2.6-1.1c0.9,0,1.7,0.4,2.4,1.1V20.1z M53.1,29.5c0,0.7,0.2,1.3,0.6,1.8
			c0.4,0.5,0.9,0.7,1.5,0.7c0.7,0,1.2-0.2,1.6-0.7c0.4-0.5,0.6-1.1,0.6-1.8s-0.2-1.3-0.6-1.8c-0.4-0.5-0.9-0.7-1.6-0.7
			c-0.6,0-1.1,0.2-1.5,0.7C53.3,28.2,53.1,28.8,53.1,29.5z"/>
		<path class="st2" d="M61,22.5c0-0.3,0.1-0.6,0.3-0.8c0.2-0.2,0.5-0.3,0.8-0.3c0.3,0,0.6,0.1,0.8,0.3c0.2,0.2,0.3,0.5,0.3,0.8
			s-0.1,0.6-0.3,0.8c-0.2,0.2-0.5,0.3-0.8,0.3c-0.3,0-0.6-0.1-0.8-0.3C61.1,23.1,61,22.8,61,22.5z M63,25.7v7.6h-1.8v-7.6H63z"/>
		<path class="st2" d="M66.2,25.7l2,4.3l2-4.3h2l-4,8.1l-3.9-8.1H66.2z"/>
		<path class="st2" d="M73,22.5c0-0.3,0.1-0.6,0.3-0.8c0.2-0.2,0.5-0.3,0.8-0.3c0.3,0,0.6,0.1,0.8,0.3c0.2,0.2,0.3,0.5,0.3,0.8
			s-0.1,0.6-0.3,0.8c-0.2,0.2-0.5,0.3-0.8,0.3c-0.3,0-0.6-0.1-0.8-0.3C73.1,23.1,73,22.8,73,22.5z M75,25.7v7.6h-1.8v-7.6H75z"/>
		<path class="st2" d="M82.9,20.1h1.8v13.2h-1.8v-0.8c-0.7,0.7-1.5,1-2.4,1c-1,0-1.9-0.4-2.6-1.1c-0.7-0.8-1-1.7-1-2.9
			c0-1.1,0.3-2.1,1-2.8c0.7-0.8,1.5-1.1,2.6-1.1c0.9,0,1.7,0.4,2.4,1.1V20.1z M78.7,29.5c0,0.7,0.2,1.3,0.6,1.8
			c0.4,0.5,0.9,0.7,1.5,0.7c0.7,0,1.2-0.2,1.6-0.7c0.4-0.5,0.6-1.1,0.6-1.8s-0.2-1.3-0.6-1.8c-0.4-0.5-0.9-0.7-1.6-0.7
			c-0.6,0-1.1,0.2-1.5,0.7C78.9,28.2,78.7,28.8,78.7,29.5z"/>
		<path class="st2" d="M88.6,25.7V30c0,1.3,0.5,1.9,1.5,1.9c1,0,1.5-0.6,1.5-1.9v-4.4h1.8v4.4c0,0.6-0.1,1.1-0.2,1.6
			c-0.1,0.4-0.4,0.8-0.8,1.1c-0.6,0.5-1.3,0.8-2.3,0.8c-0.9,0-1.7-0.3-2.3-0.8c-0.4-0.3-0.6-0.7-0.8-1.1c-0.1-0.4-0.2-0.9-0.2-1.6
			v-4.4H88.6z"/>
		<path class="st2" d="M101.2,25.7h1.8v7.6h-1.8v-0.8c-0.7,0.7-1.5,1-2.3,1c-1.1,0-1.9-0.4-2.6-1.1c-0.7-0.8-1-1.7-1-2.9
			c0-1.1,0.3-2.1,1-2.9c0.7-0.8,1.5-1.1,2.6-1.1c0.9,0,1.7,0.4,2.4,1.1V25.7z M97,29.5c0,0.7,0.2,1.3,0.6,1.8
			c0.4,0.5,0.9,0.7,1.5,0.7c0.7,0,1.2-0.2,1.6-0.7c0.4-0.5,0.6-1.1,0.6-1.8s-0.2-1.3-0.6-1.8c-0.4-0.5-0.9-0.7-1.6-0.7
			c-0.6,0-1.1,0.2-1.5,0.7C97.2,28.2,97,28.8,97,29.5z"/>
		<path class="st2" d="M106.9,20.1v13.2h-1.8V20.1H106.9z"/>
		<path class="st2" d="M115.9,27.3v6h-1.8v-6h-0.8v-1.6h0.8v-2.8h1.8v2.8h1.4v1.6H115.9z"/>
		<path class="st2" d="M118.2,29.4c0-1.1,0.4-2,1.2-2.8c0.8-0.8,1.7-1.2,2.9-1.2c1.1,0,2.1,0.4,2.9,1.2c0.8,0.8,1.2,1.7,1.2,2.9
			c0,1.1-0.4,2.1-1.2,2.9c-0.8,0.8-1.8,1.1-2.9,1.1c-1.1,0-2.1-0.4-2.9-1.2C118.6,31.6,118.2,30.6,118.2,29.4z M120,29.5
			c0,0.8,0.2,1.4,0.6,1.8c0.4,0.4,1,0.7,1.6,0.7c0.7,0,1.2-0.2,1.6-0.7c0.4-0.4,0.6-1,0.6-1.8s-0.2-1.3-0.6-1.8
			c-0.4-0.4-1-0.7-1.6-0.7c-0.7,0-1.2,0.2-1.6,0.7C120.2,28.2,120,28.8,120,29.5z"/>
		<path class="st2" d="M132.9,22.5c0-0.3,0.1-0.6,0.3-0.8c0.2-0.2,0.5-0.3,0.8-0.3c0.3,0,0.6,0.1,0.8,0.3c0.2,0.2,0.3,0.5,0.3,0.8
			s-0.1,0.6-0.3,0.8c-0.2,0.2-0.5,0.3-0.8,0.3c-0.3,0-0.6-0.1-0.8-0.3C133,23.1,132.9,22.8,132.9,22.5z M134.9,25.7v7.6h-1.8v-7.6
			H134.9z"/>
		<path class="st2" d="M137.1,25.7h1.8v0.7c0.6-0.6,1.3-0.9,2.1-0.9c0.9,0,1.6,0.3,2.1,0.8c0.4,0.5,0.6,1.2,0.6,2.3v4.7h-1.8V29
			c0-0.8-0.1-1.3-0.3-1.6c-0.2-0.3-0.6-0.4-1.1-0.4c-0.6,0-1,0.2-1.2,0.6c-0.2,0.4-0.4,1-0.4,2v3.7h-1.8V25.7z"/>
		<path class="st2" d="M151.5,20.1h1.8v13.2h-1.8v-0.8c-0.7,0.7-1.5,1-2.4,1c-1,0-1.9-0.4-2.6-1.1c-0.7-0.8-1-1.7-1-2.9
			c0-1.1,0.3-2.1,1-2.8c0.7-0.8,1.5-1.1,2.6-1.1c0.9,0,1.7,0.4,2.4,1.1V20.1z M147.3,29.5c0,0.7,0.2,1.3,0.6,1.8
			c0.4,0.5,0.9,0.7,1.5,0.7c0.7,0,1.2-0.2,1.6-0.7c0.4-0.5,0.6-1.1,0.6-1.8s-0.2-1.3-0.6-1.8c-0.4-0.5-0.9-0.7-1.6-0.7
			c-0.6,0-1.1,0.2-1.5,0.7C147.5,28.2,147.3,28.8,147.3,29.5z"/>
		<path class="st2" d="M155.2,22.5c0-0.3,0.1-0.6,0.3-0.8c0.2-0.2,0.5-0.3,0.8-0.3c0.3,0,0.6,0.1,0.8,0.3c0.2,0.2,0.3,0.5,0.3,0.8
			s-0.1,0.6-0.3,0.8c-0.2,0.2-0.5,0.3-0.8,0.3c-0.3,0-0.6-0.1-0.8-0.3C155.3,23.1,155.2,22.8,155.2,22.5z M157.3,25.7v7.6h-1.8v-7.6
			H157.3z"/>
		<path class="st2" d="M160.4,25.7l2,4.3l2-4.3h2l-4,8.1l-3.9-8.1H160.4z"/>
		<path class="st2" d="M167.2,22.5c0-0.3,0.1-0.6,0.3-0.8s0.5-0.3,0.8-0.3c0.3,0,0.6,0.1,0.8,0.3c0.2,0.2,0.3,0.5,0.3,0.8
			s-0.1,0.6-0.3,0.8c-0.2,0.2-0.5,0.3-0.8,0.3s-0.6-0.1-0.8-0.3S167.2,22.8,167.2,22.5z M169.3,25.7v7.6h-1.8v-7.6H169.3z"/>
		<path class="st2" d="M177.1,20.1h1.8v13.2h-1.8v-0.8c-0.7,0.7-1.5,1-2.4,1c-1,0-1.9-0.4-2.6-1.1c-0.7-0.8-1-1.7-1-2.9
			c0-1.1,0.3-2.1,1-2.8c0.7-0.8,1.5-1.1,2.6-1.1c0.9,0,1.7,0.4,2.4,1.1V20.1z M172.9,29.5c0,0.7,0.2,1.3,0.6,1.8
			c0.4,0.5,0.9,0.7,1.5,0.7c0.7,0,1.2-0.2,1.6-0.7c0.4-0.5,0.6-1.1,0.6-1.8s-0.2-1.3-0.6-1.8c-0.4-0.5-0.9-0.7-1.6-0.7
			c-0.6,0-1.1,0.2-1.5,0.7C173.1,28.2,172.9,28.8,172.9,29.5z"/>
		<path class="st2" d="M182.9,25.7V30c0,1.3,0.5,1.9,1.5,1.9s1.5-0.6,1.5-1.9v-4.4h1.8v4.4c0,0.6-0.1,1.1-0.2,1.6
			c-0.1,0.4-0.4,0.8-0.8,1.1c-0.6,0.5-1.3,0.8-2.3,0.8c-0.9,0-1.7-0.3-2.3-0.8c-0.4-0.3-0.6-0.7-0.8-1.1c-0.1-0.4-0.2-0.9-0.2-1.6
			v-4.4H182.9z"/>
		<path class="st2" d="M195.4,25.7h1.8v7.6h-1.8v-0.8c-0.7,0.7-1.5,1-2.3,1c-1.1,0-1.9-0.4-2.6-1.1c-0.7-0.8-1-1.7-1-2.9
			c0-1.1,0.3-2.1,1-2.9s1.5-1.1,2.6-1.1c0.9,0,1.7,0.4,2.4,1.1V25.7z M191.2,29.5c0,0.7,0.2,1.3,0.6,1.8c0.4,0.5,0.9,0.7,1.5,0.7
			c0.7,0,1.2-0.2,1.6-0.7c0.4-0.5,0.6-1.1,0.6-1.8s-0.2-1.3-0.6-1.8c-0.4-0.5-0.9-0.7-1.6-0.7c-0.6,0-1.1,0.2-1.5,0.7
			C191.5,28.2,191.2,28.8,191.2,29.5z"/>
		<path class="st2" d="M201.2,20.1v13.2h-1.8V20.1H201.2z"/>
		<path class="st2" d="M203.7,32.4c0-0.3,0.1-0.5,0.3-0.8s0.5-0.3,0.8-0.3s0.6,0.1,0.8,0.3s0.3,0.5,0.3,0.8c0,0.3-0.1,0.6-0.3,0.8
			c-0.2,0.2-0.5,0.3-0.8,0.3c-0.3,0-0.6-0.1-0.8-0.3S203.7,32.7,203.7,32.4z"/>
	</g>
</g>
</svg>
