<?xml version="1.0" encoding="utf-8"?>
<!-- Generator: Adobe Illustrator 18.1.1, SVG Export Plug-In . SVG Version: 6.00 Build 0)  -->
<svg version="1.1" id="Layer_1" xmlns="http://www.w3.org/2000/svg" xmlns:xlink="http://www.w3.org/1999/xlink" x="0px" y="0px"
	 width="406px" height="406px" viewBox="309 181 406 406" enable-background="new 309 181 406 406" xml:space="preserve">
<g>
</g>
<g>
	<path fill="#884A9C" d="M516.2,187.5c-1.4,0-2.9-0.1-4.3-0.1s-2.9,0-4.3,0.1c-51,1.1-97.3,21.6-131.6,54.5c-2.1,2-4.1,4-6.1,6.1
		l26.6,26.6c2-2.1,4-4.1,6.1-6.1c27.5-26.1,64.3-42.4,105-43.5c1.4,0,2.9-0.1,4.3-0.1c1.4,0,2.9,0,4.3,0.1
		c85.8,2.3,154.6,72.5,154.6,158.8c0,42.3-16.6,80.8-43.6,109.3c-2,2.1-4,4.1-6.1,6.1c-27.5,26.1-64.3,42.4-105,43.5v37.7
		c51-1.1,97.3-21.6,131.6-54.5c2.1-2,4.1-4,6.1-6.1c33.8-35.3,54.6-83.2,54.6-135.9C708.5,276.9,622.8,189.8,516.2,187.5z"/>
	<g>
		<circle fill="none" cx="511.8" cy="383.9" r="169.9"/>
		<path fill="#FFFFFF" d="M392.2,243.3c1.7-1.4,3-1.1,4.3,0.4l0.5,0.6c1,1.2,1.3,2.3,0.4,3.5c1.4-0.8,2.6-0.3,3.7,1l0.8,1
			c1.4,1.6,1.5,3.2-0.2,4.7l-2.4,2l-9.5-11.2L392.2,243.3z M396,248.5c1.3-1.1,1.6-2,0.4-3.4l-0.6-0.7c-1-1.2-1.9-1.5-3.1-0.4
			l-1.6,1.4l3.6,4.3L396,248.5z M401.2,253.7c1.2-1,1.1-2.1,0.1-3.4l-0.9-1c-1.2-1.5-2.3-1.4-3.7-0.3l-1.4,1.2l4.2,4.9L401.2,253.7z
			"/>
		<path fill="#FFFFFF" d="M400.1,236.9l8.9,11.7l-0.8,0.6l-8.9-11.7L400.1,236.9z"/>
		<path fill="#FFFFFF" d="M406.9,236.3c-1.2-1.8-1.3-3.6,0.5-4.9c1.9-1.3,3.6-0.5,4.8,1.2l4.2,6.2c1.2,1.8,1.3,3.6-0.6,4.9
			c-1.8,1.3-3.5,0.5-4.8-1.2L406.9,236.3z M412,242c0.9,1.3,2.1,1.9,3.4,1c1.4-0.9,1.2-2.3,0.3-3.6l-4.3-6.3c-0.9-1.3-2.1-1.9-3.5-1
			c-1.3,0.9-1.2,2.2-0.3,3.6L412,242z"/>
		<path fill="#FFFFFF" d="M422.8,239l-7.5-12.6l0.8-0.5l7.1,11.9l4-2.4l0.5,0.8L422.8,239z"/>
		<path fill="#FFFFFF" d="M426.9,223.9c-1-1.9-0.8-3.8,1.2-4.8c2-1,3.6-0.1,4.6,1.8l3.4,6.7c1,1.9,0.8,3.8-1.2,4.8
			c-2,1-3.6,0.1-4.5-1.9L426.9,223.9z M431.2,230.2c0.7,1.4,1.8,2.2,3.3,1.5c1.5-0.7,1.5-2.1,0.8-3.5l-3.5-6.8
			c-0.7-1.4-1.8-2.2-3.3-1.4c-1.4,0.7-1.5,2.1-0.7,3.5L431.2,230.2z"/>
		<path fill="#FFFFFF" d="M443.8,216l0.4,1l-0.8,0.4l-0.5-1.1c-0.6-1.4-1.6-2.3-3.1-1.7c-1.5,0.6-1.6,2-1,3.4l3,7
			c0.6,1.4,1.6,2.3,3.1,1.7c1.5-0.6,1.6-2,1-3.4l-1.2-2.9l-1.8,0.8l-0.3-0.8l2.6-1.1l1.6,3.7c0.8,2,0.6,3.8-1.5,4.7
			c-2.1,0.9-3.5-0.2-4.4-2.2l-2.9-6.9c-0.8-2-0.6-3.8,1.5-4.7C441.5,213,443,214.1,443.8,216z"/>
		<path fill="#FFFFFF" d="M453.7,218.2l-6.1-7.5l1-0.3l5.2,6.4l0.1-8.2l0.9-0.3l-0.2,9.6l1.9,5.3l-0.9,0.3L453.7,218.2z"/>
	</g>
</g>
</svg>
