<!-- Generator: Adobe Illustrator 18.1.1, SVG Export Plug-In  -->
<svg version="1.1"
	 xmlns="http://www.w3.org/2000/svg" xmlns:xlink="http://www.w3.org/1999/xlink" xmlns:a="http://ns.adobe.com/AdobeSVGViewerExtensions/3.0/"
	 x="0px" y="0px" width="747.9px" height="350.8px" viewBox="0 0 747.9 350.8" enable-background="new 0 0 747.9 350.8"
	 xml:space="preserve">
<defs>
</defs>
<g id="Radio_1_">
	<rect x="365.5" y="97.8" fill="#4894BF" width="374.1" height="253.1"/>
	<rect x="365" y="88.3" fill="#226C97" width="382.9" height="33.9"/>
	<rect x="638.2" y="0" fill="#226C97" width="31.2" height="94.7"/>
	<rect x="366.1" y="0" fill="#226C97" width="303.3" height="11.3"/>
	<path fill="#474244" d="M715.7,290c0,17.7-14.4,32.1-32.1,32.1h-108c-17.7,0-32.1-14.4-32.1-32.1V182c0-17.7,14.4-32.1,32.1-32.1
		h108c17.7,0,32.1,14.4,32.1,32.1V290z"/>
	<g>
		<circle fill="#5D707F" cx="568.5" cy="176.2" r="5.7"/>
		<circle fill="#5D707F" cx="568.5" cy="200.5" r="5.7"/>
		<circle fill="#5D707F" cx="568.5" cy="224.7" r="5.7"/>
		<circle fill="#5D707F" cx="568.5" cy="249.8" r="5.7"/>
		<circle fill="#5D707F" cx="568.5" cy="273.2" r="5.7"/>
		<circle fill="#5D707F" cx="568.5" cy="297.4" r="5.7"/>
		<circle fill="#5D707F" cx="593.5" cy="176.2" r="5.7"/>
		<circle fill="#5D707F" cx="593.5" cy="200.5" r="5.7"/>
		<circle fill="#5D707F" cx="593.5" cy="224.7" r="5.7"/>
		<circle fill="#5D707F" cx="593.5" cy="249.8" r="5.7"/>
		<circle fill="#5D707F" cx="593.5" cy="273.2" r="5.7"/>
		<circle fill="#5D707F" cx="593.5" cy="297.4" r="5.7"/>
		<circle fill="#5D707F" cx="618.5" cy="176.2" r="5.7"/>
		<circle fill="#5D707F" cx="618.5" cy="200.5" r="5.7"/>
		<circle fill="#5D707F" cx="618.5" cy="224.7" r="5.7"/>
		<circle fill="#5D707F" cx="618.5" cy="249.8" r="5.7"/>
		<circle fill="#5D707F" cx="618.5" cy="273.2" r="5.7"/>
		<circle fill="#5D707F" cx="618.5" cy="297.4" r="5.7"/>
		<circle fill="#5D707F" cx="643.6" cy="176.2" r="5.7"/>
		<circle fill="#5D707F" cx="643.6" cy="200.5" r="5.7"/>
		<circle fill="#5D707F" cx="643.6" cy="224.7" r="5.7"/>
		<circle fill="#5D707F" cx="643.6" cy="249.8" r="5.7"/>
		<circle fill="#5D707F" cx="643.6" cy="273.2" r="5.7"/>
		<circle fill="#5D707F" cx="643.6" cy="297.4" r="5.7"/>
		<circle fill="#5D707F" cx="668.6" cy="176.2" r="5.7"/>
		<circle fill="#5D707F" cx="668.6" cy="200.5" r="5.7"/>
		<circle fill="#5D707F" cx="668.6" cy="224.7" r="5.7"/>
		<circle fill="#5D707F" cx="668.6" cy="249.8" r="5.7"/>
		<circle fill="#5D707F" cx="668.6" cy="273.2" r="5.7"/>
		<circle fill="#5D707F" cx="668.6" cy="297.4" r="5.7"/>
		<circle fill="#5D707F" cx="693.7" cy="176.2" r="5.7"/>
		<circle fill="#5D707F" cx="693.7" cy="200.5" r="5.7"/>
		<circle fill="#5D707F" cx="693.7" cy="224.7" r="5.7"/>
		<circle fill="#5D707F" cx="693.7" cy="249.8" r="5.7"/>
		<circle fill="#5D707F" cx="693.7" cy="273.2" r="5.7"/>
		<circle fill="#5D707F" cx="693.7" cy="297.4" r="5.7"/>
	</g>
	<g>
		<defs>
			<rect id="SVGID_1_" x="365" y="150.7" width="161.7" height="78.6"/>
		</defs>
		<clipPath id="SVGID_2_">
			<use xlink:href="#SVGID_1_"  overflow="visible"/>
		</clipPath>
		<g clip-path="url(#SVGID_2_)">
			<rect x="350.1" y="169.4" fill="#828181" width="162.8" height="37.9"/>
			<g>
				<path fill="#474244" d="M509.3,173v30.7H353.7V173H509.3 M516.5,165.8H346.5V211h170.1V165.8L516.5,165.8z"/>
			</g>
		</g>
	</g>
	<circle fill="#474244" cx="479.7" cy="252.7" r="26.6"/>
	<circle fill="#474244" cx="428" cy="252.7" r="10.5"/>
	<circle fill="#474244" cx="394.9" cy="252.7" r="10.5"/>
	<rect x="8.4" y="97.8" fill="#4894BF" width="374.1" height="253.1"/>
	<rect x="0" y="88.3" fill="#226C97" width="382.9" height="33.9"/>
	<rect x="78.6" y="0" fill="#226C97" width="31.2" height="94.7"/>
	<rect x="78.6" y="0" fill="#226C97" width="303.3" height="11.3"/>
	<path fill="#474244" d="M32.3,290c0,17.7,14.4,32.1,32.1,32.1h108c17.7,0,32.1-14.4,32.1-32.1V182c0-17.7-14.4-32.1-32.1-32.1h-108
		c-17.7,0-32.1,14.4-32.1,32.1V290z"/>
	<g>
		<circle fill="#5D707F" cx="179.5" cy="176.2" r="5.7"/>
		<circle fill="#5D707F" cx="179.5" cy="200.5" r="5.7"/>
		<circle fill="#5D707F" cx="179.5" cy="224.7" r="5.7"/>
		<circle fill="#5D707F" cx="179.5" cy="249.8" r="5.7"/>
		<circle fill="#5D707F" cx="179.5" cy="273.2" r="5.7"/>
		<circle fill="#5D707F" cx="179.5" cy="297.4" r="5.7"/>
		<circle fill="#5D707F" cx="154.4" cy="176.2" r="5.7"/>
		<circle fill="#5D707F" cx="154.4" cy="200.5" r="5.7"/>
		<circle fill="#5D707F" cx="154.4" cy="224.7" r="5.7"/>
		<circle fill="#5D707F" cx="154.4" cy="249.8" r="5.7"/>
		<circle fill="#5D707F" cx="154.4" cy="273.2" r="5.7"/>
		<circle fill="#5D707F" cx="154.4" cy="297.4" r="5.7"/>
		<circle fill="#5D707F" cx="129.4" cy="176.2" r="5.7"/>
		<circle fill="#5D707F" cx="129.4" cy="200.5" r="5.7"/>
		<circle fill="#5D707F" cx="129.4" cy="224.7" r="5.7"/>
		<circle fill="#5D707F" cx="129.4" cy="249.8" r="5.7"/>
		<circle fill="#5D707F" cx="129.4" cy="273.2" r="5.7"/>
		<circle fill="#5D707F" cx="129.4" cy="297.4" r="5.7"/>
		<circle fill="#5D707F" cx="104.4" cy="176.2" r="5.7"/>
		<circle fill="#5D707F" cx="104.4" cy="200.5" r="5.7"/>
		<circle fill="#5D707F" cx="104.4" cy="224.7" r="5.7"/>
		<circle fill="#5D707F" cx="104.4" cy="249.8" r="5.7"/>
		<circle fill="#5D707F" cx="104.4" cy="273.2" r="5.7"/>
		<circle fill="#5D707F" cx="104.4" cy="297.4" r="5.7"/>
		<circle fill="#5D707F" cx="79.3" cy="176.2" r="5.7"/>
		<circle fill="#5D707F" cx="79.3" cy="200.5" r="5.7"/>
		<circle fill="#5D707F" cx="79.3" cy="224.7" r="5.7"/>
		<circle fill="#5D707F" cx="79.3" cy="249.8" r="5.7"/>
		<circle fill="#5D707F" cx="79.3" cy="273.2" r="5.7"/>
		<circle fill="#5D707F" cx="79.3" cy="297.4" r="5.7"/>
		<circle fill="#5D707F" cx="54.3" cy="176.2" r="5.7"/>
		<circle fill="#5D707F" cx="54.3" cy="200.5" r="5.7"/>
		<circle fill="#5D707F" cx="54.3" cy="224.7" r="5.7"/>
		<circle fill="#5D707F" cx="54.3" cy="249.8" r="5.7"/>
		<circle fill="#5D707F" cx="54.3" cy="273.2" r="5.7"/>
		<circle fill="#5D707F" cx="54.3" cy="297.4" r="5.7"/>
	</g>
	<g>
		<defs>
			<rect id="SVGID_3_" x="221.2" y="150.7" width="161.7" height="78.6"/>
		</defs>
		<clipPath id="SVGID_4_">
			<use xlink:href="#SVGID_3_"  overflow="visible"/>
		</clipPath>
		<g clip-path="url(#SVGID_4_)">
			<rect x="235" y="169.4" fill="#828181" width="162.8" height="37.9"/>
			<g>
				<path fill="#474244" d="M394.2,173v30.7H238.7V173H394.2 M401.5,165.8H231.4V211h170.1V165.8L401.5,165.8z"/>
			</g>
		</g>
	</g>
	<circle fill="#474244" cx="268.3" cy="252.7" r="26.6"/>
	<circle fill="#474244" cx="319.9" cy="252.7" r="10.5"/>
	<circle fill="#474244" cx="353.1" cy="252.7" r="10.5"/>
</g>
</svg>
