<!-- Generator: Adobe Illustrator 18.1.1, SVG Export Plug-In  -->
<svg version="1.1"
	 xmlns="http://www.w3.org/2000/svg" xmlns:xlink="http://www.w3.org/1999/xlink" xmlns:a="http://ns.adobe.com/AdobeSVGViewerExtensions/3.0/"
	 x="0px" y="0px" width="383.6px" height="244.3px" viewBox="0 0 383.6 244.3" enable-background="new 0 0 383.6 244.3"
	 xml:space="preserve">
<defs>
</defs>
<g id="Brain_1_">
	<g>
		<path fill="#242C33" d="M383.6,191.8C383.6,85.9,297.7,0,191.8,0C85.9,0,0,85.9,0,191.8h0.1v52.5h383.4v-52.5H383.6z"/>
	</g>
	<path fill="#783765" d="M140.8,185.9c0,22.4-18.2,40.6-40.6,40.6c-22.4,0-40.6-18.2-40.6-40.6"/>
	<path fill="#783765" d="M163.2,185.9c0,17.9-14.5,32.4-32.4,32.4c-17.9,0-32.4-14.5-32.4-32.4"/>
	<path fill="#CD69A9" d="M341.8,152.2c1.8-2.5,2.9-5.7,2.9-9c0-6.5-4-12.1-9.8-14.5c1-2,1.5-4.3,1.5-6.7c0-7-4.6-12.9-10.9-14.9
		c0.2-1,0.3-2,0.3-3.1c0-7.8-5.7-14.2-13.2-15.4c0.1-0.8,0.2-1.7,0.2-2.5c0-8.6-7-15.6-15.6-15.6c-0.5,0-1,0-1.5,0.1
		c-0.3-8.4-7.1-15.1-15.6-15.1c-0.8,0-1.5,0.1-2.3,0.2c-1.2-7.4-7.6-13.1-15.4-13.1c-2.2,0-4.4,0.5-6.3,1.3
		c-2.2-5.9-7.9-10.1-14.6-10.1c-3,0-5.8,0.8-8.2,2.3c-2.6-5-7.8-8.5-13.9-8.5c-3.8,0-7.3,1.4-10,3.6c-2.8-4.1-7.5-6.9-12.9-6.9
		c-5,0-9.4,2.3-12.3,6c-2.8-2.8-6.7-4.5-11-4.5c-5.6,0-10.6,3-13.3,7.5c-2.6-1.9-5.8-3.1-9.3-3.1c-6.7,0-12.4,4.2-14.6,10.1
		c-2.1-1-4.4-1.6-6.9-1.6c-7.6,0-13.8,5.4-15.3,12.5c-1.5-0.5-3.1-0.7-4.7-0.7c-8,0-14.5,6-15.5,13.7c-0.7-0.1-1.4-0.2-2.2-0.2
		c-8.6,0-15.6,7-15.6,15.6c0,0.5,0,1,0.1,1.5c-8,0.7-14.2,7.4-14.2,15.5c0,0.9,0.1,1.8,0.2,2.6c-7.2,1.4-12.6,7.7-12.6,15.3
		c0,1.8,0.3,3.5,0.9,5.1c-6.3,2-10.9,7.9-10.9,14.9c0,3.2,0.9,6.1,2.5,8.5c-4.7,2.7-7.8,7.7-7.8,13.5c0,3.7,1.3,7,3.4,9.7
		c-1,1.7-1.6,3.7-1.6,5.8c0,6.3,5.1,11.4,11.4,11.4c6.3,0,11.4-5.1,11.4-11.4c0-0.9-0.1-1.7-0.3-2.5c4.2-2.8,7-7.6,7-13
		c0-3.2-0.9-6.1-2.5-8.5c4.7-2.7,7.8-7.7,7.8-13.5c0-1.8-0.3-3.5-0.9-5.1c6.3-2,10.9-7.9,10.9-14.9c0-0.9-0.1-1.8-0.2-2.6
		c7.2-1.4,12.6-7.7,12.6-15.3c0-0.5,0-1-0.1-1.5c7.3-0.6,13.2-6.4,14.1-13.6c0.7,0.1,1.4,0.2,2.2,0.2c7.6,0,13.8-5.4,15.3-12.5
		c1.5,0.5,3.1,0.7,4.7,0.7c6.7,0,12.4-4.2,14.6-10.1c2.1,1,4.4,1.6,6.9,1.6c5.6,0,10.6-3,13.3-7.5c2.6,1.9,5.8,3.1,9.3,3.1
		c5,0,9.4-2.3,12.3-6c2.8,2.8,6.7,4.5,11,4.5c3.8,0,7.3-1.4,10-3.6c2.8,4.1,7.5,6.9,12.9,6.9c3,0,5.8-0.8,8.2-2.3
		c2.6,5,7.8,8.5,13.9,8.5c2.2,0,4.4-0.5,6.3-1.3c2.2,5.9,7.9,10.1,14.6,10.1c0.8,0,1.5-0.1,2.3-0.2c1.2,7.4,7.6,13.1,15.4,13.1
		c0.5,0,1,0,1.5-0.1c0.2,7.5,5.9,13.7,13.1,14.9c-0.1,0.8-0.2,1.7-0.2,2.5c0,7,4.6,12.9,10.9,14.9c-0.2,1-0.3,2-0.3,3.1
		c0,6.5,4,12.1,9.8,14.5c-1,2-1.5,4.3-1.5,6.7c0,1.9,0.3,3.8,1,5.5c-2.5-1.8-5.6-2.8-8.9-2.8c-4.8,0-9,2.1-11.9,5.5
		c-2.8-3-6.9-4.9-11.4-4.9c-4.7,0-8.9,2.1-11.8,5.4c-2.9-3.3-7.1-5.4-11.8-5.4c-4.6,0-8.8,2-11.6,5.2c-2.9-3.2-7-5.2-11.6-5.2
		c-4.4,0-8.4,1.8-11.2,4.7c-2.8-2.9-6.8-4.7-11.2-4.7c-4.5,0-8.6,1.9-11.5,5c-2.8-3.1-6.9-5-11.5-5c-4.5,0-8.6,1.9-11.5,5
		c-2.8-3.1-6.9-5-11.5-5c-4.5,0-8.6,1.9-11.5,5c-2.9-3.1-6.9-5-11.5-5c-4.5,0-8.6,1.9-11.5,5c-2.8-3.1-6.9-5-11.5-5
		c-4.7,0-8.9,2.1-11.8,5.4c-1-1.2-2.3-2.3-3.7-3.1c3.6-2.9,6-7.3,6-12.3c0-1.2-0.1-2.4-0.4-3.5c7.3-1.3,12.8-7.7,12.8-15.3
		c0-0.4,0-0.8-0.1-1.2c0,0,0,0,0.1,0c7.1,0,13-4.7,14.9-11.1c0.9,0.2,1.8,0.2,2.7,0.2c6.6,0,12.2-4.1,14.5-9.9c2.1,1,4.5,1.6,7,1.6
		c5.3,0,10-2.6,12.8-6.7c2.5,1.8,5.6,2.9,9,2.9c4.4,0,8.3-1.8,11.1-4.7c2.8,3.7,7.3,6.1,12.4,6.1c3.1,0,5.9-0.9,8.3-2.4
		c2.7,4.6,7.7,7.7,13.4,7.7c2,0,3.8-0.4,5.6-1c2.1,6.1,7.9,10.4,14.7,10.4c0.2,0,0.4,0,0.6,0c0,0.1,0,0.1,0,0.2
		c-3,0.7-5.7,2.4-7.7,4.6c-2.9-3.1-6.9-5-11.5-5c-4.4,0-8.4,1.8-11.2,4.7c-2.8-2.9-6.8-4.7-11.2-4.7c-4.4,0-8.4,1.8-11.2,4.7
		c-2.8-2.9-6.8-4.7-11.2-4.7c-4.4,0-8.4,1.8-11.2,4.7c-2.8-2.9-6.8-4.7-11.2-4.7c-5.7,0-10.7,3.1-13.4,7.7c-1.3-0.6-2.7-0.9-4.3-0.9
		c-5.8,0-10.5,4.7-10.5,10.5c0,5.8,4.7,10.5,10.5,10.5c2.2,0,4.3-0.7,6-1.9c2.9,3.2,7,5.3,11.7,5.3c4.4,0,8.4-1.8,11.2-4.7
		c2.8,2.9,6.8,4.7,11.2,4.7c4.4,0,8.4-1.8,11.2-4.7c2.8,2.9,6.8,4.7,11.2,4.7c4.4,0,8.4-1.8,11.2-4.7c2.8,2.9,6.8,4.7,11.2,4.7
		c4.5,0,8.6-1.9,11.5-5c2.8,3.1,6.9,5,11.5,5c4.4,0,8.3-1.8,11.2-4.7c2.8,2.9,6.8,4.7,11.2,4.7c8.6,0,15.6-7,15.6-15.6
		c0-6.9-4.5-12.7-10.7-14.8c0.1-0.5,0.1-1.1,0.1-1.7c0-8.6-7-15.6-15.6-15.6c-0.2,0-0.4,0-0.6,0c-0.6-8.1-7.3-14.4-15.5-14.4
		c-2,0-3.8,0.4-5.6,1C243,73.4,237.2,69,230.4,69c-3.1,0-5.9,0.9-8.3,2.4c-2.7-4.6-7.7-7.7-13.4-7.7c-4.4,0-8.3,1.8-11.1,4.7
		c-2.8-3.7-7.3-6.1-12.4-6.1c-5.3,0-10,2.6-12.8,6.7c-2.5-1.8-5.6-2.9-9-2.9c-6.6,0-12.2,4.1-14.5,9.9c-2.1-1-4.5-1.6-7-1.6
		c-7.1,0-13,4.7-14.9,11.1c-0.9-0.2-1.8-0.2-2.7-0.2c-8.6,0-15.6,7-15.6,15.6c0,0.4,0,0.8,0,1.2c0,0,0,0,0,0
		c-8.6,0-15.6,7-15.6,15.6c0,1.2,0.1,2.4,0.4,3.5c-7.3,1.3-12.8,7.7-12.8,15.3c0,2.3,0.5,4.5,1.4,6.4c-6.1,2.1-10.5,7.9-10.5,14.7
		c0,8.5,6.8,15.4,15.3,15.6c2.8,2.7,6.6,4.4,10.9,4.4c4.7,0,8.9-2.1,11.8-5.4c2.9,3.3,7.1,5.4,11.8,5.4c4.5,0,8.6-1.9,11.5-5
		c2.8,3.1,6.9,5,11.5,5c4.5,0,8.6-1.9,11.5-5c2.8,3.1,6.9,5,11.5,5c4.5,0,8.6-1.9,11.5-5c2.8,3.1,6.9,5,11.5,5c4.5,0,8.6-1.9,11.5-5
		c2.9,3.1,6.9,5,11.5,5c4.4,0,8.4-1.8,11.2-4.7c2.8,2.9,6.8,4.7,11.2,4.7c4.6,0,8.8-2,11.6-5.2c2.9,3.2,7,5.2,11.6,5.2
		c4.7,0,8.9-2.1,11.8-5.4c2.9,3.3,7.1,5.4,11.8,5.4c4.8,0,9-2.1,11.9-5.5c2.8,3,6.9,4.9,11.4,4.9c4.7,0,9-2.1,11.8-5.4
		c2.9,3.7,7.3,6,12.3,6c8.6,0,15.6-7,15.6-15.6C345.3,158.3,344,154.9,341.8,152.2z"/>
</g>
</svg>
