<!-- Generator: Adobe Illustrator 18.1.1, SVG Export Plug-In  -->
<svg version="1.1"
	 xmlns="http://www.w3.org/2000/svg" xmlns:xlink="http://www.w3.org/1999/xlink" xmlns:a="http://ns.adobe.com/AdobeSVGViewerExtensions/3.0/"
	 x="0px" y="0px" width="722.4px" height="460.2px" viewBox="0 0 722.4 460.2" enable-background="new 0 0 722.4 460.2"
	 xml:space="preserve">
<defs>
</defs>
<g id="Brain_1_">
	<g>
		<path fill="#242C33" d="M722.4,361.2C722.4,161.7,560.7,0,361.2,0C161.7,0,0,161.7,0,361.2h0.3v99h722v-99H722.4z"/>
	</g>
	<path fill="#783765" d="M265.2,350.1c0,42.2-34.2,76.5-76.5,76.5c-42.2,0-76.5-34.2-76.5-76.5"/>
	<path fill="#783765" d="M307.3,350.1c0,33.7-27.3,60.9-60.9,60.9c-33.7,0-60.9-27.3-60.9-60.9"/>
	<path fill="#CD69A9" d="M643.7,286.6c3.4-4.8,5.4-10.7,5.4-17c0-12.3-7.6-22.9-18.4-27.2c1.8-3.8,2.9-8.1,2.9-12.7
		c0-13.1-8.6-24.3-20.5-28c0.4-1.9,0.6-3.8,0.6-5.8c0-14.7-10.7-26.8-24.8-29c0.3-1.6,0.4-3.2,0.4-4.8c0-16.2-13.1-29.4-29.4-29.4
		c-0.9,0-1.9,0-2.8,0.1c-0.5-15.8-13.4-28.4-29.3-28.4c-1.4,0-2.9,0.1-4.3,0.3c-2.2-14-14.4-24.7-29-24.7c-4.2,0-8.2,0.9-11.8,2.5
		c-4.2-11.2-14.9-19.1-27.5-19.1c-5.6,0-10.9,1.6-15.4,4.4c-4.9-9.5-14.7-16-26.1-16c-7.2,0-13.8,2.6-18.9,6.9
		c-5.3-7.8-14.2-13-24.4-13c-9.4,0-17.7,4.4-23.1,11.3c-5.3-5.3-12.6-8.5-20.7-8.5c-10.6,0-20,5.7-25.1,14.1
		c-4.9-3.7-11-5.8-17.6-5.8c-12.6,0-23.3,7.9-27.5,19.1c-3.9-1.9-8.3-3-12.9-3c-14.2,0-26.1,10.1-28.8,23.5
		c-2.8-0.9-5.8-1.4-8.9-1.4c-15,0-27.4,11.3-29.1,25.8c-1.3-0.2-2.7-0.3-4.1-0.3c-16.2,0-29.4,13.1-29.4,29.4c0,1,0,1.9,0.1,2.9
		c-15,1.3-26.7,13.9-26.7,29.2c0,1.7,0.2,3.4,0.4,5c-13.5,2.6-23.7,14.5-23.7,28.8c0,3.4,0.6,6.7,1.6,9.7
		c-11.9,3.8-20.5,14.9-20.5,28c0,5.9,1.8,11.5,4.8,16.1c-8.8,5.1-14.8,14.6-14.8,25.5c0,6.9,2.4,13.2,6.4,18.2
		c-1.9,3.2-3,6.9-3,10.9c0,11.8,9.6,21.4,21.4,21.4c11.8,0,21.4-9.6,21.4-21.4c0-1.6-0.2-3.2-0.5-4.7c7.9-5.3,13.1-14.2,13.1-24.4
		c0-5.9-1.8-11.5-4.8-16.1c8.8-5.1,14.8-14.6,14.8-25.5c0-3.4-0.6-6.7-1.6-9.7c11.9-3.8,20.5-14.9,20.5-28c0-1.7-0.2-3.4-0.4-5
		c13.5-2.6,23.7-14.5,23.7-28.8c0-1-0.1-1.9-0.1-2.9c13.8-1.2,24.8-12,26.5-25.7c1.3,0.2,2.7,0.3,4.1,0.3
		c14.2,0,26.1-10.1,28.8-23.5c2.8,0.9,5.8,1.4,8.9,1.4c12.6,0,23.3-7.9,27.5-19.1c3.9,1.9,8.3,3,12.9,3c10.6,0,20-5.7,25.1-14.1
		c4.9,3.7,11,5.8,17.5,5.8c9.4,0,17.7-4.4,23.1-11.3c5.3,5.2,12.6,8.5,20.7,8.5c7.2,0,13.8-2.6,18.9-6.9c5.3,7.8,14.2,13,24.4,13
		c5.7,0,10.9-1.6,15.4-4.4c4.9,9.5,14.7,16,26.1,16c4.2,0,8.2-0.9,11.8-2.5c4.2,11.2,14.9,19.1,27.5,19.1c1.4,0,2.9-0.1,4.2-0.3
		c2.2,14,14.4,24.7,29,24.7c0.9,0,1.9-0.1,2.8-0.1c0.5,14.2,11,25.9,24.7,28c-0.3,1.6-0.4,3.2-0.4,4.8c0,13.1,8.6,24.2,20.5,28
		c-0.4,1.9-0.6,3.8-0.6,5.8c0,12.3,7.6,22.9,18.4,27.2c-1.8,3.8-2.9,8.1-2.9,12.7c0,3.6,0.7,7.1,1.9,10.3
		c-4.8-3.3-10.6-5.3-16.8-5.3c-9,0-17,4-22.4,10.4c-5.4-5.7-13-9.3-21.4-9.3c-8.8,0-16.8,3.9-22.2,10.1
		c-5.4-6.2-13.3-10.1-22.2-10.1c-8.7,0-16.5,3.8-21.9,9.8c-5.4-6-13.2-9.8-21.9-9.8c-8.3,0-15.7,3.4-21.1,8.9
		c-5.3-5.5-12.8-8.9-21.1-8.9c-8.6,0-16.3,3.7-21.6,9.5c-5.4-5.8-13.1-9.5-21.6-9.5c-8.6,0-16.3,3.7-21.6,9.5
		c-5.4-5.8-13.1-9.5-21.6-9.5c-8.6,0-16.3,3.7-21.6,9.5c-5.4-5.8-13.1-9.5-21.6-9.5c-8.6,0-16.3,3.7-21.6,9.5
		c-5.4-5.8-13.1-9.5-21.6-9.5c-8.9,0-16.8,3.9-22.2,10.1c-2-2.3-4.3-4.3-6.9-5.8c6.9-5.4,11.3-13.7,11.3-23.1c0-2.3-0.3-4.5-0.8-6.6
		c13.7-2.5,24-14.5,24-28.9c0-0.7,0-1.5-0.1-2.2c0,0,0.1,0,0.1,0c13.3,0,24.5-8.8,28.1-21c1.7,0.3,3.4,0.5,5.1,0.5
		c12.4,0,23-7.7,27.3-18.6c3.9,2,8.4,3.1,13.1,3.1c10,0,18.8-5,24.1-12.6c4.8,3.4,10.6,5.4,16.9,5.4c8.2,0,15.6-3.4,21-8.8
		c5.4,7,13.8,11.6,23.4,11.6c5.8,0,11.1-1.7,15.7-4.5c5.1,8.7,14.5,14.5,25.3,14.5c3.7,0,7.2-0.7,10.5-1.9
		c4,11.5,14.9,19.7,27.7,19.7c0.4,0,0.8,0,1.2,0c0,0.1,0,0.2,0,0.3c-5.7,1.4-10.7,4.5-14.5,8.6c-5.4-5.8-13.1-9.5-21.6-9.5
		c-8.3,0-15.7,3.4-21.1,8.9c-5.3-5.5-12.8-8.9-21.1-8.9c-8.3,0-15.7,3.4-21.1,8.9c-5.3-5.5-12.8-8.9-21.1-8.9
		c-8.3,0-15.7,3.4-21.1,8.9c-5.3-5.5-12.8-8.9-21.1-8.9c-10.8,0-20.2,5.8-25.3,14.5c-2.5-1.1-5.2-1.7-8-1.7
		c-10.9,0-19.8,8.9-19.8,19.8c0,10.9,8.9,19.8,19.8,19.8c4.2,0,8.1-1.3,11.3-3.6c5.4,6.1,13.2,9.9,22,9.9c8.3,0,15.7-3.4,21.1-8.9
		c5.3,5.5,12.8,8.9,21.1,8.9c8.3,0,15.7-3.4,21.1-8.9c5.3,5.5,12.8,8.9,21.1,8.9c8.3,0,15.7-3.4,21.1-8.9c5.3,5.5,12.8,8.9,21.1,8.9
		c8.6,0,16.3-3.7,21.6-9.5c5.4,5.8,13.1,9.5,21.6,9.5c8.3,0,15.7-3.4,21.1-8.9c5.3,5.5,12.8,8.9,21.1,8.9
		c16.2,0,29.4-13.1,29.4-29.4c0-13-8.4-24-20.1-27.9c0.1-1,0.2-2.1,0.2-3.2c0-16.2-13.1-29.4-29.4-29.4c-0.4,0-0.8,0-1.2,0
		c-1.1-15.2-13.8-27.2-29.3-27.2c-3.7,0-7.2,0.7-10.5,1.9c-4-11.5-14.9-19.7-27.7-19.7c-5.8,0-11.1,1.7-15.7,4.5
		c-5.1-8.7-14.5-14.5-25.3-14.5c-8.2,0-15.6,3.4-21,8.8c-5.4-7-13.8-11.6-23.4-11.6c-10,0-18.8,5-24.1,12.6
		c-4.8-3.4-10.6-5.4-16.9-5.4c-12.4,0-23,7.7-27.3,18.6c-4-2-8.4-3.1-13.1-3.1c-13.3,0-24.5,8.8-28.1,20.9c-1.7-0.3-3.4-0.5-5.1-0.5
		c-16.2,0-29.4,13.1-29.4,29.4c0,0.7,0,1.5,0.1,2.2c0,0-0.1,0-0.1,0c-16.2,0-29.4,13.1-29.4,29.4c0,2.3,0.3,4.5,0.8,6.6
		c-13.7,2.5-24,14.5-24,28.9c0,4.3,0.9,8.4,2.6,12.1c-11.5,4-19.8,14.9-19.8,27.8c0,16,12.9,29.1,28.8,29.3
		c5.3,5.1,12.5,8.3,20.5,8.3c8.9,0,16.8-3.9,22.2-10.1c5.4,6.2,13.3,10.1,22.2,10.1c8.6,0,16.3-3.7,21.6-9.5
		c5.4,5.8,13.1,9.5,21.6,9.5c8.6,0,16.3-3.7,21.6-9.5c5.4,5.8,13.1,9.5,21.6,9.5c8.6,0,16.3-3.7,21.6-9.5c5.4,5.8,13.1,9.5,21.6,9.5
		c8.6,0,16.3-3.7,21.6-9.5c5.4,5.8,13.1,9.5,21.6,9.5c8.3,0,15.7-3.4,21.1-8.9c5.3,5.5,12.8,8.9,21.1,8.9c8.7,0,16.5-3.8,21.9-9.8
		c5.4,6,13.2,9.8,21.9,9.8c8.9,0,16.8-3.9,22.2-10.1c5.4,6.2,13.3,10.1,22.2,10.1c9,0,17-4,22.4-10.4c5.4,5.7,13,9.3,21.4,9.3
		c8.9,0,16.9-4,22.3-10.2c5.4,6.9,13.7,11.3,23.2,11.3c16.2,0,29.4-13.1,29.4-29.4C650.2,298.1,647.8,291.7,643.7,286.6z"/>
</g>
</svg>
