<?xml version="1.0" encoding="utf-8"?>
<!-- Generator: Adobe Illustrator 19.2.0, SVG Export Plug-In . SVG Version: 6.00 Build 0)  -->
<svg version="1.1" id="Layer_1" xmlns="http://www.w3.org/2000/svg" xmlns:xlink="http://www.w3.org/1999/xlink" x="0px" y="0px"
	 viewBox="0 0 167.2 272.7" style="enable-background:new 0 0 167.2 272.7;" xml:space="preserve">
<style type="text/css">
	.st0{fill:none;}
	.st1{enable-background:new    ;}
	.st2{fill:#DAEBF1;}
</style>
<rect y="3.3" class="st0" width="162.9" height="269.4"/>
<g class="st1">
	<path class="st2" d="M11.2,58.6H2.9V3.4h11.9L22.6,43L30,3.4h11.5v55.2h-8.3V23.9l-7.2,34.7h-6.7L11.2,24V58.6z"/>
	<path class="st2" d="M62,59.2c-3.7,0-6.8-1.3-9.3-3.8c-2.6-2.6-3.8-5.7-3.8-9.3V3.4H57V46c0,1.3,0.5,2.4,1.4,3.4
		c0.9,0.9,2.1,1.4,3.4,1.4c1.3,0,2.4-0.5,3.4-1.4c0.9-0.9,1.4-2,1.4-3.4V3.4h8.7v42.7c0,3.7-1.3,6.8-3.9,9.3
		C68.8,57.9,65.7,59.2,62,59.2z"/>
	<path class="st2" d="M109.6,44.9c0.1,3.8-0.9,7.1-3,9.9c-1.4,1.8-3.3,3.2-5.7,3.9c-1.3,0.4-2.9,0.6-4.6,0.6c-3.3,0-6-0.8-8.1-2.4
		c-1.8-1.3-3.2-3.1-4.2-5.4c-1-2.3-1.7-4.9-1.8-7.8L90,43c0.4,3.2,1.2,5.5,2.6,7c1,1.1,2.1,1.6,3.4,1.5c1.8-0.1,3.3-1,4.4-2.7
		c0.6-0.9,0.8-2.1,0.8-3.7c0-2.3-1-4.6-3.1-6.8c-1.6-1.6-4.1-3.9-7.4-7c-2.8-2.7-4.7-5.1-5.9-7.2c-1.2-2.4-1.8-5-1.8-7.8
		c0-5,1.7-8.8,5.1-11.4c2.1-1.6,4.7-2.3,7.8-2.3c3,0,5.5,0.7,7.6,2c1.6,1,3,2.5,4,4.3c1,1.8,1.6,4,1.8,6.4l-8,1.5
		c-0.2-2.3-0.9-4-1.9-5.3c-0.8-0.9-1.9-1.4-3.3-1.4c-1.5,0-2.7,0.7-3.5,2c-0.6,1.1-1,2.4-1,4.1c0,2.5,1.1,5.1,3.3,7.7
		c0.8,1,2.1,2.2,3.7,3.5c1.9,1.6,3.2,2.7,3.8,3.4c2.1,2.1,3.6,4.1,4.8,6.1c0.5,0.9,1,1.8,1.3,2.6C109.2,41.5,109.6,43.3,109.6,44.9z
		"/>
	<path class="st2" d="M124.9,58.6h-8.3V3.4h8.3V58.6z"/>
	<path class="st2" d="M145.4,59.3c-3.7,0-6.8-1.3-9.4-3.9c-2.6-2.6-3.9-5.7-3.9-9.3V16c0-3.7,1.3-6.8,3.9-9.4
		c2.6-2.6,5.7-3.9,9.3-3.9c3.7,0,6.8,1.3,9.3,3.9s3.8,5.7,3.8,9.3v6.3H150v-6.5c0-1.3-0.5-2.5-1.4-3.4s-2.1-1.4-3.4-1.4
		c-1.3,0-2.4,0.5-3.4,1.4s-1.4,2.1-1.4,3.4V46c0,1.3,0.5,2.4,1.4,3.4c0.9,0.9,2,1.4,3.4,1.4c1.3,0,2.5-0.5,3.4-1.4
		c0.9-0.9,1.4-2,1.4-3.4v-7.6h8.6v7.7c0,3.7-1.3,6.8-3.9,9.3C152.1,58,149.1,59.3,145.4,59.3z"/>
</g>
<g class="st1">
	<path class="st2" d="M9.9,99c-2.2,0-4.2-0.8-5.7-2.4c-1.6-1.6-2.4-3.5-2.4-5.7V72.5c0-2.2,0.8-4.2,2.4-5.7c1.6-1.6,3.5-2.4,5.7-2.4
		c2.2,0,4.2,0.8,5.7,2.4c1.6,1.6,2.3,3.5,2.3,5.7v3.9h-5.3v-4c0-0.8-0.3-1.5-0.9-2.1c-0.6-0.6-1.3-0.9-2.1-0.9s-1.5,0.3-2.1,0.9
		c-0.6,0.6-0.9,1.3-0.9,2.1v18.5c0,0.8,0.3,1.5,0.9,2.1c0.6,0.6,1.3,0.8,2.1,0.8s1.5-0.3,2.1-0.8c0.6-0.6,0.9-1.3,0.9-2.1v-4.7h5.3
		V91c0,2.2-0.8,4.2-2.4,5.7C14,98.2,12.1,99,9.9,99z"/>
	<path class="st2" d="M30.1,64.3c2.2,0,4.2,0.8,5.7,2.4c1.6,1.6,2.4,3.5,2.4,5.7v18.5c0,2.2-0.8,4.2-2.4,5.7
		c-1.6,1.6-3.5,2.4-5.7,2.4c-2.2,0-4.2-0.8-5.7-2.4C22.8,95,22,93.1,22,90.9V72.4c0-2.2,0.8-4.2,2.4-5.7
		C26,65.1,27.9,64.3,30.1,64.3z M32.9,72.3c0-0.8-0.3-1.5-0.9-2.1c-0.6-0.6-1.3-0.9-2.1-0.9s-1.5,0.3-2.1,0.9
		c-0.6,0.6-0.9,1.3-0.9,2.1v18.5c0,0.8,0.3,1.5,0.9,2.1c0.6,0.6,1.3,0.8,2.1,0.8s1.5-0.3,2.1-0.8c0.6-0.6,0.9-1.3,0.9-2.1V72.3z"/>
	<path class="st2" d="M48.4,64.7l6.8,22.7V64.7h5.1v33.8h-5.5l-7-21.7v21.7h-5.1V64.7H48.4z"/>
	<path class="st2" d="M70.6,64.7l6.8,22.7V64.7h5.1v33.8h-5.5l-7-21.7v21.7h-5.1V64.7H70.6z"/>
	<path class="st2" d="M87,98.6V64.7h14.5v5.1h-9.4v9.2H99v5.1h-6.9v9.2h9.4v5.1H87z"/>
	<path class="st2" d="M113.1,99c-2.2,0-4.2-0.8-5.7-2.4S105,93.2,105,91V72.5c0-2.2,0.8-4.2,2.4-5.7s3.5-2.4,5.7-2.4
		c2.2,0,4.2,0.8,5.7,2.4s2.3,3.5,2.3,5.7v3.9h-5.3v-4c0-0.8-0.3-1.5-0.9-2.1c-0.6-0.6-1.3-0.9-2.1-0.9s-1.5,0.3-2.1,0.9
		c-0.6,0.6-0.9,1.3-0.9,2.1v18.5c0,0.8,0.3,1.5,0.9,2.1c0.6,0.6,1.3,0.8,2.1,0.8s1.5-0.3,2.1-0.8c0.6-0.6,0.9-1.3,0.9-2.1v-4.7h5.3
		V91c0,2.2-0.8,4.2-2.4,5.7S115.3,99,113.1,99z"/>
	<path class="st2" d="M130.1,69.9h-5.4v-5.1h15.9v5.1h-5.4v28.7h-5.1V69.9z"/>
	<path class="st2" d="M161,90.2c0,2.4-0.6,4.4-1.8,6c-0.8,1.1-2,1.9-3.5,2.4c-0.8,0.3-1.8,0.4-2.8,0.4c-2,0-3.7-0.5-5-1.5
		c-1.1-0.8-2-1.9-2.6-3.3c-0.6-1.4-1-3-1.1-4.8l4.9-0.4c0.2,2,0.7,3.4,1.6,4.3c0.6,0.7,1.3,1,2.1,1c1.1,0,2-0.6,2.7-1.6
		c0.3-0.5,0.5-1.3,0.5-2.2c0-1.4-0.6-2.8-1.9-4.2c-1-1-2.5-2.4-4.5-4.3c-1.7-1.6-2.9-3.1-3.6-4.4c-0.8-1.5-1.1-3-1.1-4.8
		c0-3.1,1-5.4,3.1-7c1.3-1,2.9-1.4,4.8-1.4c1.8,0,3.4,0.4,4.7,1.2c1,0.6,1.8,1.5,2.4,2.6c0.6,1.1,1,2.4,1.1,3.9l-4.9,0.9
		c-0.1-1.4-0.5-2.5-1.2-3.2c-0.5-0.6-1.1-0.8-2-0.8c-0.9,0-1.6,0.4-2.1,1.2c-0.4,0.7-0.6,1.5-0.6,2.5c0,1.5,0.7,3.1,2,4.7
		c0.5,0.6,1.3,1.3,2.3,2.2c1.2,1,2,1.7,2.3,2.1c1.3,1.3,2.2,2.5,2.9,3.7c0.3,0.6,0.6,1.1,0.8,1.6C160.7,88.1,161,89.2,161,90.2z"/>
</g>
<g class="st1">
	<path class="st2" d="M1.8,137.6v-33.8h14.5v5.1H6.9v9.2h6.9v5.1H6.9v9.2h9.4v5.1H1.8z"/>
	<path class="st2" d="M25.8,137.6l-6-33.8h5.3l4.2,26.4l4.3-26.4H39l-6.2,33.8H25.8z"/>
	<path class="st2" d="M43.3,137.6v-33.8h14.5v5.1h-9.4v9.2h6.9v5.1h-6.9v9.2h9.4v5.1H43.3z"/>
	<path class="st2" d="M69.3,103.8c2.8,0,4.9,0.8,6.3,2.3c1.2,1.4,1.8,3.3,1.8,5.7v4.9c0,2.4-0.9,4.4-2.7,6.1l3.8,14.8h-5.5
		l-3.1-12.7c-0.1,0-0.3,0-0.5,0h-2.9v12.7h-5.1v-33.8H69.3z M72.4,111.9c0-2-1-2.9-2.9-2.9h-3.1v10.8h3.1c0.8,0,1.5-0.3,2.1-0.9
		c0.6-0.6,0.9-1.3,0.9-2.1V111.9z"/>
	<path class="st2" d="M86.5,123.4l-6.8-19.7h5.6l3.8,12.1l3.8-12.1h5.6l-6.9,19.7v14.2h-5.1V123.4z"/>
	<path class="st2" d="M108.7,103.3c2.2,0,4.2,0.8,5.7,2.4c1.6,1.6,2.4,3.5,2.4,5.7v18.5c0,2.2-0.8,4.2-2.4,5.7
		c-1.6,1.6-3.5,2.4-5.7,2.4c-2.2,0-4.2-0.8-5.7-2.4c-1.6-1.6-2.3-3.5-2.3-5.7v-18.5c0-2.2,0.8-4.2,2.4-5.7S106.5,103.3,108.7,103.3z
		 M111.5,111.3c0-0.8-0.3-1.5-0.9-2.1c-0.6-0.6-1.3-0.9-2.1-0.9s-1.5,0.3-2.1,0.9c-0.6,0.6-0.9,1.3-0.9,2.1v18.5
		c0,0.8,0.3,1.5,0.9,2.1c0.6,0.6,1.3,0.8,2.1,0.8s1.5-0.3,2.1-0.8c0.6-0.6,0.9-1.3,0.9-2.1V111.3z"/>
	<path class="st2" d="M127,103.7l6.8,22.7v-22.7h5.1v33.8h-5.5l-7-21.7v21.7h-5.1v-33.8H127z"/>
	<path class="st2" d="M143.4,137.6v-33.8H158v5.1h-9.4v9.2h6.9v5.1h-6.9v9.2h9.4v5.1H143.4z"/>
</g>
<g class="st1">
	<path class="st2" d="M11.9,202.6H3v-58.7h8.9V202.6z"/>
	<path class="st2" d="M29.8,143.8l11.8,39.5v-39.5h8.9v58.8h-9.5l-12.2-37.6v37.6h-8.9v-58.8H29.8z"/>
	<path class="st2" d="M72,152.8h-9.4v-8.9h27.7v8.9h-9.4v49.8H72V152.8z"/>
	<path class="st2" d="M106.2,177.7v24.9h-8.9v-58.7h8.9v24.9h10.7v-24.9h8.9v58.7h-8.9v-24.9H106.2z"/>
	<path class="st2" d="M133.7,202.6v-58.8h25.2v8.9h-16.4v16h12v8.9h-12v16h16.4v8.9H133.7z"/>
</g>
<g class="st1">
</g>
<g class="st1">
	<path class="st2" d="M33.5,209.8h7.9l-7.8,49.8h-7.2l-4.3-27.4l-4,27.4h-7.2l-8.3-49.8h7.9l3.9,26.7l3.6-26.7h7.9l3.9,26.7
		L33.5,209.8z"/>
	<path class="st2" d="M58.4,209.1c3.3,0,6.1,1.2,8.5,3.5c2.3,2.3,3.5,5.1,3.5,8.4v27.2c0,3.3-1.2,6.1-3.5,8.5
		c-2.3,2.3-5.1,3.5-8.4,3.5c-3.3,0-6.1-1.2-8.4-3.5s-3.5-5.1-3.5-8.4V221c0-3.3,1.2-6.1,3.5-8.5C52.4,210.3,55.2,209.1,58.4,209.1z
		 M62.5,220.9c0-1.2-0.4-2.2-1.3-3c-0.8-0.8-1.8-1.3-3-1.3c-1.2,0-2.2,0.4-3.1,1.3c-0.8,0.8-1.3,1.8-1.3,3v27.3c0,1.2,0.4,2.2,1.3,3
		c0.8,0.8,1.9,1.3,3.1,1.3c1.2,0,2.2-0.4,3-1.3c0.8-0.8,1.3-1.8,1.3-3V220.9z"/>
	<path class="st2" d="M88.9,209.8c4.2,0,7.3,1.2,9.2,3.5c1.7,2,2.6,4.8,2.6,8.4v7.2c0,3.5-1.3,6.5-4,8.9l5.6,21.8h-8.1l-4.6-18.8
		c-0.2,0-0.4,0-0.7,0h-4.3v18.8H77v-49.8H88.9z M93.3,221.8c0-2.9-1.4-4.3-4.3-4.3h-4.5v15.9H89c1.2,0,2.2-0.4,3-1.3
		c0.8-0.8,1.3-1.9,1.3-3.1V221.8z"/>
	<path class="st2" d="M129.1,259.6h-20.5v-49.8h7.5v42.4h13V259.6z"/>
	<path class="st2" d="M157.9,247.7c0,3.3-1.2,6.1-3.5,8.4c-2.3,2.3-5.1,3.5-8.4,3.5h-11.8v-49.9h11.8c3.3,0,6.1,1.2,8.4,3.5
		c2.3,2.3,3.4,5.1,3.4,8.4V247.7z M141.8,252.2h4.5c1.2,0,2.2-0.4,3-1.3c0.8-0.9,1.2-1.9,1.2-3v-26.1c0-1.2-0.4-2.2-1.3-3.1
		c-0.8-0.8-1.8-1.3-3-1.3h-4.5V252.2z"/>
</g>
</svg>
