<?xml version="1.0" encoding="utf-8"?>
<!-- Generator: Adobe Illustrator 18.1.1, SVG Export Plug-In . SVG Version: 6.00 Build 0)  -->
<svg version="1.1" id="Layer_1" xmlns="http://www.w3.org/2000/svg" xmlns:xlink="http://www.w3.org/1999/xlink" x="0px" y="0px"
	 width="531.8px" height="531.8px" viewBox="246.1 118.1 531.8 531.8" enable-background="new 246.1 118.1 531.8 531.8"
	 xml:space="preserve">
<g>
</g>
<path fill="#2880B9" d="M774.9,379.5c-0.5-34-7.4-66.4-19.5-96.1c-1-2.4-2-4.7-3-7c-12.8-28.8-30.5-54.9-52.2-77.2
	c-1.8-1.8-3.6-3.6-5.4-5.4c-23.5-22.8-51.1-41.3-81.8-54.2c-2.3-1-4.7-1.9-7.1-2.9c-28.4-11-59.3-17.2-91.5-17.7c-1.3,0-2.5,0-3.8,0
	c-1.3,0-2.5,0-3.8,0c-34,0.5-66.4,7.4-96.1,19.5c-2.4,1-4.7,2-7,3c-28.8,12.8-54.9,30.5-77.2,52.2c-1.8,1.8-3.6,3.6-5.4,5.4
	c-22.8,23.5-41.3,51.1-54.2,81.8c-1,2.3-1.9,4.7-2.9,7.1l47,18.9c0.9-2.4,1.9-4.7,2.8-7.1c10.3-24.3,25-46.2,43-64.9
	c1.8-1.8,3.6-3.6,5.4-5.4c17.7-17.1,38.4-31.2,61.2-41.4c2.3-1,4.7-2,7-3c23.6-9.6,49.3-15,76.3-15.5c1.3,0,2.5,0,3.8,0
	c1.3,0,2.5,0,3.8,0c25.5,0.4,49.9,5.4,72.5,14c2.4,0.9,4.7,1.9,7.1,2.8c24.3,10.3,46.2,25,64.9,43c1.8,1.8,3.6,3.6,5.4,5.4
	c17.1,17.7,31.2,38.4,41.4,61.2c1,2.3,2,4.7,3,7c9.6,23.6,15,49.3,15.5,76.3c0,1.3,0,2.5,0,3.8c0,1.3,0,2.5,0,3.8
	c-0.4,25.5-5.4,49.9-14,72.5c-0.9,2.4-1.9,4.7-2.8,7.1c-10.3,24.3-25,46.2-43,64.9c-1.8,1.8-3.6,3.6-5.4,5.4
	c-17.7,17.1-38.4,31.2-61.2,41.4c-2.3,1-4.7,2-7,3c-23.6,9.6-49.3,15-76.3,15.5c-1.3,0-2.5,0-3.8,0c-1.3,0-2.5,0-3.8,0v50.7
	c1.3,0,2.5,0,3.8,0c1.3,0,2.5,0,3.8,0c34-0.5,66.4-7.4,96.1-19.5c2.4-1,4.7-2,7-3c28.8-12.8,54.9-30.5,77.2-52.2
	c1.8-1.8,3.6-3.6,5.4-5.4c22.8-23.5,41.3-51.1,54.2-81.8c1-2.3,1.9-4.7,2.9-7.1c11-28.4,17.2-59.3,17.7-91.5c0-1.3,0-2.5,0-3.8
	C774.9,382.1,774.9,380.8,774.9,379.5z"/>
<g>
	<path fill="none" d="M602.6,178.3c1,0.4,2,0.9,3,1.4c25.3,11.7,47.4,27.4,66,46.1c1.6,1.6,3.1,3.1,4.6,4.7
		c19.6,20.9,35,45.2,45.5,71.5c0.8,2,1.6,4.1,2.4,6.2c9.3,25.2,14.1,52,14.1,79.3c0,2.2,0,4.4-0.1,6.6c-0.9,27.7-6.8,55.8-18.4,82.7
		c-0.4,1-0.9,2-1.3,3c-0.4,1-0.9,2-1.4,3l-416-188.3c0.1-0.2,0.1-0.3,0.2-0.5c0.4-1,0.9-2,1.4-3c11.7-25.3,27.4-47.4,46.1-66
		c1.6-1.6,3.1-3.1,4.7-4.6c20.9-19.6,45.2-35,71.5-45.5c2-0.8,4.1-1.6,6.2-2.4c25.2-9.3,52-14.1,79.3-14.1c2.2,0,4.4,0,6.6,0.1
		c27.7,0.9,55.8,6.8,82.7,18.4C600.6,177.4,601.6,177.9,602.6,178.3z"/>
	<path fill="#D9EBF2" d="M303.7,257.6l1.4,0.8l-0.6,1.1l-1.5-0.9c-1.8-1.1-3.6-1.2-4.7,0.6c-1.1,1.8-0.2,3.4,1.6,4.4l8.7,5.3
		c1.8,1.1,3.6,1.2,4.7-0.7c1.1-1.8,0.2-3.4-1.6-4.4l-2-1.2l0.6-1.1l1.9,1.2c2.4,1.5,3.6,3.6,2.1,6.2c-1.5,2.6-4,2.5-6.4,1.1
		l-8.6-5.2c-2.4-1.5-3.6-3.6-2.1-6.2C298.9,256.1,301.3,256.2,303.7,257.6z"/>
	<path fill="#D9EBF2" d="M317,255.8c1.7,1.2,3.5,1.5,4.7-0.3c1.2-1.8,0.3-3.3-1.4-4.5l-12.2-8.5l0.7-1L321,250
		c2.3,1.6,3.4,3.8,1.7,6.3c-1.7,2.5-4.2,2.2-6.5,0.6l-12.2-8.5l0.7-1.1L317,255.8z"/>
	<path fill="#D9EBF2" d="M329.1,247.2l-15.3-12.2l0.8-1l14.4,11.5l3.8-4.8l0.9,0.7L329.1,247.2z"/>
	<path fill="#D9EBF2" d="M339.4,234.8l-13.7-12.3l-2.7,3l-0.9-0.8l6.2-6.9l0.9,0.8l-2.7,3l13.7,12.3L339.4,234.8z"/>
	<path fill="#D9EBF2" d="M344.9,222c1.5,1.5,3.2,2.1,4.7,0.6c1.5-1.5,1-3.2-0.5-4.7l-10.4-10.7l0.9-0.8L350,217c2,2,2.6,4.4,0.5,6.5
		c-2.1,2.1-4.5,1.4-6.5-0.6l-10.3-10.6l0.9-0.9L344.9,222z"/>
	<path fill="#D9EBF2" d="M348.8,198.2c2.3-1.9,4.3-1.5,6.1,0.7l1.1,1.3c1.5,1.8,1.7,3.3,0.5,4.9c1.8-1,3.4-0.4,4.7,1.2l2,2.3
		c0.5,0.6,1.1,1.3,1.9,1.5l-1,0.9c-0.6-0.2-1.2-0.7-1.8-1.5l-2-2.3c-1.7-2-3.2-1.6-5-0.2l-1.6,1.3l5.7,6.7l-1,0.8l-12.7-14.9
		L348.8,198.2z M354.5,206c1.8-1.5,2.4-2.8,0.7-4.9l-1.2-1.4c-1.4-1.6-2.8-2-4.4-0.7l-2.1,1.8l5.5,6.5L354.5,206z"/>
	<path fill="#D9EBF2" d="M369.5,193.5l0.7,0.9l-4.3,3.2l4.9,6.6l5.2-3.8l0.7,0.9l-6.2,4.6l-11.7-15.7l6.2-4.6l0.7,0.9l-5.2,3.8
		l4.7,6.3L369.5,193.5z"/>
</g>
</svg>
