<!-- Generator: Adobe Illustrator 18.1.1, SVG Export Plug-In  -->
<svg version="1.1"
	 xmlns="http://www.w3.org/2000/svg" xmlns:xlink="http://www.w3.org/1999/xlink" xmlns:a="http://ns.adobe.com/AdobeSVGViewerExtensions/3.0/"
	 x="0px" y="0px" width="139px" height="139px" viewBox="0 0 139 139" enable-background="new 0 0 139 139" xml:space="preserve">
<defs>
</defs>
<circle fill="#73C48C" cx="69.4" cy="69.5" r="58"/>
<g>
	<circle fill="#242C33" cx="69.5" cy="46" r="5.2"/>
	<path fill="#242C33" d="M81,53.2H57.7c-1.7,0-3.1,1.4-3.1,3.1v16.3c0,1.7,1.4,3.1,3.1,3.1s3.1-1.4,3.1-3.1V59.4h1.5v14.4v3.9v20.7
		c0,1.7,1.4,3.1,3.1,3.1c1.7,0,3.1-1.4,3.1-3.1V77.8h1.6v20.7c0,1.7,1.4,3.1,3.1,3.1s3.1-1.4,3.1-3.1V73.9h0V59.4h1.4v13.1
		c0,1.7,1.4,3.1,3.1,3.1s3.1-1.4,3.1-3.1V56.3C84.2,54.6,82.8,53.2,81,53.2z"/>
</g>
<g>
	<path fill="#5BB4E5" d="M138.9,68.2c-0.2-8.7-1.9-17.1-5-24.7c-0.3-0.8-0.7-1.6-1-2.4c-3.3-7.4-7.9-14.1-13.4-19.8
		c-0.6-0.6-1.2-1.2-1.8-1.8c-6.1-5.8-13.2-10.6-21-13.9c-0.8-0.3-1.6-0.7-2.4-1C86.9,1.8,79,0.2,70.8,0c-0.4,0-0.9,0-1.3,0
		c-0.4,0-0.9,0-1.3,0c-8.7,0.2-17.1,1.9-24.7,5c-0.8,0.3-1.6,0.7-2.4,1C33.7,9.4,27,13.9,21.3,19.4c-0.6,0.6-1.2,1.2-1.8,1.8
		c-5.8,6.1-10.6,13.2-13.9,21c-0.3,0.8-0.7,1.6-1,2.4C1.8,52,0.2,59.9,0,68.2c0,0.4,0,0.9,0,1.3c0,0.4,0,0.9,0,1.3h2.4
		c0-0.4,0-0.9,0-1.3c0-0.4,0-0.9,0-1.3c0.2-7.9,1.7-15.5,4.4-22.6c0.3-0.8,0.6-1.6,1-2.4C11,35.7,15.6,28.8,21.2,23
		c0.6-0.6,1.2-1.2,1.8-1.8c5.5-5.3,12-9.7,19-12.9c0.8-0.4,1.6-0.7,2.4-1c7.4-3,15.4-4.7,23.7-4.8c0.4,0,0.9,0,1.3,0
		c0.4,0,0.9,0,1.3,0c7.9,0.2,15.5,1.7,22.6,4.4c0.8,0.3,1.6,0.6,2.4,1c7.5,3.2,14.4,7.8,20.2,13.4c0.6,0.6,1.2,1.2,1.8,1.8
		c5.3,5.5,9.7,12,12.9,19c0.4,0.8,0.7,1.6,1,2.4c3,7.4,4.7,15.4,4.8,23.7c0,0.4,0,0.9,0,1.3c0,0.4,0,0.9,0,1.3
		c-0.2,7.9-1.7,15.5-4.4,22.6c-0.3,0.8-0.6,1.6-1,2.4c-3.2,7.5-7.8,14.4-13.4,20.2c-0.6,0.6-1.2,1.2-1.8,1.8
		c-5.5,5.3-12,9.7-19,12.9c-0.8,0.4-1.6,0.7-2.4,1c-7.4,3-15.4,4.7-23.7,4.8c-0.4,0-0.9,0-1.3,0c-0.4,0-0.8,0-1.3,0v2.4
		c0.4,0,0.8,0,1.3,0c0.4,0,0.9,0,1.3,0c8.7-0.2,17.1-1.9,24.7-5c0.8-0.3,1.6-0.7,2.4-1c7.4-3.3,14.1-7.9,19.8-13.4
		c0.6-0.6,1.2-1.2,1.8-1.8c5.8-6.1,10.6-13.2,13.9-21c0.3-0.8,0.7-1.6,1-2.4c2.8-7.3,4.4-15.2,4.5-23.5c0-0.4,0-0.9,0-1.3
		C139,69,139,68.6,138.9,68.2z"/>
</g>
<path fill="#5BB4E5" d="M70.9,4.1c-0.5,0-0.9,0-1.4,0c-0.5,0-1,0-1.4,0c-17,0.4-32.4,7.2-43.8,18.2c-0.7,0.7-1.4,1.3-2,2l8.9,8.9
	c0.7-0.7,1.3-1.4,2-2c9.2-8.7,21.4-14.1,35-14.5c0.5,0,0.9,0,1.4,0c0.5,0,1,0,1.4,0c28.6,0.8,51.5,24.1,51.5,52.9
	c0,14.1-5.5,26.9-14.5,36.4c-0.7,0.7-1.3,1.4-2,2c-9.2,8.7-21.4,14.1-35,14.5v12.5c17-0.4,32.4-7.2,43.8-18.2c0.7-0.7,1.4-1.3,2-2
	C128,103,134.9,87,134.9,69.5C134.9,33.8,106.4,4.8,70.9,4.1z"/>
</svg>
