<!-- Generator: Adobe Illustrator 18.1.1, SVG Export Plug-In  -->
<svg version="1.1"
	 xmlns="http://www.w3.org/2000/svg" xmlns:xlink="http://www.w3.org/1999/xlink" xmlns:a="http://ns.adobe.com/AdobeSVGViewerExtensions/3.0/"
	 x="0px" y="0px" width="1240.5px" height="862.9px" viewBox="0 0 1240.5 862.9" enable-background="new 0 0 1240.5 862.9"
	 xml:space="preserve">
<defs>
</defs>
<g id="Ear_1_">
	<path fill="#F9BC84" d="M425.2,681.8l-15.7-396.9c0-0.7,0-1.3,0-2c0-6.2-0.3-12.3-0.8-18.4l0-0.3l0,0
		c-9.4-104.3-97.1-186.1-203.9-186.1C91.7,78.1,0,169.8,0,282.8c0,74.1,39.3,138.9,98.2,174.9c49.2,20,83.9,68.4,83.9,124.8
		c0,21-4.8,41-13.4,58.7c-6.6,15.8-10.2,33.1-10.2,51.2c0,73.7,59.8,133.5,133.5,133.5c73.8,0,133.5-59.8,133.5-133.5
		C425.6,688.8,425.5,685.3,425.2,681.8z"/>
	<path fill="#D19C6F" d="M492.8,379.5h-22.2c-63.3,0-114.7-50.6-116-113.5c-13-67.3-72.2-118.1-143.2-118.1
		c-80.6,0-145.9,65.3-145.9,145.9c0,0,0,0.1,0,0.1c0,0,0,0.1,0,0.1c0,20,4.1,39.1,11.4,56.5c22.1,52.4,74,89.3,134.5,89.3
		c5.8,0,11.5-0.4,17-1c-16.9,18.3-27.3,42.7-27.3,69.5c0,23,7.6,44.3,20.4,61.4c18.5,25.2,48.3,41.6,81.9,41.6
		c18.6,0,36.1-5,51.1-13.8l0,0l0.1-0.1c5.4-3.2,10.5-6.8,15.1-10.9l2-1.4c0-0.8-0.1-1.6-0.1-2.4c0-55,44-99.7,98.8-100.9v0h250.3
		V379.5H492.8z"/>
	<circle fill="#6D6E71" cx="559.2" cy="431" r="51"/>
	<path fill="#D19C6F" d="M784.8,527.5c0,9.7,0.5,18.2,7.9,23.3l0,0l419.7,312.1l28-37.7L840.6,527.8l-0.4-0.3
		c-2-1.4-3.1-3.2-3.8-5.6c-0.1-0.5-0.2-0.9-0.3-1.4c-0.1-0.7-0.2-1.3-0.2-2.1c0-6.3,5.1-11.3,11.3-11.3c1.5,0,2.9,0.1,4.2,0.6
		l61.9,13.2c1.6,22.8,15,42.3,34,52.6l111.3,71.3c9.9,7.4,22.2,11.8,35.5,11.8c16.5,0,31.4-6.7,42.2-17.6l15.2-12.6l65-52.2l3.8-3.2
		l0,0c6.4-4.5,12.8-11.8,12.8-20.2c0-0.4,0-0.9-0.1-1.3h0.1v-42.7h0V3.3h-23.1v238.9v263.4v1.3h0.1c0,2.5-0.5,4.9-1.3,7.2
		l-16.2,15.2l-18.4,14.7l0,0l-52.5,42.1l0-0.1c-2.6,2.2-5.7,3.7-9.2,4.4c-0.6,0.1-1.2,0.2-1.8,0.2c-0.5,0-1.1,0.1-1.7,0.1
		c-3.5,0-6.8-0.9-9.7-2.6l-0.3-0.1l-48.3-30.9l-15.2-9.7c0.1-0.1,0.1-0.2,0.2-0.3l33.9,7.3c1.5,0.4,2.9,0.7,4.4,0.9l0.4,0.1v0
		c3.3,0.6,6.7,0.9,10.2,0.9c33.2,0,60.1-26.9,60.1-60.1c0-21.8-11.6-40.8-28.9-51.4c4.5-9.6,7.1-20.3,7.1-31.6
		c0-15.5-4.8-29.9-13-41.9c11-6.6,18.4-18.5,18.4-32.3c0-20.7-16.8-37.6-37.6-37.6c-20.8,0-37.6,16.8-37.6,37.6c0,0,0,0.1,0,0.1
		c-1.5-0.1-2.9-0.1-4.4-0.1c-21.2,0-40.2,8.4-53.7,22.6l-0.3,0.3c-4.7,4.2-10.9,6.7-17.8,6.7c-13.9,0-25.3-10.5-26.8-23.9V202.1
		c0-26.6-21.5-48.1-48.1-48.1c-26.6,0-48.1,21.5-48.1,48.1v68.3c-0.2,5.3-4.5,9.6-9.8,9.6c-3.2,0-6-1.5-7.9-3.9L802,222l-0.1,0.1
		c-7.7-12-21.1-19.9-36.4-19.9c-23.9,0-43.4,19.4-43.4,43.4c0,9.4,3,18,8,25.1l37.5,59.2l0,0c1,1.5,1.6,3.3,1.6,5.2
		c0,5.3-4.3,9.5-9.5,9.5c-2.9,0-5.5-1.3-7.2-3.4l0,0c-22-24-53.5-39-88.6-39c-66.4,0-120.2,53.8-120.2,120.2s53.8,120.2,120.2,120.2
		c30.9,0,59.1-11.7,80.4-30.9l0.1,0.1c3.8-3.9,9.9-7.3,15.8-7.5c14.1-0.5,24.2,10.1,24.6,21.4"/>
	<path fill="none" stroke="#58595B" stroke-width="6.5098" stroke-linecap="round" stroke-miterlimit="10" d="M1226.4,3.3
		c0,0,0,538.5,0,547.1c0,7.3-3.6,8.6-5.8,10.9c-2.2,2.2-81,64.4-102,79.6c-21,15.2-44.1,2.9-44.1,2.9s-89.2-58.1-104.2-67.5
		c-2.8-1.8-43.7-21.4-43.4-48.2l-0.3-6.5l0.9-11.8"/>
	<path fill="none" stroke="#58595B" stroke-width="6.5098" stroke-linecap="round" stroke-miterlimit="10" d="M1223.2,3.3
		c0,0,0,527.6,0,536.3c0,7.3-3.6,8.6-5.8,10.9c-2.2,2.2-80.5,67.2-102,81.7c-19.2,12.9-39.8,0.7-39.8,0.7s-78.4-55.9-93.3-65.4
		c-2.7-1.8-26.7-14.9-26.4-41.7l0.9-21"/>
	<path fill="none" stroke="#58595B" stroke-width="6.5098" stroke-linecap="round" stroke-miterlimit="10" d="M1219.9,3.3
		c0,0,0.3,516.7,0.3,525.4c0,7.3-3.6,8.6-5.8,10.9c-2.2,2.2-78.4,67.2-99.8,81.7c-19.2,12.9-33.3,0.7-33.3,0.7s-71.9-53.7-86.8-63.2
		c-2.8-1.7-16.1-11.1-15.2-28.6l1.2-19.9"/>
	<path fill="none" stroke="#58595B" stroke-width="6.5098" stroke-linecap="round" stroke-miterlimit="10" d="M1216.7,3.3
		c0,0,0,505.9,0,514.5c0,7.3-4.3,8.6-6.6,10.9c-2.2,2.2-76.2,65-97.6,79.6c-16.2,11.1-33.3-5.8-33.3-5.8s-56.7-42.8-71.6-52.3
		c-2.7-1.8-6.9-6.8-6.3-16l2.2-20.6"/>
	<g>
		<path fill="#B4835E" d="M814.9,551.4c-3.5,0-6.7-0.9-9.6-2.4L1180,825.7l17.1-23.1L834.6,534.9
			C832.9,544.3,824.7,551.4,814.9,551.4z"/>
		<path fill="none" d="M800.8,545.7c1.3,1.3,2.8,2.4,4.5,3.3L800.8,545.7z"/>
		<path fill="none" d="M831.3,532.5L831.3,532.5l3.3,2.4c0.2-1.2,0.3-2.4,0.3-3.6c0-7.1-3.7-13.3-9.2-16.9c-0.2,1.1-0.3,2.2-0.3,3.4
			C825.4,523.5,827.6,528.9,831.3,532.5z"/>
		<path fill="none" d="M794.8,530.9c0.1-0.9,0.2-1.8,0.2-2.7C794.9,529.1,794.8,530,794.8,530.9z"/>
		<path fill="#B4835E" d="M814.9,551.4c9.9,0,18-7.1,19.7-16.5l-3.3-2.4v0c-3.7-3.6-5.9-9.1-5.9-14.6c0-1.2,0.1-2.3,0.3-3.4
			c-3.1-2-6.8-3.2-10.8-3.2c-10,0-18.3,7.3-19.8,16.9c0,0.9-0.1,1.8-0.2,2.7c0,0.1,0,0.3,0,0.4c0,5.6,2.3,10.7,6,14.3l4.5,3.3
			C808.1,550.5,811.4,551.4,814.9,551.4z"/>
	</g>
	<g>
		<path fill="#F9BC84" d="M969.3,463.9l0.1,0c0.6-2,1.1-4.1,1.6-6.2L969.3,463.9z"/>
		<path fill="#B4835E" d="M1002.7,375c10.7-14.8,27.9-24.3,47.6-24.3c6.1,0,11.9,0.9,17.4,2.6c-2.5-4.1-4-9-4-14.2
			c0-15,12.1-27.1,27.1-27.1c15,0,27.1,12.1,27.1,27.1c0,15-12.1,27.1-27.1,27.1c-0.2,0-0.4,0-0.7,0c11.7,10.8,19.1,26.2,19.1,43.4
			c0,14.2-5,27.2-13.4,37.4c20.9,6,36.2,25.3,36.2,48.1c0,27.7-22.4,50.1-50.1,50.1c-3.3,0-6.5-0.3-9.7-0.9l0,0L900.9,507
			c3,0.4,6,0.7,9.1,0.7c28,0,51.6-18.4,59.4-43.8c0.6-2,1.1-4.1,1.6-6.2l9.2-33.9l11.4-42.2c3.5-1.2,7.2-3,10.7-6L1002.7,375z"/>
	</g>
	<path fill="#BC4B2F" d="M1110.7,339.2c0,11-8.9,19.9-19.9,19.9s-19.9-8.9-19.9-19.9c0-11,8.9-19.9,19.9-19.9
		S1110.7,328.2,1110.7,339.2z"/>
	<path fill="#BC4B2F" d="M1096.2,409.2c0,25.9-21,46.8-46.8,46.8c-25.9,0-46.8-21-46.8-46.8c0-25.9,21-46.8,46.8-46.8
		C1075.3,362.3,1096.2,383.3,1096.2,409.2z"/>
	<path fill="#B4835E" d="M838,499c0,0,13.7-6.9,5.4-18.1l-14.8-18.8"/>
	<path fill="#B4835E" d="M978.1,382c-18.2-1.9-38.1-8.8-40.6-34.8V199.6h-0.2c-1.5-18.2-16.7-32.5-35.3-32.5
		c-18.6,0-33.8,14.3-35.3,32.5h-0.1v70l-0.2,0c-0.6,11.7-10.3,21.1-22.2,21.1c-7.8,0-14.7-4.1-18.7-10.2l-0.1,0.1L791,226l-0.1,0.1
		c-5.8-8.2-15.2-13.5-26-13.5c-17.6,0-31.8,14.2-31.8,31.8c0,5.7,1.5,11.1,4.2,15.8l0,0l1.1,1.8c0.1,0.1,0.1,0.2,0.2,0.3l38.6,61.3
		l0,0.1c2.2,3.5,3.5,7.7,3.5,12.2c0,7.5-3.6,14.1-9.2,18.2l0,0l63.7,96.6l3.1,4.2c14.8,22.8,30.7,41.2,56.6,41.2
		c42.9,0,60.6-25.4,66.7-53.2L978.1,382z"/>
	<g>
		<path fill="none" d="M762.5,440c-0.4-0.2-0.7-0.4-1.1-0.6C761.8,439.6,762.1,439.8,762.5,440z"/>
		<path fill="none" d="M760,438.5c-0.3-0.2-0.7-0.4-1-0.6C759.4,438.1,759.7,438.3,760,438.5z"/>
		<path fill="none" d="M765.1,441.1c-0.4-0.2-0.8-0.3-1.1-0.5C764.3,440.8,764.7,441,765.1,441.1z"/>
		<path fill="none" d="M757.6,436.8c-0.3-0.2-0.5-0.4-0.8-0.6C757,436.4,757.3,436.6,757.6,436.8z"/>
		<path fill="none" d="M767.8,442.1c-0.4-0.1-0.8-0.2-1.2-0.4C767,441.8,767.4,442,767.8,442.1z"/>
		<path fill="none" d="M773.5,443.2c-0.3,0-0.7-0.1-1-0.1C772.9,443.1,773.2,443.1,773.5,443.2z"/>
		<path fill="none" d="M770.6,442.8c-0.4-0.1-0.8-0.2-1.1-0.3C769.9,442.6,770.2,442.7,770.6,442.8z"/>
		<path fill="none" d="M745.7,414.8c0,0.6,0.1,1.2,0.2,1.8l0,0C745.8,416,745.8,415.4,745.7,414.8z"/>
		<path fill="#B4835E" d="M584.3,400.5l14.4-18.2c-4.8-7.7-4.6-17.8,1.4-25.4c7.6-9.6,21.4-11.2,31-3.6c0.8,0.6,1.5,1.3,2.2,2
			c10.2-9.4,25.9-10.2,37-1.4c11.8,9.3,14.2,26.1,6,38.3l19.9,43.4l49.7-18.9c-0.1-0.6-0.2-1.2-0.2-1.8c-0.1-0.8-0.1-1.6-0.1-2.4
			c0-16.5,12.9-29.9,29.2-30.8l-15.2-22.7c-0.8,0.1-1.6,0.1-2.5,0.1c-4.7,0-9-1.4-12.6-3.7c-19.3-22.7-48-37-80.1-37
			c-52,0-95.1,37.7-103.7,87.2C567.5,400.2,576.2,398.4,584.3,400.5z"/>
		<path fill="#B4835E" d="M834.8,474.5L834.8,474.5c-0.4-2.5-1.3-4.9-2.7-6.9l0,0l-27.9-41.7c-5,10.3-15.6,17.5-27.8,17.5
			c-1,0-2-0.1-3-0.2c-0.3,0-0.7-0.1-1-0.1c-0.6-0.1-1.3-0.2-1.9-0.3c-0.4-0.1-0.8-0.2-1.1-0.3c-0.6-0.1-1.1-0.3-1.7-0.4
			c-0.4-0.1-0.8-0.2-1.2-0.4c-0.5-0.2-1-0.4-1.5-0.6c-0.4-0.2-0.8-0.3-1.1-0.5c-0.5-0.2-1-0.5-1.5-0.7c-0.4-0.2-0.7-0.4-1.1-0.6
			c-0.5-0.3-0.9-0.6-1.4-0.8c-0.3-0.2-0.7-0.4-1-0.6c-0.5-0.3-1-0.7-1.5-1.1c-0.3-0.2-0.5-0.4-0.8-0.6h0l-57.3,22l-0.2,0.1
			c-0.6,0.3-1.2,0.5-1.8,0.6c-5.3,1.6-11.3,0.6-16-3.1c-2.3-1.8-4.1-4.2-5.2-6.7l0,0L656,404.6c-7.3,0.9-14.9-1-21.2-5.9
			c-3.1-2.4-5.5-5.3-7.3-8.5c-4.7,2.5-10.2,3.1-15.4,1.9l-13.7,17.3c8.3,9.8,8.9,24.4,0.6,34.8c-8.9,11.2-24.8,13.7-36.5,6
			c11.8,45.2,52.9,78.6,101.8,78.6c27,0,51.5-10.2,70.1-26.8c6.4-6.6,15.4-10.8,25.3-10.8c19.5,0,35.3,15.8,35.3,35.3
			c0,0.6-0.1,1.3-0.1,1.9c1.5-9.6,9.8-16.9,19.8-16.9c4,0,7.7,1.2,10.8,3.2c1.3-7.4,6.6-13.4,13.7-15.6L834.8,474.5z"/>
		<path fill="none" d="M795.9,412.4c0-8.3-5.2-15.3-12.6-18.1l12.5,18.8C795.8,412.9,795.9,412.6,795.9,412.4z"/>
		<path fill="#B4835E" d="M757.2,412.4c0,10.7,8.7,19.3,19.3,19.3c10.5,0,19-8.3,19.3-18.7l-12.5-18.8c-2.1-0.8-4.4-1.2-6.8-1.2
			C765.8,393.1,757.2,401.7,757.2,412.4z"/>
		<path fill="#BC4B2F" d="M745.6,412.4c0,0.8,0.1,1.6,0.1,2.4c0.1,0.6,0.1,1.2,0.2,1.8l0,0c1.1,7.9,5.1,14.8,10.9,19.6
			c0.2,0.2,0.5,0.4,0.8,0.6c0.5,0.4,1,0.8,1.5,1.1c0.3,0.2,0.7,0.4,1,0.6c0.5,0.3,0.9,0.6,1.4,0.8c0.4,0.2,0.7,0.4,1.1,0.6
			c0.5,0.2,1,0.5,1.5,0.7c0.4,0.2,0.8,0.3,1.1,0.5c0.5,0.2,1,0.4,1.5,0.6c0.4,0.1,0.8,0.3,1.2,0.4c0.6,0.2,1.1,0.3,1.7,0.4
			c0.4,0.1,0.7,0.2,1.1,0.3c0.6,0.1,1.3,0.2,1.9,0.3c0.3,0,0.7,0.1,1,0.1c1,0.1,2,0.2,3,0.2c12.3,0,22.8-7.2,27.8-17.5l-8.5-12.8
			c-0.4,10.4-8.9,18.7-19.3,18.7c-10.7,0-19.3-8.7-19.3-19.3c0-10.7,8.7-19.3,19.3-19.3c2.4,0,4.7,0.4,6.8,1.2l-8.5-12.7
			C758.5,382.5,745.6,395.9,745.6,412.4z"/>
		<path fill="#BC4B2F" d="M599.1,444.1c8.3-10.5,7.7-25-0.6-34.8l13.7-17.3c5.2,1.2,10.6,0.6,15.4-1.9c1.8,3.2,4.2,6.1,7.3,8.5
			c6.2,4.9,13.9,6.8,21.2,5.9l20.2,44.5l0,0c1.1,2.5,2.9,4.8,5.2,6.7c4.7,3.7,10.7,4.7,16,3.1c0.6-0.2,1.2-0.4,1.8-0.6l0.2-0.1
			l57.3-22h0c-5.8-4.8-9.8-11.7-10.9-19.6l-49.7,18.9l-19.9-43.4c8.3-12.3,5.8-29-6-38.3c-11.2-8.8-26.9-7.9-37,1.4
			c-0.7-0.7-1.4-1.4-2.2-2c-9.6-7.6-23.4-5.9-31,3.6c-5.9,7.5-6.2,17.7-1.4,25.4l-14.4,18.2c-8.1-2.1-16.8-0.3-23.6,4.9
			c-1,5.9-1.6,11.9-1.6,18.1c0,9.2,1.2,18.2,3.4,26.7C574.4,457.8,590.2,455.4,599.1,444.1z"/>
		<path fill="#2C3E50" d="M776.5,443.3c-1,0-2-0.1-3-0.2C774.5,443.3,775.5,443.3,776.5,443.3z"/>
		<path fill="#2C3E50" d="M772.6,443.1c-0.6-0.1-1.3-0.2-1.9-0.3C771.3,442.9,771.9,443,772.6,443.1z"/>
		<path fill="#2C3E50" d="M766.7,441.7c-0.5-0.2-1-0.4-1.5-0.6C765.6,441.3,766.1,441.5,766.7,441.7z"/>
		<path fill="#2C3E50" d="M769.5,442.5c-0.6-0.1-1.1-0.3-1.7-0.4C768.4,442.2,768.9,442.4,769.5,442.5z"/>
		<path fill="#2C3E50" d="M761.4,439.4c-0.5-0.3-0.9-0.6-1.4-0.8C760.5,438.8,760.9,439.1,761.4,439.4z"/>
		<path fill="#2C3E50" d="M759,437.9c-0.5-0.3-1-0.7-1.5-1.1C758,437.2,758.5,437.5,759,437.9z"/>
		<path fill="#2C3E50" d="M745.7,414.8c-0.1-0.8-0.1-1.6-0.1-2.4C745.6,413.2,745.6,414,745.7,414.8z"/>
		<path fill="#2C3E50" d="M764,440.7c-0.5-0.2-1-0.5-1.5-0.7C763,440.2,763.5,440.4,764,440.7z"/>
	</g>
</g>
</svg>
