<!-- Generator: Adobe Illustrator 18.1.1, SVG Export Plug-In  -->
<svg version="1.1"
	 xmlns="http://www.w3.org/2000/svg" xmlns:xlink="http://www.w3.org/1999/xlink" xmlns:a="http://ns.adobe.com/AdobeSVGViewerExtensions/3.0/"
	 x="0px" y="0px" width="336.9px" height="175.4px" viewBox="0 0 336.9 175.4" enable-background="new 0 0 336.9 175.4"
	 xml:space="preserve">
<defs>
</defs>
<g>
	<path fill="#BC4B2F" d="M58.1,33.3c-0.1-3-0.7-5.9-1.8-8.5c-0.2-0.4-0.3-0.8-0.5-1.1c-1.2-2.5-2.9-4.8-4.8-6.8
		c-0.3-0.3-0.6-0.6-0.9-0.9l-0.6,0.6c0.3,0.3,0.6,0.6,0.9,0.9c1.9,1.9,3.5,4.1,4.7,6.6c0.2,0.4,0.3,0.8,0.5,1.1
		c1.1,2.5,1.7,5.3,1.7,8.2c0,0.2,0,0.4,0,0.6c0,0.2,0,0.4,0,0.6c-0.1,2.7-0.6,5.3-1.6,7.8c-0.2,0.4-0.3,0.8-0.5,1.1
		c-1.2,2.6-2.8,5-4.8,7c-0.3,0.3-0.6,0.6-0.9,0.9c-2,1.8-4.3,3.3-6.9,4.4c-0.4,0.2-0.8,0.3-1.2,0.5l-0.2-0.4c-2.6,1-5.5,1.6-8.4,1.6
		v0.4c-0.2,0-0.4,0-0.6,0c-0.2,0-0.4,0-0.6,0v0.9c0.2,0,0.4,0,0.6,0c0.2,0,0.4,0,0.6,0c3.2-0.1,6.2-0.7,9-1.7
		c0.4-0.2,0.8-0.3,1.2-0.5c2.7-1.2,5.1-2.7,7.2-4.6c0.3-0.3,0.6-0.6,0.9-0.9c2.1-2.1,3.8-4.6,5-7.3c0.2-0.4,0.3-0.8,0.5-1.1
		c1-2.5,1.6-5.3,1.6-8.1c0-0.2,0-0.4,0-0.6C58.1,33.7,58.1,33.5,58.1,33.3z"/>
	<path fill="#BC4B2F" d="M21.2,11.2c-2.7,1.2-5.1,2.7-7.2,4.6c-0.3,0.3-0.6,0.6-0.9,0.9c-2.1,2.1-3.8,4.6-5,7.3
		c-0.2,0.4-0.3,0.8-0.5,1.1c-1,2.5-1.6,5.3-1.6,8.1c0,0.2,0,0.4,0,0.6c0,0.2,0,0.4,0,0.6h0.9c0-0.2,0-0.4,0-0.6c0-0.2,0-0.4,0-0.6
		c0.1-2.7,0.6-5.3,1.6-7.8c0.2-0.4,0.3-0.8,0.5-1.1c1.2-2.6,2.8-5,4.8-7c0.3-0.3,0.6-0.6,0.9-0.9c2-1.8,4.3-3.3,6.9-4.4
		c0.4-0.2,0.8-0.3,1.2-0.5l-0.4-0.8C22,10.9,21.6,11.1,21.2,11.2z"/>
</g>
<g>
	<path fill="#894B9D" d="M30,0c-4,0.1-7.9,1-11.4,2.4c-0.5,0.2-1,0.4-1.5,0.7C13.7,4.7,10.6,6.9,8,9.6c-0.4,0.4-0.8,0.8-1.2,1.2
		l0.8,0.9c0.4-0.4,0.8-0.8,1.2-1.2c2.6-2.5,5.5-4.6,8.8-6.2c0.5-0.2,1-0.5,1.5-0.7c3.4-1.4,7.1-2.2,10.9-2.3c0.3,0,0.5,0,0.8,0
		c0.3,0,0.5,0,0.8,0c3.6,0.1,7.1,0.8,10.4,2.1c0.5,0.2,1,0.4,1.5,0.6c3.5,1.6,6.6,3.8,9.3,6.5c0.4,0.4,0.8,0.8,1.2,1.2
		c2.4,2.7,4.4,5.8,5.9,9.2c0.2,0.5,0.4,1.1,0.6,1.6L60,22.7c1.3,3.5,2.1,7.3,2.2,11.2h0.6c0,0.3,0,0.6,0,0.9c0,0.3,0,0.6,0,0.9H64
		c0-0.3,0-0.6,0-0.9c0-0.3,0-0.6,0-0.9c-0.1-4.2-0.9-8.2-2.3-11.9c-0.2-0.5-0.4-1.1-0.6-1.6c-1.5-3.5-3.6-6.8-6.2-9.6
		c-0.4-0.4-0.8-0.8-1.2-1.2c-2.8-2.8-6.1-5.1-9.7-6.7c-0.5-0.2-1-0.4-1.5-0.6c-3.4-1.3-7-2.1-10.8-2.2c-0.3,0-0.5,0-0.8,0
		C30.6,0,30.3,0,30,0z"/>
	<path fill="#894B9D" d="M0.6,49.1c1.5,3.5,3.6,6.8,6.2,9.6c0.4,0.4,0.8,0.8,1.2,1.2c2.8,2.8,6.1,5.1,9.7,6.7c0.5,0.2,1,0.4,1.5,0.6
		c3.4,1.3,7,2.1,10.8,2.2c0.3,0,0.5,0,0.8,0c0.3,0,0.5,0,0.8,0v-1.2c-0.3,0-0.5,0-0.8,0c-0.3,0-0.6,0-0.8,0
		c-3.6-0.1-7.1-0.8-10.4-2.1c-0.5-0.2-1-0.4-1.5-0.6c-3.5-1.6-6.6-3.8-9.3-6.5c-0.4-0.4-0.8-0.8-1.2-1.2c-2.4-2.7-4.4-5.8-5.9-9.2
		c-0.2-0.5-0.4-1.1-0.6-1.6L0,47.6C0.2,48.1,0.4,48.6,0.6,49.1z"/>
</g>
<rect x="80" y="9.1" transform="matrix(0.9977 -6.736236e-02 6.736236e-02 0.9977 -5.465 14.0723)" fill="none" width="251.8" height="158"/>
<text transform="matrix(0.9977 -6.736000e-02 6.736000e-02 0.9977 77.9974 62.1627)"><tspan x="0" y="0" fill="#DAEBF1" font-family="'Bebas'" font-size="50" letter-spacing="-3">MUSIC </tspan><tspan x="0" y="38" fill="#DAEBF1" font-family="'Bebas'" font-size="38" letter-spacing="-2">BIOLOGY</tspan></text>
<g>
	<g>
		<path fill="#FFFFFF" d="M13.5,17.7h16.3l5.7,10l6.6-10h15.1l-12.2,17L58,53.5H42L35.4,42l-7.8,11.5H12.8l13-18.7L13.5,17.7z"/>
	</g>
</g>
</svg>
