<?xml version="1.0" encoding="utf-8"?>
<!-- Generator: Adobe Illustrator 19.2.0, SVG Export Plug-In . SVG Version: 6.00 Build 0)  -->
<svg version="1.1" id="Layer_1" xmlns="http://www.w3.org/2000/svg" xmlns:xlink="http://www.w3.org/1999/xlink" x="0px" y="0px"
	 viewBox="0 0 336.9 175.4" style="enable-background:new 0 0 336.9 175.4;" xml:space="preserve">
<style type="text/css">
	.st0{fill:#BC4B2F;}
	.st1{fill:#894B9D;}
	.st2{fill:none;}
	.st3{enable-background:new    ;}
	.st4{fill:#DAEBF1;}
	.st5{fill:#FFFFFF;}
</style>
<g>
	<path class="st0" d="M58.1,33.3c-0.1-3-0.7-5.9-1.8-8.5c-0.2-0.4-0.3-0.8-0.5-1.1c-1.2-2.5-2.9-4.8-4.8-6.8
		c-0.3-0.3-0.6-0.6-0.9-0.9l-0.6,0.6c0.3,0.3,0.6,0.6,0.9,0.9c1.9,1.9,3.5,4.1,4.7,6.6c0.2,0.4,0.3,0.8,0.5,1.1
		c1.1,2.5,1.7,5.3,1.7,8.2c0,0.2,0,0.4,0,0.6c0,0.2,0,0.4,0,0.6c-0.1,2.7-0.6,5.3-1.6,7.8c-0.2,0.4-0.3,0.8-0.5,1.1
		c-1.2,2.6-2.8,5-4.8,7c-0.3,0.3-0.6,0.6-0.9,0.9c-2,1.8-4.3,3.3-6.9,4.4c-0.4,0.2-0.8,0.3-1.2,0.5l-0.2-0.4c-2.6,1-5.5,1.6-8.4,1.6
		v0.4c-0.2,0-0.4,0-0.6,0c-0.2,0-0.4,0-0.6,0v0.9c0.2,0,0.4,0,0.6,0s0.4,0,0.6,0c3.2-0.1,6.2-0.7,9-1.7c0.4-0.2,0.8-0.3,1.2-0.5
		c2.7-1.2,5.1-2.7,7.2-4.6c0.3-0.3,0.6-0.6,0.9-0.9c2.1-2.1,3.8-4.6,5-7.3c0.2-0.4,0.3-0.8,0.5-1.1c1-2.5,1.6-5.3,1.6-8.1
		c0-0.2,0-0.4,0-0.6C58.1,33.7,58.1,33.5,58.1,33.3z"/>
	<path class="st0" d="M21.2,11.2c-2.7,1.2-5.1,2.7-7.2,4.6c-0.3,0.3-0.6,0.6-0.9,0.9c-2.1,2.1-3.8,4.6-5,7.3
		c-0.2,0.4-0.3,0.8-0.5,1.1c-1,2.5-1.6,5.3-1.6,8.1c0,0.2,0,0.4,0,0.6c0,0.2,0,0.4,0,0.6h0.9c0-0.2,0-0.4,0-0.6c0-0.2,0-0.4,0-0.6
		c0.1-2.7,0.6-5.3,1.6-7.8C8.7,25,8.8,24.6,9,24.3c1.2-2.6,2.8-5,4.8-7c0.3-0.3,0.6-0.6,0.9-0.9c2-1.8,4.3-3.3,6.9-4.4
		c0.4-0.2,0.8-0.3,1.2-0.5l-0.4-0.8C22,10.9,21.6,11.1,21.2,11.2z"/>
</g>
<g>
	<path class="st1" d="M30,0c-4,0.1-7.9,1-11.4,2.4c-0.5,0.2-1,0.4-1.5,0.7C13.7,4.7,10.6,6.9,8,9.6c-0.4,0.4-0.8,0.8-1.2,1.2
		l0.8,0.9c0.4-0.4,0.8-0.8,1.2-1.2c2.6-2.5,5.5-4.6,8.8-6.2c0.5-0.2,1-0.5,1.5-0.7c3.4-1.4,7.1-2.2,10.9-2.3c0.3,0,0.5,0,0.8,0
		s0.5,0,0.8,0c3.6,0.1,7.1,0.8,10.4,2.1c0.5,0.2,1,0.4,1.5,0.6c3.5,1.6,6.6,3.8,9.3,6.5c0.4,0.4,0.8,0.8,1.2,1.2
		c2.4,2.7,4.4,5.8,5.9,9.2c0.2,0.5,0.4,1.1,0.6,1.6L60,22.7c1.3,3.5,2.1,7.3,2.2,11.2h0.6c0,0.3,0,0.6,0,0.9c0,0.3,0,0.6,0,0.9H64
		c0-0.3,0-0.6,0-0.9c0-0.3,0-0.6,0-0.9c-0.1-4.2-0.9-8.2-2.3-11.9c-0.2-0.5-0.4-1.1-0.6-1.6c-1.5-3.5-3.6-6.8-6.2-9.6
		c-0.4-0.4-0.8-0.8-1.2-1.2c-2.8-2.8-6.1-5.1-9.7-6.7c-0.5-0.2-1-0.4-1.5-0.6c-3.4-1.3-7-2.1-10.8-2.2c-0.3,0-0.5,0-0.8,0
		S30.3,0,30,0z"/>
	<path class="st1" d="M0.6,49.1c1.5,3.5,3.6,6.8,6.2,9.6c0.4,0.4,0.8,0.8,1.2,1.2c2.8,2.8,6.1,5.1,9.7,6.7c0.5,0.2,1,0.4,1.5,0.6
		c3.4,1.3,7,2.1,10.8,2.2c0.3,0,0.5,0,0.8,0s0.5,0,0.8,0v-1.2c-0.3,0-0.5,0-0.8,0s-0.6,0-0.8,0c-3.6-0.1-7.1-0.8-10.4-2.1
		c-0.5-0.2-1-0.4-1.5-0.6c-3.5-1.6-6.6-3.8-9.3-6.5c-0.4-0.4-0.8-0.8-1.2-1.2c-2.4-2.7-4.4-5.8-5.9-9.2c-0.2-0.5-0.4-1.1-0.6-1.6
		L0,47.6C0.2,48.1,0.4,48.6,0.6,49.1z"/>
</g>
<rect x="80" y="9.1" transform="matrix(0.9977 -6.736426e-02 6.736426e-02 0.9977 -5.4671 14.0702)" class="st2" width="251.8" height="158"/>
<g class="st3">
	<path class="st4" d="M87,61.6L80.3,62l-3-44.4l9.6-0.6l8.4,31.5l3.8-32.3l9.2-0.6l3,44.4l-6.7,0.5l-1.9-27.9l-3.9,28.3l-5.4,0.4
		l-8.4-27.4L87,61.6z"/>
	<path class="st4" d="M125,59.5c-3,0.2-5.5-0.7-7.7-2.6c-2.2-1.9-3.4-4.3-3.6-7.3l-2.3-34.3l6.6-0.4l2.3,34.3
		c0.1,1.1,0.5,1.9,1.3,2.6c0.8,0.7,1.7,1,2.8,0.9c1.1-0.1,1.9-0.5,2.6-1.3c0.7-0.8,1-1.7,0.9-2.8l-2.3-34.3l7-0.5l2.3,34.3
		c0.2,3-0.7,5.6-2.6,7.7S127.9,59.3,125,59.5z"/>
	<path class="st4" d="M159.5,45.6c0.3,3.1-0.4,5.8-1.9,8.1c-1,1.6-2.4,2.7-4.4,3.5c-1,0.4-2.3,0.7-3.7,0.7c-2.6,0.2-4.8-0.3-6.7-1.5
		c-1.5-1-2.8-2.3-3.7-4.1c-1-1.8-1.6-3.8-1.9-6.2l6.3-0.9c0.5,2.6,1.3,4.4,2.4,5.5c0.9,0.8,1.8,1.2,2.8,1.1c1.5-0.1,2.6-0.9,3.4-2.4
		c0.4-0.7,0.6-1.7,0.5-3c-0.1-1.8-1.1-3.6-2.9-5.3c-1.4-1.2-3.5-2.9-6.3-5.2c-2.4-2-4.1-3.8-5.1-5.5c-1.1-1.8-1.8-3.9-1.9-6.1
		c-0.3-4,0.9-7.2,3.5-9.5c1.6-1.4,3.6-2.1,6.1-2.3c2.4-0.2,4.5,0.2,6.2,1.2c1.4,0.7,2.5,1.8,3.4,3.3c0.9,1.4,1.5,3.1,1.8,5l-6.3,1.6
		c-0.3-1.8-0.9-3.2-1.8-4.1c-0.7-0.7-1.6-1-2.7-0.9c-1.2,0.1-2.1,0.7-2.7,1.8c-0.5,0.9-0.6,2-0.6,3.3c0.1,2,1.2,4,3,6
		c0.7,0.8,1.8,1.6,3.2,2.6c1.6,1.2,2.7,2,3.3,2.5c1.8,1.5,3.1,3.1,4.2,4.6c0.5,0.7,0.9,1.4,1.2,2C158.9,42.9,159.4,44.3,159.5,45.6z
		"/>
	<path class="st4" d="M169.5,56l-6.7,0.5l-3-44.4l6.7-0.5L169.5,56z"/>
	<path class="st4" d="M183.1,55.6c-3,0.2-5.5-0.7-7.7-2.6c-2.2-1.9-3.4-4.4-3.6-7.3l-1.6-24.2c-0.2-3,0.7-5.5,2.6-7.7
		c1.9-2.2,4.4-3.4,7.3-3.6c3-0.2,5.5,0.7,7.7,2.6c2.2,1.9,3.4,4.4,3.6,7.3l0.3,5.1l-6.9,0.5l-0.4-5.2c-0.1-1.1-0.5-1.9-1.3-2.7
		c-0.8-0.7-1.7-1-2.8-0.9c-1.1,0.1-1.9,0.5-2.6,1.3c-0.7,0.8-1,1.7-0.9,2.8l1.6,24.3c0.1,1.1,0.5,1.9,1.3,2.6c0.8,0.7,1.7,1,2.8,0.9
		c1.1-0.1,1.9-0.5,2.7-1.3c0.7-0.8,1-1.7,1-2.8l-0.4-6.1l6.9-0.5l0.4,6.2c0.2,3-0.7,5.5-2.6,7.7C188.4,54.2,186,55.4,183.1,55.6z"/>
</g>
<g class="st3">
	<path class="st4" d="M89.9,99.9c-2.1,0.1-4-0.5-5.6-1.9c-1.6-1.4-2.5-3.1-2.6-5.2l-1.2-17.4c-0.1-2.1,0.5-4,1.9-5.6
		c1.4-1.6,3.1-2.5,5.3-2.6c2.1-0.1,4,0.5,5.6,1.9c1.6,1.4,2.4,3.1,2.6,5.3l0.2,3.6l-5,0.3l-0.3-3.8c-0.1-0.8-0.4-1.4-0.9-1.9
		c-0.6-0.5-1.3-0.7-2-0.7c-0.8,0.1-1.4,0.4-1.9,0.9c-0.5,0.6-0.7,1.3-0.7,2l1.2,17.5c0.1,0.8,0.4,1.4,0.9,1.9c0.6,0.5,1.2,0.7,2,0.7
		s1.4-0.4,1.9-0.9c0.5-0.6,0.7-1.2,0.7-2l-0.3-4.4l5-0.3l0.3,4.5c0.1,2.1-0.5,4-1.9,5.6C93.7,98.9,92,99.7,89.9,99.9z"/>
	<path class="st4" d="M107.1,98.6c-2.1,0.1-4-0.5-5.6-1.9c-1.6-1.4-2.4-3.1-2.6-5.2l-1.7-24.7l4.7-0.3l1.7,24.7
		c0.1,0.8,0.4,1.4,0.9,1.9c0.6,0.5,1.3,0.7,2,0.7c0.8-0.1,1.4-0.4,1.9-0.9c0.5-0.6,0.7-1.2,0.7-2l-1.7-24.7l5-0.3l1.7,24.7
		c0.1,2.1-0.5,4-1.9,5.6C111,97.6,109.2,98.5,107.1,98.6z"/>
	<path class="st4" d="M130.2,96.7L117,97.6l-2.2-32l4.8-0.3l1.8,27.2l8.3-0.6L130.2,96.7z"/>
	<path class="st4" d="M130.1,69.5l-5.1,0.3l-0.3-4.8l15-1l0.3,4.8l-5.1,0.3l1.8,27.1l-4.8,0.3L130.1,69.5z"/>
	<path class="st4" d="M151.3,95.7c-2.1,0.1-4-0.5-5.6-1.9c-1.6-1.4-2.4-3.1-2.6-5.2l-1.7-24.7l4.7-0.3l1.7,24.7
		c0.1,0.8,0.4,1.4,0.9,1.9c0.6,0.5,1.3,0.7,2,0.7c0.8-0.1,1.4-0.4,1.9-0.9c0.5-0.6,0.7-1.2,0.7-2l-1.7-24.7l5-0.3l1.7,24.7
		c0.1,2.1-0.5,4-1.9,5.6C155.2,94.7,153.5,95.5,151.3,95.7z"/>
	<path class="st4" d="M166.7,62.1c2.7-0.2,4.7,0.4,6.1,1.8c1.2,1.2,1.9,3,2,5.3l0.3,4.6c0.2,2.3-0.6,4.2-2.2,5.9l4.5,13.7l-5.2,0.4
		L168.5,82c-0.1,0-0.3,0-0.4,0l-2.8,0.2l0.8,12l-4.8,0.3l-2.2-32L166.7,62.1z M170.1,69.7c-0.1-1.9-1.1-2.7-2.9-2.6l-2.9,0.2
		l0.7,10.2l2.9-0.2c0.8-0.1,1.4-0.4,1.9-0.9c0.5-0.6,0.7-1.3,0.7-2L170.1,69.7z"/>
	<path class="st4" d="M179.6,93.4l-2.2-32l13.7-0.9l0.3,4.8l-8.9,0.6l0.6,8.7l6.5-0.4l0.3,4.8l-6.5,0.4l0.6,8.7l8.9-0.6l0.3,4.8
		L179.6,93.4z"/>
</g>
<g>
	<g>
		<path class="st5" d="M13.5,17.7h16.3l5.7,10l6.6-10h15.1L45,34.7l13,18.8H42L35.4,42l-7.8,11.5H12.8l13-18.7L13.5,17.7z"/>
	</g>
</g>
</svg>
