<!-- Generator: Adobe Illustrator 18.1.1, SVG Export Plug-In  -->
<svg version="1.1"
	 xmlns="http://www.w3.org/2000/svg" xmlns:xlink="http://www.w3.org/1999/xlink" xmlns:a="http://ns.adobe.com/AdobeSVGViewerExtensions/3.0/"
	 x="0px" y="0px" width="187.3px" height="176.2px" viewBox="0 0 187.3 176.2" enable-background="new 0 0 187.3 176.2"
	 xml:space="preserve">
<defs>
</defs>
<g>
	<path fill="#7F5634" d="M187.3,93.6C187.3,41.9,145.4,0,93.6,0C41.9,0,0,41.9,0,93.6c0,0.5,0,0.9,0,1.4v81.1l138.6-0.2l0,0.2H187
		v-75.8C187.2,98.1,187.3,95.9,187.3,93.6z M102.4,136.4l21.1,0.6l11.7,10.2l0.6,4.8L102.4,136.4z"/>
	<path fill="#F7BB82" d="M173.1,70L173.1,70L93.4,18.2L14,70l-0.2-0.1C12.6,75.3,12,81,12,86.7c0,45,36.5,81.6,81.6,81.6
		c45,0,81.6-36.5,81.6-81.6C175.2,80.4,174.5,76,173.1,70z"/>
</g>
<circle fill="#FFFFFF" cx="68" cy="69.8" r="13.7"/>
<circle cx="68" cy="69.8" r="5.4"/>
<circle fill="#FFFFFF" cx="119.3" cy="69.8" r="13.7"/>
<circle cx="119.3" cy="69.8" r="5.4"/>
<g>
	<path fill="#AD351E" d="M96.8,121.8c0,0.2,0,0.3,0,0.5c0,1.8-1.4,3.2-3.2,3.2c-1.8,0-3.2-1.4-3.2-3.2c0-0.2,0-0.3,0-0.5H66.5
		c0,15,12.1,27.1,27.1,27.1c15,0,27.1-12.1,27.1-27.1H96.8z"/>
</g>
</svg>
