<?xml version="1.0" encoding="utf-8"?>
<!-- Generator: Adobe Illustrator 19.2.0, SVG Export Plug-In . SVG Version: 6.00 Build 0)  -->
<svg version="1.1" id="Layer_1" xmlns="http://www.w3.org/2000/svg" xmlns:xlink="http://www.w3.org/1999/xlink" x="0px" y="0px"
	 viewBox="0 0 430 284.9" style="enable-background:new 0 0 430 284.9;" xml:space="preserve">
<style type="text/css">
	.st0{opacity:0.7;fill:#009444;enable-background:new    ;}
	.st1{enable-background:new    ;}
	.st2{fill:#FFFFFF;}
	.st3{opacity:0.4;}
	.st4{fill:#009444;}
</style>
<rect y="15.9" class="st0" width="232" height="59"/>
<g class="st1">
	<path class="st2" d="M16,41.9l2.5-13l4.1,9.4L27,29l2.3,13h-1.9l-1.2-7.3l-3.6,7.8l-3.5-7.8l-1.3,7.3H16z"/>
	<path class="st2" d="M33.3,34.3v4.4c0,1.3,0.5,1.9,1.5,1.9c1,0,1.5-0.6,1.5-1.9v-4.4H38v4.4c0,0.6-0.1,1.1-0.2,1.6
		c-0.1,0.4-0.4,0.8-0.8,1.1c-0.6,0.5-1.3,0.8-2.3,0.8c-0.9,0-1.7-0.3-2.3-0.8c-0.4-0.3-0.6-0.7-0.8-1.1c-0.1-0.4-0.2-0.9-0.2-1.6
		v-4.4H33.3z"/>
	<path class="st2" d="M44.6,35.6l-1.5,0.8c-0.2-0.5-0.5-0.7-0.9-0.7c-0.2,0-0.3,0.1-0.4,0.2c-0.1,0.1-0.2,0.2-0.2,0.4
		c0,0.3,0.3,0.6,1,0.9c0.9,0.4,1.6,0.8,1.9,1.1c0.3,0.3,0.5,0.8,0.5,1.4c0,0.7-0.3,1.3-0.8,1.8c-0.5,0.5-1.2,0.7-1.9,0.7
		c-1.3,0-2.2-0.6-2.7-1.9l1.5-0.7c0.2,0.4,0.4,0.6,0.5,0.7c0.2,0.2,0.5,0.3,0.8,0.3c0.6,0,0.9-0.3,0.9-0.8c0-0.3-0.2-0.6-0.7-0.9
		c-0.2-0.1-0.4-0.2-0.5-0.3c-0.2-0.1-0.4-0.2-0.5-0.3c-0.5-0.2-0.9-0.5-1.1-0.8c-0.3-0.3-0.4-0.7-0.4-1.2c0-0.7,0.2-1.2,0.7-1.6
		c0.5-0.4,1-0.6,1.7-0.6C43.4,34.1,44.2,34.6,44.6,35.6z"/>
	<path class="st2" d="M46.4,31.2c0-0.3,0.1-0.6,0.3-0.8c0.2-0.2,0.5-0.3,0.8-0.3c0.3,0,0.6,0.1,0.8,0.3c0.2,0.2,0.3,0.5,0.3,0.8
		s-0.1,0.6-0.3,0.8c-0.2,0.2-0.5,0.3-0.8,0.3c-0.3,0-0.6-0.1-0.8-0.3C46.6,31.8,46.4,31.5,46.4,31.2z M48.5,34.3v7.6h-1.8v-7.6H48.5
		z"/>
	<path class="st2" d="M56.6,34.7V37c-0.4-0.5-0.8-0.8-1.1-1c-0.3-0.2-0.7-0.3-1.1-0.3c-0.7,0-1.2,0.2-1.6,0.7s-0.7,1-0.7,1.7
		c0,0.7,0.2,1.3,0.6,1.8c0.4,0.5,1,0.7,1.6,0.7c0.4,0,0.8-0.1,1.1-0.3c0.3-0.2,0.7-0.5,1.1-1v2.3c-0.7,0.4-1.4,0.6-2.1,0.6
		c-1.2,0-2.2-0.4-3-1.1c-0.8-0.8-1.2-1.7-1.2-2.9s0.4-2.1,1.2-2.9c0.8-0.8,1.8-1.2,3-1.2C55.2,34.1,55.9,34.3,56.6,34.7z"/>
	<path class="st2" d="M63.3,28.8H65V35c0.6-0.6,1.3-0.8,2.1-0.8c0.9,0,1.5,0.3,2.1,0.8c0.4,0.5,0.7,1.3,0.7,2.3v4.7H68v-4.5
		c0-0.6-0.1-1.1-0.3-1.3c-0.2-0.3-0.6-0.4-1-0.4c-0.6,0-1,0.2-1.3,0.6c-0.2,0.4-0.4,1-0.4,2v3.7h-1.8V28.8z"/>
	<path class="st2" d="M77.6,34.3h1.8v7.6h-1.8v-0.8c-0.7,0.7-1.5,1-2.3,1c-1.1,0-1.9-0.4-2.6-1.1c-0.7-0.8-1-1.7-1-2.9
		c0-1.1,0.3-2.1,1-2.9c0.7-0.8,1.5-1.1,2.6-1.1c0.9,0,1.7,0.4,2.4,1.1V34.3z M73.5,38.1c0,0.7,0.2,1.3,0.6,1.8
		c0.4,0.5,0.9,0.7,1.5,0.7c0.7,0,1.2-0.2,1.6-0.7c0.4-0.5,0.6-1.1,0.6-1.8s-0.2-1.3-0.6-1.8c-0.4-0.5-0.9-0.7-1.6-0.7
		c-0.6,0-1.1,0.2-1.5,0.7C73.7,36.9,73.5,37.4,73.5,38.1z"/>
	<path class="st2" d="M86,35.6l-1.5,0.8c-0.2-0.5-0.5-0.7-0.9-0.7c-0.2,0-0.3,0.1-0.4,0.2c-0.1,0.1-0.2,0.2-0.2,0.4
		c0,0.3,0.3,0.6,1,0.9c0.9,0.4,1.6,0.8,1.9,1.1c0.3,0.3,0.5,0.8,0.5,1.4c0,0.7-0.3,1.3-0.8,1.8c-0.5,0.5-1.2,0.7-1.9,0.7
		c-1.3,0-2.2-0.6-2.7-1.9l1.5-0.7c0.2,0.4,0.4,0.6,0.5,0.7c0.2,0.2,0.5,0.3,0.8,0.3c0.6,0,0.9-0.3,0.9-0.8c0-0.3-0.2-0.6-0.7-0.9
		c-0.2-0.1-0.4-0.2-0.5-0.3c-0.2-0.1-0.4-0.2-0.5-0.3c-0.5-0.2-0.9-0.5-1.1-0.8c-0.3-0.3-0.4-0.7-0.4-1.2c0-0.7,0.2-1.2,0.7-1.6
		c0.5-0.4,1-0.6,1.7-0.6C84.8,34.1,85.6,34.6,86,35.6z"/>
	<path class="st2" d="M94.9,36v6h-1.8v-6h-0.8v-1.6h0.8v-2.8h1.8v2.8h1.4V36H94.9z"/>
	<path class="st2" d="M97.7,28.8h1.8V35c0.6-0.6,1.3-0.8,2.1-0.8c0.9,0,1.5,0.3,2.1,0.8c0.4,0.5,0.7,1.3,0.7,2.3v4.7h-1.8v-4.5
		c0-0.6-0.1-1.1-0.3-1.3c-0.2-0.3-0.6-0.4-1-0.4c-0.6,0-1,0.2-1.3,0.6c-0.2,0.4-0.4,1-0.4,2v3.7h-1.8V28.8z"/>
	<path class="st2" d="M113.4,38.6H108c0,0.6,0.2,1.1,0.6,1.5c0.4,0.4,0.8,0.5,1.4,0.5c0.4,0,0.8-0.1,1.1-0.3c0.3-0.2,0.6-0.6,1-1.2
		l1.5,0.8c-0.2,0.4-0.5,0.7-0.7,1c-0.3,0.3-0.5,0.5-0.8,0.7c-0.3,0.2-0.6,0.3-0.9,0.4c-0.3,0.1-0.7,0.1-1.1,0.1
		c-1.1,0-2-0.4-2.7-1.1c-0.7-0.7-1-1.7-1-2.9c0-1.2,0.3-2.2,1-2.9c0.7-0.7,1.6-1.1,2.7-1.1c1.1,0,2,0.4,2.7,1.1c0.6,0.7,1,1.7,1,2.9
		L113.4,38.6z M111.6,37.1c-0.2-0.9-0.8-1.4-1.8-1.4c-0.2,0-0.4,0-0.6,0.1s-0.4,0.2-0.5,0.3c-0.2,0.1-0.3,0.3-0.4,0.4
		s-0.2,0.4-0.2,0.6H111.6z"/>
	<path class="st2" d="M125.9,34.3h1.8v7.6h-1.8v-0.8c-0.7,0.7-1.5,1-2.3,1c-1.1,0-1.9-0.4-2.6-1.1c-0.7-0.8-1-1.7-1-2.9
		c0-1.1,0.3-2.1,1-2.9c0.7-0.8,1.5-1.1,2.6-1.1c0.9,0,1.7,0.4,2.4,1.1V34.3z M121.7,38.1c0,0.7,0.2,1.3,0.6,1.8
		c0.4,0.5,0.9,0.7,1.5,0.7c0.7,0,1.2-0.2,1.6-0.7c0.4-0.5,0.6-1.1,0.6-1.8s-0.2-1.3-0.6-1.8c-0.4-0.5-0.9-0.7-1.6-0.7
		c-0.6,0-1.1,0.2-1.5,0.7C121.9,36.9,121.7,37.4,121.7,38.1z"/>
	<path class="st2" d="M131.7,28.8v6.5c0.7-0.7,1.5-1.1,2.4-1.1c1,0,1.9,0.4,2.6,1.1c0.7,0.8,1,1.7,1,2.8c0,1.2-0.3,2.1-1,2.9
		c-0.7,0.8-1.5,1.1-2.6,1.1c-0.9,0-1.7-0.3-2.4-1v0.8h-1.8V28.8H131.7z M135.8,38.2c0-0.7-0.2-1.3-0.6-1.8c-0.4-0.5-0.9-0.7-1.5-0.7
		c-0.6,0-1.2,0.2-1.6,0.7c-0.4,0.4-0.6,1-0.6,1.8c0,0.7,0.2,1.3,0.6,1.8c0.4,0.5,0.9,0.7,1.6,0.7c0.6,0,1.1-0.2,1.5-0.7
		C135.6,39.5,135.8,38.9,135.8,38.2z"/>
	<path class="st2" d="M139.2,31.2c0-0.3,0.1-0.6,0.3-0.8c0.2-0.2,0.5-0.3,0.8-0.3c0.3,0,0.6,0.1,0.8,0.3c0.2,0.2,0.3,0.5,0.3,0.8
		s-0.1,0.6-0.3,0.8c-0.2,0.2-0.5,0.3-0.8,0.3c-0.3,0-0.6-0.1-0.8-0.3C139.3,31.8,139.2,31.5,139.2,31.2z M141.3,34.3v7.6h-1.8v-7.6
		H141.3z"/>
	<path class="st2" d="M145.2,28.8v13.2h-1.8V28.8H145.2z"/>
	<path class="st2" d="M147.2,31.2c0-0.3,0.1-0.6,0.3-0.8c0.2-0.2,0.5-0.3,0.8-0.3c0.3,0,0.6,0.1,0.8,0.3c0.2,0.2,0.3,0.5,0.3,0.8
		s-0.1,0.6-0.3,0.8c-0.2,0.2-0.5,0.3-0.8,0.3c-0.3,0-0.6-0.1-0.8-0.3C147.3,31.8,147.2,31.5,147.2,31.2z M149.2,34.3v7.6h-1.8v-7.6
		H149.2z"/>
	<path class="st2" d="M153.3,36v6h-1.8v-6h-0.8v-1.6h0.8v-2.8h1.8v2.8h1.4V36H153.3z"/>
	<path class="st2" d="M158.2,40.5l-3.4-6.2h2l2.3,4.4l2.2-4.4h2l-6.1,11.8h-2L158.2,40.5z"/>
	<path class="st2" d="M171.3,36v6h-1.8v-6h-0.8v-1.6h0.8v-2.8h1.8v2.8h1.4V36H171.3z"/>
	<path class="st2" d="M173.6,38.1c0-1.1,0.4-2,1.2-2.8c0.8-0.8,1.7-1.2,2.9-1.2c1.1,0,2.1,0.4,2.9,1.2c0.8,0.8,1.2,1.7,1.2,2.9
		c0,1.1-0.4,2.1-1.2,2.9c-0.8,0.8-1.8,1.1-2.9,1.1c-1.1,0-2.1-0.4-2.9-1.2C174,40.2,173.6,39.3,173.6,38.1z M175.4,38.1
		c0,0.8,0.2,1.4,0.6,1.8c0.4,0.4,1,0.7,1.6,0.7c0.7,0,1.2-0.2,1.6-0.7c0.4-0.4,0.6-1,0.6-1.8s-0.2-1.3-0.6-1.8
		c-0.4-0.4-1-0.7-1.6-0.7c-0.7,0-1.2,0.2-1.6,0.7C175.6,36.8,175.4,37.4,175.4,38.1z"/>
	<path class="st2" d="M194.1,34.3h1.8v7.6h-1.8v-0.8c-0.7,0.7-1.5,1-2.3,1c-1.1,0-1.9-0.4-2.6-1.1c-0.7-0.8-1-1.7-1-2.9
		c0-1.1,0.3-2.1,1-2.9c0.7-0.8,1.5-1.1,2.6-1.1c0.9,0,1.7,0.4,2.4,1.1V34.3z M189.9,38.1c0,0.7,0.2,1.3,0.6,1.8
		c0.4,0.5,0.9,0.7,1.5,0.7c0.7,0,1.2-0.2,1.6-0.7c0.4-0.5,0.6-1.1,0.6-1.8s-0.2-1.3-0.6-1.8c-0.4-0.5-0.9-0.7-1.6-0.7
		c-0.6,0-1.1,0.2-1.5,0.7C190.1,36.9,189.9,37.4,189.9,38.1z"/>
	<path class="st2" d="M199.8,28.8v13.2h-1.8V28.8H199.8z"/>
	<path class="st2" d="M203.9,36v6h-1.8v-6h-0.8v-1.6h0.8v-2.8h1.8v2.8h1.4V36H203.9z"/>
	<path class="st2" d="M213.5,38.6h-5.5c0,0.6,0.2,1.1,0.6,1.5c0.4,0.4,0.8,0.5,1.4,0.5c0.4,0,0.8-0.1,1.1-0.3c0.3-0.2,0.6-0.6,1-1.2
		l1.5,0.8c-0.2,0.4-0.5,0.7-0.7,1c-0.3,0.3-0.5,0.5-0.8,0.7c-0.3,0.2-0.6,0.3-0.9,0.4c-0.3,0.1-0.7,0.1-1.1,0.1
		c-1.1,0-2-0.4-2.7-1.1c-0.7-0.7-1-1.7-1-2.9c0-1.2,0.3-2.2,1-2.9c0.7-0.7,1.6-1.1,2.7-1.1c1.1,0,2,0.4,2.7,1.1c0.6,0.7,1,1.7,1,2.9
		L213.5,38.6z M211.7,37.1c-0.2-0.9-0.8-1.4-1.8-1.4c-0.2,0-0.4,0-0.6,0.1s-0.4,0.2-0.5,0.3c-0.2,0.1-0.3,0.3-0.4,0.4
		s-0.2,0.4-0.2,0.6H211.7z"/>
	<path class="st2" d="M215.4,34.3h1.8V35c0.3-0.3,0.6-0.6,0.9-0.7c0.3-0.1,0.6-0.2,0.9-0.2c0.5,0,0.9,0.2,1.5,0.5l-0.8,1.6
		c-0.3-0.2-0.7-0.4-1-0.4c-1,0-1.4,0.7-1.4,2.2v3.9h-1.8V34.3z"/>
</g>
<g class="st1">
	<path class="st2" d="M17.9,47.9v6.5c0.7-0.7,1.5-1.1,2.4-1.1c1,0,1.9,0.4,2.6,1.1c0.7,0.8,1,1.7,1,2.8c0,1.2-0.3,2.1-1,2.9
		c-0.7,0.8-1.5,1.1-2.6,1.1c-0.9,0-1.7-0.3-2.4-1v0.8h-1.8V47.9H17.9z M22,57.4c0-0.7-0.2-1.3-0.6-1.8c-0.4-0.5-0.9-0.7-1.5-0.7
		c-0.6,0-1.2,0.2-1.6,0.7c-0.4,0.4-0.6,1-0.6,1.8c0,0.7,0.2,1.3,0.6,1.8c0.4,0.5,0.9,0.7,1.6,0.7c0.6,0,1.1-0.2,1.5-0.7
		C21.8,58.7,22,58.1,22,57.4z"/>
	<path class="st2" d="M25.7,53.5h1.8v0.7c0.3-0.3,0.6-0.6,0.9-0.7c0.3-0.1,0.6-0.2,0.9-0.2c0.5,0,0.9,0.2,1.5,0.5l-0.8,1.6
		c-0.3-0.2-0.7-0.4-1-0.4c-1,0-1.4,0.7-1.4,2.2v3.9h-1.8V53.5z"/>
	<path class="st2" d="M38.5,57.8h-5.5c0,0.6,0.2,1.1,0.6,1.5c0.4,0.4,0.8,0.5,1.4,0.5c0.4,0,0.8-0.1,1.1-0.3c0.3-0.2,0.6-0.6,1-1.2
		l1.5,0.8c-0.2,0.4-0.5,0.7-0.7,1c-0.3,0.3-0.5,0.5-0.8,0.7c-0.3,0.2-0.6,0.3-0.9,0.4c-0.3,0.1-0.7,0.1-1.1,0.1
		c-1.1,0-2-0.4-2.7-1.1c-0.7-0.7-1-1.7-1-2.9c0-1.2,0.3-2.2,1-2.9c0.7-0.7,1.6-1.1,2.7-1.1c1.1,0,2,0.4,2.7,1.1c0.6,0.7,1,1.7,1,2.9
		L38.5,57.8z M36.7,56.3c-0.2-0.9-0.8-1.4-1.8-1.4c-0.2,0-0.4,0-0.6,0.1s-0.4,0.2-0.5,0.3c-0.2,0.1-0.3,0.3-0.4,0.4
		s-0.2,0.4-0.2,0.6H36.7z"/>
	<path class="st2" d="M46,53.5h1.8v7.6H46v-0.8c-0.7,0.7-1.5,1-2.3,1c-1.1,0-1.9-0.4-2.6-1.1c-0.7-0.8-1-1.7-1-2.9
		c0-1.1,0.3-2.1,1-2.9c0.7-0.8,1.5-1.1,2.6-1.1c0.9,0,1.7,0.4,2.4,1.1V53.5z M41.9,57.3c0,0.7,0.2,1.3,0.6,1.8
		c0.4,0.5,0.9,0.7,1.5,0.7c0.7,0,1.2-0.2,1.6-0.7c0.4-0.5,0.6-1.1,0.6-1.8s-0.2-1.3-0.6-1.8c-0.4-0.5-0.9-0.7-1.6-0.7
		c-0.6,0-1.1,0.2-1.5,0.7C42.1,56.1,41.9,56.6,41.9,57.3z"/>
	<path class="st2" d="M51.8,55.2v6h-1.8v-6h-0.8v-1.6h0.8v-2.8h1.8v2.8h1.4v1.6H51.8z"/>
	<path class="st2" d="M54.7,47.9h1.8v6.2c0.6-0.6,1.3-0.8,2.1-0.8c0.9,0,1.5,0.3,2.1,0.8c0.4,0.5,0.7,1.3,0.7,2.3v4.7h-1.8v-4.5
		c0-0.6-0.1-1.1-0.3-1.3c-0.2-0.3-0.6-0.4-1-0.4c-0.6,0-1,0.2-1.3,0.6c-0.2,0.4-0.4,1-0.4,2v3.7h-1.8V47.9z"/>
	<path class="st2" d="M63.2,50.4c0-0.3,0.1-0.6,0.3-0.8c0.2-0.2,0.5-0.3,0.8-0.3c0.3,0,0.6,0.1,0.8,0.3c0.2,0.2,0.3,0.5,0.3,0.8
		s-0.1,0.6-0.3,0.8c-0.2,0.2-0.5,0.3-0.8,0.3c-0.3,0-0.6-0.1-0.8-0.3C63.3,51,63.2,50.7,63.2,50.4z M65.3,53.5v7.6h-1.8v-7.6H65.3z"
		/>
	<path class="st2" d="M67.5,53.5h1.8v0.7c0.6-0.6,1.3-0.9,2.1-0.9c0.9,0,1.6,0.3,2.1,0.8c0.4,0.5,0.6,1.2,0.6,2.3v4.7h-1.8v-4.2
		c0-0.8-0.1-1.3-0.3-1.6c-0.2-0.3-0.6-0.4-1.1-0.4c-0.6,0-1,0.2-1.2,0.6c-0.2,0.4-0.4,1-0.4,2v3.7h-1.8V53.5z"/>
	<path class="st2" d="M83.6,61c0,0.4,0,0.7,0,0.9s-0.1,0.5-0.1,0.7c-0.1,0.6-0.4,1.1-0.7,1.5c-0.7,0.8-1.6,1.2-2.8,1.2
		c-1,0-1.9-0.3-2.5-0.8c-0.7-0.6-1.1-1.3-1.2-2.3H78c0.1,0.4,0.2,0.7,0.3,0.9c0.4,0.5,0.9,0.7,1.6,0.7c1.3,0,1.9-0.8,1.9-2.4v-1.1
		c-0.7,0.7-1.5,1.1-2.4,1.1c-1,0-1.9-0.4-2.5-1.1c-0.7-0.8-1-1.7-1-2.9c0-1.1,0.3-2.1,0.9-2.8c0.7-0.8,1.5-1.2,2.6-1.2
		c1,0,1.8,0.4,2.4,1.1v-0.9h1.8V61z M81.9,57.4c0-0.7-0.2-1.3-0.6-1.8c-0.4-0.5-0.9-0.7-1.5-0.7c-0.7,0-1.2,0.2-1.6,0.7
		c-0.3,0.4-0.5,1-0.5,1.7c0,0.7,0.2,1.3,0.5,1.7c0.4,0.5,0.9,0.7,1.6,0.7s1.2-0.2,1.6-0.7C81.7,58.6,81.9,58,81.9,57.4z"/>
	<path class="st2" d="M96.4,53.5h1.8v7.6h-1.8v-0.8c-0.7,0.7-1.5,1-2.3,1c-1.1,0-1.9-0.4-2.6-1.1c-0.7-0.8-1-1.7-1-2.9
		c0-1.1,0.3-2.1,1-2.9c0.7-0.8,1.5-1.1,2.6-1.1c0.9,0,1.7,0.4,2.4,1.1V53.5z M92.2,57.3c0,0.7,0.2,1.3,0.6,1.8
		c0.4,0.5,0.9,0.7,1.5,0.7c0.7,0,1.2-0.2,1.6-0.7c0.4-0.5,0.6-1.1,0.6-1.8s-0.2-1.3-0.6-1.8c-0.4-0.5-0.9-0.7-1.6-0.7
		c-0.6,0-1.1,0.2-1.5,0.7C92.4,56.1,92.2,56.6,92.2,57.3z"/>
	<path class="st2" d="M100.4,53.5h1.8v0.7c0.6-0.6,1.3-0.9,2.1-0.9c0.9,0,1.6,0.3,2.1,0.8c0.4,0.5,0.6,1.2,0.6,2.3v4.7h-1.8v-4.2
		c0-0.8-0.1-1.3-0.3-1.6c-0.2-0.3-0.6-0.4-1.1-0.4c-0.6,0-1,0.2-1.2,0.6c-0.2,0.4-0.4,1-0.4,2v3.7h-1.8V53.5z"/>
	<path class="st2" d="M114.7,47.9h1.8v13.2h-1.8v-0.8c-0.7,0.7-1.5,1-2.4,1c-1,0-1.9-0.4-2.6-1.1c-0.7-0.8-1-1.7-1-2.9
		c0-1.1,0.3-2.1,1-2.8c0.7-0.8,1.5-1.1,2.6-1.1c0.9,0,1.7,0.4,2.4,1.1V47.9z M110.6,57.3c0,0.7,0.2,1.3,0.6,1.8
		c0.4,0.5,0.9,0.7,1.5,0.7c0.7,0,1.2-0.2,1.6-0.7c0.4-0.5,0.6-1.1,0.6-1.8s-0.2-1.3-0.6-1.8c-0.4-0.5-0.9-0.7-1.6-0.7
		c-0.6,0-1.1,0.2-1.5,0.7C110.8,56.1,110.6,56.6,110.6,57.3z"/>
	<path class="st2" d="M123.7,47.9h1.8v6.2c0.6-0.6,1.3-0.8,2.1-0.8c0.9,0,1.5,0.3,2.1,0.8c0.4,0.5,0.7,1.3,0.7,2.3v4.7h-1.8v-4.5
		c0-0.6-0.1-1.1-0.3-1.3c-0.2-0.3-0.6-0.4-1-0.4c-0.6,0-1,0.2-1.3,0.6c-0.2,0.4-0.4,1-0.4,2v3.7h-1.8V47.9z"/>
	<path class="st2" d="M139.4,57.8h-5.5c0,0.6,0.2,1.1,0.6,1.5c0.4,0.4,0.8,0.5,1.4,0.5c0.4,0,0.8-0.1,1.1-0.3c0.3-0.2,0.6-0.6,1-1.2
		l1.5,0.8c-0.2,0.4-0.5,0.7-0.7,1c-0.3,0.3-0.5,0.5-0.8,0.7c-0.3,0.2-0.6,0.3-0.9,0.4c-0.3,0.1-0.7,0.1-1.1,0.1
		c-1.1,0-2-0.4-2.7-1.1c-0.7-0.7-1-1.7-1-2.9c0-1.2,0.3-2.2,1-2.9c0.7-0.7,1.6-1.1,2.7-1.1c1.1,0,2,0.4,2.7,1.1c0.6,0.7,1,1.7,1,2.9
		L139.4,57.8z M137.6,56.3c-0.2-0.9-0.8-1.4-1.8-1.4c-0.2,0-0.4,0-0.6,0.1s-0.4,0.2-0.5,0.3c-0.2,0.1-0.3,0.3-0.4,0.4
		s-0.2,0.4-0.2,0.6H137.6z"/>
	<path class="st2" d="M146.9,53.5h1.8v7.6h-1.8v-0.8c-0.7,0.7-1.5,1-2.3,1c-1.1,0-1.9-0.4-2.6-1.1c-0.7-0.8-1-1.7-1-2.9
		c0-1.1,0.3-2.1,1-2.9c0.7-0.8,1.5-1.1,2.6-1.1c0.9,0,1.7,0.4,2.4,1.1V53.5z M142.7,57.3c0,0.7,0.2,1.3,0.6,1.8
		c0.4,0.5,0.9,0.7,1.5,0.7c0.7,0,1.2-0.2,1.6-0.7c0.4-0.5,0.6-1.1,0.6-1.8s-0.2-1.3-0.6-1.8c-0.4-0.5-0.9-0.7-1.6-0.7
		c-0.6,0-1.1,0.2-1.5,0.7C142.9,56.1,142.7,56.6,142.7,57.3z"/>
	<path class="st2" d="M150.9,53.5h1.8v0.7c0.3-0.3,0.6-0.6,0.9-0.7c0.3-0.1,0.6-0.2,0.9-0.2c0.5,0,0.9,0.2,1.5,0.5l-0.8,1.6
		c-0.3-0.2-0.7-0.4-1-0.4c-1,0-1.4,0.7-1.4,2.2v3.9h-1.8V53.5z"/>
	<path class="st2" d="M159.3,55.2v6h-1.8v-6h-0.8v-1.6h0.8v-2.8h1.8v2.8h1.4v1.6H159.3z"/>
	<path class="st2" d="M166.8,53.5h1.8v0.7c0.3-0.3,0.6-0.6,0.9-0.7c0.3-0.1,0.6-0.2,0.9-0.2c0.5,0,0.9,0.2,1.5,0.5l-0.8,1.6
		c-0.3-0.2-0.7-0.4-1-0.4c-1,0-1.4,0.7-1.4,2.2v3.9h-1.8V53.5z"/>
	<path class="st2" d="M178.2,53.5h1.8v7.6h-1.8v-0.8c-0.7,0.7-1.5,1-2.3,1c-1.1,0-1.9-0.4-2.6-1.1c-0.7-0.8-1-1.7-1-2.9
		c0-1.1,0.3-2.1,1-2.9c0.7-0.8,1.5-1.1,2.6-1.1c0.9,0,1.7,0.4,2.4,1.1V53.5z M174.1,57.3c0,0.7,0.2,1.3,0.6,1.8
		c0.4,0.5,0.9,0.7,1.5,0.7c0.7,0,1.2-0.2,1.6-0.7c0.4-0.5,0.6-1.1,0.6-1.8s-0.2-1.3-0.6-1.8c-0.4-0.5-0.9-0.7-1.6-0.7
		c-0.6,0-1.1,0.2-1.5,0.7C174.3,56.1,174.1,56.6,174.1,57.3z"/>
	<path class="st2" d="M184,55.2v6h-1.8v-6h-0.8v-1.6h0.8v-2.8h1.8v2.8h1.4v1.6H184z"/>
	<path class="st2" d="M193.7,57.8h-5.5c0,0.6,0.2,1.1,0.6,1.5c0.4,0.4,0.8,0.5,1.4,0.5c0.4,0,0.8-0.1,1.1-0.3c0.3-0.2,0.6-0.6,1-1.2
		l1.5,0.8c-0.2,0.4-0.5,0.7-0.7,1c-0.3,0.3-0.5,0.5-0.8,0.7c-0.3,0.2-0.6,0.3-0.9,0.4c-0.3,0.1-0.7,0.1-1.1,0.1
		c-1.1,0-2-0.4-2.7-1.1c-0.7-0.7-1-1.7-1-2.9c0-1.2,0.3-2.2,1-2.9c0.7-0.7,1.6-1.1,2.7-1.1c1.1,0,2,0.4,2.7,1.1c0.6,0.7,1,1.7,1,2.9
		L193.7,57.8z M191.9,56.3c-0.2-0.9-0.8-1.4-1.8-1.4c-0.2,0-0.4,0-0.6,0.1s-0.4,0.2-0.5,0.3c-0.2,0.1-0.3,0.3-0.4,0.4
		s-0.2,0.4-0.2,0.6H191.9z"/>
	<path class="st2" d="M195.9,60.3c0-0.3,0.1-0.5,0.3-0.8c0.2-0.2,0.5-0.3,0.8-0.3s0.6,0.1,0.8,0.3c0.2,0.2,0.3,0.5,0.3,0.8
		c0,0.3-0.1,0.6-0.3,0.8c-0.2,0.2-0.5,0.3-0.8,0.3c-0.3,0-0.6-0.1-0.8-0.3C196,60.8,195.9,60.6,195.9,60.3z"/>
</g>
<g class="st3">
	<path class="st4" d="M235,132.9c-0.1,0-0.2,0-0.3,0l-131-20c-1-0.1-1.7-1-1.7-2v-35c0-1.1,0.9-2,2-2s2,0.9,2,2v33.3L235.3,129
		c1.1,0.2,1.8,1.2,1.7,2.3C236.8,132.2,236,132.9,235,132.9z"/>
</g>
<path class="st0" d="M402.4,0c-2.4,0-4.8,0.3-7,0.9c-0.8,0.3-1.7,0.5-2.5,0.8C334.9,20.6,226,78.3,191,249.8c-0.3,1.5-0.6,3-0.9,4.5
	c-0.1,1.1-0.2,2.1-0.2,3.2c0,14.1,10.6,25.7,24.2,27.4h6.9h177.9h7.1c13.1-1.7,23.3-12.5,24.1-25.8v-3.3V29v-2.6
	C429.4,11.7,417.2,0,402.4,0z"/>
<g>
	<g class="st1">
		<path class="st2" d="M297.3,154.8c1.5,0,2.7,0.5,3.8,1.6c1,1,1.6,2.3,1.6,3.8v12.1c0,1.5-0.5,2.7-1.6,3.8c-1,1-2.3,1.6-3.8,1.6
			c-1.5,0-2.7-0.5-3.8-1.6c-1-1-1.5-2.3-1.5-3.8v-12.1c0-1.5,0.5-2.7,1.6-3.8S295.9,154.8,297.3,154.8z M299.1,160.1
			c0-0.5-0.2-1-0.6-1.4c-0.4-0.4-0.8-0.6-1.4-0.6c-0.5,0-1,0.2-1.4,0.6c-0.4,0.4-0.6,0.8-0.6,1.4v12.2c0,0.5,0.2,1,0.6,1.4
			c0.4,0.4,0.8,0.6,1.4,0.6c0.5,0,1-0.2,1.4-0.6c0.4-0.4,0.6-0.8,0.6-1.4V160.1z"/>
		<path class="st2" d="M310.9,177.7c-1.5,0-2.7-0.5-3.8-1.6c-1-1-1.6-2.3-1.6-3.8v-12.1c0-1.5,0.5-2.7,1.6-3.8c1-1,2.3-1.6,3.8-1.6
			c1.5,0,2.7,0.5,3.8,1.6c1,1,1.5,2.3,1.5,3.8v2.5h-3.5v-2.6c0-0.5-0.2-1-0.6-1.4c-0.4-0.4-0.8-0.6-1.4-0.6s-1,0.2-1.4,0.6
			c-0.4,0.4-0.6,0.8-0.6,1.4v12.2c0,0.5,0.2,1,0.6,1.4s0.8,0.6,1.4,0.6s1-0.2,1.4-0.6s0.6-0.8,0.6-1.4v-3.1h3.5v3.1
			c0,1.5-0.5,2.7-1.6,3.8C313.6,177.1,312.3,177.7,310.9,177.7z"/>
		<path class="st2" d="M324.2,177.7c-1.5,0-2.7-0.5-3.8-1.6c-1-1-1.6-2.3-1.6-3.8v-12.1c0-1.5,0.5-2.7,1.6-3.8c1-1,2.3-1.6,3.8-1.6
			c1.5,0,2.7,0.5,3.8,1.6c1,1,1.5,2.3,1.5,3.8v2.5H326v-2.6c0-0.5-0.2-1-0.6-1.4c-0.4-0.4-0.8-0.6-1.4-0.6s-1,0.2-1.4,0.6
			c-0.4,0.4-0.6,0.8-0.6,1.4v12.2c0,0.5,0.2,1,0.6,1.4s0.8,0.6,1.4,0.6s1-0.2,1.4-0.6s0.6-0.8,0.6-1.4v-3.1h3.5v3.1
			c0,1.5-0.5,2.7-1.6,3.8C326.9,177.1,325.7,177.7,324.2,177.7z"/>
		<path class="st2" d="M335.6,177.4h-3.4v-22.2h3.4V177.4z"/>
		<path class="st2" d="M343.9,155.1c1.6,0,2.9,0.5,3.9,1.5c0.9,1,1.3,2.2,1.3,3.8v3.2c0,1.5-0.5,2.7-1.5,3.8c-1,1-2.3,1.6-3.7,1.6
			H342v8.4h-3.4v-22.2H343.9z M345.9,160.5c0-0.6-0.2-1-0.5-1.4c-0.3-0.4-0.8-0.5-1.4-0.5h-2v7.1h2c0.5,0,1-0.2,1.4-0.6
			s0.6-0.8,0.6-1.4V160.5z"/>
		<path class="st2" d="M355.2,177.4h-3.4v-22.2h3.4V177.4z"/>
		<path class="st2" d="M361.5,158.5h-3.6v-3.4h10.5v3.4h-3.6v18.9h-3.4V158.5z"/>
		<path class="st2" d="M372.3,172.3l-0.8,5.1H368l3.8-22.2h4.6l3.7,22.2h-3.5l-0.8-5.1H372.3z M374.1,160.2l-1.2,8.8h2.5
			L374.1,160.2z"/>
		<path class="st2" d="M392.1,177.4H383v-22.2h3.4V174h5.8V177.4z"/>
	</g>
	<g class="st1">
		<path class="st2" d="M301.2,207.4H292v-22.2h3.4V204h5.8V207.4z"/>
		<path class="st2" d="M308.8,184.8c1.5,0,2.7,0.5,3.8,1.6c1,1,1.6,2.3,1.6,3.8v12.1c0,1.5-0.5,2.7-1.6,3.8c-1,1-2.3,1.6-3.8,1.6
			c-1.5,0-2.7-0.5-3.8-1.6c-1-1-1.5-2.3-1.5-3.8v-12.1c0-1.5,0.5-2.7,1.6-3.8S307.3,184.8,308.8,184.8z M310.6,190.1
			c0-0.5-0.2-1-0.6-1.4c-0.4-0.4-0.8-0.6-1.4-0.6c-0.5,0-1,0.2-1.4,0.6c-0.4,0.4-0.6,0.8-0.6,1.4v12.2c0,0.5,0.2,1,0.6,1.4
			c0.4,0.4,0.8,0.6,1.4,0.6c0.5,0,1-0.2,1.4-0.6c0.4-0.4,0.6-0.8,0.6-1.4V190.1z"/>
		<path class="st2" d="M317,207.4v-22.3h5c1.3,0,2.5,0.3,3.6,1c0.9,0.6,1.6,1.5,2,2.8c0.2,0.7,0.3,1.5,0.3,2.4
			c0,1.5-0.4,2.7-1.2,3.6c-0.3,0.4-0.7,0.7-1.2,0.9c0.7,0.3,1.4,0.8,1.9,1.7c0.3,0.6,0.6,1.3,0.8,2.2c0.1,0.5,0.1,1,0.1,1.5
			c0,1.4-0.3,2.6-0.8,3.6c-0.4,0.8-1,1.4-1.8,1.8c-0.9,0.5-1.7,0.8-2.5,0.8H317z M320.7,194.2h1.4c1,0,1.7-0.5,2.1-1.5
			c0.1-0.4,0.2-0.8,0.2-1.4c0-0.9-0.2-1.6-0.7-2.1c-0.4-0.4-1-0.7-1.6-0.7h-1.4V194.2z M320.7,204.1h1.4c1.1,0,1.9-0.6,2.4-1.8
			c0.2-0.4,0.2-0.9,0.2-1.4c0-1.2-0.2-2.1-0.7-2.7c-0.4-0.5-1.1-0.8-1.9-0.8h-1.4V204.1z"/>
		<path class="st2" d="M331.3,207.4v-22.3h9.6v3.4h-6.2v6.1h4.5v3.4h-4.5v6.1h6.2v3.4H331.3z"/>
	</g>
</g>
</svg>
