<!-- Generator: Adobe Illustrator 18.1.1, SVG Export Plug-In  -->
<svg version="1.1"
	 xmlns="http://www.w3.org/2000/svg" xmlns:xlink="http://www.w3.org/1999/xlink" xmlns:a="http://ns.adobe.com/AdobeSVGViewerExtensions/3.0/"
	 x="0px" y="0px" width="430px" height="284.9px" viewBox="0 0 430 284.9" enable-background="new 0 0 430 284.9"
	 xml:space="preserve">
<defs>
</defs>
<rect y="15.9" opacity="0.7" fill="#009444" width="232" height="59"/>
<text transform="matrix(1 0 0 1 15.0024 41.9451)"><tspan x="0" y="0" fill="#FFFFFF" font-family="'Futura-Medium'" font-size="16">Music has the ability to alter  </tspan><tspan x="0" y="19.2" fill="#FFFFFF" font-family="'Futura-Medium'" font-size="16">breathing and heart rate.</tspan></text>
<g opacity="0.4">
	<path fill="#009444" d="M235,132.9c-0.1,0-0.2,0-0.3,0l-131-20c-1-0.1-1.7-1-1.7-2v-35c0-1.1,0.9-2,2-2s2,0.9,2,2v33.3L235.3,129
		c1.1,0.2,1.8,1.2,1.7,2.3C236.8,132.2,236,132.9,235,132.9z"/>
</g>
<path opacity="0.7" fill="#009444" d="M402.4,0c-2.4,0-4.8,0.3-7,0.9c-0.8,0.3-1.7,0.5-2.5,0.8c-58,18.9-166.9,76.6-201.9,248.1
	c-0.3,1.5-0.6,3-0.9,4.5c-0.1,1.1-0.2,2.1-0.2,3.2c0,14.1,10.6,25.7,24.2,27.4h6.9h177.9h7.1c13.1-1.7,23.3-12.5,24.1-25.8v-3.3V29
	v-2.6C429.4,11.7,417.2,0,402.4,0z"/>
<g>
	<text transform="matrix(1 0 0 1 290.8578 177.3784)"><tspan x="0" y="0" fill="#FFFFFF" font-family="'BebasNeueBold'" font-size="25">OCCIPITAL </tspan><tspan x="0" y="30" fill="#FFFFFF" font-family="'BebasNeueBold'" font-size="25">LOBE</tspan></text>
</g>
</svg>
