<!-- Generator: Adobe Illustrator 18.1.1, SVG Export Plug-In  -->
<svg version="1.1"
	 xmlns="http://www.w3.org/2000/svg" xmlns:xlink="http://www.w3.org/1999/xlink" xmlns:a="http://ns.adobe.com/AdobeSVGViewerExtensions/3.0/"
	 x="0px" y="0px" width="331.5px" height="691px" viewBox="0 0 331.5 691" enable-background="new 0 0 331.5 691"
	 xml:space="preserve">
<defs>
</defs>
<g>
	<circle fill="#AD351E" cx="108.9" cy="67" r="21.8"/>
	<circle fill="#AD351E" cx="224.6" cy="67" r="21.8"/>
	<g>
		<path fill="#242C33" d="M231.9,66.7c0-36.4-29.5-66-66-66c-36.4,0-66,29.5-66,66c0,0.3,0,0.7,0,1h131.9
			C231.9,67.3,231.9,67,231.9,66.7z"/>
	</g>
	<circle fill="#BC4B2F" cx="119.8" cy="656" r="35.1"/>
	<circle fill="#BC4B2F" cx="210.3" cy="656" r="35.1"/>
	<circle fill="#F9BC84" cx="296.4" cy="365.1" r="35.1"/>
	<circle fill="#F9BC84" cx="35.1" cy="365.1" r="35.1"/>
	<path fill="#756461" d="M229.6,158.8H96.8c-6.6,0-12-5.4-12-12v-14.4c0-6.6,5.4-12,12-12h132.9c6.6,0,12,5.4,12,12v14.4
		C241.6,153.4,236.2,158.8,229.6,158.8z"/>
	<rect x="87.1" y="182.6" fill="#242C33" width="158.1" height="241"/>
	<rect x="87.1" y="147.5" fill="#242C33" width="158.1" height="276"/>
	<rect x="84.8" y="379.6" fill="#242C33" width="70.1" height="276.4"/>
	<rect x="175.2" y="379.6" fill="#242C33" width="70.1" height="276.4"/>
	<g>
		<path fill="none" d="M181.1,10.9c-0.7-3.5-1-7.2-1-10.9c0,3.6-0.3,7.1-1,10.5C179.7,10.6,180.4,10.8,181.1,10.9z"/>
		<path fill="#F9BC84" d="M181.1,10.9c-0.7-0.2-1.3-0.3-2-0.5c-4.9,26.9-28.5,47.4-56.9,47.4c-4.2,0-8.3-0.5-12.3-1.3
			c-0.6,3.4-1,6.9-1,10.5c0,32,25.9,57.9,57.9,57.9S224.6,99,224.6,67c0-3.7-0.4-7.4-1-10.9C202,50.6,185.3,33,181.1,10.9z"/>
		<path fill="#A56527" d="M179.1,10.5c-4-0.9-8.1-1.3-12.3-1.3c-28.4,0-52,20.4-56.9,47.4c4,0.9,8.1,1.3,12.3,1.3
			C150.6,57.9,174.1,37.4,179.1,10.5z"/>
		<path fill="#A56527" d="M181.1,10.9c4.2,22,20.9,39.6,42.5,45.1C219.3,34,202.6,16.4,181.1,10.9z"/>
	</g>
	<path fill="#A56527" d="M181.1,84c-0.2-0.4-0.4-0.8-0.6-1.1c-1.3-2.1-3.7-3.5-6.3-3.5c-4,0-7.3,3.2-7.4,7.2c0-0.1,0-0.2,0-0.3
		c0,0.1,0,0.2,0,0.3c-0.2-4-3.4-7.2-7.4-7.2c-2.7,0-5,1.4-6.3,3.5c-0.2,0.4-0.4,0.7-0.6,1.1c-1.9,3.3-5.4,5.7-9.5,6
		c1.6,4.9,6.2,8.4,11.6,8.4c5.9,0,10.7-4.1,11.9-9.6c0.2-0.6,0.3-1.3,0.3-2c0,0.7,0.1,1.4,0.3,2c1.2,5.5,6.1,9.6,11.9,9.6
		c5.4,0,10-3.5,11.6-8.4C186.5,89.7,183.1,87.3,181.1,84z"/>
	<circle fill="#242C33" cx="186.3" cy="58.7" r="8.7"/>
	<circle fill="#242C33" cx="146.2" cy="58.7" r="8.7"/>
	<g>
		<path fill="#FAF6ED" d="M175.4,375.1"/>
		<g>
			<path fill="#242C33" d="M175.4,377.6c3.2,0,3.2-5,0-5C172.1,372.6,172.1,377.6,175.4,377.6L175.4,377.6z"/>
		</g>
	</g>
	<rect x="84.8" y="147.5" fill="#E0BB45" width="160.4" height="232.1"/>
	<g>
		<path fill="#A59995" d="M296.4,147.5L296.4,147.5h-51.1h-37.4v0.1c-18.3,1.2-32.7,16.4-32.7,35v35.1v147.4
			c0,18.6,14.4,33.8,32.7,35v0.1h37.4v-35.1V217.7h16v147.4h70.1V182.6C331.5,163.2,315.8,147.5,296.4,147.5z"/>
		<path fill="#A59995" d="M122.2,147.6L122.2,147.6l-37.4-0.1H35.1l0,0C15.7,147.5,0,163.2,0,182.6v182.5h35.1h35.1V217.7h14.7
			v147.4v35.1h37.4V400c18.3-1.2,32.7-16.4,32.7-35V217.7v-35.1C154.9,164,140.4,148.8,122.2,147.6z"/>
	</g>
	<path fill="#938582" d="M241.6,146.8v-10.6h-33.7v0.1c-13.9,0.9-25.6,10-30.4,22.5h52.1C236.2,158.8,241.6,153.4,241.6,146.8z"/>
	<path fill="#938582" d="M122.2,136.3L122.2,136.3l-37.4-0.1v10.6c0,6.6,5.4,12,12,12h55.8C147.8,146.3,136.1,137.3,122.2,136.3z"/>
	<line fill="none" stroke="#AD351E" stroke-width="2" stroke-miterlimit="10" x1="230.6" y1="86" x2="230.6" y2="298.1"/>
	<path fill="none" stroke="#AD351E" stroke-width="2" stroke-miterlimit="10" d="M202.3,326.4c15.6,0,28.3-12.7,28.3-28.3"/>
	<rect x="245.4" y="217.7" fill="#938582" width="1" height="147.4"/>
	<g>
		<path fill="#938582" d="M186.7,317.1c-7.1,8.8-11.3,19.9-11.3,32c0,0.4,0,0.8,0,1.2l-0.1-0.2v16.7h0c0.9,17.8,15,32.1,32.7,33.2
			v0.1h18.4h19v-3.7v-29.9v-1.5h-5.6c-15.9-5.6-27.4-20.8-27.4-38.7c0-3.2,0.4-6.3,1.1-9.3H186.7z"/>
		<path fill="#938582" d="M117.8,326.4c0,17.9-11.4,33-27.4,38.7h-5.6v1.5v29.9v3.7h19h18.4V400c16.7-1.1,30.2-13.9,32.4-30.2l0,0
			l0,0c0.2-1.5,0.3-3.1,0.3-4.7h-0.2l0.2-14.9l-0.1,0.2c0-0.4,0-0.8,0-1.2c0-12.1-4.2-23.2-11.3-32h-26.8
			C117.4,320.1,117.8,323.2,117.8,326.4z"/>
	</g>
</g>
</svg>
