<!-- Generator: Adobe Illustrator 18.1.1, SVG Export Plug-In  -->
<svg version="1.1"
	 xmlns="http://www.w3.org/2000/svg" xmlns:xlink="http://www.w3.org/1999/xlink" xmlns:a="http://ns.adobe.com/AdobeSVGViewerExtensions/3.0/"
	 x="0px" y="0px" width="789.6px" height="992.5px" viewBox="0 0 789.6 992.5" enable-background="new 0 0 789.6 992.5"
	 xml:space="preserve">
<defs>
</defs>
<g>
	<polyline fill="#020202" points="260.5,174 264.4,38.6 515.7,0 537.4,204.6 	"/>
	<g>
		<path fill="#AD351E" d="M207.5,199c0,28.6,23.2,51.9,51.9,51.9c28.6,0,51.9-23.2,51.9-51.9c0-28.6-23.2-51.9-51.9-51.9
			C230.8,147.1,207.5,170.3,207.5,199z"/>
		<path fill="#AD351E" d="M483.2,199c0,28.6,23.2,51.9,51.9,51.9c28.6,0,51.9-23.2,51.9-51.9c0-28.6-23.2-51.9-51.9-51.9
			C506.4,147.1,483.2,170.3,483.2,199z"/>
		<g>
			<path fill="#242C33" d="M552.5,198.2c0-86.8-70.3-157.1-157.1-157.1c-86.8,0-157.1,70.3-157.1,157.1c0,0.8,0,1.6,0.1,2.4h314.1
				C552.5,199.8,552.5,199,552.5,198.2z"/>
		</g>
		<path fill="#0F6756" d="M547,417.7H230.5c-15.7,0-28.6-12.9-28.6-28.6v-34.3c0-15.7,12.9-28.6,28.6-28.6H547
			c15.7,0,28.6,12.9,28.6,28.6v34.3C575.6,404.9,562.8,417.7,547,417.7z"/>
		<path fill="#884E25" d="M532.4,172.9c-10-52.5-49.8-94.4-101.2-107.5c-1.6-0.4-3.2-0.8-4.8-1.1c-9.5-2.1-19.3-3.2-29.3-3.2
			c-67.6,0-123.8,48.7-135.5,112.9c-1.5,8.1-2.3,16.4-2.3,25c0,76.1,61.7,137.8,137.8,137.8c76.1,0,137.8-61.7,137.8-137.8
			C534.9,190.1,534,181.4,532.4,172.9z"/>
		<rect x="201.9" y="390.9" fill="#DFBA43" width="382.1" height="552.8"/>
		<g>
			<path fill="#10846D" d="M706.1,390.9L706.1,390.9H584.5h-89.1v0.2c-43.5,2.9-77.9,39.1-77.9,83.3v83.5V909
				c0,44.2,34.4,80.4,77.9,83.3v0.2h89.1V909V557.9h38.2V909h167V474.4C789.6,428.2,752.3,390.9,706.1,390.9z"/>
			<path fill="#10846D" d="M291.1,391.1v-0.2h-89.1H83.5l0,0C37.4,390.9,0,428.2,0,474.4V909h83.5H167V557.9h34.9V909v83.5h89.1
				v-0.2c43.5-2.9,77.9-39.1,77.9-83.3V557.9v-83.5C368.9,430.1,334.6,394,291.1,391.1z"/>
		</g>
		<path fill="#23937D" d="M575.6,389.1V364h-80.3v0.2c-33.2,2.2-61.1,23.8-72.4,53.5H547C562.8,417.7,575.6,404.9,575.6,389.1z"/>
		<path fill="#23937D" d="M291.1,364.2V364h-89.1v25.2c0,15.7,12.9,28.6,28.6,28.6h133C352.1,388,324.2,366.4,291.1,364.2z"/>
		<line fill="none" stroke="#AD351E" stroke-width="4.7641" stroke-miterlimit="10" x1="549.3" y1="244.3" x2="549.3" y2="749.5"/>
	</g>
	<line fill="none" stroke="#884E23" stroke-width="6" stroke-miterlimit="10" x1="461.1" y1="134.6" x2="449.1" y2="97.3"/>
	
		<path fill="none" stroke="#040507" stroke-width="8.7467" stroke-linecap="round" stroke-linejoin="round" stroke-miterlimit="10" d="
		M364.2,280.6c0-20,16.3-36.3,36.3-36.3c20,0,36.3,16.3,36.3,36.3"/>
	<g>
		<circle fill="#FDFDFE" cx="349.5" cy="184.3" r="20.6"/>
		<circle fill="#020202" cx="349.5" cy="184.3" r="8.6"/>
		<circle fill="#FDFDFE" cx="444.6" cy="184.3" r="20.6"/>
		<circle fill="#020202" cx="444.6" cy="184.3" r="8.6"/>
	</g>
	<path fill="#020202" d="M532.6,173.5c-11.7-64.1-67.8-112.7-135.2-112.8c-0.1,0-0.1,0-0.2,0c0,0,0,0,0,0c0,0,0,0,0,0
		c-0.1,0-0.1,0-0.2,0c-67.5,0.1-123.5,48.7-135.2,112.8c-1.5,8.1-2.3,16.4-2.3,25c0,4.2,0.2,8.3,0.6,12.4l38.3-18.1v-59.3H396h2.1
		H496v59.3l38.3,18.1c0.4-4.1,0.6-8.2,0.6-12.4C534.9,189.9,534,181.6,532.6,173.5z"/>
	<path fill="#884E25" d="M326.2,178.4c1.1-11.6,10.9-20.7,22.8-20.7c6.8,0,13,3,17.2,7.8"/>
	<path fill="#884E25" d="M467.2,178.9c-1.1-12.2-11.4-21.7-23.9-21.7c-7.2,0-13.6,3.2-18,8.1"/>
</g>
</svg>
