<!-- Generator: Adobe Illustrator 19.0.0, SVG Export Plug-In  -->
<svg version="1.1"
	 xmlns="http://www.w3.org/2000/svg" xmlns:xlink="http://www.w3.org/1999/xlink" xmlns:a="http://ns.adobe.com/AdobeSVGViewerExtensions/3.0/"
	 x="0px" y="0px" width="520.5px" height="535px" viewBox="0 0 520.5 535" style="enable-background:new 0 0 520.5 535;"
	 xml:space="preserve">
<style type="text/css">
	.st0{fill:none;stroke:#ECE715;stroke-width:8.2472;stroke-miterlimit:10;}
	.st1{fill:#AD351E;}
</style>
<defs>
</defs>
<path class="st0" d="M175.9,503.2C100,478.9,37.2,418.3,13.7,335.9C-23.7,205,52.1,68.6,183,31.2C313.9-6.1,450.3,69.7,487.7,200.6
	c3.8,13.2,6.4,26.5,7.9,39.7"/>
<path class="st1" d="M253,0c-53.1,0-102.6,15.5-144.2,42.1l22.8,37.1c35-22.6,76.7-35.7,121.4-35.7c123.7,0,224,100.3,224,224
	s-100.3,224-224,224c-68.8,0-130.3-31-171.4-79.7L50.2,442c49.1,57,121.7,93,202.8,93c147.7,0,267.5-119.8,267.5-267.5
	C520.5,119.8,400.7,0,253,0z"/>
</svg>
