<!-- Generator: Adobe Illustrator 18.1.1, SVG Export Plug-In  -->
<svg version="1.1"
	 xmlns="http://www.w3.org/2000/svg" xmlns:xlink="http://www.w3.org/1999/xlink" xmlns:a="http://ns.adobe.com/AdobeSVGViewerExtensions/3.0/"
	 x="0px" y="0px" width="582.5px" height="582.5px" viewBox="0 0 582.5 582.5" enable-background="new 0 0 582.5 582.5"
	 xml:space="preserve">
<defs>
</defs>
<circle fill="#242C33" cx="291.2" cy="291.2" r="291.2"/>
<g id="Heart_1_">
	<g>
		<path fill="#B35448" d="M397,186.4L397,186.4C397,186.4,397,186.4,397,186.4c0-43.5-35.2-78.7-78.7-78.7
			c-43.4,0-78.7,35.2-78.7,78.7c0,0.2,0,0.4,0,0.6v120.4h50.4v-115c0-15.6,12.6-28.2,28.2-28.2c15.6,0,28.2,12.6,28.2,28.2v115H397
			V186.4z"/>
	</g>
	<g>
		<path fill="#B35448" d="M113.9,389.5H72.5v-63.2c0-13.9,11.3-25.2,25.2-25.2h110v41.3h-93.8V389.5z"/>
	</g>
	<g>
		<path fill="#B35448" d="M113.9,203.5H72.5v63.2c0,13.9,11.3,25.2,25.2,25.2h110l-9-41.3h-84.8V203.5z"/>
	</g>
	<path fill="#AD351E" d="M321.4,502.8c83.7,0,151.5-67.8,151.5-151.5c0-0.4,0-0.8,0-1.2c-0.7-83.1-68.2-150.2-151.5-150.2H191.3
		c-11.8,0-21.4,9.6-21.4,21.3v129.6v0.6C169.9,435,237.7,502.8,321.4,502.8z"/>
	
		<rect x="250.8" y="66.4" transform="matrix(0.8727 -0.4883 0.4883 0.8727 -17.478 142.9549)" fill="#B35448" width="29.2" height="77.1"/>
	
		<rect x="354.2" y="66.4" transform="matrix(-0.8727 -0.4883 0.4883 -0.8727 639.3644 376.7164)" fill="#B35448" width="29.2" height="77.1"/>
	<rect x="303.7" y="41.6" fill="#B35448" width="29.2" height="77.2"/>
	<circle fill="#893E36" cx="246.9" cy="71.9" r="14.6"/>
	<circle fill="#893E36" cx="318.3" cy="40.8" r="14.6"/>
	<path fill="#893E36" d="M402.3,71.3c0,8.1-6.5,14.6-14.6,14.6c-8.1,0-14.6-6.5-14.6-14.6c0-8.1,6.5-14.6,14.6-14.6
		C395.7,56.7,402.3,63.2,402.3,71.3z"/>
	<rect x="240" y="184" fill="#B35448" width="50" height="154.6"/>
	<rect x="290.1" y="196.6" fill="#2B3990" width="49.4" height="142.7"/>
	<circle fill="#7D3832" cx="265" cy="338.9" r="25"/>
	<circle fill="#7D3832" cx="314.5" cy="338.9" r="25"/>
	<path fill="#7D3832" d="M114.1,202.9c0,11.5-9.3,20.8-20.8,20.8c-11.5,0-20.8-9.3-20.8-20.8c0-11.5,9.3-20.8,20.8-20.8
		C104.8,182.1,114.1,191.4,114.1,202.9z"/>
	<circle fill="#7D3832" cx="93.2" cy="388.2" r="20.7"/>
</g>
</svg>
