<!-- Generator: Adobe Illustrator 19.0.0, SVG Export Plug-In  -->
<svg version="1.1"
	 xmlns="http://www.w3.org/2000/svg" xmlns:xlink="http://www.w3.org/1999/xlink" xmlns:a="http://ns.adobe.com/AdobeSVGViewerExtensions/3.0/"
	 x="0px" y="0px" width="538px" height="538px" viewBox="0 0 538 538" style="enable-background:new 0 0 538 538;"
	 xml:space="preserve">
<style type="text/css">
	.st0{fill:#AD351E;}
	.st1{fill:none;stroke:#4C5256;stroke-width:14;stroke-miterlimit:10;}
</style>
<defs>
</defs>
<g>
	<path class="st0" d="M493,267.4c0,0.5,0,1.1,0,1.6c0,123.7-100.3,224-224,224C145.3,493,45,392.7,45,269S145.3,45,269,45
		c9.8,0,19.5,0.6,29,1.9l6.5-44.5C292.9,0.8,281,0,269,0C120.4,0,0,120.4,0,269c0,82,36.7,155.5,94.6,204.8
		c47,40,107.8,64.2,174.4,64.2c148.6,0,269-120.4,269-269L493,267.4z"/>
</g>
<path class="st1" d="M513.4,226.9c2.3,13.7,3.6,27.8,3.6,42.1c0,137-111,248-248,248C132,517,21,406,21,269
	c0-94.2,52.5-176.1,129.8-218.1"/>
</svg>
