<?xml version="1.0" encoding="utf-8"?>
<!-- Generator: Adobe Illustrator 19.2.0, SVG Export Plug-In . SVG Version: 6.00 Build 0)  -->
<svg version="1.1" id="Layer_1" xmlns="http://www.w3.org/2000/svg" xmlns:xlink="http://www.w3.org/1999/xlink" x="0px" y="0px"
	 viewBox="0 0 312 93.3" style="enable-background:new 0 0 312 93.3;" xml:space="preserve">
<style type="text/css">
	.st0{fill:none;}
	.st1{enable-background:new    ;}
	.st2{fill:#4C5256;}
</style>
<rect y="1.3" class="st0" width="312" height="92"/>
<g class="st1">
	<path class="st2" d="M15.5,4v3.2c-1.6-1.3-3.2-2-4.9-2c-1.9,0-3.4,0.7-4.7,2C4.7,8.6,4,10.2,4,12.1C4,14,4.7,15.6,5.9,17
		s2.9,2,4.7,2c1,0,1.8-0.2,2.4-0.5c0.4-0.2,0.8-0.4,1.2-0.6s0.8-0.6,1.3-1v3.3c-1.6,0.9-3.2,1.3-4.9,1.3c-2.6,0-4.8-0.9-6.6-2.7
		c-1.8-1.8-2.7-4-2.7-6.6C1.3,9.9,2,7.8,3.6,6c1.9-2.2,4.3-3.3,7.3-3.3C12.5,2.7,14,3.1,15.5,4z"/>
	<path class="st2" d="M21.1,9.7v6.6c0,1.9,0.7,2.8,2.2,2.8s2.2-0.9,2.2-2.8V9.7h2.6v6.6c0,0.9-0.1,1.7-0.3,2.4
		c-0.2,0.6-0.6,1.1-1.1,1.6c-0.9,0.8-2,1.2-3.4,1.2c-1.4,0-2.5-0.4-3.4-1.2c-0.5-0.5-0.9-1-1.2-1.6c-0.2-0.5-0.3-1.3-0.3-2.4V9.7
		H21.1z"/>
	<path class="st2" d="M31.6,9.7h2.6v1c0.5-0.5,0.9-0.9,1.3-1c0.4-0.2,0.8-0.3,1.4-0.3c0.7,0,1.4,0.2,2.2,0.7l-1.2,2.4
		c-0.5-0.4-1-0.5-1.5-0.5c-1.4,0-2.2,1.1-2.2,3.3v5.9h-2.6V9.7z"/>
	<path class="st2" d="M40.9,9.7h2.6v1c0.5-0.5,0.9-0.9,1.3-1c0.4-0.2,0.8-0.3,1.4-0.3c0.7,0,1.4,0.2,2.2,0.7l-1.2,2.4
		c-0.5-0.4-1-0.5-1.5-0.5c-1.4,0-2.2,1.1-2.2,3.3v5.9h-2.6V9.7z"/>
	<path class="st2" d="M60.1,16h-8.2c0.1,0.9,0.4,1.7,0.9,2.2c0.5,0.5,1.2,0.8,2.1,0.8c0.7,0,1.2-0.2,1.6-0.5
		c0.4-0.3,0.9-0.9,1.4-1.7l2.2,1.2c-0.3,0.6-0.7,1.1-1.1,1.5s-0.8,0.8-1.2,1s-0.9,0.5-1.4,0.6s-1.1,0.2-1.7,0.2
		c-1.7,0-3.1-0.5-4.1-1.6c-1-1.1-1.5-2.6-1.5-4.4c0-1.8,0.5-3.3,1.5-4.4c1-1.1,2.3-1.7,4-1.7c1.7,0,3,0.5,4,1.6
		c1,1.1,1.5,2.5,1.5,4.4L60.1,16z M57.4,13.9c-0.4-1.4-1.3-2.1-2.7-2.1c-0.3,0-0.6,0-0.9,0.1s-0.5,0.2-0.8,0.4s-0.4,0.4-0.6,0.7
		s-0.3,0.6-0.4,0.9H57.4z"/>
	<path class="st2" d="M63,9.7h2.6v1.1c0.9-0.9,2-1.4,3.1-1.4c1.3,0,2.4,0.4,3.1,1.3c0.6,0.7,1,1.9,1,3.5v7h-2.6v-6.4
		c0-1.1-0.2-1.9-0.5-2.3c-0.3-0.4-0.9-0.7-1.7-0.7c-0.9,0-1.5,0.3-1.9,0.9c-0.4,0.6-0.5,1.6-0.5,3v5.5H63V9.7z"/>
	<path class="st2" d="M78.9,12.2v9h-2.6v-9h-1.1V9.7h1.1V5.5h2.6v4.2h2.1v2.5H78.9z"/>
	<path class="st2" d="M85.4,1.3v19.8h-2.6V1.3H85.4z"/>
	<path class="st2" d="M92.5,19l-5.1-9.3h3.1l3.5,6.6l3.3-6.6h3l-9.1,17.6h-3L92.5,19z"/>
	<path class="st2" d="M112,27.3h-2.6V9.7h2.6V11c1-1,2.2-1.6,3.5-1.6c1.6,0,2.9,0.6,3.9,1.7c1,1.1,1.5,2.6,1.5,4.3
		c0,1.7-0.5,3.1-1.5,4.3c-1,1.1-2.3,1.7-3.8,1.7c-1.3,0-2.5-0.5-3.6-1.6V27.3z M118.3,15.5c0-1.1-0.3-2-0.9-2.7
		c-0.6-0.7-1.4-1-2.3-1c-1,0-1.8,0.3-2.4,1s-0.9,1.6-0.9,2.6c0,1.1,0.3,2,0.9,2.6c0.6,0.7,1.4,1,2.3,1c0.9,0,1.7-0.3,2.3-1
		C118,17.4,118.3,16.5,118.3,15.5z"/>
	<path class="st2" d="M126.4,1.3v19.8h-2.6V1.3H126.4z"/>
	<path class="st2" d="M138.1,9.7h2.6v11.4h-2.6v-1.2c-1.1,1-2.3,1.5-3.5,1.5c-1.6,0-2.9-0.6-3.9-1.7c-1-1.2-1.5-2.6-1.5-4.4
		c0-1.7,0.5-3.1,1.5-4.3s2.3-1.7,3.8-1.7c1.3,0,2.5,0.5,3.6,1.6V9.7z M131.9,15.4c0,1.1,0.3,2,0.9,2.7c0.6,0.7,1.4,1,2.3,1
		c1,0,1.8-0.3,2.4-1c0.6-0.7,0.9-1.6,0.9-2.6s-0.3-2-0.9-2.6c-0.6-0.7-1.4-1-2.3-1c-0.9,0-1.7,0.3-2.3,1
		C132.2,13.5,131.9,14.4,131.9,15.4z"/>
	<path class="st2" d="M147.9,19l-5.1-9.3h3.1l3.5,6.6l3.3-6.6h3l-9.1,17.6h-3L147.9,19z"/>
	<path class="st2" d="M157,5c0-0.5,0.2-0.9,0.5-1.2s0.7-0.5,1.2-0.5c0.5,0,0.9,0.2,1.2,0.5c0.3,0.3,0.5,0.7,0.5,1.2
		s-0.2,0.9-0.5,1.2c-0.3,0.3-0.7,0.5-1.2,0.5s-0.9-0.2-1.2-0.5S157,5.5,157,5z M160,9.7v11.4h-2.6V9.7H160z"/>
	<path class="st2" d="M163.3,9.7h2.6v1.1c0.9-0.9,2-1.4,3.1-1.4c1.3,0,2.4,0.4,3.1,1.3c0.6,0.7,1,1.9,1,3.5v7h-2.6v-6.4
		c0-1.1-0.2-1.9-0.5-2.3c-0.3-0.4-0.9-0.7-1.7-0.7c-0.9,0-1.5,0.3-1.9,0.9c-0.4,0.6-0.5,1.6-0.5,3v5.5h-2.6V9.7z"/>
	<path class="st2" d="M187.5,20.9c0,0.5,0,1-0.1,1.4s-0.1,0.8-0.1,1.1c-0.2,0.9-0.6,1.6-1.1,2.2c-1,1.2-2.4,1.8-4.3,1.8
		c-1.5,0-2.8-0.4-3.8-1.2c-1-0.8-1.6-2-1.8-3.5h2.6c0.1,0.6,0.3,1,0.5,1.3c0.5,0.7,1.3,1.1,2.4,1.1c1.9,0,2.9-1.2,2.9-3.6v-1.6
		c-1,1.1-2.3,1.6-3.6,1.6c-1.6,0-2.8-0.6-3.8-1.7c-1-1.1-1.5-2.6-1.5-4.3c0-1.7,0.5-3.1,1.4-4.2c1-1.2,2.3-1.9,4-1.9
		c1.4,0,2.6,0.5,3.6,1.6V9.7h2.6V20.9z M185,15.5c0-1.1-0.3-2-0.9-2.7c-0.6-0.7-1.4-1-2.3-1c-1,0-1.8,0.4-2.4,1.1
		c-0.5,0.7-0.8,1.5-0.8,2.6c0,1,0.3,1.9,0.8,2.6c0.6,0.7,1.4,1.1,2.4,1.1s1.8-0.4,2.4-1.1C184.7,17.3,185,16.5,185,15.5z"/>
	<path class="st2" d="M191.3,19.8c0-0.4,0.2-0.8,0.5-1.1s0.7-0.5,1.1-0.5s0.8,0.2,1.1,0.5s0.5,0.7,0.5,1.1c0,0.5-0.2,0.8-0.5,1.2
		c-0.3,0.3-0.7,0.5-1.1,0.5c-0.5,0-0.8-0.2-1.2-0.5S191.3,20.3,191.3,19.8z"/>
	<path class="st2" d="M198.7,19.8c0-0.4,0.2-0.8,0.5-1.1s0.7-0.5,1.1-0.5s0.8,0.2,1.1,0.5s0.5,0.7,0.5,1.1c0,0.5-0.2,0.8-0.5,1.2
		c-0.3,0.3-0.7,0.5-1.1,0.5c-0.5,0-0.8-0.2-1.2-0.5S198.7,20.3,198.7,19.8z"/>
	<path class="st2" d="M206.1,19.8c0-0.4,0.2-0.8,0.5-1.1s0.7-0.5,1.1-0.5s0.8,0.2,1.1,0.5s0.5,0.7,0.5,1.1c0,0.5-0.2,0.8-0.5,1.2
		c-0.3,0.3-0.7,0.5-1.1,0.5c-0.5,0-0.8-0.2-1.2-0.5S206.1,20.3,206.1,19.8z"/>
</g>
<g class="st1">
	<path class="st2" d="M8.7,85.6H2.2V42.9h9.2l6,30.7l5.8-30.7h8.9v42.8h-6.4V58.8l-5.6,26.9h-5.2L8.7,58.8V85.6z"/>
	<path class="st2" d="M37.9,85.6V42.9h18.3v6.5H44.3V61H53v6.5h-8.7v11.7h11.9v6.5H37.9z"/>
	<path class="st2" d="M67.5,49.4h-6.9v-6.5h20.1v6.5h-6.8v36.2h-6.4V49.4z"/>
	<path class="st2" d="M88.4,75.8l-1.6,9.8h-6.7l7.3-42.7h8.9l7.2,42.7h-6.8l-1.5-9.8H88.4z M91.7,52.7l-2.4,16.8h4.8L91.7,52.7z"/>
	<path class="st2" d="M126.3,85.6h-17.6V42.9h6.4v36.3h11.1V85.6z"/>
</g>
</svg>
