<!-- Generator: Adobe Illustrator 18.1.1, SVG Export Plug-In  -->
<svg version="1.1"
	 xmlns="http://www.w3.org/2000/svg" xmlns:xlink="http://www.w3.org/1999/xlink" xmlns:a="http://ns.adobe.com/AdobeSVGViewerExtensions/3.0/"
	 x="0px" y="0px" width="741px" height="1594.2px" viewBox="0 0 741 1594.2" enable-background="new 0 0 741 1594.2"
	 xml:space="preserve">
<defs>
</defs>
<path fill="#F9BC84" d="M618.1,320.1V216.6C618.1,97,521.2,0,401.5,0C281.9,0,184.9,97,184.9,216.6v241.9h-0.2
	c0,1.9,0.1,3.8,0.2,5.7c2.9,53.7,46,96.7,99.7,99.3l0.2,0.2h163.3l0,0.2c1.9,0,3.8-0.1,5.6-0.2c46.2-2.5,84.5-34.9,95.6-78.2
	c-53-1.9-95.5-45.5-95.5-99l99,0.4v-0.2h-0.1v-40.5h12.3v0.1h26.7c0.6,0,1.2,0,1.9-0.1c13.6-0.9,24.3-12.2,24.4-26
	C618.1,320.2,618.1,320.1,618.1,320.1L618.1,320.1z"/>
<g id="Eye_Ball_2_">
	<circle fill="#FFFFFF" cx="489.1" cy="182" r="44.3"/>
	<circle fill="#166C9A" cx="489.1" cy="182" r="32.3"/>
	<circle cx="489.7" cy="182" r="17.7"/>
	<path fill="none" stroke="#FFFFFF" stroke-width="2.2869" stroke-miterlimit="10" d="M477.6,180c1-5,4.8-9,9.7-10.2"/>
</g>
<g id="Ear_Normal_2_">
	<g id="Ear_1_">
		<path fill="#F9BC84" d="M208,292.4l-4.1-104.6c0-0.2,0-0.4,0-0.5c0-1.6-0.1-3.2-0.2-4.8l0-0.1l0,0c-2.5-27.5-25.6-49-53.7-49
			c-29.8,0-54,24.2-54,54c0,19.5,10.4,36.6,25.9,46.1c13,5.3,22.1,18,22.1,32.9c0,5.5-1.3,10.8-3.5,15.5c-1.7,4.2-2.7,8.7-2.7,13.5
			c0,19.4,15.8,35.2,35.2,35.2c19.4,0,35.2-15.8,35.2-35.2C208.1,294.2,208,293.3,208,292.4z"/>
	</g>
	<g>
		<path fill="#E2A679" d="M173,239.2c0-7.2,5.8-13,13-13v-53.2c-6.2-12.4-19.1-21-34-21c-21,0-38,17-38,38c0,21,17,38,38,38
			c1.6,0,3.1-0.1,4.6-0.3c-4.8,4.9-7.7,11.5-7.7,18.9c0,14.9,12.1,27,27,27c3.6,0,6.9-0.7,10-1.9v-19.4
			C178.8,252.2,173,246.4,173,239.2z"/>
	</g>
</g>
<g>
	<path fill="#FFFFFF" d="M553,387l-99-0.4c0,14.5,3.1,28.3,8.7,40.7H553V387z"/>
	<path fill="#FFFFFF" d="M549.4,485.5c2.1-8.3,3.3-17.1,3.3-26l0.2-0.2V433h-87.4C481.6,463.3,513,484.2,549.4,485.5z"/>
	<path fill="#242C33" d="M462.7,427.3c0.9,1.9,1.8,3.8,2.8,5.7H553v-5.7H462.7z"/>
</g>
<rect x="297.9" y="523" fill="#F9BC84" width="144.1" height="148.6"/>
<g>
	<path fill="#65317A" d="M741,742.4c0-42.9-31.4-77.6-70.2-77.6H70.2C31.4,664.8,0,699.6,0,742.4v851.8h741V742.4z"/>
</g>
</svg>
