<?xml version="1.0" encoding="utf-8"?>
<!-- Generator: Adobe Illustrator 18.1.1, SVG Export Plug-In . SVG Version: 6.00 Build 0)  -->
<svg version="1.1" id="Layer_1" xmlns="http://www.w3.org/2000/svg" xmlns:xlink="http://www.w3.org/1999/xlink" x="0px" y="0px"
	 viewBox="374.5 247 272.3 274" enable-background="new 374.5 247 272.3 274" xml:space="preserve">
<g>
	<path fill="#BC4A2F" d="M465.5,283.4l-10.2-24c-14.7,6.6-27.9,15.5-39.3,26.5l18.5,18.5C443.5,295.8,454,288.7,465.5,283.4z"/>
	<path fill="#BC4A2F" d="M513,493.9V520c17.3-0.3,33.8-3.8,48.9-9.9l-10.1-24C539.7,490.9,526.7,493.7,513,493.9z"/>
	<path fill="#BC4A2F" d="M586.9,304.4l18.5-18.5c-11.9-11.6-26.1-21-41.6-27.6l-9.7,24.2C566.3,287.8,577.4,295.3,586.9,304.4z"/>
	<path fill="#BC4A2F" d="M410.2,429l-24,10.2c6.6,14.7,15.5,27.9,26.5,39.3l18.5-18.5C422.6,451.1,415.5,440.6,410.2,429z"/>
	<path fill="#BC4A2F" d="M508.4,273.8v-26.1c-17.3,0.3-33.8,3.8-48.9,9.9l10.2,24C481.7,276.9,494.8,274.1,508.4,273.8z"/>
	<path fill="#BC4A2F" d="M611.1,338.7l24-10.2c-6.6-14.7-15.5-27.9-26.5-39.3l-18.5,18.5C598.8,316.7,605.9,327.2,611.1,338.7z"/>
	<path fill="#BC4A2F" d="M549.7,280.9l9.7-24.2c-14.5-5.6-30.2-8.8-46.6-9v26.1C525.9,274.1,538.3,276.5,549.7,280.9z"/>
	<path fill="#BC4A2F" d="M620.7,381.6h26.1c-0.3-17.3-3.8-33.8-9.9-48.9l-24,10.2C617.7,354.8,620.5,367.9,620.7,381.6z"/>
	<path fill="#BC4A2F" d="M431.3,307.6l-18.5-18.5c-11.6,11.9-21,26.1-27.6,41.6l24.2,9.7C414.7,328.3,422.2,317.1,431.3,307.6z"/>
	<path fill="#BC4A2F" d="M434.4,463.3l-18.5,18.5c11.9,11.6,26.1,21,41.6,27.6l9.7-24.2C455.2,479.8,443.9,472.4,434.4,463.3z"/>
	<path fill="#BC4A2F" d="M400.6,386.1h-26.1c0.3,17.3,3.8,33.8,9.9,48.9l24-10.2C403.7,412.8,400.9,399.9,400.6,386.1z"/>
	<path fill="#BC4A2F" d="M471.6,486.8l-9.7,24.2c14.5,5.6,30.2,8.8,46.6,9v-26.1C495.5,493.7,483.2,491.1,471.6,486.8z"/>
	<path fill="#BC4A2F" d="M620.7,386.1c-0.2,12.9-2.7,25.4-7.1,36.8l24.2,9.7c5.6-14.5,8.8-30.2,9-46.6h-26.1V386.1z"/>
	<path fill="#BC4A2F" d="M590.1,460.1l18.5,18.5c11.6-11.9,21-26.1,27.6-41.6l-24.2-9.7C606.7,439.5,599.3,450.6,590.1,460.1z"/>
	<path fill="#BC4A2F" d="M555.9,484.3l10.2,24c14.7-6.6,27.9-15.5,39.3-26.5l-18.5-18.5C577.9,471.9,567.5,479.1,555.9,484.3z"/>
	<path fill="#BC4A2F" d="M407.7,344.8l-24.2-9.7c-5.6,14.5-8.8,30.2-9,46.6h26.1C400.9,368.7,403.4,356.3,407.7,344.8z"/>
</g>
</svg>
