<?xml version="1.0" encoding="utf-8"?>
<!-- Generator: Adobe Illustrator 18.1.1, SVG Export Plug-In . SVG Version: 6.00 Build 0)  -->
<svg version="1.1" id="Layer_1" xmlns="http://www.w3.org/2000/svg" xmlns:xlink="http://www.w3.org/1999/xlink" x="0px" y="0px"
	 viewBox="357 229.9 310 306.9" enable-background="new 357 229.9 310 306.9" xml:space="preserve">
<g>
	<path fill="#F9BC83" d="M572,242.6c-2.4-1.1-5-2.1-7.5-3.1c-15.5-5.8-32.3-9.2-49.8-9.6c-1.4,0-2.6,0-4,0c-1.4,0-2.7,0-4,0
		c-18.5,0.5-36.1,4.2-52.5,10.7c-2.5,1-5,2-7.4,3.2c-15.5,7.1-29.8,16.8-42.1,28.4c-1.9,1.9-3.8,3.8-5.7,5.7
		c-12.3,13-22.4,28.1-29.6,44.7c-1.1,2.4-2.1,5-3.1,7.5l5.1,2c1-2.5,1.9-5.1,3.1-7.5c7-16,16.6-30.4,28.4-42.9
		c1.9-1.9,3.8-3.9,5.7-5.7c11.7-11.2,25.4-20.4,40.3-27.3c2.4-1.2,5-2.2,7.4-3.2c15.6-6.1,32.7-9.7,50.4-10.2c1.4,0,2.6-0.1,4-0.1
		s2.7,0,4,0.1c16.8,0.4,32.9,3.7,47.8,9.2c2.5,1,5.1,1.9,7.5,3.1L572,242.6z"/>
	<path fill="#F9BC83" d="M659.2,387.9c-0.4,16.8-3.7,32.9-9.2,47.8c-1,2.5-1.9,5.1-3.1,7.5c-7,16-16.6,30.4-28.4,42.9
		c-1.9,1.9-3.8,3.9-5.7,5.7c-11.7,11.2-25.4,20.4-40.3,27.3c-2.4,1.2-5,2.2-7.4,3.2l2.1,5c2.5-1,5-2,7.4-3.2
		c15.5-7.1,29.8-16.8,42.1-28.4c1.9-1.9,3.8-3.8,5.7-5.7c12.3-13,22.4-28.1,29.6-44.7c1.1-2.4,2.1-5,3.1-7.5
		c5.8-15.5,9.2-32.3,9.6-49.8L659.2,387.9L659.2,387.9z"/>
</g>
</svg>
