<?xml version="1.0" encoding="utf-8"?>
<!-- Generator: Adobe Illustrator 18.1.1, SVG Export Plug-In . SVG Version: 6.00 Build 0)  -->
<svg version="1.1" id="Layer_1" xmlns="http://www.w3.org/2000/svg" xmlns:xlink="http://www.w3.org/1999/xlink" x="0px" y="0px"
	 viewBox="347 221.6 330 324.8" enable-background="new 347 221.6 330 324.8" xml:space="preserve">
<g>
	<path fill="#B78CBF" d="M673.8,379.7c-0.5-19.7-4.4-38.6-11.3-55.9c-1-2.5-2-5-3.2-7.4c-7.6-16.6-17.9-31.7-30.2-44.7
		c-1.9-1.9-3.8-3.8-5.7-5.7l-3.9,3.9c30.1,28.6,48.9,69,48.9,113.9c0,86.6-70.3,156.9-156.9,156.9h-0.1h-0.1c-1.4,0-2.7,0-4,0v5.7
		c1.4,0,2.6,0,4,0s2.7,0,4,0c19.7-0.5,38.6-4.4,55.9-11.3c2.5-1,5-2,7.4-3.2c16.6-7.6,31.7-17.9,44.7-30.2c1.9-1.9,3.8-3.8,5.7-5.7
		c13.1-13.7,23.8-29.9,31.5-47.6c1.1-2.4,2.1-5,3.1-7.5c6.2-16.6,9.8-34.4,10.2-53c0-1.4,0-2.6,0-4
		C673.8,382.5,673.8,381,673.8,379.7z"/>
</g>
<path fill="#B78CBF" d="M443.8,235.6c-16.6,7.6-31.7,17.9-44.7,30.2c-1.9,1.9-3.8,3.8-5.7,5.7c-13.1,13.7-23.8,29.9-31.5,47.6
	c-1.1,2.4-2.1,5-3.1,7.5c-6.2,16.6-9.8,34.4-10.2,53c0,1.4,0,2.6,0,4s0,2.7,0,4h5.7c0-1.4,0-2.6,0-4s0-2.7,0-4
	c0.4-17.9,3.9-35,9.8-50.8c1-2.5,1.9-5.1,3.1-7.5c7.4-17,17.6-32.4,30.2-45.6c1.9-1.9,3.8-3.8,5.7-5.7
	c12.6-11.9,27.1-21.8,42.9-29.1c2.4-1.2,5-2.2,7.4-3.2l-2.2-5.3C448.8,233.5,446.3,234.6,443.8,235.6z"/>
</svg>
