<!-- Generator: Adobe Illustrator 18.1.1, SVG Export Plug-In  -->
<svg version="1.1"
	 xmlns="http://www.w3.org/2000/svg" xmlns:xlink="http://www.w3.org/1999/xlink" xmlns:a="http://ns.adobe.com/AdobeSVGViewerExtensions/3.0/"
	 x="0px" y="0px" width="415.8px" height="308.7px" viewBox="0 0 415.8 308.7" enable-background="new 0 0 415.8 308.7"
	 xml:space="preserve">
<defs>
</defs>
<rect x="0" y="0" opacity="0.8" fill="#F15A29" width="315" height="84"/>
<g>
	<text transform="matrix(1 0 0 1 14.9668 28.0072)"><tspan x="0" y="0" fill="#FFFFFF" font-family="'Futura-Medium'" font-size="16">Music acts as a distractor focusing the  </tspan><tspan x="0" y="19.2" fill="#FFFFFF" font-family="'Futura-Medium'" font-size="16">attention away from negative stimuli to  </tspan><tspan x="0" y="38.4" fill="#FFFFFF" font-family="'Futura-Medium'" font-size="16">something pleasant and encouraging.</tspan></text>
</g>
<g opacity="0.8">
	<line fill="#F15A29" x1="311.3" y1="137.3" x2="274.9" y2="83.7"/>
	<path fill="#F15A29" d="M312.9,138.5c-0.1,0.2-0.3,0.3-0.5,0.5c-0.9,0.6-2.2,0.4-2.8-0.5l-36.4-53.7c-0.6-0.9-0.4-2.2,0.5-2.8
		c0.9-0.6,2.2-0.4,2.8,0.5l36.4,53.7C313.5,136.9,313.4,137.8,312.9,138.5z"/>
</g>
<path opacity="0.8" fill="#F15A29" d="M405.1,172.2c-2.1-1.3-4.3-2.5-6.4-3.8C332.2,131,261,132,224.3,136c-1,0.1-2,0.2-3,0.3
	c-10.5,1.8-18.9,9.5-21.8,19.6c-0.3,1.5-0.6,3-0.9,4.5c0,0.1,0,0.2,0,0.2l-0.1,4.5l-2.6,93.5l-0.1,3.6v0.2
	c0.6,12.9,10,23.5,22.4,25.9l2,0.3l135.5,19.7l2.8,0.4h6.5c11-1.4,20-9.2,23.1-19.7l0.1-0.2l24.7-82.4l2.8-9.3
	c0.1-1,0.2-2.1,0.2-3.2C415.8,185.1,411.6,177.2,405.1,172.2z"/>
<g>
	<text transform="matrix(1 0 0 1 264.5062 214.3042)"><tspan x="0" y="0" fill="#FFFFFF" font-family="'BebasNeueBold'" font-size="25">PARIETAL </tspan><tspan x="0" y="30" fill="#FFFFFF" font-family="'BebasNeueBold'" font-size="25">LOBE</tspan></text>
</g>
</svg>
