<?xml version="1.0" encoding="utf-8"?>
<!-- Generator: Adobe Illustrator 19.2.0, SVG Export Plug-In . SVG Version: 6.00 Build 0)  -->
<svg version="1.1" id="Layer_1" xmlns="http://www.w3.org/2000/svg" xmlns:xlink="http://www.w3.org/1999/xlink" x="0px" y="0px"
	 viewBox="0 0 415.8 308.7" style="enable-background:new 0 0 415.8 308.7;" xml:space="preserve">
<style type="text/css">
	.st0{opacity:0.8;fill:#F15A29;enable-background:new    ;}
	.st1{enable-background:new    ;}
	.st2{fill:#FFFFFF;}
	.st3{opacity:0.8;}
	.st4{fill:none;}
	.st5{fill:#F15A29;}
</style>
<rect class="st0" width="315" height="84"/>
<g>
	<g class="st1">
		<path class="st2" d="M16,28l2.5-13l4.1,9.4L27,15l2.3,13h-1.9l-1.2-7.3l-3.6,7.8l-3.5-7.8L17.9,28H16z"/>
		<path class="st2" d="M33.2,20.4v4.4c0,1.3,0.5,1.9,1.5,1.9c1,0,1.5-0.6,1.5-1.9v-4.4H38v4.4c0,0.6-0.1,1.1-0.2,1.6
			c-0.1,0.4-0.4,0.8-0.8,1.1c-0.6,0.5-1.3,0.8-2.3,0.8c-0.9,0-1.7-0.3-2.3-0.8c-0.4-0.3-0.6-0.7-0.8-1.1c-0.1-0.4-0.2-0.9-0.2-1.6
			v-4.4H33.2z"/>
		<path class="st2" d="M44.6,21.7l-1.5,0.8c-0.2-0.5-0.5-0.7-0.9-0.7c-0.2,0-0.3,0.1-0.4,0.2c-0.1,0.1-0.2,0.2-0.2,0.4
			c0,0.3,0.3,0.6,1,0.9c0.9,0.4,1.6,0.8,1.9,1.1c0.3,0.3,0.5,0.8,0.5,1.4c0,0.7-0.3,1.3-0.8,1.8c-0.5,0.5-1.2,0.7-1.9,0.7
			c-1.3,0-2.2-0.6-2.7-1.9l1.5-0.7c0.2,0.4,0.4,0.6,0.5,0.7c0.2,0.2,0.5,0.3,0.8,0.3c0.6,0,0.9-0.3,0.9-0.8c0-0.3-0.2-0.6-0.7-0.9
			c-0.2-0.1-0.4-0.2-0.5-0.3c-0.2-0.1-0.4-0.2-0.5-0.3c-0.5-0.2-0.9-0.5-1.1-0.8c-0.3-0.3-0.4-0.7-0.4-1.2c0-0.7,0.2-1.2,0.7-1.6
			c0.5-0.4,1-0.6,1.7-0.6C43.4,20.2,44.1,20.7,44.6,21.7z"/>
		<path class="st2" d="M46.4,17.2c0-0.3,0.1-0.6,0.3-0.8c0.2-0.2,0.5-0.3,0.8-0.3c0.3,0,0.6,0.1,0.8,0.3c0.2,0.2,0.3,0.5,0.3,0.8
			s-0.1,0.6-0.3,0.8c-0.2,0.2-0.5,0.3-0.8,0.3c-0.3,0-0.6-0.1-0.8-0.3C46.5,17.8,46.4,17.6,46.4,17.2z M48.4,20.4V28h-1.8v-7.6H48.4
			z"/>
		<path class="st2" d="M56.6,20.7v2.3c-0.4-0.5-0.8-0.8-1.1-1c-0.3-0.2-0.7-0.3-1.1-0.3c-0.7,0-1.2,0.2-1.6,0.7s-0.7,1-0.7,1.7
			c0,0.7,0.2,1.3,0.6,1.8c0.4,0.5,1,0.7,1.6,0.7c0.4,0,0.8-0.1,1.1-0.3c0.3-0.2,0.7-0.5,1.1-1v2.3c-0.7,0.4-1.4,0.6-2.1,0.6
			c-1.2,0-2.2-0.4-3-1.1c-0.8-0.8-1.2-1.7-1.2-2.9s0.4-2.1,1.2-2.9c0.8-0.8,1.8-1.2,3-1.2C55.2,20.2,55.9,20.4,56.6,20.7z"/>
		<path class="st2" d="M68.8,20.4h1.8V28h-1.8v-0.8c-0.7,0.7-1.5,1-2.3,1c-1.1,0-1.9-0.4-2.6-1.1c-0.7-0.8-1-1.7-1-2.9
			c0-1.1,0.3-2.1,1-2.9c0.7-0.8,1.5-1.1,2.6-1.1c0.9,0,1.7,0.4,2.4,1.1V20.4z M64.7,24.2c0,0.7,0.2,1.3,0.6,1.8
			c0.4,0.5,0.9,0.7,1.5,0.7c0.7,0,1.2-0.2,1.6-0.7c0.4-0.5,0.6-1.1,0.6-1.8s-0.2-1.3-0.6-1.8c-0.4-0.5-0.9-0.7-1.6-0.7
			c-0.6,0-1.1,0.2-1.5,0.7C64.9,22.9,64.7,23.5,64.7,24.2z"/>
		<path class="st2" d="M78.7,20.7v2.3c-0.4-0.5-0.8-0.8-1.1-1c-0.3-0.2-0.7-0.3-1.1-0.3c-0.7,0-1.2,0.2-1.6,0.7s-0.7,1-0.7,1.7
			c0,0.7,0.2,1.3,0.6,1.8c0.4,0.5,1,0.7,1.6,0.7c0.4,0,0.8-0.1,1.1-0.3c0.3-0.2,0.7-0.5,1.1-1v2.3c-0.7,0.4-1.4,0.6-2.1,0.6
			c-1.2,0-2.2-0.4-3-1.1c-0.8-0.8-1.2-1.7-1.2-2.9s0.4-2.1,1.2-2.9c0.8-0.8,1.8-1.2,3-1.2C77.4,20.2,78.1,20.4,78.7,20.7z"/>
		<path class="st2" d="M82.2,22v6h-1.8v-6h-0.8v-1.6h0.8v-2.8h1.8v2.8h1.4V22H82.2z"/>
		<path class="st2" d="M89.2,21.7l-1.5,0.8c-0.2-0.5-0.5-0.7-0.9-0.7c-0.2,0-0.3,0.1-0.4,0.2c-0.1,0.1-0.2,0.2-0.2,0.4
			c0,0.3,0.3,0.6,1,0.9c0.9,0.4,1.6,0.8,1.9,1.1c0.3,0.3,0.5,0.8,0.5,1.4c0,0.7-0.3,1.3-0.8,1.8c-0.5,0.5-1.2,0.7-1.9,0.7
			c-1.3,0-2.2-0.6-2.7-1.9l1.5-0.7c0.2,0.4,0.4,0.6,0.5,0.7c0.2,0.2,0.5,0.3,0.8,0.3c0.6,0,0.9-0.3,0.9-0.8c0-0.3-0.2-0.6-0.7-0.9
			c-0.2-0.1-0.4-0.2-0.5-0.3c-0.2-0.1-0.4-0.2-0.5-0.3c-0.5-0.2-0.9-0.5-1.1-0.8c-0.3-0.3-0.4-0.7-0.4-1.2c0-0.7,0.2-1.2,0.7-1.6
			c0.5-0.4,1-0.6,1.7-0.6C88,20.2,88.8,20.7,89.2,21.7z"/>
		<path class="st2" d="M101.8,20.4h1.8V28h-1.8v-0.8c-0.7,0.7-1.5,1-2.3,1c-1.1,0-1.9-0.4-2.6-1.1c-0.7-0.8-1-1.7-1-2.9
			c0-1.1,0.3-2.1,1-2.9c0.7-0.8,1.5-1.1,2.6-1.1c0.9,0,1.7,0.4,2.4,1.1V20.4z M97.7,24.2c0,0.7,0.2,1.3,0.6,1.8
			c0.4,0.5,0.9,0.7,1.5,0.7c0.7,0,1.2-0.2,1.6-0.7c0.4-0.5,0.6-1.1,0.6-1.8s-0.2-1.3-0.6-1.8c-0.4-0.5-0.9-0.7-1.6-0.7
			c-0.6,0-1.1,0.2-1.5,0.7C97.9,22.9,97.7,23.5,97.7,24.2z"/>
		<path class="st2" d="M110.3,21.7l-1.5,0.8c-0.2-0.5-0.5-0.7-0.9-0.7c-0.2,0-0.3,0.1-0.4,0.2c-0.1,0.1-0.2,0.2-0.2,0.4
			c0,0.3,0.3,0.6,1,0.9c0.9,0.4,1.6,0.8,1.9,1.1c0.3,0.3,0.5,0.8,0.5,1.4c0,0.7-0.3,1.3-0.8,1.8c-0.5,0.5-1.2,0.7-1.9,0.7
			c-1.3,0-2.2-0.6-2.7-1.9l1.5-0.7c0.2,0.4,0.4,0.6,0.5,0.7c0.2,0.2,0.5,0.3,0.8,0.3c0.6,0,0.9-0.3,0.9-0.8c0-0.3-0.2-0.6-0.7-0.9
			c-0.2-0.1-0.4-0.2-0.5-0.3c-0.2-0.1-0.4-0.2-0.5-0.3c-0.5-0.2-0.9-0.5-1.1-0.8c-0.3-0.3-0.4-0.7-0.4-1.2c0-0.7,0.2-1.2,0.7-1.6
			c0.5-0.4,1-0.6,1.7-0.6C109.1,20.2,109.8,20.7,110.3,21.7z"/>
		<path class="st2" d="M122.9,20.4h1.8V28h-1.8v-0.8c-0.7,0.7-1.5,1-2.3,1c-1.1,0-1.9-0.4-2.6-1.1c-0.7-0.8-1-1.7-1-2.9
			c0-1.1,0.3-2.1,1-2.9c0.7-0.8,1.5-1.1,2.6-1.1c0.9,0,1.7,0.4,2.4,1.1V20.4z M118.7,24.2c0,0.7,0.2,1.3,0.6,1.8
			c0.4,0.5,0.9,0.7,1.5,0.7c0.7,0,1.2-0.2,1.6-0.7c0.4-0.5,0.6-1.1,0.6-1.8s-0.2-1.3-0.6-1.8c-0.4-0.5-0.9-0.7-1.6-0.7
			c-0.6,0-1.1,0.2-1.5,0.7C118.9,22.9,118.7,23.5,118.7,24.2z"/>
		<path class="st2" d="M137.4,14.8h1.8V28h-1.8v-0.8c-0.7,0.7-1.5,1-2.4,1c-1,0-1.9-0.4-2.6-1.1c-0.7-0.8-1-1.7-1-2.9
			c0-1.1,0.3-2.1,1-2.8c0.7-0.8,1.5-1.1,2.6-1.1c0.9,0,1.7,0.4,2.4,1.1V14.8z M133.2,24.2c0,0.7,0.2,1.3,0.6,1.8
			c0.4,0.5,0.9,0.7,1.5,0.7c0.7,0,1.2-0.2,1.6-0.7c0.4-0.5,0.6-1.1,0.6-1.8s-0.2-1.3-0.6-1.8c-0.4-0.5-0.9-0.7-1.6-0.7
			c-0.6,0-1.1,0.2-1.5,0.7C133.4,22.9,133.2,23.5,133.2,24.2z"/>
		<path class="st2" d="M141.1,17.2c0-0.3,0.1-0.6,0.3-0.8c0.2-0.2,0.5-0.3,0.8-0.3c0.3,0,0.6,0.1,0.8,0.3c0.2,0.2,0.3,0.5,0.3,0.8
			s-0.1,0.6-0.3,0.8c-0.2,0.2-0.5,0.3-0.8,0.3c-0.3,0-0.6-0.1-0.8-0.3C141.2,17.8,141.1,17.6,141.1,17.2z M143.1,20.4V28h-1.8v-7.6
			H143.1z"/>
		<path class="st2" d="M149.8,21.7l-1.5,0.8c-0.2-0.5-0.5-0.7-0.9-0.7c-0.2,0-0.3,0.1-0.4,0.2c-0.1,0.1-0.2,0.2-0.2,0.4
			c0,0.3,0.3,0.6,1,0.9c0.9,0.4,1.6,0.8,1.9,1.1c0.3,0.3,0.5,0.8,0.5,1.4c0,0.7-0.3,1.3-0.8,1.8c-0.5,0.5-1.2,0.7-1.9,0.7
			c-1.3,0-2.2-0.6-2.7-1.9l1.5-0.7c0.2,0.4,0.4,0.6,0.5,0.7c0.2,0.2,0.5,0.3,0.8,0.3c0.6,0,0.9-0.3,0.9-0.8c0-0.3-0.2-0.6-0.7-0.9
			c-0.2-0.1-0.4-0.2-0.5-0.3c-0.2-0.1-0.4-0.2-0.5-0.3c-0.5-0.2-0.9-0.5-1.1-0.8c-0.3-0.3-0.4-0.7-0.4-1.2c0-0.7,0.2-1.2,0.7-1.6
			c0.5-0.4,1-0.6,1.7-0.6C148.6,20.2,149.3,20.7,149.8,21.7z"/>
		<path class="st2" d="M153.7,22v6h-1.8v-6h-0.8v-1.6h0.8v-2.8h1.8v2.8h1.4V22H153.7z"/>
		<path class="st2" d="M156.2,20.4h1.8v0.7c0.3-0.3,0.6-0.6,0.9-0.7c0.3-0.1,0.6-0.2,0.9-0.2c0.5,0,0.9,0.2,1.5,0.5l-0.8,1.6
			c-0.3-0.2-0.7-0.4-1-0.4c-1,0-1.4,0.7-1.4,2.2V28h-1.8V20.4z"/>
		<path class="st2" d="M167.7,20.4h1.8V28h-1.8v-0.8c-0.7,0.7-1.5,1-2.3,1c-1.1,0-1.9-0.4-2.6-1.1c-0.7-0.8-1-1.7-1-2.9
			c0-1.1,0.3-2.1,1-2.9c0.7-0.8,1.5-1.1,2.6-1.1c0.9,0,1.7,0.4,2.4,1.1V20.4z M163.6,24.2c0,0.7,0.2,1.3,0.6,1.8
			c0.4,0.5,0.9,0.7,1.5,0.7c0.7,0,1.2-0.2,1.6-0.7c0.4-0.5,0.6-1.1,0.6-1.8s-0.2-1.3-0.6-1.8c-0.4-0.5-0.9-0.7-1.6-0.7
			c-0.6,0-1.1,0.2-1.5,0.7C163.8,22.9,163.6,23.5,163.6,24.2z"/>
		<path class="st2" d="M177.6,20.7v2.3c-0.4-0.5-0.8-0.8-1.1-1c-0.3-0.2-0.7-0.3-1.1-0.3c-0.7,0-1.2,0.2-1.6,0.7s-0.7,1-0.7,1.7
			c0,0.7,0.2,1.3,0.6,1.8c0.4,0.5,1,0.7,1.6,0.7c0.4,0,0.8-0.1,1.1-0.3c0.3-0.2,0.7-0.5,1.1-1v2.3c-0.7,0.4-1.4,0.6-2.1,0.6
			c-1.2,0-2.2-0.4-3-1.1c-0.8-0.8-1.2-1.7-1.2-2.9s0.4-2.1,1.2-2.9c0.8-0.8,1.8-1.2,3-1.2C176.3,20.2,177,20.4,177.6,20.7z"/>
		<path class="st2" d="M181.1,22v6h-1.8v-6h-0.8v-1.6h0.8v-2.8h1.8v2.8h1.4V22H181.1z"/>
		<path class="st2" d="M183.5,24.1c0-1.1,0.4-2,1.2-2.8c0.8-0.8,1.7-1.2,2.9-1.2c1.1,0,2.1,0.4,2.9,1.2c0.8,0.8,1.2,1.7,1.2,2.9
			c0,1.1-0.4,2.1-1.2,2.9c-0.8,0.8-1.8,1.1-2.9,1.1c-1.1,0-2.1-0.4-2.9-1.2C183.8,26.3,183.5,25.3,183.5,24.1z M185.3,24.2
			c0,0.8,0.2,1.4,0.6,1.8c0.4,0.4,1,0.7,1.6,0.7c0.7,0,1.2-0.2,1.6-0.7c0.4-0.4,0.6-1,0.6-1.8s-0.2-1.3-0.6-1.8
			c-0.4-0.4-1-0.7-1.6-0.7c-0.7,0-1.2,0.2-1.6,0.7C185.5,22.9,185.3,23.5,185.3,24.2z"/>
		<path class="st2" d="M193.4,20.4h1.8v0.7c0.3-0.3,0.6-0.6,0.9-0.7c0.3-0.1,0.6-0.2,0.9-0.2c0.5,0,0.9,0.2,1.5,0.5l-0.8,1.6
			c-0.3-0.2-0.7-0.4-1-0.4c-1,0-1.4,0.7-1.4,2.2V28h-1.8V20.4z"/>
		<path class="st2" d="M206.2,22v6h-1.8v-6h-0.6v-1.6h0.6v-2.9c0-1,0.2-1.6,0.5-2c0.5-0.6,1.1-0.8,2-0.8c0.3,0,0.7,0.1,1.2,0.3v1.8
			l-0.2-0.1c-0.4-0.2-0.7-0.3-0.9-0.3c-0.3,0-0.5,0.1-0.6,0.3c-0.1,0.2-0.2,0.6-0.2,1.3v2.5h1.9V22H206.2z"/>
		<path class="st2" d="M208.9,24.1c0-1.1,0.4-2,1.2-2.8c0.8-0.8,1.7-1.2,2.9-1.2c1.1,0,2.1,0.4,2.9,1.2c0.8,0.8,1.2,1.7,1.2,2.9
			c0,1.1-0.4,2.1-1.2,2.9c-0.8,0.8-1.8,1.1-2.9,1.1c-1.1,0-2.1-0.4-2.9-1.2C209.3,26.3,208.9,25.3,208.9,24.1z M210.7,24.2
			c0,0.8,0.2,1.4,0.6,1.8c0.4,0.4,1,0.7,1.6,0.7c0.7,0,1.2-0.2,1.6-0.7c0.4-0.4,0.6-1,0.6-1.8s-0.2-1.3-0.6-1.8
			c-0.4-0.4-1-0.7-1.6-0.7c-0.7,0-1.2,0.2-1.6,0.7C210.9,22.9,210.7,23.5,210.7,24.2z"/>
		<path class="st2" d="M224.8,20.7v2.3c-0.4-0.5-0.8-0.8-1.1-1c-0.3-0.2-0.7-0.3-1.1-0.3c-0.7,0-1.2,0.2-1.6,0.7s-0.7,1-0.7,1.7
			c0,0.7,0.2,1.3,0.6,1.8c0.4,0.5,1,0.7,1.6,0.7c0.4,0,0.8-0.1,1.1-0.3c0.3-0.2,0.7-0.5,1.1-1v2.3c-0.7,0.4-1.4,0.6-2.1,0.6
			c-1.2,0-2.2-0.4-3-1.1c-0.8-0.8-1.2-1.7-1.2-2.9s0.4-2.1,1.2-2.9c0.8-0.8,1.8-1.2,3-1.2C223.5,20.2,224.2,20.4,224.8,20.7z"/>
		<path class="st2" d="M228.3,20.4v4.4c0,1.3,0.5,1.9,1.5,1.9c1,0,1.5-0.6,1.5-1.9v-4.4h1.8v4.4c0,0.6-0.1,1.1-0.2,1.6
			c-0.1,0.4-0.4,0.8-0.8,1.1c-0.6,0.5-1.3,0.8-2.3,0.8c-0.9,0-1.7-0.3-2.3-0.8c-0.4-0.3-0.6-0.7-0.8-1.1c-0.1-0.4-0.2-0.9-0.2-1.6
			v-4.4H228.3z"/>
		<path class="st2" d="M239.7,21.7l-1.5,0.8c-0.2-0.5-0.5-0.7-0.9-0.7c-0.2,0-0.3,0.1-0.4,0.2c-0.1,0.1-0.2,0.2-0.2,0.4
			c0,0.3,0.3,0.6,1,0.9c0.9,0.4,1.6,0.8,1.9,1.1c0.3,0.3,0.5,0.8,0.5,1.4c0,0.7-0.3,1.3-0.8,1.8c-0.5,0.5-1.2,0.7-1.9,0.7
			c-1.3,0-2.2-0.6-2.7-1.9l1.5-0.7c0.2,0.4,0.4,0.6,0.5,0.7c0.2,0.2,0.5,0.3,0.8,0.3c0.6,0,0.9-0.3,0.9-0.8c0-0.3-0.2-0.6-0.7-0.9
			c-0.2-0.1-0.4-0.2-0.5-0.3c-0.2-0.1-0.4-0.2-0.5-0.3c-0.5-0.2-0.9-0.5-1.1-0.8c-0.3-0.3-0.4-0.7-0.4-1.2c0-0.7,0.2-1.2,0.7-1.6
			c0.5-0.4,1-0.6,1.7-0.6C238.5,20.2,239.2,20.7,239.7,21.7z"/>
		<path class="st2" d="M241.5,17.2c0-0.3,0.1-0.6,0.3-0.8c0.2-0.2,0.5-0.3,0.8-0.3c0.3,0,0.6,0.1,0.8,0.3c0.2,0.2,0.3,0.5,0.3,0.8
			s-0.1,0.6-0.3,0.8c-0.2,0.2-0.5,0.3-0.8,0.3c-0.3,0-0.6-0.1-0.8-0.3C241.6,17.8,241.5,17.6,241.5,17.2z M243.5,20.4V28h-1.8v-7.6
			H243.5z"/>
		<path class="st2" d="M245.7,20.4h1.8v0.7c0.6-0.6,1.3-0.9,2.1-0.9c0.9,0,1.6,0.3,2.1,0.8c0.4,0.5,0.6,1.2,0.6,2.3V28h-1.8v-4.2
			c0-0.8-0.1-1.3-0.3-1.6c-0.2-0.3-0.6-0.4-1.1-0.4c-0.6,0-1,0.2-1.2,0.6c-0.2,0.4-0.4,1-0.4,2V28h-1.8V20.4z"/>
		<path class="st2" d="M261.9,27.8c0,0.4,0,0.7,0,0.9s-0.1,0.5-0.1,0.7c-0.1,0.6-0.4,1.1-0.7,1.5c-0.7,0.8-1.6,1.2-2.8,1.2
			c-1,0-1.9-0.3-2.5-0.8c-0.7-0.6-1.1-1.3-1.2-2.3h1.8c0.1,0.4,0.2,0.7,0.3,0.9c0.4,0.5,0.9,0.7,1.6,0.7c1.3,0,1.9-0.8,1.9-2.4v-1.1
			c-0.7,0.7-1.5,1.1-2.4,1.1c-1,0-1.9-0.4-2.5-1.1c-0.7-0.8-1-1.7-1-2.9c0-1.1,0.3-2.1,0.9-2.8c0.7-0.8,1.5-1.2,2.6-1.2
			c1,0,1.8,0.4,2.4,1.1v-0.9h1.8V27.8z M260.2,24.2c0-0.7-0.2-1.3-0.6-1.8c-0.4-0.5-0.9-0.7-1.5-0.7c-0.7,0-1.2,0.2-1.6,0.7
			c-0.3,0.4-0.5,1-0.5,1.7c0,0.7,0.2,1.3,0.5,1.7c0.4,0.5,0.9,0.7,1.6,0.7s1.2-0.2,1.6-0.7C260,25.5,260.2,24.9,260.2,24.2z"/>
		<path class="st2" d="M270.8,22v6h-1.8v-6h-0.8v-1.6h0.8v-2.8h1.8v2.8h1.4V22H270.8z"/>
		<path class="st2" d="M273.7,14.8h1.8V21c0.6-0.6,1.3-0.8,2.1-0.8c0.9,0,1.5,0.3,2.1,0.8c0.4,0.5,0.7,1.3,0.7,2.3V28h-1.8v-4.5
			c0-0.6-0.1-1.1-0.3-1.3c-0.2-0.3-0.6-0.4-1-0.4c-0.6,0-1,0.2-1.3,0.6c-0.2,0.4-0.4,1-0.4,2V28h-1.8V14.8z"/>
		<path class="st2" d="M289.4,24.6H284c0,0.6,0.2,1.1,0.6,1.5c0.4,0.4,0.8,0.5,1.4,0.5c0.4,0,0.8-0.1,1.1-0.3c0.3-0.2,0.6-0.6,1-1.2
			l1.5,0.8c-0.2,0.4-0.5,0.7-0.7,1c-0.3,0.3-0.5,0.5-0.8,0.7c-0.3,0.2-0.6,0.3-0.9,0.4c-0.3,0.1-0.7,0.1-1.1,0.1
			c-1.1,0-2-0.4-2.7-1.1c-0.7-0.7-1-1.7-1-2.9c0-1.2,0.3-2.2,1-2.9c0.7-0.7,1.6-1.1,2.7-1.1c1.1,0,2,0.4,2.7,1.1
			c0.6,0.7,1,1.7,1,2.9L289.4,24.6z M287.6,23.2c-0.2-0.9-0.8-1.4-1.8-1.4c-0.2,0-0.4,0-0.6,0.1s-0.4,0.2-0.5,0.3
			c-0.2,0.1-0.3,0.3-0.4,0.4s-0.2,0.4-0.2,0.6H287.6z"/>
	</g>
	<g class="st1">
		<path class="st2" d="M21.7,39.6h1.8v7.6h-1.8v-0.8c-0.7,0.7-1.5,1-2.3,1c-1.1,0-1.9-0.4-2.6-1.1c-0.7-0.8-1-1.7-1-2.9
			c0-1.1,0.3-2.1,1-2.9c0.7-0.8,1.5-1.1,2.6-1.1c0.9,0,1.7,0.4,2.4,1.1V39.6z M17.5,43.4c0,0.7,0.2,1.3,0.6,1.8
			c0.4,0.5,0.9,0.7,1.5,0.7c0.7,0,1.2-0.2,1.6-0.7c0.4-0.5,0.6-1.1,0.6-1.8s-0.2-1.3-0.6-1.8c-0.4-0.5-0.9-0.7-1.6-0.7
			c-0.6,0-1.1,0.2-1.5,0.7C17.7,42.1,17.5,42.7,17.5,43.4z"/>
		<path class="st2" d="M27.5,41.2v6h-1.8v-6H25v-1.6h0.8v-2.8h1.8v2.8h1.4v1.6H27.5z"/>
		<path class="st2" d="M31.9,41.2v6h-1.8v-6h-0.8v-1.6h0.8v-2.8h1.8v2.8h1.4v1.6H31.9z"/>
		<path class="st2" d="M41.5,43.8H36c0,0.6,0.2,1.1,0.6,1.5c0.4,0.4,0.8,0.5,1.4,0.5c0.4,0,0.8-0.1,1.1-0.3c0.3-0.2,0.6-0.6,1-1.2
			l1.5,0.8c-0.2,0.4-0.5,0.7-0.7,1c-0.3,0.3-0.5,0.5-0.8,0.7c-0.3,0.2-0.6,0.3-0.9,0.4c-0.3,0.1-0.7,0.1-1.1,0.1
			c-1.1,0-2-0.4-2.7-1.1c-0.7-0.7-1-1.7-1-2.9c0-1.2,0.3-2.2,1-2.9c0.7-0.7,1.6-1.1,2.7-1.1c1.1,0,2,0.4,2.7,1.1
			c0.6,0.7,1,1.7,1,2.9L41.5,43.8z M39.7,42.4c-0.2-0.9-0.8-1.4-1.8-1.4c-0.2,0-0.4,0-0.6,0.1s-0.4,0.2-0.5,0.3
			c-0.2,0.1-0.3,0.3-0.4,0.4s-0.2,0.4-0.2,0.6H39.7z"/>
		<path class="st2" d="M43.4,39.6h1.8v0.7c0.6-0.6,1.3-0.9,2.1-0.9c0.9,0,1.6,0.3,2.1,0.8c0.4,0.5,0.6,1.2,0.6,2.3v4.7h-1.8V43
			c0-0.8-0.1-1.3-0.3-1.6c-0.2-0.3-0.6-0.4-1.1-0.4c-0.6,0-1,0.2-1.2,0.6c-0.2,0.4-0.4,1-0.4,2v3.7h-1.8V39.6z"/>
		<path class="st2" d="M54,41.2v6h-1.8v-6h-0.8v-1.6h0.8v-2.8H54v2.8h1.4v1.6H54z"/>
		<path class="st2" d="M56.3,36.4c0-0.3,0.1-0.6,0.3-0.8c0.2-0.2,0.5-0.3,0.8-0.3c0.3,0,0.6,0.1,0.8,0.3c0.2,0.2,0.3,0.5,0.3,0.8
			s-0.1,0.6-0.3,0.8c-0.2,0.2-0.5,0.3-0.8,0.3c-0.3,0-0.6-0.1-0.8-0.3C56.4,37,56.3,36.8,56.3,36.4z M58.3,39.6v7.6h-1.8v-7.6H58.3z
			"/>
		<path class="st2" d="M60.2,43.3c0-1.1,0.4-2,1.2-2.8c0.8-0.8,1.7-1.2,2.9-1.2c1.1,0,2.1,0.4,2.9,1.2c0.8,0.8,1.2,1.7,1.2,2.9
			c0,1.1-0.4,2.1-1.2,2.9c-0.8,0.8-1.8,1.1-2.9,1.1c-1.1,0-2.1-0.4-2.9-1.2C60.6,45.5,60.2,44.5,60.2,43.3z M62,43.4
			c0,0.8,0.2,1.4,0.6,1.8c0.4,0.4,1,0.7,1.6,0.7c0.7,0,1.2-0.2,1.6-0.7c0.4-0.4,0.6-1,0.6-1.8s-0.2-1.3-0.6-1.8
			c-0.4-0.4-1-0.7-1.6-0.7c-0.7,0-1.2,0.2-1.6,0.7C62.2,42.1,62,42.7,62,43.4z"/>
		<path class="st2" d="M70.2,39.6h1.8v0.7c0.6-0.6,1.3-0.9,2.1-0.9c0.9,0,1.6,0.3,2.1,0.8c0.4,0.5,0.6,1.2,0.6,2.3v4.7H75V43
			c0-0.8-0.1-1.3-0.3-1.6c-0.2-0.3-0.6-0.4-1.1-0.4c-0.6,0-1,0.2-1.2,0.6c-0.2,0.4-0.4,1-0.4,2v3.7h-1.8V39.6z"/>
		<path class="st2" d="M89.5,39.6h1.8v7.6h-1.8v-0.8c-0.7,0.7-1.5,1-2.3,1c-1.1,0-1.9-0.4-2.6-1.1c-0.7-0.8-1-1.7-1-2.9
			c0-1.1,0.3-2.1,1-2.9c0.7-0.8,1.5-1.1,2.6-1.1c0.9,0,1.7,0.4,2.4,1.1V39.6z M85.3,43.4c0,0.7,0.2,1.3,0.6,1.8
			c0.4,0.5,0.9,0.7,1.5,0.7c0.7,0,1.2-0.2,1.6-0.7c0.4-0.5,0.6-1.1,0.6-1.8s-0.2-1.3-0.6-1.8c-0.4-0.5-0.9-0.7-1.6-0.7
			c-0.6,0-1.1,0.2-1.5,0.7C85.5,42.1,85.3,42.7,85.3,43.4z"/>
		<path class="st2" d="M94.6,39.6l2,4.3l2.1-5l2.2,5l2-4.3h2l-4,8.2l-2.1-4.9l-2.1,4.9l-4-8.2H94.6z"/>
		<path class="st2" d="M111.3,39.6h1.8v7.6h-1.8v-0.8c-0.7,0.7-1.5,1-2.3,1c-1.1,0-1.9-0.4-2.6-1.1c-0.7-0.8-1-1.7-1-2.9
			c0-1.1,0.3-2.1,1-2.9c0.7-0.8,1.5-1.1,2.6-1.1c0.9,0,1.7,0.4,2.4,1.1V39.6z M107.2,43.4c0,0.7,0.2,1.3,0.6,1.8
			c0.4,0.5,0.9,0.7,1.5,0.7c0.7,0,1.2-0.2,1.6-0.7c0.4-0.5,0.6-1.1,0.6-1.8s-0.2-1.3-0.6-1.8c-0.4-0.5-0.9-0.7-1.6-0.7
			c-0.6,0-1.1,0.2-1.5,0.7C107.4,42.1,107.2,42.7,107.2,43.4z"/>
		<path class="st2" d="M117.9,45.8l-3.4-6.2h2l2.3,4.4l2.2-4.4h2l-6.1,11.8h-2L117.9,45.8z"/>
		<path class="st2" d="M130.9,41.2v6h-1.8v-6h-0.6v-1.6h0.6v-2.9c0-1,0.2-1.6,0.5-2c0.5-0.6,1.1-0.8,2-0.8c0.3,0,0.7,0.1,1.2,0.3
			v1.8l-0.2-0.1c-0.4-0.2-0.7-0.3-0.9-0.3c-0.3,0-0.5,0.1-0.6,0.3c-0.1,0.2-0.2,0.6-0.2,1.3v2.5h1.9v1.6H130.9z"/>
		<path class="st2" d="M133.8,39.6h1.8v0.7c0.3-0.3,0.6-0.6,0.9-0.7c0.3-0.1,0.6-0.2,0.9-0.2c0.5,0,0.9,0.2,1.5,0.5l-0.8,1.6
			c-0.3-0.2-0.7-0.4-1-0.4c-1,0-1.4,0.7-1.4,2.2v3.9h-1.8V39.6z"/>
		<path class="st2" d="M139.3,43.3c0-1.1,0.4-2,1.2-2.8c0.8-0.8,1.7-1.2,2.9-1.2c1.1,0,2.1,0.4,2.9,1.2c0.8,0.8,1.2,1.7,1.2,2.9
			c0,1.1-0.4,2.1-1.2,2.9c-0.8,0.8-1.8,1.1-2.9,1.1c-1.1,0-2.1-0.4-2.9-1.2C139.7,45.5,139.3,44.5,139.3,43.3z M141.1,43.4
			c0,0.8,0.2,1.4,0.6,1.8c0.4,0.4,1,0.7,1.6,0.7c0.7,0,1.2-0.2,1.6-0.7c0.4-0.4,0.6-1,0.6-1.8s-0.2-1.3-0.6-1.8
			c-0.4-0.4-1-0.7-1.6-0.7c-0.7,0-1.2,0.2-1.6,0.7C141.3,42.1,141.1,42.7,141.1,43.4z"/>
		<path class="st2" d="M149.3,39.6h1.8v0.7c0.3-0.4,0.6-0.6,0.9-0.7c0.3-0.1,0.6-0.2,1-0.2c0.9,0,1.5,0.4,2,1.1
			c0.6-0.8,1.3-1.1,2.2-1.1c1.7,0,2.6,1,2.6,3.1v4.7H158V43c0-0.7-0.1-1.2-0.3-1.5c-0.2-0.3-0.5-0.5-0.9-0.5c-0.5,0-0.8,0.2-1.1,0.5
			c-0.2,0.4-0.3,1-0.3,1.8v3.9h-1.8V43c0-1.4-0.4-2-1.2-2c-0.5,0-0.9,0.2-1.1,0.6s-0.3,1-0.3,1.8v3.9h-1.8V39.6z"/>
		<path class="st2" d="M166.9,39.6h1.8v0.7c0.6-0.6,1.3-0.9,2.1-0.9c0.9,0,1.6,0.3,2.1,0.8c0.4,0.5,0.6,1.2,0.6,2.3v4.7h-1.8V43
			c0-0.8-0.1-1.3-0.3-1.6c-0.2-0.3-0.6-0.4-1.1-0.4c-0.6,0-1,0.2-1.2,0.6c-0.2,0.4-0.4,1-0.4,2v3.7h-1.8V39.6z"/>
		<path class="st2" d="M182.6,43.8h-5.5c0,0.6,0.2,1.1,0.6,1.5c0.4,0.4,0.8,0.5,1.4,0.5c0.4,0,0.8-0.1,1.1-0.3
			c0.3-0.2,0.6-0.6,1-1.2l1.5,0.8c-0.2,0.4-0.5,0.7-0.7,1c-0.3,0.3-0.5,0.5-0.8,0.7c-0.3,0.2-0.6,0.3-0.9,0.4
			c-0.3,0.1-0.7,0.1-1.1,0.1c-1.1,0-2-0.4-2.7-1.1c-0.7-0.7-1-1.7-1-2.9c0-1.2,0.3-2.2,1-2.9c0.7-0.7,1.6-1.1,2.7-1.1
			c1.1,0,2,0.4,2.7,1.1c0.6,0.7,1,1.7,1,2.9L182.6,43.8z M180.8,42.4c-0.2-0.9-0.8-1.4-1.8-1.4c-0.2,0-0.4,0-0.6,0.1
			s-0.4,0.2-0.5,0.3c-0.2,0.1-0.3,0.3-0.4,0.4s-0.2,0.4-0.2,0.6H180.8z"/>
		<path class="st2" d="M191.9,47c0,0.4,0,0.7,0,0.9s-0.1,0.5-0.1,0.7c-0.1,0.6-0.4,1.1-0.7,1.5c-0.7,0.8-1.6,1.2-2.8,1.2
			c-1,0-1.9-0.3-2.5-0.8c-0.7-0.6-1.1-1.3-1.2-2.3h1.8c0.1,0.4,0.2,0.7,0.3,0.9c0.4,0.5,0.9,0.7,1.6,0.7c1.3,0,1.9-0.8,1.9-2.4v-1.1
			c-0.7,0.7-1.5,1.1-2.4,1.1c-1,0-1.9-0.4-2.5-1.1c-0.7-0.8-1-1.7-1-2.9c0-1.1,0.3-2.1,0.9-2.8c0.7-0.8,1.5-1.2,2.6-1.2
			c1,0,1.8,0.4,2.4,1.1v-0.9h1.8V47z M190.2,43.4c0-0.7-0.2-1.3-0.6-1.8c-0.4-0.5-0.9-0.7-1.5-0.7c-0.7,0-1.2,0.2-1.6,0.7
			c-0.3,0.4-0.5,1-0.5,1.7c0,0.7,0.2,1.3,0.5,1.7c0.4,0.5,0.9,0.7,1.6,0.7s1.2-0.2,1.6-0.7C190,44.7,190.2,44.1,190.2,43.4z"/>
		<path class="st2" d="M199.7,39.6h1.8v7.6h-1.8v-0.8c-0.7,0.7-1.5,1-2.3,1c-1.1,0-1.9-0.4-2.6-1.1c-0.7-0.8-1-1.7-1-2.9
			c0-1.1,0.3-2.1,1-2.9c0.7-0.8,1.5-1.1,2.6-1.1c0.9,0,1.7,0.4,2.4,1.1V39.6z M195.5,43.4c0,0.7,0.2,1.3,0.6,1.8
			c0.4,0.5,0.9,0.7,1.5,0.7c0.7,0,1.2-0.2,1.6-0.7c0.4-0.5,0.6-1.1,0.6-1.8s-0.2-1.3-0.6-1.8c-0.4-0.5-0.9-0.7-1.6-0.7
			c-0.6,0-1.1,0.2-1.5,0.7C195.7,42.1,195.5,42.7,195.5,43.4z"/>
		<path class="st2" d="M205.5,41.2v6h-1.8v-6H203v-1.6h0.8v-2.8h1.8v2.8h1.4v1.6H205.5z"/>
		<path class="st2" d="M207.8,36.4c0-0.3,0.1-0.6,0.3-0.8c0.2-0.2,0.5-0.3,0.8-0.3c0.3,0,0.6,0.1,0.8,0.3c0.2,0.2,0.3,0.5,0.3,0.8
			s-0.1,0.6-0.3,0.8c-0.2,0.2-0.5,0.3-0.8,0.3c-0.3,0-0.6-0.1-0.8-0.3C207.9,37,207.8,36.8,207.8,36.4z M209.8,39.6v7.6h-1.8v-7.6
			H209.8z"/>
		<path class="st2" d="M213,39.6l2,4.3l2-4.3h2l-4,8.1l-3.9-8.1H213z"/>
		<path class="st2" d="M226.8,43.8h-5.5c0,0.6,0.2,1.1,0.6,1.5c0.4,0.4,0.8,0.5,1.4,0.5c0.4,0,0.8-0.1,1.1-0.3
			c0.3-0.2,0.6-0.6,1-1.2l1.5,0.8c-0.2,0.4-0.5,0.7-0.7,1c-0.3,0.3-0.5,0.5-0.8,0.7c-0.3,0.2-0.6,0.3-0.9,0.4
			c-0.3,0.1-0.7,0.1-1.1,0.1c-1.1,0-2-0.4-2.7-1.1c-0.7-0.7-1-1.7-1-2.9c0-1.2,0.3-2.2,1-2.9c0.7-0.7,1.6-1.1,2.7-1.1
			c1.1,0,2,0.4,2.7,1.1c0.6,0.7,1,1.7,1,2.9L226.8,43.8z M225,42.4c-0.2-0.9-0.8-1.4-1.8-1.4c-0.2,0-0.4,0-0.6,0.1s-0.4,0.2-0.5,0.3
			c-0.2,0.1-0.3,0.3-0.4,0.4s-0.2,0.4-0.2,0.6H225z"/>
		<path class="st2" d="M238,40.9l-1.5,0.8c-0.2-0.5-0.5-0.7-0.9-0.7c-0.2,0-0.3,0.1-0.4,0.2c-0.1,0.1-0.2,0.2-0.2,0.4
			c0,0.3,0.3,0.6,1,0.9c0.9,0.4,1.6,0.8,1.9,1.1c0.3,0.3,0.5,0.8,0.5,1.4c0,0.7-0.3,1.3-0.8,1.8c-0.5,0.5-1.2,0.7-1.9,0.7
			c-1.3,0-2.2-0.6-2.7-1.9l1.5-0.7c0.2,0.4,0.4,0.6,0.5,0.7c0.2,0.2,0.5,0.3,0.8,0.3c0.6,0,0.9-0.3,0.9-0.8c0-0.3-0.2-0.6-0.7-0.9
			c-0.2-0.1-0.4-0.2-0.5-0.3c-0.2-0.1-0.4-0.2-0.5-0.3c-0.5-0.2-0.9-0.5-1.1-0.8c-0.3-0.3-0.4-0.7-0.4-1.2c0-0.7,0.2-1.2,0.7-1.6
			c0.5-0.4,1-0.6,1.7-0.6C236.8,39.4,237.6,39.9,238,40.9z"/>
		<path class="st2" d="M241.9,41.2v6h-1.8v-6h-0.8v-1.6h0.8v-2.8h1.8v2.8h1.4v1.6H241.9z"/>
		<path class="st2" d="M244.2,36.4c0-0.3,0.1-0.6,0.3-0.8c0.2-0.2,0.5-0.3,0.8-0.3c0.3,0,0.6,0.1,0.8,0.3c0.2,0.2,0.3,0.5,0.3,0.8
			s-0.1,0.6-0.3,0.8c-0.2,0.2-0.5,0.3-0.8,0.3c-0.3,0-0.6-0.1-0.8-0.3C244.3,37,244.2,36.8,244.2,36.4z M246.2,39.6v7.6h-1.8v-7.6
			H246.2z"/>
		<path class="st2" d="M248.5,39.6h1.8v0.7c0.3-0.4,0.6-0.6,0.9-0.7c0.3-0.1,0.6-0.2,1-0.2c0.9,0,1.5,0.4,2,1.1
			c0.6-0.8,1.3-1.1,2.2-1.1c1.7,0,2.6,1,2.6,3.1v4.7h-1.8V43c0-0.7-0.1-1.2-0.3-1.5c-0.2-0.3-0.5-0.5-0.9-0.5
			c-0.5,0-0.8,0.2-1.1,0.5c-0.2,0.4-0.3,1-0.3,1.8v3.9h-1.8V43c0-1.4-0.4-2-1.2-2c-0.5,0-0.9,0.2-1.1,0.6s-0.3,1-0.3,1.8v3.9h-1.8
			V39.6z"/>
		<path class="st2" d="M262.9,39.6V44c0,1.3,0.5,1.9,1.5,1.9c1,0,1.5-0.6,1.5-1.9v-4.4h1.8V44c0,0.6-0.1,1.1-0.2,1.6
			c-0.1,0.4-0.4,0.8-0.8,1.1c-0.6,0.5-1.3,0.8-2.3,0.8c-0.9,0-1.7-0.3-2.3-0.8c-0.4-0.3-0.6-0.7-0.8-1.1c-0.1-0.4-0.2-0.9-0.2-1.6
			v-4.4H262.9z"/>
		<path class="st2" d="M271.6,34v13.2h-1.8V34H271.6z"/>
		<path class="st2" d="M273.6,36.4c0-0.3,0.1-0.6,0.3-0.8c0.2-0.2,0.5-0.3,0.8-0.3c0.3,0,0.6,0.1,0.8,0.3c0.2,0.2,0.3,0.5,0.3,0.8
			s-0.1,0.6-0.3,0.8c-0.2,0.2-0.5,0.3-0.8,0.3c-0.3,0-0.6-0.1-0.8-0.3C273.7,37,273.6,36.8,273.6,36.4z M275.6,39.6v7.6h-1.8v-7.6
			H275.6z"/>
		<path class="st2" d="M284.6,41.2v6h-1.8v-6h-0.8v-1.6h0.8v-2.8h1.8v2.8h1.4v1.6H284.6z"/>
		<path class="st2" d="M286.9,43.3c0-1.1,0.4-2,1.2-2.8c0.8-0.8,1.7-1.2,2.9-1.2c1.1,0,2.1,0.4,2.9,1.2c0.8,0.8,1.2,1.7,1.2,2.9
			c0,1.1-0.4,2.1-1.2,2.9c-0.8,0.8-1.8,1.1-2.9,1.1c-1.1,0-2.1-0.4-2.9-1.2C287.3,45.5,286.9,44.5,286.9,43.3z M288.7,43.4
			c0,0.8,0.2,1.4,0.6,1.8c0.4,0.4,1,0.7,1.6,0.7c0.7,0,1.2-0.2,1.6-0.7c0.4-0.4,0.6-1,0.6-1.8s-0.2-1.3-0.6-1.8
			c-0.4-0.4-1-0.7-1.6-0.7c-0.7,0-1.2,0.2-1.6,0.7C288.9,42.1,288.7,42.7,288.7,43.4z"/>
	</g>
	<g class="st1">
		<path class="st2" d="M20.5,60.1L19,60.9c-0.2-0.5-0.5-0.7-0.9-0.7c-0.2,0-0.3,0.1-0.4,0.2c-0.1,0.1-0.2,0.2-0.2,0.4
			c0,0.3,0.3,0.6,1,0.9c0.9,0.4,1.6,0.8,1.9,1.1c0.3,0.3,0.5,0.8,0.5,1.4c0,0.7-0.3,1.3-0.8,1.8c-0.5,0.5-1.2,0.7-1.9,0.7
			c-1.3,0-2.2-0.6-2.7-1.9l1.5-0.7c0.2,0.4,0.4,0.6,0.5,0.7c0.2,0.2,0.5,0.3,0.8,0.3c0.6,0,0.9-0.3,0.9-0.8c0-0.3-0.2-0.6-0.7-0.9
			c-0.2-0.1-0.4-0.2-0.5-0.3c-0.2-0.1-0.4-0.2-0.5-0.3c-0.5-0.2-0.9-0.5-1.1-0.8c-0.3-0.3-0.4-0.7-0.4-1.2c0-0.7,0.2-1.2,0.7-1.6
			c0.5-0.4,1-0.6,1.7-0.6C19.3,58.6,20,59.1,20.5,60.1z"/>
		<path class="st2" d="M22.2,62.5c0-1.1,0.4-2,1.2-2.8c0.8-0.8,1.7-1.2,2.9-1.2c1.1,0,2.1,0.4,2.9,1.2c0.8,0.8,1.2,1.7,1.2,2.9
			c0,1.1-0.4,2.1-1.2,2.9c-0.8,0.8-1.8,1.1-2.9,1.1c-1.1,0-2.1-0.4-2.9-1.2C22.6,64.7,22.2,63.7,22.2,62.5z M24,62.6
			c0,0.8,0.2,1.4,0.6,1.8c0.4,0.4,1,0.7,1.6,0.7c0.7,0,1.2-0.2,1.6-0.7c0.4-0.4,0.6-1,0.6-1.8s-0.2-1.3-0.6-1.8
			c-0.4-0.4-1-0.7-1.6-0.7c-0.7,0-1.2,0.2-1.6,0.7C24.2,61.3,24,61.9,24,62.6z"/>
		<path class="st2" d="M32.2,58.8h1.8v0.7c0.3-0.4,0.6-0.6,0.9-0.7c0.3-0.1,0.6-0.2,1-0.2c0.9,0,1.5,0.4,2,1.1
			c0.6-0.8,1.3-1.1,2.2-1.1c1.7,0,2.6,1,2.6,3.1v4.7h-1.8v-4.2c0-0.7-0.1-1.2-0.3-1.5c-0.2-0.3-0.5-0.5-0.9-0.5
			c-0.5,0-0.8,0.2-1.1,0.5c-0.2,0.4-0.3,1-0.3,1.8v3.9h-1.8v-4.2c0-1.4-0.4-2-1.2-2c-0.5,0-0.9,0.2-1.1,0.6s-0.3,1-0.3,1.8v3.9h-1.8
			V58.8z"/>
		<path class="st2" d="M51.8,63h-5.5c0,0.6,0.2,1.1,0.6,1.5c0.4,0.4,0.8,0.5,1.4,0.5c0.4,0,0.8-0.1,1.1-0.3c0.3-0.2,0.6-0.6,1-1.2
			l1.5,0.8c-0.2,0.4-0.5,0.7-0.7,1c-0.3,0.3-0.5,0.5-0.8,0.7c-0.3,0.2-0.6,0.3-0.9,0.4c-0.3,0.1-0.7,0.1-1.1,0.1
			c-1.1,0-2-0.4-2.7-1.1c-0.7-0.7-1-1.7-1-2.9c0-1.2,0.3-2.2,1-2.9c0.7-0.7,1.6-1.1,2.7-1.1c1.1,0,2,0.4,2.7,1.1
			c0.6,0.7,1,1.7,1,2.9L51.8,63z M50,61.6c-0.2-0.9-0.8-1.4-1.8-1.4c-0.2,0-0.4,0-0.6,0.1s-0.4,0.2-0.5,0.3
			c-0.2,0.1-0.3,0.3-0.4,0.4s-0.2,0.4-0.2,0.6H50z"/>
		<path class="st2" d="M55.6,60.4v6h-1.8v-6h-0.8v-1.6h0.8V56h1.8v2.8H57v1.6H55.6z"/>
		<path class="st2" d="M58.5,53.2h1.8v6.2c0.6-0.6,1.3-0.8,2.1-0.8c0.9,0,1.5,0.3,2.1,0.8c0.4,0.5,0.7,1.3,0.7,2.3v4.7h-1.8v-4.5
			c0-0.6-0.1-1.1-0.3-1.3c-0.2-0.3-0.6-0.4-1-0.4c-0.6,0-1,0.2-1.3,0.6c-0.2,0.4-0.4,1-0.4,2v3.7h-1.8V53.2z"/>
		<path class="st2" d="M67,55.6c0-0.3,0.1-0.6,0.3-0.8c0.2-0.2,0.5-0.3,0.8-0.3c0.3,0,0.6,0.1,0.8,0.3c0.2,0.2,0.3,0.5,0.3,0.8
			s-0.1,0.6-0.3,0.8c-0.2,0.2-0.5,0.3-0.8,0.3c-0.3,0-0.6-0.1-0.8-0.3C67.1,56.2,67,56,67,55.6z M69.1,58.8v7.6h-1.8v-7.6H69.1z"/>
		<path class="st2" d="M71.3,58.8h1.8v0.7c0.6-0.6,1.3-0.9,2.1-0.9c0.9,0,1.6,0.3,2.1,0.8c0.4,0.5,0.6,1.2,0.6,2.3v4.7h-1.8v-4.2
			c0-0.8-0.1-1.3-0.3-1.6c-0.2-0.3-0.6-0.4-1.1-0.4c-0.6,0-1,0.2-1.2,0.6c-0.2,0.4-0.4,1-0.4,2v3.7h-1.8V58.8z"/>
		<path class="st2" d="M87.4,66.2c0,0.4,0,0.7,0,0.9s-0.1,0.5-0.1,0.7c-0.1,0.6-0.4,1.1-0.7,1.5c-0.7,0.8-1.6,1.2-2.8,1.2
			c-1,0-1.9-0.3-2.5-0.8c-0.7-0.6-1.1-1.3-1.2-2.3h1.8c0.1,0.4,0.2,0.7,0.3,0.9c0.4,0.5,0.9,0.7,1.6,0.7c1.3,0,1.9-0.8,1.9-2.4v-1.1
			c-0.7,0.7-1.5,1.1-2.4,1.1c-1,0-1.9-0.4-2.5-1.1c-0.7-0.8-1-1.7-1-2.9c0-1.1,0.3-2.1,0.9-2.8c0.7-0.8,1.5-1.2,2.6-1.2
			c1,0,1.8,0.4,2.4,1.1v-0.9h1.8V66.2z M85.7,62.6c0-0.7-0.2-1.3-0.6-1.8c-0.4-0.5-0.9-0.7-1.5-0.7c-0.7,0-1.2,0.2-1.6,0.7
			c-0.3,0.4-0.5,1-0.5,1.7c0,0.7,0.2,1.3,0.5,1.7c0.4,0.5,0.9,0.7,1.6,0.7s1.2-0.2,1.6-0.7C85.6,63.9,85.7,63.3,85.7,62.6z"/>
		<path class="st2" d="M96.3,70.5h-1.8V58.8h1.8v0.8c0.7-0.7,1.5-1,2.4-1c1,0,1.9,0.4,2.6,1.2c0.7,0.8,1,1.7,1,2.9
			c0,1.1-0.3,2.1-1,2.9c-0.7,0.8-1.5,1.1-2.6,1.1c-0.9,0-1.7-0.4-2.4-1.1V70.5z M100.5,62.6c0-0.7-0.2-1.3-0.6-1.8
			c-0.4-0.5-0.9-0.7-1.5-0.7c-0.6,0-1.2,0.2-1.6,0.7c-0.4,0.4-0.6,1-0.6,1.8c0,0.7,0.2,1.3,0.6,1.8c0.4,0.5,0.9,0.7,1.6,0.7
			c0.6,0,1.1-0.2,1.5-0.7C100.3,63.9,100.5,63.3,100.5,62.6z"/>
		<path class="st2" d="M105.9,53.2v13.2h-1.8V53.2H105.9z"/>
		<path class="st2" d="M115.1,63h-5.5c0,0.6,0.2,1.1,0.6,1.5c0.4,0.4,0.8,0.5,1.4,0.5c0.4,0,0.8-0.1,1.1-0.3c0.3-0.2,0.6-0.6,1-1.2
			l1.5,0.8c-0.2,0.4-0.5,0.7-0.7,1c-0.3,0.3-0.5,0.5-0.8,0.7c-0.3,0.2-0.6,0.3-0.9,0.4c-0.3,0.1-0.7,0.1-1.1,0.1
			c-1.1,0-2-0.4-2.7-1.1c-0.7-0.7-1-1.7-1-2.9c0-1.2,0.3-2.2,1-2.9c0.7-0.7,1.6-1.1,2.7-1.1c1.1,0,2,0.4,2.7,1.1
			c0.6,0.7,1,1.7,1,2.9L115.1,63z M113.3,61.6c-0.2-0.9-0.8-1.4-1.8-1.4c-0.2,0-0.4,0-0.6,0.1s-0.4,0.2-0.5,0.3
			c-0.2,0.1-0.3,0.3-0.4,0.4s-0.2,0.4-0.2,0.6H113.3z"/>
		<path class="st2" d="M122.6,58.8h1.8v7.6h-1.8v-0.8c-0.7,0.7-1.5,1-2.3,1c-1.1,0-1.9-0.4-2.6-1.1c-0.7-0.8-1-1.7-1-2.9
			c0-1.1,0.3-2.1,1-2.9c0.7-0.8,1.5-1.1,2.6-1.1c0.9,0,1.7,0.4,2.4,1.1V58.8z M118.4,62.6c0,0.7,0.2,1.3,0.6,1.8
			c0.4,0.5,0.9,0.7,1.5,0.7c0.7,0,1.2-0.2,1.6-0.7c0.4-0.5,0.6-1.1,0.6-1.8s-0.2-1.3-0.6-1.8c-0.4-0.5-0.9-0.7-1.6-0.7
			c-0.6,0-1.1,0.2-1.5,0.7C118.6,61.3,118.4,61.9,118.4,62.6z"/>
		<path class="st2" d="M131,60.1l-1.5,0.8c-0.2-0.5-0.5-0.7-0.9-0.7c-0.2,0-0.3,0.1-0.4,0.2c-0.1,0.1-0.2,0.2-0.2,0.4
			c0,0.3,0.3,0.6,1,0.9c0.9,0.4,1.6,0.8,1.9,1.1c0.3,0.3,0.5,0.8,0.5,1.4c0,0.7-0.3,1.3-0.8,1.8c-0.5,0.5-1.2,0.7-1.9,0.7
			c-1.3,0-2.2-0.6-2.7-1.9l1.5-0.7c0.2,0.4,0.4,0.6,0.5,0.7c0.2,0.2,0.5,0.3,0.8,0.3c0.6,0,0.9-0.3,0.9-0.8c0-0.3-0.2-0.6-0.7-0.9
			c-0.2-0.1-0.4-0.2-0.5-0.3c-0.2-0.1-0.4-0.2-0.5-0.3c-0.5-0.2-0.9-0.5-1.1-0.8c-0.3-0.3-0.4-0.7-0.4-1.2c0-0.7,0.2-1.2,0.7-1.6
			c0.5-0.4,1-0.6,1.7-0.6C129.8,58.6,130.5,59.1,131,60.1z"/>
		<path class="st2" d="M138.7,58.8h1.8v7.6h-1.8v-0.8c-0.7,0.7-1.5,1-2.3,1c-1.1,0-1.9-0.4-2.6-1.1c-0.7-0.8-1-1.7-1-2.9
			c0-1.1,0.3-2.1,1-2.9c0.7-0.8,1.5-1.1,2.6-1.1c0.9,0,1.7,0.4,2.4,1.1V58.8z M134.5,62.6c0,0.7,0.2,1.3,0.6,1.8
			c0.4,0.5,0.9,0.7,1.5,0.7c0.7,0,1.2-0.2,1.6-0.7c0.4-0.5,0.6-1.1,0.6-1.8s-0.2-1.3-0.6-1.8c-0.4-0.5-0.9-0.7-1.6-0.7
			c-0.6,0-1.1,0.2-1.5,0.7C134.7,61.3,134.5,61.9,134.5,62.6z"/>
		<path class="st2" d="M142.7,58.8h1.8v0.7c0.6-0.6,1.3-0.9,2.1-0.9c0.9,0,1.6,0.3,2.1,0.8c0.4,0.5,0.6,1.2,0.6,2.3v4.7h-1.8v-4.2
			c0-0.8-0.1-1.3-0.3-1.6c-0.2-0.3-0.6-0.4-1.1-0.4c-0.6,0-1,0.2-1.2,0.6c-0.2,0.4-0.4,1-0.4,2v3.7h-1.8V58.8z"/>
		<path class="st2" d="M153.3,60.4v6h-1.8v-6h-0.8v-1.6h0.8V56h1.8v2.8h1.4v1.6H153.3z"/>
		<path class="st2" d="M166.4,58.8h1.8v7.6h-1.8v-0.8c-0.7,0.7-1.5,1-2.3,1c-1.1,0-1.9-0.4-2.6-1.1c-0.7-0.8-1-1.7-1-2.9
			c0-1.1,0.3-2.1,1-2.9c0.7-0.8,1.5-1.1,2.6-1.1c0.9,0,1.7,0.4,2.4,1.1V58.8z M162.2,62.6c0,0.7,0.2,1.3,0.6,1.8
			c0.4,0.5,0.9,0.7,1.5,0.7c0.7,0,1.2-0.2,1.6-0.7c0.4-0.5,0.6-1.1,0.6-1.8s-0.2-1.3-0.6-1.8c-0.4-0.5-0.9-0.7-1.6-0.7
			c-0.6,0-1.1,0.2-1.5,0.7C162.4,61.3,162.2,61.9,162.2,62.6z"/>
		<path class="st2" d="M170.4,58.8h1.8v0.7c0.6-0.6,1.3-0.9,2.1-0.9c0.9,0,1.6,0.3,2.1,0.8c0.4,0.5,0.6,1.2,0.6,2.3v4.7h-1.8v-4.2
			c0-0.8-0.1-1.3-0.3-1.6c-0.2-0.3-0.6-0.4-1.1-0.4c-0.6,0-1,0.2-1.2,0.6c-0.2,0.4-0.4,1-0.4,2v3.7h-1.8V58.8z"/>
		<path class="st2" d="M184.7,53.2h1.8v13.2h-1.8v-0.8c-0.7,0.7-1.5,1-2.4,1c-1,0-1.9-0.4-2.6-1.1c-0.7-0.8-1-1.7-1-2.9
			c0-1.1,0.3-2.1,1-2.8c0.7-0.8,1.5-1.1,2.6-1.1c0.9,0,1.7,0.4,2.4,1.1V53.2z M180.6,62.6c0,0.7,0.2,1.3,0.6,1.8
			c0.4,0.5,0.9,0.7,1.5,0.7c0.7,0,1.2-0.2,1.6-0.7c0.4-0.5,0.6-1.1,0.6-1.8s-0.2-1.3-0.6-1.8c-0.4-0.5-0.9-0.7-1.6-0.7
			c-0.6,0-1.1,0.2-1.5,0.7C180.8,61.3,180.6,61.9,180.6,62.6z"/>
		<path class="st2" d="M200.6,63h-5.5c0,0.6,0.2,1.1,0.6,1.5c0.4,0.4,0.8,0.5,1.4,0.5c0.4,0,0.8-0.1,1.1-0.3c0.3-0.2,0.6-0.6,1-1.2
			l1.5,0.8c-0.2,0.4-0.5,0.7-0.7,1c-0.3,0.3-0.5,0.5-0.8,0.7c-0.3,0.2-0.6,0.3-0.9,0.4c-0.3,0.1-0.7,0.1-1.1,0.1
			c-1.1,0-2-0.4-2.7-1.1c-0.7-0.7-1-1.7-1-2.9c0-1.2,0.3-2.2,1-2.9c0.7-0.7,1.6-1.1,2.7-1.1c1.1,0,2,0.4,2.7,1.1
			c0.6,0.7,1,1.7,1,2.9L200.6,63z M198.8,61.6c-0.2-0.9-0.8-1.4-1.8-1.4c-0.2,0-0.4,0-0.6,0.1s-0.4,0.2-0.5,0.3
			c-0.2,0.1-0.3,0.3-0.4,0.4s-0.2,0.4-0.2,0.6H198.8z"/>
		<path class="st2" d="M202.5,58.8h1.8v0.7c0.6-0.6,1.3-0.9,2.1-0.9c0.9,0,1.6,0.3,2.1,0.8c0.4,0.5,0.6,1.2,0.6,2.3v4.7h-1.8v-4.2
			c0-0.8-0.1-1.3-0.3-1.6c-0.2-0.3-0.6-0.4-1.1-0.4c-0.6,0-1,0.2-1.2,0.6c-0.2,0.4-0.4,1-0.4,2v3.7h-1.8V58.8z"/>
		<path class="st2" d="M217.2,59.1v2.3c-0.4-0.5-0.8-0.8-1.1-1c-0.3-0.2-0.7-0.3-1.1-0.3c-0.7,0-1.2,0.2-1.6,0.7s-0.7,1-0.7,1.7
			c0,0.7,0.2,1.3,0.6,1.8c0.4,0.5,1,0.7,1.6,0.7c0.4,0,0.8-0.1,1.1-0.3c0.3-0.2,0.7-0.5,1.1-1v2.3c-0.7,0.4-1.4,0.6-2.1,0.6
			c-1.2,0-2.2-0.4-3-1.1c-0.8-0.8-1.2-1.7-1.2-2.9s0.4-2.1,1.2-2.9c0.8-0.8,1.8-1.2,3-1.2C215.8,58.6,216.5,58.8,217.2,59.1z"/>
		<path class="st2" d="M218.6,62.5c0-1.1,0.4-2,1.2-2.8c0.8-0.8,1.7-1.2,2.9-1.2c1.1,0,2.1,0.4,2.9,1.2c0.8,0.8,1.2,1.7,1.2,2.9
			c0,1.1-0.4,2.1-1.2,2.9c-0.8,0.8-1.8,1.1-2.9,1.1c-1.1,0-2.1-0.4-2.9-1.2C218.9,64.7,218.6,63.7,218.6,62.5z M220.4,62.6
			c0,0.8,0.2,1.4,0.6,1.8c0.4,0.4,1,0.7,1.6,0.7c0.7,0,1.2-0.2,1.6-0.7c0.4-0.4,0.6-1,0.6-1.8s-0.2-1.3-0.6-1.8
			c-0.4-0.4-1-0.7-1.6-0.7c-0.7,0-1.2,0.2-1.6,0.7C220.6,61.3,220.4,61.9,220.4,62.6z"/>
		<path class="st2" d="M230.3,58.8v4.4c0,1.3,0.5,1.9,1.5,1.9c1,0,1.5-0.6,1.5-1.9v-4.4h1.8v4.4c0,0.6-0.1,1.1-0.2,1.6
			c-0.1,0.4-0.4,0.8-0.8,1.1c-0.6,0.5-1.3,0.8-2.3,0.8c-0.9,0-1.7-0.3-2.3-0.8c-0.4-0.3-0.6-0.7-0.8-1.1c-0.1-0.4-0.2-0.9-0.2-1.6
			v-4.4H230.3z"/>
		<path class="st2" d="M237.3,58.8h1.8v0.7c0.3-0.3,0.6-0.6,0.9-0.7c0.3-0.1,0.6-0.2,0.9-0.2c0.5,0,0.9,0.2,1.5,0.5l-0.8,1.6
			c-0.3-0.2-0.7-0.4-1-0.4c-1,0-1.4,0.7-1.4,2.2v3.9h-1.8V58.8z"/>
		<path class="st2" d="M248.7,58.8h1.8v7.6h-1.8v-0.8c-0.7,0.7-1.5,1-2.3,1c-1.1,0-1.9-0.4-2.6-1.1c-0.7-0.8-1-1.7-1-2.9
			c0-1.1,0.3-2.1,1-2.9c0.7-0.8,1.5-1.1,2.6-1.1c0.9,0,1.7,0.4,2.4,1.1V58.8z M244.6,62.6c0,0.7,0.2,1.3,0.6,1.8
			c0.4,0.5,0.9,0.7,1.5,0.7c0.7,0,1.2-0.2,1.6-0.7c0.4-0.5,0.6-1.1,0.6-1.8s-0.2-1.3-0.6-1.8c-0.4-0.5-0.9-0.7-1.6-0.7
			c-0.6,0-1.1,0.2-1.5,0.7C244.8,61.3,244.6,61.9,244.6,62.6z"/>
		<path class="st2" d="M260.1,66.2c0,0.4,0,0.7,0,0.9s-0.1,0.5-0.1,0.7c-0.1,0.6-0.4,1.1-0.7,1.5c-0.7,0.8-1.6,1.2-2.8,1.2
			c-1,0-1.9-0.3-2.5-0.8c-0.7-0.6-1.1-1.3-1.2-2.3h1.8c0.1,0.4,0.2,0.7,0.3,0.9c0.4,0.5,0.9,0.7,1.6,0.7c1.3,0,1.9-0.8,1.9-2.4v-1.1
			c-0.7,0.7-1.5,1.1-2.4,1.1c-1,0-1.9-0.4-2.5-1.1c-0.7-0.8-1-1.7-1-2.9c0-1.1,0.3-2.1,0.9-2.8c0.7-0.8,1.5-1.2,2.6-1.2
			c1,0,1.8,0.4,2.4,1.1v-0.9h1.8V66.2z M258.4,62.6c0-0.7-0.2-1.3-0.6-1.8c-0.4-0.5-0.9-0.7-1.5-0.7c-0.7,0-1.2,0.2-1.6,0.7
			c-0.3,0.4-0.5,1-0.5,1.7c0,0.7,0.2,1.3,0.5,1.7c0.4,0.5,0.9,0.7,1.6,0.7s1.2-0.2,1.6-0.7C258.2,63.9,258.4,63.3,258.4,62.6z"/>
		<path class="st2" d="M262,55.6c0-0.3,0.1-0.6,0.3-0.8c0.2-0.2,0.5-0.3,0.8-0.3c0.3,0,0.6,0.1,0.8,0.3c0.2,0.2,0.3,0.5,0.3,0.8
			s-0.1,0.6-0.3,0.8c-0.2,0.2-0.5,0.3-0.8,0.3c-0.3,0-0.6-0.1-0.8-0.3C262.1,56.2,262,56,262,55.6z M264.1,58.8v7.6h-1.8v-7.6H264.1
			z"/>
		<path class="st2" d="M266.3,58.8h1.8v0.7c0.6-0.6,1.3-0.9,2.1-0.9c0.9,0,1.6,0.3,2.1,0.8c0.4,0.5,0.6,1.2,0.6,2.3v4.7h-1.8v-4.2
			c0-0.8-0.1-1.3-0.3-1.6c-0.2-0.3-0.6-0.4-1.1-0.4c-0.6,0-1,0.2-1.2,0.6c-0.2,0.4-0.4,1-0.4,2v3.7h-1.8V58.8z"/>
		<path class="st2" d="M282.4,66.2c0,0.4,0,0.7,0,0.9s-0.1,0.5-0.1,0.7c-0.1,0.6-0.4,1.1-0.7,1.5c-0.7,0.8-1.6,1.2-2.8,1.2
			c-1,0-1.9-0.3-2.5-0.8c-0.7-0.6-1.1-1.3-1.2-2.3h1.8c0.1,0.4,0.2,0.7,0.3,0.9c0.4,0.5,0.9,0.7,1.6,0.7c1.3,0,1.9-0.8,1.9-2.4v-1.1
			c-0.7,0.7-1.5,1.1-2.4,1.1c-1,0-1.9-0.4-2.5-1.1c-0.7-0.8-1-1.7-1-2.9c0-1.1,0.3-2.1,0.9-2.8c0.7-0.8,1.5-1.2,2.6-1.2
			c1,0,1.8,0.4,2.4,1.1v-0.9h1.8V66.2z M280.7,62.6c0-0.7-0.2-1.3-0.6-1.8c-0.4-0.5-0.9-0.7-1.5-0.7c-0.7,0-1.2,0.2-1.6,0.7
			c-0.3,0.4-0.5,1-0.5,1.7c0,0.7,0.2,1.3,0.5,1.7c0.4,0.5,0.9,0.7,1.6,0.7s1.2-0.2,1.6-0.7C280.6,63.9,280.7,63.3,280.7,62.6z"/>
		<path class="st2" d="M284.9,65.5c0-0.3,0.1-0.5,0.3-0.8c0.2-0.2,0.5-0.3,0.8-0.3s0.6,0.1,0.8,0.3c0.2,0.2,0.3,0.5,0.3,0.8
			c0,0.3-0.1,0.6-0.3,0.8c-0.2,0.2-0.5,0.3-0.8,0.3c-0.3,0-0.6-0.1-0.8-0.3C285,66.1,284.9,65.8,284.9,65.5z"/>
	</g>
</g>
<g class="st3">
	<line class="st4" x1="311.3" y1="137.3" x2="274.9" y2="83.7"/>
	<path class="st5" d="M312.9,138.5c-0.1,0.2-0.3,0.3-0.5,0.5c-0.9,0.6-2.2,0.4-2.8-0.5l-36.4-53.7c-0.6-0.9-0.4-2.2,0.5-2.8
		c0.9-0.6,2.2-0.4,2.8,0.5l36.4,53.7C313.5,136.9,313.4,137.8,312.9,138.5z"/>
</g>
<path class="st0" d="M405.1,172.2c-2.1-1.3-4.3-2.5-6.4-3.8C332.2,131,261,132,224.3,136c-1,0.1-2,0.2-3,0.3
	c-10.5,1.8-18.9,9.5-21.8,19.6c-0.3,1.5-0.6,3-0.9,4.5c0,0.1,0,0.2,0,0.2l-0.1,4.5l-2.6,93.5l-0.1,3.6v0.2
	c0.6,12.9,10,23.5,22.4,25.9l2,0.3l135.5,19.7l2.8,0.4h6.5c11-1.4,20-9.2,23.1-19.7l0.1-0.2l24.7-82.4l2.8-9.3
	c0.1-1,0.2-2.1,0.2-3.2C415.8,185.1,411.6,177.2,405.1,172.2z"/>
<g>
	<g class="st1">
		<path class="st2" d="M271,192.1c1.6,0,2.9,0.5,3.9,1.5c0.9,1,1.3,2.2,1.3,3.8v3.2c0,1.5-0.5,2.7-1.5,3.8c-1,1-2.3,1.6-3.7,1.6H269
			v8.4h-3.4v-22.2H271z M273,197.4c0-0.6-0.2-1-0.5-1.4c-0.3-0.4-0.8-0.5-1.4-0.5h-2v7.1h2c0.5,0,1-0.2,1.4-0.6s0.6-0.8,0.6-1.4
			V197.4z"/>
		<path class="st2" d="M281,209.2l-0.8,5.1h-3.5l3.8-22.2h4.6l3.7,22.2h-3.5l-0.8-5.1H281z M282.8,197.2l-1.2,8.8h2.5L282.8,197.2z"
			/>
		<path class="st2" d="M297,192.1c1.9,0,3.2,0.5,4.1,1.5c0.8,0.9,1.2,2.2,1.2,3.8v3.2c0,1.6-0.6,2.9-1.8,4l2.5,9.7h-3.6l-2-8.4
			c-0.1,0-0.2,0-0.3,0H295v8.4h-3.4v-22.2H297z M299,197.4c0-1.3-0.6-1.9-1.9-1.9h-2v7.1h2c0.5,0,1-0.2,1.4-0.6s0.6-0.8,0.6-1.4
			V197.4z"/>
		<path class="st2" d="M309.2,214.3h-3.4v-22.2h3.4V214.3z"/>
		<path class="st2" d="M312.2,214.3V192h9.6v3.4h-6.2v6.1h4.5v3.4h-4.5v6.1h6.2v3.4H312.2z"/>
		<path class="st2" d="M327.6,195.4H324v-3.4h10.5v3.4H331v18.9h-3.4V195.4z"/>
		<path class="st2" d="M338.5,209.2l-0.8,5.1h-3.5l3.8-22.2h4.6l3.7,22.2h-3.5l-0.8-5.1H338.5z M340.2,197.2l-1.2,8.8h2.5
			L340.2,197.2z"/>
		<path class="st2" d="M358.3,214.3h-9.1v-22.2h3.4V211h5.8V214.3z"/>
	</g>
	<g class="st1">
		<path class="st2" d="M274.8,244.3h-9.1v-22.2h3.4V241h5.8V244.3z"/>
		<path class="st2" d="M282.4,221.8c1.5,0,2.7,0.5,3.8,1.6c1,1,1.6,2.3,1.6,3.8v12.1c0,1.5-0.5,2.7-1.6,3.8c-1,1-2.3,1.6-3.8,1.6
			c-1.5,0-2.7-0.5-3.8-1.6c-1-1-1.5-2.3-1.5-3.8v-12.1c0-1.5,0.5-2.7,1.6-3.8S281,221.8,282.4,221.8z M284.2,227
			c0-0.5-0.2-1-0.6-1.4c-0.4-0.4-0.8-0.6-1.4-0.6c-0.5,0-1,0.2-1.4,0.6c-0.4,0.4-0.6,0.8-0.6,1.4v12.2c0,0.5,0.2,1,0.6,1.4
			c0.4,0.4,0.8,0.6,1.4,0.6c0.5,0,1-0.2,1.4-0.6c0.4-0.4,0.6-0.8,0.6-1.4V227z"/>
		<path class="st2" d="M290.7,244.3V222h5c1.3,0,2.5,0.3,3.6,1c0.9,0.6,1.6,1.5,2,2.8c0.2,0.7,0.3,1.5,0.3,2.4
			c0,1.5-0.4,2.7-1.2,3.6c-0.3,0.4-0.7,0.7-1.2,0.9c0.7,0.3,1.4,0.8,1.9,1.7c0.3,0.6,0.6,1.3,0.8,2.2c0.1,0.5,0.1,1,0.1,1.5
			c0,1.4-0.3,2.6-0.8,3.6c-0.4,0.8-1,1.4-1.8,1.8c-0.9,0.5-1.7,0.8-2.5,0.8H290.7z M294.3,231.1h1.4c1,0,1.7-0.5,2.1-1.5
			c0.1-0.4,0.2-0.8,0.2-1.4c0-0.9-0.2-1.6-0.7-2.1c-0.4-0.4-1-0.7-1.6-0.7h-1.4V231.1z M294.3,241h1.4c1.1,0,1.9-0.6,2.4-1.8
			c0.2-0.4,0.2-0.9,0.2-1.4c0-1.2-0.2-2.1-0.7-2.7c-0.4-0.5-1.1-0.8-1.9-0.8h-1.4V241z"/>
		<path class="st2" d="M304.9,244.3V222h9.6v3.4h-6.2v6.1h4.5v3.4h-4.5v6.1h6.2v3.4H304.9z"/>
	</g>
</g>
</svg>
