<?xml version="1.0" encoding="utf-8"?>
<!-- Generator: Adobe Illustrator 18.1.1, SVG Export Plug-In . SVG Version: 6.00 Build 0)  -->
<svg version="1.1" id="Layer_1" xmlns="http://www.w3.org/2000/svg" xmlns:xlink="http://www.w3.org/1999/xlink" x="0px" y="0px"
	 viewBox="213 85 598 598" enable-background="new 213 85 598 598" xml:space="preserve">
<path fill="#22AD5F" d="M806.1,379.9c-0.5-38.1-8.2-74.6-21.9-107.9c-1.1-2.5-2.1-5-3.2-7.4l-9.6,4.1c1.1,2.4,2.1,5,3.2,7.4
	c13.1,32.1,20.6,67.1,21.1,103.9c0,1.4,0,2.6,0,4s0,2.6,0,4c-0.5,34.8-7.2,68.1-19.1,98.8c-1,2.5-2,5-3.1,7.5
	c-13.9,33.1-33.9,63-58.5,88.3c-1.9,1.9-3.8,3.8-5.7,5.7c-24.1,23.4-52.3,42.6-83.4,56.3c-2.4,1.1-5,2.1-7.4,3.2
	c-32.1,13.1-67.1,20.6-103.9,21.1c-1.4,0-2.6,0-4,0c-1.4,0-2.6,0-4,0v10.4c1.4,0,2.6,0,4,0c1.4,0,2.6,0,4,0
	c38.1-0.5,74.6-8.2,107.9-21.9c2.5-1.1,5-2.1,7.4-3.2c32.3-14.3,61.7-34.2,86.6-58.5c1.9-1.9,3.8-3.8,5.7-5.7
	c25.6-26.3,46.4-57.4,60.8-91.8c1.1-2.4,2-5,3.1-7.5c12.4-31.9,19.3-66.6,19.9-102.7c0-1.4,0-2.6,0-4
	C806.1,382.5,806.1,381.1,806.1,379.9z"/>
</svg>
