<?xml version="1.0" encoding="utf-8"?>
<!-- Generator: Adobe Illustrator 18.1.1, SVG Export Plug-In . SVG Version: 6.00 Build 0)  -->
<svg version="1.1" id="Layer_1" xmlns="http://www.w3.org/2000/svg" xmlns:xlink="http://www.w3.org/1999/xlink" x="0px" y="0px"
	 viewBox="288.5 160.5 447 447" enable-background="new 288.5 160.5 447 447" xml:space="preserve">
<g>
	<path fill="#0FA085" d="M731.2,379.8c-0.5-27.7-6.1-54.1-16-78.4c-1.1-2.5-2.1-5.1-3.2-7.6c-10.5-23.5-24.9-44.7-42.5-62.9
		c-1.9-2-3.8-3.9-5.8-5.8c-19.2-18.5-41.7-33.6-66.7-44.2c-2.5-1.1-5.1-2.1-7.6-3.1c-23.2-8.9-48.3-13.9-74.5-14.4
		c-1.4,0-2.7,0-4.1,0c-1.4,0-2.7,0-4.1,0c-27.7,0.5-54.1,6.1-78.4,16c-2.5,1.1-5.1,2.1-7.6,3.2c-23.5,10.5-44.7,24.9-62.9,42.5
		c-2,1.9-3.9,3.8-5.8,5.8c-18.5,19.2-33.6,41.7-44.2,66.7c-1.1,2.5-2.1,5.1-3.1,7.6c-8.9,23.2-13.9,48.3-14.4,74.5
		c0,1.4,0,2.7,0,4.1c0,1.4,0,2.7,0,4.1h7.8c0-1.4,0-2.7,0-4.1c0-1.4,0-2.7,0-4.1c0.5-25.1,5.3-49.3,13.8-71.6c1-2.5,2-5.1,3.1-7.6
		c10.2-24,24.7-45.6,42.5-64.1c1.9-2,3.8-3.9,5.8-5.8c17.5-16.9,37.9-30.7,60.4-40.9c2.5-1.2,5.1-2.2,7.6-3.2
		c23.4-9.4,48.7-14.8,75.3-15.3c1.4,0,2.7,0,4.1,0s2.7,0,4.1,0c25.1,0.5,49.3,5.3,71.6,13.8c2.5,1,5.1,2,7.6,3.1
		c24,10.2,45.6,24.7,64.1,42.5c2,1.9,3.9,3.8,5.8,5.8c16.9,17.5,30.7,37.9,40.9,60.4c1.2,2.5,2.2,5.1,3.2,7.6
		c9.4,23.4,14.8,48.7,15.3,75.3c0,1.4,0,2.7,0,4.1c0,1.4,0,2.7,0,4.1c-0.5,25.1-5.3,49.3-13.8,71.6c-1,2.5-2,5.1-3.1,7.6
		c-10.2,24-24.7,45.6-42.5,64.1c-1.9,2-3.8,3.9-5.8,5.8C640.9,554,620.5,567.9,598,578c-2.5,1.2-5.1,2.2-7.6,3.2
		c-23.4,9.4-48.7,14.8-75.3,15.3c-1.4,0-2.7,0-4.1,0s-2.6,0-4,0v7.8c1.4,0,2.6,0,4,0s2.7,0,4.1,0c27.7-0.5,54.1-6.1,78.4-16
		c2.5-1.1,5.1-2.1,7.6-3.2c23.5-10.5,44.7-24.9,62.9-42.5c2-1.9,3.9-3.8,5.8-5.8c18.5-19.2,33.6-41.7,44.2-66.7
		c1.1-2.5,2.1-5.1,3.1-7.6c8.9-23.2,13.9-48.3,14.4-74.5c0-1.4,0-2.7,0-4.1C731.3,382.5,731.2,381.1,731.2,379.8z"/>
</g>
</svg>
