<?xml version="1.0" encoding="utf-8"?>
<!-- Generator: Adobe Illustrator 19.2.0, SVG Export Plug-In . SVG Version: 6.00 Build 0)  -->
<svg version="1.1" id="Layer_1" xmlns="http://www.w3.org/2000/svg" xmlns:xlink="http://www.w3.org/1999/xlink" x="0px" y="0px"
	 viewBox="0 0 343.9 301.5" style="enable-background:new 0 0 343.9 301.5;" xml:space="preserve">
<style type="text/css">
	.st0{fill:#FFFFFF;}
	.st1{enable-background:new    ;}
	.st2{fill:#4C5256;}
	.st3{fill:#AD351E;}
</style>
<path class="st0" d="M343.9,268c0,18.5-15,33.5-33.5,33.5H33.5C15,301.5,0,286.5,0,268V33.5C0,15,15,0,33.5,0h276.9
	c18.5,0,33.5,15,33.5,33.5V268z"/>
<g class="st1">
	<path class="st2" d="M37.7,39.7h-5.8L30.4,43h-2.2l6.7-14.4L41.4,43h-2.2L37.7,39.7z M36.9,37.8l-2-4.6l-2.1,4.6H36.9z"/>
	<path class="st2" d="M48.2,34.4h2v0.8c0.4-0.4,0.7-0.6,1-0.8c0.3-0.1,0.6-0.2,1-0.2c0.5,0,1.1,0.2,1.6,0.5l-0.9,1.8
		c-0.4-0.3-0.7-0.4-1.1-0.4c-1.1,0-1.6,0.8-1.6,2.4V43h-2V34.4z"/>
	<path class="st2" d="M62.6,39.2h-6.1c0.1,0.7,0.3,1.3,0.7,1.7c0.4,0.4,0.9,0.6,1.6,0.6c0.5,0,0.9-0.1,1.2-0.4
		c0.3-0.2,0.7-0.7,1.1-1.3l1.7,0.9c-0.3,0.4-0.5,0.8-0.8,1.1s-0.6,0.6-0.9,0.8c-0.3,0.2-0.7,0.3-1.1,0.4s-0.8,0.1-1.2,0.1
		c-1.3,0-2.3-0.4-3.1-1.2c-0.8-0.8-1.2-1.9-1.2-3.3c0-1.4,0.4-2.4,1.1-3.3c0.8-0.8,1.8-1.2,3-1.2c1.3,0,2.3,0.4,3,1.2
		c0.7,0.8,1.1,1.9,1.1,3.3L62.6,39.2z M60.6,37.6c-0.3-1.1-0.9-1.6-2-1.6c-0.2,0-0.5,0-0.7,0.1c-0.2,0.1-0.4,0.2-0.6,0.3
		c-0.2,0.1-0.3,0.3-0.4,0.5s-0.2,0.4-0.3,0.7H60.6z"/>
	<path class="st2" d="M71.5,34.8v2.6c-0.5-0.6-0.9-0.9-1.2-1.1C69.9,36.1,69.5,36,69,36c-0.7,0-1.4,0.3-1.9,0.8s-0.7,1.2-0.7,2
		c0,0.8,0.2,1.5,0.7,2c0.5,0.5,1.1,0.8,1.8,0.8c0.5,0,0.9-0.1,1.3-0.3c0.4-0.2,0.8-0.6,1.2-1.2v2.6c-0.8,0.4-1.6,0.6-2.4,0.6
		c-1.3,0-2.4-0.4-3.3-1.3c-0.9-0.9-1.3-1.9-1.3-3.2s0.5-2.4,1.4-3.2s2-1.3,3.3-1.3C69.9,34.2,70.7,34.4,71.5,34.8z"/>
	<path class="st2" d="M81.2,39.2H75c0.1,0.7,0.3,1.3,0.7,1.7c0.4,0.4,0.9,0.6,1.6,0.6c0.5,0,0.9-0.1,1.2-0.4
		c0.3-0.2,0.7-0.7,1.1-1.3l1.7,0.9c-0.3,0.4-0.5,0.8-0.8,1.1s-0.6,0.6-0.9,0.8c-0.3,0.2-0.7,0.3-1.1,0.4s-0.8,0.1-1.2,0.1
		c-1.3,0-2.3-0.4-3.1-1.2c-0.8-0.8-1.2-1.9-1.2-3.3c0-1.4,0.4-2.4,1.1-3.3c0.8-0.8,1.8-1.2,3-1.2c1.3,0,2.3,0.4,3,1.2
		c0.7,0.8,1.1,1.9,1.1,3.3L81.2,39.2z M79.1,37.6c-0.3-1.1-0.9-1.6-2-1.6c-0.2,0-0.5,0-0.7,0.1c-0.2,0.1-0.4,0.2-0.6,0.3
		c-0.2,0.1-0.3,0.3-0.4,0.5s-0.2,0.4-0.3,0.7H79.1z"/>
	<path class="st2" d="M83.3,34.4h2v0.8c0.7-0.7,1.5-1,2.3-1c1,0,1.8,0.3,2.3,0.9c0.5,0.5,0.7,1.4,0.7,2.6V43h-2v-4.8
		c0-0.8-0.1-1.4-0.4-1.7c-0.2-0.3-0.6-0.5-1.2-0.5c-0.7,0-1.1,0.2-1.4,0.7c-0.3,0.4-0.4,1.2-0.4,2.2V43h-2V34.4z"/>
	<path class="st2" d="M95.2,36.3V43h-2v-6.7h-0.8v-1.8h0.8v-3.1h2v3.1h1.5v1.8H95.2z"/>
	<path class="st2" d="M111.5,39.2h-6.1c0.1,0.7,0.3,1.3,0.7,1.7c0.4,0.4,0.9,0.6,1.6,0.6c0.5,0,0.9-0.1,1.2-0.4
		c0.3-0.2,0.7-0.7,1.1-1.3l1.7,0.9c-0.3,0.4-0.5,0.8-0.8,1.1s-0.6,0.6-0.9,0.8c-0.3,0.2-0.7,0.3-1.1,0.4s-0.8,0.1-1.2,0.1
		c-1.3,0-2.3-0.4-3.1-1.2c-0.8-0.8-1.2-1.9-1.2-3.3c0-1.4,0.4-2.4,1.1-3.3c0.8-0.8,1.8-1.2,3-1.2c1.3,0,2.3,0.4,3,1.2
		c0.7,0.8,1.1,1.9,1.1,3.3L111.5,39.2z M109.4,37.6c-0.3-1.1-0.9-1.6-2-1.6c-0.2,0-0.5,0-0.7,0.1c-0.2,0.1-0.4,0.2-0.6,0.3
		c-0.2,0.1-0.3,0.3-0.4,0.5s-0.2,0.4-0.3,0.7H109.4z"/>
	<path class="st2" d="M115.9,38.4l-3.1-3.9h2.4l1.9,2.5l1.9-2.5h2.4l-3.2,3.9L122,43h-2.4l-2.5-3.2l-2.6,3.2h-2.4L115.9,38.4z"/>
	<path class="st2" d="M125.3,47.7h-2V34.4h2v0.9c0.8-0.8,1.7-1.2,2.7-1.2c1.2,0,2.1,0.4,2.9,1.3c0.8,0.9,1.2,1.9,1.2,3.3
		c0,1.3-0.4,2.4-1.2,3.2c-0.8,0.8-1.7,1.3-2.9,1.3c-1,0-1.9-0.4-2.7-1.2V47.7z M130,38.8c0-0.8-0.2-1.5-0.7-2
		c-0.5-0.5-1-0.8-1.7-0.8c-0.7,0-1.3,0.3-1.8,0.8s-0.7,1.2-0.7,2c0,0.8,0.2,1.5,0.7,2c0.4,0.5,1,0.8,1.8,0.8c0.7,0,1.3-0.3,1.7-0.8
		C129.8,40.2,130,39.5,130,38.8z"/>
	<path class="st2" d="M141.9,39.2h-6.1c0.1,0.7,0.3,1.3,0.7,1.7c0.4,0.4,0.9,0.6,1.6,0.6c0.5,0,0.9-0.1,1.2-0.4
		c0.3-0.2,0.7-0.7,1.1-1.3l1.7,0.9c-0.3,0.4-0.5,0.8-0.8,1.1s-0.6,0.6-0.9,0.8c-0.3,0.2-0.7,0.3-1.1,0.4s-0.8,0.1-1.2,0.1
		c-1.3,0-2.3-0.4-3.1-1.2c-0.8-0.8-1.2-1.9-1.2-3.3c0-1.4,0.4-2.4,1.1-3.3c0.8-0.8,1.8-1.2,3-1.2c1.3,0,2.3,0.4,3,1.2
		c0.7,0.8,1.1,1.9,1.1,3.3L141.9,39.2z M139.9,37.6c-0.3-1.1-0.9-1.6-2-1.6c-0.2,0-0.5,0-0.7,0.1c-0.2,0.1-0.4,0.2-0.6,0.3
		c-0.2,0.1-0.3,0.3-0.4,0.5s-0.2,0.4-0.3,0.7H139.9z"/>
	<path class="st2" d="M144.1,34.4h2v0.8c0.4-0.4,0.7-0.6,1-0.8c0.3-0.1,0.6-0.2,1-0.2c0.5,0,1.1,0.2,1.6,0.5l-0.9,1.8
		c-0.4-0.3-0.7-0.4-1.1-0.4c-1.1,0-1.6,0.8-1.6,2.4V43h-2V34.4z"/>
	<path class="st2" d="M150.8,30.9c0-0.3,0.1-0.6,0.4-0.9s0.6-0.4,0.9-0.4c0.4,0,0.7,0.1,0.9,0.4c0.3,0.2,0.4,0.5,0.4,0.9
		s-0.1,0.7-0.4,0.9c-0.2,0.3-0.5,0.4-0.9,0.4s-0.7-0.1-0.9-0.4S150.8,31.2,150.8,30.9z M153.1,34.4V43h-2v-8.6H153.1z"/>
	<path class="st2" d="M155.6,34.4h2v0.8c0.4-0.4,0.7-0.7,1-0.8c0.3-0.1,0.6-0.2,1.1-0.2c1,0,1.7,0.4,2.3,1.3
		c0.6-0.8,1.5-1.3,2.5-1.3c1.9,0,2.9,1.2,2.9,3.5V43h-2v-4.8c0-0.8-0.1-1.4-0.3-1.7c-0.2-0.3-0.5-0.5-1-0.5c-0.5,0-0.9,0.2-1.2,0.6
		s-0.4,1.1-0.4,2V43h-2v-4.7c0-1.5-0.4-2.3-1.3-2.3c-0.6,0-1,0.2-1.2,0.6s-0.4,1.1-0.4,2V43h-2V34.4z"/>
	<path class="st2" d="M177.6,39.2h-6.1c0.1,0.7,0.3,1.3,0.7,1.7c0.4,0.4,0.9,0.6,1.6,0.6c0.5,0,0.9-0.1,1.2-0.4
		c0.3-0.2,0.7-0.7,1.1-1.3l1.7,0.9c-0.3,0.4-0.5,0.8-0.8,1.1s-0.6,0.6-0.9,0.8c-0.3,0.2-0.7,0.3-1.1,0.4s-0.8,0.1-1.2,0.1
		c-1.3,0-2.3-0.4-3.1-1.2c-0.8-0.8-1.2-1.9-1.2-3.3c0-1.4,0.4-2.4,1.1-3.3c0.8-0.8,1.8-1.2,3-1.2c1.3,0,2.3,0.4,3,1.2
		c0.7,0.8,1.1,1.9,1.1,3.3L177.6,39.2z M175.6,37.6c-0.3-1.1-0.9-1.6-2-1.6c-0.2,0-0.5,0-0.7,0.1c-0.2,0.1-0.4,0.2-0.6,0.3
		c-0.2,0.1-0.3,0.3-0.4,0.5s-0.2,0.4-0.3,0.7H175.6z"/>
	<path class="st2" d="M179.8,34.4h2v0.8c0.7-0.7,1.5-1,2.3-1c1,0,1.8,0.3,2.3,0.9c0.5,0.5,0.7,1.4,0.7,2.6V43h-2v-4.8
		c0-0.8-0.1-1.4-0.4-1.7c-0.2-0.3-0.6-0.5-1.2-0.5c-0.7,0-1.1,0.2-1.4,0.7c-0.3,0.4-0.4,1.2-0.4,2.2V43h-2V34.4z"/>
	<path class="st2" d="M191.7,36.3V43h-2v-6.7h-0.8v-1.8h0.8v-3.1h2v3.1h1.5v1.8H191.7z"/>
	<path class="st2" d="M200.1,34.4h2v0.8c0.4-0.4,0.7-0.6,1-0.8c0.3-0.1,0.6-0.2,1-0.2c0.5,0,1.1,0.2,1.6,0.5l-0.9,1.8
		c-0.4-0.3-0.7-0.4-1.1-0.4c-1.1,0-1.6,0.8-1.6,2.4V43h-2V34.4z"/>
	<path class="st2" d="M214.5,39.2h-6.1c0.1,0.7,0.3,1.3,0.7,1.7c0.4,0.4,0.9,0.6,1.6,0.6c0.5,0,0.9-0.1,1.2-0.4
		c0.3-0.2,0.7-0.7,1.1-1.3l1.7,0.9c-0.3,0.4-0.5,0.8-0.8,1.1s-0.6,0.6-0.9,0.8c-0.3,0.2-0.7,0.3-1.1,0.4s-0.8,0.1-1.2,0.1
		c-1.3,0-2.3-0.4-3.1-1.2c-0.8-0.8-1.2-1.9-1.2-3.3c0-1.4,0.4-2.4,1.1-3.3c0.8-0.8,1.8-1.2,3-1.2c1.3,0,2.3,0.4,3,1.2
		c0.7,0.8,1.1,1.9,1.1,3.3L214.5,39.2z M212.5,37.6c-0.3-1.1-0.9-1.6-2-1.6c-0.2,0-0.5,0-0.7,0.1c-0.2,0.1-0.4,0.2-0.6,0.3
		c-0.2,0.1-0.3,0.3-0.4,0.5s-0.2,0.4-0.3,0.7H212.5z"/>
	<path class="st2" d="M217.4,34.4l2.2,4.8l2.2-4.8h2.2l-4.4,9.1l-4.4-9.1H217.4z"/>
	<path class="st2" d="M232.9,39.2h-6.1c0.1,0.7,0.3,1.3,0.7,1.7c0.4,0.4,0.9,0.6,1.6,0.6c0.5,0,0.9-0.1,1.2-0.4
		c0.3-0.2,0.7-0.7,1.1-1.3l1.7,0.9c-0.3,0.4-0.5,0.8-0.8,1.1s-0.6,0.6-0.9,0.8c-0.3,0.2-0.7,0.3-1.1,0.4s-0.8,0.1-1.2,0.1
		c-1.3,0-2.3-0.4-3.1-1.2c-0.8-0.8-1.2-1.9-1.2-3.3c0-1.4,0.4-2.4,1.1-3.3c0.8-0.8,1.8-1.2,3-1.2c1.3,0,2.3,0.4,3,1.2
		c0.7,0.8,1.1,1.9,1.1,3.3L232.9,39.2z M230.9,37.6c-0.3-1.1-0.9-1.6-2-1.6c-0.2,0-0.5,0-0.7,0.1c-0.2,0.1-0.4,0.2-0.6,0.3
		c-0.2,0.1-0.3,0.3-0.4,0.5s-0.2,0.4-0.3,0.7H230.9z"/>
	<path class="st2" d="M241.4,34.4h2V43h-2v-0.9c-0.8,0.8-1.7,1.1-2.6,1.1c-1.2,0-2.2-0.4-2.9-1.3c-0.8-0.9-1.2-2-1.2-3.3
		c0-1.3,0.4-2.4,1.2-3.2s1.7-1.3,2.9-1.3c1,0,1.9,0.4,2.7,1.2V34.4z M236.7,38.7c0,0.8,0.2,1.5,0.7,2c0.5,0.5,1,0.8,1.7,0.8
		c0.7,0,1.3-0.3,1.8-0.8c0.5-0.5,0.7-1.2,0.7-2s-0.2-1.5-0.7-2c-0.5-0.5-1-0.8-1.8-0.8c-0.7,0-1.2,0.3-1.7,0.8
		C236.9,37.3,236.7,37.9,236.7,38.7z"/>
	<path class="st2" d="M247.8,28.1V43h-2V28.1H247.8z"/>
	<path class="st2" d="M255.3,35.9l-1.6,0.9c-0.3-0.5-0.6-0.8-1-0.8c-0.2,0-0.3,0.1-0.5,0.2s-0.2,0.3-0.2,0.5c0,0.3,0.4,0.7,1.1,1
		c1,0.5,1.8,0.9,2.1,1.2s0.5,0.9,0.5,1.5c0,0.8-0.3,1.5-0.9,2.1c-0.6,0.5-1.3,0.8-2.1,0.8c-1.4,0-2.5-0.7-3-2.1l1.7-0.8
		c0.2,0.4,0.4,0.7,0.5,0.8c0.2,0.2,0.5,0.3,0.9,0.3c0.7,0,1-0.3,1-0.9c0-0.4-0.3-0.7-0.8-1c-0.2-0.1-0.4-0.2-0.6-0.3
		s-0.4-0.2-0.6-0.3c-0.6-0.3-1-0.6-1.2-0.8c-0.3-0.4-0.4-0.8-0.4-1.4c0-0.7,0.3-1.4,0.8-1.8c0.5-0.5,1.2-0.7,1.9-0.7
		C254,34.2,254.8,34.8,255.3,35.9z"/>
	<path class="st2" d="M265.2,36.3V43h-2v-6.7h-0.8v-1.8h0.8v-3.1h2v3.1h1.5v1.8H265.2z"/>
	<path class="st2" d="M268.5,28.1h2v7c0.7-0.6,1.5-0.9,2.3-0.9c1,0,1.7,0.3,2.3,0.9c0.5,0.5,0.7,1.4,0.7,2.6V43h-2v-5.1
		c0-0.7-0.1-1.2-0.4-1.5c-0.2-0.3-0.6-0.5-1.2-0.5c-0.7,0-1.2,0.2-1.5,0.6c-0.3,0.4-0.4,1.2-0.4,2.2V43h-2V28.1z"/>
	<path class="st2" d="M284.7,34.4h2V43h-2v-0.9c-0.8,0.8-1.7,1.1-2.6,1.1c-1.2,0-2.2-0.4-2.9-1.3c-0.8-0.9-1.2-2-1.2-3.3
		c0-1.3,0.4-2.4,1.2-3.2s1.7-1.3,2.9-1.3c1,0,1.9,0.4,2.7,1.2V34.4z M280,38.7c0,0.8,0.2,1.5,0.7,2c0.5,0.5,1,0.8,1.7,0.8
		c0.7,0,1.3-0.3,1.8-0.8c0.5-0.5,0.7-1.2,0.7-2s-0.2-1.5-0.7-2c-0.5-0.5-1-0.8-1.8-0.8c-0.7,0-1.2,0.3-1.7,0.8
		C280.2,37.3,280,37.9,280,38.7z"/>
	<path class="st2" d="M291.2,36.3V43h-2v-6.7h-0.8v-1.8h0.8v-3.1h2v3.1h1.5v1.8H291.2z"/>
</g>
<g class="st1">
	<path class="st2" d="M31.3,56.3v14.8h-2V56.3H31.3z"/>
	<path class="st2" d="M33.5,59.1c0-0.3,0.1-0.6,0.4-0.9s0.6-0.4,0.9-0.4c0.4,0,0.7,0.1,0.9,0.4c0.3,0.2,0.4,0.5,0.4,0.9
		S36,59.7,35.7,60c-0.2,0.3-0.5,0.4-0.9,0.4s-0.7-0.1-0.9-0.4S33.5,59.4,33.5,59.1z M35.8,62.6v8.6h-2v-8.6H35.8z"/>
	<path class="st2" d="M43.3,64.1L41.6,65c-0.3-0.5-0.6-0.8-1-0.8c-0.2,0-0.3,0.1-0.5,0.2S40,64.6,40,64.8c0,0.3,0.4,0.7,1.1,1
		c1,0.5,1.8,0.9,2.1,1.2s0.5,0.9,0.5,1.5c0,0.8-0.3,1.5-0.9,2.1c-0.6,0.5-1.3,0.8-2.1,0.8c-1.4,0-2.5-0.7-3-2.1l1.7-0.8
		c0.2,0.4,0.4,0.7,0.5,0.8c0.2,0.2,0.5,0.3,0.9,0.3c0.7,0,1-0.3,1-0.9c0-0.4-0.3-0.7-0.8-1c-0.2-0.1-0.4-0.2-0.6-0.3
		s-0.4-0.2-0.6-0.3c-0.6-0.3-1-0.6-1.2-0.8c-0.3-0.4-0.4-0.8-0.4-1.4c0-0.7,0.3-1.4,0.8-1.8c0.5-0.5,1.2-0.7,1.9-0.7
		C41.9,62.4,42.7,63,43.3,64.1z"/>
	<path class="st2" d="M47.6,64.5v6.7h-2v-6.7h-0.8v-1.8h0.8v-3.1h2v3.1h1.5v1.8H47.6z"/>
	<path class="st2" d="M58.5,67.4h-6.1c0.1,0.7,0.3,1.3,0.7,1.7c0.4,0.4,0.9,0.6,1.6,0.6c0.5,0,0.9-0.1,1.2-0.4
		c0.3-0.2,0.7-0.7,1.1-1.3l1.7,0.9c-0.3,0.4-0.5,0.8-0.8,1.1s-0.6,0.6-0.9,0.8c-0.3,0.2-0.7,0.3-1.1,0.4s-0.8,0.1-1.2,0.1
		c-1.3,0-2.3-0.4-3.1-1.2c-0.8-0.8-1.2-1.9-1.2-3.3c0-1.4,0.4-2.4,1.1-3.3c0.8-0.8,1.8-1.2,3-1.2c1.3,0,2.3,0.4,3,1.2
		c0.7,0.8,1.1,1.9,1.1,3.3L58.5,67.4z M56.5,65.8c-0.3-1.1-0.9-1.6-2-1.6c-0.2,0-0.5,0-0.7,0.1c-0.2,0.1-0.4,0.2-0.6,0.3
		c-0.2,0.1-0.3,0.3-0.4,0.5s-0.2,0.4-0.3,0.7H56.5z"/>
	<path class="st2" d="M60.6,62.6h2v0.8c0.7-0.7,1.5-1,2.3-1c1,0,1.8,0.3,2.3,0.9c0.5,0.5,0.7,1.4,0.7,2.6v5.2h-2v-4.8
		c0-0.8-0.1-1.4-0.4-1.7c-0.2-0.3-0.6-0.5-1.2-0.5c-0.7,0-1.1,0.2-1.4,0.7c-0.3,0.4-0.4,1.2-0.4,2.2v4.1h-2V62.6z"/>
	<path class="st2" d="M70.2,59.1c0-0.3,0.1-0.6,0.4-0.9s0.6-0.4,0.9-0.4c0.4,0,0.7,0.1,0.9,0.4c0.3,0.2,0.4,0.5,0.4,0.9
		s-0.1,0.7-0.4,0.9c-0.2,0.3-0.5,0.4-0.9,0.4s-0.7-0.1-0.9-0.4S70.2,59.4,70.2,59.1z M72.5,62.6v8.6h-2v-8.6H72.5z"/>
	<path class="st2" d="M75,62.6h2v0.8c0.7-0.7,1.5-1,2.3-1c1,0,1.8,0.3,2.3,0.9c0.5,0.5,0.7,1.4,0.7,2.6v5.2h-2v-4.8
		c0-0.8-0.1-1.4-0.4-1.7c-0.2-0.3-0.6-0.5-1.2-0.5c-0.7,0-1.1,0.2-1.4,0.7C77.1,65.2,77,66,77,67.1v4.1h-2V62.6z"/>
	<path class="st2" d="M93.1,71c0,0.4,0,0.8,0,1.1c0,0.3-0.1,0.6-0.1,0.8c-0.1,0.6-0.4,1.2-0.8,1.7c-0.8,0.9-1.8,1.3-3.2,1.3
		c-1.1,0-2.1-0.3-2.8-0.9c-0.8-0.6-1.2-1.5-1.3-2.6h2c0.1,0.4,0.2,0.7,0.4,1c0.4,0.5,1,0.8,1.8,0.8c1.4,0,2.2-0.9,2.2-2.7v-1.2
		c-0.8,0.8-1.7,1.2-2.7,1.2c-1.2,0-2.1-0.4-2.9-1.3c-0.8-0.9-1.1-1.9-1.1-3.2c0-1.2,0.3-2.3,1-3.2c0.8-0.9,1.7-1.4,3-1.4
		c1.1,0,2,0.4,2.7,1.2v-1h2V71z M91.3,66.9c0-0.8-0.2-1.5-0.7-2c-0.5-0.5-1-0.8-1.7-0.8c-0.8,0-1.3,0.3-1.8,0.8
		c-0.4,0.5-0.6,1.1-0.6,1.9c0,0.8,0.2,1.4,0.6,1.9c0.4,0.5,1,0.8,1.8,0.8s1.4-0.3,1.8-0.8C91,68.3,91.3,67.7,91.3,66.9z"/>
	<path class="st2" d="M103.2,64.5v6.7h-2v-6.7h-0.8v-1.8h0.8v-3.1h2v3.1h1.5v1.8H103.2z"/>
	<path class="st2" d="M105.8,66.9c0-1.2,0.4-2.3,1.3-3.2s2-1.3,3.2-1.3c1.3,0,2.4,0.4,3.3,1.3c0.9,0.9,1.3,1.9,1.3,3.2
		c0,1.3-0.4,2.4-1.3,3.2c-0.9,0.9-2,1.3-3.3,1.3c-1.3,0-2.4-0.4-3.2-1.3C106.3,69.3,105.8,68.2,105.8,66.9z M107.9,66.9
		c0,0.9,0.2,1.5,0.7,2c0.5,0.5,1.1,0.8,1.9,0.8c0.8,0,1.4-0.2,1.9-0.7s0.7-1.2,0.7-2s-0.2-1.5-0.7-2c-0.5-0.5-1.1-0.8-1.9-0.8
		c-0.8,0-1.4,0.3-1.8,0.8S107.9,66.1,107.9,66.9z"/>
	<path class="st2" d="M122.6,56.3h2v7c0.7-0.6,1.5-0.9,2.3-0.9c1,0,1.7,0.3,2.3,0.9c0.5,0.5,0.7,1.4,0.7,2.6v5.2h-2v-5.1
		c0-0.7-0.1-1.2-0.4-1.5c-0.2-0.3-0.6-0.5-1.2-0.5c-0.7,0-1.2,0.2-1.5,0.6c-0.3,0.4-0.4,1.2-0.4,2.2v4.1h-2V56.3z"/>
	<path class="st2" d="M138.8,62.6h2v8.6h-2v-0.9c-0.8,0.8-1.7,1.1-2.6,1.1c-1.2,0-2.2-0.4-2.9-1.3c-0.8-0.9-1.2-2-1.2-3.3
		c0-1.3,0.4-2.4,1.2-3.2s1.7-1.3,2.9-1.3c1,0,1.9,0.4,2.7,1.2V62.6z M134.1,66.9c0,0.8,0.2,1.5,0.7,2c0.5,0.5,1,0.8,1.7,0.8
		c0.7,0,1.3-0.3,1.8-0.8c0.5-0.5,0.7-1.2,0.7-2s-0.2-1.5-0.7-2c-0.5-0.5-1-0.8-1.8-0.8c-0.7,0-1.2,0.3-1.7,0.8
		C134.3,65.5,134.1,66.1,134.1,66.9z"/>
	<path class="st2" d="M145.3,75.9h-2V62.6h2v0.9c0.8-0.8,1.7-1.2,2.7-1.2c1.2,0,2.1,0.4,2.9,1.3c0.8,0.9,1.2,1.9,1.2,3.3
		c0,1.3-0.4,2.4-1.2,3.2c-0.8,0.8-1.7,1.3-2.9,1.3c-1,0-1.9-0.4-2.7-1.2V75.9z M150,67c0-0.8-0.2-1.5-0.7-2c-0.5-0.5-1-0.8-1.7-0.8
		c-0.7,0-1.3,0.3-1.8,0.8s-0.7,1.2-0.7,2c0,0.8,0.2,1.5,0.7,2c0.4,0.5,1,0.8,1.8,0.8c0.7,0,1.3-0.3,1.7-0.8
		C149.7,68.4,150,67.7,150,67z"/>
	<path class="st2" d="M156.1,75.9h-2V62.6h2v0.9c0.8-0.8,1.7-1.2,2.7-1.2c1.2,0,2.1,0.4,2.9,1.3c0.8,0.9,1.2,1.9,1.2,3.3
		c0,1.3-0.4,2.4-1.2,3.2c-0.8,0.8-1.7,1.3-2.9,1.3c-1,0-1.9-0.4-2.7-1.2V75.9z M160.8,67c0-0.8-0.2-1.5-0.7-2
		c-0.5-0.5-1-0.8-1.7-0.8c-0.7,0-1.3,0.3-1.8,0.8s-0.7,1.2-0.7,2c0,0.8,0.2,1.5,0.7,2c0.4,0.5,1,0.8,1.8,0.8c0.7,0,1.3-0.3,1.7-0.8
		C160.5,68.4,160.8,67.7,160.8,67z"/>
	<path class="st2" d="M167.2,69.6l-3.8-7h2.3l2.6,4.9l2.4-4.9h2.2l-6.8,13.2h-2.3L167.2,69.6z"/>
	<path class="st2" d="M186.1,62.6h2v8.6h-2v-0.9c-0.8,0.8-1.7,1.1-2.6,1.1c-1.2,0-2.2-0.4-2.9-1.3c-0.8-0.9-1.2-2-1.2-3.3
		c0-1.3,0.4-2.4,1.2-3.2s1.7-1.3,2.9-1.3c1,0,1.9,0.4,2.7,1.2V62.6z M181.4,66.9c0,0.8,0.2,1.5,0.7,2c0.5,0.5,1,0.8,1.7,0.8
		c0.7,0,1.3-0.3,1.8-0.8c0.5-0.5,0.7-1.2,0.7-2s-0.2-1.5-0.7-2c-0.5-0.5-1-0.8-1.8-0.8c-0.7,0-1.2,0.3-1.7,0.8
		C181.7,65.5,181.4,66.1,181.4,66.9z"/>
	<path class="st2" d="M190.6,62.6h2v0.8c0.7-0.7,1.5-1,2.3-1c1,0,1.8,0.3,2.3,0.9c0.5,0.5,0.7,1.4,0.7,2.6v5.2h-2v-4.8
		c0-0.8-0.1-1.4-0.4-1.7c-0.2-0.3-0.6-0.5-1.2-0.5c-0.7,0-1.1,0.2-1.4,0.7c-0.3,0.4-0.4,1.2-0.4,2.2v4.1h-2V62.6z"/>
	<path class="st2" d="M206.8,56.3h2v14.8h-2v-0.9c-0.8,0.8-1.7,1.1-2.6,1.1c-1.2,0-2.1-0.4-2.9-1.3c-0.8-0.9-1.2-2-1.2-3.3
		c0-1.3,0.4-2.3,1.2-3.2c0.8-0.9,1.7-1.3,2.9-1.3c1,0,1.9,0.4,2.7,1.2V56.3z M202.1,66.9c0,0.8,0.2,1.5,0.7,2c0.5,0.5,1,0.8,1.7,0.8
		c0.7,0,1.3-0.3,1.8-0.8c0.5-0.5,0.7-1.2,0.7-2s-0.2-1.5-0.7-2c-0.5-0.5-1-0.8-1.8-0.8c-0.7,0-1.2,0.3-1.7,0.8
		C202.3,65.5,202.1,66.1,202.1,66.9z"/>
	<path class="st2" d="M218.8,62.6v4.9c0,1.4,0.6,2.1,1.7,2.1s1.7-0.7,1.7-2.1v-4.9h2v5c0,0.7-0.1,1.3-0.3,1.8
		c-0.2,0.4-0.4,0.8-0.9,1.2c-0.7,0.6-1.5,0.9-2.5,0.9c-1,0-1.9-0.3-2.5-0.9c-0.4-0.4-0.7-0.8-0.9-1.2c-0.2-0.4-0.2-1-0.2-1.8v-5
		H218.8z"/>
	<path class="st2" d="M228.6,75.9h-2V62.6h2v0.9c0.8-0.8,1.7-1.2,2.7-1.2c1.2,0,2.1,0.4,2.9,1.3c0.8,0.9,1.2,1.9,1.2,3.3
		c0,1.3-0.4,2.4-1.2,3.2c-0.8,0.8-1.7,1.3-2.9,1.3c-1,0-1.9-0.4-2.7-1.2V75.9z M233.3,67c0-0.8-0.2-1.5-0.7-2
		c-0.5-0.5-1-0.8-1.7-0.8c-0.7,0-1.3,0.3-1.8,0.8s-0.7,1.2-0.7,2c0,0.8,0.2,1.5,0.7,2c0.4,0.5,1,0.8,1.8,0.8c0.7,0,1.3-0.3,1.7-0.8
		C233.1,68.4,233.3,67.7,233.3,67z"/>
	<path class="st2" d="M239.4,56.3v7.3c0.8-0.8,1.7-1.2,2.7-1.2c1.2,0,2.1,0.4,2.9,1.3c0.8,0.9,1.2,1.9,1.2,3.2
		c0,1.3-0.4,2.4-1.2,3.3c-0.8,0.9-1.7,1.3-2.9,1.3c-1,0-1.9-0.4-2.7-1.1v0.9h-2V56.3H239.4z M244.1,67c0-0.8-0.2-1.5-0.7-2
		c-0.5-0.5-1-0.8-1.7-0.8c-0.7,0-1.3,0.3-1.8,0.8c-0.5,0.5-0.7,1.2-0.7,2c0,0.8,0.2,1.5,0.7,2c0.4,0.5,1,0.8,1.8,0.8
		c0.7,0,1.3-0.3,1.7-0.8C243.9,68.4,244.1,67.7,244.1,67z"/>
	<path class="st2" d="M256,67.4h-6.1c0.1,0.7,0.3,1.3,0.7,1.7c0.4,0.4,0.9,0.6,1.6,0.6c0.5,0,0.9-0.1,1.2-0.4
		c0.3-0.2,0.7-0.7,1.1-1.3l1.7,0.9c-0.3,0.4-0.5,0.8-0.8,1.1s-0.6,0.6-0.9,0.8c-0.3,0.2-0.7,0.3-1.1,0.4s-0.8,0.1-1.2,0.1
		c-1.3,0-2.3-0.4-3.1-1.2c-0.8-0.8-1.2-1.9-1.2-3.3c0-1.4,0.4-2.4,1.1-3.3c0.8-0.8,1.8-1.2,3-1.2c1.3,0,2.3,0.4,3,1.2
		c0.7,0.8,1.1,1.9,1.1,3.3L256,67.4z M254,65.8c-0.3-1.1-0.9-1.6-2-1.6c-0.2,0-0.5,0-0.7,0.1c-0.2,0.1-0.4,0.2-0.6,0.3
		c-0.2,0.1-0.3,0.3-0.4,0.5s-0.2,0.4-0.3,0.7H254z"/>
	<path class="st2" d="M264.5,62.6h2v8.6h-2v-0.9c-0.8,0.8-1.7,1.1-2.6,1.1c-1.2,0-2.2-0.4-2.9-1.3c-0.8-0.9-1.2-2-1.2-3.3
		c0-1.3,0.4-2.4,1.2-3.2s1.7-1.3,2.9-1.3c1,0,1.9,0.4,2.7,1.2V62.6z M259.8,66.9c0,0.8,0.2,1.5,0.7,2c0.5,0.5,1,0.8,1.7,0.8
		c0.7,0,1.3-0.3,1.8-0.8c0.5-0.5,0.7-1.2,0.7-2s-0.2-1.5-0.7-2c-0.5-0.5-1-0.8-1.8-0.8c-0.7,0-1.2,0.3-1.7,0.8
		C260,65.5,259.8,66.1,259.8,66.9z"/>
	<path class="st2" d="M271,64.5v6.7h-2v-6.7h-0.8v-1.8h0.8v-3.1h2v3.1h1.5v1.8H271z"/>
	<path class="st2" d="M279.5,62.6h2v0.8c0.4-0.4,0.7-0.7,1-0.8c0.3-0.1,0.6-0.2,1.1-0.2c1,0,1.7,0.4,2.3,1.3
		c0.6-0.8,1.5-1.3,2.5-1.3c1.9,0,2.9,1.2,2.9,3.5v5.3h-2v-4.8c0-0.8-0.1-1.4-0.3-1.7c-0.2-0.3-0.5-0.5-1-0.5c-0.5,0-0.9,0.2-1.2,0.6
		s-0.4,1.1-0.4,2v4.4h-2v-4.7c0-1.5-0.4-2.3-1.3-2.3c-0.6,0-1,0.2-1.2,0.6s-0.4,1.1-0.4,2v4.4h-2V62.6z"/>
	<path class="st2" d="M295.7,62.6v4.9c0,1.4,0.6,2.1,1.7,2.1s1.7-0.7,1.7-2.1v-4.9h2v5c0,0.7-0.1,1.3-0.3,1.8
		c-0.2,0.4-0.4,0.8-0.9,1.2c-0.7,0.6-1.5,0.9-2.5,0.9c-1,0-1.9-0.3-2.5-0.9c-0.4-0.4-0.7-0.8-0.9-1.2c-0.2-0.4-0.2-1-0.2-1.8v-5
		H295.7z"/>
	<path class="st2" d="M308.5,64.1l-1.6,0.9c-0.3-0.5-0.6-0.8-1-0.8c-0.2,0-0.3,0.1-0.5,0.2s-0.2,0.3-0.2,0.5c0,0.3,0.4,0.7,1.1,1
		c1,0.5,1.8,0.9,2.1,1.2s0.5,0.9,0.5,1.5c0,0.8-0.3,1.5-0.9,2.1c-0.6,0.5-1.3,0.8-2.1,0.8c-1.4,0-2.5-0.7-3-2.1l1.7-0.8
		c0.2,0.4,0.4,0.7,0.5,0.8c0.2,0.2,0.5,0.3,0.9,0.3c0.7,0,1-0.3,1-0.9c0-0.4-0.3-0.7-0.8-1c-0.2-0.1-0.4-0.2-0.6-0.3
		s-0.4-0.2-0.6-0.3c-0.6-0.3-1-0.6-1.2-0.8c-0.3-0.4-0.4-0.8-0.4-1.4c0-0.7,0.3-1.4,0.8-1.8c0.5-0.5,1.2-0.7,1.9-0.7
		C307.1,62.4,307.9,63,308.5,64.1z"/>
	<path class="st2" d="M310.5,59.1c0-0.3,0.1-0.6,0.4-0.9s0.6-0.4,0.9-0.4c0.4,0,0.7,0.1,0.9,0.4c0.3,0.2,0.4,0.5,0.4,0.9
		s-0.1,0.7-0.4,0.9c-0.2,0.3-0.5,0.4-0.9,0.4s-0.7-0.1-0.9-0.4S310.5,59.4,310.5,59.1z M312.8,62.6v8.6h-2v-8.6H312.8z"/>
	<path class="st2" d="M322,63v2.6c-0.5-0.6-0.9-0.9-1.2-1.1c-0.4-0.2-0.8-0.3-1.2-0.3c-0.7,0-1.4,0.3-1.9,0.8s-0.7,1.2-0.7,2
		c0,0.8,0.2,1.5,0.7,2c0.5,0.5,1.1,0.8,1.8,0.8c0.5,0,0.9-0.1,1.3-0.3c0.4-0.2,0.8-0.6,1.2-1.2v2.6c-0.8,0.4-1.6,0.6-2.4,0.6
		c-1.3,0-2.4-0.4-3.3-1.3c-0.9-0.9-1.3-1.9-1.3-3.2s0.5-2.4,1.4-3.2s2-1.3,3.3-1.3C320.4,62.4,321.2,62.6,322,63z"/>
</g>
<g class="st1">
	<path class="st2" d="M31.4,92.8v6.7h-2v-6.7h-0.7v-1.8h0.7v-3.3c0-1.1,0.2-1.8,0.6-2.3c0.5-0.6,1.3-0.9,2.2-0.9
		c0.4,0,0.8,0.1,1.3,0.3v2l-0.2-0.1c-0.4-0.2-0.8-0.3-1.1-0.3c-0.4,0-0.6,0.1-0.7,0.4c-0.1,0.2-0.2,0.7-0.2,1.4v2.8h2.2v1.8H31.4z"
		/>
	<path class="st2" d="M34.7,90.9h2v0.8c0.4-0.4,0.7-0.6,1-0.8c0.3-0.1,0.6-0.2,1-0.2c0.5,0,1.1,0.2,1.6,0.5L39.4,93
		c-0.4-0.3-0.7-0.4-1.1-0.4c-1.1,0-1.6,0.8-1.6,2.4v4.4h-2V90.9z"/>
	<path class="st2" d="M49.1,95.7H43c0.1,0.7,0.3,1.3,0.7,1.7c0.4,0.4,0.9,0.6,1.6,0.6c0.5,0,0.9-0.1,1.2-0.4
		c0.3-0.2,0.7-0.7,1.1-1.3l1.7,0.9c-0.3,0.4-0.5,0.8-0.8,1.1s-0.6,0.6-0.9,0.8c-0.3,0.2-0.7,0.3-1.1,0.4s-0.8,0.1-1.2,0.1
		c-1.3,0-2.3-0.4-3.1-1.2c-0.8-0.8-1.2-1.9-1.2-3.3c0-1.4,0.4-2.4,1.1-3.3c0.8-0.8,1.8-1.2,3-1.2c1.3,0,2.3,0.4,3,1.2
		c0.7,0.8,1.1,1.9,1.1,3.3L49.1,95.7z M47.1,94.1c-0.3-1.1-0.9-1.6-2-1.6c-0.2,0-0.5,0-0.7,0.1c-0.2,0.1-0.4,0.2-0.6,0.3
		c-0.2,0.1-0.3,0.3-0.4,0.5s-0.2,0.4-0.3,0.7H47.1z"/>
	<path class="st2" d="M57.6,104.2v-5.6c-0.8,0.8-1.7,1.2-2.7,1.2c-1.2,0-2.1-0.4-2.9-1.3c-0.8-0.9-1.2-1.9-1.2-3.2
		c0-1.3,0.4-2.4,1.2-3.3c0.8-0.9,1.7-1.3,2.9-1.3c1,0,1.9,0.4,2.7,1.2v-0.9h2v13.2H57.6z M52.9,95.2c0,0.8,0.2,1.5,0.7,2
		c0.4,0.5,1,0.8,1.7,0.8c0.7,0,1.3-0.3,1.8-0.8c0.5-0.5,0.7-1.2,0.7-2c0-0.8-0.2-1.5-0.7-2c-0.5-0.5-1-0.8-1.8-0.8
		c-0.7,0-1.2,0.3-1.7,0.8C53.1,93.8,52.9,94.4,52.9,95.2z"/>
	<path class="st2" d="M64.2,90.9v4.9c0,1.4,0.6,2.1,1.7,2.1s1.7-0.7,1.7-2.1v-4.9h2v5c0,0.7-0.1,1.3-0.3,1.8
		c-0.2,0.4-0.4,0.8-0.9,1.2c-0.7,0.6-1.5,0.9-2.5,0.9c-1,0-1.9-0.3-2.5-0.9c-0.4-0.4-0.7-0.8-0.9-1.2c-0.2-0.4-0.2-1-0.2-1.8v-5
		H64.2z"/>
	<path class="st2" d="M79.9,95.7h-6.1c0.1,0.7,0.3,1.3,0.7,1.7c0.4,0.4,0.9,0.6,1.6,0.6c0.5,0,0.9-0.1,1.2-0.4
		c0.3-0.2,0.7-0.7,1.1-1.3l1.7,0.9c-0.3,0.4-0.5,0.8-0.8,1.1s-0.6,0.6-0.9,0.8c-0.3,0.2-0.7,0.3-1.1,0.4s-0.8,0.1-1.2,0.1
		c-1.3,0-2.3-0.4-3.1-1.2c-0.8-0.8-1.2-1.9-1.2-3.3c0-1.4,0.4-2.4,1.1-3.3c0.8-0.8,1.8-1.2,3-1.2c1.3,0,2.3,0.4,3,1.2
		c0.7,0.8,1.1,1.9,1.1,3.3L79.9,95.7z M77.8,94.1c-0.3-1.1-0.9-1.6-2-1.6c-0.2,0-0.5,0-0.7,0.1c-0.2,0.1-0.4,0.2-0.6,0.3
		c-0.2,0.1-0.3,0.3-0.4,0.5s-0.2,0.4-0.3,0.7H77.8z"/>
	<path class="st2" d="M82,90.9h2v0.8c0.7-0.7,1.5-1,2.3-1c1,0,1.8,0.3,2.3,0.9c0.5,0.5,0.7,1.4,0.7,2.6v5.2h-2v-4.8
		c0-0.8-0.1-1.4-0.4-1.7c-0.2-0.3-0.6-0.5-1.2-0.5c-0.7,0-1.1,0.2-1.4,0.7c-0.3,0.4-0.4,1.2-0.4,2.2v4.1h-2V90.9z"/>
	<path class="st2" d="M93.9,92.8v6.7h-2v-6.7h-0.8v-1.8h0.8v-3.1h2v3.1h1.5v1.8H93.9z"/>
	<path class="st2" d="M98.8,84.6v14.8h-2V84.6H98.8z"/>
	<path class="st2" d="M104.1,97.9l-3.8-7h2.3l2.6,4.9l2.4-4.9h2.2l-6.8,13.2h-2.3L104.1,97.9z"/>
	<path class="st2" d="M123.4,91.3v2.6c-0.5-0.6-0.9-0.9-1.2-1.1c-0.4-0.2-0.8-0.3-1.2-0.3c-0.7,0-1.4,0.3-1.9,0.8s-0.7,1.2-0.7,2
		c0,0.8,0.2,1.5,0.7,2c0.5,0.5,1.1,0.8,1.8,0.8c0.5,0,0.9-0.1,1.3-0.3c0.4-0.2,0.8-0.6,1.2-1.2v2.6c-0.8,0.4-1.6,0.6-2.4,0.6
		c-1.3,0-2.4-0.4-3.3-1.3c-0.9-0.9-1.3-1.9-1.3-3.2s0.5-2.4,1.4-3.2s2-1.3,3.3-1.3C121.9,90.7,122.7,90.9,123.4,91.3z"/>
	<path class="st2" d="M131.7,90.9h2v8.6h-2v-0.9c-0.8,0.8-1.7,1.1-2.6,1.1c-1.2,0-2.2-0.4-2.9-1.3c-0.8-0.9-1.2-2-1.2-3.3
		c0-1.3,0.4-2.4,1.2-3.2s1.7-1.3,2.9-1.3c1,0,1.9,0.4,2.7,1.2V90.9z M127,95.2c0,0.8,0.2,1.5,0.7,2c0.5,0.5,1,0.8,1.7,0.8
		c0.7,0,1.3-0.3,1.8-0.8c0.5-0.5,0.7-1.2,0.7-2s-0.2-1.5-0.7-2c-0.5-0.5-1-0.8-1.8-0.8c-0.7,0-1.2,0.3-1.7,0.8
		C127.2,93.8,127,94.4,127,95.2z"/>
	<path class="st2" d="M136.2,90.9h2v0.8c0.7-0.7,1.5-1,2.3-1c1,0,1.8,0.3,2.3,0.9c0.5,0.5,0.7,1.4,0.7,2.6v5.2h-2v-4.8
		c0-0.8-0.1-1.4-0.4-1.7c-0.2-0.3-0.6-0.5-1.2-0.5c-0.7,0-1.1,0.2-1.4,0.7c-0.3,0.4-0.4,1.2-0.4,2.2v4.1h-2V90.9z"/>
	<path class="st2" d="M151.6,90.9h2v0.8c0.4-0.4,0.7-0.7,1-0.8c0.3-0.1,0.6-0.2,1.1-0.2c1,0,1.7,0.4,2.3,1.3
		c0.6-0.8,1.5-1.3,2.5-1.3c1.9,0,2.9,1.2,2.9,3.5v5.3h-2v-4.8c0-0.8-0.1-1.4-0.3-1.7c-0.2-0.3-0.5-0.5-1-0.5c-0.5,0-0.9,0.2-1.2,0.6
		s-0.4,1.1-0.4,2v4.4h-2v-4.7c0-1.5-0.4-2.3-1.3-2.3c-0.6,0-1,0.2-1.2,0.6s-0.4,1.1-0.4,2v4.4h-2V90.9z"/>
	<path class="st2" d="M172.1,90.9h2v8.6h-2v-0.9c-0.8,0.8-1.7,1.1-2.6,1.1c-1.2,0-2.2-0.4-2.9-1.3c-0.8-0.9-1.2-2-1.2-3.3
		c0-1.3,0.4-2.4,1.2-3.2s1.7-1.3,2.9-1.3c1,0,1.9,0.4,2.7,1.2V90.9z M167.4,95.2c0,0.8,0.2,1.5,0.7,2c0.5,0.5,1,0.8,1.7,0.8
		c0.7,0,1.3-0.3,1.8-0.8c0.5-0.5,0.7-1.2,0.7-2s-0.2-1.5-0.7-2c-0.5-0.5-1-0.8-1.8-0.8c-0.7,0-1.2,0.3-1.7,0.8
		C167.7,93.8,167.4,94.4,167.4,95.2z"/>
	<path class="st2" d="M178.6,84.6v9.1l2.8-2.8h2.7l-3.7,3.6l4,5h-2.6l-2.8-3.6l-0.3,0.3v3.3h-2V84.6H178.6z"/>
	<path class="st2" d="M193.1,95.7h-6.1c0.1,0.7,0.3,1.3,0.7,1.7c0.4,0.4,0.9,0.6,1.6,0.6c0.5,0,0.9-0.1,1.2-0.4
		c0.3-0.2,0.7-0.7,1.1-1.3l1.7,0.9c-0.3,0.4-0.5,0.8-0.8,1.1s-0.6,0.6-0.9,0.8c-0.3,0.2-0.7,0.3-1.1,0.4s-0.8,0.1-1.2,0.1
		c-1.3,0-2.3-0.4-3.1-1.2c-0.8-0.8-1.2-1.9-1.2-3.3c0-1.4,0.4-2.4,1.1-3.3c0.8-0.8,1.8-1.2,3-1.2c1.3,0,2.3,0.4,3,1.2
		c0.7,0.8,1.1,1.9,1.1,3.3L193.1,95.7z M191.1,94.1c-0.3-1.1-0.9-1.6-2-1.6c-0.2,0-0.5,0-0.7,0.1c-0.2,0.1-0.4,0.2-0.6,0.3
		c-0.2,0.1-0.3,0.3-0.4,0.5s-0.2,0.4-0.3,0.7H191.1z"/>
	<path class="st2" d="M205.8,92.4l-1.6,0.9c-0.3-0.5-0.6-0.8-1-0.8c-0.2,0-0.3,0.1-0.5,0.2s-0.2,0.3-0.2,0.5c0,0.3,0.4,0.7,1.1,1
		c1,0.5,1.8,0.9,2.1,1.2s0.5,0.9,0.5,1.5c0,0.8-0.3,1.5-0.9,2.1c-0.6,0.5-1.3,0.8-2.1,0.8c-1.4,0-2.5-0.7-3-2.1l1.7-0.8
		c0.2,0.4,0.4,0.7,0.5,0.8c0.2,0.2,0.5,0.3,0.9,0.3c0.7,0,1-0.3,1-0.9c0-0.4-0.3-0.7-0.8-1c-0.2-0.1-0.4-0.2-0.6-0.3
		s-0.4-0.2-0.6-0.3c-0.6-0.3-1-0.6-1.2-0.8c-0.3-0.4-0.4-0.8-0.4-1.4c0-0.7,0.3-1.4,0.8-1.8c0.5-0.5,1.2-0.7,1.9-0.7
		C204.4,90.7,205.2,91.3,205.8,92.4z"/>
	<path class="st2" d="M207.7,95.2c0-1.2,0.4-2.3,1.3-3.2s2-1.3,3.2-1.3c1.3,0,2.4,0.4,3.3,1.3c0.9,0.9,1.3,1.9,1.3,3.2
		c0,1.3-0.4,2.4-1.3,3.2c-0.9,0.9-2,1.3-3.3,1.3c-1.3,0-2.4-0.4-3.2-1.3C208.1,97.6,207.7,96.5,207.7,95.2z M209.7,95.2
		c0,0.9,0.2,1.5,0.7,2c0.5,0.5,1.1,0.8,1.9,0.8c0.8,0,1.4-0.2,1.9-0.7s0.7-1.2,0.7-2s-0.2-1.5-0.7-2c-0.5-0.5-1.1-0.8-1.9-0.8
		c-0.8,0-1.4,0.3-1.8,0.8S209.7,94.4,209.7,95.2z"/>
	<path class="st2" d="M218.9,90.9h2v0.8c0.4-0.4,0.7-0.7,1-0.8c0.3-0.1,0.6-0.2,1.1-0.2c1,0,1.7,0.4,2.3,1.3
		c0.6-0.8,1.5-1.3,2.5-1.3c1.9,0,2.9,1.2,2.9,3.5v5.3h-2v-4.8c0-0.8-0.1-1.4-0.3-1.7c-0.2-0.3-0.5-0.5-1-0.5c-0.5,0-0.9,0.2-1.2,0.6
		s-0.4,1.1-0.4,2v4.4h-2v-4.7c0-1.5-0.4-2.3-1.3-2.3c-0.6,0-1,0.2-1.2,0.6s-0.4,1.1-0.4,2v4.4h-2V90.9z"/>
	<path class="st2" d="M241,95.7h-6.1c0.1,0.7,0.3,1.3,0.7,1.7c0.4,0.4,0.9,0.6,1.6,0.6c0.5,0,0.9-0.1,1.2-0.4
		c0.3-0.2,0.7-0.7,1.1-1.3l1.7,0.9c-0.3,0.4-0.5,0.8-0.8,1.1s-0.6,0.6-0.9,0.8c-0.3,0.2-0.7,0.3-1.1,0.4s-0.8,0.1-1.2,0.1
		c-1.3,0-2.3-0.4-3.1-1.2c-0.8-0.8-1.2-1.9-1.2-3.3c0-1.4,0.4-2.4,1.1-3.3c0.8-0.8,1.8-1.2,3-1.2c1.3,0,2.3,0.4,3,1.2
		c0.7,0.8,1.1,1.9,1.1,3.3L241,95.7z M238.9,94.1c-0.3-1.1-0.9-1.6-2-1.6c-0.2,0-0.5,0-0.7,0.1c-0.2,0.1-0.4,0.2-0.6,0.3
		c-0.2,0.1-0.3,0.3-0.4,0.5s-0.2,0.4-0.3,0.7H238.9z"/>
	<path class="st2" d="M250.6,84.6v7.3c0.8-0.8,1.7-1.2,2.7-1.2c1.2,0,2.1,0.4,2.9,1.3c0.8,0.9,1.2,1.9,1.2,3.2
		c0,1.3-0.4,2.4-1.2,3.3c-0.8,0.9-1.7,1.3-2.9,1.3c-1,0-1.9-0.4-2.7-1.1v0.9h-2V84.6H250.6z M255.4,95.3c0-0.8-0.2-1.5-0.7-2
		c-0.5-0.5-1-0.8-1.7-0.8c-0.7,0-1.3,0.3-1.8,0.8c-0.5,0.5-0.7,1.2-0.7,2c0,0.8,0.2,1.5,0.7,2c0.4,0.5,1,0.8,1.8,0.8
		c0.7,0,1.3-0.3,1.7-0.8C255.1,96.7,255.4,96,255.4,95.3z"/>
	<path class="st2" d="M259.2,87.4c0-0.3,0.1-0.6,0.4-0.9s0.6-0.4,0.9-0.4c0.4,0,0.7,0.1,0.9,0.4c0.3,0.2,0.4,0.5,0.4,0.9
		s-0.1,0.7-0.4,0.9c-0.2,0.3-0.5,0.4-0.9,0.4s-0.7-0.1-0.9-0.4S259.2,87.7,259.2,87.4z M261.4,90.9v8.6h-2v-8.6H261.4z"/>
	<path class="st2" d="M272.2,99.3c0,0.4,0,0.8,0,1.1c0,0.3-0.1,0.6-0.1,0.8c-0.1,0.6-0.4,1.2-0.8,1.7c-0.8,0.9-1.8,1.3-3.2,1.3
		c-1.1,0-2.1-0.3-2.8-0.9c-0.8-0.6-1.2-1.5-1.3-2.6h2c0.1,0.4,0.2,0.7,0.4,1c0.4,0.5,1,0.8,1.8,0.8c1.4,0,2.2-0.9,2.2-2.7v-1.2
		c-0.8,0.8-1.7,1.2-2.7,1.2c-1.2,0-2.1-0.4-2.9-1.3c-0.8-0.9-1.1-1.9-1.1-3.2c0-1.2,0.3-2.3,1-3.2c0.8-0.9,1.7-1.4,3-1.4
		c1.1,0,2,0.4,2.7,1.2v-1h2V99.3z M270.3,95.2c0-0.8-0.2-1.5-0.7-2c-0.5-0.5-1-0.8-1.7-0.8c-0.8,0-1.3,0.3-1.8,0.8
		c-0.4,0.5-0.6,1.1-0.6,1.9c0,0.8,0.2,1.4,0.6,1.9c0.4,0.5,1,0.8,1.8,0.8s1.4-0.3,1.8-0.8C270.1,96.6,270.3,96,270.3,95.2z"/>
</g>
<g class="st1">
	<path class="st2" d="M36,119.6v2.6c-0.5-0.6-0.9-0.9-1.2-1.1c-0.4-0.2-0.8-0.3-1.2-0.3c-0.7,0-1.4,0.3-1.9,0.8s-0.7,1.2-0.7,2
		c0,0.8,0.2,1.5,0.7,2c0.5,0.5,1.1,0.8,1.8,0.8c0.5,0,0.9-0.1,1.3-0.3c0.4-0.2,0.8-0.6,1.2-1.2v2.6c-0.8,0.4-1.6,0.6-2.4,0.6
		c-1.3,0-2.4-0.4-3.3-1.3c-0.9-0.9-1.3-1.9-1.3-3.2s0.5-2.4,1.4-3.2s2-1.3,3.3-1.3C34.5,119,35.3,119.2,36,119.6z"/>
	<path class="st2" d="M38.4,112.9h2v7c0.7-0.6,1.5-0.9,2.3-0.9c1,0,1.7,0.3,2.3,0.9c0.5,0.5,0.7,1.4,0.7,2.6v5.2h-2v-5.1
		c0-0.7-0.1-1.2-0.4-1.5c-0.2-0.3-0.6-0.5-1.2-0.5c-0.7,0-1.2,0.2-1.5,0.6c-0.3,0.4-0.4,1.2-0.4,2.2v4.1h-2V112.9z"/>
	<path class="st2" d="M54.6,119.2h2v8.6h-2v-0.9c-0.8,0.8-1.7,1.1-2.6,1.1c-1.2,0-2.2-0.4-2.9-1.3c-0.8-0.9-1.2-2-1.2-3.3
		c0-1.3,0.4-2.4,1.2-3.2s1.7-1.3,2.9-1.3c1,0,1.9,0.4,2.7,1.2V119.2z M49.9,123.5c0,0.8,0.2,1.5,0.7,2c0.5,0.5,1,0.8,1.7,0.8
		c0.7,0,1.3-0.3,1.8-0.8c0.5-0.5,0.7-1.2,0.7-2s-0.2-1.5-0.7-2c-0.5-0.5-1-0.8-1.8-0.8c-0.7,0-1.2,0.3-1.7,0.8
		C50.1,122.1,49.9,122.7,49.9,123.5z"/>
	<path class="st2" d="M59,119.2h2v0.8c0.7-0.7,1.5-1,2.3-1c1,0,1.8,0.3,2.3,0.9c0.5,0.5,0.7,1.4,0.7,2.6v5.2h-2V123
		c0-0.8-0.1-1.4-0.4-1.7c-0.2-0.3-0.6-0.5-1.2-0.5c-0.7,0-1.1,0.2-1.4,0.7c-0.3,0.4-0.4,1.2-0.4,2.2v4.1h-2V119.2z"/>
	<path class="st2" d="M77.2,127.6c0,0.4,0,0.8,0,1.1c0,0.3-0.1,0.6-0.1,0.8c-0.1,0.6-0.4,1.2-0.8,1.7c-0.8,0.9-1.8,1.3-3.2,1.3
		c-1.1,0-2.1-0.3-2.8-0.9c-0.8-0.6-1.2-1.5-1.3-2.6h2c0.1,0.4,0.2,0.7,0.4,1c0.4,0.5,1,0.8,1.8,0.8c1.4,0,2.2-0.9,2.2-2.7v-1.2
		c-0.8,0.8-1.7,1.2-2.7,1.2c-1.2,0-2.1-0.4-2.9-1.3c-0.8-0.9-1.1-1.9-1.1-3.2c0-1.2,0.3-2.3,1-3.2c0.8-0.9,1.7-1.4,3-1.4
		c1.1,0,2,0.4,2.7,1.2v-1h2V127.6z M75.3,123.5c0-0.8-0.2-1.5-0.7-2c-0.5-0.5-1-0.8-1.7-0.8c-0.8,0-1.3,0.3-1.8,0.8
		c-0.4,0.5-0.6,1.1-0.6,1.9c0,0.8,0.2,1.4,0.6,1.9c0.4,0.5,1,0.8,1.8,0.8s1.4-0.3,1.8-0.8C75.1,124.9,75.3,124.3,75.3,123.5z"/>
	<path class="st2" d="M87.5,124h-6.1c0.1,0.7,0.3,1.3,0.7,1.7c0.4,0.4,0.9,0.6,1.6,0.6c0.5,0,0.9-0.1,1.2-0.4
		c0.3-0.2,0.7-0.7,1.1-1.3l1.7,0.9c-0.3,0.4-0.5,0.8-0.8,1.1s-0.6,0.6-0.9,0.8c-0.3,0.2-0.7,0.3-1.1,0.4S84,128,83.5,128
		c-1.3,0-2.3-0.4-3.1-1.2c-0.8-0.8-1.2-1.9-1.2-3.3c0-1.4,0.4-2.4,1.1-3.3c0.8-0.8,1.8-1.2,3-1.2c1.3,0,2.3,0.4,3,1.2
		c0.7,0.8,1.1,1.9,1.1,3.3L87.5,124z M85.5,122.4c-0.3-1.1-0.9-1.6-2-1.6c-0.2,0-0.5,0-0.7,0.1c-0.2,0.1-0.4,0.2-0.6,0.3
		c-0.2,0.1-0.3,0.3-0.4,0.5s-0.2,0.4-0.3,0.7H85.5z"/>
	<path class="st2" d="M94.6,120.7l-1.6,0.9c-0.3-0.5-0.6-0.8-1-0.8c-0.2,0-0.3,0.1-0.5,0.2s-0.2,0.3-0.2,0.5c0,0.3,0.4,0.7,1.1,1
		c1,0.5,1.8,0.9,2.1,1.2s0.5,0.9,0.5,1.5c0,0.8-0.3,1.5-0.9,2.1c-0.6,0.5-1.3,0.8-2.1,0.8c-1.4,0-2.5-0.7-3-2.1l1.7-0.8
		c0.2,0.4,0.4,0.7,0.5,0.8c0.2,0.2,0.5,0.3,0.9,0.3c0.7,0,1-0.3,1-0.9c0-0.4-0.3-0.7-0.8-1c-0.2-0.1-0.4-0.2-0.6-0.3
		s-0.4-0.2-0.6-0.3c-0.6-0.3-1-0.6-1.2-0.8c-0.3-0.4-0.4-0.8-0.4-1.4c0-0.7,0.3-1.4,0.8-1.8c0.5-0.5,1.2-0.7,1.9-0.7
		C93.3,119,94.1,119.6,94.6,120.7z"/>
	<path class="st2" d="M104.5,121.1v6.7h-2v-6.7h-0.8v-1.8h0.8v-3.1h2v3.1h1.5v1.8H104.5z"/>
	<path class="st2" d="M107.1,123.5c0-1.2,0.4-2.3,1.3-3.2s2-1.3,3.2-1.3c1.3,0,2.4,0.4,3.3,1.3c0.9,0.9,1.3,1.9,1.3,3.2
		c0,1.3-0.4,2.4-1.3,3.2c-0.9,0.9-2,1.3-3.3,1.3c-1.3,0-2.4-0.4-3.2-1.3C107.6,125.9,107.1,124.8,107.1,123.5z M109.2,123.5
		c0,0.9,0.2,1.5,0.7,2c0.5,0.5,1.1,0.8,1.9,0.8c0.8,0,1.4-0.2,1.9-0.7s0.7-1.2,0.7-2s-0.2-1.5-0.7-2c-0.5-0.5-1.1-0.8-1.9-0.8
		c-0.8,0-1.4,0.3-1.8,0.8S109.2,122.7,109.2,123.5z"/>
	<path class="st2" d="M126.6,126.2l-3.8-7h2.3l2.6,4.9l2.4-4.9h2.2l-6.8,13.2h-2.3L126.6,126.2z"/>
	<path class="st2" d="M133,123.5c0-1.2,0.4-2.3,1.3-3.2s2-1.3,3.2-1.3c1.3,0,2.4,0.4,3.3,1.3c0.9,0.9,1.3,1.9,1.3,3.2
		c0,1.3-0.4,2.4-1.3,3.2c-0.9,0.9-2,1.3-3.3,1.3c-1.3,0-2.4-0.4-3.2-1.3C133.4,125.9,133,124.8,133,123.5z M135,123.5
		c0,0.9,0.2,1.5,0.7,2c0.5,0.5,1.1,0.8,1.9,0.8c0.8,0,1.4-0.2,1.9-0.7s0.7-1.2,0.7-2s-0.2-1.5-0.7-2c-0.5-0.5-1.1-0.8-1.9-0.8
		c-0.8,0-1.4,0.3-1.8,0.8S135,122.7,135,123.5z"/>
	<path class="st2" d="M146.2,119.2v4.9c0,1.4,0.6,2.1,1.7,2.1s1.7-0.7,1.7-2.1v-4.9h2v5c0,0.7-0.1,1.3-0.3,1.8
		c-0.2,0.4-0.4,0.8-0.9,1.2c-0.7,0.6-1.5,0.9-2.5,0.9c-1,0-1.9-0.3-2.5-0.9c-0.4-0.4-0.7-0.8-0.9-1.2c-0.2-0.4-0.2-1-0.2-1.8v-5
		H146.2z"/>
	<path class="st2" d="M154,119.2h2v0.8c0.4-0.4,0.7-0.6,1-0.8c0.3-0.1,0.6-0.2,1-0.2c0.5,0,1.1,0.2,1.6,0.5l-0.9,1.8
		c-0.4-0.3-0.7-0.4-1.1-0.4c-1.1,0-1.6,0.8-1.6,2.4v4.4h-2V119.2z"/>
	<path class="st2" d="M167.4,119.2l2.2,4.9l2.4-5.7l2.4,5.7l2.2-4.9h2.2l-4.5,9.2l-2.4-5.5l-2.4,5.5l-4.5-9.2H167.4z"/>
	<path class="st2" d="M186.2,119.2h2v8.6h-2v-0.9c-0.8,0.8-1.7,1.1-2.6,1.1c-1.2,0-2.2-0.4-2.9-1.3c-0.8-0.9-1.2-2-1.2-3.3
		c0-1.3,0.4-2.4,1.2-3.2s1.7-1.3,2.9-1.3c1,0,1.9,0.4,2.7,1.2V119.2z M181.5,123.5c0,0.8,0.2,1.5,0.7,2c0.5,0.5,1,0.8,1.7,0.8
		c0.7,0,1.3-0.3,1.8-0.8c0.5-0.5,0.7-1.2,0.7-2s-0.2-1.5-0.7-2c-0.5-0.5-1-0.8-1.8-0.8c-0.7,0-1.2,0.3-1.7,0.8
		C181.8,122.1,181.5,122.7,181.5,123.5z"/>
	<path class="st2" d="M193.6,126.2l-3.8-7h2.3l2.6,4.9l2.4-4.9h2.2l-6.8,13.2h-2.3L193.6,126.2z"/>
	<path class="st2" d="M205.8,123.5c0-1.2,0.4-2.3,1.3-3.2s2-1.3,3.2-1.3c1.3,0,2.4,0.4,3.3,1.3c0.9,0.9,1.3,1.9,1.3,3.2
		c0,1.3-0.4,2.4-1.3,3.2c-0.9,0.9-2,1.3-3.3,1.3c-1.3,0-2.4-0.4-3.2-1.3C206.2,125.9,205.8,124.8,205.8,123.5z M207.8,123.5
		c0,0.9,0.2,1.5,0.7,2c0.5,0.5,1.1,0.8,1.9,0.8c0.8,0,1.4-0.2,1.9-0.7s0.7-1.2,0.7-2s-0.2-1.5-0.7-2c-0.5-0.5-1.1-0.8-1.9-0.8
		c-0.8,0-1.4,0.3-1.8,0.8S207.8,122.7,207.8,123.5z"/>
	<path class="st2" d="M219.1,121.1v6.7h-2v-6.7h-0.7v-1.8h0.7v-3.3c0-1.1,0.2-1.8,0.6-2.3c0.5-0.6,1.3-0.9,2.2-0.9
		c0.4,0,0.8,0.1,1.3,0.3v2l-0.2-0.1c-0.4-0.2-0.8-0.3-1.1-0.3c-0.4,0-0.6,0.1-0.7,0.4c-0.1,0.2-0.2,0.7-0.2,1.4v2.8h2.2v1.8H219.1z"
		/>
	<path class="st2" d="M230,121.1v6.7h-2v-6.7h-0.8v-1.8h0.8v-3.1h2v3.1h1.5v1.8H230z"/>
	<path class="st2" d="M233.2,112.9h2v7c0.7-0.6,1.5-0.9,2.3-0.9c1,0,1.7,0.3,2.3,0.9c0.5,0.5,0.7,1.4,0.7,2.6v5.2h-2v-5.1
		c0-0.7-0.1-1.2-0.4-1.5c-0.2-0.3-0.6-0.5-1.2-0.5c-0.7,0-1.2,0.2-1.5,0.6c-0.3,0.4-0.4,1.2-0.4,2.2v4.1h-2V112.9z"/>
	<path class="st2" d="M242.8,115.7c0-0.3,0.1-0.6,0.4-0.9s0.6-0.4,0.9-0.4c0.4,0,0.7,0.1,0.9,0.4c0.3,0.2,0.4,0.5,0.4,0.9
		s-0.1,0.7-0.4,0.9c-0.2,0.3-0.5,0.4-0.9,0.4s-0.7-0.1-0.9-0.4S242.8,116,242.8,115.7z M245.1,119.2v8.6h-2v-8.6H245.1z"/>
	<path class="st2" d="M247.6,119.2h2v0.8c0.7-0.7,1.5-1,2.3-1c1,0,1.8,0.3,2.3,0.9c0.5,0.5,0.7,1.4,0.7,2.6v5.2h-2V123
		c0-0.8-0.1-1.4-0.4-1.7c-0.2-0.3-0.6-0.5-1.2-0.5c-0.7,0-1.1,0.2-1.4,0.7c-0.3,0.4-0.4,1.2-0.4,2.2v4.1h-2V119.2z"/>
	<path class="st2" d="M259.4,112.9v9.1l2.8-2.8h2.7l-3.7,3.6l4,5h-2.6l-2.8-3.6l-0.3,0.3v3.3h-2v-14.8H259.4z"/>
	<path class="st2" d="M266.1,115.7c0-0.3,0.1-0.6,0.4-0.9s0.6-0.4,0.9-0.4c0.4,0,0.7,0.1,0.9,0.4c0.3,0.2,0.4,0.5,0.4,0.9
		s-0.1,0.7-0.4,0.9c-0.2,0.3-0.5,0.4-0.9,0.4s-0.7-0.1-0.9-0.4S266.1,116,266.1,115.7z M268.4,119.2v8.6h-2v-8.6H268.4z"/>
	<path class="st2" d="M270.9,119.2h2v0.8c0.7-0.7,1.5-1,2.3-1c1,0,1.8,0.3,2.3,0.9c0.5,0.5,0.7,1.4,0.7,2.6v5.2h-2V123
		c0-0.8-0.1-1.4-0.4-1.7c-0.2-0.3-0.6-0.5-1.2-0.5c-0.7,0-1.1,0.2-1.4,0.7c-0.3,0.4-0.4,1.2-0.4,2.2v4.1h-2V119.2z"/>
	<path class="st2" d="M289,127.6c0,0.4,0,0.8,0,1.1c0,0.3-0.1,0.6-0.1,0.8c-0.1,0.6-0.4,1.2-0.8,1.7c-0.8,0.9-1.8,1.3-3.2,1.3
		c-1.1,0-2.1-0.3-2.8-0.9c-0.8-0.6-1.2-1.5-1.3-2.6h2c0.1,0.4,0.2,0.7,0.4,1c0.4,0.5,1,0.8,1.8,0.8c1.4,0,2.2-0.9,2.2-2.7v-1.2
		c-0.8,0.8-1.7,1.2-2.7,1.2c-1.2,0-2.1-0.4-2.9-1.3c-0.8-0.9-1.1-1.9-1.1-3.2c0-1.2,0.3-2.3,1-3.2c0.8-0.9,1.7-1.4,3-1.4
		c1.1,0,2,0.4,2.7,1.2v-1h2V127.6z M287.1,123.5c0-0.8-0.2-1.5-0.7-2c-0.5-0.5-1-0.8-1.7-0.8c-0.8,0-1.3,0.3-1.8,0.8
		c-0.4,0.5-0.6,1.1-0.6,1.9c0,0.8,0.2,1.4,0.6,1.9c0.4,0.5,1,0.8,1.8,0.8s1.4-0.3,1.8-0.8C286.9,124.9,287.1,124.3,287.1,123.5z"/>
</g>
<g class="st1">
	<path class="st2" d="M35.7,147.4h2v8.6h-2v-0.9c-0.8,0.8-1.7,1.1-2.6,1.1c-1.2,0-2.2-0.4-2.9-1.3c-0.8-0.9-1.2-2-1.2-3.3
		c0-1.3,0.4-2.4,1.2-3.2s1.7-1.3,2.9-1.3c1,0,1.9,0.4,2.7,1.2V147.4z M31,151.7c0,0.8,0.2,1.5,0.7,2c0.5,0.5,1,0.8,1.7,0.8
		c0.7,0,1.3-0.3,1.8-0.8c0.5-0.5,0.7-1.2,0.7-2s-0.2-1.5-0.7-2c-0.5-0.5-1-0.8-1.8-0.8c-0.7,0-1.2,0.3-1.7,0.8
		C31.2,150.3,31,150.9,31,151.7z"/>
	<path class="st2" d="M40.1,147.4h2v0.8c0.7-0.7,1.5-1,2.3-1c1,0,1.8,0.3,2.3,0.9c0.5,0.5,0.7,1.4,0.7,2.6v5.2h-2v-4.8
		c0-0.8-0.1-1.4-0.4-1.7c-0.2-0.3-0.6-0.5-1.2-0.5c-0.7,0-1.1,0.2-1.4,0.7c-0.3,0.4-0.4,1.2-0.4,2.2v4.1h-2V147.4z"/>
	<path class="st2" d="M56.3,141.1h2V156h-2v-0.9c-0.8,0.8-1.7,1.1-2.6,1.1c-1.2,0-2.1-0.4-2.9-1.3c-0.8-0.9-1.2-2-1.2-3.3
		c0-1.3,0.4-2.3,1.2-3.2c0.8-0.9,1.7-1.3,2.9-1.3c1,0,1.9,0.4,2.7,1.2V141.1z M51.6,151.7c0,0.8,0.2,1.5,0.7,2
		c0.5,0.5,1,0.8,1.7,0.8c0.7,0,1.3-0.3,1.8-0.8c0.5-0.5,0.7-1.2,0.7-2s-0.2-1.5-0.7-2c-0.5-0.5-1-0.8-1.8-0.8
		c-0.7,0-1.2,0.3-1.7,0.8C51.8,150.3,51.6,150.9,51.6,151.7z"/>
	<path class="st2" d="M73,147.8v2.6c-0.5-0.6-0.9-0.9-1.2-1.1c-0.4-0.2-0.8-0.3-1.2-0.3c-0.7,0-1.4,0.3-1.9,0.8s-0.7,1.2-0.7,2
		c0,0.8,0.2,1.5,0.7,2c0.5,0.5,1.1,0.8,1.8,0.8c0.5,0,0.9-0.1,1.3-0.3c0.4-0.2,0.8-0.6,1.2-1.2v2.6c-0.8,0.4-1.6,0.6-2.4,0.6
		c-1.3,0-2.4-0.4-3.3-1.3c-0.9-0.9-1.3-1.9-1.3-3.2s0.5-2.4,1.4-3.2s2-1.3,3.3-1.3C71.5,147.2,72.3,147.4,73,147.8z"/>
	<path class="st2" d="M81.2,147.4h2v8.6h-2v-0.9c-0.8,0.8-1.7,1.1-2.6,1.1c-1.2,0-2.2-0.4-2.9-1.3c-0.8-0.9-1.2-2-1.2-3.3
		c0-1.3,0.4-2.4,1.2-3.2s1.7-1.3,2.9-1.3c1,0,1.9,0.4,2.7,1.2V147.4z M76.5,151.7c0,0.8,0.2,1.5,0.7,2c0.5,0.5,1,0.8,1.7,0.8
		c0.7,0,1.3-0.3,1.8-0.8c0.5-0.5,0.7-1.2,0.7-2s-0.2-1.5-0.7-2c-0.5-0.5-1-0.8-1.8-0.8c-0.7,0-1.2,0.3-1.7,0.8
		C76.8,150.3,76.5,150.9,76.5,151.7z"/>
	<path class="st2" d="M85.7,147.4h2v0.8c0.7-0.7,1.5-1,2.3-1c1,0,1.8,0.3,2.3,0.9c0.5,0.5,0.7,1.4,0.7,2.6v5.2h-2v-4.8
		c0-0.8-0.1-1.4-0.4-1.7c-0.2-0.3-0.6-0.5-1.2-0.5c-0.7,0-1.1,0.2-1.4,0.7c-0.3,0.4-0.4,1.2-0.4,2.2v4.1h-2V147.4z"/>
	<path class="st2" d="M101.1,147.4h2v0.8c0.4-0.4,0.7-0.7,1-0.8c0.3-0.1,0.6-0.2,1.1-0.2c1,0,1.7,0.4,2.3,1.3
		c0.6-0.8,1.5-1.3,2.5-1.3c1.9,0,2.9,1.2,2.9,3.5v5.3h-2v-4.8c0-0.8-0.1-1.4-0.3-1.7c-0.2-0.3-0.5-0.5-1-0.5c-0.5,0-0.9,0.2-1.2,0.6
		s-0.4,1.1-0.4,2v4.4h-2v-4.7c0-1.5-0.4-2.3-1.3-2.3c-0.6,0-1,0.2-1.2,0.6s-0.4,1.1-0.4,2v4.4h-2V147.4z"/>
	<path class="st2" d="M121.7,147.4h2v8.6h-2v-0.9c-0.8,0.8-1.7,1.1-2.6,1.1c-1.2,0-2.2-0.4-2.9-1.3c-0.8-0.9-1.2-2-1.2-3.3
		c0-1.3,0.4-2.4,1.2-3.2s1.7-1.3,2.9-1.3c1,0,1.9,0.4,2.7,1.2V147.4z M117,151.7c0,0.8,0.2,1.5,0.7,2c0.5,0.5,1,0.8,1.7,0.8
		c0.7,0,1.3-0.3,1.8-0.8c0.5-0.5,0.7-1.2,0.7-2s-0.2-1.5-0.7-2c-0.5-0.5-1-0.8-1.8-0.8c-0.7,0-1.2,0.3-1.7,0.8
		C117.2,150.3,117,150.9,117,151.7z"/>
	<path class="st2" d="M128.2,141.1v9.1l2.8-2.8h2.7l-3.7,3.6l4,5h-2.6l-2.8-3.6l-0.3,0.3v3.3h-2v-14.8H128.2z"/>
	<path class="st2" d="M142.6,152.2h-6.1c0.1,0.7,0.3,1.3,0.7,1.7c0.4,0.4,0.9,0.6,1.6,0.6c0.5,0,0.9-0.1,1.2-0.4
		c0.3-0.2,0.7-0.7,1.1-1.3l1.7,0.9c-0.3,0.4-0.5,0.8-0.8,1.1s-0.6,0.6-0.9,0.8c-0.3,0.2-0.7,0.3-1.1,0.4s-0.8,0.1-1.2,0.1
		c-1.3,0-2.3-0.4-3.1-1.2c-0.8-0.8-1.2-1.9-1.2-3.3c0-1.4,0.4-2.4,1.1-3.3c0.8-0.8,1.8-1.2,3-1.2c1.3,0,2.3,0.4,3,1.2
		c0.7,0.8,1.1,1.9,1.1,3.3L142.6,152.2z M140.6,150.6c-0.3-1.1-0.9-1.6-2-1.6c-0.2,0-0.5,0-0.7,0.1c-0.2,0.1-0.4,0.2-0.6,0.3
		c-0.2,0.1-0.3,0.3-0.4,0.5s-0.2,0.4-0.3,0.7H140.6z"/>
	<path class="st2" d="M153.1,154.4l-3.8-7h2.3l2.6,4.9l2.4-4.9h2.2l-6.8,13.2h-2.3L153.1,154.4z"/>
	<path class="st2" d="M159.4,151.7c0-1.2,0.4-2.3,1.3-3.2s2-1.3,3.2-1.3c1.3,0,2.4,0.4,3.3,1.3c0.9,0.9,1.3,1.9,1.3,3.2
		c0,1.3-0.4,2.4-1.3,3.2c-0.9,0.9-2,1.3-3.3,1.3c-1.3,0-2.4-0.4-3.2-1.3C159.8,154.1,159.4,153,159.4,151.7z M161.4,151.7
		c0,0.9,0.2,1.5,0.7,2c0.5,0.5,1.1,0.8,1.9,0.8c0.8,0,1.4-0.2,1.9-0.7s0.7-1.2,0.7-2s-0.2-1.5-0.7-2c-0.5-0.5-1.1-0.8-1.9-0.8
		c-0.8,0-1.4,0.3-1.8,0.8S161.4,150.9,161.4,151.7z"/>
	<path class="st2" d="M172.6,147.4v4.9c0,1.4,0.6,2.1,1.7,2.1s1.7-0.7,1.7-2.1v-4.9h2v5c0,0.7-0.1,1.3-0.3,1.8
		c-0.2,0.4-0.4,0.8-0.9,1.2c-0.7,0.6-1.5,0.9-2.5,0.9c-1,0-1.9-0.3-2.5-0.9c-0.4-0.4-0.7-0.8-0.9-1.2c-0.2-0.4-0.2-1-0.2-1.8v-5
		H172.6z"/>
	<path class="st2" d="M186,147.4h2v0.8c0.4-0.4,0.7-0.7,1-0.8c0.3-0.1,0.6-0.2,1.1-0.2c1,0,1.7,0.4,2.3,1.3c0.6-0.8,1.5-1.3,2.5-1.3
		c1.9,0,2.9,1.2,2.9,3.5v5.3h-2v-4.8c0-0.8-0.1-1.4-0.3-1.7c-0.2-0.3-0.5-0.5-1-0.5c-0.5,0-0.9,0.2-1.2,0.6s-0.4,1.1-0.4,2v4.4h-2
		v-4.7c0-1.5-0.4-2.3-1.3-2.3c-0.6,0-1,0.2-1.2,0.6s-0.4,1.1-0.4,2v4.4h-2V147.4z"/>
	<path class="st2" d="M202.2,147.4v4.9c0,1.4,0.6,2.1,1.7,2.1s1.7-0.7,1.7-2.1v-4.9h2v5c0,0.7-0.1,1.3-0.3,1.8
		c-0.2,0.4-0.4,0.8-0.9,1.2c-0.7,0.6-1.5,0.9-2.5,0.9c-1,0-1.9-0.3-2.5-0.9c-0.4-0.4-0.7-0.8-0.9-1.2c-0.2-0.4-0.2-1-0.2-1.8v-5
		H202.2z"/>
	<path class="st2" d="M216.7,147.8v2.6c-0.5-0.6-0.9-0.9-1.2-1.1c-0.4-0.2-0.8-0.3-1.2-0.3c-0.7,0-1.4,0.3-1.9,0.8s-0.7,1.2-0.7,2
		c0,0.8,0.2,1.5,0.7,2c0.5,0.5,1.1,0.8,1.8,0.8c0.5,0,0.9-0.1,1.3-0.3c0.4-0.2,0.8-0.6,1.2-1.2v2.6c-0.8,0.4-1.6,0.6-2.4,0.6
		c-1.3,0-2.4-0.4-3.3-1.3c-0.9-0.9-1.3-1.9-1.3-3.2s0.5-2.4,1.4-3.2s2-1.3,3.3-1.3C215.2,147.2,215.9,147.4,216.7,147.8z"/>
	<path class="st2" d="M219.1,141.1h2v7c0.7-0.6,1.5-0.9,2.3-0.9c1,0,1.7,0.3,2.3,0.9c0.5,0.5,0.7,1.4,0.7,2.6v5.2h-2v-5.1
		c0-0.7-0.1-1.2-0.4-1.5c-0.2-0.3-0.6-0.5-1.2-0.5c-0.7,0-1.2,0.2-1.5,0.6c-0.3,0.4-0.4,1.2-0.4,2.2v4.1h-2V141.1z"/>
	<path class="st2" d="M234.5,147.4h2v0.8c0.4-0.4,0.7-0.7,1-0.8c0.3-0.1,0.6-0.2,1.1-0.2c1,0,1.7,0.4,2.3,1.3
		c0.6-0.8,1.5-1.3,2.5-1.3c1.9,0,2.9,1.2,2.9,3.5v5.3h-2v-4.8c0-0.8-0.1-1.4-0.3-1.7c-0.2-0.3-0.5-0.5-1-0.5c-0.5,0-0.9,0.2-1.2,0.6
		s-0.4,1.1-0.4,2v4.4h-2v-4.7c0-1.5-0.4-2.3-1.3-2.3c-0.6,0-1,0.2-1.2,0.6s-0.4,1.1-0.4,2v4.4h-2V147.4z"/>
	<path class="st2" d="M248.3,151.7c0-1.2,0.4-2.3,1.3-3.2s2-1.3,3.2-1.3c1.3,0,2.4,0.4,3.3,1.3c0.9,0.9,1.3,1.9,1.3,3.2
		c0,1.3-0.4,2.4-1.3,3.2c-0.9,0.9-2,1.3-3.3,1.3c-1.3,0-2.4-0.4-3.2-1.3C248.8,154.1,248.3,153,248.3,151.7z M250.4,151.7
		c0,0.9,0.2,1.5,0.7,2c0.5,0.5,1.1,0.8,1.9,0.8c0.8,0,1.4-0.2,1.9-0.7s0.7-1.2,0.7-2s-0.2-1.5-0.7-2c-0.5-0.5-1.1-0.8-1.9-0.8
		c-0.8,0-1.4,0.3-1.8,0.8S250.4,150.9,250.4,151.7z"/>
	<path class="st2" d="M259.6,147.4h2v0.8c0.4-0.4,0.7-0.6,1-0.8c0.3-0.1,0.6-0.2,1-0.2c0.5,0,1.1,0.2,1.6,0.5l-0.9,1.8
		c-0.4-0.3-0.7-0.4-1.1-0.4c-1.1,0-1.6,0.8-1.6,2.4v4.4h-2V147.4z"/>
	<path class="st2" d="M274,152.2h-6.1c0.1,0.7,0.3,1.3,0.7,1.7c0.4,0.4,0.9,0.6,1.6,0.6c0.5,0,0.9-0.1,1.2-0.4
		c0.3-0.2,0.7-0.7,1.1-1.3l1.7,0.9c-0.3,0.4-0.5,0.8-0.8,1.1s-0.6,0.6-0.9,0.8c-0.3,0.2-0.7,0.3-1.1,0.4s-0.8,0.1-1.2,0.1
		c-1.3,0-2.3-0.4-3.1-1.2c-0.8-0.8-1.2-1.9-1.2-3.3c0-1.4,0.4-2.4,1.1-3.3c0.8-0.8,1.8-1.2,3-1.2c1.3,0,2.3,0.4,3,1.2
		c0.7,0.8,1.1,1.9,1.1,3.3L274,152.2z M271.9,150.6c-0.3-1.1-0.9-1.6-2-1.6c-0.2,0-0.5,0-0.7,0.1c-0.2,0.1-0.4,0.2-0.6,0.3
		c-0.2,0.1-0.3,0.3-0.4,0.5s-0.2,0.4-0.3,0.7H271.9z"/>
</g>
<path class="st3" d="M135,262.6l27-34.6c8.7-11.1,6.7-27.1-4.4-35.8c-11.1-8.7-27.1-6.7-35.8,4.4l-7.3,9.3l-7.3-9.3
	c-8.7-11.1-24.7-13-35.8-4.4c-11.1,8.7-13,24.7-4.4,35.8l27.1,34.6c0.6,0.8,1.3,1.6,2,2.3l0.1,0.1c0.1,0.1,0.2,0.2,0.3,0.3
	c0.1,0.1,0.2,0.2,0.3,0.3l0.1,0.1c2,1.9,4.3,3.5,6.7,4.6c0.1,0,0.1,0.1,0.2,0.1c0,0,0,0,0.1,0c3.3,1.5,6.9,2.3,10.5,2.3
	c0.1,0,0.1,0,0.2,0s0.1,0,0.2,0c3.6,0,7.1-0.8,10.5-2.3c0,0,0,0,0.1,0s0.1-0.1,0.2-0.1c2.4-1.1,4.7-2.7,6.7-4.6l0.1-0.1
	c0.1-0.1,0.2-0.2,0.3-0.3c0.1-0.1,0.2-0.2,0.3-0.3l0.1-0.1C133.7,264.2,134.3,263.4,135,262.6z"/>
<g class="st1">
	<path class="st3" d="M195.1,198.7V210h-4v-26.7h4v11.3h4.9v-11.3h4V210h-4v-11.3H195.1z"/>
	<path class="st3" d="M212.5,203.8l-1,6.1h-4.2l4.5-26.7h5.5l4.5,26.7h-4.2l-0.9-6.1H212.5z M214.6,189.4l-1.5,10.5h3L214.6,189.4z"
		/>
	<path class="st3" d="M231.6,183.3c2,0,3.5,0.6,4.7,1.9c1.1,1.2,1.6,2.7,1.6,4.5v3.9c0,1.8-0.6,3.3-1.8,4.5
		c-1.2,1.2-2.7,1.9-4.5,1.9h-2.3V210h-4v-26.7H231.6z M234,189.7c0-0.7-0.2-1.3-0.6-1.7c-0.4-0.4-1-0.6-1.7-0.6h-2.4v8.5h2.4
		c0.6,0,1.2-0.2,1.6-0.7c0.4-0.5,0.7-1,0.7-1.6V189.7z"/>
	<path class="st3" d="M247.5,183.3c2,0,3.5,0.6,4.7,1.9c1.1,1.2,1.6,2.7,1.6,4.5v3.9c0,1.8-0.6,3.3-1.8,4.5
		c-1.2,1.2-2.7,1.9-4.5,1.9h-2.3V210h-4v-26.7H247.5z M249.9,189.7c0-0.7-0.2-1.3-0.6-1.7c-0.4-0.4-1-0.6-1.7-0.6h-2.4v8.5h2.4
		c0.6,0,1.2-0.2,1.6-0.7c0.4-0.5,0.7-1,0.7-1.6V189.7z"/>
	<path class="st3" d="M260.6,198.8l-5.4-15.5h4.4l3,9.6l3-9.6h4.5l-5.4,15.5V210h-4V198.8z"/>
</g>
<g class="st1">
	<path class="st3" d="M206.7,229.6c-0.6,2.8-1.5,5.2-2.6,7.2c1,1,1.9,1.4,2.7,1.4v3.7c-1.6,0-3.2-0.7-4.8-2.1
		c-1.6,1.7-3.3,2.5-5.1,2.5c-2.1,0-3.7-0.9-4.8-2.6c-0.7-1.1-1-2.3-1-3.8c0-1.4,0.3-2.8,1-4.3c0.1-0.2,0.5-0.9,1.1-2
		c0.4-0.6,0.7-1.1,1.1-1.6l-0.8-1.9c-0.4-0.9-0.7-1.5-0.8-1.9c-0.3-0.7-0.5-1.4-0.6-2c-0.1-0.6-0.2-1.3-0.2-1.9
		c0-1.2,0.3-2.3,0.8-3.3c0.5-1.1,1.3-1.8,2.3-2.4c0.8-0.4,1.7-0.7,2.7-0.7c1.1,0,2.1,0.3,3,0.8s1.6,1.3,2.1,2.3
		c0.4,0.8,0.6,1.6,0.6,2.5c0,1.6-0.6,3.1-1.7,4.6l-0.9,1.1c-0.8,1-1.5,2-2.2,2.9c0.9,1.9,1.9,3.6,3,5.2c0.7-1.5,1.2-3.1,1.5-4.9
		L206.7,229.6z M196.9,238.6c0.8,0,1.7-0.5,2.6-1.5c-1.1-1.4-2.2-3.1-3.3-5.2c-0.3,0.4-0.5,0.9-0.8,1.3c-0.4,1-0.6,1.9-0.6,2.7
		c0,0.7,0.2,1.3,0.5,1.8C195.6,238.4,196.2,238.6,196.9,238.6z M195.5,220.5c0,0.8,0.4,2.2,1.2,4.1c0.2-0.2,0.3-0.4,0.5-0.6l0.5-0.7
		l0.9-1.1c0.6-0.8,0.9-1.6,0.9-2.3c0-0.5-0.1-0.9-0.2-1.2c-0.4-0.9-0.9-1.3-1.7-1.3c-0.7,0-1.2,0.4-1.6,1.1
		C195.7,219,195.5,219.7,195.5,220.5z"/>
</g>
<g class="st1">
	<path class="st3" d="M197.4,247.8c2,0,3.5,0.6,4.7,1.9c1.1,1.2,1.6,2.7,1.6,4.5v3.9c0,1.8-0.6,3.3-1.8,4.5
		c-1.2,1.2-2.7,1.9-4.5,1.9h-2.3v10.1h-4v-26.7H197.4z M199.8,254.2c0-0.7-0.2-1.3-0.6-1.7c-0.4-0.4-1-0.6-1.7-0.6h-2.4v8.5h2.4
		c0.6,0,1.2-0.2,1.6-0.7c0.4-0.5,0.7-1,0.7-1.6V254.2z"/>
	<path class="st3" d="M212.8,247.4c1.8,0,3.3,0.6,4.5,1.9s1.9,2.8,1.9,4.5v14.6c0,1.8-0.6,3.3-1.9,4.5c-1.2,1.2-2.8,1.9-4.5,1.9
		c-1.8,0-3.3-0.6-4.5-1.9c-1.2-1.2-1.9-2.8-1.9-4.5v-14.6c0-1.8,0.6-3.3,1.9-4.5S211.1,247.4,212.8,247.4z M215,253.8
		c0-0.6-0.2-1.2-0.7-1.6c-0.4-0.4-1-0.7-1.6-0.7c-0.6,0-1.2,0.2-1.6,0.7c-0.5,0.4-0.7,1-0.7,1.6v14.6c0,0.6,0.2,1.2,0.7,1.6
		c0.5,0.4,1,0.7,1.6,0.7c0.6,0,1.2-0.2,1.6-0.7c0.4-0.4,0.7-1,0.7-1.6V253.8z"/>
	<path class="st3" d="M235.8,267.8c0,1.9-0.5,3.5-1.4,4.8c-0.7,0.9-1.6,1.5-2.8,1.9c-0.6,0.2-1.4,0.3-2.2,0.3
		c-1.6,0-2.9-0.4-3.9-1.2c-0.9-0.6-1.6-1.5-2.1-2.6c-0.5-1.1-0.8-2.4-0.9-3.8l3.8-0.3c0.2,1.6,0.6,2.7,1.2,3.4
		c0.5,0.5,1,0.8,1.7,0.8c0.9,0,1.6-0.5,2.1-1.3c0.3-0.4,0.4-1,0.4-1.8c0-1.1-0.5-2.2-1.5-3.3c-0.8-0.8-2-1.9-3.6-3.4
		c-1.3-1.3-2.3-2.5-2.8-3.5c-0.6-1.2-0.9-2.4-0.9-3.8c0-2.4,0.8-4.3,2.5-5.5c1-0.8,2.3-1.1,3.8-1.1c1.4,0,2.7,0.3,3.7,1
		c0.8,0.5,1.4,1.2,1.9,2.1c0.5,0.9,0.8,1.9,0.9,3.1l-3.9,0.7c-0.1-1.1-0.4-1.9-0.9-2.6c-0.4-0.4-0.9-0.7-1.6-0.7
		c-0.7,0-1.3,0.3-1.7,1c-0.3,0.5-0.5,1.2-0.5,2c0,1.2,0.5,2.5,1.6,3.7c0.4,0.5,1,1.1,1.8,1.7c0.9,0.8,1.6,1.3,1.9,1.6
		c1,1,1.8,2,2.3,2.9c0.3,0.5,0.5,0.9,0.6,1.3C235.6,266.2,235.8,267.1,235.8,267.8z"/>
	<path class="st3" d="M243.2,274.5h-4v-26.7h4V274.5z"/>
	<path class="st3" d="M250.7,251.8h-4.3v-4H259v4h-4.3v22.6h-4V251.8z"/>
	<path class="st3" d="M266.3,274.5h-4v-26.7h4V274.5z"/>
	<path class="st3" d="M274.4,274.5l-4.8-26.7h4.2l3.4,20.8l3.4-20.8h4.2l-4.9,26.7H274.4z"/>
	<path class="st3" d="M288.2,274.5v-26.7h11.5v4h-7.4v7.3h5.4v4h-5.4v7.3h7.4v4H288.2z"/>
</g>
</svg>
