<!-- Generator: Adobe Illustrator 19.0.0, SVG Export Plug-In  -->
<svg version="1.1"
	 xmlns="http://www.w3.org/2000/svg" xmlns:xlink="http://www.w3.org/1999/xlink" xmlns:a="http://ns.adobe.com/AdobeSVGViewerExtensions/3.0/"
	 x="0px" y="0px" width="343.9px" height="301.5px" viewBox="0 0 343.9 301.5" style="enable-background:new 0 0 343.9 301.5;"
	 xml:space="preserve">
<style type="text/css">
	.st0{fill:#FFFFFF;}
	.st1{fill:#4C5256;}
	.st2{font-family:'Futura-Medium';}
	.st3{font-size:18px;}
	.st4{fill:#AD351E;}
	.st5{font-family:'Bebas';}
	.st6{font-size:30px;}
	.st7{letter-spacing:-1;}
</style>
<defs>
</defs>
<path class="st0" d="M343.9,268c0,18.5-15,33.5-33.5,33.5H33.5C15,301.5,0,286.5,0,268V33.5C0,15,15,0,33.5,0h276.9
	c18.5,0,33.5,15,33.5,33.5V268z"/>
<text transform="matrix(1 0 0 1 28.0924 42.9942)"><tspan x="0" y="0" class="st1 st2 st3">A recent experiment reveals that </tspan><tspan x="0" y="28.2" class="st1 st2 st3">listening to happy and upbeat music  </tspan><tspan x="0" y="56.5" class="st1 st2 st3">frequently can make some big  </tspan><tspan x="0" y="84.8" class="st1 st2 st3">changes to your way of thinking</tspan><tspan x="0" y="113" class="st1 st2 st3">and can make you much more</tspan></text>
<path class="st4" d="M135,262.6L162,228c8.7-11.1,6.7-27.1-4.4-35.8c-11.1-8.7-27.1-6.7-35.8,4.4l-7.3,9.3l-7.3-9.3
	c-8.7-11.1-24.7-13-35.8-4.4c-11.1,8.7-13,24.7-4.4,35.8l27.1,34.6c0.6,0.8,1.3,1.6,2,2.3c0,0,0.1,0.1,0.1,0.1
	c0.1,0.1,0.2,0.2,0.3,0.3c0.1,0.1,0.2,0.2,0.3,0.3c0,0,0.1,0.1,0.1,0.1c2,1.9,4.3,3.5,6.7,4.6c0.1,0,0.1,0.1,0.2,0.1c0,0,0,0,0.1,0
	c3.3,1.5,6.9,2.3,10.5,2.3c0.1,0,0.1,0,0.2,0c0.1,0,0.1,0,0.2,0c3.6,0,7.1-0.8,10.5-2.3c0,0,0,0,0.1,0c0.1,0,0.1-0.1,0.2-0.1
	c2.4-1.1,4.7-2.7,6.7-4.6c0,0,0.1-0.1,0.1-0.1c0.1-0.1,0.2-0.2,0.3-0.3c0.1-0.1,0.2-0.2,0.3-0.3c0,0,0.1-0.1,0.1-0.1
	C133.7,264.2,134.3,263.4,135,262.6z"/>
<text transform="matrix(1 0 0 1 189.6571 209.9841)"><tspan x="0" y="0" class="st4 st5 st6">HAPPY </tspan><tspan x="0" y="32.2" class="st4 st5 st6">&amp;</tspan><tspan x="0" y="64.5" class="st4 st5 st6">POSITIVE</tspan></text>
</svg>
