<?xml version="1.0" encoding="utf-8"?>
<!-- Generator: Adobe Illustrator 18.1.1, SVG Export Plug-In . SVG Version: 6.00 Build 0)  -->
<svg version="1.1" id="Layer_1" xmlns="http://www.w3.org/2000/svg" xmlns:xlink="http://www.w3.org/1999/xlink" x="0px" y="0px"
	 width="717.7px" height="717.7px" viewBox="153.2 27.8 717.7 717.7" enable-background="new 153.2 27.8 717.7 717.7"
	 xml:space="preserve">
<g>
</g>
<g>
	<g>
		<path fill="#4B5D6E" d="M868.9,381c-0.7-46.1-10-90-26.5-130.3c-1.3-3.2-2.7-6.4-4.1-9.5c-17.3-39.1-41.4-74.4-70.8-104.7
			c-2.4-2.5-4.8-4.9-7.3-7.3c-31.8-30.9-69.4-56-110.9-73.4c-3.2-1.3-6.4-2.6-9.6-3.9c-38.6-14.9-80.4-23.4-124-24
			c-1.7,0-3.4,0-5.2,0c-0.3,0-0.6,0-0.8,0l1.6,68.7c1.5,0,2.9,0,4.4,0.1c34.6,0.6,67.7,7.3,98.3,19c3.2,1.2,6.4,2.5,9.6,3.9
			c32.9,14,62.7,33.9,88,58.3c2.5,2.4,4.9,4.8,7.3,7.3c23.2,24,42.3,52.1,56.1,83c1.4,3.1,2.7,6.3,4,9.5c13,32,20.4,66.9,21,103.4
			c0,1.7,0.1,3.4,0.1,5.2c0,1.7,0,3.4-0.1,5.2c-0.6,34.6-7.3,67.7-19,98.3c-1.2,3.2-2.5,6.4-3.9,9.6c-14,32.9-33.9,62.7-58.3,88
			c-2.4,2.5-4.8,4.9-7.3,7.3c-24,23.2-52.1,42.3-83,56.1c-3.1,1.4-6.3,2.7-9.5,4c-32,13-66.9,20.4-103.4,21c-1.7,0-3.4,0.1-5.2,0.1
			c-1.7,0-3.4,0-5.2-0.1v68.7c1.7,0,3.4,0,5.2,0s3.4,0,5.2,0c46.1-0.7,90-10,130.3-26.5c3.2-1.3,6.4-2.7,9.5-4.1
			c39.1-17.3,74.4-41.4,104.7-70.8c2.5-2.4,4.9-4.8,7.3-7.3c30.9-31.8,56-69.4,73.4-110.9c1.3-3.2,2.6-6.4,3.9-9.6
			c14.9-38.6,23.4-80.4,24-124c0-1.7,0-3.4,0-5.2S868.9,382.7,868.9,381z"/>
	</g>
	<g>
		<path fill="none" d="M818.9,384.6c0,1.5,0,3,0,4.5c-0.5,38-7.9,74.3-20.8,107.8c-1.1,2.8-2.2,5.6-3.4,8.3
			c-15.2,36.1-37,68.7-63.8,96.4c-2.1,2.1-4.2,4.3-6.4,6.4c-26.3,25.5-57,46.5-91,61.5c-2.7,1.2-5.5,2.4-8.3,3.5
			c-35,14.3-73.3,22.4-113.3,23c-1.5,0-3,0-4.5,0s-3,0-4.5,0l3.8-622.9c0.2,0,0.5,0,0.7,0c1.5,0,3,0,4.5,0
			c38,0.5,74.3,7.9,107.8,20.8c2.8,1.1,5.6,2.2,8.3,3.4c36.1,15.2,68.7,37,96.4,63.8c2.1,2.1,4.3,4.2,6.4,6.4
			c25.5,26.3,46.5,57,61.5,91c1.2,2.7,2.4,5.5,3.5,8.3c14.3,35,22.4,73.3,23,113.3C818.9,381.6,818.9,383.1,818.9,384.6z"/>
		<path fill="#D9EBF2" d="M548.1,54.5c3.2,0.4,4.2,2.6,3.9,5.6l-0.3,2.3c-0.4,3.3-2.1,4.8-5.4,4.4l-2.6-0.3l-1,8.6l-1.4-0.2
			l2.5-20.8L548.1,54.5z M546.4,65.5c2.4,0.3,3.6-0.7,3.9-3.2l0.3-2.4c0.3-2.3-0.3-3.8-2.6-4.1l-2.9-0.4l-1.2,9.8L546.4,65.5z"/>
		<path fill="#D9EBF2" d="M566.8,62.5l-0.1,0.4l-1.3-0.2l0.1-0.5c0.4-2.2-0.2-4-2.4-4.4c-2.2-0.4-3.4,1.1-3.7,3.3
			c-0.9,5,6.6,6.4,5.7,12.1c-0.5,3-2.2,5-5.3,4.4c-3.2-0.5-4.1-2.9-3.6-5.9l0.2-1.1l1.3,0.2l-0.2,1.2c-0.4,2.2,0.2,4,2.5,4.3
			c2.3,0.4,3.4-1.1,3.8-3.3c0.8-5-6.6-6.3-5.7-12.1c0.5-3.1,2.2-4.9,5.3-4.4C566.4,57.1,567.3,59.5,566.8,62.5z"/>
		<path fill="#D9EBF2" d="M575.4,72.2l-1.8-13.6l1.4,0.3l1.6,11.6l6.3-9.9l1.3,0.3l-7.4,11.6l-1.7,7.9l-1.3-0.3L575.4,72.2z"/>
		<path fill="#D9EBF2" d="M597.2,69.6l-0.5,1.7l-1.3-0.3l0.5-1.8c0.6-2.2,0.2-4-2-4.7c-2.2-0.6-3.5,0.8-4.1,3L587,78.1
			c-0.6,2.2-0.2,4,2,4.6c2.2,0.6,3.5-0.8,4.1-3l0.6-2.4l1.3,0.3l-0.6,2.3c-0.8,2.9-2.7,4.8-5.8,3.9s-3.8-3.4-3-6.3l2.8-10.4
			c0.8-2.9,2.7-4.8,5.8-3.9S598,66.7,597.2,69.6z"/>
		<path fill="#D9EBF2" d="M602.8,77.6l-3,9.4l-1.3-0.4l6.4-20l1.3,0.4l-3,9.4l6.2,2l3-9.4l1.3,0.4l-6.4,20L606,89l3-9.4L602.8,77.6z
			"/>
		<path fill="#D9EBF2" d="M618.2,76.4c1.1-2.9,3.2-4.5,6.2-3.4c3,1.1,3.6,3.7,2.5,6.6l-3.8,10.1c-1.1,2.9-3.2,4.5-6.2,3.3
			c-3-1.1-3.5-3.7-2.4-6.6L618.2,76.4z M615.7,87c-0.8,2.1-0.5,4,1.6,4.8c2.2,0.8,3.7-0.4,4.5-2.6l3.8-10.2c0.8-2.1,0.5-4-1.7-4.9
			c-2.2-0.8-3.6,0.4-4.4,2.6L615.7,87z"/>
		<path fill="#D9EBF2" d="M626.6,96.6l8.3-19.3l1.3,0.5L628.3,96l6.1,2.6l-0.5,1.2L626.6,96.6z"/>
		<path fill="#D9EBF2" d="M645.7,87.7c1.3-2.8,3.6-4.2,6.4-2.8c2.9,1.4,3.2,4,1.9,6.8l-4.7,9.7c-1.3,2.8-3.6,4.2-6.5,2.8
			c-2.9-1.4-3.2-4-1.8-6.8L645.7,87.7z M642.2,98.1c-1,2.1-0.9,4,1.2,5c2.1,1,3.7-0.1,4.7-2.1l4.8-9.8c1-2.1,0.9-4-1.2-5
			c-2.1-1-3.6,0.1-4.6,2.2L642.2,98.1z"/>
		<path fill="#D9EBF2" d="M667.5,98.9l-0.7,1.4l-1.2-0.6l0.8-1.4c1.1-2,1.1-3.9-0.9-5c-2-1.1-3.6,0-4.7,2l-5.2,9.6
			c-1.1,2-1.1,3.9,0.9,5c2,1.1,3.6,0,4.7-1.9l2.2-4l-2.5-1.3l0.6-1.1l3.6,2l-2.7,5c-1.4,2.7-3.7,4-6.5,2.5c-2.8-1.5-2.9-4.2-1.4-6.8
			l5.1-9.4c1.4-2.7,3.7-4,6.5-2.5C668.9,93.6,669,96.3,667.5,98.9z"/>
		<path fill="#D9EBF2" d="M672.3,110.8l2.7-13.5l1.2,0.7l-2.3,11.5l9.2-7.4l1.2,0.7l-10.8,8.6l-4.2,6.9l-1.2-0.7L672.3,110.8z"/>
	</g>
</g>
</svg>
