<!-- Generator: Adobe Illustrator 18.1.1, SVG Export Plug-In  -->
<svg version="1.1"
	 xmlns="http://www.w3.org/2000/svg" xmlns:xlink="http://www.w3.org/1999/xlink" xmlns:a="http://ns.adobe.com/AdobeSVGViewerExtensions/3.0/"
	 x="0px" y="0px" width="434.5px" height="236.6px" viewBox="0 0 434.5 236.6" enable-background="new 0 0 434.5 236.6"
	 xml:space="preserve">
<defs>
</defs>
<rect x="202.5" y="182" opacity="0.8" fill="#2B3990" width="232" height="54.7"/>
<text transform="matrix(1 0 0 1 216.4864 205.5496)"><tspan x="0" y="0" fill="#FFFFFF" font-family="'Futura-Medium'" font-size="16">Music has the ability to alter  </tspan><tspan x="0" y="19.2" fill="#FFFFFF" font-family="'Futura-Medium'" font-size="16">breathing and heart rate.</tspan></text>
<g opacity="0.8">
	<path fill="#2B3990" d="M201.5,214.3h-87.2l-40.6-74c-0.5-1-0.2-2.2,0.8-2.7c1-0.5,2.2-0.2,2.7,0.8l39.4,72h84.8c1.1,0,2,0.9,2,2
		C203.5,213.4,202.6,214.3,201.5,214.3z"/>
</g>
<path opacity="0.8" fill="#2B3990" d="M152.5,18l-1.2-0.2L34.7,0.9L28.5,0c-0.3,0-0.6,0-0.9,0C15,0,4.4,8.4,1,20
	c-0.3,1.5-0.6,3-0.9,4.5C0.1,25,0,25.5,0,26.1v3.3v80v2.3c0.6,13.5,11,24.5,24.2,26.1h6.9h95.4c0.1,0,0.2,0,0.3,0h6.9
	c0.1,0,0.2,0,0.3,0c10.5-1.4,19.2-8.7,22.5-18.5c0.4-1.1,0.7-2.2,0.9-3.3l16.4-61.2l1.3-4.9c0.3-1.5,0.4-3.1,0.4-4.7
	C175.5,31.6,165.5,20.2,152.5,18z"/>
<g>
	<text transform="matrix(1 0 0 1 47.3666 71.0966)"><tspan x="0" y="0" fill="#FFFFFF" font-family="'BebasNeueBold'" font-size="25">TEMPORAL </tspan><tspan x="0" y="30" fill="#FFFFFF" font-family="'BebasNeueBold'" font-size="25">LOBE</tspan></text>
</g>
</svg>
