<?xml version="1.0" encoding="utf-8"?>
<!-- Generator: Adobe Illustrator 19.2.0, SVG Export Plug-In . SVG Version: 6.00 Build 0)  -->
<svg version="1.1" id="Layer_1" xmlns="http://www.w3.org/2000/svg" xmlns:xlink="http://www.w3.org/1999/xlink" x="0px" y="0px"
	 viewBox="0 0 434.5 236.6" style="enable-background:new 0 0 434.5 236.6;" xml:space="preserve">
<style type="text/css">
	.st0{opacity:0.8;fill:#2B3990;enable-background:new    ;}
	.st1{enable-background:new    ;}
	.st2{fill:#FFFFFF;}
	.st3{opacity:0.8;}
	.st4{fill:#2B3990;}
</style>
<rect x="202.5" y="182" class="st0" width="232" height="54.7"/>
<g class="st1">
	<path class="st2" d="M217.5,205.5l2.5-13l4.1,9.4l4.3-9.4l2.3,13h-1.9l-1.2-7.3l-3.6,7.8l-3.5-7.8l-1.3,7.3H217.5z"/>
	<path class="st2" d="M234.7,197.9v4.4c0,1.3,0.5,1.9,1.5,1.9s1.5-0.6,1.5-1.9v-4.4h1.8v4.4c0,0.6-0.1,1.1-0.2,1.6
		c-0.1,0.4-0.4,0.8-0.8,1.1c-0.6,0.5-1.3,0.8-2.3,0.8c-0.9,0-1.7-0.3-2.3-0.8c-0.4-0.3-0.6-0.7-0.8-1.1c-0.1-0.4-0.2-0.9-0.2-1.6
		v-4.4H234.7z"/>
	<path class="st2" d="M246.1,199.2l-1.5,0.8c-0.2-0.5-0.5-0.7-0.9-0.7c-0.2,0-0.3,0.1-0.4,0.2s-0.2,0.2-0.2,0.4c0,0.3,0.3,0.6,1,0.9
		c0.9,0.4,1.6,0.8,1.9,1.1s0.5,0.8,0.5,1.4c0,0.7-0.3,1.3-0.8,1.8c-0.5,0.5-1.2,0.7-1.9,0.7c-1.3,0-2.2-0.6-2.7-1.9l1.5-0.7
		c0.2,0.4,0.4,0.6,0.5,0.7c0.2,0.2,0.5,0.3,0.8,0.3c0.6,0,0.9-0.3,0.9-0.8c0-0.3-0.2-0.6-0.7-0.9c-0.2-0.1-0.4-0.2-0.5-0.3
		s-0.4-0.2-0.5-0.3c-0.5-0.2-0.9-0.5-1.1-0.8c-0.3-0.3-0.4-0.7-0.4-1.2c0-0.7,0.2-1.2,0.7-1.6c0.5-0.4,1-0.6,1.7-0.6
		C244.9,197.7,245.6,198.2,246.1,199.2z"/>
	<path class="st2" d="M247.9,194.8c0-0.3,0.1-0.6,0.3-0.8s0.5-0.3,0.8-0.3c0.3,0,0.6,0.1,0.8,0.3c0.2,0.2,0.3,0.5,0.3,0.8
		s-0.1,0.6-0.3,0.8c-0.2,0.2-0.5,0.3-0.8,0.3s-0.6-0.1-0.8-0.3S247.9,195.1,247.9,194.8z M249.9,197.9v7.6h-1.8v-7.6H249.9z"/>
	<path class="st2" d="M258.1,198.3v2.3c-0.4-0.5-0.8-0.8-1.1-1c-0.3-0.2-0.7-0.3-1.1-0.3c-0.7,0-1.2,0.2-1.6,0.7s-0.7,1-0.7,1.7
		c0,0.7,0.2,1.3,0.6,1.8c0.4,0.5,1,0.7,1.6,0.7c0.4,0,0.8-0.1,1.1-0.3c0.3-0.2,0.7-0.5,1.1-1v2.3c-0.7,0.4-1.4,0.6-2.1,0.6
		c-1.2,0-2.2-0.4-3-1.1c-0.8-0.8-1.2-1.7-1.2-2.9s0.4-2.1,1.2-2.9s1.8-1.2,3-1.2C256.7,197.7,257.4,197.9,258.1,198.3z"/>
	<path class="st2" d="M264.7,192.4h1.8v6.2c0.6-0.6,1.3-0.8,2.1-0.8c0.9,0,1.5,0.3,2.1,0.8c0.4,0.5,0.7,1.3,0.7,2.3v4.7h-1.8V201
		c0-0.6-0.1-1.1-0.3-1.3s-0.6-0.4-1-0.4c-0.6,0-1,0.2-1.3,0.6c-0.2,0.4-0.4,1-0.4,2v3.7h-1.8V192.4z"/>
	<path class="st2" d="M279.1,197.9h1.8v7.6h-1.8v-0.8c-0.7,0.7-1.5,1-2.3,1c-1.1,0-1.9-0.4-2.6-1.1c-0.7-0.8-1-1.7-1-2.9
		c0-1.1,0.3-2.1,1-2.9s1.5-1.1,2.6-1.1c0.9,0,1.7,0.4,2.4,1.1V197.9z M274.9,201.7c0,0.7,0.2,1.3,0.6,1.8c0.4,0.5,0.9,0.7,1.5,0.7
		c0.7,0,1.2-0.2,1.6-0.7c0.4-0.5,0.6-1.1,0.6-1.8s-0.2-1.3-0.6-1.8c-0.4-0.5-0.9-0.7-1.6-0.7c-0.6,0-1.1,0.2-1.5,0.7
		C275.1,200.5,274.9,201,274.9,201.7z"/>
	<path class="st2" d="M287.5,199.2l-1.5,0.8c-0.2-0.5-0.5-0.7-0.9-0.7c-0.2,0-0.3,0.1-0.4,0.2s-0.2,0.2-0.2,0.4c0,0.3,0.3,0.6,1,0.9
		c0.9,0.4,1.6,0.8,1.9,1.1s0.5,0.8,0.5,1.4c0,0.7-0.3,1.3-0.8,1.8c-0.5,0.5-1.2,0.7-1.9,0.7c-1.3,0-2.2-0.6-2.7-1.9l1.5-0.7
		c0.2,0.4,0.4,0.6,0.5,0.7c0.2,0.2,0.5,0.3,0.8,0.3c0.6,0,0.9-0.3,0.9-0.8c0-0.3-0.2-0.6-0.7-0.9c-0.2-0.1-0.4-0.2-0.5-0.3
		s-0.4-0.2-0.5-0.3c-0.5-0.2-0.9-0.5-1.1-0.8c-0.3-0.3-0.4-0.7-0.4-1.2c0-0.7,0.2-1.2,0.7-1.6c0.5-0.4,1-0.6,1.7-0.6
		C286.3,197.7,287.1,198.2,287.5,199.2z"/>
	<path class="st2" d="M296.3,199.6v6h-1.8v-6h-0.8v-1.6h0.8v-2.8h1.8v2.8h1.4v1.6H296.3z"/>
	<path class="st2" d="M299.2,192.4h1.8v6.2c0.6-0.6,1.3-0.8,2.1-0.8c0.9,0,1.5,0.3,2.1,0.8c0.4,0.5,0.7,1.3,0.7,2.3v4.7H304V201
		c0-0.6-0.1-1.1-0.3-1.3s-0.6-0.4-1-0.4c-0.6,0-1,0.2-1.3,0.6c-0.2,0.4-0.4,1-0.4,2v3.7h-1.8V192.4z"/>
	<path class="st2" d="M314.9,202.2h-5.5c0,0.6,0.2,1.1,0.6,1.5c0.4,0.4,0.8,0.5,1.4,0.5c0.4,0,0.8-0.1,1.1-0.3
		c0.3-0.2,0.6-0.6,1-1.2l1.5,0.8c-0.2,0.4-0.5,0.7-0.7,1s-0.5,0.5-0.8,0.7s-0.6,0.3-0.9,0.4s-0.7,0.1-1.1,0.1c-1.1,0-2-0.4-2.7-1.1
		c-0.7-0.7-1-1.7-1-2.9c0-1.2,0.3-2.2,1-2.9c0.7-0.7,1.6-1.1,2.7-1.1c1.1,0,2,0.4,2.7,1.1c0.6,0.7,1,1.7,1,2.9L314.9,202.2z
		 M313.1,200.7c-0.2-0.9-0.8-1.4-1.8-1.4c-0.2,0-0.4,0-0.6,0.1s-0.4,0.2-0.5,0.3s-0.3,0.3-0.4,0.4s-0.2,0.4-0.2,0.6H313.1z"/>
	<path class="st2" d="M327.4,197.9h1.8v7.6h-1.8v-0.8c-0.7,0.7-1.5,1-2.3,1c-1.1,0-1.9-0.4-2.6-1.1c-0.7-0.8-1-1.7-1-2.9
		c0-1.1,0.3-2.1,1-2.9s1.5-1.1,2.6-1.1c0.9,0,1.7,0.4,2.4,1.1V197.9z M323.2,201.7c0,0.7,0.2,1.3,0.6,1.8c0.4,0.5,0.9,0.7,1.5,0.7
		c0.7,0,1.2-0.2,1.6-0.7c0.4-0.5,0.6-1.1,0.6-1.8s-0.2-1.3-0.6-1.8c-0.4-0.5-0.9-0.7-1.6-0.7c-0.6,0-1.1,0.2-1.5,0.7
		C323.4,200.5,323.2,201,323.2,201.7z"/>
	<path class="st2" d="M333.1,192.4v6.5c0.7-0.7,1.5-1.1,2.4-1.1c1,0,1.9,0.4,2.6,1.1c0.7,0.8,1,1.7,1,2.8c0,1.2-0.3,2.1-1,2.9
		c-0.7,0.8-1.5,1.1-2.6,1.1c-0.9,0-1.7-0.3-2.4-1v0.8h-1.8v-13.2H333.1z M337.3,201.8c0-0.7-0.2-1.3-0.6-1.8
		c-0.4-0.5-0.9-0.7-1.5-0.7c-0.6,0-1.2,0.2-1.6,0.7c-0.4,0.4-0.6,1-0.6,1.8c0,0.7,0.2,1.3,0.6,1.8c0.4,0.5,0.9,0.7,1.6,0.7
		c0.6,0,1.1-0.2,1.5-0.7C337.1,203.1,337.3,202.5,337.3,201.8z"/>
	<path class="st2" d="M340.7,194.8c0-0.3,0.1-0.6,0.3-0.8s0.5-0.3,0.8-0.3c0.3,0,0.6,0.1,0.8,0.3c0.2,0.2,0.3,0.5,0.3,0.8
		s-0.1,0.6-0.3,0.8c-0.2,0.2-0.5,0.3-0.8,0.3s-0.6-0.1-0.8-0.3S340.7,195.1,340.7,194.8z M342.7,197.9v7.6H341v-7.6H342.7z"/>
	<path class="st2" d="M346.7,192.4v13.2H345v-13.2H346.7z"/>
	<path class="st2" d="M348.7,194.8c0-0.3,0.1-0.6,0.3-0.8s0.5-0.3,0.8-0.3c0.3,0,0.6,0.1,0.8,0.3c0.2,0.2,0.3,0.5,0.3,0.8
		s-0.1,0.6-0.3,0.8c-0.2,0.2-0.5,0.3-0.8,0.3s-0.6-0.1-0.8-0.3S348.7,195.1,348.7,194.8z M350.7,197.9v7.6h-1.8v-7.6H350.7z"/>
	<path class="st2" d="M354.7,199.6v6H353v-6h-0.8v-1.6h0.8v-2.8h1.8v2.8h1.4v1.6H354.7z"/>
	<path class="st2" d="M359.7,204.1l-3.4-6.2h2l2.3,4.4l2.2-4.4h2l-6.1,11.8h-2L359.7,204.1z"/>
	<path class="st2" d="M372.8,199.6v6H371v-6h-0.8v-1.6h0.8v-2.8h1.8v2.8h1.4v1.6H372.8z"/>
	<path class="st2" d="M375.1,201.7c0-1.1,0.4-2,1.2-2.8s1.7-1.2,2.9-1.2c1.1,0,2.1,0.4,2.9,1.2c0.8,0.8,1.2,1.7,1.2,2.9
		c0,1.1-0.4,2.1-1.2,2.9c-0.8,0.8-1.8,1.1-2.9,1.1c-1.1,0-2.1-0.4-2.9-1.2C375.5,203.8,375.1,202.9,375.1,201.7z M376.9,201.7
		c0,0.8,0.2,1.4,0.6,1.8c0.4,0.4,1,0.7,1.6,0.7c0.7,0,1.2-0.2,1.6-0.7s0.6-1,0.6-1.8s-0.2-1.3-0.6-1.8c-0.4-0.4-1-0.7-1.6-0.7
		c-0.7,0-1.2,0.2-1.6,0.7S376.9,201,376.9,201.7z"/>
	<path class="st2" d="M395.6,197.9h1.8v7.6h-1.8v-0.8c-0.7,0.7-1.5,1-2.3,1c-1.1,0-1.9-0.4-2.6-1.1c-0.7-0.8-1-1.7-1-2.9
		c0-1.1,0.3-2.1,1-2.9s1.5-1.1,2.6-1.1c0.9,0,1.7,0.4,2.4,1.1V197.9z M391.4,201.7c0,0.7,0.2,1.3,0.6,1.8c0.4,0.5,0.9,0.7,1.5,0.7
		c0.7,0,1.2-0.2,1.6-0.7c0.4-0.5,0.6-1.1,0.6-1.8s-0.2-1.3-0.6-1.8c-0.4-0.5-0.9-0.7-1.6-0.7c-0.6,0-1.1,0.2-1.5,0.7
		C391.6,200.5,391.4,201,391.4,201.7z"/>
	<path class="st2" d="M401.3,192.4v13.2h-1.8v-13.2H401.3z"/>
	<path class="st2" d="M405.4,199.6v6h-1.8v-6h-0.8v-1.6h0.8v-2.8h1.8v2.8h1.4v1.6H405.4z"/>
	<path class="st2" d="M415,202.2h-5.5c0,0.6,0.2,1.1,0.6,1.5c0.4,0.4,0.8,0.5,1.4,0.5c0.4,0,0.8-0.1,1.1-0.3c0.3-0.2,0.6-0.6,1-1.2
		l1.5,0.8c-0.2,0.4-0.5,0.7-0.7,1s-0.5,0.5-0.8,0.7s-0.6,0.3-0.9,0.4s-0.7,0.1-1.1,0.1c-1.1,0-2-0.4-2.7-1.1c-0.7-0.7-1-1.7-1-2.9
		c0-1.2,0.3-2.2,1-2.9c0.7-0.7,1.6-1.1,2.7-1.1c1.1,0,2,0.4,2.7,1.1c0.6,0.7,1,1.7,1,2.9L415,202.2z M413.2,200.7
		c-0.2-0.9-0.8-1.4-1.8-1.4c-0.2,0-0.4,0-0.6,0.1s-0.4,0.2-0.5,0.3s-0.3,0.3-0.4,0.4s-0.2,0.4-0.2,0.6H413.2z"/>
	<path class="st2" d="M416.9,197.9h1.8v0.7c0.3-0.3,0.6-0.6,0.9-0.7c0.3-0.1,0.6-0.2,0.9-0.2c0.5,0,0.9,0.2,1.5,0.5l-0.8,1.6
		c-0.3-0.2-0.7-0.4-1-0.4c-1,0-1.4,0.7-1.4,2.2v3.9h-1.8V197.9z"/>
</g>
<g class="st1">
	<path class="st2" d="M219.4,211.6v6.5c0.7-0.7,1.5-1.1,2.4-1.1c1,0,1.9,0.4,2.6,1.1c0.7,0.8,1,1.7,1,2.8c0,1.2-0.3,2.1-1,2.9
		c-0.7,0.8-1.5,1.1-2.6,1.1c-0.9,0-1.7-0.3-2.4-1v0.8h-1.8v-13.2H219.4z M223.5,221c0-0.7-0.2-1.3-0.6-1.8c-0.4-0.5-0.9-0.7-1.5-0.7
		c-0.6,0-1.2,0.2-1.6,0.7c-0.4,0.4-0.6,1-0.6,1.8c0,0.7,0.2,1.3,0.6,1.8c0.4,0.5,0.9,0.7,1.6,0.7c0.6,0,1.1-0.2,1.5-0.7
		C223.3,222.3,223.5,221.7,223.5,221z"/>
	<path class="st2" d="M227.2,217.1h1.8v0.7c0.3-0.3,0.6-0.6,0.9-0.7c0.3-0.1,0.6-0.2,0.9-0.2c0.5,0,0.9,0.2,1.5,0.5l-0.8,1.6
		c-0.3-0.2-0.7-0.4-1-0.4c-1,0-1.4,0.7-1.4,2.2v3.9h-1.8V217.1z"/>
	<path class="st2" d="M240,221.4h-5.5c0,0.6,0.2,1.1,0.6,1.5c0.4,0.4,0.8,0.5,1.4,0.5c0.4,0,0.8-0.1,1.1-0.3c0.3-0.2,0.6-0.6,1-1.2
		l1.5,0.8c-0.2,0.4-0.5,0.7-0.7,1s-0.5,0.5-0.8,0.7s-0.6,0.3-0.9,0.4s-0.7,0.1-1.1,0.1c-1.1,0-2-0.4-2.7-1.1c-0.7-0.7-1-1.7-1-2.9
		c0-1.2,0.3-2.2,1-2.9c0.7-0.7,1.6-1.1,2.7-1.1c1.1,0,2,0.4,2.7,1.1c0.6,0.7,1,1.7,1,2.9L240,221.4z M238.2,219.9
		c-0.2-0.9-0.8-1.4-1.8-1.4c-0.2,0-0.4,0-0.6,0.1s-0.4,0.2-0.5,0.3s-0.3,0.3-0.4,0.4s-0.2,0.4-0.2,0.6H238.2z"/>
	<path class="st2" d="M247.5,217.1h1.8v7.6h-1.8V224c-0.7,0.7-1.5,1-2.3,1c-1.1,0-1.9-0.4-2.6-1.1c-0.7-0.8-1-1.7-1-2.9
		c0-1.1,0.3-2.1,1-2.9s1.5-1.1,2.6-1.1c0.9,0,1.7,0.4,2.4,1.1V217.1z M243.4,220.9c0,0.7,0.2,1.3,0.6,1.8c0.4,0.5,0.9,0.7,1.5,0.7
		c0.7,0,1.2-0.2,1.6-0.7c0.4-0.5,0.6-1.1,0.6-1.8s-0.2-1.3-0.6-1.8c-0.4-0.5-0.9-0.7-1.6-0.7c-0.6,0-1.1,0.2-1.5,0.7
		C243.6,219.7,243.4,220.2,243.4,220.9z"/>
	<path class="st2" d="M253.3,218.8v6h-1.8v-6h-0.8v-1.6h0.8v-2.8h1.8v2.8h1.4v1.6H253.3z"/>
	<path class="st2" d="M256.2,211.6h1.8v6.2c0.6-0.6,1.3-0.8,2.1-0.8c0.9,0,1.5,0.3,2.1,0.8c0.4,0.5,0.7,1.3,0.7,2.3v4.7H261v-4.5
		c0-0.6-0.1-1.1-0.3-1.3s-0.6-0.4-1-0.4c-0.6,0-1,0.2-1.3,0.6c-0.2,0.4-0.4,1-0.4,2v3.7h-1.8V211.6z"/>
	<path class="st2" d="M264.7,214c0-0.3,0.1-0.6,0.3-0.8s0.5-0.3,0.8-0.3c0.3,0,0.6,0.1,0.8,0.3c0.2,0.2,0.3,0.5,0.3,0.8
		s-0.1,0.6-0.3,0.8c-0.2,0.2-0.5,0.3-0.8,0.3s-0.6-0.1-0.8-0.3S264.7,214.3,264.7,214z M266.7,217.1v7.6H265v-7.6H266.7z"/>
	<path class="st2" d="M269,217.1h1.8v0.7c0.6-0.6,1.3-0.9,2.1-0.9c0.9,0,1.6,0.3,2.1,0.8c0.4,0.5,0.6,1.2,0.6,2.3v4.7h-1.8v-4.2
		c0-0.8-0.1-1.3-0.3-1.6c-0.2-0.3-0.6-0.4-1.1-0.4c-0.6,0-1,0.2-1.2,0.6c-0.2,0.4-0.4,1-0.4,2v3.7H269V217.1z"/>
	<path class="st2" d="M285.1,224.6c0,0.4,0,0.7,0,0.9s-0.1,0.5-0.1,0.7c-0.1,0.6-0.4,1.1-0.7,1.5c-0.7,0.8-1.6,1.2-2.8,1.2
		c-1,0-1.9-0.3-2.5-0.8c-0.7-0.6-1.1-1.3-1.2-2.3h1.8c0.1,0.4,0.2,0.7,0.3,0.9c0.4,0.5,0.9,0.7,1.6,0.7c1.3,0,1.9-0.8,1.9-2.4v-1.1
		c-0.7,0.7-1.5,1.1-2.4,1.1c-1,0-1.9-0.4-2.5-1.1c-0.7-0.8-1-1.7-1-2.9c0-1.1,0.3-2.1,0.9-2.8c0.7-0.8,1.5-1.2,2.6-1.2
		c1,0,1.8,0.4,2.4,1.1v-0.9h1.8V224.6z M283.4,221c0-0.7-0.2-1.3-0.6-1.8c-0.4-0.5-0.9-0.7-1.5-0.7c-0.7,0-1.2,0.2-1.6,0.7
		c-0.3,0.4-0.5,1-0.5,1.7c0,0.7,0.2,1.3,0.5,1.7c0.4,0.5,0.9,0.7,1.6,0.7s1.2-0.2,1.6-0.7C283.2,222.2,283.4,221.7,283.4,221z"/>
	<path class="st2" d="M297.9,217.1h1.8v7.6h-1.8V224c-0.7,0.7-1.5,1-2.3,1c-1.1,0-1.9-0.4-2.6-1.1c-0.7-0.8-1-1.7-1-2.9
		c0-1.1,0.3-2.1,1-2.9s1.5-1.1,2.6-1.1c0.9,0,1.7,0.4,2.4,1.1V217.1z M293.7,220.9c0,0.7,0.2,1.3,0.6,1.8c0.4,0.5,0.9,0.7,1.5,0.7
		c0.7,0,1.2-0.2,1.6-0.7c0.4-0.5,0.6-1.1,0.6-1.8s-0.2-1.3-0.6-1.8c-0.4-0.5-0.9-0.7-1.6-0.7c-0.6,0-1.1,0.2-1.5,0.7
		C293.9,219.7,293.7,220.2,293.7,220.9z"/>
	<path class="st2" d="M301.8,217.1h1.8v0.7c0.6-0.6,1.3-0.9,2.1-0.9c0.9,0,1.6,0.3,2.1,0.8c0.4,0.5,0.6,1.2,0.6,2.3v4.7h-1.8v-4.2
		c0-0.8-0.1-1.3-0.3-1.6c-0.2-0.3-0.6-0.4-1.1-0.4c-0.6,0-1,0.2-1.2,0.6c-0.2,0.4-0.4,1-0.4,2v3.7h-1.8V217.1z"/>
	<path class="st2" d="M316.2,211.6h1.8v13.2h-1.8V224c-0.7,0.7-1.5,1-2.4,1c-1,0-1.9-0.4-2.6-1.1c-0.7-0.8-1-1.7-1-2.9
		c0-1.1,0.3-2.1,1-2.8c0.7-0.8,1.5-1.1,2.6-1.1c0.9,0,1.7,0.4,2.4,1.1V211.6z M312.1,220.9c0,0.7,0.2,1.3,0.6,1.8
		c0.4,0.5,0.9,0.7,1.5,0.7c0.7,0,1.2-0.2,1.6-0.7c0.4-0.5,0.6-1.1,0.6-1.8s-0.2-1.3-0.6-1.8c-0.4-0.5-0.9-0.7-1.6-0.7
		c-0.6,0-1.1,0.2-1.5,0.7C312.3,219.7,312.1,220.2,312.1,220.9z"/>
	<path class="st2" d="M325.2,211.6h1.8v6.2c0.6-0.6,1.3-0.8,2.1-0.8c0.9,0,1.5,0.3,2.1,0.8c0.4,0.5,0.7,1.3,0.7,2.3v4.7h-1.8v-4.5
		c0-0.6-0.1-1.1-0.3-1.3s-0.6-0.4-1-0.4c-0.6,0-1,0.2-1.3,0.6c-0.2,0.4-0.4,1-0.4,2v3.7h-1.8V211.6z"/>
	<path class="st2" d="M340.9,221.4h-5.5c0,0.6,0.2,1.1,0.6,1.5c0.4,0.4,0.8,0.5,1.4,0.5c0.4,0,0.8-0.1,1.1-0.3
		c0.3-0.2,0.6-0.6,1-1.2l1.5,0.8c-0.2,0.4-0.5,0.7-0.7,1s-0.5,0.5-0.8,0.7s-0.6,0.3-0.9,0.4s-0.7,0.1-1.1,0.1c-1.1,0-2-0.4-2.7-1.1
		c-0.7-0.7-1-1.7-1-2.9c0-1.2,0.3-2.2,1-2.9c0.7-0.7,1.6-1.1,2.7-1.1c1.1,0,2,0.4,2.7,1.1c0.6,0.7,1,1.7,1,2.9L340.9,221.4z
		 M339,219.9c-0.2-0.9-0.8-1.4-1.8-1.4c-0.2,0-0.4,0-0.6,0.1s-0.4,0.2-0.5,0.3s-0.3,0.3-0.4,0.4s-0.2,0.4-0.2,0.6H339z"/>
	<path class="st2" d="M348.4,217.1h1.8v7.6h-1.8V224c-0.7,0.7-1.5,1-2.3,1c-1.1,0-1.9-0.4-2.6-1.1c-0.7-0.8-1-1.7-1-2.9
		c0-1.1,0.3-2.1,1-2.9s1.5-1.1,2.6-1.1c0.9,0,1.7,0.4,2.4,1.1V217.1z M344.2,220.9c0,0.7,0.2,1.3,0.6,1.8c0.4,0.5,0.9,0.7,1.5,0.7
		c0.7,0,1.2-0.2,1.6-0.7c0.4-0.5,0.6-1.1,0.6-1.8s-0.2-1.3-0.6-1.8c-0.4-0.5-0.9-0.7-1.6-0.7c-0.6,0-1.1,0.2-1.5,0.7
		C344.4,219.7,344.2,220.2,344.2,220.9z"/>
	<path class="st2" d="M352.4,217.1h1.8v0.7c0.3-0.3,0.6-0.6,0.9-0.7c0.3-0.1,0.6-0.2,0.9-0.2c0.5,0,0.9,0.2,1.5,0.5l-0.8,1.6
		c-0.3-0.2-0.7-0.4-1-0.4c-1,0-1.4,0.7-1.4,2.2v3.9h-1.8V217.1z"/>
	<path class="st2" d="M360.7,218.8v6H359v-6h-0.8v-1.6h0.8v-2.8h1.8v2.8h1.4v1.6H360.7z"/>
	<path class="st2" d="M368.2,217.1h1.8v0.7c0.3-0.3,0.6-0.6,0.9-0.7c0.3-0.1,0.6-0.2,0.9-0.2c0.5,0,0.9,0.2,1.5,0.5l-0.8,1.6
		c-0.3-0.2-0.7-0.4-1-0.4c-1,0-1.4,0.7-1.4,2.2v3.9h-1.8V217.1z"/>
	<path class="st2" d="M379.7,217.1h1.8v7.6h-1.8V224c-0.7,0.7-1.5,1-2.3,1c-1.1,0-1.9-0.4-2.6-1.1c-0.7-0.8-1-1.7-1-2.9
		c0-1.1,0.3-2.1,1-2.9s1.5-1.1,2.6-1.1c0.9,0,1.7,0.4,2.4,1.1V217.1z M375.6,220.9c0,0.7,0.2,1.3,0.6,1.8c0.4,0.5,0.9,0.7,1.5,0.7
		c0.7,0,1.2-0.2,1.6-0.7c0.4-0.5,0.6-1.1,0.6-1.8s-0.2-1.3-0.6-1.8c-0.4-0.5-0.9-0.7-1.6-0.7c-0.6,0-1.1,0.2-1.5,0.7
		C375.8,219.7,375.6,220.2,375.6,220.9z"/>
	<path class="st2" d="M385.5,218.8v6h-1.8v-6H383v-1.6h0.8v-2.8h1.8v2.8h1.4v1.6H385.5z"/>
	<path class="st2" d="M395.2,221.4h-5.5c0,0.6,0.2,1.1,0.6,1.5c0.4,0.4,0.8,0.5,1.4,0.5c0.4,0,0.8-0.1,1.1-0.3
		c0.3-0.2,0.6-0.6,1-1.2l1.5,0.8c-0.2,0.4-0.5,0.7-0.7,1s-0.5,0.5-0.8,0.7s-0.6,0.3-0.9,0.4s-0.7,0.1-1.1,0.1c-1.1,0-2-0.4-2.7-1.1
		c-0.7-0.7-1-1.7-1-2.9c0-1.2,0.3-2.2,1-2.9c0.7-0.7,1.6-1.1,2.7-1.1c1.1,0,2,0.4,2.7,1.1c0.6,0.7,1,1.7,1,2.9L395.2,221.4z
		 M393.4,219.9c-0.2-0.9-0.8-1.4-1.8-1.4c-0.2,0-0.4,0-0.6,0.1s-0.4,0.2-0.5,0.3s-0.3,0.3-0.4,0.4s-0.2,0.4-0.2,0.6H393.4z"/>
	<path class="st2" d="M397.4,223.9c0-0.3,0.1-0.5,0.3-0.8s0.5-0.3,0.8-0.3s0.6,0.1,0.8,0.3s0.3,0.5,0.3,0.8c0,0.3-0.1,0.6-0.3,0.8
		c-0.2,0.2-0.5,0.3-0.8,0.3c-0.3,0-0.6-0.1-0.8-0.3S397.4,224.2,397.4,223.9z"/>
</g>
<g class="st3">
	<path class="st4" d="M201.5,214.3h-87.2l-40.6-74c-0.5-1-0.2-2.2,0.8-2.7s2.2-0.2,2.7,0.8l39.4,72h84.8c1.1,0,2,0.9,2,2
		C203.5,213.4,202.6,214.3,201.5,214.3z"/>
</g>
<path class="st0" d="M152.5,18l-1.2-0.2L34.7,0.9L28.5,0c-0.3,0-0.6,0-0.9,0C15,0,4.4,8.4,1,20c-0.3,1.5-0.6,3-0.9,4.5
	c0,0.5-0.1,1-0.1,1.6v3.3v80v2.3c0.6,13.5,11,24.5,24.2,26.1h6.9h95.4c0.1,0,0.2,0,0.3,0h6.9c0.1,0,0.2,0,0.3,0
	c10.5-1.4,19.2-8.7,22.5-18.5c0.4-1.1,0.7-2.2,0.9-3.3l16.4-61.2l1.3-4.9c0.3-1.5,0.4-3.1,0.4-4.7C175.5,31.6,165.5,20.2,152.5,18z"
	/>
<g>
	<g class="st1">
		<path class="st2" d="M52.1,52.2h-3.6v-3.4H59v3.4h-3.6v18.9h-3.4V52.2z"/>
		<path class="st2" d="M61.7,71.1V48.8h9.6v3.4h-6.2v6.1h4.5v3.4h-4.5v6.1h6.2v3.4H61.7z"/>
		<path class="st2" d="M76.9,71.1h-3.4V48.8h4.8l3.1,16l3-16h4.6v22.3h-3.4v-14l-2.9,14h-2.7l-3.2-14V71.1z"/>
		<path class="st2" d="M97.4,48.8c1.6,0,2.9,0.5,3.9,1.5c0.9,1,1.3,2.2,1.3,3.8v3.2c0,1.5-0.5,2.7-1.5,3.8c-1,1-2.3,1.6-3.7,1.6
			h-1.9v8.4h-3.4V48.8H97.4z M99.4,54.2c0-0.6-0.2-1-0.5-1.4c-0.3-0.4-0.8-0.5-1.4-0.5h-2v7.1h2c0.5,0,1-0.2,1.4-0.6
			c0.4-0.4,0.6-0.8,0.6-1.4V54.2z"/>
		<path class="st2" d="M110.3,48.6c1.5,0,2.7,0.5,3.8,1.6c1,1,1.6,2.3,1.6,3.8V66c0,1.5-0.5,2.7-1.6,3.8s-2.3,1.6-3.8,1.6
			c-1.5,0-2.7-0.5-3.8-1.6c-1-1-1.5-2.3-1.5-3.8V53.9c0-1.5,0.5-2.7,1.6-3.8C107.6,49.1,108.8,48.6,110.3,48.6z M112.1,53.8
			c0-0.5-0.2-1-0.6-1.4c-0.4-0.4-0.8-0.6-1.4-0.6c-0.5,0-1,0.2-1.4,0.6c-0.4,0.4-0.6,0.8-0.6,1.4V66c0,0.5,0.2,1,0.6,1.4
			c0.4,0.4,0.8,0.6,1.4,0.6c0.5,0,1-0.2,1.4-0.6c0.4-0.4,0.6-0.8,0.6-1.4V53.8z"/>
		<path class="st2" d="M123.9,48.8c1.9,0,3.2,0.5,4.1,1.5c0.8,0.9,1.2,2.2,1.2,3.8v3.2c0,1.6-0.6,2.9-1.8,4l2.5,9.7h-3.6l-2-8.4
			c-0.1,0-0.2,0-0.3,0h-1.9v8.4h-3.4V48.8H123.9z M125.9,54.2c0-1.3-0.6-1.9-1.9-1.9h-2v7.1h2c0.5,0,1-0.2,1.4-0.6
			c0.4-0.4,0.6-0.8,0.6-1.4V54.2z"/>
		<path class="st2" d="M136.8,66l-0.8,5.1h-3.5l3.8-22.2h4.6l3.7,22.2h-3.5l-0.8-5.1H136.8z M138.6,53.9l-1.2,8.8h2.5L138.6,53.9z"
			/>
		<path class="st2" d="M156.6,71.1h-9.1V48.8h3.4v18.9h5.8V71.1z"/>
	</g>
	<g class="st1">
		<path class="st2" d="M57.7,101.1h-9.1V78.8h3.4v18.9h5.8V101.1z"/>
		<path class="st2" d="M65.3,78.6c1.5,0,2.7,0.5,3.8,1.6c1,1,1.6,2.3,1.6,3.8V96c0,1.5-0.5,2.7-1.6,3.8s-2.3,1.6-3.8,1.6
			c-1.5,0-2.7-0.5-3.8-1.6c-1-1-1.5-2.3-1.5-3.8V83.9c0-1.5,0.5-2.7,1.6-3.8C62.6,79.1,63.8,78.6,65.3,78.6z M67.1,83.8
			c0-0.5-0.2-1-0.6-1.4c-0.4-0.4-0.8-0.6-1.4-0.6c-0.5,0-1,0.2-1.4,0.6c-0.4,0.4-0.6,0.8-0.6,1.4V96c0,0.5,0.2,1,0.6,1.4
			c0.4,0.4,0.8,0.6,1.4,0.6c0.5,0,1-0.2,1.4-0.6c0.4-0.4,0.6-0.8,0.6-1.4V83.8z"/>
		<path class="st2" d="M73.6,101.1V78.8h5c1.3,0,2.5,0.3,3.6,1c0.9,0.6,1.6,1.5,2,2.8c0.2,0.7,0.3,1.5,0.3,2.4
			c0,1.5-0.4,2.7-1.2,3.6c-0.3,0.4-0.7,0.7-1.2,0.9c0.7,0.3,1.4,0.8,1.9,1.7c0.3,0.6,0.6,1.3,0.8,2.2c0.1,0.5,0.1,1,0.1,1.5
			c0,1.4-0.3,2.6-0.8,3.6c-0.4,0.8-1,1.4-1.8,1.8c-0.9,0.5-1.7,0.8-2.5,0.8H73.6z M77.2,87.9h1.4c1,0,1.7-0.5,2.1-1.5
			c0.1-0.4,0.2-0.8,0.2-1.4c0-0.9-0.2-1.6-0.7-2.1c-0.4-0.4-1-0.7-1.6-0.7h-1.4V87.9z M77.2,97.8h1.4c1.1,0,1.9-0.6,2.4-1.8
			c0.2-0.4,0.2-0.9,0.2-1.4c0-1.2-0.2-2.1-0.7-2.7c-0.4-0.5-1.1-0.8-1.9-0.8h-1.4V97.8z"/>
		<path class="st2" d="M87.8,101.1V78.8h9.6v3.4h-6.2v6.1h4.5v3.4h-4.5v6.1h6.2v3.4H87.8z"/>
	</g>
</g>
</svg>
