<?xml version="1.0" encoding="utf-8"?>
<!-- Generator: Adobe Illustrator 19.2.0, SVG Export Plug-In . SVG Version: 6.00 Build 0)  -->
<svg version="1.1" id="Layer_1" xmlns="http://www.w3.org/2000/svg" xmlns:xlink="http://www.w3.org/1999/xlink" x="0px" y="0px"
	 viewBox="0 0 331.9 211.4" style="enable-background:new 0 0 331.9 211.4;" xml:space="preserve">
<style type="text/css">
	.st0{fill:#FFFFFF;}
	.st1{enable-background:new    ;}
	.st2{fill:#4C5256;}
	.st3{fill:#2980BA;}
	.st4{fill:none;}
</style>
<path class="st0" d="M331.9,177.9c0,18.5-15,33.5-33.5,33.5H33.6c-18.5,0-33.5-15-33.5-33.5V33.5C0.1,15,15.1,0,33.6,0h264.8
	c18.5,0,33.5,15,33.5,33.5V177.9z"/>
<g class="st1">
	<path class="st2" d="M33.3,30.4l-1.7,1c-0.3-0.5-0.6-0.9-0.9-1.1c-0.3-0.2-0.7-0.3-1.1-0.3c-0.6,0-1,0.2-1.4,0.5
		c-0.4,0.3-0.6,0.7-0.6,1.2c0,0.7,0.5,1.2,1.5,1.6l1.4,0.6c1.1,0.4,1.9,1,2.4,1.6c0.5,0.6,0.8,1.4,0.8,2.4c0,1.2-0.4,2.3-1.2,3.1
		c-0.8,0.8-1.9,1.2-3.1,1.2c-1.2,0-2.2-0.3-2.9-1c-0.8-0.7-1.2-1.7-1.4-2.9l2.1-0.5c0.1,0.8,0.3,1.3,0.5,1.7c0.4,0.6,1,0.9,1.8,0.9
		c0.6,0,1.2-0.2,1.6-0.6s0.6-1,0.6-1.6c0-0.3,0-0.5-0.1-0.7c-0.1-0.2-0.2-0.4-0.3-0.6c-0.2-0.2-0.4-0.4-0.6-0.5s-0.5-0.3-0.9-0.5
		l-1.3-0.5c-1.9-0.8-2.8-1.9-2.8-3.4c0-1,0.4-1.9,1.2-2.6c0.8-0.7,1.7-1,2.9-1C31.2,28.1,32.4,28.8,33.3,30.4z"/>
	<path class="st2" d="M38.1,35.2v6.7h-2v-6.7h-0.8v-1.8h0.8v-3.1h2v3.1h1.5v1.8H38.1z"/>
	<path class="st2" d="M43,33.3v4.9c0,1.4,0.6,2.1,1.7,2.1s1.7-0.7,1.7-2.1v-4.9h2v5c0,0.7-0.1,1.3-0.3,1.8c-0.2,0.4-0.4,0.8-0.9,1.2
		c-0.7,0.6-1.5,0.9-2.5,0.9c-1,0-1.9-0.3-2.5-0.9c-0.4-0.4-0.7-0.8-0.9-1.2c-0.2-0.4-0.2-1-0.2-1.8v-5H43z"/>
	<path class="st2" d="M57.1,27.1h2v14.8h-2V41c-0.8,0.8-1.7,1.1-2.6,1.1c-1.2,0-2.1-0.4-2.9-1.3c-0.8-0.9-1.2-2-1.2-3.3
		c0-1.3,0.4-2.3,1.2-3.2c0.8-0.9,1.7-1.3,2.9-1.3c1,0,1.9,0.4,2.7,1.2V27.1z M52.4,37.6c0,0.8,0.2,1.5,0.7,2c0.5,0.5,1,0.8,1.7,0.8
		c0.7,0,1.3-0.3,1.8-0.8c0.5-0.5,0.7-1.2,0.7-2s-0.2-1.5-0.7-2c-0.5-0.5-1-0.8-1.8-0.8c-0.7,0-1.2,0.3-1.7,0.8
		C52.6,36.2,52.4,36.8,52.4,37.6z"/>
	<path class="st2" d="M61.3,29.8c0-0.3,0.1-0.6,0.4-0.9s0.6-0.4,0.9-0.4c0.4,0,0.7,0.1,0.9,0.4c0.3,0.2,0.4,0.5,0.4,0.9
		s-0.1,0.7-0.4,0.9c-0.2,0.3-0.5,0.4-0.9,0.4s-0.7-0.1-0.9-0.4S61.3,30.1,61.3,29.8z M63.6,33.3v8.6h-2v-8.6H63.6z"/>
	<path class="st2" d="M73.9,38.1h-6.1c0.1,0.7,0.3,1.3,0.7,1.7c0.4,0.4,0.9,0.6,1.6,0.6c0.5,0,0.9-0.1,1.2-0.4
		c0.3-0.2,0.7-0.7,1.1-1.3l1.7,0.9c-0.3,0.4-0.5,0.8-0.8,1.1s-0.6,0.6-0.9,0.8c-0.3,0.2-0.7,0.3-1.1,0.4s-0.8,0.1-1.2,0.1
		c-1.3,0-2.3-0.4-3.1-1.2c-0.8-0.8-1.2-1.9-1.2-3.3c0-1.4,0.4-2.4,1.1-3.3c0.8-0.8,1.8-1.2,3-1.2c1.3,0,2.3,0.4,3,1.2
		c0.7,0.8,1.1,1.9,1.1,3.3L73.9,38.1z M71.8,36.5c-0.3-1.1-0.9-1.6-2-1.6c-0.2,0-0.5,0-0.7,0.1c-0.2,0.1-0.4,0.2-0.6,0.3
		c-0.2,0.1-0.3,0.3-0.4,0.5s-0.2,0.4-0.3,0.7H71.8z"/>
	<path class="st2" d="M81,34.8l-1.6,0.9c-0.3-0.5-0.6-0.8-1-0.8c-0.2,0-0.3,0.1-0.5,0.2s-0.2,0.3-0.2,0.5c0,0.3,0.4,0.7,1.1,1
		c1,0.5,1.8,0.9,2.1,1.2s0.5,0.9,0.5,1.5c0,0.8-0.3,1.5-0.9,2.1c-0.6,0.5-1.3,0.8-2.1,0.8c-1.4,0-2.5-0.7-3-2.1l1.7-0.8
		c0.2,0.4,0.4,0.7,0.5,0.8c0.2,0.2,0.5,0.3,0.9,0.3c0.7,0,1-0.3,1-0.9c0-0.4-0.3-0.7-0.8-1c-0.2-0.1-0.4-0.2-0.6-0.3
		s-0.4-0.2-0.6-0.3c-0.6-0.3-1-0.6-1.2-0.8c-0.3-0.4-0.4-0.8-0.4-1.4c0-0.7,0.3-1.4,0.8-1.8c0.5-0.5,1.2-0.7,1.9-0.7
		C79.7,33.1,80.5,33.7,81,34.8z"/>
	<path class="st2" d="M88.9,27.1h2v7c0.7-0.6,1.5-0.9,2.3-0.9c1,0,1.7,0.3,2.3,0.9c0.5,0.5,0.7,1.4,0.7,2.6v5.2h-2v-5.1
		c0-0.7-0.1-1.2-0.4-1.5c-0.2-0.3-0.6-0.5-1.2-0.5c-0.7,0-1.2,0.2-1.5,0.6c-0.3,0.4-0.4,1.2-0.4,2.2v4.1h-2V27.1z"/>
	<path class="st2" d="M105.1,33.3h2v8.6h-2V41c-0.8,0.8-1.7,1.1-2.6,1.1c-1.2,0-2.2-0.4-2.9-1.3c-0.8-0.9-1.2-2-1.2-3.3
		c0-1.3,0.4-2.4,1.2-3.2s1.7-1.3,2.9-1.3c1,0,1.9,0.4,2.7,1.2V33.3z M100.4,37.6c0,0.8,0.2,1.5,0.7,2c0.5,0.5,1,0.8,1.7,0.8
		c0.7,0,1.3-0.3,1.8-0.8c0.5-0.5,0.7-1.2,0.7-2s-0.2-1.5-0.7-2c-0.5-0.5-1-0.8-1.8-0.8c-0.7,0-1.2,0.3-1.7,0.8
		C100.6,36.2,100.4,36.8,100.4,37.6z"/>
	<path class="st2" d="M110.8,33.3l2.2,4.8l2.2-4.8h2.2l-4.4,9.1l-4.4-9.1H110.8z"/>
	<path class="st2" d="M126.2,38.1h-6.1c0.1,0.7,0.3,1.3,0.7,1.7c0.4,0.4,0.9,0.6,1.6,0.6c0.5,0,0.9-0.1,1.2-0.4
		c0.3-0.2,0.7-0.7,1.1-1.3l1.7,0.9c-0.3,0.4-0.5,0.8-0.8,1.1s-0.6,0.6-0.9,0.8c-0.3,0.2-0.7,0.3-1.1,0.4s-0.8,0.1-1.2,0.1
		c-1.3,0-2.3-0.4-3.1-1.2c-0.8-0.8-1.2-1.9-1.2-3.3c0-1.4,0.4-2.4,1.1-3.3c0.8-0.8,1.8-1.2,3-1.2c1.3,0,2.3,0.4,3,1.2
		c0.7,0.8,1.1,1.9,1.1,3.3L126.2,38.1z M124.2,36.5c-0.3-1.1-0.9-1.6-2-1.6c-0.2,0-0.5,0-0.7,0.1c-0.2,0.1-0.4,0.2-0.6,0.3
		c-0.2,0.1-0.3,0.3-0.4,0.5s-0.2,0.4-0.3,0.7H124.2z"/>
	<path class="st2" d="M134,33.3h2v0.8c0.4-0.4,0.7-0.6,1-0.8c0.3-0.1,0.6-0.2,1-0.2c0.5,0,1.1,0.2,1.6,0.5l-0.9,1.8
		c-0.4-0.3-0.7-0.4-1.1-0.4c-1.1,0-1.6,0.8-1.6,2.4v4.4h-2V33.3z"/>
	<path class="st2" d="M148.4,38.1h-6.1c0.1,0.7,0.3,1.3,0.7,1.7c0.4,0.4,0.9,0.6,1.6,0.6c0.5,0,0.9-0.1,1.2-0.4
		c0.3-0.2,0.7-0.7,1.1-1.3l1.7,0.9c-0.3,0.4-0.5,0.8-0.8,1.1s-0.6,0.6-0.9,0.8c-0.3,0.2-0.7,0.3-1.1,0.4s-0.8,0.1-1.2,0.1
		c-1.3,0-2.3-0.4-3.1-1.2c-0.8-0.8-1.2-1.9-1.2-3.3c0-1.4,0.4-2.4,1.1-3.3c0.8-0.8,1.8-1.2,3-1.2c1.3,0,2.3,0.4,3,1.2
		c0.7,0.8,1.1,1.9,1.1,3.3L148.4,38.1z M146.3,36.5c-0.3-1.1-0.9-1.6-2-1.6c-0.2,0-0.5,0-0.7,0.1c-0.2,0.1-0.4,0.2-0.6,0.3
		c-0.2,0.1-0.3,0.3-0.4,0.5s-0.2,0.4-0.3,0.7H146.3z"/>
	<path class="st2" d="M157.2,33.7v2.6c-0.5-0.6-0.9-0.9-1.2-1.1c-0.4-0.2-0.8-0.3-1.2-0.3c-0.7,0-1.4,0.3-1.9,0.8s-0.7,1.2-0.7,2
		c0,0.8,0.2,1.5,0.7,2c0.5,0.5,1.1,0.8,1.8,0.8c0.5,0,0.9-0.1,1.3-0.3c0.4-0.2,0.8-0.6,1.2-1.2v2.6c-0.8,0.4-1.6,0.6-2.4,0.6
		c-1.3,0-2.4-0.4-3.3-1.3c-0.9-0.9-1.3-1.9-1.3-3.2s0.5-2.4,1.4-3.2s2-1.3,3.3-1.3C155.6,33.1,156.4,33.3,157.2,33.7z"/>
	<path class="st2" d="M166.9,38.1h-6.1c0.1,0.7,0.3,1.3,0.7,1.7c0.4,0.4,0.9,0.6,1.6,0.6c0.5,0,0.9-0.1,1.2-0.4
		c0.3-0.2,0.7-0.7,1.1-1.3l1.7,0.9c-0.3,0.4-0.5,0.8-0.8,1.1s-0.6,0.6-0.9,0.8c-0.3,0.2-0.7,0.3-1.1,0.4s-0.8,0.1-1.2,0.1
		c-1.3,0-2.3-0.4-3.1-1.2c-0.8-0.8-1.2-1.9-1.2-3.3c0-1.4,0.4-2.4,1.1-3.3c0.8-0.8,1.8-1.2,3-1.2c1.3,0,2.3,0.4,3,1.2
		c0.7,0.8,1.1,1.9,1.1,3.3L166.9,38.1z M164.9,36.5c-0.3-1.1-0.9-1.6-2-1.6c-0.2,0-0.5,0-0.7,0.1c-0.2,0.1-0.4,0.2-0.6,0.3
		c-0.2,0.1-0.3,0.3-0.4,0.5s-0.2,0.4-0.3,0.7H164.9z"/>
	<path class="st2" d="M169.1,33.3h2v0.8c0.7-0.7,1.5-1,2.3-1c1,0,1.8,0.3,2.3,0.9c0.5,0.5,0.7,1.4,0.7,2.6v5.2h-2v-4.8
		c0-0.8-0.1-1.4-0.4-1.7c-0.2-0.3-0.6-0.5-1.2-0.5c-0.7,0-1.1,0.2-1.4,0.7c-0.3,0.4-0.4,1.2-0.4,2.2v4.1h-2V33.3z"/>
	<path class="st2" d="M181,35.2v6.7h-2v-6.7h-0.8v-1.8h0.8v-3.1h2v3.1h1.5v1.8H181z"/>
	<path class="st2" d="M185.8,27.1v14.8h-2V27.1H185.8z"/>
	<path class="st2" d="M191.2,40.3l-3.8-7h2.3l2.6,4.9l2.4-4.9h2.2l-6.8,13.2h-2.3L191.2,40.3z"/>
	<path class="st2" d="M208.8,34.8l-1.6,0.9c-0.3-0.5-0.6-0.8-1-0.8c-0.2,0-0.3,0.1-0.5,0.2s-0.2,0.3-0.2,0.5c0,0.3,0.4,0.7,1.1,1
		c1,0.5,1.8,0.9,2.1,1.2s0.5,0.9,0.5,1.5c0,0.8-0.3,1.5-0.9,2.1c-0.6,0.5-1.3,0.8-2.1,0.8c-1.4,0-2.5-0.7-3-2.1l1.7-0.8
		c0.2,0.4,0.4,0.7,0.5,0.8c0.2,0.2,0.5,0.3,0.9,0.3c0.7,0,1-0.3,1-0.9c0-0.4-0.3-0.7-0.8-1c-0.2-0.1-0.4-0.2-0.6-0.3
		s-0.4-0.2-0.6-0.3c-0.6-0.3-1-0.6-1.2-0.8c-0.3-0.4-0.4-0.8-0.4-1.4c0-0.7,0.3-1.4,0.8-1.8c0.5-0.5,1.2-0.7,1.9-0.7
		C207.5,33.1,208.3,33.7,208.8,34.8z"/>
	<path class="st2" d="M211.1,27.1h2v7c0.7-0.6,1.5-0.9,2.3-0.9c1,0,1.7,0.3,2.3,0.9c0.5,0.5,0.7,1.4,0.7,2.6v5.2h-2v-5.1
		c0-0.7-0.1-1.2-0.4-1.5c-0.2-0.3-0.6-0.5-1.2-0.5c-0.7,0-1.2,0.2-1.5,0.6c-0.3,0.4-0.4,1.2-0.4,2.2v4.1h-2V27.1z"/>
	<path class="st2" d="M220.6,37.6c0-1.2,0.4-2.3,1.3-3.2s2-1.3,3.2-1.3c1.3,0,2.4,0.4,3.3,1.3c0.9,0.9,1.3,1.9,1.3,3.2
		c0,1.3-0.4,2.4-1.3,3.2c-0.9,0.9-2,1.3-3.3,1.3c-1.3,0-2.4-0.4-3.2-1.3C221,40,220.6,38.9,220.6,37.6z M222.6,37.6
		c0,0.9,0.2,1.5,0.7,2c0.5,0.5,1.1,0.8,1.9,0.8c0.8,0,1.4-0.2,1.9-0.7s0.7-1.2,0.7-2s-0.2-1.5-0.7-2c-0.5-0.5-1.1-0.8-1.9-0.8
		c-0.8,0-1.4,0.3-1.8,0.8S222.6,36.8,222.6,37.6z"/>
	<path class="st2" d="M232.6,33.3l2.2,4.9l2.4-5.7l2.4,5.7l2.2-4.9h2.2l-4.5,9.2l-2.4-5.5l-2.4,5.5l-4.5-9.2H232.6z"/>
	<path class="st2" d="M245.4,33.3h2v0.8c0.7-0.7,1.5-1,2.3-1c1,0,1.8,0.3,2.3,0.9c0.5,0.5,0.7,1.4,0.7,2.6v5.2h-2v-4.8
		c0-0.8-0.1-1.4-0.4-1.7c-0.2-0.3-0.6-0.5-1.2-0.5c-0.7,0-1.1,0.2-1.4,0.7c-0.3,0.4-0.4,1.2-0.4,2.2v4.1h-2V33.3z"/>
	<path class="st2" d="M262.9,35.2v6.7h-2v-6.7h-0.8v-1.8h0.8v-3.1h2v3.1h1.5v1.8H262.9z"/>
	<path class="st2" d="M266.1,27.1h2v7c0.7-0.6,1.5-0.9,2.3-0.9c1,0,1.7,0.3,2.3,0.9c0.5,0.5,0.7,1.4,0.7,2.6v5.2h-2v-5.1
		c0-0.7-0.1-1.2-0.4-1.5c-0.2-0.3-0.6-0.5-1.2-0.5c-0.7,0-1.2,0.2-1.5,0.6c-0.3,0.4-0.4,1.2-0.4,2.2v4.1h-2V27.1z"/>
	<path class="st2" d="M282.3,33.3h2v8.6h-2V41c-0.8,0.8-1.7,1.1-2.6,1.1c-1.2,0-2.2-0.4-2.9-1.3c-0.8-0.9-1.2-2-1.2-3.3
		c0-1.3,0.4-2.4,1.2-3.2s1.7-1.3,2.9-1.3c1,0,1.9,0.4,2.7,1.2V33.3z M277.6,37.6c0,0.8,0.2,1.5,0.7,2c0.5,0.5,1,0.8,1.7,0.8
		c0.7,0,1.3-0.3,1.8-0.8c0.5-0.5,0.7-1.2,0.7-2s-0.2-1.5-0.7-2c-0.5-0.5-1-0.8-1.8-0.8c-0.7,0-1.2,0.3-1.7,0.8
		C277.8,36.2,277.6,36.8,277.6,37.6z"/>
	<path class="st2" d="M288.8,35.2v6.7h-2v-6.7H286v-1.8h0.8v-3.1h2v3.1h1.5v1.8H288.8z"/>
	<path class="st2" d="M297,29.8c0-0.3,0.1-0.6,0.4-0.9s0.6-0.4,0.9-0.4c0.4,0,0.7,0.1,0.9,0.4c0.3,0.2,0.4,0.5,0.4,0.9
		s-0.1,0.7-0.4,0.9c-0.2,0.3-0.5,0.4-0.9,0.4s-0.7-0.1-0.9-0.4S297,30.1,297,29.8z M299.2,33.3v8.6h-2v-8.6H299.2z"/>
	<path class="st2" d="M303.8,35.2v6.7h-2v-6.7h-0.7v-1.8h0.7V30c0-1.1,0.2-1.8,0.6-2.3c0.5-0.6,1.3-0.9,2.2-0.9
		c0.4,0,0.8,0.1,1.3,0.3v2l-0.2-0.1c-0.4-0.2-0.8-0.3-1.1-0.3c-0.4,0-0.6,0.1-0.7,0.4c-0.1,0.2-0.2,0.7-0.2,1.4v2.8h2.2v1.8H303.8z"
		/>
</g>
<g class="st1">
	<path class="st2" d="M28,68.5l-3.8-7h2.3l2.6,4.9l2.4-4.9h2.2l-6.8,13.2h-2.3L28,68.5z"/>
	<path class="st2" d="M34.3,65.8c0-1.2,0.4-2.3,1.3-3.2s2-1.3,3.2-1.3c1.3,0,2.4,0.4,3.3,1.3c0.9,0.9,1.3,1.9,1.3,3.2
		c0,1.3-0.4,2.4-1.3,3.2c-0.9,0.9-2,1.3-3.3,1.3c-1.3,0-2.4-0.4-3.2-1.3C34.7,68.2,34.3,67.1,34.3,65.8z M36.3,65.8
		c0,0.9,0.2,1.5,0.7,2c0.5,0.5,1.1,0.8,1.9,0.8c0.8,0,1.4-0.2,1.9-0.7s0.7-1.2,0.7-2s-0.2-1.5-0.7-2c-0.5-0.5-1.1-0.8-1.9-0.8
		c-0.8,0-1.4,0.3-1.8,0.8S36.3,65,36.3,65.8z"/>
	<path class="st2" d="M47.5,61.5v4.9c0,1.4,0.6,2.1,1.7,2.1s1.7-0.7,1.7-2.1v-4.9h2v5c0,0.7-0.1,1.3-0.3,1.8
		c-0.2,0.4-0.4,0.8-0.9,1.2c-0.7,0.6-1.5,0.9-2.5,0.9c-1,0-1.9-0.3-2.5-0.9c-0.4-0.4-0.7-0.8-0.9-1.2c-0.2-0.4-0.2-1-0.2-1.8v-5
		H47.5z"/>
	<path class="st2" d="M67.2,61.5h2v8.6h-2v-0.9c-0.8,0.8-1.7,1.1-2.6,1.1c-1.2,0-2.2-0.4-2.9-1.3c-0.8-0.9-1.2-2-1.2-3.3
		c0-1.3,0.4-2.4,1.2-3.2s1.7-1.3,2.9-1.3c1,0,1.9,0.4,2.7,1.2V61.5z M62.5,65.8c0,0.8,0.2,1.5,0.7,2c0.5,0.5,1,0.8,1.7,0.8
		c0.7,0,1.3-0.3,1.8-0.8c0.5-0.5,0.7-1.2,0.7-2s-0.2-1.5-0.7-2c-0.5-0.5-1-0.8-1.8-0.8c-0.7,0-1.2,0.3-1.7,0.8
		C62.7,64.4,62.5,65,62.5,65.8z"/>
	<path class="st2" d="M71.7,61.5h2v0.8c0.4-0.4,0.7-0.6,1-0.8c0.3-0.1,0.6-0.2,1-0.2c0.5,0,1.1,0.2,1.6,0.5l-0.9,1.8
		c-0.4-0.3-0.7-0.4-1.1-0.4c-1.1,0-1.6,0.8-1.6,2.4v4.4h-2V61.5z"/>
	<path class="st2" d="M86.1,66.3H80c0.1,0.7,0.3,1.3,0.7,1.7c0.4,0.4,0.9,0.6,1.6,0.6c0.5,0,0.9-0.1,1.2-0.4
		c0.3-0.2,0.7-0.7,1.1-1.3l1.7,0.9c-0.3,0.4-0.5,0.8-0.8,1.1s-0.6,0.6-0.9,0.8c-0.3,0.2-0.7,0.3-1.1,0.4s-0.8,0.1-1.2,0.1
		c-1.3,0-2.3-0.4-3.1-1.2c-0.8-0.8-1.2-1.9-1.2-3.3c0-1.4,0.4-2.4,1.1-3.3c0.8-0.8,1.8-1.2,3-1.2c1.3,0,2.3,0.4,3,1.2
		c0.7,0.8,1.1,1.9,1.1,3.3L86.1,66.3z M84.1,64.7c-0.3-1.1-0.9-1.6-2-1.6c-0.2,0-0.5,0-0.7,0.1c-0.2,0.1-0.4,0.2-0.6,0.3
		c-0.2,0.1-0.3,0.3-0.4,0.5s-0.2,0.4-0.3,0.7H84.1z"/>
	<path class="st2" d="M95.9,63.4v6.7h-2v-6.7h-0.7v-1.8h0.7v-3.3c0-1.1,0.2-1.8,0.6-2.3c0.5-0.6,1.3-0.9,2.2-0.9
		c0.4,0,0.8,0.1,1.3,0.3v2l-0.2-0.1c-0.4-0.2-0.8-0.3-1.1-0.3c-0.4,0-0.6,0.1-0.7,0.4c-0.1,0.2-0.2,0.7-0.2,1.4v2.8H98v1.8H95.9z"/>
	<path class="st2" d="M107.2,66.3h-6.1c0.1,0.7,0.3,1.3,0.7,1.7c0.4,0.4,0.9,0.6,1.6,0.6c0.5,0,0.9-0.1,1.2-0.4
		c0.3-0.2,0.7-0.7,1.1-1.3l1.7,0.9c-0.3,0.4-0.5,0.8-0.8,1.1s-0.6,0.6-0.9,0.8c-0.3,0.2-0.7,0.3-1.1,0.4s-0.8,0.1-1.2,0.1
		c-1.3,0-2.3-0.4-3.1-1.2c-0.8-0.8-1.2-1.9-1.2-3.3c0-1.4,0.4-2.4,1.1-3.3c0.8-0.8,1.8-1.2,3-1.2c1.3,0,2.3,0.4,3,1.2
		c0.7,0.8,1.1,1.9,1.1,3.3L107.2,66.3z M105.2,64.7c-0.3-1.1-0.9-1.6-2-1.6c-0.2,0-0.5,0-0.7,0.1c-0.2,0.1-0.4,0.2-0.6,0.3
		c-0.2,0.1-0.3,0.3-0.4,0.5s-0.2,0.4-0.3,0.7H105.2z"/>
	<path class="st2" d="M117.2,66.3H111c0.1,0.7,0.3,1.3,0.7,1.7c0.4,0.4,0.9,0.6,1.6,0.6c0.5,0,0.9-0.1,1.2-0.4
		c0.3-0.2,0.7-0.7,1.1-1.3l1.7,0.9c-0.3,0.4-0.5,0.8-0.8,1.1s-0.6,0.6-0.9,0.8c-0.3,0.2-0.7,0.3-1.1,0.4s-0.8,0.1-1.2,0.1
		c-1.3,0-2.3-0.4-3.1-1.2c-0.8-0.8-1.2-1.9-1.2-3.3c0-1.4,0.4-2.4,1.1-3.3c0.8-0.8,1.8-1.2,3-1.2c1.3,0,2.3,0.4,3,1.2
		c0.7,0.8,1.1,1.9,1.1,3.3L117.2,66.3z M115.1,64.7c-0.3-1.1-0.9-1.6-2-1.6c-0.2,0-0.5,0-0.7,0.1c-0.2,0.1-0.4,0.2-0.6,0.3
		c-0.2,0.1-0.3,0.3-0.4,0.5s-0.2,0.4-0.3,0.7H115.1z"/>
	<path class="st2" d="M121.3,55.3v14.8h-2V55.3H121.3z"/>
	<path class="st2" d="M123.5,58c0-0.3,0.1-0.6,0.4-0.9s0.6-0.4,0.9-0.4c0.4,0,0.7,0.1,0.9,0.4c0.3,0.2,0.4,0.5,0.4,0.9
		s-0.1,0.7-0.4,0.9c-0.2,0.3-0.5,0.4-0.9,0.4s-0.7-0.1-0.9-0.4S123.5,58.3,123.5,58z M125.8,61.5v8.6h-2v-8.6H125.8z"/>
	<path class="st2" d="M128.3,61.5h2v0.8c0.7-0.7,1.5-1,2.3-1c1,0,1.8,0.3,2.3,0.9c0.5,0.5,0.7,1.4,0.7,2.6v5.2h-2v-4.8
		c0-0.8-0.1-1.4-0.4-1.7c-0.2-0.3-0.6-0.5-1.2-0.5c-0.7,0-1.1,0.2-1.4,0.7c-0.3,0.4-0.4,1.2-0.4,2.2v4.1h-2V61.5z"/>
	<path class="st2" d="M146.5,69.9c0,0.4,0,0.8,0,1.1c0,0.3-0.1,0.6-0.1,0.8c-0.1,0.6-0.4,1.2-0.8,1.7c-0.8,0.9-1.8,1.3-3.2,1.3
		c-1.1,0-2.1-0.3-2.8-0.9c-0.8-0.6-1.2-1.5-1.3-2.6h2c0.1,0.4,0.2,0.7,0.4,1c0.4,0.5,1,0.8,1.8,0.8c1.4,0,2.2-0.9,2.2-2.7v-1.2
		c-0.8,0.8-1.7,1.2-2.7,1.2c-1.2,0-2.1-0.4-2.9-1.3c-0.8-0.9-1.1-1.9-1.1-3.2c0-1.2,0.3-2.3,1-3.2c0.8-0.9,1.7-1.4,3-1.4
		c1.1,0,2,0.4,2.7,1.2v-1h2V69.9z M144.6,65.8c0-0.8-0.2-1.5-0.7-2c-0.5-0.5-1-0.8-1.7-0.8c-0.8,0-1.3,0.3-1.8,0.8
		c-0.4,0.5-0.6,1.1-0.6,1.9c0,0.8,0.2,1.4,0.6,1.9c0.4,0.5,1,0.8,1.8,0.8s1.4-0.3,1.8-0.8C144.4,67.3,144.6,66.6,144.6,65.8z"/>
	<path class="st2" d="M159.5,63l-1.6,0.9c-0.3-0.5-0.6-0.8-1-0.8c-0.2,0-0.3,0.1-0.5,0.2s-0.2,0.3-0.2,0.5c0,0.3,0.4,0.7,1.1,1
		c1,0.5,1.8,0.9,2.1,1.2s0.5,0.9,0.5,1.5c0,0.8-0.3,1.5-0.9,2.1c-0.6,0.5-1.3,0.8-2.1,0.8c-1.4,0-2.5-0.7-3-2.1l1.7-0.8
		c0.2,0.4,0.4,0.7,0.5,0.8c0.2,0.2,0.5,0.3,0.9,0.3c0.7,0,1-0.3,1-0.9c0-0.4-0.3-0.7-0.8-1c-0.2-0.1-0.4-0.2-0.6-0.3
		s-0.4-0.2-0.6-0.3c-0.6-0.3-1-0.6-1.2-0.8c-0.3-0.4-0.4-0.8-0.4-1.4c0-0.7,0.3-1.4,0.8-1.8c0.5-0.5,1.2-0.7,1.9-0.7
		C158.1,61.3,158.9,61.9,159.5,63z"/>
	<path class="st2" d="M168.1,61.5h2v8.6h-2v-0.9c-0.8,0.8-1.7,1.1-2.6,1.1c-1.2,0-2.2-0.4-2.9-1.3c-0.8-0.9-1.2-2-1.2-3.3
		c0-1.3,0.4-2.4,1.2-3.2s1.7-1.3,2.9-1.3c1,0,1.9,0.4,2.7,1.2V61.5z M163.4,65.8c0,0.8,0.2,1.5,0.7,2c0.5,0.5,1,0.8,1.7,0.8
		c0.7,0,1.3-0.3,1.8-0.8c0.5-0.5,0.7-1.2,0.7-2s-0.2-1.5-0.7-2c-0.5-0.5-1-0.8-1.8-0.8c-0.7,0-1.2,0.3-1.7,0.8
		C163.7,64.4,163.4,65,163.4,65.8z"/>
	<path class="st2" d="M178.9,55.3h2v14.8h-2v-0.9c-0.8,0.8-1.7,1.1-2.6,1.1c-1.2,0-2.1-0.4-2.9-1.3c-0.8-0.9-1.2-2-1.2-3.3
		c0-1.3,0.4-2.3,1.2-3.2c0.8-0.9,1.7-1.3,2.9-1.3c1,0,1.9,0.4,2.7,1.2V55.3z M174.2,65.8c0,0.8,0.2,1.5,0.7,2c0.5,0.5,1,0.8,1.7,0.8
		c0.7,0,1.3-0.3,1.8-0.8c0.5-0.5,0.7-1.2,0.7-2s-0.2-1.5-0.7-2c-0.5-0.5-1-0.8-1.8-0.8c-0.7,0-1.2,0.3-1.7,0.8
		C174.4,64.4,174.2,65,174.2,65.8z"/>
	<path class="st2" d="M184.6,67.6l1.8,0.7l-2.5,5l-1.3-0.6L184.6,67.6z"/>
	<path class="st2" d="M196.5,55.3v14.8h-2V55.3H196.5z"/>
	<path class="st2" d="M198.7,58c0-0.3,0.1-0.6,0.4-0.9s0.6-0.4,0.9-0.4c0.4,0,0.7,0.1,0.9,0.4c0.3,0.2,0.4,0.5,0.4,0.9
		s-0.1,0.7-0.4,0.9c-0.2,0.3-0.5,0.4-0.9,0.4s-0.7-0.1-0.9-0.4S198.7,58.3,198.7,58z M201,61.5v8.6h-2v-8.6H201z"/>
	<path class="st2" d="M208.4,63l-1.6,0.9c-0.3-0.5-0.6-0.8-1-0.8c-0.2,0-0.3,0.1-0.5,0.2s-0.2,0.3-0.2,0.5c0,0.3,0.4,0.7,1.1,1
		c1,0.5,1.8,0.9,2.1,1.2s0.5,0.9,0.5,1.5c0,0.8-0.3,1.5-0.9,2.1c-0.6,0.5-1.3,0.8-2.1,0.8c-1.4,0-2.5-0.7-3-2.1l1.7-0.8
		c0.2,0.4,0.4,0.7,0.5,0.8c0.2,0.2,0.5,0.3,0.9,0.3c0.7,0,1-0.3,1-0.9c0-0.4-0.3-0.7-0.8-1c-0.2-0.1-0.4-0.2-0.6-0.3
		s-0.4-0.2-0.6-0.3c-0.6-0.3-1-0.6-1.2-0.8c-0.3-0.4-0.4-0.8-0.4-1.4c0-0.7,0.3-1.4,0.8-1.8c0.5-0.5,1.2-0.7,1.9-0.7
		C207.1,61.3,207.9,61.9,208.4,63z"/>
	<path class="st2" d="M212.8,63.4v6.7h-2v-6.7H210v-1.8h0.8v-3.1h2v3.1h1.5v1.8H212.8z"/>
	<path class="st2" d="M223.6,66.3h-6.1c0.1,0.7,0.3,1.3,0.7,1.7c0.4,0.4,0.9,0.6,1.6,0.6c0.5,0,0.9-0.1,1.2-0.4
		c0.3-0.2,0.7-0.7,1.1-1.3l1.7,0.9c-0.3,0.4-0.5,0.8-0.8,1.1s-0.6,0.6-0.9,0.8c-0.3,0.2-0.7,0.3-1.1,0.4s-0.8,0.1-1.2,0.1
		c-1.3,0-2.3-0.4-3.1-1.2c-0.8-0.8-1.2-1.9-1.2-3.3c0-1.4,0.4-2.4,1.1-3.3c0.8-0.8,1.8-1.2,3-1.2c1.3,0,2.3,0.4,3,1.2
		c0.7,0.8,1.1,1.9,1.1,3.3L223.6,66.3z M221.6,64.7c-0.3-1.1-0.9-1.6-2-1.6c-0.2,0-0.5,0-0.7,0.1c-0.2,0.1-0.4,0.2-0.6,0.3
		c-0.2,0.1-0.3,0.3-0.4,0.5s-0.2,0.4-0.3,0.7H221.6z"/>
	<path class="st2" d="M225.8,61.5h2v0.8c0.7-0.7,1.5-1,2.3-1c1,0,1.8,0.3,2.3,0.9c0.5,0.5,0.7,1.4,0.7,2.6v5.2h-2v-4.8
		c0-0.8-0.1-1.4-0.4-1.7c-0.2-0.3-0.6-0.5-1.2-0.5c-0.7,0-1.1,0.2-1.4,0.7c-0.3,0.4-0.4,1.2-0.4,2.2v4.1h-2V61.5z"/>
	<path class="st2" d="M235.4,58c0-0.3,0.1-0.6,0.4-0.9s0.6-0.4,0.9-0.4c0.4,0,0.7,0.1,0.9,0.4c0.3,0.2,0.4,0.5,0.4,0.9
		s-0.1,0.7-0.4,0.9c-0.2,0.3-0.5,0.4-0.9,0.4s-0.7-0.1-0.9-0.4S235.4,58.3,235.4,58z M237.7,61.5v8.6h-2v-8.6H237.7z"/>
	<path class="st2" d="M240.2,61.5h2v0.8c0.7-0.7,1.5-1,2.3-1c1,0,1.8,0.3,2.3,0.9c0.5,0.5,0.7,1.4,0.7,2.6v5.2h-2v-4.8
		c0-0.8-0.1-1.4-0.4-1.7c-0.2-0.3-0.6-0.5-1.2-0.5c-0.7,0-1.1,0.2-1.4,0.7c-0.3,0.4-0.4,1.2-0.4,2.2v4.1h-2V61.5z"/>
	<path class="st2" d="M258.3,69.9c0,0.4,0,0.8,0,1.1c0,0.3-0.1,0.6-0.1,0.8c-0.1,0.6-0.4,1.2-0.8,1.7c-0.8,0.9-1.8,1.3-3.2,1.3
		c-1.1,0-2.1-0.3-2.8-0.9c-0.8-0.6-1.2-1.5-1.3-2.6h2c0.1,0.4,0.2,0.7,0.4,1c0.4,0.5,1,0.8,1.8,0.8c1.4,0,2.2-0.9,2.2-2.7v-1.2
		c-0.8,0.8-1.7,1.2-2.7,1.2c-1.2,0-2.1-0.4-2.9-1.3c-0.8-0.9-1.1-1.9-1.1-3.2c0-1.2,0.3-2.3,1-3.2c0.8-0.9,1.7-1.4,3-1.4
		c1.1,0,2,0.4,2.7,1.2v-1h2V69.9z M256.4,65.8c0-0.8-0.2-1.5-0.7-2c-0.5-0.5-1-0.8-1.7-0.8c-0.8,0-1.3,0.3-1.8,0.8
		c-0.4,0.5-0.6,1.1-0.6,1.9c0,0.8,0.2,1.4,0.6,1.9c0.4,0.5,1,0.8,1.8,0.8s1.4-0.3,1.8-0.8C256.2,67.3,256.4,66.6,256.4,65.8z"/>
	<path class="st2" d="M268.4,63.4v6.7h-2v-6.7h-0.8v-1.8h0.8v-3.1h2v3.1h1.5v1.8H268.4z"/>
	<path class="st2" d="M271,65.8c0-1.2,0.4-2.3,1.3-3.2s2-1.3,3.2-1.3c1.3,0,2.4,0.4,3.3,1.3c0.9,0.9,1.3,1.9,1.3,3.2
		c0,1.3-0.4,2.4-1.3,3.2c-0.9,0.9-2,1.3-3.3,1.3c-1.3,0-2.4-0.4-3.2-1.3C271.4,68.2,271,67.1,271,65.8z M273,65.8
		c0,0.9,0.2,1.5,0.7,2c0.5,0.5,1.1,0.8,1.9,0.8c0.8,0,1.4-0.2,1.9-0.7s0.7-1.2,0.7-2s-0.2-1.5-0.7-2c-0.5-0.5-1.1-0.8-1.9-0.8
		c-0.8,0-1.4,0.3-1.8,0.8S273,65,273,65.8z"/>
</g>
<g class="st1">
	<path class="st2" d="M31.9,146.7v2.6c-0.5-0.6-0.9-0.9-1.2-1.1c-0.4-0.2-0.8-0.3-1.2-0.3c-0.7,0-1.4,0.3-1.9,0.8s-0.7,1.2-0.7,2
		c0,0.8,0.2,1.5,0.7,2c0.5,0.5,1.1,0.8,1.8,0.8c0.5,0,0.9-0.1,1.3-0.3c0.4-0.2,0.8-0.6,1.2-1.2v2.6c-0.8,0.4-1.6,0.6-2.4,0.6
		c-1.3,0-2.4-0.4-3.3-1.3c-0.9-0.9-1.3-1.9-1.3-3.2s0.5-2.4,1.4-3.2s2-1.3,3.3-1.3C30.4,146.1,31.2,146.3,31.9,146.7z"/>
	<path class="st2" d="M40.2,146.3h2v8.6h-2V154c-0.8,0.8-1.7,1.1-2.6,1.1c-1.2,0-2.2-0.4-2.9-1.3c-0.8-0.9-1.2-2-1.2-3.3
		c0-1.3,0.4-2.4,1.2-3.2s1.7-1.3,2.9-1.3c1,0,1.9,0.4,2.7,1.2V146.3z M35.5,150.6c0,0.8,0.2,1.5,0.7,2c0.5,0.5,1,0.8,1.7,0.8
		c0.7,0,1.3-0.3,1.8-0.8c0.5-0.5,0.7-1.2,0.7-2s-0.2-1.5-0.7-2c-0.5-0.5-1-0.8-1.8-0.8c-0.7,0-1.2,0.3-1.7,0.8
		C35.7,149.2,35.5,149.8,35.5,150.6z"/>
	<path class="st2" d="M44.6,146.3h2v0.8c0.7-0.7,1.5-1,2.3-1c1,0,1.8,0.3,2.3,0.9c0.5,0.5,0.7,1.4,0.7,2.6v5.2h-2v-4.8
		c0-0.8-0.1-1.4-0.4-1.7c-0.2-0.3-0.6-0.5-1.2-0.5c-0.7,0-1.1,0.2-1.4,0.7c-0.3,0.4-0.4,1.2-0.4,2.2v4.1h-2V146.3z"/>
	<path class="st2" d="M66.4,146.3h2v8.6h-2V154c-0.8,0.8-1.7,1.1-2.6,1.1c-1.2,0-2.2-0.4-2.9-1.3c-0.8-0.9-1.2-2-1.2-3.3
		c0-1.3,0.4-2.4,1.2-3.2s1.7-1.3,2.9-1.3c1,0,1.9,0.4,2.7,1.2V146.3z M61.7,150.6c0,0.8,0.2,1.5,0.7,2c0.5,0.5,1,0.8,1.7,0.8
		c0.7,0,1.3-0.3,1.8-0.8c0.5-0.5,0.7-1.2,0.7-2s-0.2-1.5-0.7-2c-0.5-0.5-1-0.8-1.8-0.8c-0.7,0-1.2,0.3-1.7,0.8
		C61.9,149.2,61.7,149.8,61.7,150.6z"/>
	<path class="st2" d="M77.5,146.7v2.6c-0.5-0.6-0.9-0.9-1.2-1.1c-0.4-0.2-0.8-0.3-1.2-0.3c-0.7,0-1.4,0.3-1.9,0.8s-0.7,1.2-0.7,2
		c0,0.8,0.2,1.5,0.7,2c0.5,0.5,1.1,0.8,1.8,0.8c0.5,0,0.9-0.1,1.3-0.3c0.4-0.2,0.8-0.6,1.2-1.2v2.6c-0.8,0.4-1.6,0.6-2.4,0.6
		c-1.3,0-2.4-0.4-3.3-1.3c-0.9-0.9-1.3-1.9-1.3-3.2s0.5-2.4,1.4-3.2s2-1.3,3.3-1.3C76,146.1,76.8,146.3,77.5,146.7z"/>
	<path class="st2" d="M81.5,148.2v6.7h-2v-6.7h-0.8v-1.8h0.8v-3.1h2v3.1H83v1.8H81.5z"/>
	<path class="st2" d="M86.3,146.3v4.9c0,1.4,0.6,2.1,1.7,2.1s1.7-0.7,1.7-2.1v-4.9h2v5c0,0.7-0.1,1.3-0.3,1.8
		c-0.2,0.4-0.4,0.8-0.9,1.2c-0.7,0.6-1.5,0.9-2.5,0.9c-1,0-1.9-0.3-2.5-0.9c-0.4-0.4-0.7-0.8-0.9-1.2c-0.2-0.4-0.2-1-0.2-1.8v-5
		H86.3z"/>
	<path class="st2" d="M100.5,146.3h2v8.6h-2V154c-0.8,0.8-1.7,1.1-2.6,1.1c-1.2,0-2.2-0.4-2.9-1.3c-0.8-0.9-1.2-2-1.2-3.3
		c0-1.3,0.4-2.4,1.2-3.2s1.7-1.3,2.9-1.3c1,0,1.9,0.4,2.7,1.2V146.3z M95.8,150.6c0,0.8,0.2,1.5,0.7,2c0.5,0.5,1,0.8,1.7,0.8
		c0.7,0,1.3-0.3,1.8-0.8c0.5-0.5,0.7-1.2,0.7-2s-0.2-1.5-0.7-2c-0.5-0.5-1-0.8-1.8-0.8c-0.7,0-1.2,0.3-1.7,0.8
		C96,149.2,95.8,149.8,95.8,150.6z"/>
	<path class="st2" d="M106.9,140.1v14.8h-2v-14.8H106.9z"/>
	<path class="st2" d="M111.4,140.1v14.8h-2v-14.8H111.4z"/>
	<path class="st2" d="M116.8,153.3l-3.8-7h2.3l2.6,4.9l2.4-4.9h2.2l-6.8,13.2h-2.3L116.8,153.3z"/>
	<path class="st2" d="M129.4,146.3h2v0.8c0.4-0.4,0.7-0.7,1-0.8c0.3-0.1,0.6-0.2,1.1-0.2c1,0,1.7,0.4,2.3,1.3
		c0.6-0.8,1.5-1.3,2.5-1.3c1.9,0,2.9,1.2,2.9,3.5v5.3h-2v-4.8c0-0.8-0.1-1.4-0.3-1.7c-0.2-0.3-0.5-0.5-1-0.5c-0.5,0-0.9,0.2-1.2,0.6
		s-0.4,1.1-0.4,2v4.4h-2v-4.7c0-1.5-0.4-2.3-1.3-2.3c-0.6,0-1,0.2-1.2,0.6s-0.4,1.1-0.4,2v4.4h-2V146.3z"/>
	<path class="st2" d="M150,146.3h2v8.6h-2V154c-0.8,0.8-1.7,1.1-2.6,1.1c-1.2,0-2.2-0.4-2.9-1.3c-0.8-0.9-1.2-2-1.2-3.3
		c0-1.3,0.4-2.4,1.2-3.2s1.7-1.3,2.9-1.3c1,0,1.9,0.4,2.7,1.2V146.3z M145.3,150.6c0,0.8,0.2,1.5,0.7,2c0.5,0.5,1,0.8,1.7,0.8
		c0.7,0,1.3-0.3,1.8-0.8c0.5-0.5,0.7-1.2,0.7-2s-0.2-1.5-0.7-2c-0.5-0.5-1-0.8-1.8-0.8c-0.7,0-1.2,0.3-1.7,0.8
		C145.5,149.2,145.3,149.8,145.3,150.6z"/>
	<path class="st2" d="M156.4,140.1v9.1l2.8-2.8h2.7l-3.7,3.6l4,5h-2.6l-2.8-3.6l-0.3,0.3v3.3h-2v-14.8H156.4z"/>
	<path class="st2" d="M170.9,151.1h-6.1c0.1,0.7,0.3,1.3,0.7,1.7c0.4,0.4,0.9,0.6,1.6,0.6c0.5,0,0.9-0.1,1.2-0.4
		c0.3-0.2,0.7-0.7,1.1-1.3l1.7,0.9c-0.3,0.4-0.5,0.8-0.8,1.1s-0.6,0.6-0.9,0.8c-0.3,0.2-0.7,0.3-1.1,0.4s-0.8,0.1-1.2,0.1
		c-1.3,0-2.3-0.4-3.1-1.2c-0.8-0.8-1.2-1.9-1.2-3.3c0-1.4,0.4-2.4,1.1-3.3c0.8-0.8,1.8-1.2,3-1.2c1.3,0,2.3,0.4,3,1.2
		c0.7,0.8,1.1,1.9,1.1,3.3L170.9,151.1z M168.9,149.5c-0.3-1.1-0.9-1.6-2-1.6c-0.2,0-0.5,0-0.7,0.1c-0.2,0.1-0.4,0.2-0.6,0.3
		c-0.2,0.1-0.3,0.3-0.4,0.5s-0.2,0.4-0.3,0.7H168.9z"/>
	<path class="st2" d="M181.3,153.3l-3.8-7h2.3l2.6,4.9l2.4-4.9h2.2l-6.8,13.2H178L181.3,153.3z"/>
	<path class="st2" d="M187.7,150.6c0-1.2,0.4-2.3,1.3-3.2s2-1.3,3.2-1.3c1.3,0,2.4,0.4,3.3,1.3c0.9,0.9,1.3,1.9,1.3,3.2
		c0,1.3-0.4,2.4-1.3,3.2c-0.9,0.9-2,1.3-3.3,1.3c-1.3,0-2.4-0.4-3.2-1.3C188.1,153,187.7,151.9,187.7,150.6z M189.7,150.6
		c0,0.9,0.2,1.5,0.7,2c0.5,0.5,1.1,0.8,1.9,0.8c0.8,0,1.4-0.2,1.9-0.7s0.7-1.2,0.7-2s-0.2-1.5-0.7-2c-0.5-0.5-1.1-0.8-1.9-0.8
		c-0.8,0-1.4,0.3-1.8,0.8S189.7,149.8,189.7,150.6z"/>
	<path class="st2" d="M200.9,146.3v4.9c0,1.4,0.6,2.1,1.7,2.1s1.7-0.7,1.7-2.1v-4.9h2v5c0,0.7-0.1,1.3-0.3,1.8
		c-0.2,0.4-0.4,0.8-0.9,1.2c-0.7,0.6-1.5,0.9-2.5,0.9c-1,0-1.9-0.3-2.5-0.9c-0.4-0.4-0.7-0.8-0.9-1.2c-0.2-0.4-0.2-1-0.2-1.8v-5
		H200.9z"/>
	<path class="st2" d="M216.3,148.2v6.7h-2v-6.7h-0.7v-1.8h0.7V143c0-1.1,0.2-1.8,0.6-2.3c0.5-0.6,1.3-0.9,2.2-0.9
		c0.4,0,0.8,0.1,1.3,0.3v2l-0.2-0.1c-0.4-0.2-0.8-0.3-1.1-0.3c-0.4,0-0.6,0.1-0.7,0.4c-0.1,0.2-0.2,0.7-0.2,1.4v2.8h2.2v1.8H216.3z"
		/>
	<path class="st2" d="M227.7,151.1h-6.1c0.1,0.7,0.3,1.3,0.7,1.7c0.4,0.4,0.9,0.6,1.6,0.6c0.5,0,0.9-0.1,1.2-0.4
		c0.3-0.2,0.7-0.7,1.1-1.3l1.7,0.9c-0.3,0.4-0.5,0.8-0.8,1.1s-0.6,0.6-0.9,0.8c-0.3,0.2-0.7,0.3-1.1,0.4s-0.8,0.1-1.2,0.1
		c-1.3,0-2.3-0.4-3.1-1.2c-0.8-0.8-1.2-1.9-1.2-3.3c0-1.4,0.4-2.4,1.1-3.3c0.8-0.8,1.8-1.2,3-1.2c1.3,0,2.3,0.4,3,1.2
		c0.7,0.8,1.1,1.9,1.1,3.3L227.7,151.1z M225.6,149.5c-0.3-1.1-0.9-1.6-2-1.6c-0.2,0-0.5,0-0.7,0.1c-0.2,0.1-0.4,0.2-0.6,0.3
		c-0.2,0.1-0.3,0.3-0.4,0.5s-0.2,0.4-0.3,0.7H225.6z"/>
	<path class="st2" d="M237.6,151.1h-6.1c0.1,0.7,0.3,1.3,0.7,1.7c0.4,0.4,0.9,0.6,1.6,0.6c0.5,0,0.9-0.1,1.2-0.4
		c0.3-0.2,0.7-0.7,1.1-1.3l1.7,0.9c-0.3,0.4-0.5,0.8-0.8,1.1s-0.6,0.6-0.9,0.8c-0.3,0.2-0.7,0.3-1.1,0.4s-0.8,0.1-1.2,0.1
		c-1.3,0-2.3-0.4-3.1-1.2c-0.8-0.8-1.2-1.9-1.2-3.3c0-1.4,0.4-2.4,1.1-3.3c0.8-0.8,1.8-1.2,3-1.2c1.3,0,2.3,0.4,3,1.2
		c0.7,0.8,1.1,1.9,1.1,3.3L237.6,151.1z M235.6,149.5c-0.3-1.1-0.9-1.6-2-1.6c-0.2,0-0.5,0-0.7,0.1c-0.2,0.1-0.4,0.2-0.6,0.3
		c-0.2,0.1-0.3,0.3-0.4,0.5s-0.2,0.4-0.3,0.7H235.6z"/>
	<path class="st2" d="M241.8,140.1v14.8h-2v-14.8H241.8z"/>
	<path class="st2" d="M251.8,140.1v7.3c0.8-0.8,1.7-1.2,2.7-1.2c1.2,0,2.1,0.4,2.9,1.3c0.8,0.9,1.2,1.9,1.2,3.2
		c0,1.3-0.4,2.4-1.2,3.3c-0.8,0.9-1.7,1.3-2.9,1.3c-1,0-1.9-0.4-2.7-1.1v0.9h-2v-14.8H251.8z M256.5,150.7c0-0.8-0.2-1.5-0.7-2
		c-0.5-0.5-1-0.8-1.7-0.8c-0.7,0-1.3,0.3-1.8,0.8c-0.5,0.5-0.7,1.2-0.7,2c0,0.8,0.2,1.5,0.7,2c0.4,0.5,1,0.8,1.8,0.8
		c0.7,0,1.3-0.3,1.7-0.8C256.3,152.1,256.5,151.5,256.5,150.7z"/>
	<path class="st2" d="M268.4,151.1h-6.1c0.1,0.7,0.3,1.3,0.7,1.7c0.4,0.4,0.9,0.6,1.6,0.6c0.5,0,0.9-0.1,1.2-0.4
		c0.3-0.2,0.7-0.7,1.1-1.3l1.7,0.9c-0.3,0.4-0.5,0.8-0.8,1.1s-0.6,0.6-0.9,0.8c-0.3,0.2-0.7,0.3-1.1,0.4s-0.8,0.1-1.2,0.1
		c-1.3,0-2.3-0.4-3.1-1.2c-0.8-0.8-1.2-1.9-1.2-3.3c0-1.4,0.4-2.4,1.1-3.3c0.8-0.8,1.8-1.2,3-1.2c1.3,0,2.3,0.4,3,1.2
		c0.7,0.8,1.1,1.9,1.1,3.3L268.4,151.1z M266.4,149.5c-0.3-1.1-0.9-1.6-2-1.6c-0.2,0-0.5,0-0.7,0.1c-0.2,0.1-0.4,0.2-0.6,0.3
		c-0.2,0.1-0.3,0.3-0.4,0.5s-0.2,0.4-0.3,0.7H266.4z"/>
	<path class="st2" d="M272.8,148.2v6.7h-2v-6.7H270v-1.8h0.8v-3.1h2v3.1h1.5v1.8H272.8z"/>
	<path class="st2" d="M277.7,148.2v6.7h-2v-6.7h-0.8v-1.8h0.8v-3.1h2v3.1h1.5v1.8H277.7z"/>
	<path class="st2" d="M288.5,151.1h-6.1c0.1,0.7,0.3,1.3,0.7,1.7c0.4,0.4,0.9,0.6,1.6,0.6c0.5,0,0.9-0.1,1.2-0.4
		c0.3-0.2,0.7-0.7,1.1-1.3l1.7,0.9c-0.3,0.4-0.5,0.8-0.8,1.1s-0.6,0.6-0.9,0.8c-0.3,0.2-0.7,0.3-1.1,0.4s-0.8,0.1-1.2,0.1
		c-1.3,0-2.3-0.4-3.1-1.2c-0.8-0.8-1.2-1.9-1.2-3.3c0-1.4,0.4-2.4,1.1-3.3c0.8-0.8,1.8-1.2,3-1.2c1.3,0,2.3,0.4,3,1.2
		c0.7,0.8,1.1,1.9,1.1,3.3L288.5,151.1z M286.5,149.5c-0.3-1.1-0.9-1.6-2-1.6c-0.2,0-0.5,0-0.7,0.1c-0.2,0.1-0.4,0.2-0.6,0.3
		c-0.2,0.1-0.3,0.3-0.4,0.5s-0.2,0.4-0.3,0.7H286.5z"/>
	<path class="st2" d="M290.7,146.3h2v0.8c0.4-0.4,0.7-0.6,1-0.8c0.3-0.1,0.6-0.2,1-0.2c0.5,0,1.1,0.2,1.6,0.5l-0.9,1.8
		c-0.4-0.3-0.7-0.4-1.1-0.4c-1.1,0-1.6,0.8-1.6,2.4v4.4h-2V146.3z"/>
</g>
<g class="st1">
	<path class="st2" d="M27.2,168.3v7.3c0.8-0.8,1.7-1.2,2.7-1.2c1.2,0,2.1,0.4,2.9,1.3c0.8,0.9,1.2,1.9,1.2,3.2
		c0,1.3-0.4,2.4-1.2,3.3c-0.8,0.9-1.7,1.3-2.9,1.3c-1,0-1.9-0.4-2.7-1.1v0.9h-2v-14.8H27.2z M32,178.9c0-0.8-0.2-1.5-0.7-2
		c-0.5-0.5-1-0.8-1.7-0.8c-0.7,0-1.3,0.3-1.8,0.8c-0.5,0.5-0.7,1.2-0.7,2c0,0.8,0.2,1.5,0.7,2c0.4,0.5,1,0.8,1.8,0.8
		c0.7,0,1.3-0.3,1.7-0.8C31.7,180.3,32,179.7,32,178.9z"/>
	<path class="st2" d="M43.9,179.3h-6.1c0.1,0.7,0.3,1.3,0.7,1.7c0.4,0.4,0.9,0.6,1.6,0.6c0.5,0,0.9-0.1,1.2-0.4
		c0.3-0.2,0.7-0.7,1.1-1.3l1.7,0.9c-0.3,0.4-0.5,0.8-0.8,1.1s-0.6,0.6-0.9,0.8c-0.3,0.2-0.7,0.3-1.1,0.4s-0.8,0.1-1.2,0.1
		c-1.3,0-2.3-0.4-3.1-1.2c-0.8-0.8-1.2-1.9-1.2-3.3c0-1.4,0.4-2.4,1.1-3.3c0.8-0.8,1.8-1.2,3-1.2c1.3,0,2.3,0.4,3,1.2
		c0.7,0.8,1.1,1.9,1.1,3.3L43.9,179.3z M41.8,177.7c-0.3-1.1-0.9-1.6-2-1.6c-0.2,0-0.5,0-0.7,0.1c-0.2,0.1-0.4,0.2-0.6,0.3
		c-0.2,0.1-0.3,0.3-0.4,0.5s-0.2,0.4-0.3,0.7H41.8z"/>
	<path class="st2" d="M52.7,174.9v2.6c-0.5-0.6-0.9-0.9-1.2-1.1c-0.4-0.2-0.8-0.3-1.2-0.3c-0.7,0-1.4,0.3-1.9,0.8s-0.7,1.2-0.7,2
		c0,0.8,0.2,1.5,0.7,2c0.5,0.5,1.1,0.8,1.8,0.8c0.5,0,0.9-0.1,1.3-0.3c0.4-0.2,0.8-0.6,1.2-1.2v2.6c-0.8,0.4-1.6,0.6-2.4,0.6
		c-1.3,0-2.4-0.4-3.3-1.3c-0.9-0.9-1.3-1.9-1.3-3.2s0.5-2.4,1.4-3.2s2-1.3,3.3-1.3C51.1,174.3,51.9,174.5,52.7,174.9z"/>
	<path class="st2" d="M60.9,174.5h2v8.6h-2v-0.9c-0.8,0.8-1.7,1.1-2.6,1.1c-1.2,0-2.2-0.4-2.9-1.3c-0.8-0.9-1.2-2-1.2-3.3
		c0-1.3,0.4-2.4,1.2-3.2s1.7-1.3,2.9-1.3c1,0,1.9,0.4,2.7,1.2V174.5z M56.2,178.8c0,0.8,0.2,1.5,0.7,2c0.5,0.5,1,0.8,1.7,0.8
		c0.7,0,1.3-0.3,1.8-0.8c0.5-0.5,0.7-1.2,0.7-2s-0.2-1.5-0.7-2c-0.5-0.5-1-0.8-1.8-0.8c-0.7,0-1.2,0.3-1.7,0.8
		C56.4,177.4,56.2,178,56.2,178.8z"/>
	<path class="st2" d="M67.4,174.5v4.9c0,1.4,0.6,2.1,1.7,2.1s1.7-0.7,1.7-2.1v-4.9h2v5c0,0.7-0.1,1.3-0.3,1.8
		c-0.2,0.4-0.4,0.8-0.9,1.2c-0.7,0.6-1.5,0.9-2.5,0.9c-1,0-1.9-0.3-2.5-0.9c-0.4-0.4-0.7-0.8-0.9-1.2c-0.2-0.4-0.2-1-0.2-1.8v-5
		H67.4z"/>
	<path class="st2" d="M80.2,176l-1.6,0.9c-0.3-0.5-0.6-0.8-1-0.8c-0.2,0-0.3,0.1-0.5,0.2s-0.2,0.3-0.2,0.5c0,0.3,0.4,0.7,1.1,1
		c1,0.5,1.8,0.9,2.1,1.2s0.5,0.9,0.5,1.5c0,0.8-0.3,1.5-0.9,2.1c-0.6,0.5-1.3,0.8-2.1,0.8c-1.4,0-2.5-0.7-3-2.1l1.7-0.8
		c0.2,0.4,0.4,0.7,0.5,0.8c0.2,0.2,0.5,0.3,0.9,0.3c0.7,0,1-0.3,1-0.9c0-0.4-0.3-0.7-0.8-1c-0.2-0.1-0.4-0.2-0.6-0.3
		s-0.4-0.2-0.6-0.3c-0.6-0.3-1-0.6-1.2-0.8c-0.3-0.4-0.4-0.8-0.4-1.4c0-0.7,0.3-1.4,0.8-1.8c0.5-0.5,1.2-0.7,1.9-0.7
		C78.8,174.3,79.6,174.9,80.2,176z"/>
	<path class="st2" d="M90.3,179.3h-6.1c0.1,0.7,0.3,1.3,0.7,1.7c0.4,0.4,0.9,0.6,1.6,0.6c0.5,0,0.9-0.1,1.2-0.4
		c0.3-0.2,0.7-0.7,1.1-1.3l1.7,0.9c-0.3,0.4-0.5,0.8-0.8,1.1s-0.6,0.6-0.9,0.8c-0.3,0.2-0.7,0.3-1.1,0.4s-0.8,0.1-1.2,0.1
		c-1.3,0-2.3-0.4-3.1-1.2c-0.8-0.8-1.2-1.9-1.2-3.3c0-1.4,0.4-2.4,1.1-3.3c0.8-0.8,1.8-1.2,3-1.2c1.3,0,2.3,0.4,3,1.2
		c0.7,0.8,1.1,1.9,1.1,3.3L90.3,179.3z M88.3,177.7c-0.3-1.1-0.9-1.6-2-1.6c-0.2,0-0.5,0-0.7,0.1c-0.2,0.1-0.4,0.2-0.6,0.3
		c-0.2,0.1-0.3,0.3-0.4,0.5s-0.2,0.4-0.3,0.7H88.3z"/>
	<path class="st2" d="M97.7,171c0-0.3,0.1-0.6,0.4-0.9s0.6-0.4,0.9-0.4c0.4,0,0.7,0.1,0.9,0.4c0.3,0.2,0.4,0.5,0.4,0.9
		s-0.1,0.7-0.4,0.9c-0.2,0.3-0.5,0.4-0.9,0.4s-0.7-0.1-0.9-0.4S97.7,171.3,97.7,171z M100,174.5v8.6h-2v-8.6H100z"/>
	<path class="st2" d="M104.5,176.4v6.7h-2v-6.7h-0.8v-1.8h0.8v-3.1h2v3.1h1.5v1.8H104.5z"/>
	<path class="st2" d="M115,187.8h-2v-13.2h2v0.9c0.8-0.8,1.7-1.2,2.7-1.2c1.2,0,2.1,0.4,2.9,1.3c0.8,0.9,1.2,1.9,1.2,3.3
		c0,1.3-0.4,2.4-1.2,3.2c-0.8,0.8-1.7,1.3-2.9,1.3c-1,0-1.9-0.4-2.7-1.2V187.8z M119.7,178.9c0-0.8-0.2-1.5-0.7-2
		c-0.5-0.5-1-0.8-1.7-0.8c-0.7,0-1.3,0.3-1.8,0.8s-0.7,1.2-0.7,2c0,0.8,0.2,1.5,0.7,2c0.4,0.5,1,0.8,1.8,0.8c0.7,0,1.3-0.3,1.7-0.8
		C119.4,180.3,119.7,179.6,119.7,178.9z"/>
	<path class="st2" d="M123.8,174.5h2v0.8c0.4-0.4,0.7-0.6,1-0.8c0.3-0.1,0.6-0.2,1-0.2c0.5,0,1.1,0.2,1.6,0.5l-0.9,1.8
		c-0.4-0.3-0.7-0.4-1.1-0.4c-1.1,0-1.6,0.8-1.6,2.4v4.4h-2V174.5z"/>
	<path class="st2" d="M129.9,178.8c0-1.2,0.4-2.3,1.3-3.2s2-1.3,3.2-1.3c1.3,0,2.4,0.4,3.3,1.3c0.9,0.9,1.3,1.9,1.3,3.2
		c0,1.3-0.4,2.4-1.3,3.2c-0.9,0.9-2,1.3-3.3,1.3c-1.3,0-2.4-0.4-3.2-1.3C130.4,181.2,129.9,180.1,129.9,178.8z M132,178.8
		c0,0.9,0.2,1.5,0.7,2c0.5,0.5,1.1,0.8,1.9,0.8c0.8,0,1.4-0.2,1.9-0.7s0.7-1.2,0.7-2s-0.2-1.5-0.7-2c-0.5-0.5-1.1-0.8-1.9-0.8
		c-0.8,0-1.4,0.3-1.8,0.8S132,178,132,178.8z"/>
	<path class="st2" d="M141.9,174.5l2.2,4.8l2.2-4.8h2.2l-4.4,9.1l-4.4-9.1H141.9z"/>
	<path class="st2" d="M149.5,171c0-0.3,0.1-0.6,0.4-0.9s0.6-0.4,0.9-0.4c0.4,0,0.7,0.1,0.9,0.4c0.3,0.2,0.4,0.5,0.4,0.9
		s-0.1,0.7-0.4,0.9c-0.2,0.3-0.5,0.4-0.9,0.4s-0.7-0.1-0.9-0.4S149.5,171.3,149.5,171z M151.8,174.5v8.6h-2v-8.6H151.8z"/>
	<path class="st2" d="M160.6,168.3h2v14.8h-2v-0.9c-0.8,0.8-1.7,1.1-2.6,1.1c-1.2,0-2.1-0.4-2.9-1.3c-0.8-0.9-1.2-2-1.2-3.3
		c0-1.3,0.4-2.3,1.2-3.2c0.8-0.9,1.7-1.3,2.9-1.3c1,0,1.9,0.4,2.7,1.2V168.3z M155.9,178.8c0,0.8,0.2,1.5,0.7,2
		c0.5,0.5,1,0.8,1.7,0.8c0.7,0,1.3-0.3,1.8-0.8c0.5-0.5,0.7-1.2,0.7-2s-0.2-1.5-0.7-2c-0.5-0.5-1-0.8-1.8-0.8
		c-0.7,0-1.2,0.3-1.7,0.8C156.2,177.4,155.9,178,155.9,178.8z"/>
	<path class="st2" d="M172.9,179.3h-6.1c0.1,0.7,0.3,1.3,0.7,1.7c0.4,0.4,0.9,0.6,1.6,0.6c0.5,0,0.9-0.1,1.2-0.4
		c0.3-0.2,0.7-0.7,1.1-1.3l1.7,0.9c-0.3,0.4-0.5,0.8-0.8,1.1s-0.6,0.6-0.9,0.8c-0.3,0.2-0.7,0.3-1.1,0.4s-0.8,0.1-1.2,0.1
		c-1.3,0-2.3-0.4-3.1-1.2c-0.8-0.8-1.2-1.9-1.2-3.3c0-1.4,0.4-2.4,1.1-3.3c0.8-0.8,1.8-1.2,3-1.2c1.3,0,2.3,0.4,3,1.2
		c0.7,0.8,1.1,1.9,1.1,3.3L172.9,179.3z M170.9,177.7c-0.3-1.1-0.9-1.6-2-1.6c-0.2,0-0.5,0-0.7,0.1c-0.2,0.1-0.4,0.2-0.6,0.3
		c-0.2,0.1-0.3,0.3-0.4,0.5s-0.2,0.4-0.3,0.7H170.9z"/>
	<path class="st2" d="M180.1,176l-1.6,0.9c-0.3-0.5-0.6-0.8-1-0.8c-0.2,0-0.3,0.1-0.5,0.2s-0.2,0.3-0.2,0.5c0,0.3,0.4,0.7,1.1,1
		c1,0.5,1.8,0.9,2.1,1.2s0.5,0.9,0.5,1.5c0,0.8-0.3,1.5-0.9,2.1c-0.6,0.5-1.3,0.8-2.1,0.8c-1.4,0-2.5-0.7-3-2.1l1.7-0.8
		c0.2,0.4,0.4,0.7,0.5,0.8c0.2,0.2,0.5,0.3,0.9,0.3c0.7,0,1-0.3,1-0.9c0-0.4-0.3-0.7-0.8-1c-0.2-0.1-0.4-0.2-0.6-0.3
		s-0.4-0.2-0.6-0.3c-0.6-0.3-1-0.6-1.2-0.8c-0.3-0.4-0.4-0.8-0.4-1.4c0-0.7,0.3-1.4,0.8-1.8c0.5-0.5,1.2-0.7,1.9-0.7
		C178.7,174.3,179.5,174.9,180.1,176z"/>
	<path class="st2" d="M194.6,174.9v2.6c-0.5-0.6-0.9-0.9-1.2-1.1c-0.4-0.2-0.8-0.3-1.2-0.3c-0.7,0-1.4,0.3-1.9,0.8s-0.7,1.2-0.7,2
		c0,0.8,0.2,1.5,0.7,2c0.5,0.5,1.1,0.8,1.8,0.8c0.5,0,0.9-0.1,1.3-0.3c0.4-0.2,0.8-0.6,1.2-1.2v2.6c-0.8,0.4-1.6,0.6-2.4,0.6
		c-1.3,0-2.4-0.4-3.3-1.3c-0.9-0.9-1.3-1.9-1.3-3.2s0.5-2.4,1.4-3.2s2-1.3,3.3-1.3C193.1,174.3,193.9,174.5,194.6,174.9z"/>
	<path class="st2" d="M196.1,178.8c0-1.2,0.4-2.3,1.3-3.2s2-1.3,3.2-1.3c1.3,0,2.4,0.4,3.3,1.3c0.9,0.9,1.3,1.9,1.3,3.2
		c0,1.3-0.4,2.4-1.3,3.2c-0.9,0.9-2,1.3-3.3,1.3c-1.3,0-2.4-0.4-3.2-1.3C196.5,181.2,196.1,180.1,196.1,178.8z M198.1,178.8
		c0,0.9,0.2,1.5,0.7,2c0.5,0.5,1.1,0.8,1.9,0.8c0.8,0,1.4-0.2,1.9-0.7s0.7-1.2,0.7-2s-0.2-1.5-0.7-2c-0.5-0.5-1.1-0.8-1.9-0.8
		c-0.8,0-1.4,0.3-1.8,0.8S198.1,178,198.1,178.8z"/>
	<path class="st2" d="M207.3,174.5h2v0.8c0.7-0.7,1.5-1,2.3-1c1,0,1.8,0.3,2.3,0.9c0.5,0.5,0.7,1.4,0.7,2.6v5.2h-2v-4.8
		c0-0.8-0.1-1.4-0.4-1.7c-0.2-0.3-0.6-0.5-1.2-0.5c-0.7,0-1.1,0.2-1.4,0.7c-0.3,0.4-0.4,1.2-0.4,2.2v4.1h-2V174.5z"/>
	<path class="st2" d="M222.2,176l-1.6,0.9c-0.3-0.5-0.6-0.8-1-0.8c-0.2,0-0.3,0.1-0.5,0.2s-0.2,0.3-0.2,0.5c0,0.3,0.4,0.7,1.1,1
		c1,0.5,1.8,0.9,2.1,1.2s0.5,0.9,0.5,1.5c0,0.8-0.3,1.5-0.9,2.1c-0.6,0.5-1.3,0.8-2.1,0.8c-1.4,0-2.5-0.7-3-2.1l1.7-0.8
		c0.2,0.4,0.4,0.7,0.5,0.8c0.2,0.2,0.5,0.3,0.9,0.3c0.7,0,1-0.3,1-0.9c0-0.4-0.3-0.7-0.8-1c-0.2-0.1-0.4-0.2-0.6-0.3
		s-0.4-0.2-0.6-0.3c-0.6-0.3-1-0.6-1.2-0.8c-0.3-0.4-0.4-0.8-0.4-1.4c0-0.7,0.3-1.4,0.8-1.8c0.5-0.5,1.2-0.7,1.9-0.7
		C220.8,174.3,221.6,174.9,222.2,176z"/>
	<path class="st2" d="M224.1,178.8c0-1.2,0.4-2.3,1.3-3.2s2-1.3,3.2-1.3c1.3,0,2.4,0.4,3.3,1.3c0.9,0.9,1.3,1.9,1.3,3.2
		c0,1.3-0.4,2.4-1.3,3.2c-0.9,0.9-2,1.3-3.3,1.3c-1.3,0-2.4-0.4-3.2-1.3C224.5,181.2,224.1,180.1,224.1,178.8z M226.1,178.8
		c0,0.9,0.2,1.5,0.7,2c0.5,0.5,1.1,0.8,1.9,0.8c0.8,0,1.4-0.2,1.9-0.7s0.7-1.2,0.7-2s-0.2-1.5-0.7-2c-0.5-0.5-1.1-0.8-1.9-0.8
		c-0.8,0-1.4,0.3-1.8,0.8S226.1,178,226.1,178.8z"/>
	<path class="st2" d="M237.3,168.3v14.8h-2v-14.8H237.3z"/>
	<path class="st2" d="M246.1,174.5h2v8.6h-2v-0.9c-0.8,0.8-1.7,1.1-2.6,1.1c-1.2,0-2.2-0.4-2.9-1.3c-0.8-0.9-1.2-2-1.2-3.3
		c0-1.3,0.4-2.4,1.2-3.2s1.7-1.3,2.9-1.3c1,0,1.9,0.4,2.7,1.2V174.5z M241.4,178.8c0,0.8,0.2,1.5,0.7,2c0.5,0.5,1,0.8,1.7,0.8
		c0.7,0,1.3-0.3,1.8-0.8c0.5-0.5,0.7-1.2,0.7-2s-0.2-1.5-0.7-2c-0.5-0.5-1-0.8-1.8-0.8c-0.7,0-1.2,0.3-1.7,0.8
		C241.7,177.4,241.4,178,241.4,178.8z"/>
	<path class="st2" d="M252.6,176.4v6.7h-2v-6.7h-0.8v-1.8h0.8v-3.1h2v3.1h1.5v1.8H252.6z"/>
	<path class="st2" d="M255.2,171c0-0.3,0.1-0.6,0.4-0.9s0.6-0.4,0.9-0.4c0.4,0,0.7,0.1,0.9,0.4c0.3,0.2,0.4,0.5,0.4,0.9
		s-0.1,0.7-0.4,0.9c-0.2,0.3-0.5,0.4-0.9,0.4s-0.7-0.1-0.9-0.4S255.2,171.3,255.2,171z M257.5,174.5v8.6h-2v-8.6H257.5z"/>
	<path class="st2" d="M259.6,178.8c0-1.2,0.4-2.3,1.3-3.2s2-1.3,3.2-1.3c1.3,0,2.4,0.4,3.3,1.3c0.9,0.9,1.3,1.9,1.3,3.2
		c0,1.3-0.4,2.4-1.3,3.2c-0.9,0.9-2,1.3-3.3,1.3c-1.3,0-2.4-0.4-3.2-1.3C260,181.2,259.6,180.1,259.6,178.8z M261.6,178.8
		c0,0.9,0.2,1.5,0.7,2c0.5,0.5,1.1,0.8,1.9,0.8c0.8,0,1.4-0.2,1.9-0.7s0.7-1.2,0.7-2s-0.2-1.5-0.7-2c-0.5-0.5-1.1-0.8-1.9-0.8
		c-0.8,0-1.4,0.3-1.8,0.8S261.6,178,261.6,178.8z"/>
	<path class="st2" d="M270.8,174.5h2v0.8c0.7-0.7,1.5-1,2.3-1c1,0,1.8,0.3,2.3,0.9c0.5,0.5,0.7,1.4,0.7,2.6v5.2h-2v-4.8
		c0-0.8-0.1-1.4-0.4-1.7c-0.2-0.3-0.6-0.5-1.2-0.5c-0.7,0-1.1,0.2-1.4,0.7c-0.3,0.4-0.4,1.2-0.4,2.2v4.1h-2V174.5z"/>
	<path class="st2" d="M281,182.1c0-0.3,0.1-0.6,0.4-0.9s0.5-0.4,0.9-0.4s0.6,0.1,0.9,0.4s0.4,0.5,0.4,0.9c0,0.3-0.1,0.6-0.4,0.9
		c-0.2,0.2-0.5,0.4-0.9,0.4c-0.3,0-0.6-0.1-0.9-0.4S281,182.5,281,182.1z"/>
</g>
<rect y="83.9" class="st3" width="331" height="47"/>
<rect x="76" y="90.9" class="st4" width="185" height="39"/>
<g class="st1">
	<path class="st0" d="M94.1,115.7c0,2.3-0.6,4.3-1.8,5.9c-0.8,1.1-1.9,1.9-3.4,2.3c-0.8,0.2-1.7,0.4-2.8,0.4c-1.9,0-3.6-0.5-4.8-1.4
		c-1.1-0.8-1.9-1.9-2.5-3.2c-0.6-1.4-1-2.9-1.1-4.7l4.7-0.3c0.2,1.9,0.7,3.3,1.5,4.2c0.6,0.7,1.3,1,2,0.9c1.1,0,2-0.6,2.6-1.6
		c0.3-0.5,0.5-1.2,0.5-2.2c0-1.4-0.6-2.7-1.9-4.1c-1-0.9-2.5-2.3-4.4-4.2c-1.6-1.6-2.8-3-3.5-4.3c-0.7-1.4-1.1-3-1.1-4.6
		c0-3,1-5.3,3-6.8c1.2-0.9,2.8-1.4,4.6-1.4c1.8,0,3.3,0.4,4.5,1.2c1,0.6,1.8,1.5,2.4,2.6c0.6,1.1,1,2.4,1.1,3.8L89.2,99
		c-0.1-1.3-0.5-2.4-1.2-3.2c-0.5-0.5-1.1-0.8-2-0.8c-0.9,0-1.6,0.4-2.1,1.2c-0.4,0.6-0.6,1.5-0.6,2.4c0,1.5,0.6,3,1.9,4.6
		c0.5,0.6,1.2,1.3,2.2,2.1c1.2,1,1.9,1.6,2.3,2c1.2,1.2,2.2,2.4,2.8,3.6c0.3,0.6,0.6,1.1,0.8,1.5C93.9,113.7,94.1,114.8,94.1,115.7z
		"/>
	<path class="st0" d="M103.4,116.3l-1.2,7.6H97l5.6-32.9h6.8l5.5,32.9h-5.2l-1.2-7.6H103.4z M106,98.5l-1.8,13h3.7L106,98.5z"/>
	<path class="st0" d="M134.7,116c0,2.2-0.8,4-2.3,5.6c-1.5,1.5-3.4,2.3-5.5,2.3h-7.8v-33h7.8c2.2,0,4,0.8,5.5,2.3
		c1.5,1.5,2.3,3.4,2.3,5.5V116z M124.1,119h3c0.8,0,1.5-0.3,2-0.9c0.5-0.6,0.8-1.2,0.8-2V98.9c0-0.8-0.3-1.5-0.8-2
		c-0.6-0.6-1.2-0.8-2-0.8h-3V119z"/>
	<path class="st0" d="M156.8,123.9h-5v-33h7.1l4.6,23.7l4.4-23.7h6.8v33h-5v-20.7l-4.3,20.7h-4l-4.8-20.7V123.9z"/>
	<path class="st0" d="M187.1,124.3c-2.2,0-4-0.8-5.6-2.3c-1.5-1.5-2.3-3.4-2.3-5.5V91h4.9v25.4c0,0.8,0.3,1.5,0.8,2
		c0.6,0.6,1.2,0.8,2,0.8c0.8,0,1.5-0.3,2-0.8c0.6-0.6,0.8-1.2,0.8-2V91h5.2v25.5c0,2.2-0.8,4.1-2.3,5.6
		C191.2,123.5,189.3,124.3,187.1,124.3z"/>
	<path class="st0" d="M215.6,115.7c0,2.3-0.6,4.3-1.8,5.9c-0.8,1.1-1.9,1.9-3.4,2.3c-0.8,0.2-1.7,0.4-2.8,0.4
		c-1.9,0-3.6-0.5-4.8-1.4c-1.1-0.8-1.9-1.9-2.5-3.2c-0.6-1.4-1-2.9-1.1-4.7l4.7-0.3c0.2,1.9,0.7,3.3,1.5,4.2c0.6,0.7,1.3,1,2,0.9
		c1.1,0,2-0.6,2.6-1.6c0.3-0.5,0.5-1.2,0.5-2.2c0-1.4-0.6-2.7-1.9-4.1c-1-0.9-2.5-2.3-4.4-4.2c-1.6-1.6-2.8-3-3.5-4.3
		c-0.7-1.4-1.1-3-1.1-4.6c0-3,1-5.3,3-6.8c1.2-0.9,2.8-1.4,4.6-1.4c1.8,0,3.3,0.4,4.5,1.2c1,0.6,1.8,1.5,2.4,2.6
		c0.6,1.1,1,2.4,1.1,3.8l-4.8,0.9c-0.1-1.3-0.5-2.4-1.2-3.2c-0.5-0.5-1.1-0.8-2-0.8c-0.9,0-1.6,0.4-2.1,1.2
		c-0.4,0.6-0.6,1.5-0.6,2.4c0,1.5,0.6,3,1.9,4.6c0.5,0.6,1.2,1.3,2.2,2.1c1.2,1,1.9,1.6,2.3,2c1.2,1.2,2.2,2.4,2.8,3.6
		c0.3,0.6,0.6,1.1,0.8,1.5C215.3,113.7,215.5,114.8,215.6,115.7z"/>
	<path class="st0" d="M224.6,123.9h-5V91h5V123.9z"/>
	<path class="st0" d="M236.9,124.3c-2.2,0-4.1-0.8-5.6-2.3s-2.3-3.4-2.3-5.6v-18c0-2.2,0.8-4.1,2.3-5.6c1.5-1.5,3.4-2.3,5.6-2.3
		c2.2,0,4,0.8,5.6,2.3c1.5,1.5,2.3,3.4,2.3,5.6v3.8h-5.2v-3.9c0-0.8-0.3-1.5-0.8-2c-0.6-0.6-1.2-0.8-2-0.8s-1.5,0.3-2,0.8
		c-0.6,0.6-0.8,1.2-0.8,2v18c0,0.8,0.3,1.5,0.8,2c0.6,0.6,1.2,0.8,2,0.8s1.5-0.3,2-0.8c0.6-0.6,0.8-1.2,0.8-2v-4.5h5.2v4.6
		c0,2.2-0.8,4-2.3,5.6C240.9,123.5,239.1,124.3,236.9,124.3z"/>
</g>
</svg>
