<!-- Generator: Adobe Illustrator 19.0.0, SVG Export Plug-In  -->
<svg version="1.1"
	 xmlns="http://www.w3.org/2000/svg" xmlns:xlink="http://www.w3.org/1999/xlink" xmlns:a="http://ns.adobe.com/AdobeSVGViewerExtensions/3.0/"
	 x="0px" y="0px" width="331.9px" height="211.4px" viewBox="0 0 331.9 211.4" style="enable-background:new 0 0 331.9 211.4;"
	 xml:space="preserve">
<style type="text/css">
	.st0{fill:#FFFFFF;}
	.st1{fill:#4C5256;}
	.st2{font-family:'Futura-Medium';}
	.st3{font-size:18px;}
	.st4{fill:#2980BA;}
	.st5{fill:none;}
	.st6{font-family:'Bebas';}
	.st7{font-size:37px;}
</style>
<defs>
</defs>
<path class="st0" d="M331.9,177.9c0,18.5-15,33.5-33.5,33.5H33.6c-18.5,0-33.5-15-33.5-33.5V33.5C0.1,15,15.1,0,33.6,0h264.8
	c18.5,0,33.5,15,33.5,33.5V177.9z"/>
<text transform="matrix(1 0 0 1 24.0236 41.9019)"><tspan x="0" y="0" class="st1 st2 st3">Studies have recently shown that if  </tspan><tspan x="0" y="28.2" class="st1 st2 st3">you are feeling sad, listening to </tspan><tspan x="0" y="113" class="st1 st2 st3">can actually make you feel better </tspan><tspan x="0" y="141.2" class="st1 st2 st3">because it provides consolation.</tspan></text>
<rect y="83.9" class="st4" width="331" height="47"/>
<rect x="76" y="90.9" class="st5" width="185" height="39"/>
<text transform="matrix(1 0 0 1 76.0164 123.8846)" class="st0 st6 st7">SAD    MUSIC</text>
</svg>
