<!-- Generator: Adobe Illustrator 19.0.0, SVG Export Plug-In  -->
<svg version="1.1"
	 xmlns="http://www.w3.org/2000/svg" xmlns:xlink="http://www.w3.org/1999/xlink" xmlns:a="http://ns.adobe.com/AdobeSVGViewerExtensions/3.0/"
	 x="0px" y="0px" width="523px" height="538px" viewBox="0 0 523 538" style="enable-background:new 0 0 523 538;"
	 xml:space="preserve">
<style type="text/css">
	.st0{fill:#2980BA;}
	.st1{fill:none;stroke:#4C5256;stroke-width:14;stroke-miterlimit:10;}
</style>
<defs>
</defs>
<g>
	<path class="st0" d="M254,0C180.4,0,113.7,29.6,65.1,77.5l31.7,35.8C137.1,72.4,193.1,47,255,47c122.6,0,222,99.4,222,222
		s-99.4,222-222,222c-30.7,0-59.9-6.2-86.5-17.5l-19.1,43.4C181.5,530.5,216.9,538,254,538c148.6,0,269-120.4,269-269
		C523,120.4,402.6,0,254,0z"/>
</g>
<path class="st1" d="M467.8,141.6C490.1,178.8,503,222.4,503,269c0,137-111,248-248,248C118,517,7,406,7,269
	c0-27.7,4.5-54.4,12.9-79.2"/>
</svg>
