<?xml version="1.0" encoding="utf-8"?>
<!-- Generator: Adobe Illustrator 19.2.0, SVG Export Plug-In . SVG Version: 6.00 Build 0)  -->
<svg version="1.1" id="Layer_1" xmlns="http://www.w3.org/2000/svg" xmlns:xlink="http://www.w3.org/1999/xlink" x="0px" y="0px"
	 viewBox="0 0 292.2 101.5" style="enable-background:new 0 0 292.2 101.5;" xml:space="preserve">
<style type="text/css">
	.st0{enable-background:new    ;}
	.st1{fill:#FFFFFF;}
	.st2{fill:#2980BA;}
</style>
<g class="st0">
	<path class="st1" d="M10.2,25.7L2.1,2.4h6.6l4.5,14.4l4.4-14.4h6.7l-8.1,23.3v16.8h-6V25.7z"/>
	<path class="st1" d="M36.5,2c2.7,0,4.9,0.9,6.8,2.8c1.9,1.9,2.8,4.1,2.8,6.8v21.9c0,2.7-0.9,4.9-2.8,6.8c-1.9,1.9-4.1,2.8-6.8,2.8
		c-2.7,0-4.9-0.9-6.8-2.8s-2.8-4.1-2.8-6.8V11.6c0-2.7,0.9-4.9,2.8-6.8C31.6,2.9,33.9,2,36.5,2z M39.8,11.4c0-1-0.3-1.8-1-2.4
		c-0.7-0.7-1.5-1-2.4-1c-1,0-1.8,0.3-2.5,1c-0.7,0.7-1,1.5-1,2.4v21.9c0,1,0.3,1.8,1,2.4c0.7,0.7,1.5,1,2.5,1c1,0,1.8-0.3,2.4-1
		c0.7-0.7,1-1.5,1-2.4V11.4z"/>
	<path class="st1" d="M60.9,43c-2.7,0-4.9-0.9-6.8-2.8s-2.8-4.1-2.8-6.7v-31h5.9v30.9c0,1,0.3,1.8,1,2.4c0.7,0.7,1.5,1,2.5,1
		c1,0,1.8-0.3,2.4-1c0.7-0.7,1-1.5,1-2.4V2.5h6.3v31c0,2.7-0.9,4.9-2.8,6.8C65.8,42.1,63.6,43,60.9,43z"/>
	<path class="st1" d="M92.6,43c-2.7,0-4.9-0.9-6.8-2.8c-1.9-1.9-2.8-4.1-2.8-6.8V11.6c0-2.7,0.9-4.9,2.8-6.8C87.7,3,89.9,2,92.6,2
		c2.7,0,4.9,0.9,6.8,2.8c1.9,1.9,2.8,4.1,2.8,6.8v4.6h-6.3v-4.7c0-1-0.3-1.8-1-2.5c-0.7-0.7-1.5-1-2.5-1c-1,0-1.8,0.3-2.4,1
		c-0.7,0.7-1,1.5-1,2.5v21.9c0,1,0.3,1.8,1,2.4c0.7,0.7,1.5,1,2.4,1c1,0,1.8-0.3,2.5-1c0.7-0.7,1-1.5,1-2.4v-5.5h6.3v5.6
		c0,2.7-0.9,4.9-2.8,6.8C97.4,42.1,95.2,43,92.6,43z"/>
	<path class="st1" d="M113.1,25.6v17h-6v-40h6v17h7.3v-17h6v40h-6v-17H113.1z"/>
	<path class="st1" d="M141.3,2c2.7,0,4.9,0.9,6.8,2.8c1.9,1.9,2.8,4.1,2.8,6.8v21.9c0,2.7-0.9,4.9-2.8,6.8c-1.9,1.9-4.1,2.8-6.8,2.8
		c-2.7,0-4.9-0.9-6.8-2.8s-2.8-4.1-2.8-6.8V11.6c0-2.7,0.9-4.9,2.8-6.8C136.5,2.9,138.7,2,141.3,2z M144.6,11.4c0-1-0.3-1.8-1-2.4
		c-0.7-0.7-1.5-1-2.4-1c-1,0-1.8,0.3-2.5,1c-0.7,0.7-1,1.5-1,2.4v21.9c0,1,0.3,1.8,1,2.4c0.7,0.7,1.5,1,2.5,1c1,0,1.8-0.3,2.4-1
		c0.7-0.7,1-1.5,1-2.4V11.4z"/>
	<path class="st1" d="M175.8,32.6c0,2.8-0.7,5.2-2.2,7.2c-1,1.3-2.4,2.3-4.2,2.8c-1,0.3-2.1,0.4-3.4,0.4c-2.4,0-4.3-0.6-5.9-1.8
		c-1.3-1-2.3-2.3-3.1-3.9c-0.8-1.7-1.2-3.5-1.3-5.7l5.8-0.4c0.3,2.3,0.9,4,1.9,5.1c0.7,0.8,1.6,1.2,2.5,1.1c1.3,0,2.4-0.7,3.2-2
		c0.4-0.6,0.6-1.5,0.6-2.7c0-1.7-0.8-3.3-2.3-5c-1.2-1.1-3-2.8-5.4-5.1c-2-1.9-3.4-3.7-4.2-5.2c-0.9-1.7-1.3-3.6-1.3-5.6
		c0-3.6,1.2-6.4,3.7-8.3c1.5-1.1,3.4-1.7,5.6-1.7c2.2,0,4,0.5,5.5,1.4c1.2,0.7,2.2,1.8,2.9,3.1c0.7,1.3,1.2,2.9,1.3,4.6l-5.8,1.1
		c-0.2-1.6-0.6-2.9-1.4-3.8c-0.6-0.7-1.4-1-2.4-1c-1.1,0-1.9,0.5-2.5,1.5c-0.5,0.8-0.7,1.8-0.7,2.9c0,1.8,0.8,3.7,2.4,5.6
		c0.6,0.7,1.5,1.6,2.7,2.6c1.4,1.2,2.3,2,2.8,2.5c1.5,1.5,2.6,3,3.5,4.4c0.4,0.7,0.7,1.3,0.9,1.9C175.5,30.1,175.8,31.4,175.8,32.6z
		"/>
	<path class="st1" d="M180.9,42.5V2.4h17.2v6.1h-11.2v10.9h8.1v6.1h-8.1v10.9h11.2v6.1H180.9z"/>
</g>
<g class="st0">
	<path class="st2" d="M227.3,32.6c0,2.8-0.7,5.2-2.2,7.2c-1,1.3-2.4,2.3-4.2,2.8c-1,0.3-2.1,0.4-3.4,0.4c-2.4,0-4.3-0.6-5.9-1.8
		c-1.3-1-2.3-2.3-3.1-3.9c-0.8-1.7-1.2-3.5-1.3-5.7l5.8-0.4c0.3,2.3,0.9,4,1.9,5.1c0.7,0.8,1.6,1.2,2.5,1.1c1.3,0,2.4-0.7,3.2-2
		c0.4-0.6,0.6-1.5,0.6-2.7c0-1.7-0.8-3.3-2.3-5c-1.2-1.1-3-2.8-5.4-5.1c-2-1.9-3.4-3.7-4.2-5.2c-0.9-1.7-1.3-3.6-1.3-5.6
		c0-3.6,1.2-6.4,3.7-8.3c1.5-1.1,3.4-1.7,5.6-1.7c2.2,0,4,0.5,5.5,1.4c1.2,0.7,2.2,1.8,2.9,3.1c0.7,1.3,1.2,2.9,1.3,4.6l-5.8,1.1
		c-0.2-1.6-0.6-2.9-1.4-3.8c-0.6-0.7-1.4-1-2.4-1c-1.1,0-1.9,0.5-2.5,1.5c-0.5,0.8-0.7,1.8-0.7,2.9c0,1.8,0.8,3.7,2.4,5.6
		c0.6,0.7,1.5,1.6,2.7,2.6c1.4,1.2,2.3,2,2.8,2.5c1.5,1.5,2.6,3,3.5,4.4c0.4,0.7,0.7,1.3,0.9,1.9C226.9,30.1,227.2,31.4,227.3,32.6z
		"/>
	<path class="st2" d="M238.5,33.3l-1.5,9.2h-6.3l6.8-40h8.3l6.7,40h-6.4l-1.4-9.2H238.5z M241.7,11.7l-2.2,15.8h4.5L241.7,11.7z"/>
	<path class="st2" d="M276.6,32.9c0,2.6-0.9,4.9-2.8,6.8s-4.1,2.8-6.7,2.8h-9.5V2.4h9.5c2.6,0,4.9,0.9,6.7,2.8
		c1.8,1.9,2.8,4.1,2.8,6.7V32.9z M263.7,36.5h3.6c1,0,1.8-0.3,2.4-1c0.7-0.7,1-1.5,1-2.4v-21c0-1-0.3-1.8-1-2.5s-1.5-1-2.4-1h-3.6
		V36.5z"/>
</g>
<g class="st0">
	<path class="st1" d="M280.6,42.5v-6h6v6l-2.2,4.6h-2.5l1.4-4.6H280.6z"/>
</g>
<g class="st0">
	<path class="st1" d="M21.1,85.1c0,2.6-0.9,4.9-2.8,6.8s-4.1,2.8-6.7,2.8H2.1V54.6h9.5c2.6,0,4.9,0.9,6.7,2.8
		c1.8,1.9,2.8,4.1,2.8,6.7V85.1z M8.1,88.7h3.6c1,0,1.8-0.3,2.4-1c0.7-0.7,1-1.5,1-2.4v-21c0-1-0.3-1.8-1-2.5c-0.7-0.7-1.5-1-2.4-1
		H8.1V88.7z"/>
	<path class="st1" d="M32.4,94.7h-6v-40h6V94.7z"/>
	<path class="st1" d="M56.8,85.1c0,2.6-0.9,4.9-2.8,6.8s-4.1,2.8-6.7,2.8h-9.5V54.6h9.5c2.6,0,4.9,0.9,6.7,2.8
		c1.8,1.9,2.8,4.1,2.8,6.7V85.1z M43.8,88.7h3.6c1,0,1.8-0.3,2.4-1c0.7-0.7,1-1.5,1-2.4v-21c0-1-0.3-1.8-1-2.5c-0.7-0.7-1.5-1-2.4-1
		h-3.6V88.7z"/>
	<path class="st1" d="M73.2,77.9l-8.1-23.3h6.6L76.2,69l4.4-14.4h6.7l-8.1,23.3v16.8h-6V77.9z"/>
	<path class="st1" d="M99.5,54.2c2.7,0,4.9,0.9,6.8,2.8c1.9,1.9,2.8,4.1,2.8,6.8v21.9c0,2.7-0.9,4.9-2.8,6.8
		c-1.9,1.9-4.1,2.8-6.8,2.8c-2.7,0-4.9-0.9-6.8-2.8S90,88.3,90,85.6V63.8c0-2.7,0.9-4.9,2.8-6.8C94.7,55.1,96.9,54.2,99.5,54.2z
		 M102.8,63.6c0-1-0.3-1.8-1-2.4c-0.7-0.7-1.5-1-2.4-1c-1,0-1.8,0.3-2.5,1c-0.7,0.7-1,1.5-1,2.4v21.9c0,1,0.3,1.8,1,2.4
		c0.7,0.7,1.5,1,2.5,1c1,0,1.8-0.3,2.4-1c0.7-0.7,1-1.5,1-2.4V63.6z"/>
	<path class="st1" d="M123.9,95.2c-2.7,0-4.9-0.9-6.8-2.8s-2.8-4.1-2.8-6.7v-31h5.9v30.9c0,1,0.3,1.8,1,2.4c0.7,0.7,1.5,1,2.5,1
		c1,0,1.8-0.3,2.4-1c0.7-0.7,1-1.5,1-2.4V54.7h6.3v31c0,2.7-0.9,4.9-2.8,6.8C128.8,94.3,126.6,95.2,123.9,95.2z"/>
	<path class="st1" d="M152,82v12.7h-6V54.6h6v14.3l7.4-14.3h6.4L157.6,71l9.7,23.7h-7.1l-6.3-16.3L152,82z"/>
	<path class="st1" d="M179,54.6l8,26.9V54.6h6v40.1h-6.5l-8.3-25.7v25.7h-6V54.6H179z"/>
	<path class="st1" d="M207.9,54.2c2.7,0,4.9,0.9,6.8,2.8c1.9,1.9,2.8,4.1,2.8,6.8v21.9c0,2.7-0.9,4.9-2.8,6.8
		c-1.9,1.9-4.1,2.8-6.8,2.8c-2.7,0-4.9-0.9-6.8-2.8s-2.8-4.1-2.8-6.8V63.8c0-2.7,0.9-4.9,2.8-6.8S205.3,54.2,207.9,54.2z
		 M211.2,63.6c0-1-0.3-1.8-1-2.4c-0.7-0.7-1.5-1-2.4-1s-1.8,0.3-2.5,1c-0.7,0.7-1,1.5-1,2.4v21.9c0,1,0.3,1.8,1,2.4
		c0.7,0.7,1.5,1,2.5,1s1.8-0.3,2.4-1s1-1.5,1-2.4V63.6z"/>
	<path class="st1" d="M246.5,54.7h6.3l-6.3,40h-5.8l-3.4-22l-3.2,22h-5.8l-6.7-40h6.3l3.2,21.4l2.9-21.4h6.3l3.2,21.4L246.5,54.7z"
		/>
</g>
</svg>
