<!-- Generator: Adobe Illustrator 18.1.1, SVG Export Plug-In  -->
<svg version="1.1"
	 xmlns="http://www.w3.org/2000/svg" xmlns:xlink="http://www.w3.org/1999/xlink" xmlns:a="http://ns.adobe.com/AdobeSVGViewerExtensions/3.0/"
	 x="0px" y="0px" width="2135.6px" height="2057.8px" viewBox="0 0 2135.6 2057.8" enable-background="new 0 0 2135.6 2057.8"
	 xml:space="preserve">
<defs>
</defs>
<path fill="#242C33" d="M0,0v1583.7h1877.6V0H0z M943.6,1034.4c-133.1,0-241-107.9-241-241c0-133.1,107.9-241,241-241
	s241,107.9,241,241C1184.5,926.5,1076.7,1034.4,943.6,1034.4z"/>
<path fill="#F6E9C1" d="M36,0v2057.8h2099.6V0H36z M927.3,1241.6c-248.5,0-449.9-201.4-449.9-449.9s201.4-449.9,449.9-449.9
	s449.9,201.4,449.9,449.9S1175.7,1241.6,927.3,1241.6z"/>
</svg>
