<?xml version="1.0" encoding="utf-8"?>
<!-- Generator: Adobe Illustrator 19.2.0, SVG Export Plug-In . SVG Version: 6.00 Build 0)  -->
<svg version="1.1" id="Layer_1" xmlns="http://www.w3.org/2000/svg" xmlns:xlink="http://www.w3.org/1999/xlink" x="0px" y="0px"
	 viewBox="0 0 161.9 161.9" style="enable-background:new 0 0 161.9 161.9;" xml:space="preserve">
<style type="text/css">
	.st0{fill:#5CB3E4;}
	.st1{fill:none;}
	.st2{enable-background:new    ;}
	.st3{fill:#D9EBF2;}
</style>
<circle class="st0" cx="80.9" cy="80.9" r="80.9"/>
<rect x="0.4" y="34.9" class="st1" width="161" height="100.4"/>
<g class="st2">
	<path class="st3" d="M12.7,38.6H8.3v-3.6h12.6v3.6h-4.4v23h-3.8L12.7,38.6L12.7,38.6z"/>
	<path class="st3" d="M22.6,34.9h3.8v11.4h4.7V34.9h3.8v26.6h-3.8V49.7h-4.7v11.9h-3.8V34.9z"/>
	<path class="st3" d="M38.4,34.9h11.4v3.6h-7.6v7.8h6.6v3.6h-6.6v7.8h7.6v3.8H38.4V34.9z"/>
	<path class="st3" d="M59.3,34.9h6.1c4.5,0,6.7,2.6,6.7,7.8c0,1.5-0.2,2.9-0.7,4s-1.3,2-2.6,2.7l4.1,12.2h-4l-3.6-11.4h-2.2v11.4
		h-3.8V34.9z M63.1,46.8h2.2c0.7,0,1.2-0.1,1.6-0.3c0.4-0.2,0.7-0.5,0.9-0.8c0.2-0.3,0.4-0.8,0.4-1.3c0.1-0.5,0.1-1.1,0.1-1.8
		c0-0.7,0-1.3-0.1-1.8s-0.2-0.9-0.5-1.3c-0.2-0.4-0.6-0.6-1-0.8c-0.4-0.2-1-0.3-1.7-0.3h-2v8.4H63.1z"/>
	<path class="st3" d="M74.9,41.3c0-1.1,0.2-2,0.6-2.8s0.9-1.5,1.5-2s1.3-0.9,2.1-1.2c0.8-0.3,1.5-0.4,2.3-0.4c0.8,0,1.5,0.1,2.3,0.4
		s1.4,0.7,2.1,1.2c0.6,0.5,1.1,1.2,1.5,2s0.6,1.8,0.6,2.8v14.1c0,1.1-0.2,2.1-0.6,2.9c-0.4,0.8-0.9,1.5-1.5,2s-1.3,0.9-2.1,1.2
		c-0.8,0.3-1.5,0.4-2.3,0.4s-1.5-0.1-2.3-0.4s-1.4-0.7-2.1-1.2s-1.1-1.2-1.5-2S75,56.5,75,55.4L74.9,41.3L74.9,41.3z M78.8,55.3
		c0,0.9,0.3,1.6,0.8,2s1.1,0.7,1.8,0.7c0.7,0,1.3-0.2,1.8-0.7c0.5-0.4,0.8-1.1,0.8-2V41.2c0-0.9-0.3-1.6-0.8-2s-1.1-0.7-1.8-0.7
		c-0.7,0-1.3,0.2-1.8,0.7c-0.5,0.4-0.8,1.1-0.8,2V55.3z"/>
	<path class="st3" d="M91.1,34.9h3.8v22.8h7.6v3.8H91.1L91.1,34.9L91.1,34.9z"/>
	<path class="st3" d="M105,34.9h11.4v3.6h-7.6v7.8h6.6v3.6h-6.6v7.8h7.6v3.8H105V34.9z"/>
	<path class="st3" d="M125.6,41.3c0-1.1,0.2-2,0.6-2.8c0.4-0.8,0.9-1.5,1.5-2s1.3-0.9,2.1-1.2c0.8-0.3,1.5-0.4,2.3-0.4
		s1.5,0.1,2.3,0.4s1.4,0.7,2.1,1.2c0.6,0.5,1.1,1.2,1.5,2s0.6,1.8,0.6,2.8v14.1c0,1.1-0.2,2.1-0.6,2.9c-0.4,0.8-0.9,1.5-1.5,2
		s-1.3,0.9-2.1,1.2c-0.8,0.3-1.5,0.4-2.3,0.4s-1.5-0.1-2.3-0.4s-1.4-0.7-2.1-1.2s-1.1-1.2-1.5-2s-0.6-1.8-0.6-2.9V41.3z M129.3,55.3
		c0,0.9,0.3,1.6,0.8,2s1.1,0.7,1.8,0.7s1.3-0.2,1.8-0.7c0.5-0.4,0.8-1.1,0.8-2V41.2c0-0.9-0.3-1.6-0.8-2s-1.1-0.7-1.8-0.7
		s-1.3,0.2-1.8,0.7c-0.5,0.4-0.8,1.1-0.8,2V55.3z"/>
	<path class="st3" d="M141.6,34.9h11.4v3.6h-7.6v8.1h6.6v3.6h-6.6v11.4h-3.8L141.6,34.9L141.6,34.9z"/>
</g>
<g class="st2">
	<path class="st3" d="M9.3,66.8H12l3.6,10.4h0.1l3.6-10.4H22v19.7h-2.8v-12h-0.1L16.3,83h-1.4l-2.8-8.5h0v12H9.3V66.8z"/>
	<path class="st3" d="M33.8,82.1c0,0.6-0.1,1.2-0.4,1.8s-0.6,1-1,1.5c-0.4,0.4-0.9,0.7-1.5,1c-0.6,0.2-1.1,0.4-1.8,0.4
		c-0.6,0-1.2-0.1-1.8-0.4c-0.6-0.2-1-0.6-1.5-1c-0.4-0.4-0.7-0.9-1-1.5c-0.2-0.6-0.4-1.2-0.4-1.8V66.8h2.8v15c0,0.7,0.2,1.2,0.5,1.6
		c0.3,0.3,0.7,0.5,1.2,0.5s0.9-0.2,1.2-0.5c0.3-0.3,0.5-0.8,0.5-1.6v-15h2.8v15.3H33.8z"/>
	<path class="st3" d="M45.6,72.4h-2.8v-0.6c0-0.6-0.2-1.2-0.5-1.7s-0.8-0.7-1.5-0.7c-0.4,0-0.7,0.1-1,0.2s-0.4,0.3-0.6,0.6
		c-0.1,0.2-0.2,0.5-0.3,0.8c-0.1,0.3-0.1,0.6-0.1,1s0,0.7,0,1s0.1,0.5,0.2,0.7s0.3,0.4,0.5,0.5s0.5,0.3,0.9,0.4l2.2,0.9
		c0.6,0.2,1.1,0.5,1.5,0.8s0.7,0.7,0.9,1.1c0.2,0.4,0.4,0.9,0.4,1.5s0.1,1.2,0.1,1.9c0,0.8-0.1,1.6-0.2,2.3s-0.4,1.3-0.8,1.8
		s-0.9,0.9-1.5,1.2c-0.6,0.3-1.4,0.4-2.3,0.4c-0.7,0-1.3-0.1-1.9-0.4c-0.6-0.2-1.1-0.6-1.5-1s-0.8-0.9-1-1.5s-0.4-1.2-0.4-1.9v-1.1
		h2.8v0.9c0,0.5,0.2,1,0.5,1.4s0.8,0.6,1.5,0.6c0.5,0,0.9-0.1,1.1-0.2s0.5-0.3,0.6-0.6c0.1-0.2,0.2-0.6,0.3-0.9s0.1-0.8,0.1-1.2
		c0-0.5,0-0.9-0.1-1.3s-0.1-0.6-0.2-0.8c-0.1-0.2-0.3-0.4-0.5-0.5s-0.5-0.3-0.8-0.4l-2-0.8c-1.2-0.5-2-1.2-2.5-2
		c-0.4-0.8-0.6-1.9-0.6-3.1c0-0.7,0.1-1.4,0.3-2.1s0.5-1.2,0.9-1.7s0.9-0.9,1.5-1.1s1.3-0.4,2.1-0.4c0.7,0,1.3,0.1,1.9,0.4
		s1.1,0.6,1.5,1s0.7,0.9,1,1.4c0.2,0.5,0.3,1.1,0.3,1.6V72.4z"/>
	<path class="st3" d="M47.8,66.8h2.8v19.7h-2.8V66.8z"/>
	<path class="st3" d="M62.3,82.1c0,0.6-0.1,1.2-0.3,1.7c-0.2,0.6-0.5,1-1,1.5c-0.4,0.4-0.9,0.7-1.4,1c-0.5,0.2-1.1,0.4-1.8,0.4
		c-0.5,0-1.1-0.1-1.6-0.2s-1.1-0.4-1.5-0.8s-0.8-0.8-1.1-1.4c-0.3-0.6-0.4-1.3-0.4-2.2V71.2c0-0.6,0.1-1.2,0.3-1.8
		c0.2-0.6,0.5-1,0.9-1.4s0.9-0.7,1.5-1c0.6-0.2,1.2-0.3,1.9-0.3c0.6,0,1.2,0.1,1.8,0.3c0.6,0.2,1,0.6,1.4,1s0.7,0.9,1,1.5
		c0.2,0.6,0.3,1.2,0.3,1.9v1.1h-2.8v-0.9c0-0.6-0.2-1-0.5-1.4s-0.7-0.6-1.3-0.6c-0.7,0-1.2,0.2-1.4,0.7c-0.2,0.4-0.3,1-0.3,1.6V82
		c0,0.6,0.1,1.1,0.4,1.4c0.2,0.4,0.7,0.6,1.3,0.6c0.2,0,0.4,0,0.6-0.1s0.4-0.2,0.6-0.3c0.2-0.1,0.3-0.4,0.4-0.6
		c0.1-0.3,0.2-0.6,0.2-1v-1h2.8V82.1z"/>
	<path class="st3" d="M69.8,66.8h2.8v19.7h-2.8V66.8z"/>
	<path class="st3" d="M75.3,66.8H78l4.3,11.9h0.1V66.8h2.8v19.7h-2.7l-4.3-11.9H78v11.9h-2.8L75.3,66.8L75.3,66.8z"/>
	<path class="st3" d="M92.8,66.8h2.8v8.4h3.5v-8.4h2.8v19.7h-2.8v-8.8h-3.5v8.8h-2.8V66.8z"/>
	<path class="st3" d="M113.8,82.1c0,0.6-0.1,1.2-0.4,1.8c-0.2,0.6-0.6,1-1,1.5c-0.4,0.4-0.9,0.7-1.5,1c-0.6,0.2-1.1,0.4-1.8,0.4
		c-0.6,0-1.2-0.1-1.8-0.4c-0.6-0.2-1-0.6-1.5-1c-0.4-0.4-0.7-0.9-1-1.5s-0.4-1.2-0.4-1.8V66.8h2.8v15c0,0.7,0.2,1.2,0.5,1.6
		c0.3,0.3,0.7,0.5,1.2,0.5s0.9-0.2,1.2-0.5s0.5-0.8,0.5-1.6v-15h2.8v15.3H113.8z"/>
	<path class="st3" d="M116.5,66.8h2.7l3.6,10.4h0.1l3.6-10.4h2.7v19.7h-2.8v-12h-0.1l-2.8,8.5h-1.4l-2.8-8.5h-0.1v12h-2.8
		L116.5,66.8L116.5,66.8z"/>
	<path class="st3" d="M135,66.8h2.4l4.4,19.7H139l-0.8-4.2h-3.9l-0.8,4.2h-2.8L135,66.8z M136.1,72.4L136.1,72.4l-1.4,7.1h2.8
		L136.1,72.4z"/>
	<path class="st3" d="M143.1,66.8h2.7l4.3,11.9h0.1V66.8h2.8v19.7h-2.7l-4.3-11.9h-0.1v11.9h-2.8V66.8z"/>
</g>
<g class="st2">
	<path class="st3" d="M25.3,121.9c0,1.2-0.2,2.4-0.7,3.5s-1.1,2.1-1.9,2.9s-1.8,1.5-2.9,2s-2.3,0.7-3.5,0.7c-1.1,0-2.2-0.1-3.3-0.4
		c-1.1-0.3-2.1-0.8-3-1.5s-1.6-1.7-2.2-2.9c-0.6-1.2-0.9-2.7-0.9-4.5v-21.7c0-1.3,0.2-2.5,0.7-3.6c0.4-1.1,1.1-2.1,1.9-2.9
		s1.8-1.4,2.9-1.9s2.4-0.7,3.7-0.7c1.3,0,2.5,0.2,3.6,0.7s2.1,1.1,2.9,1.9s1.4,1.8,1.9,3s0.7,2.4,0.7,3.8v2.2h-5.7v-1.9
		c0-1.1-0.3-2.1-0.9-2.9s-1.5-1.2-2.5-1.2c-1.4,0-2.3,0.4-2.8,1.3s-0.7,2-0.7,3.3v20.2c0,1.1,0.2,2.1,0.7,2.9s1.4,1.2,2.7,1.2
		c0.4,0,0.8-0.1,1.2-0.2c0.4-0.1,0.8-0.3,1.2-0.6c0.4-0.3,0.6-0.7,0.9-1.2c0.2-0.5,0.3-1.2,0.3-1.9v-1.9h5.7L25.3,121.9L25.3,121.9z
		"/>
	<path class="st3" d="M48.2,121.9c0,1.3-0.2,2.5-0.7,3.6s-1.1,2.1-2,2.9s-1.8,1.5-2.9,2s-2.3,0.7-3.5,0.7c-1.3,0-2.4-0.2-3.5-0.7
		s-2.1-1.1-2.9-2s-1.5-1.8-2-2.9s-0.7-2.3-0.7-3.6V91.3h5.7v30c0,1.4,0.3,2.4,1,3.1s1.5,1,2.5,1s1.8-0.3,2.5-1s1-1.7,1-3.1v-30h5.7
		v30.6H48.2z"/>
	<path class="st3" d="M53.4,91.3h5.7v33.8h11.2v5.7H53.6V91.3H53.4z"/>
	<path class="st3" d="M73.6,96.7h-6.5v-5.3h18.7v5.3h-6.5v34.1h-5.7V96.7z"/>
	<path class="st3" d="M106.6,121.9c0,1.3-0.2,2.5-0.7,3.6s-1.1,2.1-2,2.9s-1.8,1.5-2.9,2c-1.1,0.5-2.3,0.7-3.5,0.7s-2.4-0.2-3.5-0.7
		s-2.1-1.1-2.9-2s-1.5-1.8-2-2.9s-0.7-2.3-0.7-3.6V91.3H94v30c0,1.4,0.3,2.4,1,3.1s1.5,1,2.5,1s1.8-0.3,2.5-1s1-1.7,1-3.1v-30h5.7
		v30.6H106.6z"/>
	<path class="st3" d="M111.8,91.3h9.1c6.6,0,10,3.9,10,11.6c0,2.3-0.4,4.3-1.1,5.9c-0.7,1.6-2,3-3.8,4l6.1,18h-6l-5.3-16.8h-3.4
		v16.8h-5.7V91.3H111.8z M117.5,108.9h3.2c1,0,1.8-0.1,2.4-0.4c0.6-0.3,1-0.7,1.4-1.2c0.3-0.5,0.5-1.2,0.6-1.9
		c0.1-0.8,0.2-1.6,0.2-2.6s-0.1-1.9-0.2-2.6c-0.1-0.8-0.3-1.4-0.7-1.9s-0.8-0.9-1.5-1.2c-0.6-0.3-1.5-0.4-2.5-0.4h-2.9V108.9z"/>
	<path class="st3" d="M135.5,91.3h16.8v5.3h-11.2v11.6h9.8v5.3h-9.8v11.6h11.2v5.7h-16.8V91.3z"/>
</g>
</svg>
