<?xml version="1.0" encoding="utf-8"?>
<!-- Generator: Adobe Illustrator 19.2.0, SVG Export Plug-In . SVG Version: 6.00 Build 0)  -->
<svg version="1.1" id="Layer_1" xmlns="http://www.w3.org/2000/svg" xmlns:xlink="http://www.w3.org/1999/xlink" x="0px" y="0px"
	 viewBox="0 0 161.9 161.9" style="enable-background:new 0 0 161.9 161.9;" xml:space="preserve">
<style type="text/css">
	.st0{fill:#5CB3E4;}
	.st1{fill:none;}
	.st2{enable-background:new    ;}
	.st3{fill:#D9EBF2;}
</style>
<circle class="st0" cx="510.9" cy="383.9" r="80.9"/>
<rect x="430.4" y="337.9" class="st1" width="161" height="100.4"/>
<g class="st2">
	<path class="st3" d="M442.6,341.5h-4.4v-3.6h12.6v3.6h-4.4v23h-3.8V341.5z"/>
	<path class="st3" d="M452.5,337.9h3.8v11.4h4.7v-11.4h3.8v26.6H461v-11.9h-4.7v11.9h-3.8V337.9z"/>
	<path class="st3" d="M468.4,337.9h11.4v3.6h-7.6v7.8h6.6v3.6h-6.6v7.8h7.6v3.8h-11.4V337.9z"/>
	<path class="st3" d="M489.2,337.9h6.1c4.5,0,6.7,2.6,6.7,7.8c0,1.5-0.2,2.9-0.7,4c-0.5,1.1-1.3,2-2.6,2.7l4.1,12.2h-4l-3.6-11.4
		H493v11.4h-3.8V337.9z M493,349.8h2.2c0.7,0,1.2-0.1,1.6-0.3c0.4-0.2,0.7-0.5,0.9-0.8c0.2-0.3,0.4-0.8,0.4-1.3
		c0.1-0.5,0.1-1.1,0.1-1.8c0-0.7,0-1.3-0.1-1.8c-0.1-0.5-0.2-0.9-0.5-1.3c-0.2-0.4-0.6-0.6-1-0.8c-0.4-0.2-1-0.3-1.7-0.3h-2V349.8z"
		/>
	<path class="st3" d="M504.9,344.2c0-1.1,0.2-2,0.6-2.8c0.4-0.8,0.9-1.5,1.5-2c0.6-0.5,1.3-0.9,2.1-1.2c0.8-0.3,1.5-0.4,2.3-0.4
		c0.8,0,1.5,0.1,2.3,0.4c0.8,0.3,1.4,0.7,2.1,1.2c0.6,0.5,1.1,1.2,1.5,2c0.4,0.8,0.6,1.8,0.6,2.8v14.1c0,1.1-0.2,2.1-0.6,2.9
		c-0.4,0.8-0.9,1.5-1.5,2s-1.3,0.9-2.1,1.2c-0.8,0.3-1.5,0.4-2.3,0.4c-0.8,0-1.5-0.1-2.3-0.4c-0.8-0.3-1.4-0.7-2.1-1.2
		s-1.1-1.2-1.5-2c-0.4-0.8-0.6-1.8-0.6-2.9V344.2z M508.7,358.2c0,0.9,0.3,1.6,0.8,2c0.5,0.4,1.1,0.7,1.8,0.7c0.7,0,1.3-0.2,1.8-0.7
		c0.5-0.4,0.8-1.1,0.8-2v-14.1c0-0.9-0.3-1.6-0.8-2c-0.5-0.4-1.1-0.7-1.8-0.7c-0.7,0-1.3,0.2-1.8,0.7c-0.5,0.4-0.8,1.1-0.8,2V358.2z
		"/>
	<path class="st3" d="M521.1,337.9h3.8v22.8h7.6v3.8h-11.4V337.9z"/>
	<path class="st3" d="M534.9,337.9h11.4v3.6h-7.6v7.8h6.6v3.6h-6.6v7.8h7.6v3.8h-11.4V337.9z"/>
	<path class="st3" d="M555.5,344.2c0-1.1,0.2-2,0.6-2.8c0.4-0.8,0.9-1.5,1.5-2c0.6-0.5,1.3-0.9,2.1-1.2c0.8-0.3,1.5-0.4,2.3-0.4
		c0.8,0,1.5,0.1,2.3,0.4c0.8,0.3,1.4,0.7,2.1,1.2c0.6,0.5,1.1,1.2,1.5,2c0.4,0.8,0.6,1.8,0.6,2.8v14.1c0,1.1-0.2,2.1-0.6,2.9
		c-0.4,0.8-0.9,1.5-1.5,2s-1.3,0.9-2.1,1.2c-0.8,0.3-1.5,0.4-2.3,0.4c-0.8,0-1.5-0.1-2.3-0.4c-0.8-0.3-1.4-0.7-2.1-1.2
		s-1.1-1.2-1.5-2c-0.4-0.8-0.6-1.8-0.6-2.9V344.2z M559.3,358.2c0,0.9,0.3,1.6,0.8,2c0.5,0.4,1.1,0.7,1.8,0.7c0.7,0,1.3-0.2,1.8-0.7
		c0.5-0.4,0.8-1.1,0.8-2v-14.1c0-0.9-0.3-1.6-0.8-2c-0.5-0.4-1.1-0.7-1.8-0.7c-0.7,0-1.3,0.2-1.8,0.7c-0.5,0.4-0.8,1.1-0.8,2V358.2z
		"/>
	<path class="st3" d="M571.6,337.9H583v3.6h-7.6v8.1h6.6v3.6h-6.6v11.4h-3.8V337.9z"/>
</g>
<g class="st2">
	<path class="st3" d="M439.2,369.7h2.7l3.6,10.4h0.1l3.6-10.4h2.7v19.7h-2.8v-12H449l-2.8,8.5h-1.4l-2.8-8.5H442v12h-2.8V369.7z"/>
	<path class="st3" d="M463.7,385c0,0.6-0.1,1.2-0.4,1.8s-0.6,1-1,1.5c-0.4,0.4-0.9,0.7-1.5,1c-0.6,0.2-1.1,0.4-1.8,0.4
		c-0.6,0-1.2-0.1-1.8-0.4c-0.6-0.2-1-0.6-1.5-1c-0.4-0.4-0.7-0.9-1-1.5c-0.2-0.6-0.4-1.2-0.4-1.8v-15.3h2.8v15
		c0,0.7,0.2,1.2,0.5,1.6c0.3,0.3,0.7,0.5,1.2,0.5c0.5,0,0.9-0.2,1.2-0.5c0.3-0.3,0.5-0.8,0.5-1.6v-15h2.8V385z"/>
	<path class="st3" d="M475.5,375.4h-2.8v-0.6c0-0.6-0.2-1.2-0.5-1.7s-0.8-0.7-1.5-0.7c-0.4,0-0.7,0.1-1,0.2s-0.4,0.3-0.6,0.6
		c-0.1,0.2-0.2,0.5-0.3,0.8c-0.1,0.3-0.1,0.6-0.1,1c0,0.4,0,0.7,0,1c0,0.3,0.1,0.5,0.2,0.7c0.1,0.2,0.3,0.4,0.5,0.5
		c0.2,0.1,0.5,0.3,0.9,0.4l2.2,0.9c0.6,0.2,1.1,0.5,1.5,0.8c0.4,0.3,0.7,0.7,0.9,1.1c0.2,0.4,0.4,0.9,0.4,1.5s0.1,1.2,0.1,1.9
		c0,0.8-0.1,1.6-0.2,2.3s-0.4,1.3-0.8,1.8c-0.4,0.5-0.9,0.9-1.5,1.2c-0.6,0.3-1.4,0.4-2.3,0.4c-0.7,0-1.3-0.1-1.9-0.4
		c-0.6-0.2-1.1-0.6-1.5-1c-0.4-0.4-0.8-0.9-1-1.5c-0.2-0.6-0.4-1.2-0.4-1.9v-1.1h2.8v0.9c0,0.5,0.2,1,0.5,1.4
		c0.3,0.4,0.8,0.6,1.5,0.6c0.5,0,0.9-0.1,1.1-0.2s0.5-0.3,0.6-0.6c0.1-0.2,0.2-0.6,0.3-0.9s0.1-0.8,0.1-1.2c0-0.5,0-0.9-0.1-1.3
		s-0.1-0.6-0.2-0.8c-0.1-0.2-0.3-0.4-0.5-0.5c-0.2-0.1-0.5-0.3-0.8-0.4l-2-0.8c-1.2-0.5-2-1.2-2.5-2c-0.4-0.8-0.6-1.9-0.6-3.1
		c0-0.7,0.1-1.4,0.3-2.1s0.5-1.2,0.9-1.7c0.4-0.5,0.9-0.9,1.5-1.1s1.3-0.4,2.1-0.4c0.7,0,1.3,0.1,1.9,0.4c0.6,0.3,1.1,0.6,1.5,1
		c0.4,0.4,0.7,0.9,1,1.4c0.2,0.5,0.3,1.1,0.3,1.6V375.4z"/>
	<path class="st3" d="M477.7,369.7h2.8v19.7h-2.8V369.7z"/>
	<path class="st3" d="M492.2,385c0,0.6-0.1,1.2-0.3,1.7c-0.2,0.6-0.5,1-1,1.5c-0.4,0.4-0.9,0.7-1.4,1c-0.5,0.2-1.1,0.4-1.8,0.4
		c-0.5,0-1.1-0.1-1.6-0.2s-1.1-0.4-1.5-0.8s-0.8-0.8-1.1-1.4c-0.3-0.6-0.4-1.3-0.4-2.2v-10.9c0-0.6,0.1-1.2,0.3-1.8
		c0.2-0.6,0.5-1,0.9-1.4c0.4-0.4,0.9-0.7,1.5-1c0.6-0.2,1.2-0.3,1.9-0.3c0.6,0,1.2,0.1,1.8,0.3c0.6,0.2,1,0.6,1.4,1
		c0.4,0.4,0.7,0.9,1,1.5c0.2,0.6,0.3,1.2,0.3,1.9v1.1h-2.8v-0.9c0-0.6-0.2-1-0.5-1.4c-0.3-0.4-0.7-0.6-1.3-0.6
		c-0.7,0-1.2,0.2-1.4,0.7c-0.2,0.4-0.3,1-0.3,1.6v10.1c0,0.6,0.1,1.1,0.4,1.4c0.2,0.4,0.7,0.6,1.3,0.6c0.2,0,0.4,0,0.6-0.1
		c0.2-0.1,0.4-0.2,0.6-0.3c0.2-0.1,0.3-0.4,0.4-0.6c0.1-0.3,0.2-0.6,0.2-1v-1h2.8V385z"/>
	<path class="st3" d="M499.8,369.7h2.8v19.7h-2.8V369.7z"/>
	<path class="st3" d="M505.2,369.7h2.7l4.3,11.9h0.1v-11.9h2.8v19.7h-2.7l-4.3-11.9h-0.1v11.9h-2.8V369.7z"/>
	<path class="st3" d="M522.8,369.7h2.8v8.4h3.5v-8.4h2.8v19.7h-2.8v-8.8h-3.5v8.8h-2.8V369.7z"/>
	<path class="st3" d="M543.7,385c0,0.6-0.1,1.2-0.4,1.8c-0.2,0.6-0.6,1-1,1.5c-0.4,0.4-0.9,0.7-1.5,1c-0.6,0.2-1.1,0.4-1.8,0.4
		c-0.6,0-1.2-0.1-1.8-0.4c-0.6-0.2-1-0.6-1.5-1c-0.4-0.4-0.7-0.9-1-1.5s-0.4-1.2-0.4-1.8v-15.3h2.8v15c0,0.7,0.2,1.2,0.5,1.6
		c0.3,0.3,0.7,0.5,1.2,0.5c0.5,0,0.9-0.2,1.2-0.5c0.3-0.3,0.5-0.8,0.5-1.6v-15h2.8V385z"/>
	<path class="st3" d="M546.4,369.7h2.7l3.6,10.4h0.1l3.6-10.4h2.7v19.7h-2.8v-12h-0.1l-2.8,8.5h-1.4l-2.8-8.5h-0.1v12h-2.8V369.7z"
		/>
	<path class="st3" d="M564.9,369.7h2.4l4.4,19.7h-2.8l-0.8-4.2h-3.9l-0.8,4.2h-2.8L564.9,369.7z M566.1,375.4L566.1,375.4l-1.4,7.1
		h2.8L566.1,375.4z"/>
	<path class="st3" d="M573,369.7h2.7l4.3,11.9h0.1v-11.9h2.8v19.7h-2.7l-4.3-11.9h-0.1v11.9H573V369.7z"/>
</g>
<g class="st2">
</g>
<g class="st2">
	<path class="st3" d="M455.2,424.9c0,1.2-0.2,2.4-0.7,3.5c-0.5,1.1-1.1,2.1-1.9,2.9s-1.8,1.5-2.9,2c-1.1,0.5-2.3,0.7-3.5,0.7
		c-1.1,0-2.2-0.1-3.3-0.4c-1.1-0.3-2.1-0.8-3-1.5c-0.9-0.7-1.6-1.7-2.2-2.9c-0.6-1.2-0.9-2.7-0.9-4.5V403c0-1.3,0.2-2.5,0.7-3.6
		c0.4-1.1,1.1-2.1,1.9-2.9c0.8-0.8,1.8-1.4,2.9-1.9c1.1-0.5,2.4-0.7,3.7-0.7c1.3,0,2.5,0.2,3.6,0.7c1.1,0.5,2.1,1.1,2.9,1.9
		c0.8,0.8,1.4,1.8,1.9,3c0.5,1.2,0.7,2.4,0.7,3.8v2.2h-5.7v-1.9c0-1.1-0.3-2.1-0.9-2.9c-0.6-0.8-1.5-1.2-2.5-1.2
		c-1.4,0-2.3,0.4-2.8,1.3c-0.5,0.9-0.7,2-0.7,3.3v20.2c0,1.1,0.2,2.1,0.7,2.9c0.5,0.8,1.4,1.2,2.7,1.2c0.4,0,0.8-0.1,1.2-0.2
		c0.4-0.1,0.8-0.3,1.2-0.6c0.4-0.3,0.6-0.7,0.9-1.2c0.2-0.5,0.3-1.2,0.3-1.9v-1.9h5.7V424.9z"/>
	<path class="st3" d="M478.1,424.9c0,1.3-0.2,2.5-0.7,3.6c-0.5,1.1-1.1,2.1-2,2.9s-1.8,1.5-2.9,2c-1.1,0.5-2.3,0.7-3.5,0.7
		c-1.3,0-2.4-0.2-3.5-0.7c-1.1-0.5-2.1-1.1-2.9-2s-1.5-1.8-2-2.9c-0.5-1.1-0.7-2.3-0.7-3.6v-30.6h5.7v30c0,1.4,0.3,2.4,1,3.1
		c0.7,0.7,1.5,1,2.5,1c1,0,1.8-0.3,2.5-1c0.7-0.7,1-1.7,1-3.1v-30h5.7V424.9z"/>
	<path class="st3" d="M483.4,394.3h5.7v33.8h11.2v5.7h-16.8V394.3z"/>
	<path class="st3" d="M503.5,399.6H497v-5.3h18.7v5.3h-6.5v34.1h-5.7V399.6z"/>
	<path class="st3" d="M536.5,424.9c0,1.3-0.2,2.5-0.7,3.6c-0.5,1.1-1.1,2.1-2,2.9s-1.8,1.5-2.9,2c-1.1,0.5-2.3,0.7-3.5,0.7
		s-2.4-0.2-3.5-0.7c-1.1-0.5-2.1-1.1-2.9-2s-1.5-1.8-2-2.9c-0.5-1.1-0.7-2.3-0.7-3.6v-30.6h5.7v30c0,1.4,0.3,2.4,1,3.1
		c0.7,0.7,1.5,1,2.5,1c1,0,1.8-0.3,2.5-1c0.7-0.7,1-1.7,1-3.1v-30h5.7V424.9z"/>
	<path class="st3" d="M541.8,394.3h9.1c6.6,0,10,3.9,10,11.6c0,2.3-0.4,4.3-1.1,5.9c-0.7,1.6-2,3-3.8,4l6.1,18h-6l-5.3-16.8h-3.4
		v16.8h-5.7V394.3z M547.4,411.9h3.2c1,0,1.8-0.1,2.4-0.4c0.6-0.3,1-0.7,1.4-1.2c0.3-0.5,0.5-1.2,0.6-1.9c0.1-0.8,0.2-1.6,0.2-2.6
		s-0.1-1.9-0.2-2.6c-0.1-0.8-0.3-1.4-0.7-1.9c-0.4-0.5-0.8-0.9-1.5-1.2c-0.6-0.3-1.5-0.4-2.5-0.4h-2.9V411.9z"/>
	<path class="st3" d="M565.4,394.3h16.8v5.3H571v11.6h9.8v5.3H571v11.6h11.2v5.7h-16.8V394.3z"/>
</g>
</svg>
