<!-- Generator: Adobe Illustrator 18.1.1, SVG Export Plug-In  -->
<svg version="1.1"
	 xmlns="http://www.w3.org/2000/svg" xmlns:xlink="http://www.w3.org/1999/xlink" xmlns:a="http://ns.adobe.com/AdobeSVGViewerExtensions/3.0/"
	 x="0px" y="0px" width="397.5px" height="220.1px" viewBox="0 0 397.5 220.1" enable-background="new 0 0 397.5 220.1"
	 xml:space="preserve">
<defs>
</defs>
<rect x="208.5" y="161.1" fill="#783765" width="189" height="59"/>
<text transform="matrix(1 0 0 1 221.5526 186.3586)"><tspan x="0" y="0" fill="#FFFFFF" font-family="'Futura-Medium'" font-size="16">Music can help reduce  </tspan><tspan x="0" y="19.2" fill="#FFFFFF" font-family="'Futura-Medium'" font-size="16">perception of pain.</tspan></text>
<g opacity="0.3">
	<path fill="#65317A" d="M207.5,187.2h-71.8l-29.9-84.6c-0.8,0-1.5,0-2.3,0c-0.7,0-1.3,0-2,0c0,0.3,0.1,0.7,0.2,1l31.6,87.6h74.2
		c1.1,0,2-0.9,2-2C209.5,188,208.6,187.2,207.5,187.2z"/>
</g>
<g>
	<path fill="#242C33" d="M197,0c-0.2,0-0.4,0-0.6,0h1.2C197.5,0,197.3,0,197,0z"/>
	<path fill="#242C33" d="M207,10c-0.1,0.7-0.2,1.5-0.2,2.2C207,11.5,207,10.8,207,10C207,10,207,10,207,10z"/>
	<g>
		<path opacity="0.3" fill="#ED1C24" d="M0,10c0,0.9,0.1,1.7,0.3,2.5C0.2,11.6,0.1,10.6,0,9.7C0,9.8,0,9.9,0,10z"/>
		<path opacity="0.3" fill="#ED1C24" d="M197.7,0h-1.2H10.6H9.4C4.2,0.3,0.2,4.5,0,9.7c0.1,0.9,0.2,1.9,0.3,2.8
			c6.3,50.2,50.1,89,103.2,89c53.2,0,97.1-39,103.3-89.3c0.1-0.7,0.2-1.5,0.2-2.2C207,4.7,202.9,0.4,197.7,0z"/>
	</g>
</g>
<g>
	<text transform="matrix(1 0 0 1 52.5678 50.7647)" fill="#FFFFFF" font-family="'BebasNeueBold'" font-size="25">CEREBELLUM</text>
</g>
</svg>
