<?xml version="1.0" encoding="utf-8"?>
<!-- Generator: Adobe Illustrator 19.2.0, SVG Export Plug-In . SVG Version: 6.00 Build 0)  -->
<svg version="1.1" id="Layer_1" xmlns="http://www.w3.org/2000/svg" xmlns:xlink="http://www.w3.org/1999/xlink" x="0px" y="0px"
	 viewBox="0 0 397.5 220.1" style="enable-background:new 0 0 397.5 220.1;" xml:space="preserve">
<style type="text/css">
	.st0{fill:#783765;}
	.st1{enable-background:new    ;}
	.st2{fill:#FFFFFF;}
	.st3{opacity:0.3;}
	.st4{fill:#65317A;}
	.st5{fill:#242C33;}
	.st6{opacity:0.3;fill:#ED1C24;enable-background:new    ;}
</style>
<rect x="208.5" y="161.1" class="st0" width="189" height="59"/>
<g class="st1">
	<path class="st2" d="M222.6,186.4l2.5-13l4.1,9.4l4.3-9.4l2.3,13H234l-1.2-7.3l-3.6,7.8l-3.5-7.8l-1.3,7.3H222.6z"/>
	<path class="st2" d="M239.8,178.7v4.4c0,1.3,0.5,1.9,1.5,1.9c1,0,1.5-0.6,1.5-1.9v-4.4h1.8v4.4c0,0.6-0.1,1.1-0.2,1.6
		c-0.1,0.4-0.4,0.8-0.8,1.1c-0.6,0.5-1.3,0.8-2.3,0.8c-0.9,0-1.7-0.3-2.3-0.8c-0.4-0.3-0.6-0.7-0.8-1.1c-0.1-0.4-0.2-0.9-0.2-1.6
		v-4.4H239.8z"/>
	<path class="st2" d="M251.2,180l-1.5,0.8c-0.2-0.5-0.5-0.7-0.9-0.7c-0.2,0-0.3,0.1-0.4,0.2c-0.1,0.1-0.2,0.2-0.2,0.4
		c0,0.3,0.3,0.6,1,0.9c0.9,0.4,1.6,0.8,1.9,1.1c0.3,0.3,0.5,0.8,0.5,1.4c0,0.7-0.3,1.3-0.8,1.8c-0.5,0.5-1.2,0.7-1.9,0.7
		c-1.3,0-2.2-0.6-2.7-1.9l1.5-0.7c0.2,0.4,0.4,0.6,0.5,0.7c0.2,0.2,0.5,0.3,0.8,0.3c0.6,0,0.9-0.3,0.9-0.8c0-0.3-0.2-0.6-0.7-0.9
		c-0.2-0.1-0.4-0.2-0.5-0.3c-0.2-0.1-0.4-0.2-0.5-0.3c-0.5-0.2-0.9-0.5-1.1-0.8c-0.3-0.3-0.4-0.7-0.4-1.2c0-0.7,0.2-1.2,0.7-1.6
		c0.5-0.4,1-0.6,1.7-0.6C250,178.5,250.7,179,251.2,180z"/>
	<path class="st2" d="M253,175.6c0-0.3,0.1-0.6,0.3-0.8c0.2-0.2,0.5-0.3,0.8-0.3c0.3,0,0.6,0.1,0.8,0.3c0.2,0.2,0.3,0.5,0.3,0.8
		s-0.1,0.6-0.3,0.8c-0.2,0.2-0.5,0.3-0.8,0.3c-0.3,0-0.6-0.1-0.8-0.3C253.1,176.2,253,175.9,253,175.6z M255,178.7v7.6h-1.8v-7.6
		H255z"/>
	<path class="st2" d="M263.2,179.1v2.3c-0.4-0.5-0.8-0.8-1.1-1c-0.3-0.2-0.7-0.3-1.1-0.3c-0.7,0-1.2,0.2-1.6,0.7s-0.7,1-0.7,1.7
		c0,0.7,0.2,1.3,0.6,1.8c0.4,0.5,1,0.7,1.6,0.7c0.4,0,0.8-0.1,1.1-0.3c0.3-0.2,0.7-0.5,1.1-1v2.3c-0.7,0.4-1.4,0.6-2.1,0.6
		c-1.2,0-2.2-0.4-3-1.1c-0.8-0.8-1.2-1.7-1.2-2.9s0.4-2.1,1.2-2.9c0.8-0.8,1.8-1.2,3-1.2C261.8,178.5,262.5,178.7,263.2,179.1z"/>
	<path class="st2" d="M275.7,179.1v2.3c-0.4-0.5-0.8-0.8-1.1-1c-0.3-0.2-0.7-0.3-1.1-0.3c-0.7,0-1.2,0.2-1.6,0.7s-0.7,1-0.7,1.7
		c0,0.7,0.2,1.3,0.6,1.8c0.4,0.5,1,0.7,1.6,0.7c0.4,0,0.8-0.1,1.1-0.3c0.3-0.2,0.7-0.5,1.1-1v2.3c-0.7,0.4-1.4,0.6-2.1,0.6
		c-1.2,0-2.2-0.4-3-1.1c-0.8-0.8-1.2-1.7-1.2-2.9s0.4-2.1,1.2-2.9c0.8-0.8,1.8-1.2,3-1.2C274.3,178.5,275.1,178.7,275.7,179.1z"/>
	<path class="st2" d="M283,178.7h1.8v7.6H283v-0.8c-0.7,0.7-1.5,1-2.3,1c-1.1,0-1.9-0.4-2.6-1.1c-0.7-0.8-1-1.7-1-2.9
		c0-1.1,0.3-2.1,1-2.9c0.7-0.8,1.5-1.1,2.6-1.1c0.9,0,1.7,0.4,2.4,1.1V178.7z M278.9,182.5c0,0.7,0.2,1.3,0.6,1.8
		c0.4,0.5,0.9,0.7,1.5,0.7c0.7,0,1.2-0.2,1.6-0.7c0.4-0.5,0.6-1.1,0.6-1.8s-0.2-1.3-0.6-1.8c-0.4-0.5-0.9-0.7-1.6-0.7
		c-0.6,0-1.1,0.2-1.5,0.7C279.1,181.3,278.9,181.8,278.9,182.5z"/>
	<path class="st2" d="M287,178.7h1.8v0.7c0.6-0.6,1.3-0.9,2.1-0.9c0.9,0,1.6,0.3,2.1,0.8c0.4,0.5,0.6,1.2,0.6,2.3v4.7h-1.8v-4.2
		c0-0.8-0.1-1.3-0.3-1.6c-0.2-0.3-0.6-0.4-1.1-0.4c-0.6,0-1,0.2-1.2,0.6c-0.2,0.4-0.4,1-0.4,2v3.7H287V178.7z"/>
	<path class="st2" d="M300.7,173.2h1.8v6.2c0.6-0.6,1.3-0.8,2.1-0.8c0.9,0,1.5,0.3,2.1,0.8c0.4,0.5,0.7,1.3,0.7,2.3v4.7h-1.8v-4.5
		c0-0.6-0.1-1.1-0.3-1.3c-0.2-0.3-0.6-0.4-1-0.4c-0.6,0-1,0.2-1.3,0.6c-0.2,0.4-0.4,1-0.4,2v3.7h-1.8V173.2z"/>
	<path class="st2" d="M316.4,183H311c0,0.6,0.2,1.1,0.6,1.5c0.4,0.4,0.8,0.5,1.4,0.5c0.4,0,0.8-0.1,1.1-0.3c0.3-0.2,0.6-0.6,1-1.2
		l1.5,0.8c-0.2,0.4-0.5,0.7-0.7,1c-0.3,0.3-0.5,0.5-0.8,0.7c-0.3,0.2-0.6,0.3-0.9,0.4c-0.3,0.1-0.7,0.1-1.1,0.1
		c-1.1,0-2-0.4-2.7-1.1c-0.7-0.7-1-1.7-1-2.9c0-1.2,0.3-2.2,1-2.9c0.7-0.7,1.6-1.1,2.7-1.1c1.1,0,2,0.4,2.7,1.1c0.6,0.7,1,1.7,1,2.9
		L316.4,183z M314.6,181.5c-0.2-0.9-0.8-1.4-1.8-1.4c-0.2,0-0.4,0-0.6,0.1s-0.4,0.2-0.5,0.3c-0.2,0.1-0.3,0.3-0.4,0.4
		s-0.2,0.4-0.2,0.6H314.6z"/>
	<path class="st2" d="M320.1,173.2v13.2h-1.8v-13.2H320.1z"/>
	<path class="st2" d="M324.1,190.5h-1.8v-11.8h1.8v0.8c0.7-0.7,1.5-1,2.4-1c1,0,1.9,0.4,2.6,1.2c0.7,0.8,1,1.7,1,2.9
		c0,1.1-0.3,2.1-1,2.9c-0.7,0.8-1.5,1.1-2.6,1.1c-0.9,0-1.7-0.4-2.4-1.1V190.5z M328.3,182.6c0-0.7-0.2-1.3-0.6-1.8
		c-0.4-0.5-0.9-0.7-1.5-0.7c-0.6,0-1.2,0.2-1.6,0.7c-0.4,0.4-0.6,1-0.6,1.8c0,0.7,0.2,1.3,0.6,1.8c0.4,0.5,0.9,0.7,1.6,0.7
		c0.6,0,1.1-0.2,1.5-0.7C328.1,183.9,328.3,183.3,328.3,182.6z"/>
	<path class="st2" d="M336.9,178.7h1.8v0.7c0.3-0.3,0.6-0.6,0.9-0.7c0.3-0.1,0.6-0.2,0.9-0.2c0.5,0,0.9,0.2,1.5,0.5l-0.8,1.6
		c-0.3-0.2-0.7-0.4-1-0.4c-1,0-1.4,0.7-1.4,2.2v3.9h-1.8V178.7z"/>
	<path class="st2" d="M349.7,183h-5.5c0,0.6,0.2,1.1,0.6,1.5c0.4,0.4,0.8,0.5,1.4,0.5c0.4,0,0.8-0.1,1.1-0.3c0.3-0.2,0.6-0.6,1-1.2
		l1.5,0.8c-0.2,0.4-0.5,0.7-0.7,1c-0.3,0.3-0.5,0.5-0.8,0.7c-0.3,0.2-0.6,0.3-0.9,0.4c-0.3,0.1-0.7,0.1-1.1,0.1
		c-1.1,0-2-0.4-2.7-1.1c-0.7-0.7-1-1.7-1-2.9c0-1.2,0.3-2.2,1-2.9c0.7-0.7,1.6-1.1,2.7-1.1c1.1,0,2,0.4,2.7,1.1c0.6,0.7,1,1.7,1,2.9
		L349.7,183z M347.9,181.5c-0.2-0.9-0.8-1.4-1.8-1.4c-0.2,0-0.4,0-0.6,0.1s-0.4,0.2-0.5,0.3c-0.2,0.1-0.3,0.3-0.4,0.4
		s-0.2,0.4-0.2,0.6H347.9z"/>
	<path class="st2" d="M357.2,173.2h1.8v13.2h-1.8v-0.8c-0.7,0.7-1.5,1-2.4,1c-1,0-1.9-0.4-2.6-1.1c-0.7-0.8-1-1.7-1-2.9
		c0-1.1,0.3-2.1,1-2.8c0.7-0.8,1.5-1.1,2.6-1.1c0.9,0,1.7,0.4,2.4,1.1V173.2z M353,182.5c0,0.7,0.2,1.3,0.6,1.8
		c0.4,0.5,0.9,0.7,1.5,0.7c0.7,0,1.2-0.2,1.6-0.7c0.4-0.5,0.6-1.1,0.6-1.8s-0.2-1.3-0.6-1.8c-0.4-0.5-0.9-0.7-1.6-0.7
		c-0.6,0-1.1,0.2-1.5,0.7C353.2,181.3,353,181.8,353,182.5z"/>
	<path class="st2" d="M363,178.7v4.4c0,1.3,0.5,1.9,1.5,1.9c1,0,1.5-0.6,1.5-1.9v-4.4h1.8v4.4c0,0.6-0.1,1.1-0.2,1.6
		c-0.1,0.4-0.4,0.8-0.8,1.1c-0.6,0.5-1.3,0.8-2.3,0.8c-0.9,0-1.7-0.3-2.3-0.8c-0.4-0.3-0.6-0.7-0.8-1.1c-0.1-0.4-0.2-0.9-0.2-1.6
		v-4.4H363z"/>
	<path class="st2" d="M375.8,179.1v2.3c-0.4-0.5-0.8-0.8-1.1-1c-0.3-0.2-0.7-0.3-1.1-0.3c-0.7,0-1.2,0.2-1.6,0.7s-0.7,1-0.7,1.7
		c0,0.7,0.2,1.3,0.6,1.8c0.4,0.5,1,0.7,1.6,0.7c0.4,0,0.8-0.1,1.1-0.3c0.3-0.2,0.7-0.5,1.1-1v2.3c-0.7,0.4-1.4,0.6-2.1,0.6
		c-1.2,0-2.2-0.4-3-1.1c-0.8-0.8-1.2-1.7-1.2-2.9s0.4-2.1,1.2-2.9c0.8-0.8,1.8-1.2,3-1.2C374.5,178.5,375.2,178.7,375.8,179.1z"/>
	<path class="st2" d="M384.5,183H379c0,0.6,0.2,1.1,0.6,1.5c0.4,0.4,0.8,0.5,1.4,0.5c0.4,0,0.8-0.1,1.1-0.3c0.3-0.2,0.6-0.6,1-1.2
		l1.5,0.8c-0.2,0.4-0.5,0.7-0.7,1c-0.3,0.3-0.5,0.5-0.8,0.7c-0.3,0.2-0.6,0.3-0.9,0.4c-0.3,0.1-0.7,0.1-1.1,0.1
		c-1.1,0-2-0.4-2.7-1.1c-0.7-0.7-1-1.7-1-2.9c0-1.2,0.3-2.2,1-2.9c0.7-0.7,1.6-1.1,2.7-1.1c1.1,0,2,0.4,2.7,1.1c0.6,0.7,1,1.7,1,2.9
		L384.5,183z M382.7,181.5c-0.2-0.9-0.8-1.4-1.8-1.4c-0.2,0-0.4,0-0.6,0.1s-0.4,0.2-0.5,0.3c-0.2,0.1-0.3,0.3-0.4,0.4
		s-0.2,0.4-0.2,0.6H382.7z"/>
</g>
<g class="st1">
	<path class="st2" d="M224.4,209.7h-1.8v-11.8h1.8v0.8c0.7-0.7,1.5-1,2.4-1c1,0,1.9,0.4,2.6,1.2c0.7,0.8,1,1.7,1,2.9
		c0,1.1-0.3,2.1-1,2.9c-0.7,0.8-1.5,1.1-2.6,1.1c-0.9,0-1.7-0.4-2.4-1.1V209.7z M228.6,201.8c0-0.7-0.2-1.3-0.6-1.8
		c-0.4-0.5-0.9-0.7-1.5-0.7c-0.6,0-1.2,0.2-1.6,0.7c-0.4,0.4-0.6,1-0.6,1.8c0,0.7,0.2,1.3,0.6,1.8c0.4,0.5,0.9,0.7,1.6,0.7
		c0.6,0,1.1-0.2,1.5-0.7C228.4,203.1,228.6,202.5,228.6,201.8z"/>
	<path class="st2" d="M239.2,202.2h-5.5c0,0.6,0.2,1.1,0.6,1.5c0.4,0.4,0.8,0.5,1.4,0.5c0.4,0,0.8-0.1,1.1-0.3
		c0.3-0.2,0.6-0.6,1-1.2l1.5,0.8c-0.2,0.4-0.5,0.7-0.7,1c-0.3,0.3-0.5,0.5-0.8,0.7c-0.3,0.2-0.6,0.3-0.9,0.4
		c-0.3,0.1-0.7,0.1-1.1,0.1c-1.1,0-2-0.4-2.7-1.1c-0.7-0.7-1-1.7-1-2.9c0-1.2,0.3-2.2,1-2.9c0.7-0.7,1.6-1.1,2.7-1.1
		c1.1,0,2,0.4,2.7,1.1c0.6,0.7,1,1.7,1,2.9L239.2,202.2z M237.4,200.7c-0.2-0.9-0.8-1.4-1.8-1.4c-0.2,0-0.4,0-0.6,0.1
		s-0.4,0.2-0.5,0.3c-0.2,0.1-0.3,0.3-0.4,0.4s-0.2,0.4-0.2,0.6H237.4z"/>
	<path class="st2" d="M241.1,197.9h1.8v0.7c0.3-0.3,0.6-0.6,0.9-0.7c0.3-0.1,0.6-0.2,0.9-0.2c0.5,0,0.9,0.2,1.5,0.5l-0.8,1.6
		c-0.3-0.2-0.7-0.4-1-0.4c-1,0-1.4,0.7-1.4,2.2v3.9h-1.8V197.9z"/>
	<path class="st2" d="M252.9,198.3v2.3c-0.4-0.5-0.8-0.8-1.1-1c-0.3-0.2-0.7-0.3-1.1-0.3c-0.7,0-1.2,0.2-1.6,0.7s-0.7,1-0.7,1.7
		c0,0.7,0.2,1.3,0.6,1.8c0.4,0.5,1,0.7,1.6,0.7c0.4,0,0.8-0.1,1.1-0.3c0.3-0.2,0.7-0.5,1.1-1v2.3c-0.7,0.4-1.4,0.6-2.1,0.6
		c-1.2,0-2.2-0.4-3-1.1c-0.8-0.8-1.2-1.7-1.2-2.9s0.4-2.1,1.2-2.9c0.8-0.8,1.8-1.2,3-1.2C251.5,197.7,252.2,197.9,252.9,198.3z"/>
	<path class="st2" d="M261.5,202.2h-5.5c0,0.6,0.2,1.1,0.6,1.5c0.4,0.4,0.8,0.5,1.4,0.5c0.4,0,0.8-0.1,1.1-0.3
		c0.3-0.2,0.6-0.6,1-1.2l1.5,0.8c-0.2,0.4-0.5,0.7-0.7,1c-0.3,0.3-0.5,0.5-0.8,0.7c-0.3,0.2-0.6,0.3-0.9,0.4
		c-0.3,0.1-0.7,0.1-1.1,0.1c-1.1,0-2-0.4-2.7-1.1c-0.7-0.7-1-1.7-1-2.9c0-1.2,0.3-2.2,1-2.9c0.7-0.7,1.6-1.1,2.7-1.1
		c1.1,0,2,0.4,2.7,1.1c0.6,0.7,1,1.7,1,2.9L261.5,202.2z M259.7,200.7c-0.2-0.9-0.8-1.4-1.8-1.4c-0.2,0-0.4,0-0.6,0.1
		s-0.4,0.2-0.5,0.3c-0.2,0.1-0.3,0.3-0.4,0.4s-0.2,0.4-0.2,0.6H259.7z"/>
	<path class="st2" d="M265.2,209.7h-1.8v-11.8h1.8v0.8c0.7-0.7,1.5-1,2.4-1c1,0,1.9,0.4,2.6,1.2c0.7,0.8,1,1.7,1,2.9
		c0,1.1-0.3,2.1-1,2.9c-0.7,0.8-1.5,1.1-2.6,1.1c-0.9,0-1.7-0.4-2.4-1.1V209.7z M269.4,201.8c0-0.7-0.2-1.3-0.6-1.8
		c-0.4-0.5-0.9-0.7-1.5-0.7c-0.6,0-1.2,0.2-1.6,0.7c-0.4,0.4-0.6,1-0.6,1.8c0,0.7,0.2,1.3,0.6,1.8c0.4,0.5,0.9,0.7,1.6,0.7
		c0.6,0,1.1-0.2,1.5-0.7C269.2,203.1,269.4,202.5,269.4,201.8z"/>
	<path class="st2" d="M275,199.6v6h-1.8v-6h-0.8v-1.6h0.8v-2.8h1.8v2.8h1.4v1.6H275z"/>
	<path class="st2" d="M277.3,194.8c0-0.3,0.1-0.6,0.3-0.8c0.2-0.2,0.5-0.3,0.8-0.3c0.3,0,0.6,0.1,0.8,0.3c0.2,0.2,0.3,0.5,0.3,0.8
		s-0.1,0.6-0.3,0.8c-0.2,0.2-0.5,0.3-0.8,0.3c-0.3,0-0.6-0.1-0.8-0.3C277.4,195.4,277.3,195.1,277.3,194.8z M279.3,197.9v7.6h-1.8
		v-7.6H279.3z"/>
	<path class="st2" d="M281.2,201.7c0-1.1,0.4-2,1.2-2.8c0.8-0.8,1.7-1.2,2.9-1.2c1.1,0,2.1,0.4,2.9,1.2c0.8,0.8,1.2,1.7,1.2,2.9
		c0,1.1-0.4,2.1-1.2,2.9c-0.8,0.8-1.8,1.1-2.9,1.1c-1.1,0-2.1-0.4-2.9-1.2C281.5,203.8,281.2,202.9,281.2,201.7z M283,201.7
		c0,0.8,0.2,1.4,0.6,1.8c0.4,0.4,1,0.7,1.6,0.7c0.7,0,1.2-0.2,1.6-0.7c0.4-0.4,0.6-1,0.6-1.8s-0.2-1.3-0.6-1.8
		c-0.4-0.4-1-0.7-1.6-0.7c-0.7,0-1.2,0.2-1.6,0.7C283.2,200.4,283,201,283,201.7z"/>
	<path class="st2" d="M291.1,197.9h1.8v0.7c0.6-0.6,1.3-0.9,2.1-0.9c0.9,0,1.6,0.3,2.1,0.8c0.4,0.5,0.6,1.2,0.6,2.3v4.7h-1.8v-4.2
		c0-0.8-0.1-1.3-0.3-1.6c-0.2-0.3-0.6-0.4-1.1-0.4c-0.6,0-1,0.2-1.2,0.6c-0.2,0.4-0.4,1-0.4,2v3.7h-1.8V197.9z"/>
	<path class="st2" d="M304.5,201.7c0-1.1,0.4-2,1.2-2.8c0.8-0.8,1.7-1.2,2.9-1.2c1.1,0,2.1,0.4,2.9,1.2c0.8,0.8,1.2,1.7,1.2,2.9
		c0,1.1-0.4,2.1-1.2,2.9c-0.8,0.8-1.8,1.1-2.9,1.1c-1.1,0-2.1-0.4-2.9-1.2C304.9,203.8,304.5,202.9,304.5,201.7z M306.3,201.7
		c0,0.8,0.2,1.4,0.6,1.8c0.4,0.4,1,0.7,1.6,0.7c0.7,0,1.2-0.2,1.6-0.7c0.4-0.4,0.6-1,0.6-1.8s-0.2-1.3-0.6-1.8
		c-0.4-0.4-1-0.7-1.6-0.7c-0.7,0-1.2,0.2-1.6,0.7C306.5,200.4,306.3,201,306.3,201.7z"/>
	<path class="st2" d="M316.3,199.6v6h-1.8v-6h-0.6v-1.6h0.6V195c0-1,0.2-1.6,0.5-2c0.5-0.6,1.1-0.8,2-0.8c0.3,0,0.7,0.1,1.2,0.3v1.8
		l-0.2-0.1c-0.4-0.2-0.7-0.3-0.9-0.3c-0.3,0-0.5,0.1-0.6,0.3c-0.1,0.2-0.2,0.6-0.2,1.3v2.5h1.9v1.6H316.3z"/>
	<path class="st2" d="M325.9,209.7h-1.8v-11.8h1.8v0.8c0.7-0.7,1.5-1,2.4-1c1,0,1.9,0.4,2.6,1.2c0.7,0.8,1,1.7,1,2.9
		c0,1.1-0.3,2.1-1,2.9c-0.7,0.8-1.5,1.1-2.6,1.1c-0.9,0-1.7-0.4-2.4-1.1V209.7z M330.1,201.8c0-0.7-0.2-1.3-0.6-1.8
		c-0.4-0.5-0.9-0.7-1.5-0.7c-0.6,0-1.2,0.2-1.6,0.7c-0.4,0.4-0.6,1-0.6,1.8c0,0.7,0.2,1.3,0.6,1.8c0.4,0.5,0.9,0.7,1.6,0.7
		c0.6,0,1.1-0.2,1.5-0.7C329.9,203.1,330.1,202.5,330.1,201.8z"/>
	<path class="st2" d="M339.4,197.9h1.8v7.6h-1.8v-0.8c-0.7,0.7-1.5,1-2.3,1c-1.1,0-1.9-0.4-2.6-1.1c-0.7-0.8-1-1.7-1-2.9
		c0-1.1,0.3-2.1,1-2.9c0.7-0.8,1.5-1.1,2.6-1.1c0.9,0,1.7,0.4,2.4,1.1V197.9z M335.2,201.7c0,0.7,0.2,1.3,0.6,1.8
		c0.4,0.5,0.9,0.7,1.5,0.7c0.7,0,1.2-0.2,1.6-0.7c0.4-0.5,0.6-1.1,0.6-1.8s-0.2-1.3-0.6-1.8c-0.4-0.5-0.9-0.7-1.6-0.7
		c-0.6,0-1.1,0.2-1.5,0.7C335.4,200.5,335.2,201,335.2,201.7z"/>
	<path class="st2" d="M343.1,194.8c0-0.3,0.1-0.6,0.3-0.8c0.2-0.2,0.5-0.3,0.8-0.3c0.3,0,0.6,0.1,0.8,0.3c0.2,0.2,0.3,0.5,0.3,0.8
		s-0.1,0.6-0.3,0.8c-0.2,0.2-0.5,0.3-0.8,0.3c-0.3,0-0.6-0.1-0.8-0.3C343.2,195.4,343.1,195.1,343.1,194.8z M345.1,197.9v7.6h-1.8
		v-7.6H345.1z"/>
	<path class="st2" d="M347.3,197.9h1.8v0.7c0.6-0.6,1.3-0.9,2.1-0.9c0.9,0,1.6,0.3,2.1,0.8c0.4,0.5,0.6,1.2,0.6,2.3v4.7h-1.8v-4.2
		c0-0.8-0.1-1.3-0.3-1.6c-0.2-0.3-0.6-0.4-1.1-0.4c-0.6,0-1,0.2-1.2,0.6c-0.2,0.4-0.4,1-0.4,2v3.7h-1.8V197.9z"/>
	<path class="st2" d="M356.4,204.7c0-0.3,0.1-0.5,0.3-0.8c0.2-0.2,0.5-0.3,0.8-0.3s0.6,0.1,0.8,0.3c0.2,0.2,0.3,0.5,0.3,0.8
		c0,0.3-0.1,0.6-0.3,0.8c-0.2,0.2-0.5,0.3-0.8,0.3c-0.3,0-0.6-0.1-0.8-0.3C356.5,205.3,356.4,205,356.4,204.7z"/>
</g>
<g class="st3">
	<path class="st4" d="M207.5,187.2h-71.8l-29.9-84.6c-0.8,0-1.5,0-2.3,0c-0.7,0-1.3,0-2,0c0,0.3,0.1,0.7,0.2,1l31.6,87.6h74.2
		c1.1,0,2-0.9,2-2C209.5,188,208.6,187.2,207.5,187.2z"/>
</g>
<g>
	<path class="st5" d="M197,0c-0.2,0-0.4,0-0.6,0h1.2C197.5,0,197.3,0,197,0z"/>
	<path class="st5" d="M207,10c-0.1,0.7-0.2,1.5-0.2,2.2C207,11.5,207,10.8,207,10L207,10z"/>
	<g>
		<path class="st6" d="M0,10c0,0.9,0.1,1.7,0.3,2.5C0.2,11.6,0.1,10.6,0,9.7C0,9.8,0,9.9,0,10z"/>
		<path class="st6" d="M197.7,0h-1.2H10.6H9.4C4.2,0.3,0.2,4.5,0,9.7c0.1,0.9,0.2,1.9,0.3,2.8c6.3,50.2,50.1,89,103.2,89
			c53.2,0,97.1-39,103.3-89.3c0.1-0.7,0.2-1.5,0.2-2.2C207,4.7,202.9,0.4,197.7,0z"/>
	</g>
</g>
<g>
	<g class="st1">
		<path class="st2" d="M59,51c-1.5,0-2.7-0.5-3.8-1.6s-1.6-2.3-1.6-3.8V33.6c0-1.5,0.5-2.7,1.6-3.8c1-1,2.3-1.6,3.8-1.6
			c1.5,0,2.7,0.5,3.8,1.6c1,1,1.5,2.3,1.5,3.8v2.5h-3.5v-2.6c0-0.5-0.2-1-0.6-1.4c-0.4-0.4-0.8-0.6-1.4-0.6c-0.5,0-1,0.2-1.4,0.6
			C57.2,32.5,57,33,57,33.5v12.2c0,0.5,0.2,1,0.6,1.4c0.4,0.4,0.8,0.6,1.4,0.6c0.5,0,1-0.2,1.4-0.6c0.4-0.4,0.6-0.8,0.6-1.4v-3.1
			h3.5v3.1c0,1.5-0.5,2.7-1.6,3.8C61.8,50.5,60.5,51,59,51z"/>
		<path class="st2" d="M67.1,50.8V28.5h9.6v3.4h-6.2v6.1H75v3.4h-4.5v6.1h6.2v3.4H67.1z"/>
		<path class="st2" d="M84.3,28.5c1.9,0,3.2,0.5,4.1,1.5c0.8,0.9,1.2,2.2,1.2,3.8v3.2c0,1.6-0.6,2.9-1.8,4l2.5,9.7h-3.6l-2-8.4
			c-0.1,0-0.2,0-0.3,0h-1.9v8.4H79V28.5H84.3z M86.3,33.9c0-1.3-0.6-1.9-1.9-1.9h-2v7.1h2c0.5,0,1-0.2,1.4-0.6
			c0.4-0.4,0.6-0.8,0.6-1.4V33.9z"/>
		<path class="st2" d="M93.1,50.8V28.5h9.6v3.4h-6.2v6.1h4.5v3.4h-4.5v6.1h6.2v3.4H93.1z"/>
		<path class="st2" d="M105,50.8V28.5h5c1.3,0,2.5,0.3,3.6,1c0.9,0.6,1.6,1.5,2,2.8c0.2,0.7,0.3,1.5,0.3,2.4c0,1.5-0.4,2.7-1.2,3.6
			c-0.3,0.4-0.7,0.7-1.2,0.9c0.7,0.3,1.4,0.8,1.9,1.7c0.3,0.6,0.6,1.3,0.8,2.2c0.1,0.5,0.1,1,0.1,1.5c0,1.4-0.3,2.6-0.8,3.6
			c-0.4,0.8-1,1.4-1.8,1.8c-0.9,0.5-1.7,0.8-2.5,0.8H105z M108.6,37.6h1.4c1,0,1.7-0.5,2.1-1.5c0.1-0.4,0.2-0.8,0.2-1.4
			c0-0.9-0.2-1.6-0.7-2.1c-0.4-0.4-1-0.7-1.6-0.7h-1.4V37.6z M108.6,47.4h1.4c1.1,0,1.9-0.6,2.4-1.8c0.2-0.4,0.2-0.9,0.2-1.4
			c0-1.2-0.2-2.1-0.7-2.7c-0.4-0.5-1.1-0.8-1.9-0.8h-1.4V47.4z"/>
		<path class="st2" d="M119.2,50.8V28.5h9.6v3.4h-6.2v6.1h4.5v3.4h-4.5v6.1h6.2v3.4H119.2z"/>
		<path class="st2" d="M140.2,50.8H131V28.5h3.4v18.9h5.8V50.8z"/>
		<path class="st2" d="M151.6,50.8h-9.1V28.5h3.4v18.9h5.8V50.8z"/>
		<path class="st2" d="M159.2,51c-1.5,0-2.7-0.5-3.8-1.5c-1-1-1.5-2.3-1.5-3.7V28.5h3.3v17.2c0,0.5,0.2,1,0.6,1.4
			c0.4,0.4,0.8,0.6,1.4,0.6c0.5,0,1-0.2,1.4-0.6c0.4-0.4,0.6-0.8,0.6-1.4V28.5h3.5v17.2c0,1.5-0.5,2.7-1.6,3.8
			C162,50.5,160.7,51,159.2,51z"/>
		<path class="st2" d="M170.9,50.8h-3.4V28.5h4.8l3.1,16l3-16h4.6v22.3h-3.4v-14l-2.9,14h-2.7l-3.2-14V50.8z"/>
	</g>
</g>
</svg>
