<!-- Generator: Adobe Illustrator 18.1.1, SVG Export Plug-In  -->
<svg version="1.1"
	 xmlns="http://www.w3.org/2000/svg" xmlns:xlink="http://www.w3.org/1999/xlink" xmlns:a="http://ns.adobe.com/AdobeSVGViewerExtensions/3.0/"
	 x="0px" y="0px" width="804.2px" height="357.5px" viewBox="0 0 804.2 357.5" enable-background="new 0 0 804.2 357.5"
	 xml:space="preserve">
<defs>
</defs>
<g>
	<circle fill="#242C33" cx="4" cy="64.1" r="4"/>
	<circle fill="#242C33" cx="16.2" cy="64.1" r="4"/>
	<circle fill="#242C33" cx="28.4" cy="64.1" r="4"/>
	<circle fill="#242C33" cx="40.5" cy="64.1" r="4"/>
	<circle fill="#242C33" cx="4" cy="76.1" r="4"/>
	<circle fill="#242C33" cx="16.2" cy="76.1" r="4"/>
	<circle fill="#242C33" cx="28.4" cy="76.1" r="4"/>
	<circle fill="#242C33" cx="40.5" cy="76.1" r="4"/>
	<circle fill="#242C33" cx="52.7" cy="64.1" r="4"/>
	<circle fill="#242C33" cx="64.9" cy="64.1" r="4"/>
	<circle fill="#242C33" cx="28.4" cy="52.4" r="4"/>
	<circle fill="#242C33" cx="40.6" cy="52.4" r="4"/>
	<circle fill="#242C33" cx="52.8" cy="52.4" r="4"/>
	<circle fill="#242C33" cx="64.9" cy="52.4" r="4"/>
	<circle fill="#242C33" cx="77.1" cy="52.4" r="4"/>
	<circle fill="#242C33" cx="89.3" cy="52.4" r="4"/>
	<circle fill="#242C33" cx="77.1" cy="64.1" r="4"/>
	<circle fill="#242C33" cx="89.3" cy="64.1" r="4"/>
	<circle fill="#242C33" cx="52.7" cy="76.1" r="4"/>
	<circle fill="#242C33" cx="64.9" cy="76.1" r="4"/>
	<circle fill="#242C33" cx="77.1" cy="76.1" r="4"/>
	<circle fill="#242C33" cx="16.2" cy="88.6" r="4"/>
	<circle fill="#242C33" cx="28.4" cy="88.6" r="4"/>
	<circle fill="#242C33" cx="40.6" cy="88.6" r="4"/>
	<circle fill="#242C33" cx="52.8" cy="88.6" r="4"/>
	<circle fill="#242C33" cx="64.9" cy="88.6" r="4"/>
	<circle fill="#242C33" cx="77.1" cy="88.6" r="4"/>
	<circle fill="#242C33" cx="89.3" cy="88.6" r="4"/>
	<circle fill="#242C33" cx="101.5" cy="88.6" r="4"/>
	<circle fill="#242C33" cx="113.7" cy="88.6" r="4"/>
	<circle fill="#242C33" cx="125.9" cy="88.6" r="4"/>
	<circle fill="#242C33" cx="138" cy="88.6" r="4"/>
	<circle fill="#242C33" cx="89.3" cy="76.1" r="4"/>
	<circle fill="#242C33" cx="101.5" cy="64.1" r="4"/>
	<circle fill="#242C33" cx="113.7" cy="64.1" r="4"/>
	<circle fill="#242C33" cx="125.9" cy="64.1" r="4"/>
	<circle fill="#242C33" cx="138.1" cy="64.1" r="4"/>
	<circle fill="#242C33" cx="101.5" cy="76.1" r="4"/>
	<circle fill="#242C33" cx="113.7" cy="76.1" r="4"/>
	<circle fill="#242C33" cx="125.9" cy="76.1" r="4"/>
	<circle fill="#242C33" cx="138.1" cy="76.1" r="4"/>
	<circle fill="#242C33" cx="150.2" cy="64.1" r="4"/>
	<circle fill="#242C33" cx="138.1" cy="52.4" r="4"/>
	<circle fill="#242C33" cx="150.2" cy="52.4" r="4"/>
	<circle fill="#242C33" cx="150.2" cy="76.1" r="4"/>
	<circle fill="#242C33" cx="52.8" cy="100.4" r="4"/>
	<circle fill="#242C33" cx="40.6" cy="100.4" r="4"/>
	<circle fill="#242C33" cx="64.9" cy="100.4" r="4"/>
	<circle fill="#242C33" cx="77.1" cy="100.4" r="4"/>
	<circle fill="#242C33" cx="89.3" cy="100.4" r="4"/>
	<circle fill="#242C33" cx="52.8" cy="112.4" r="4"/>
	<circle fill="#242C33" cx="64.9" cy="112.4" r="4"/>
	<circle fill="#242C33" cx="77.1" cy="112.4" r="4"/>
	<circle fill="#242C33" cx="89.3" cy="112.4" r="4"/>
	<circle fill="#242C33" cx="101.6" cy="100.4" r="4"/>
	<circle fill="#242C33" cx="113.8" cy="100.4" r="4"/>
	<circle fill="#242C33" cx="125.9" cy="100.4" r="4"/>
	<circle fill="#242C33" cx="138.1" cy="100.4" r="4"/>
	<circle fill="#242C33" cx="101.6" cy="112.4" r="4"/>
	<circle fill="#242C33" cx="113.8" cy="112.4" r="4"/>
	<circle fill="#242C33" cx="125.9" cy="112.4" r="4"/>
	<circle fill="#242C33" cx="138.1" cy="112.4" r="4"/>
	<circle fill="#242C33" cx="150.3" cy="100.4" r="4"/>
	<circle fill="#242C33" cx="150.3" cy="112.4" r="4"/>
	<circle fill="#242C33" cx="64.9" cy="125.6" r="4"/>
	<circle fill="#242C33" cx="77.1" cy="125.6" r="4"/>
	<circle fill="#242C33" cx="89.3" cy="125.6" r="4"/>
	<circle fill="#242C33" cx="185.3" cy="293.3" r="4"/>
	<circle fill="#242C33" cx="197.5" cy="293.3" r="4"/>
	<circle fill="#242C33" cx="185.3" cy="305.3" r="4"/>
	<circle fill="#242C33" cx="197.5" cy="305.3" r="4"/>
	<circle fill="#242C33" cx="209.6" cy="293.3" r="4"/>
	<circle fill="#242C33" cx="221.8" cy="293.3" r="4"/>
	<circle fill="#242C33" cx="234" cy="293.3" r="4"/>
	<circle fill="#242C33" cx="246.2" cy="293.3" r="4"/>
	<circle fill="#242C33" cx="209.6" cy="305.3" r="4"/>
	<circle fill="#242C33" cx="221.8" cy="305.3" r="4"/>
	<circle fill="#242C33" cx="234" cy="305.3" r="4"/>
	<circle fill="#242C33" cx="185.3" cy="317.8" r="4"/>
	<circle fill="#242C33" cx="197.5" cy="317.8" r="4"/>
	<circle fill="#242C33" cx="209.7" cy="317.8" r="4"/>
	<circle fill="#242C33" cx="221.8" cy="317.8" r="4"/>
	<circle fill="#242C33" cx="209.7" cy="329.6" r="4"/>
	<circle fill="#242C33" cx="197.5" cy="329.6" r="4"/>
	<circle fill="#242C33" cx="197.5" cy="341.6" r="4"/>
	<circle fill="#242C33" cx="209.7" cy="341.6" r="4"/>
	<circle fill="#242C33" cx="197.5" cy="353.6" r="4"/>
	<circle fill="#242C33" cx="209.7" cy="353.6" r="4"/>
	<circle fill="#242C33" cx="64.9" cy="137.6" r="4"/>
	<circle fill="#242C33" cx="77.1" cy="137.6" r="4"/>
	<circle fill="#242C33" cx="89.3" cy="137.6" r="4"/>
	<circle fill="#242C33" cx="101.6" cy="125.6" r="4"/>
	<circle fill="#242C33" cx="113.8" cy="125.6" r="4"/>
	<circle fill="#242C33" cx="125.9" cy="125.6" r="4"/>
	<circle fill="#242C33" cx="138.1" cy="125.6" r="4"/>
	<circle fill="#242C33" cx="101.6" cy="137.6" r="4"/>
	<circle fill="#242C33" cx="113.8" cy="137.6" r="4"/>
	<circle fill="#242C33" cx="125.9" cy="137.6" r="4"/>
	<circle fill="#242C33" cx="138.1" cy="137.6" r="4"/>
	<circle fill="#242C33" cx="233.5" cy="4" r="4"/>
	<circle fill="#242C33" cx="245.7" cy="4" r="4"/>
	<circle fill="#242C33" cx="257.9" cy="4" r="4"/>
	<circle fill="#242C33" cx="270" cy="4" r="4"/>
	<circle fill="#242C33" cx="282.2" cy="4" r="4"/>
	<circle fill="#242C33" cx="294.4" cy="4" r="4"/>
	<circle fill="#242C33" cx="210" cy="4" r="4"/>
	<circle fill="#242C33" cx="222.2" cy="4" r="4"/>
	<circle fill="#242C33" cx="197.8" cy="15.8" r="4"/>
	<circle fill="#242C33" cx="210" cy="15.8" r="4"/>
	<circle fill="#242C33" cx="222.2" cy="15.8" r="4"/>
	<circle fill="#242C33" cx="233.5" cy="15.8" r="4"/>
	<circle fill="#242C33" cx="245.7" cy="15.8" r="4"/>
	<circle fill="#242C33" cx="233.5" cy="27.8" r="4"/>
	<circle fill="#242C33" cx="245.7" cy="27.8" r="4"/>
	<circle fill="#242C33" cx="257.9" cy="15.8" r="4"/>
	<circle fill="#242C33" cx="270.1" cy="15.8" r="4"/>
	<circle fill="#242C33" cx="282.3" cy="15.8" r="4"/>
	<circle fill="#242C33" cx="294.5" cy="15.8" r="4"/>
	<circle fill="#242C33" cx="257.9" cy="27.8" r="4"/>
	<circle fill="#242C33" cx="270.1" cy="27.8" r="4"/>
	<circle fill="#242C33" cx="282.3" cy="27.8" r="4"/>
	<circle fill="#242C33" cx="294.5" cy="27.8" r="4"/>
	<circle fill="#242C33" cx="245.7" cy="41" r="4"/>
	<circle fill="#242C33" cx="245.6" cy="64.3" r="4"/>
	<circle fill="#242C33" cx="245.6" cy="76.3" r="4"/>
	<circle fill="#242C33" cx="257.9" cy="64.3" r="4"/>
	<circle fill="#242C33" cx="270" cy="64.3" r="4"/>
	<circle fill="#242C33" cx="257.9" cy="76.3" r="4"/>
	<circle fill="#242C33" cx="245.7" cy="53" r="4"/>
	<circle fill="#242C33" cx="257.9" cy="41" r="4"/>
	<circle fill="#242C33" cx="270.1" cy="41" r="4"/>
	<circle fill="#242C33" cx="282.3" cy="41" r="4"/>
	<circle fill="#242C33" cx="294.5" cy="41" r="4"/>
	<circle fill="#242C33" cx="257.9" cy="53" r="4"/>
	<circle fill="#242C33" cx="270.1" cy="53" r="4"/>
	<circle fill="#242C33" cx="282.3" cy="53" r="4"/>
	<circle fill="#242C33" cx="294.5" cy="53" r="4"/>
	<circle fill="#242C33" cx="305.8" cy="27.8" r="4"/>
	<circle fill="#242C33" cx="305.8" cy="41" r="4"/>
	<circle fill="#242C33" cx="305.8" cy="53" r="4"/>
	<circle fill="#242C33" cx="305.8" cy="74.9" r="4"/>
	<circle fill="#242C33" cx="150.3" cy="125.6" r="4"/>
	<circle fill="#242C33" cx="150.3" cy="137.6" r="4"/>
	<circle fill="#242C33" cx="64.9" cy="149.1" r="4"/>
	<circle fill="#242C33" cx="52.8" cy="137.6" r="4"/>
	<circle fill="#242C33" cx="52.8" cy="149.1" r="4"/>
	<circle fill="#242C33" cx="77.1" cy="149.1" r="4"/>
	<circle fill="#242C33" cx="89.3" cy="149.1" r="4"/>
	<circle fill="#242C33" cx="64.9" cy="161.1" r="4"/>
	<circle fill="#242C33" cx="77.1" cy="161.1" r="4"/>
	<circle fill="#242C33" cx="89.3" cy="161.1" r="4"/>
	<circle fill="#242C33" cx="101.6" cy="149.1" r="4"/>
	<circle fill="#242C33" cx="113.8" cy="149.1" r="4"/>
	<circle fill="#242C33" cx="125.9" cy="149.1" r="4"/>
	<circle fill="#242C33" cx="138.1" cy="149.1" r="4"/>
	<circle fill="#242C33" cx="101.6" cy="161.1" r="4"/>
	<circle fill="#242C33" cx="113.8" cy="161.1" r="4"/>
	<circle fill="#242C33" cx="77.1" cy="173.2" r="4"/>
	<circle fill="#242C33" cx="89.3" cy="173.2" r="4"/>
	<circle fill="#242C33" cx="101.6" cy="173.2" r="4"/>
	<circle fill="#242C33" cx="113.8" cy="173.2" r="4"/>
	<circle fill="#242C33" cx="112.8" cy="197" r="4"/>
	<circle fill="#242C33" cx="125" cy="197" r="4"/>
	<circle fill="#242C33" cx="137.3" cy="197" r="4"/>
	<circle fill="#242C33" cx="149.5" cy="197" r="4"/>
	<circle fill="#242C33" cx="101.6" cy="184.8" r="4"/>
	<circle fill="#242C33" cx="113.8" cy="184.8" r="4"/>
	<circle fill="#242C33" cx="138.2" cy="184.8" r="4"/>
	<circle fill="#242C33" cx="125.9" cy="161.1" r="4"/>
	<circle fill="#242C33" cx="138.1" cy="161.1" r="4"/>
	<circle fill="#242C33" cx="149.5" cy="209.1" r="4"/>
	<circle fill="#242C33" cx="161.7" cy="209.1" r="4"/>
	<circle fill="#242C33" cx="173.9" cy="209.1" r="4"/>
	<circle fill="#242C33" cx="186.1" cy="209.1" r="4"/>
	<circle fill="#242C33" cx="198.3" cy="209.1" r="4"/>
	<circle fill="#242C33" cx="210.5" cy="209.1" r="4"/>
	<circle fill="#242C33" cx="161.7" cy="220.9" r="4"/>
	<circle fill="#242C33" cx="173.8" cy="220.9" r="4"/>
	<circle fill="#242C33" cx="186.1" cy="220.9" r="4"/>
	<circle fill="#242C33" cx="198.3" cy="220.9" r="4"/>
	<circle fill="#242C33" cx="210.5" cy="220.9" r="4"/>
	<circle fill="#242C33" cx="222.7" cy="220.9" r="4"/>
	<circle fill="#242C33" cx="150.3" cy="149.1" r="4"/>
	<circle fill="#242C33" cx="161.7" cy="100.4" r="4"/>
	<circle fill="#242C33" cx="161.7" cy="112.4" r="4"/>
	<circle fill="#242C33" cx="161.7" cy="125.6" r="4"/>
	<circle fill="#242C33" cx="161.7" cy="137.6" r="4"/>
	<circle fill="#242C33" cx="173.5" cy="100.4" r="4"/>
	<circle fill="#242C33" cx="173.5" cy="112.4" r="4"/>
	<circle fill="#242C33" cx="173.5" cy="125.6" r="4"/>
	<circle fill="#242C33" cx="185.2" cy="100.4" r="4"/>
	<circle fill="#242C33" cx="185.2" cy="112.4" r="4"/>
	<circle fill="#242C33" cx="185.2" cy="125.6" r="4"/>
	<circle fill="#242C33" cx="197.6" cy="100.4" r="4"/>
	<circle fill="#242C33" cx="185.2" cy="88.6" r="4"/>
	<circle fill="#242C33" cx="197.6" cy="88.6" r="4"/>
	<circle fill="#242C33" cx="197.6" cy="112.4" r="4"/>
	<circle fill="#242C33" cx="197.6" cy="125.6" r="4"/>
	<circle fill="#242C33" cx="209.9" cy="88.1" r="4"/>
	<circle fill="#242C33" cx="185.2" cy="76.1" r="4"/>
	<circle fill="#242C33" cx="209.9" cy="100.1" r="4"/>
	<circle fill="#242C33" cx="209.9" cy="112.4" r="4"/>
	<circle fill="#242C33" cx="221.5" cy="100.1" r="4"/>
	<circle fill="#242C33" cx="221.5" cy="112.4" r="4"/>
	<circle fill="#242C33" cx="233.8" cy="112.4" r="4"/>
	<circle fill="#242C33" cx="173.5" cy="137.6" r="4"/>
	<circle fill="#242C33" cx="161.7" cy="149.1" r="4"/>
	<circle fill="#242C33" cx="173.1" cy="233.4" r="4"/>
	<circle fill="#242C33" cx="160.9" cy="233.4" r="4"/>
	<circle fill="#242C33" cx="185.3" cy="233.4" r="4"/>
	<circle fill="#242C33" cx="197.4" cy="233.4" r="4"/>
	<circle fill="#242C33" cx="209.6" cy="233.4" r="4"/>
	<circle fill="#242C33" cx="173.1" cy="245.4" r="4"/>
	<circle fill="#242C33" cx="185.3" cy="245.4" r="4"/>
	<circle fill="#242C33" cx="197.4" cy="245.4" r="4"/>
	<circle fill="#242C33" cx="209.6" cy="245.4" r="4"/>
	<circle fill="#242C33" cx="221.9" cy="233.4" r="4"/>
	<circle fill="#242C33" cx="234.1" cy="233.4" r="4"/>
	<circle fill="#242C33" cx="246.3" cy="233.4" r="4"/>
	<circle fill="#242C33" cx="258.4" cy="233.4" r="4"/>
	<circle fill="#242C33" cx="221.9" cy="245.4" r="4"/>
	<circle fill="#242C33" cx="234.1" cy="245.4" r="4"/>
	<circle fill="#242C33" cx="246.3" cy="245.4" r="4"/>
	<circle fill="#242C33" cx="258.4" cy="245.4" r="4"/>
	<circle fill="#242C33" cx="270.6" cy="233.4" r="4"/>
	<circle fill="#242C33" cx="270.6" cy="245.4" r="4"/>
	<circle fill="#242C33" cx="185.3" cy="258.7" r="4"/>
	<circle fill="#242C33" cx="197.4" cy="258.7" r="4"/>
	<circle fill="#242C33" cx="209.6" cy="258.7" r="4"/>
	<circle fill="#242C33" cx="185.3" cy="270.6" r="4"/>
	<circle fill="#242C33" cx="197.4" cy="270.6" r="4"/>
	<circle fill="#242C33" cx="209.6" cy="270.6" r="4"/>
	<circle fill="#242C33" cx="221.9" cy="258.7" r="4"/>
	<circle fill="#242C33" cx="234.1" cy="258.7" r="4"/>
	<circle fill="#242C33" cx="246.3" cy="258.7" r="4"/>
	<circle fill="#242C33" cx="258.4" cy="258.7" r="4"/>
	<circle fill="#242C33" cx="221.9" cy="270.6" r="4"/>
	<circle fill="#242C33" cx="234.1" cy="270.6" r="4"/>
	<circle fill="#242C33" cx="246.3" cy="270.6" r="4"/>
	<circle fill="#242C33" cx="258.4" cy="270.6" r="4"/>
	<circle fill="#242C33" cx="270.6" cy="258.7" r="4"/>
	<circle fill="#242C33" cx="270.6" cy="270.6" r="4"/>
	<circle fill="#242C33" cx="160.9" cy="245.4" r="4"/>
	<circle fill="#242C33" cx="234.1" cy="220.9" r="4"/>
	<circle fill="#242C33" cx="173.1" cy="258.7" r="4"/>
	<circle fill="#242C33" cx="197.4" cy="282.2" r="4"/>
	<circle fill="#242C33" cx="209.6" cy="282.2" r="4"/>
	<circle fill="#242C33" cx="221.9" cy="282.2" r="4"/>
	<circle fill="#242C33" cx="234.1" cy="282.2" r="4"/>
	<circle fill="#242C33" cx="246.3" cy="282.2" r="4"/>
	<circle fill="#242C33" cx="258.4" cy="282.2" r="4"/>
	<circle fill="#242C33" cx="161.7" cy="161.1" r="4"/>
	<ellipse fill="#242C33" cx="421.3" cy="52.7" rx="4" ry="3.9"/>
	<circle fill="#242C33" cx="433.5" cy="52.5" r="4"/>
	<circle fill="#242C33" cx="445.7" cy="52.5" r="4"/>
	<circle fill="#242C33" cx="457.9" cy="52.5" r="4"/>
	<circle fill="#242C33" cx="470.1" cy="52.5" r="4"/>
	<circle fill="#242C33" cx="482.3" cy="52.5" r="4"/>
	<circle fill="#242C33" cx="494.4" cy="52.5" r="4"/>
	<ellipse fill="#242C33" cx="421.3" cy="64.2" rx="4" ry="3.9"/>
	<ellipse fill="#242C33" cx="409.7" cy="52.7" rx="4" ry="3.9"/>
	<ellipse fill="#242C33" cx="408.9" cy="40.6" rx="4" ry="3.9"/>
	<circle fill="#242C33" cx="421.1" cy="40.4" r="4"/>
	<ellipse fill="#242C33" cx="397.4" cy="40.6" rx="4" ry="3.9"/>
	<ellipse fill="#242C33" cx="409.8" cy="64.2" rx="4" ry="3.9"/>
	<ellipse fill="#242C33" cx="397.4" cy="52.9" rx="4" ry="3.9"/>
	<ellipse fill="#242C33" cx="385.8" cy="52.9" rx="4" ry="3.9"/>
	<ellipse fill="#242C33" cx="385.8" cy="64.4" rx="4" ry="3.9"/>
	<circle fill="#242C33" cx="433.5" cy="64.3" r="4"/>
	<circle fill="#242C33" cx="445.7" cy="64.3" r="4"/>
	<circle fill="#242C33" cx="433.5" cy="76.3" r="4"/>
	<circle fill="#242C33" cx="445.7" cy="76.3" r="4"/>
	<circle fill="#242C33" cx="458" cy="64.3" r="4"/>
	<circle fill="#242C33" cx="470.1" cy="64.3" r="4"/>
	<circle fill="#242C33" cx="482.3" cy="64.3" r="4"/>
	<circle fill="#242C33" cx="494.5" cy="64.3" r="4"/>
	<circle fill="#242C33" cx="458" cy="76.3" r="4"/>
	<circle fill="#242C33" cx="470.1" cy="76.3" r="4"/>
	<circle fill="#242C33" cx="482.3" cy="76.3" r="4"/>
	<circle fill="#242C33" cx="361.3" cy="76.3" r="4"/>
	<circle fill="#242C33" cx="361.3" cy="88.5" r="4"/>
	<circle fill="#242C33" cx="373.5" cy="76.3" r="4"/>
	<circle fill="#242C33" cx="385.8" cy="76.3" r="4"/>
	<circle fill="#242C33" cx="398" cy="76.3" r="4"/>
	<circle fill="#242C33" cx="410.2" cy="76.3" r="4"/>
	<circle fill="#242C33" cx="494.5" cy="76.3" r="4"/>
	<circle fill="#242C33" cx="506.7" cy="64.3" r="4"/>
	<circle fill="#242C33" cx="506.7" cy="76.3" r="4"/>
	<circle fill="#242C33" cx="421.3" cy="89.6" r="4"/>
	<circle fill="#242C33" cx="433.5" cy="89.6" r="4"/>
	<circle fill="#242C33" cx="445.7" cy="89.6" r="4"/>
	<circle fill="#242C33" cx="421.3" cy="101.6" r="4"/>
	<circle fill="#242C33" cx="433.5" cy="101.6" r="4"/>
	<circle fill="#242C33" cx="445.7" cy="101.6" r="4"/>
	<circle fill="#242C33" cx="458" cy="89.6" r="4"/>
	<circle fill="#242C33" cx="470.1" cy="89.6" r="4"/>
	<circle fill="#242C33" cx="482.3" cy="89.6" r="4"/>
	<circle fill="#242C33" cx="494.5" cy="89.6" r="4"/>
	<circle fill="#242C33" cx="458" cy="101.6" r="4"/>
	<circle fill="#242C33" cx="470.1" cy="101.6" r="4"/>
	<circle fill="#242C33" cx="482.3" cy="101.6" r="4"/>
	<circle fill="#242C33" cx="494.5" cy="101.6" r="4"/>
	<circle fill="#242C33" cx="506.7" cy="89.6" r="4"/>
	<circle fill="#242C33" cx="506.7" cy="101.6" r="4"/>
	<circle fill="#242C33" cx="421.3" cy="113.1" r="4"/>
	<circle fill="#242C33" cx="433.5" cy="113.1" r="4"/>
	<circle fill="#242C33" cx="445.7" cy="113.1" r="4"/>
	<circle fill="#242C33" cx="421.3" cy="125.1" r="4"/>
	<circle fill="#242C33" cx="433.5" cy="125.1" r="4"/>
	<circle fill="#242C33" cx="445.7" cy="136.7" r="4"/>
	<circle fill="#242C33" cx="445.7" cy="148.6" r="4"/>
	<circle fill="#242C33" cx="458" cy="113.1" r="4"/>
	<circle fill="#242C33" cx="373.3" cy="88.9" r="4"/>
	<circle fill="#242C33" cx="325.2" cy="100.1" r="4"/>
	<circle fill="#242C33" cx="337.4" cy="88" r="4"/>
	<circle fill="#242C33" cx="337.2" cy="100.6" r="4"/>
	<circle fill="#242C33" cx="385.5" cy="88.9" r="4"/>
	<circle fill="#242C33" cx="397.7" cy="88.9" r="4"/>
	<circle fill="#242C33" cx="373.3" cy="100.9" r="4"/>
	<circle fill="#242C33" cx="385.5" cy="100.9" r="4"/>
	<circle fill="#242C33" cx="397.7" cy="100.9" r="4"/>
	<circle fill="#242C33" cx="409.9" cy="88.9" r="4"/>
	<circle fill="#242C33" cx="409.9" cy="100.9" r="4"/>
	<circle fill="#242C33" cx="373.3" cy="112.5" r="4"/>
	<circle fill="#242C33" cx="361" cy="112.5" r="4"/>
	<circle fill="#242C33" cx="385.5" cy="112.5" r="4"/>
	<circle fill="#242C33" cx="397.7" cy="112.5" r="4"/>
	<circle fill="#242C33" cx="409.9" cy="112.5" r="4"/>
	<circle fill="#242C33" cx="470.1" cy="113.1" r="4"/>
	<circle fill="#242C33" cx="482.3" cy="113.1" r="4"/>
	<circle fill="#242C33" cx="494.5" cy="113.1" r="4"/>
	<circle fill="#242C33" cx="458" cy="125.1" r="4"/>
	<circle fill="#242C33" cx="458" cy="136.7" r="4"/>
	<circle fill="#242C33" cx="470.1" cy="125.1" r="4"/>
	<circle fill="#242C33" cx="482.3" cy="125.1" r="4"/>
	<circle fill="#242C33" cx="494.5" cy="125.1" r="4"/>
	<circle fill="#242C33" cx="506.7" cy="113.1" r="4"/>
	<circle fill="#242C33" cx="506.7" cy="125.1" r="4"/>
	<circle fill="#242C33" cx="518.1" cy="64.3" r="4"/>
	<circle fill="#242C33" cx="518.1" cy="76.3" r="4"/>
	<circle fill="#242C33" cx="518.1" cy="89.6" r="4"/>
	<circle fill="#242C33" cx="518.1" cy="101.6" r="4"/>
	<circle fill="#242C33" cx="529.9" cy="64.3" r="4"/>
	<circle fill="#242C33" cx="529.9" cy="76.3" r="4"/>
	<circle fill="#242C33" cx="529.9" cy="89.6" r="4"/>
	<circle fill="#242C33" cx="541.6" cy="64.3" r="4"/>
	<circle fill="#242C33" cx="541.6" cy="76.3" r="4"/>
	<circle fill="#242C33" cx="541.6" cy="89.6" r="4"/>
	<circle fill="#242C33" cx="554" cy="64.3" r="4"/>
	<circle fill="#242C33" cx="541.6" cy="52.5" r="4"/>
	<circle fill="#242C33" cx="554" cy="52.5" r="4"/>
	<circle fill="#242C33" cx="554" cy="76.3" r="4"/>
	<circle fill="#242C33" cx="554" cy="89.6" r="4"/>
	<circle fill="#242C33" cx="566.3" cy="52.1" r="4"/>
	<circle fill="#242C33" cx="506.1" cy="53.3" r="4"/>
	<circle fill="#242C33" cx="518.5" cy="53.3" r="4"/>
	<circle fill="#242C33" cx="530.7" cy="52.8" r="4"/>
	<circle fill="#242C33" cx="566.3" cy="64.1" r="4"/>
	<circle fill="#242C33" cx="566.3" cy="76.3" r="4"/>
	<circle fill="#242C33" cx="577.9" cy="64.1" r="4"/>
	<circle fill="#242C33" cx="577.9" cy="76.3" r="4"/>
	<circle fill="#242C33" cx="541.6" cy="101.7" r="4"/>
	<circle fill="#242C33" cx="554" cy="101.7" r="4"/>
	<circle fill="#242C33" cx="566.3" cy="100.5" r="4"/>
	<circle fill="#242C33" cx="577.9" cy="100.5" r="4"/>
	<circle fill="#242C33" cx="566.3" cy="89.6" r="4"/>
	<circle fill="#242C33" cx="577.9" cy="89.6" r="4"/>
	<circle fill="#242C33" cx="529.9" cy="101.6" r="4"/>
	<circle fill="#242C33" cx="518.1" cy="113.1" r="4"/>
	<circle fill="#242C33" cx="518.1" cy="125.1" r="4"/>
	<circle fill="#242C33" cx="530.1" cy="113.1" r="4"/>
	<circle fill="#242C33" cx="542.3" cy="113.1" r="4"/>
	<circle fill="#242C33" cx="554.5" cy="113.1" r="4"/>
	<circle fill="#242C33" cx="566.6" cy="113.1" r="4"/>
	<circle fill="#242C33" cx="530.1" cy="125.1" r="4"/>
	<circle fill="#242C33" cx="542.3" cy="125.1" r="4"/>
	<circle fill="#242C33" cx="554.5" cy="125.1" r="4"/>
	<circle fill="#242C33" cx="566.6" cy="125.1" r="4"/>
	<circle fill="#242C33" cx="578.8" cy="113.1" r="4"/>
	<circle fill="#242C33" cx="578.8" cy="125.1" r="4"/>
	<circle fill="#242C33" cx="530.1" cy="136.6" r="4"/>
	<circle fill="#242C33" cx="542.3" cy="136.6" r="4"/>
	<circle fill="#242C33" cx="554.5" cy="136.6" r="4"/>
	<circle fill="#242C33" cx="566.6" cy="136.6" r="4"/>
	<circle fill="#242C33" cx="530.1" cy="148.6" r="4"/>
	<circle fill="#242C33" cx="542.3" cy="148.6" r="4"/>
	<circle fill="#242C33" cx="554.5" cy="148.6" r="4"/>
	<circle fill="#242C33" cx="566.6" cy="148.6" r="4"/>
	<circle fill="#242C33" cx="578.8" cy="136.6" r="4"/>
	<circle fill="#242C33" cx="578.8" cy="148.6" r="4"/>
	<circle fill="#242C33" cx="469.7" cy="136.6" r="4"/>
	<circle fill="#242C33" cx="481.9" cy="136.6" r="4"/>
	<circle fill="#242C33" cx="494.1" cy="136.6" r="4"/>
	<circle fill="#242C33" cx="506.2" cy="136.6" r="4"/>
	<circle fill="#242C33" cx="469.7" cy="148.6" r="4"/>
	<circle fill="#242C33" cx="481.9" cy="148.6" r="4"/>
	<circle fill="#242C33" cx="494.1" cy="148.6" r="4"/>
	<circle fill="#242C33" cx="506.2" cy="148.6" r="4"/>
	<circle fill="#242C33" cx="518.4" cy="136.6" r="4"/>
	<circle fill="#242C33" cx="397.4" cy="136.6" r="4"/>
	<circle fill="#242C33" cx="409.6" cy="136.6" r="4"/>
	<circle fill="#242C33" cx="421.8" cy="136.6" r="4"/>
	<circle fill="#242C33" cx="434" cy="136.6" r="4"/>
	<circle fill="#242C33" cx="337" cy="136.6" r="4"/>
	<circle fill="#242C33" cx="349.2" cy="136.6" r="4"/>
	<circle fill="#242C33" cx="361.4" cy="136.6" r="4"/>
	<circle fill="#242C33" cx="373.6" cy="136.6" r="4"/>
	<circle fill="#242C33" cx="385.7" cy="136.6" r="4"/>
	<circle fill="#242C33" cx="409.1" cy="125.1" r="4"/>
	<circle fill="#242C33" cx="349.3" cy="125.1" r="4"/>
	<circle fill="#242C33" cx="361.5" cy="125.1" r="4"/>
	<circle fill="#242C33" cx="373" cy="125.1" r="4"/>
	<circle fill="#242C33" cx="385.2" cy="125.1" r="4"/>
	<circle fill="#242C33" cx="397.4" cy="125.1" r="4"/>
	<circle fill="#242C33" cx="518.4" cy="148.6" r="4"/>
	<circle fill="#242C33" cx="590.2" cy="113.1" r="4"/>
	<circle fill="#242C33" cx="590.2" cy="125.1" r="4"/>
	<circle fill="#242C33" cx="590.2" cy="136.6" r="4"/>
	<circle fill="#242C33" cx="590.2" cy="148.6" r="4"/>
	<circle fill="#242C33" cx="590.5" cy="64.9" r="4"/>
	<circle fill="#242C33" cx="602.7" cy="64.9" r="4"/>
	<circle fill="#242C33" cx="614.9" cy="64.9" r="4"/>
	<circle fill="#242C33" cx="627.1" cy="64.9" r="4"/>
	<circle fill="#242C33" cx="590.5" cy="76.9" r="4"/>
	<circle fill="#242C33" cx="602.7" cy="76.9" r="4"/>
	<circle fill="#242C33" cx="614.9" cy="76.9" r="4"/>
	<circle fill="#242C33" cx="627.1" cy="76.9" r="4"/>
	<circle fill="#242C33" cx="639.2" cy="64.9" r="4"/>
	<circle fill="#242C33" cx="639.2" cy="76.9" r="4"/>
	<circle fill="#242C33" cx="506.7" cy="39.4" r="4"/>
	<circle fill="#242C33" cx="470.1" cy="39.4" r="4"/>
	<circle fill="#242C33" cx="518.1" cy="39.4" r="4"/>
	<circle fill="#242C33" cx="470.1" cy="28" r="4"/>
	<circle fill="#242C33" cx="481.5" cy="28" r="4"/>
	<circle fill="#242C33" cx="327.3" cy="15.6" r="4"/>
	<circle fill="#242C33" cx="338.8" cy="15.6" r="4"/>
	<circle fill="#242C33" cx="529.9" cy="39.4" r="4"/>
	<circle fill="#242C33" cx="541.6" cy="27.4" r="4"/>
	<circle fill="#242C33" cx="541.6" cy="39.4" r="4"/>
	<circle fill="#242C33" cx="554" cy="27.4" r="4"/>
	<circle fill="#242C33" cx="541.6" cy="15.6" r="4"/>
	<circle fill="#242C33" cx="554" cy="15.6" r="4"/>
	<circle fill="#242C33" cx="554" cy="39.4" r="4"/>
	<circle fill="#242C33" cx="566.3" cy="27.1" r="4"/>
	<circle fill="#242C33" cx="566.3" cy="39.4" r="4"/>
	<circle fill="#242C33" cx="577.9" cy="27.1" r="4"/>
	<circle fill="#242C33" cx="577.9" cy="39.4" r="4"/>
	<circle fill="#242C33" cx="590.5" cy="28" r="4"/>
	<circle fill="#242C33" cx="602.7" cy="28" r="4"/>
	<circle fill="#242C33" cx="614.9" cy="28" r="4"/>
	<circle fill="#242C33" cx="627.1" cy="28" r="4"/>
	<circle fill="#242C33" cx="590.5" cy="40" r="4"/>
	<circle fill="#242C33" cx="602.7" cy="40" r="4"/>
	<circle fill="#242C33" cx="614.9" cy="40" r="4"/>
	<circle fill="#242C33" cx="627.1" cy="40" r="4"/>
	<circle fill="#242C33" cx="639.2" cy="28" r="4"/>
	<circle fill="#242C33" cx="639.2" cy="40" r="4"/>
	<circle fill="#242C33" cx="577.9" cy="52.2" r="4"/>
	<circle fill="#242C33" cx="590.5" cy="52.9" r="4"/>
	<circle fill="#242C33" cx="602.7" cy="52.9" r="4"/>
	<circle fill="#242C33" cx="614.9" cy="52.9" r="4"/>
	<circle fill="#242C33" cx="627.1" cy="52.9" r="4"/>
	<circle fill="#242C33" cx="639.2" cy="52.9" r="4"/>
	<circle fill="#242C33" cx="590.5" cy="88.5" r="4"/>
	<circle fill="#242C33" cx="602.7" cy="88.5" r="4"/>
	<circle fill="#242C33" cx="614.9" cy="88.5" r="4"/>
	<circle fill="#242C33" cx="627.1" cy="88.5" r="4"/>
	<circle fill="#242C33" cx="590.5" cy="100.5" r="4"/>
	<circle fill="#242C33" cx="602.7" cy="100.5" r="4"/>
	<circle fill="#242C33" cx="614.9" cy="100.5" r="4"/>
	<circle fill="#242C33" cx="627.1" cy="100.5" r="4"/>
	<circle fill="#242C33" cx="639.2" cy="88.5" r="4"/>
	<circle fill="#242C33" cx="639.2" cy="100.5" r="4"/>
	<circle fill="#242C33" cx="650.7" cy="64.9" r="4"/>
	<circle fill="#242C33" cx="650.7" cy="76.9" r="4"/>
	<circle fill="#242C33" cx="650.7" cy="88.5" r="4"/>
	<circle fill="#242C33" cx="650.7" cy="100.5" r="4"/>
	<circle fill="#242C33" cx="663.3" cy="64.9" r="4"/>
	<circle fill="#242C33" cx="675.5" cy="64.9" r="4"/>
	<circle fill="#242C33" cx="687.7" cy="64.9" r="4"/>
	<circle fill="#242C33" cx="699.8" cy="64.9" r="4"/>
	<circle fill="#242C33" cx="663.3" cy="76.9" r="4"/>
	<circle fill="#242C33" cx="675.5" cy="76.9" r="4"/>
	<circle fill="#242C33" cx="687.7" cy="76.9" r="4"/>
	<circle fill="#242C33" cx="699.8" cy="76.9" r="4"/>
	<circle fill="#242C33" cx="712" cy="64.9" r="4"/>
	<circle fill="#242C33" cx="712" cy="76.9" r="4"/>
	<circle fill="#242C33" cx="663.3" cy="88.5" r="4"/>
	<circle fill="#242C33" cx="675.5" cy="88.5" r="4"/>
	<circle fill="#242C33" cx="687.7" cy="88.5" r="4"/>
	<circle fill="#242C33" cx="699.8" cy="88.5" r="4"/>
	<circle fill="#242C33" cx="663.3" cy="100.5" r="4"/>
	<circle fill="#242C33" cx="675.5" cy="100.5" r="4"/>
	<circle fill="#242C33" cx="687.7" cy="100.5" r="4"/>
	<circle fill="#242C33" cx="675.5" cy="113.1" r="4"/>
	<circle fill="#242C33" cx="687.7" cy="113.1" r="4"/>
	<circle fill="#242C33" cx="699.8" cy="113.1" r="4"/>
	<circle fill="#242C33" cx="711.2" cy="148.6" r="4"/>
	<circle fill="#242C33" cx="712" cy="113.1" r="4"/>
	<circle fill="#242C33" cx="723.4" cy="136.7" r="4"/>
	<circle fill="#242C33" cx="675.5" cy="125.1" r="4"/>
	<circle fill="#242C33" cx="687.7" cy="125.1" r="4"/>
	<circle fill="#242C33" cx="675.5" cy="136.6" r="4"/>
	<circle fill="#242C33" cx="687.7" cy="136.6" r="4"/>
	<circle fill="#242C33" cx="675.5" cy="148.6" r="4"/>
	<circle fill="#242C33" cx="699.8" cy="100.5" r="4"/>
	<circle fill="#242C33" cx="712" cy="88.5" r="4"/>
	<circle fill="#242C33" cx="712" cy="100.5" r="4"/>
	<circle fill="#242C33" cx="723.4" cy="64.9" r="4"/>
	<circle fill="#242C33" cx="712" cy="52.5" r="4"/>
	<circle fill="#242C33" cx="723.4" cy="52.5" r="4"/>
	<circle fill="#242C33" cx="723.4" cy="76.9" r="4"/>
	<circle fill="#242C33" cx="723.4" cy="88.5" r="4"/>
	<circle fill="#242C33" cx="723.4" cy="100.5" r="4"/>
	<circle fill="#242C33" cx="735.8" cy="53" r="4"/>
	<circle fill="#242C33" cx="723.4" cy="40" r="4"/>
	<circle fill="#242C33" cx="735.8" cy="40.5" r="4"/>
	<circle fill="#242C33" cx="686.8" cy="40" r="4"/>
	<circle fill="#242C33" cx="699.2" cy="40.5" r="4"/>
	<circle fill="#242C33" cx="674.5" cy="52.3" r="4"/>
	<circle fill="#242C33" cx="686.9" cy="52.8" r="4"/>
	<circle fill="#242C33" cx="735.8" cy="65" r="4"/>
	<circle fill="#242C33" cx="735.8" cy="76.6" r="4"/>
	<circle fill="#242C33" cx="735.8" cy="88.5" r="4"/>
	<circle fill="#242C33" cx="747.2" cy="53" r="4"/>
	<circle fill="#242C33" cx="747.2" cy="65" r="4"/>
	<circle fill="#242C33" cx="759.2" cy="53" r="4"/>
	<circle fill="#242C33" cx="759.2" cy="65" r="4"/>
	<circle fill="#242C33" cx="770.6" cy="53" r="4"/>
	<circle fill="#242C33" cx="783.4" cy="53" r="4"/>
	<circle fill="#242C33" cx="770.6" cy="65" r="4"/>
	<circle fill="#242C33" cx="747.2" cy="76.6" r="4"/>
	<circle fill="#242C33" cx="747.2" cy="88.5" r="4"/>
	<circle fill="#242C33" cx="602.7" cy="113.2" r="4"/>
	<circle fill="#242C33" cx="614.9" cy="113.2" r="4"/>
	<circle fill="#242C33" cx="627.1" cy="113.2" r="4"/>
	<circle fill="#242C33" cx="639.3" cy="113.2" r="4"/>
	<circle fill="#242C33" cx="602.7" cy="125.2" r="4"/>
	<circle fill="#242C33" cx="614.9" cy="125.2" r="4"/>
	<circle fill="#242C33" cx="627.1" cy="125.2" r="4"/>
	<circle fill="#242C33" cx="639.3" cy="125.2" r="4"/>
	<circle fill="#242C33" cx="651.4" cy="113.2" r="4"/>
	<circle fill="#242C33" cx="651.4" cy="125.2" r="4"/>
	<circle fill="#242C33" cx="602.7" cy="136.7" r="4"/>
	<circle fill="#242C33" cx="614.9" cy="136.7" r="4"/>
	<circle fill="#242C33" cx="627.1" cy="136.7" r="4"/>
	<circle fill="#242C33" cx="639.3" cy="136.7" r="4"/>
	<circle fill="#242C33" cx="602.7" cy="148.7" r="4"/>
	<circle fill="#242C33" cx="614.9" cy="148.7" r="4"/>
	<circle fill="#242C33" cx="627.1" cy="148.7" r="4"/>
	<circle fill="#242C33" cx="639.3" cy="148.7" r="4"/>
	<circle fill="#242C33" cx="651.4" cy="136.7" r="4"/>
	<circle fill="#242C33" cx="651.4" cy="148.7" r="4"/>
	<circle fill="#242C33" cx="662.8" cy="113.2" r="4"/>
	<circle fill="#242C33" cx="662.8" cy="125.2" r="4"/>
	<circle fill="#242C33" cx="662.8" cy="136.7" r="4"/>
	<circle fill="#242C33" cx="662.8" cy="148.7" r="4"/>
	<circle fill="#242C33" cx="542.3" cy="160.7" r="4"/>
	<circle fill="#242C33" cx="554.5" cy="160.7" r="4"/>
	<circle fill="#242C33" cx="566.6" cy="160.7" r="4"/>
	<circle fill="#242C33" cx="578.8" cy="160.7" r="4"/>
	<circle fill="#242C33" cx="590.2" cy="160.7" r="4"/>
	<circle fill="#242C33" cx="602.7" cy="160.7" r="4"/>
	<circle fill="#242C33" cx="614.9" cy="160.7" r="4"/>
	<circle fill="#242C33" cx="627.1" cy="160.7" r="4"/>
	<circle fill="#242C33" cx="542.3" cy="172.6" r="4"/>
	<circle fill="#242C33" cx="554.5" cy="172.6" r="4"/>
	<circle fill="#242C33" cx="566.6" cy="172.6" r="4"/>
	<circle fill="#242C33" cx="578.8" cy="172.6" r="4"/>
	<circle fill="#242C33" cx="590.2" cy="172.6" r="4"/>
	<circle fill="#242C33" cx="602.7" cy="172.6" r="4"/>
	<circle fill="#242C33" cx="614.9" cy="172.6" r="4"/>
	<circle fill="#242C33" cx="627.1" cy="172.6" r="4"/>
	<circle fill="#242C33" cx="542.3" cy="184.8" r="4"/>
	<circle fill="#242C33" cx="554.5" cy="184.8" r="4"/>
	<circle fill="#242C33" cx="566.6" cy="184.8" r="4"/>
	<circle fill="#242C33" cx="554.5" cy="197" r="4"/>
	<circle fill="#242C33" cx="639.3" cy="184.8" r="4"/>
	<circle fill="#242C33" cx="639.3" cy="197" r="4"/>
	<circle fill="#242C33" cx="639.3" cy="232.9" r="4"/>
	<circle fill="#242C33" cx="602.7" cy="184.9" r="4"/>
	<circle fill="#242C33" cx="614.9" cy="184.9" r="4"/>
	<circle fill="#242C33" cx="614.9" cy="197" r="4"/>
	<circle fill="#242C33" cx="614.9" cy="209.2" r="4"/>
	<circle fill="#242C33" cx="614.9" cy="220.9" r="4"/>
	<circle fill="#242C33" cx="627.1" cy="209" r="4"/>
	<circle fill="#242C33" cx="627.1" cy="221.1" r="4"/>
	<circle fill="#242C33" cx="650.8" cy="209.2" r="4"/>
	<circle fill="#242C33" cx="650.8" cy="220.9" r="4"/>
	<circle fill="#242C33" cx="663" cy="209" r="4"/>
	<circle fill="#242C33" cx="663" cy="221.1" r="4"/>
	<circle fill="#242C33" cx="627.1" cy="232.9" r="4"/>
	<circle fill="#242C33" cx="675.5" cy="232.9" r="4"/>
	<circle fill="#242C33" cx="663.3" cy="232.9" r="4"/>
	<circle fill="#242C33" cx="723.2" cy="245.3" r="4"/>
	<circle fill="#242C33" cx="711" cy="245.3" r="4"/>
	<circle fill="#242C33" cx="699" cy="232.9" r="4"/>
	<circle fill="#242C33" cx="686.8" cy="232.9" r="4"/>
	<circle fill="#242C33" cx="711.2" cy="257.7" r="4"/>
	<circle fill="#242C33" cx="699" cy="257.7" r="4"/>
	<circle fill="#242C33" cx="734.8" cy="257.7" r="4"/>
	<circle fill="#242C33" cx="722.6" cy="257.7" r="4"/>
	<circle fill="#242C33" cx="735.1" cy="221.1" r="4"/>
	<circle fill="#242C33" cx="734.5" cy="233.5" r="4"/>
	<circle fill="#242C33" cx="759.2" cy="197" r="4"/>
	<circle fill="#242C33" cx="758.6" cy="209.4" r="4"/>
	<circle fill="#242C33" cx="735.9" cy="124.3" r="4"/>
	<circle fill="#242C33" cx="735.3" cy="136.6" r="4"/>
	<circle fill="#242C33" cx="711.2" cy="269.3" r="4"/>
	<circle fill="#242C33" cx="699" cy="269.3" r="4"/>
	<circle fill="#242C33" cx="734.8" cy="269.3" r="4"/>
	<circle fill="#242C33" cx="722.6" cy="269.3" r="4"/>
	<circle fill="#242C33" cx="711.2" cy="281.8" r="4"/>
	<circle fill="#242C33" cx="699" cy="281.8" r="4"/>
	<circle fill="#242C33" cx="699" cy="293.8" r="4"/>
	<circle fill="#242C33" cx="686.8" cy="269.7" r="4"/>
	<circle fill="#242C33" cx="686.8" cy="281.4" r="4"/>
	<circle fill="#242C33" cx="674" cy="281.4" r="4"/>
	<circle fill="#242C33" cx="686.8" cy="293.9" r="4"/>
	<circle fill="#242C33" cx="734.8" cy="281.8" r="4"/>
	<circle fill="#242C33" cx="722.6" cy="281.8" r="4"/>
	<circle fill="#242C33" cx="735.4" cy="293.8" r="4"/>
	<circle fill="#242C33" cx="723.2" cy="293.8" r="4"/>
	<circle fill="#242C33" cx="686.8" cy="306.2" r="4"/>
	<circle fill="#242C33" cx="758.9" cy="293.8" r="4"/>
	<circle fill="#242C33" cx="746.7" cy="293.8" r="4"/>
	<circle fill="#242C33" cx="735.4" cy="305.1" r="4"/>
	<circle fill="#242C33" cx="746.7" cy="305.1" r="4"/>
	<circle fill="#242C33" cx="800.2" cy="307.2" r="4"/>
	<circle fill="#242C33" cx="787.6" cy="319.4" r="4"/>
	<circle fill="#242C33" cx="800.2" cy="319.4" r="4"/>
	<circle fill="#242C33" cx="746.7" cy="319.4" r="4"/>
	<circle fill="#242C33" cx="758.9" cy="281.8" r="4"/>
	<circle fill="#242C33" cx="746.7" cy="281.8" r="4"/>
	<circle fill="#242C33" cx="758.9" cy="269.3" r="4"/>
	<circle fill="#242C33" cx="746.7" cy="269.3" r="4"/>
	<circle fill="#242C33" cx="746.7" cy="257.7" r="4"/>
	<circle fill="#242C33" cx="627.1" cy="184.9" r="4"/>
	<circle fill="#242C33" cx="639.3" cy="160.7" r="4"/>
	<circle fill="#242C33" cx="651.4" cy="160.7" r="4"/>
	<circle fill="#242C33" cx="662.8" cy="160.7" r="4"/>
	<circle fill="#242C33" cx="336.7" cy="172.8" r="4"/>
	<circle fill="#242C33" cx="336.7" cy="184.8" r="4"/>
	<circle fill="#242C33" cx="336.7" cy="198.1" r="4"/>
	<circle fill="#242C33" cx="349.1" cy="172.8" r="4"/>
	<circle fill="#242C33" cx="349.1" cy="184.8" r="4"/>
	<circle fill="#242C33" cx="349.1" cy="198.1" r="4"/>
	<circle fill="#242C33" cx="361.3" cy="172.6" r="4"/>
	<circle fill="#242C33" cx="361.3" cy="184.8" r="4"/>
	<circle fill="#242C33" cx="372.9" cy="172.6" r="4"/>
	<circle fill="#242C33" cx="372.9" cy="184.8" r="4"/>
	<circle fill="#242C33" cx="336.7" cy="210.2" r="4"/>
	<circle fill="#242C33" cx="325.2" cy="172.8" r="4"/>
	<circle fill="#242C33" cx="325.2" cy="184.8" r="4"/>
	<circle fill="#242C33" cx="313.4" cy="172.8" r="4"/>
	<circle fill="#242C33" cx="313.4" cy="184.8" r="4"/>
	<circle fill="#242C33" cx="325.2" cy="198.1" r="4"/>
	<circle fill="#242C33" cx="325.2" cy="210.2" r="4"/>
	<circle fill="#242C33" cx="361.3" cy="209" r="4"/>
	<circle fill="#242C33" cx="372.9" cy="209" r="4"/>
	<circle fill="#242C33" cx="361.3" cy="198.1" r="4"/>
	<circle fill="#242C33" cx="372.9" cy="198.1" r="4"/>
	<circle fill="#242C33" cx="385.3" cy="221.6" r="4"/>
	<circle fill="#242C33" cx="385.3" cy="233.6" r="4"/>
	<circle fill="#242C33" cx="385.3" cy="245.1" r="4"/>
	<circle fill="#242C33" cx="385.6" cy="173.5" r="4"/>
	<circle fill="#242C33" cx="397.8" cy="173.5" r="4"/>
	<circle fill="#242C33" cx="336.7" cy="160.9" r="4"/>
	<circle fill="#242C33" cx="349.1" cy="160.9" r="4"/>
	<circle fill="#242C33" cx="361.3" cy="160.7" r="4"/>
	<circle fill="#242C33" cx="372.9" cy="160.7" r="4"/>
	<circle fill="#242C33" cx="325.2" cy="160.9" r="4"/>
	<circle fill="#242C33" cx="385.6" cy="161.6" r="4"/>
	<circle fill="#242C33" cx="397.8" cy="161.6" r="4"/>
	<circle fill="#242C33" cx="348.7" cy="149" r="4"/>
	<circle fill="#242C33" cx="361" cy="149" r="4"/>
	<circle fill="#242C33" cx="373.3" cy="148.7" r="4"/>
	<circle fill="#242C33" cx="384.9" cy="148.7" r="4"/>
	<circle fill="#242C33" cx="397.6" cy="149.6" r="4"/>
	<circle fill="#242C33" cx="409.7" cy="149.6" r="4"/>
	<circle fill="#242C33" cx="410" cy="173.5" r="4"/>
	<circle fill="#242C33" cx="422.1" cy="173.5" r="4"/>
	<circle fill="#242C33" cx="385.6" cy="185.5" r="4"/>
	<circle fill="#242C33" cx="397.8" cy="185.5" r="4"/>
	<circle fill="#242C33" cx="410" cy="185.5" r="4"/>
	<circle fill="#242C33" cx="422.1" cy="185.5" r="4"/>
	<circle fill="#242C33" cx="434.3" cy="173.5" r="4"/>
	<circle fill="#242C33" cx="434.3" cy="185.5" r="4"/>
	<circle fill="#242C33" cx="385.6" cy="197" r="4"/>
	<circle fill="#242C33" cx="397.8" cy="197" r="4"/>
	<circle fill="#242C33" cx="410" cy="197" r="4"/>
	<circle fill="#242C33" cx="422.1" cy="197" r="4"/>
	<circle fill="#242C33" cx="385.6" cy="209" r="4"/>
	<circle fill="#242C33" cx="397.8" cy="209" r="4"/>
	<circle fill="#242C33" cx="410" cy="209" r="4"/>
	<circle fill="#242C33" cx="422.1" cy="209" r="4"/>
	<circle fill="#242C33" cx="434.3" cy="197" r="4"/>
	<circle fill="#242C33" cx="434.3" cy="209" r="4"/>
	<circle fill="#242C33" cx="445.7" cy="173.5" r="4"/>
	<circle fill="#242C33" cx="445.7" cy="185.5" r="4"/>
	<circle fill="#242C33" cx="445.7" cy="197" r="4"/>
	<circle fill="#242C33" cx="445.7" cy="209" r="4"/>
	<circle fill="#242C33" cx="458.4" cy="173.5" r="4"/>
	<circle fill="#242C33" cx="458.4" cy="185.5" r="4"/>
	<circle fill="#242C33" cx="458.4" cy="197" r="4"/>
	<circle fill="#242C33" cx="458.4" cy="209" r="4"/>
	<circle fill="#242C33" cx="397.8" cy="221.7" r="4"/>
	<circle fill="#242C33" cx="410" cy="221.7" r="4"/>
	<circle fill="#242C33" cx="422.1" cy="221.7" r="4"/>
	<circle fill="#242C33" cx="434.3" cy="221.7" r="4"/>
	<circle fill="#242C33" cx="397.8" cy="233.7" r="4"/>
	<circle fill="#242C33" cx="410" cy="233.7" r="4"/>
	<circle fill="#242C33" cx="422.1" cy="233.7" r="4"/>
	<circle fill="#242C33" cx="434.3" cy="233.7" r="4"/>
	<circle fill="#242C33" cx="446.5" cy="221.7" r="4"/>
	<circle fill="#242C33" cx="446.5" cy="233.7" r="4"/>
	<circle fill="#242C33" cx="397.8" cy="245.2" r="4"/>
	<circle fill="#242C33" cx="410" cy="245.2" r="4"/>
	<circle fill="#242C33" cx="422.1" cy="245.2" r="4"/>
	<circle fill="#242C33" cx="434.3" cy="245.2" r="4"/>
	<circle fill="#242C33" cx="397.8" cy="257.2" r="4"/>
	<circle fill="#242C33" cx="410" cy="257.2" r="4"/>
	<circle fill="#242C33" cx="422.1" cy="257.2" r="4"/>
	<circle fill="#242C33" cx="434.3" cy="257.2" r="4"/>
	<circle fill="#242C33" cx="446.5" cy="245.2" r="4"/>
	<circle fill="#242C33" cx="446.5" cy="257.2" r="4"/>
	<circle fill="#242C33" cx="457.9" cy="221.7" r="4"/>
	<circle fill="#242C33" cx="457.9" cy="233.7" r="4"/>
	<circle fill="#242C33" cx="457.9" cy="245.2" r="4"/>
	<circle fill="#242C33" cx="410" cy="269.2" r="4"/>
	<circle fill="#242C33" cx="422.1" cy="269.2" r="4"/>
	<circle fill="#242C33" cx="434.3" cy="269.2" r="4"/>
	<circle fill="#242C33" cx="446.5" cy="269.2" r="4"/>
	<circle fill="#242C33" cx="410" cy="281.4" r="4"/>
	<circle fill="#242C33" cx="422.1" cy="281.4" r="4"/>
	<circle fill="#242C33" cx="434.3" cy="281.4" r="4"/>
	<circle fill="#242C33" cx="446.5" cy="281.4" r="4"/>
	<circle fill="#242C33" cx="410" cy="293.4" r="4"/>
	<circle fill="#242C33" cx="422.1" cy="293.4" r="4"/>
	<circle fill="#242C33" cx="410" cy="305.3" r="4"/>
	<circle fill="#242C33" cx="422.1" cy="305.3" r="4"/>
	<circle fill="#242C33" cx="434.3" cy="293.4" r="4"/>
	<circle fill="#242C33" cx="409.2" cy="160.7" r="4"/>
	<circle fill="#242C33" cx="421.4" cy="160.7" r="4"/>
	<circle fill="#242C33" cx="433.6" cy="160.7" r="4"/>
	<circle fill="#242C33" cx="445.8" cy="160.7" r="4"/>
	<circle fill="#242C33" cx="457.2" cy="160.7" r="4"/>
	<circle fill="#242C33" cx="469.7" cy="160.7" r="4"/>
	<circle fill="#242C33" cx="481.9" cy="160.7" r="4"/>
	<circle fill="#242C33" cx="494" cy="160.7" r="4"/>
	<circle fill="#242C33" cx="469.7" cy="172.6" r="4"/>
	<circle fill="#242C33" cx="469.7" cy="184.8" r="4"/>
	<circle fill="#242C33" cx="481.9" cy="172.6" r="4"/>
	<circle fill="#242C33" cx="481.9" cy="257" r="4"/>
	<circle fill="#242C33" cx="494" cy="172.6" r="4"/>
	<circle fill="#242C33" cx="506.2" cy="160.7" r="4"/>
	<circle fill="#242C33" cx="518.4" cy="160.7" r="4"/>
	<circle fill="#242C33" cx="529.8" cy="160.7" r="4"/>
	<circle fill="#242C33" cx="161.7" cy="173.2" r="4"/>
</g>
</svg>
