<?xml version="1.0" encoding="utf-8"?>
<!-- Generator: Adobe Illustrator 19.2.0, SVG Export Plug-In . SVG Version: 6.00 Build 0)  -->
<svg version="1.1" id="Layer_1" xmlns="http://www.w3.org/2000/svg" xmlns:xlink="http://www.w3.org/1999/xlink" x="0px" y="0px"
	 viewBox="0 0 395.5 49.2" style="enable-background:new 0 0 395.5 49.2;" xml:space="preserve">
<style type="text/css">
	.st0{enable-background:new    ;}
	.st1{fill:#894B9D;}
</style>
<g class="st0">
	<path class="st1" d="M10.2,25.7L2.1,2.4h6.6l4.5,14.4l4.4-14.4h6.7l-8.1,23.3v16.8h-6V25.7z"/>
	<path class="st1" d="M36.5,2c2.7,0,4.9,0.9,6.8,2.8c1.9,1.9,2.8,4.1,2.8,6.8v21.9c0,2.7-0.9,4.9-2.8,6.8c-1.9,1.9-4.1,2.8-6.8,2.8
		c-2.7,0-4.9-0.9-6.8-2.8s-2.8-4.1-2.8-6.8V11.6c0-2.7,0.9-4.9,2.8-6.8C31.6,2.9,33.9,2,36.5,2z M39.8,11.4c0-1-0.3-1.8-1-2.4
		c-0.7-0.7-1.5-1-2.4-1c-1,0-1.8,0.3-2.5,1c-0.7,0.7-1,1.5-1,2.4v21.9c0,1,0.3,1.8,1,2.4c0.7,0.7,1.5,1,2.5,1c1,0,1.8-0.3,2.4-1
		c0.7-0.7,1-1.5,1-2.4V11.4z"/>
	<path class="st1" d="M60.9,43c-2.7,0-4.9-0.9-6.8-2.8s-2.8-4.1-2.8-6.7v-31h5.9v30.9c0,1,0.3,1.8,1,2.4c0.7,0.7,1.5,1,2.5,1
		c1,0,1.8-0.3,2.4-1c0.7-0.7,1-1.5,1-2.4V2.5h6.3v31c0,2.7-0.9,4.9-2.8,6.8C65.8,42.1,63.6,43,60.9,43z"/>
	<path class="st1" d="M85.4,2.5c3.4,0,5.8,0.9,7.4,2.8c1.4,1.6,2.1,3.9,2.1,6.8v5.8c0,2.8-1.1,5.2-3.2,7.2l4.5,17.5h-6.5l-3.7-15.1
		c-0.2,0-0.4,0-0.5,0h-3.5v15.1h-6v-40H85.4z M89,12.1c0-2.3-1.2-3.5-3.5-3.5h-3.6v12.8h3.6c1,0,1.8-0.3,2.4-1c0.7-0.7,1-1.5,1-2.5
		V12.1z"/>
	<path class="st1" d="M104.4,42.5V2.4h9c2.4,0,4.5,0.6,6.5,1.9c1.6,1.1,2.8,2.7,3.5,5c0.4,1.2,0.6,2.6,0.6,4.2
		c0,2.7-0.7,4.8-2.1,6.5c-0.6,0.7-1.3,1.2-2.1,1.6c1.3,0.5,2.5,1.5,3.4,3c0.6,1,1.1,2.3,1.4,4c0.1,0.8,0.2,1.8,0.2,2.8
		c0,2.5-0.5,4.7-1.4,6.5c-0.7,1.4-1.8,2.5-3.2,3.3c-1.5,0.9-3.1,1.4-4.6,1.4H104.4z M111,18.8h2.5c1.9,0,3.1-0.9,3.8-2.7
		c0.2-0.7,0.4-1.5,0.4-2.5c0-1.7-0.4-2.9-1.2-3.8c-0.7-0.8-1.7-1.2-2.9-1.2H111V18.8z M111,36.5h2.5c2,0,3.5-1.1,4.3-3.2
		c0.3-0.7,0.4-1.6,0.4-2.5c0-2.2-0.4-3.9-1.3-4.9c-0.8-0.9-1.9-1.4-3.4-1.4H111V36.5z"/>
	<path class="st1" d="M139.6,2.5c3.4,0,5.8,0.9,7.4,2.8c1.4,1.6,2.1,3.9,2.1,6.8v5.8c0,2.8-1.1,5.2-3.2,7.2l4.5,17.5h-6.5l-3.7-15.1
		c-0.2,0-0.4,0-0.5,0h-3.5v15.1h-6v-40H139.6z M143.2,12.1c0-2.3-1.2-3.5-3.5-3.5h-3.6v12.8h3.6c1,0,1.8-0.3,2.4-1
		c0.7-0.7,1-1.5,1-2.5V12.1z"/>
	<path class="st1" d="M162.9,33.3l-1.5,9.2h-6.3l6.8-40h8.3l6.7,40h-6.4l-1.4-9.2H162.9z M166.1,11.7l-2.2,15.8h4.5L166.1,11.7z"/>
	<path class="st1" d="M188.1,42.5h-6v-40h6V42.5z"/>
	<path class="st1" d="M200.3,2.4l8,26.9V2.4h6v40.1h-6.5l-8.3-25.7v25.7h-6V2.4H200.3z"/>
	<path class="st1" d="M232.2,2c2.7,0,4.9,0.9,6.8,2.8s2.8,4.1,2.8,6.8v21.9c0,2.7-0.9,4.9-2.8,6.8c-1.9,1.9-4.1,2.8-6.8,2.8
		c-2.7,0-4.9-0.9-6.8-2.8s-2.8-4.1-2.8-6.8V11.6c0-2.7,0.9-4.9,2.8-6.8C227.3,2.9,229.6,2,232.2,2z M235.5,11.4c0-1-0.3-1.8-1-2.4
		c-0.7-0.7-1.5-1-2.4-1c-1,0-1.8,0.3-2.5,1c-0.7,0.7-1,1.5-1,2.4v21.9c0,1,0.3,1.8,1,2.4s1.5,1,2.5,1c1,0,1.8-0.3,2.4-1
		c0.7-0.7,1-1.5,1-2.4V11.4z"/>
	<path class="st1" d="M253.9,2.4l8,26.9V2.4h6v40.1h-6.5l-8.3-25.7v25.7h-6V2.4H253.9z"/>
	<path class="st1" d="M282.3,42.5h-6V2.4h8.7l5.6,28.8L296,2.4h8.3v40.1h-6V17.3L293,42.5h-4.9l-5.8-25.1V42.5z"/>
	<path class="st1" d="M319.2,43c-2.7,0-4.9-0.9-6.8-2.8s-2.8-4.1-2.8-6.7v-31h5.9v30.9c0,1,0.3,1.8,1,2.4c0.7,0.7,1.5,1,2.5,1
		s1.8-0.3,2.4-1c0.7-0.7,1-1.5,1-2.4V2.5h6.3v31c0,2.7-0.9,4.9-2.8,6.8C324.1,42.1,321.9,43,319.2,43z"/>
	<path class="st1" d="M353.8,32.6c0,2.8-0.7,5.2-2.2,7.2c-1,1.3-2.4,2.3-4.2,2.8c-1,0.3-2.1,0.4-3.4,0.4c-2.4,0-4.3-0.6-5.9-1.8
		c-1.3-1-2.3-2.3-3.1-3.9s-1.2-3.5-1.3-5.7l5.8-0.4c0.3,2.3,0.9,4,1.9,5.1c0.7,0.8,1.6,1.2,2.5,1.1c1.3,0,2.4-0.7,3.2-2
		c0.4-0.6,0.6-1.5,0.6-2.7c0-1.7-0.8-3.3-2.3-5c-1.2-1.1-3-2.8-5.4-5.1c-2-1.9-3.4-3.7-4.2-5.2c-0.9-1.7-1.3-3.6-1.3-5.6
		c0-3.6,1.2-6.4,3.7-8.3c1.5-1.1,3.4-1.7,5.6-1.7c2.2,0,4,0.5,5.5,1.4c1.2,0.7,2.2,1.8,2.9,3.1c0.7,1.3,1.2,2.9,1.3,4.6l-5.8,1.1
		c-0.2-1.6-0.6-2.9-1.4-3.8c-0.6-0.7-1.4-1-2.4-1c-1.1,0-1.9,0.5-2.5,1.5c-0.5,0.8-0.7,1.8-0.7,2.9c0,1.8,0.8,3.7,2.4,5.6
		c0.6,0.7,1.5,1.6,2.7,2.6c1.4,1.2,2.3,2,2.8,2.5c1.5,1.5,2.6,3,3.5,4.4c0.4,0.7,0.7,1.3,0.9,1.9C353.4,30.1,353.7,31.4,353.8,32.6z
		"/>
	<path class="st1" d="M364.8,42.5h-6v-40h6V42.5z"/>
	<path class="st1" d="M379.7,43c-2.7,0-4.9-0.9-6.8-2.8c-1.9-1.9-2.8-4.1-2.8-6.8V11.6c0-2.7,0.9-4.9,2.8-6.8
		c1.9-1.9,4.1-2.8,6.8-2.8c2.7,0,4.9,0.9,6.8,2.8c1.9,1.9,2.8,4.1,2.8,6.8v4.6H383v-4.7c0-1-0.3-1.8-1-2.5s-1.5-1-2.5-1
		c-1,0-1.8,0.3-2.4,1s-1,1.5-1,2.5v21.9c0,1,0.3,1.8,1,2.4c0.7,0.7,1.5,1,2.4,1c1,0,1.8-0.3,2.5-1c0.7-0.7,1-1.5,1-2.4v-5.5h6.3v5.6
		c0,2.7-0.9,4.9-2.8,6.8C384.6,42.1,382.4,43,379.7,43z"/>
</g>
</svg>
