<!-- Generator: Adobe Illustrator 18.1.1, SVG Export Plug-In  -->
<svg version="1.1"
	 xmlns="http://www.w3.org/2000/svg" xmlns:xlink="http://www.w3.org/1999/xlink" xmlns:a="http://ns.adobe.com/AdobeSVGViewerExtensions/3.0/"
	 x="0px" y="0px" width="301.2px" height="362px" viewBox="0 0 301.2 362" enable-background="new 0 0 301.2 362"
	 xml:space="preserve">
<defs>
</defs>
<rect x="56.2" y="0" opacity="0.8" fill="#E0BB45" width="245" height="79"/>
<g>
	<text transform="matrix(1 0 0 1 72.987 25.0048)"><tspan x="0" y="0" fill="#FFFFFF" font-family="'Futura-Medium'" font-size="16">Listening to music causes the  </tspan><tspan x="0" y="19.2" fill="#FFFFFF" font-family="'Futura-Medium'" font-size="16">brain to release dopamine a  </tspan><tspan x="0" y="38.4" fill="#FFFFFF" font-family="'Futura-Medium'" font-size="16">feel-good chemical.</tspan></text>
</g>
<g opacity="0.8">
	<line fill="#E0BB45" x1="183.2" y1="77" x2="143.2" y2="185"/>
	
		<rect x="161.2" y="73.4" transform="matrix(0.9377 0.3473 -0.3473 0.9377 55.6585 -48.5171)" fill="#E0BB45" width="4" height="115.2"/>
</g>
<path opacity="0.7" fill="#FFF200" d="M196.7,331.2c-1.2-43.9-15.7-126.4-99.2-191.4c-1.8-1.4-3.6-2.7-5.4-4.1
	c-4.1-2.4-8.8-3.8-13.9-3.8c-11.6,0-21.4,7.1-25.6,17.2l-1.4,4.9L2.1,324.2l-1.5,5.1c-0.1,0.7-0.3,1.5-0.4,2.2
	C0.1,332.2,0,333,0,333.8v2.3c0.6,13.1,10.4,23.8,23,26h9.2h132.3h9.2c12.2-2,21.7-12,22.9-24.5
	C196.7,335.5,196.7,333.4,196.7,331.2z"/>
<g>
	<text transform="matrix(1 0 0 1 68.0536 276.2546)"><tspan x="0" y="0" fill="#FFFFFF" font-family="'BebasNeueBold'" font-size="25">FRONTAL </tspan><tspan x="0" y="30" fill="#FFFFFF" font-family="'BebasNeueBold'" font-size="25">LOBE</tspan></text>
</g>
</svg>
