<?xml version="1.0" encoding="utf-8"?>
<!-- Generator: Adobe Illustrator 19.2.0, SVG Export Plug-In . SVG Version: 6.00 Build 0)  -->
<svg version="1.1" id="Layer_1" xmlns="http://www.w3.org/2000/svg" xmlns:xlink="http://www.w3.org/1999/xlink" x="0px" y="0px"
	 viewBox="0 0 301.2 362" style="enable-background:new 0 0 301.2 362;" xml:space="preserve">
<style type="text/css">
	.st0{opacity:0.8;fill:#E0BB45;enable-background:new    ;}
	.st1{enable-background:new    ;}
	.st2{fill:#FFFFFF;}
	.st3{opacity:0.8;}
	.st4{fill:none;}
	.st5{fill:#E0BB45;}
	.st6{opacity:0.7;fill:#FFF200;enable-background:new    ;}
</style>
<rect x="56.2" class="st0" width="245" height="79"/>
<g>
	<g class="st1">
		<path class="st2" d="M76.3,12.9v10.4h3.5V25h-5.4V12.9H76.3z"/>
		<path class="st2" d="M80.9,14.2c0-0.3,0.1-0.6,0.3-0.8c0.2-0.2,0.5-0.3,0.8-0.3c0.3,0,0.6,0.1,0.8,0.3c0.2,0.2,0.3,0.5,0.3,0.8
			s-0.1,0.6-0.3,0.8c-0.2,0.2-0.5,0.3-0.8,0.3c-0.3,0-0.6-0.1-0.8-0.3C81,14.8,80.9,14.6,80.9,14.2z M82.9,17.4V25h-1.8v-7.6H82.9z"
			/>
		<path class="st2" d="M89.6,18.7l-1.5,0.8c-0.2-0.5-0.5-0.7-0.9-0.7c-0.2,0-0.3,0.1-0.4,0.2c-0.1,0.1-0.2,0.2-0.2,0.4
			c0,0.3,0.3,0.6,1,0.9c0.9,0.4,1.6,0.8,1.9,1.1c0.3,0.3,0.5,0.8,0.5,1.4c0,0.7-0.3,1.3-0.8,1.8c-0.5,0.5-1.2,0.7-1.9,0.7
			c-1.3,0-2.2-0.6-2.7-1.9l1.5-0.7c0.2,0.4,0.4,0.6,0.5,0.7c0.2,0.2,0.5,0.3,0.8,0.3c0.6,0,0.9-0.3,0.9-0.8c0-0.3-0.2-0.6-0.7-0.9
			c-0.2-0.1-0.4-0.2-0.5-0.3c-0.2-0.1-0.4-0.2-0.5-0.3c-0.5-0.2-0.9-0.5-1.1-0.8c-0.3-0.3-0.4-0.7-0.4-1.2c0-0.7,0.2-1.2,0.7-1.6
			c0.5-0.4,1-0.6,1.7-0.6C88.4,17.2,89.1,17.7,89.6,18.7z"/>
		<path class="st2" d="M93.5,19v6h-1.8v-6H91v-1.6h0.8v-2.8h1.8v2.8h1.4V19H93.5z"/>
		<path class="st2" d="M103.1,21.6h-5.5c0,0.6,0.2,1.1,0.6,1.5c0.4,0.4,0.8,0.5,1.4,0.5c0.4,0,0.8-0.1,1.1-0.3
			c0.3-0.2,0.6-0.6,1-1.2l1.5,0.8c-0.2,0.4-0.5,0.7-0.7,1c-0.3,0.3-0.5,0.5-0.8,0.7c-0.3,0.2-0.6,0.3-0.9,0.4
			c-0.3,0.1-0.7,0.1-1.1,0.1c-1.1,0-2-0.4-2.7-1.1c-0.7-0.7-1-1.7-1-2.9c0-1.2,0.3-2.2,1-2.9c0.7-0.7,1.6-1.1,2.7-1.1
			c1.1,0,2,0.4,2.7,1.1c0.6,0.7,1,1.7,1,2.9L103.1,21.6z M101.3,20.2c-0.2-0.9-0.8-1.4-1.8-1.4c-0.2,0-0.4,0-0.6,0.1
			s-0.4,0.2-0.5,0.3c-0.2,0.1-0.3,0.3-0.4,0.4s-0.2,0.4-0.2,0.6H101.3z"/>
		<path class="st2" d="M105,17.4h1.8v0.7c0.6-0.6,1.3-0.9,2.1-0.9c0.9,0,1.6,0.3,2.1,0.8c0.4,0.5,0.6,1.2,0.6,2.3V25h-1.8v-4.2
			c0-0.8-0.1-1.3-0.3-1.6c-0.2-0.3-0.6-0.4-1.1-0.4c-0.6,0-1,0.2-1.2,0.6c-0.2,0.4-0.4,1-0.4,2V25H105V17.4z"/>
		<path class="st2" d="M113.5,14.2c0-0.3,0.1-0.6,0.3-0.8c0.2-0.2,0.5-0.3,0.8-0.3c0.3,0,0.6,0.1,0.8,0.3c0.2,0.2,0.3,0.5,0.3,0.8
			s-0.1,0.6-0.3,0.8c-0.2,0.2-0.5,0.3-0.8,0.3c-0.3,0-0.6-0.1-0.8-0.3C113.7,14.8,113.5,14.6,113.5,14.2z M115.6,17.4V25h-1.8v-7.6
			H115.6z"/>
		<path class="st2" d="M117.8,17.4h1.8v0.7c0.6-0.6,1.3-0.9,2.1-0.9c0.9,0,1.6,0.3,2.1,0.8c0.4,0.5,0.6,1.2,0.6,2.3V25h-1.8v-4.2
			c0-0.8-0.1-1.3-0.3-1.6c-0.2-0.3-0.6-0.4-1.1-0.4c-0.6,0-1,0.2-1.2,0.6c-0.2,0.4-0.4,1-0.4,2V25h-1.8V17.4z"/>
		<path class="st2" d="M133.9,24.8c0,0.4,0,0.7,0,0.9s-0.1,0.5-0.1,0.7c-0.1,0.6-0.4,1.1-0.7,1.5c-0.7,0.8-1.6,1.2-2.8,1.2
			c-1,0-1.9-0.3-2.5-0.8c-0.7-0.6-1.1-1.3-1.2-2.3h1.8c0.1,0.4,0.2,0.7,0.3,0.9c0.4,0.5,0.9,0.7,1.6,0.7c1.3,0,1.9-0.8,1.9-2.4v-1.1
			c-0.7,0.7-1.5,1.1-2.4,1.1c-1,0-1.9-0.4-2.5-1.1c-0.7-0.8-1-1.7-1-2.9c0-1.1,0.3-2.1,0.9-2.8c0.7-0.8,1.5-1.2,2.6-1.2
			c1,0,1.8,0.4,2.4,1.1v-0.9h1.8V24.8z M132.2,21.2c0-0.7-0.2-1.3-0.6-1.8c-0.4-0.5-0.9-0.7-1.5-0.7c-0.7,0-1.2,0.2-1.6,0.7
			c-0.3,0.4-0.5,1-0.5,1.7c0,0.7,0.2,1.3,0.5,1.7c0.4,0.5,0.9,0.7,1.6,0.7s1.2-0.2,1.6-0.7C132.1,22.5,132.2,21.9,132.2,21.2z"/>
		<path class="st2" d="M142.9,19v6h-1.8v-6h-0.8v-1.6h0.8v-2.8h1.8v2.8h1.4V19H142.9z"/>
		<path class="st2" d="M145.2,21.1c0-1.1,0.4-2,1.2-2.8c0.8-0.8,1.7-1.2,2.9-1.2c1.1,0,2.1,0.4,2.9,1.2c0.8,0.8,1.2,1.7,1.2,2.9
			c0,1.1-0.4,2.1-1.2,2.9c-0.8,0.8-1.8,1.1-2.9,1.1c-1.1,0-2.1-0.4-2.9-1.2C145.6,23.3,145.2,22.3,145.2,21.1z M147,21.2
			c0,0.8,0.2,1.4,0.6,1.8c0.4,0.4,1,0.7,1.6,0.7c0.7,0,1.2-0.2,1.6-0.7c0.4-0.4,0.6-1,0.6-1.8s-0.2-1.3-0.6-1.8
			c-0.4-0.4-1-0.7-1.6-0.7c-0.7,0-1.2,0.2-1.6,0.7C147.2,19.9,147,20.5,147,21.2z"/>
		<path class="st2" d="M160.1,17.4h1.8v0.7c0.3-0.4,0.6-0.6,0.9-0.7c0.3-0.1,0.6-0.2,1-0.2c0.9,0,1.5,0.4,2,1.1
			c0.6-0.8,1.3-1.1,2.2-1.1c1.7,0,2.6,1,2.6,3.1V25h-1.8v-4.2c0-0.7-0.1-1.2-0.3-1.5c-0.2-0.3-0.5-0.5-0.9-0.5
			c-0.5,0-0.8,0.2-1.1,0.5c-0.2,0.4-0.3,1-0.3,1.8V25h-1.8v-4.2c0-1.4-0.4-2-1.2-2c-0.5,0-0.9,0.2-1.1,0.6s-0.3,1-0.3,1.8V25h-1.8
			V17.4z"/>
		<path class="st2" d="M174.5,17.4v4.4c0,1.3,0.5,1.9,1.5,1.9c1,0,1.5-0.6,1.5-1.9v-4.4h1.8v4.4c0,0.6-0.1,1.1-0.2,1.6
			c-0.1,0.4-0.4,0.8-0.8,1.1c-0.6,0.5-1.3,0.8-2.3,0.8c-0.9,0-1.7-0.3-2.3-0.8c-0.4-0.3-0.6-0.7-0.8-1.1c-0.1-0.4-0.2-0.9-0.2-1.6
			v-4.4H174.5z"/>
		<path class="st2" d="M185.9,18.7l-1.5,0.8c-0.2-0.5-0.5-0.7-0.9-0.7c-0.2,0-0.3,0.1-0.4,0.2c-0.1,0.1-0.2,0.2-0.2,0.4
			c0,0.3,0.3,0.6,1,0.9c0.9,0.4,1.6,0.8,1.9,1.1c0.3,0.3,0.5,0.8,0.5,1.4c0,0.7-0.3,1.3-0.8,1.8c-0.5,0.5-1.2,0.7-1.9,0.7
			c-1.3,0-2.2-0.6-2.7-1.9l1.5-0.7c0.2,0.4,0.4,0.6,0.5,0.7c0.2,0.2,0.5,0.3,0.8,0.3c0.6,0,0.9-0.3,0.9-0.8c0-0.3-0.2-0.6-0.7-0.9
			c-0.2-0.1-0.4-0.2-0.5-0.3c-0.2-0.1-0.4-0.2-0.5-0.3c-0.5-0.2-0.9-0.5-1.1-0.8c-0.3-0.3-0.4-0.7-0.4-1.2c0-0.7,0.2-1.2,0.7-1.6
			c0.5-0.4,1-0.6,1.7-0.6C184.7,17.2,185.4,17.7,185.9,18.7z"/>
		<path class="st2" d="M187.7,14.2c0-0.3,0.1-0.6,0.3-0.8c0.2-0.2,0.5-0.3,0.8-0.3c0.3,0,0.6,0.1,0.8,0.3c0.2,0.2,0.3,0.5,0.3,0.8
			s-0.1,0.6-0.3,0.8c-0.2,0.2-0.5,0.3-0.8,0.3c-0.3,0-0.6-0.1-0.8-0.3C187.8,14.8,187.7,14.6,187.7,14.2z M189.7,17.4V25H188v-7.6
			H189.7z"/>
		<path class="st2" d="M197.9,17.7v2.3c-0.4-0.5-0.8-0.8-1.1-1c-0.3-0.2-0.7-0.3-1.1-0.3c-0.7,0-1.2,0.2-1.6,0.7s-0.7,1-0.7,1.7
			c0,0.7,0.2,1.3,0.6,1.8c0.4,0.5,1,0.7,1.6,0.7c0.4,0,0.8-0.1,1.1-0.3c0.3-0.2,0.7-0.5,1.1-1v2.3c-0.7,0.4-1.4,0.6-2.1,0.6
			c-1.2,0-2.2-0.4-3-1.1c-0.8-0.8-1.2-1.7-1.2-2.9s0.4-2.1,1.2-2.9c0.8-0.8,1.8-1.2,3-1.2C196.5,17.2,197.2,17.4,197.9,17.7z"/>
		<path class="st2" d="M210.5,17.7v2.3c-0.4-0.5-0.8-0.8-1.1-1c-0.3-0.2-0.7-0.3-1.1-0.3c-0.7,0-1.2,0.2-1.6,0.7s-0.7,1-0.7,1.7
			c0,0.7,0.2,1.3,0.6,1.8c0.4,0.5,1,0.7,1.6,0.7c0.4,0,0.8-0.1,1.1-0.3c0.3-0.2,0.7-0.5,1.1-1v2.3c-0.7,0.4-1.4,0.6-2.1,0.6
			c-1.2,0-2.2-0.4-3-1.1c-0.8-0.8-1.2-1.7-1.2-2.9s0.4-2.1,1.2-2.9c0.8-0.8,1.8-1.2,3-1.2C209.1,17.2,209.8,17.4,210.5,17.7z"/>
		<path class="st2" d="M217.8,17.4h1.8V25h-1.8v-0.8c-0.7,0.7-1.5,1-2.3,1c-1.1,0-1.9-0.4-2.6-1.1c-0.7-0.8-1-1.7-1-2.9
			c0-1.1,0.3-2.1,1-2.9c0.7-0.8,1.5-1.1,2.6-1.1c0.9,0,1.7,0.4,2.4,1.1V17.4z M213.6,21.2c0,0.7,0.2,1.3,0.6,1.8
			c0.4,0.5,0.9,0.7,1.5,0.7c0.7,0,1.2-0.2,1.6-0.7c0.4-0.5,0.6-1.1,0.6-1.8s-0.2-1.3-0.6-1.8c-0.4-0.5-0.9-0.7-1.6-0.7
			c-0.6,0-1.1,0.2-1.5,0.7C213.8,19.9,213.6,20.5,213.6,21.2z"/>
		<path class="st2" d="M223.5,17.4v4.4c0,1.3,0.5,1.9,1.5,1.9c1,0,1.5-0.6,1.5-1.9v-4.4h1.8v4.4c0,0.6-0.1,1.1-0.2,1.6
			c-0.1,0.4-0.4,0.8-0.8,1.1c-0.6,0.5-1.3,0.8-2.3,0.8c-0.9,0-1.7-0.3-2.3-0.8c-0.4-0.3-0.6-0.7-0.8-1.1c-0.1-0.4-0.2-0.9-0.2-1.6
			v-4.4H223.5z"/>
		<path class="st2" d="M234.9,18.7l-1.5,0.8c-0.2-0.5-0.5-0.7-0.9-0.7c-0.2,0-0.3,0.1-0.4,0.2c-0.1,0.1-0.2,0.2-0.2,0.4
			c0,0.3,0.3,0.6,1,0.9c0.9,0.4,1.6,0.8,1.9,1.1c0.3,0.3,0.5,0.8,0.5,1.4c0,0.7-0.3,1.3-0.8,1.8c-0.5,0.5-1.2,0.7-1.9,0.7
			c-1.3,0-2.2-0.6-2.7-1.9l1.5-0.7c0.2,0.4,0.4,0.6,0.5,0.7c0.2,0.2,0.5,0.3,0.8,0.3c0.6,0,0.9-0.3,0.9-0.8c0-0.3-0.2-0.6-0.7-0.9
			c-0.2-0.1-0.4-0.2-0.5-0.3c-0.2-0.1-0.4-0.2-0.5-0.3c-0.5-0.2-0.9-0.5-1.1-0.8c-0.3-0.3-0.4-0.7-0.4-1.2c0-0.7,0.2-1.2,0.7-1.6
			c0.5-0.4,1-0.6,1.7-0.6C233.7,17.2,234.4,17.7,234.9,18.7z"/>
		<path class="st2" d="M243.9,21.6h-5.5c0,0.6,0.2,1.1,0.6,1.5c0.4,0.4,0.8,0.5,1.4,0.5c0.4,0,0.8-0.1,1.1-0.3
			c0.3-0.2,0.6-0.6,1-1.2L244,23c-0.2,0.4-0.5,0.7-0.7,1c-0.3,0.3-0.5,0.5-0.8,0.7c-0.3,0.2-0.6,0.3-0.9,0.4
			c-0.3,0.1-0.7,0.1-1.1,0.1c-1.1,0-2-0.4-2.7-1.1c-0.7-0.7-1-1.7-1-2.9c0-1.2,0.3-2.2,1-2.9c0.7-0.7,1.6-1.1,2.7-1.1
			c1.1,0,2,0.4,2.7,1.1c0.6,0.7,1,1.7,1,2.9L243.9,21.6z M242.1,20.2c-0.2-0.9-0.8-1.4-1.8-1.4c-0.2,0-0.4,0-0.6,0.1
			s-0.4,0.2-0.5,0.3c-0.2,0.1-0.3,0.3-0.4,0.4s-0.2,0.4-0.2,0.6H242.1z"/>
		<path class="st2" d="M250.2,18.7l-1.5,0.8c-0.2-0.5-0.5-0.7-0.9-0.7c-0.2,0-0.3,0.1-0.4,0.2c-0.1,0.1-0.2,0.2-0.2,0.4
			c0,0.3,0.3,0.6,1,0.9c0.9,0.4,1.6,0.8,1.9,1.1c0.3,0.3,0.5,0.8,0.5,1.4c0,0.7-0.3,1.3-0.8,1.8c-0.5,0.5-1.2,0.7-1.9,0.7
			c-1.3,0-2.2-0.6-2.7-1.9l1.5-0.7c0.2,0.4,0.4,0.6,0.5,0.7c0.2,0.2,0.5,0.3,0.8,0.3c0.6,0,0.9-0.3,0.9-0.8c0-0.3-0.2-0.6-0.7-0.9
			c-0.2-0.1-0.4-0.2-0.5-0.3c-0.2-0.1-0.4-0.2-0.5-0.3c-0.5-0.2-0.9-0.5-1.1-0.8c-0.3-0.3-0.4-0.7-0.4-1.2c0-0.7,0.2-1.2,0.7-1.6
			c0.5-0.4,1-0.6,1.7-0.6C249,17.2,249.8,17.7,250.2,18.7z"/>
		<path class="st2" d="M259.1,19v6h-1.8v-6h-0.8v-1.6h0.8v-2.8h1.8v2.8h1.4V19H259.1z"/>
		<path class="st2" d="M261.9,11.8h1.8V18c0.6-0.6,1.3-0.8,2.1-0.8c0.9,0,1.5,0.3,2.1,0.8c0.4,0.5,0.7,1.3,0.7,2.3V25h-1.8v-4.5
			c0-0.6-0.1-1.1-0.3-1.3c-0.2-0.3-0.6-0.4-1-0.4c-0.6,0-1,0.2-1.3,0.6c-0.2,0.4-0.4,1-0.4,2V25h-1.8V11.8z"/>
		<path class="st2" d="M277.6,21.6h-5.5c0,0.6,0.2,1.1,0.6,1.5c0.4,0.4,0.8,0.5,1.4,0.5c0.4,0,0.8-0.1,1.1-0.3
			c0.3-0.2,0.6-0.6,1-1.2l1.5,0.8c-0.2,0.4-0.5,0.7-0.7,1c-0.3,0.3-0.5,0.5-0.8,0.7c-0.3,0.2-0.6,0.3-0.9,0.4
			c-0.3,0.1-0.7,0.1-1.1,0.1c-1.1,0-2-0.4-2.7-1.1c-0.7-0.7-1-1.7-1-2.9c0-1.2,0.3-2.2,1-2.9c0.7-0.7,1.6-1.1,2.7-1.1
			c1.1,0,2,0.4,2.7,1.1c0.6,0.7,1,1.7,1,2.9L277.6,21.6z M275.8,20.2c-0.2-0.9-0.8-1.4-1.8-1.4c-0.2,0-0.4,0-0.6,0.1
			s-0.4,0.2-0.5,0.3c-0.2,0.1-0.3,0.3-0.4,0.4s-0.2,0.4-0.2,0.6H275.8z"/>
	</g>
	<g class="st1">
		<path class="st2" d="M75.9,31v6.5c0.7-0.7,1.5-1.1,2.4-1.1c1,0,1.9,0.4,2.6,1.1c0.7,0.8,1,1.7,1,2.8c0,1.2-0.3,2.1-1,2.9
			c-0.7,0.8-1.5,1.1-2.6,1.1c-0.9,0-1.7-0.3-2.4-1v0.8h-1.8V31H75.9z M80,40.5c0-0.7-0.2-1.3-0.6-1.8C79,38.2,78.5,38,77.9,38
			c-0.6,0-1.2,0.2-1.6,0.7c-0.4,0.4-0.6,1-0.6,1.8c0,0.7,0.2,1.3,0.6,1.8c0.4,0.5,0.9,0.7,1.6,0.7c0.6,0,1.1-0.2,1.5-0.7
			C79.8,41.7,80,41.1,80,40.5z"/>
		<path class="st2" d="M83.7,36.6h1.8v0.7c0.3-0.3,0.6-0.6,0.9-0.7c0.3-0.1,0.6-0.2,0.9-0.2c0.5,0,0.9,0.2,1.5,0.5l-0.8,1.6
			c-0.3-0.2-0.7-0.4-1-0.4c-1,0-1.4,0.7-1.4,2.2v3.9h-1.8V36.6z"/>
		<path class="st2" d="M95.2,36.6h1.8v7.6h-1.8v-0.8c-0.7,0.7-1.5,1-2.3,1c-1.1,0-1.9-0.4-2.6-1.1c-0.7-0.8-1-1.7-1-2.9
			c0-1.1,0.3-2.1,1-2.9c0.7-0.8,1.5-1.1,2.6-1.1c0.9,0,1.7,0.4,2.4,1.1V36.6z M91,40.4c0,0.7,0.2,1.3,0.6,1.8
			c0.4,0.5,0.9,0.7,1.5,0.7c0.7,0,1.2-0.2,1.6-0.7c0.4-0.5,0.6-1.1,0.6-1.8s-0.2-1.3-0.6-1.8c-0.4-0.5-0.9-0.7-1.6-0.7
			c-0.6,0-1.1,0.2-1.5,0.7C91.2,39.1,91,39.7,91,40.4z"/>
		<path class="st2" d="M98.9,33.4c0-0.3,0.1-0.6,0.3-0.8c0.2-0.2,0.5-0.3,0.8-0.3c0.3,0,0.6,0.1,0.8,0.3c0.2,0.2,0.3,0.5,0.3,0.8
			s-0.1,0.6-0.3,0.8c-0.2,0.2-0.5,0.3-0.8,0.3c-0.3,0-0.6-0.1-0.8-0.3C99,34,98.9,33.8,98.9,33.4z M100.9,36.6v7.6h-1.8v-7.6H100.9z
			"/>
		<path class="st2" d="M103.1,36.6h1.8v0.7c0.6-0.6,1.3-0.9,2.1-0.9c0.9,0,1.6,0.3,2.1,0.8c0.4,0.5,0.6,1.2,0.6,2.3v4.7h-1.8V40
			c0-0.8-0.1-1.3-0.3-1.6c-0.2-0.3-0.6-0.4-1.1-0.4c-0.6,0-1,0.2-1.2,0.6c-0.2,0.4-0.4,1-0.4,2v3.7h-1.8V36.6z"/>
		<path class="st2" d="M118.7,38.2v6h-1.8v-6h-0.8v-1.6h0.8v-2.8h1.8v2.8h1.4v1.6H118.7z"/>
		<path class="st2" d="M121,40.3c0-1.1,0.4-2,1.2-2.8c0.8-0.8,1.7-1.2,2.9-1.2c1.1,0,2.1,0.4,2.9,1.2c0.8,0.8,1.2,1.7,1.2,2.9
			c0,1.1-0.4,2.1-1.2,2.9c-0.8,0.8-1.8,1.1-2.9,1.1c-1.1,0-2.1-0.4-2.9-1.2C121.4,42.5,121,41.5,121,40.3z M122.8,40.4
			c0,0.8,0.2,1.4,0.6,1.8c0.4,0.4,1,0.7,1.6,0.7c0.7,0,1.2-0.2,1.6-0.7c0.4-0.4,0.6-1,0.6-1.8s-0.2-1.3-0.6-1.8
			c-0.4-0.4-1-0.7-1.6-0.7c-0.7,0-1.2,0.2-1.6,0.7C123,39.1,122.8,39.7,122.8,40.4z"/>
		<path class="st2" d="M135.9,36.6h1.8v0.7c0.3-0.3,0.6-0.6,0.9-0.7c0.3-0.1,0.6-0.2,0.9-0.2c0.5,0,0.9,0.2,1.5,0.5l-0.8,1.6
			c-0.3-0.2-0.7-0.4-1-0.4c-1,0-1.4,0.7-1.4,2.2v3.9h-1.8V36.6z"/>
		<path class="st2" d="M148.7,40.8h-5.5c0,0.6,0.2,1.1,0.6,1.5c0.4,0.4,0.8,0.5,1.4,0.5c0.4,0,0.8-0.1,1.1-0.3
			c0.3-0.2,0.6-0.6,1-1.2l1.5,0.8c-0.2,0.4-0.5,0.7-0.7,1c-0.3,0.3-0.5,0.5-0.8,0.7c-0.3,0.2-0.6,0.3-0.9,0.4
			c-0.3,0.1-0.7,0.1-1.1,0.1c-1.1,0-2-0.4-2.7-1.1c-0.7-0.7-1-1.7-1-2.9c0-1.2,0.3-2.2,1-2.9c0.7-0.7,1.6-1.1,2.7-1.1
			c1.1,0,2,0.4,2.7,1.1c0.6,0.7,1,1.7,1,2.9L148.7,40.8z M146.9,39.4c-0.2-0.9-0.8-1.4-1.8-1.4c-0.2,0-0.4,0-0.6,0.1
			s-0.4,0.2-0.5,0.3c-0.2,0.1-0.3,0.3-0.4,0.4s-0.2,0.4-0.2,0.6H146.9z"/>
		<path class="st2" d="M152.4,31v13.2h-1.8V31H152.4z"/>
		<path class="st2" d="M161.5,40.8h-5.5c0,0.6,0.2,1.1,0.6,1.5c0.4,0.4,0.8,0.5,1.4,0.5c0.4,0,0.8-0.1,1.1-0.3
			c0.3-0.2,0.6-0.6,1-1.2l1.5,0.8c-0.2,0.4-0.5,0.7-0.7,1c-0.3,0.3-0.5,0.5-0.8,0.7c-0.3,0.2-0.6,0.3-0.9,0.4
			c-0.3,0.1-0.7,0.1-1.1,0.1c-1.1,0-2-0.4-2.7-1.1c-0.7-0.7-1-1.7-1-2.9c0-1.2,0.3-2.2,1-2.9c0.7-0.7,1.6-1.1,2.7-1.1
			c1.1,0,2,0.4,2.7,1.1c0.6,0.7,1,1.7,1,2.9L161.5,40.8z M159.7,39.4c-0.2-0.9-0.8-1.4-1.8-1.4c-0.2,0-0.4,0-0.6,0.1
			s-0.4,0.2-0.5,0.3c-0.2,0.1-0.3,0.3-0.4,0.4s-0.2,0.4-0.2,0.6H159.7z"/>
		<path class="st2" d="M169.1,36.6h1.8v7.6h-1.8v-0.8c-0.7,0.7-1.5,1-2.3,1c-1.1,0-1.9-0.4-2.6-1.1c-0.7-0.8-1-1.7-1-2.9
			c0-1.1,0.3-2.1,1-2.9c0.7-0.8,1.5-1.1,2.6-1.1c0.9,0,1.7,0.4,2.4,1.1V36.6z M164.9,40.4c0,0.7,0.2,1.3,0.6,1.8
			c0.4,0.5,0.9,0.7,1.5,0.7c0.7,0,1.2-0.2,1.6-0.7c0.4-0.5,0.6-1.1,0.6-1.8s-0.2-1.3-0.6-1.8c-0.4-0.5-0.9-0.7-1.6-0.7
			c-0.6,0-1.1,0.2-1.5,0.7C165.1,39.1,164.9,39.7,164.9,40.4z"/>
		<path class="st2" d="M177.5,37.9l-1.5,0.8c-0.2-0.5-0.5-0.7-0.9-0.7c-0.2,0-0.3,0.1-0.4,0.2c-0.1,0.1-0.2,0.2-0.2,0.4
			c0,0.3,0.3,0.6,1,0.9c0.9,0.4,1.6,0.8,1.9,1.1c0.3,0.3,0.5,0.8,0.5,1.4c0,0.7-0.3,1.3-0.8,1.8c-0.5,0.5-1.2,0.7-1.9,0.7
			c-1.3,0-2.2-0.6-2.7-1.9l1.5-0.7c0.2,0.4,0.4,0.6,0.5,0.7c0.2,0.2,0.5,0.3,0.8,0.3c0.6,0,0.9-0.3,0.9-0.8c0-0.3-0.2-0.6-0.7-0.9
			c-0.2-0.1-0.4-0.2-0.5-0.3c-0.2-0.1-0.4-0.2-0.5-0.3c-0.5-0.2-0.9-0.5-1.1-0.8c-0.3-0.3-0.4-0.7-0.4-1.2c0-0.7,0.2-1.2,0.7-1.6
			c0.5-0.4,1-0.6,1.7-0.6C176.3,36.4,177,36.9,177.5,37.9z"/>
		<path class="st2" d="M186.5,40.8H181c0,0.6,0.2,1.1,0.6,1.5c0.4,0.4,0.8,0.5,1.4,0.5c0.4,0,0.8-0.1,1.1-0.3c0.3-0.2,0.6-0.6,1-1.2
			l1.5,0.8c-0.2,0.4-0.5,0.7-0.7,1c-0.3,0.3-0.5,0.5-0.8,0.7c-0.3,0.2-0.6,0.3-0.9,0.4c-0.3,0.1-0.7,0.1-1.1,0.1
			c-1.1,0-2-0.4-2.7-1.1c-0.7-0.7-1-1.7-1-2.9c0-1.2,0.3-2.2,1-2.9c0.7-0.7,1.6-1.1,2.7-1.1c1.1,0,2,0.4,2.7,1.1
			c0.6,0.7,1,1.7,1,2.9L186.5,40.8z M184.7,39.4c-0.2-0.9-0.8-1.4-1.8-1.4c-0.2,0-0.4,0-0.6,0.1s-0.4,0.2-0.5,0.3
			c-0.2,0.1-0.3,0.3-0.4,0.4s-0.2,0.4-0.2,0.6H184.7z"/>
		<path class="st2" d="M198.9,31h1.8v13.2h-1.8v-0.8c-0.7,0.7-1.5,1-2.4,1c-1,0-1.9-0.4-2.6-1.1c-0.7-0.8-1-1.7-1-2.9
			c0-1.1,0.3-2.1,1-2.8c0.7-0.8,1.5-1.1,2.6-1.1c0.9,0,1.7,0.4,2.4,1.1V31z M194.8,40.4c0,0.7,0.2,1.3,0.6,1.8
			c0.4,0.5,0.9,0.7,1.5,0.7c0.7,0,1.2-0.2,1.6-0.7c0.4-0.5,0.6-1.1,0.6-1.8s-0.2-1.3-0.6-1.8c-0.4-0.5-0.9-0.7-1.6-0.7
			c-0.6,0-1.1,0.2-1.5,0.7C195,39.1,194.8,39.7,194.8,40.4z"/>
		<path class="st2" d="M202.6,40.3c0-1.1,0.4-2,1.2-2.8c0.8-0.8,1.7-1.2,2.9-1.2c1.1,0,2.1,0.4,2.9,1.2c0.8,0.8,1.2,1.7,1.2,2.9
			c0,1.1-0.4,2.1-1.2,2.9c-0.8,0.8-1.8,1.1-2.9,1.1c-1.1,0-2.1-0.4-2.9-1.2C203,42.5,202.6,41.5,202.6,40.3z M204.4,40.4
			c0,0.8,0.2,1.4,0.6,1.8c0.4,0.4,1,0.7,1.6,0.7c0.7,0,1.2-0.2,1.6-0.7c0.4-0.4,0.6-1,0.6-1.8s-0.2-1.3-0.6-1.8
			c-0.4-0.4-1-0.7-1.6-0.7c-0.7,0-1.2,0.2-1.6,0.7C204.6,39.1,204.4,39.7,204.4,40.4z"/>
		<path class="st2" d="M214.3,48.3h-1.8V36.6h1.8v0.8c0.7-0.7,1.5-1,2.4-1c1,0,1.9,0.4,2.6,1.2c0.7,0.8,1,1.7,1,2.9
			c0,1.1-0.3,2.1-1,2.9c-0.7,0.8-1.5,1.1-2.6,1.1c-0.9,0-1.7-0.4-2.4-1.1V48.3z M218.5,40.4c0-0.7-0.2-1.3-0.6-1.8
			c-0.4-0.5-0.9-0.7-1.5-0.7c-0.6,0-1.2,0.2-1.6,0.7c-0.4,0.4-0.6,1-0.6,1.8c0,0.7,0.2,1.3,0.6,1.8c0.4,0.5,0.9,0.7,1.6,0.7
			c0.6,0,1.1-0.2,1.5-0.7C218.3,41.7,218.5,41.1,218.5,40.4z"/>
		<path class="st2" d="M227.7,36.6h1.8v7.6h-1.8v-0.8c-0.7,0.7-1.5,1-2.3,1c-1.1,0-1.9-0.4-2.6-1.1c-0.7-0.8-1-1.7-1-2.9
			c0-1.1,0.3-2.1,1-2.9c0.7-0.8,1.5-1.1,2.6-1.1c0.9,0,1.7,0.4,2.4,1.1V36.6z M223.6,40.4c0,0.7,0.2,1.3,0.6,1.8
			c0.4,0.5,0.9,0.7,1.5,0.7c0.7,0,1.2-0.2,1.6-0.7c0.4-0.5,0.6-1.1,0.6-1.8s-0.2-1.3-0.6-1.8c-0.4-0.5-0.9-0.7-1.6-0.7
			c-0.6,0-1.1,0.2-1.5,0.7C223.8,39.1,223.6,39.7,223.6,40.4z"/>
		<path class="st2" d="M231.7,36.6h1.8v0.7c0.3-0.4,0.6-0.6,0.9-0.7c0.3-0.1,0.6-0.2,1-0.2c0.9,0,1.5,0.4,2,1.1
			c0.6-0.8,1.3-1.1,2.2-1.1c1.7,0,2.6,1,2.6,3.1v4.7h-1.8V40c0-0.7-0.1-1.2-0.3-1.5c-0.2-0.3-0.5-0.5-0.9-0.5
			c-0.5,0-0.8,0.2-1.1,0.5c-0.2,0.4-0.3,1-0.3,1.8v3.9h-1.8V40c0-1.4-0.4-2-1.2-2c-0.5,0-0.9,0.2-1.1,0.6s-0.3,1-0.3,1.8v3.9h-1.8
			V36.6z"/>
		<path class="st2" d="M244.1,33.4c0-0.3,0.1-0.6,0.3-0.8c0.2-0.2,0.5-0.3,0.8-0.3c0.3,0,0.6,0.1,0.8,0.3c0.2,0.2,0.3,0.5,0.3,0.8
			s-0.1,0.6-0.3,0.8c-0.2,0.2-0.5,0.3-0.8,0.3c-0.3,0-0.6-0.1-0.8-0.3C244.2,34,244.1,33.8,244.1,33.4z M246.1,36.6v7.6h-1.8v-7.6
			H246.1z"/>
		<path class="st2" d="M248.4,36.6h1.8v0.7c0.6-0.6,1.3-0.9,2.1-0.9c0.9,0,1.6,0.3,2.1,0.8c0.4,0.5,0.6,1.2,0.6,2.3v4.7h-1.8V40
			c0-0.8-0.1-1.3-0.3-1.6c-0.2-0.3-0.6-0.4-1.1-0.4c-0.6,0-1,0.2-1.2,0.6c-0.2,0.4-0.4,1-0.4,2v3.7h-1.8V36.6z"/>
		<path class="st2" d="M264.1,40.8h-5.5c0,0.6,0.2,1.1,0.6,1.5c0.4,0.4,0.8,0.5,1.4,0.5c0.4,0,0.8-0.1,1.1-0.3
			c0.3-0.2,0.6-0.6,1-1.2l1.5,0.8c-0.2,0.4-0.5,0.7-0.7,1c-0.3,0.3-0.5,0.5-0.8,0.7c-0.3,0.2-0.6,0.3-0.9,0.4
			c-0.3,0.1-0.7,0.1-1.1,0.1c-1.1,0-2-0.4-2.7-1.1c-0.7-0.7-1-1.7-1-2.9c0-1.2,0.3-2.2,1-2.9c0.7-0.7,1.6-1.1,2.7-1.1
			c1.1,0,2,0.4,2.7,1.1c0.6,0.7,1,1.7,1,2.9L264.1,40.8z M262.3,39.4c-0.2-0.9-0.8-1.4-1.8-1.4c-0.2,0-0.4,0-0.6,0.1
			s-0.4,0.2-0.5,0.3c-0.2,0.1-0.3,0.3-0.4,0.4s-0.2,0.4-0.2,0.6H262.3z"/>
		<path class="st2" d="M276.5,36.6h1.8v7.6h-1.8v-0.8c-0.7,0.7-1.5,1-2.3,1c-1.1,0-1.9-0.4-2.6-1.1c-0.7-0.8-1-1.7-1-2.9
			c0-1.1,0.3-2.1,1-2.9c0.7-0.8,1.5-1.1,2.6-1.1c0.9,0,1.7,0.4,2.4,1.1V36.6z M272.4,40.4c0,0.7,0.2,1.3,0.6,1.8
			c0.4,0.5,0.9,0.7,1.5,0.7c0.7,0,1.2-0.2,1.6-0.7c0.4-0.5,0.6-1.1,0.6-1.8s-0.2-1.3-0.6-1.8c-0.4-0.5-0.9-0.7-1.6-0.7
			c-0.6,0-1.1,0.2-1.5,0.7C272.6,39.1,272.4,39.7,272.4,40.4z"/>
	</g>
	<g class="st1">
		<path class="st2" d="M75.9,57.4v6h-1.8v-6h-0.6v-1.6h0.6v-2.9c0-1,0.2-1.6,0.5-2c0.5-0.6,1.1-0.8,2-0.8c0.3,0,0.7,0.1,1.2,0.3v1.8
			L77.7,52c-0.4-0.2-0.7-0.3-0.9-0.3c-0.3,0-0.5,0.1-0.6,0.3c-0.1,0.2-0.2,0.6-0.2,1.3v2.5h1.9v1.6H75.9z"/>
		<path class="st2" d="M86,60h-5.5c0,0.6,0.2,1.1,0.6,1.5c0.4,0.4,0.8,0.5,1.4,0.5c0.4,0,0.8-0.1,1.1-0.3c0.3-0.2,0.6-0.6,1-1.2
			l1.5,0.8c-0.2,0.4-0.5,0.7-0.7,1c-0.3,0.3-0.5,0.5-0.8,0.7c-0.3,0.2-0.6,0.3-0.9,0.4c-0.3,0.1-0.7,0.1-1.1,0.1
			c-1.1,0-2-0.4-2.7-1.1c-0.7-0.7-1-1.7-1-2.9c0-1.2,0.3-2.2,1-2.9c0.7-0.7,1.6-1.1,2.7-1.1c1.1,0,2,0.4,2.7,1.1
			c0.6,0.7,1,1.7,1,2.9L86,60z M84.2,58.6c-0.2-0.9-0.8-1.4-1.8-1.4c-0.2,0-0.4,0-0.6,0.1s-0.4,0.2-0.5,0.3
			c-0.2,0.1-0.3,0.3-0.4,0.4s-0.2,0.4-0.2,0.6H84.2z"/>
		<path class="st2" d="M94.9,60h-5.5c0,0.6,0.2,1.1,0.6,1.5c0.4,0.4,0.8,0.5,1.4,0.5c0.4,0,0.8-0.1,1.1-0.3c0.3-0.2,0.6-0.6,1-1.2
			l1.5,0.8c-0.2,0.4-0.5,0.7-0.7,1c-0.3,0.3-0.5,0.5-0.8,0.7c-0.3,0.2-0.6,0.3-0.9,0.4c-0.3,0.1-0.7,0.1-1.1,0.1
			c-1.1,0-2-0.4-2.7-1.1c-0.7-0.7-1-1.7-1-2.9c0-1.2,0.3-2.2,1-2.9c0.7-0.7,1.6-1.1,2.7-1.1c1.1,0,2,0.4,2.7,1.1
			c0.6,0.7,1,1.7,1,2.9L94.9,60z M93.1,58.6c-0.2-0.9-0.8-1.4-1.8-1.4c-0.2,0-0.4,0-0.6,0.1s-0.4,0.2-0.5,0.3
			c-0.2,0.1-0.3,0.3-0.4,0.4s-0.2,0.4-0.2,0.6H93.1z"/>
		<path class="st2" d="M98.5,50.2v13.2h-1.8V50.2H98.5z"/>
		<path class="st2" d="M99.7,58.8h3.5v1.5h-3.5V58.8z"/>
		<path class="st2" d="M111.6,63.2c0,0.4,0,0.7,0,0.9s-0.1,0.5-0.1,0.7c-0.1,0.6-0.4,1.1-0.7,1.5c-0.7,0.8-1.6,1.2-2.8,1.2
			c-1,0-1.9-0.3-2.5-0.8c-0.7-0.6-1.1-1.3-1.2-2.3h1.8c0.1,0.4,0.2,0.7,0.3,0.9c0.4,0.5,0.9,0.7,1.6,0.7c1.3,0,1.9-0.8,1.9-2.4v-1.1
			c-0.7,0.7-1.5,1.1-2.4,1.1c-1,0-1.9-0.4-2.5-1.1c-0.7-0.8-1-1.7-1-2.9c0-1.1,0.3-2.1,0.9-2.8c0.7-0.8,1.5-1.2,2.6-1.2
			c1,0,1.8,0.4,2.4,1.1v-0.9h1.8V63.2z M109.9,59.6c0-0.7-0.2-1.3-0.6-1.8c-0.4-0.5-0.9-0.7-1.5-0.7c-0.7,0-1.2,0.2-1.6,0.7
			c-0.3,0.4-0.5,1-0.5,1.7c0,0.7,0.2,1.3,0.5,1.7c0.4,0.5,0.9,0.7,1.6,0.7s1.2-0.2,1.6-0.7C109.8,60.9,109.9,60.3,109.9,59.6z"/>
		<path class="st2" d="M113.5,59.5c0-1.1,0.4-2,1.2-2.8c0.8-0.8,1.7-1.2,2.9-1.2c1.1,0,2.1,0.4,2.9,1.2c0.8,0.8,1.2,1.7,1.2,2.9
			c0,1.1-0.4,2.1-1.2,2.9c-0.8,0.8-1.8,1.1-2.9,1.1c-1.1,0-2.1-0.4-2.9-1.2C113.9,61.7,113.5,60.7,113.5,59.5z M115.3,59.6
			c0,0.8,0.2,1.4,0.6,1.8c0.4,0.4,1,0.7,1.6,0.7c0.7,0,1.2-0.2,1.6-0.7c0.4-0.4,0.6-1,0.6-1.8s-0.2-1.3-0.6-1.8
			c-0.4-0.4-1-0.7-1.6-0.7c-0.7,0-1.2,0.2-1.6,0.7C115.5,58.3,115.3,58.9,115.3,59.6z"/>
		<path class="st2" d="M123.1,59.5c0-1.1,0.4-2,1.2-2.8c0.8-0.8,1.7-1.2,2.9-1.2c1.1,0,2.1,0.4,2.9,1.2c0.8,0.8,1.2,1.7,1.2,2.9
			c0,1.1-0.4,2.1-1.2,2.9c-0.8,0.8-1.8,1.1-2.9,1.1c-1.1,0-2.1-0.4-2.9-1.2C123.5,61.7,123.1,60.7,123.1,59.5z M124.9,59.6
			c0,0.8,0.2,1.4,0.6,1.8c0.4,0.4,1,0.7,1.6,0.7c0.7,0,1.2-0.2,1.6-0.7c0.4-0.4,0.6-1,0.6-1.8s-0.2-1.3-0.6-1.8
			c-0.4-0.4-1-0.7-1.6-0.7c-0.7,0-1.2,0.2-1.6,0.7C125.1,58.3,124.9,58.9,124.9,59.6z"/>
		<path class="st2" d="M138.7,50.2h1.8v13.2h-1.8v-0.8c-0.7,0.7-1.5,1-2.4,1c-1,0-1.9-0.4-2.6-1.1c-0.7-0.8-1-1.7-1-2.9
			c0-1.1,0.3-2.1,1-2.8c0.7-0.8,1.5-1.1,2.6-1.1c0.9,0,1.7,0.4,2.4,1.1V50.2z M134.5,59.6c0,0.7,0.2,1.3,0.6,1.8
			c0.4,0.5,0.9,0.7,1.5,0.7c0.7,0,1.2-0.2,1.6-0.7c0.4-0.5,0.6-1.1,0.6-1.8s-0.2-1.3-0.6-1.8c-0.4-0.5-0.9-0.7-1.6-0.7
			c-0.6,0-1.1,0.2-1.5,0.7C134.7,58.3,134.5,58.9,134.5,59.6z"/>
		<path class="st2" d="M153.5,56.1v2.3c-0.4-0.5-0.8-0.8-1.1-1c-0.3-0.2-0.7-0.3-1.1-0.3c-0.7,0-1.2,0.2-1.6,0.7s-0.7,1-0.7,1.7
			c0,0.7,0.2,1.3,0.6,1.8c0.4,0.5,1,0.7,1.6,0.7c0.4,0,0.8-0.1,1.1-0.3c0.3-0.2,0.7-0.5,1.1-1v2.3c-0.7,0.4-1.4,0.6-2.1,0.6
			c-1.2,0-2.2-0.4-3-1.1c-0.8-0.8-1.2-1.7-1.2-2.9s0.4-2.1,1.2-2.9c0.8-0.8,1.8-1.2,3-1.2C152.2,55.6,152.9,55.8,153.5,56.1z"/>
		<path class="st2" d="M155.6,50.2h1.8v6.2c0.6-0.6,1.3-0.8,2.1-0.8c0.9,0,1.5,0.3,2.1,0.8c0.4,0.5,0.7,1.3,0.7,2.3v4.7h-1.8v-4.5
			c0-0.6-0.1-1.1-0.3-1.3c-0.2-0.3-0.6-0.4-1-0.4c-0.6,0-1,0.2-1.3,0.6c-0.2,0.4-0.4,1-0.4,2v3.7h-1.8V50.2z"/>
		<path class="st2" d="M171.3,60h-5.5c0,0.6,0.2,1.1,0.6,1.5c0.4,0.4,0.8,0.5,1.4,0.5c0.4,0,0.8-0.1,1.1-0.3c0.3-0.2,0.6-0.6,1-1.2
			l1.5,0.8c-0.2,0.4-0.5,0.7-0.7,1c-0.3,0.3-0.5,0.5-0.8,0.7c-0.3,0.2-0.6,0.3-0.9,0.4c-0.3,0.1-0.7,0.1-1.1,0.1
			c-1.1,0-2-0.4-2.7-1.1c-0.7-0.7-1-1.7-1-2.9c0-1.2,0.3-2.2,1-2.9c0.7-0.7,1.6-1.1,2.7-1.1c1.1,0,2,0.4,2.7,1.1
			c0.6,0.7,1,1.7,1,2.9L171.3,60z M169.5,58.6c-0.2-0.9-0.8-1.4-1.8-1.4c-0.2,0-0.4,0-0.6,0.1s-0.4,0.2-0.5,0.3
			c-0.2,0.1-0.3,0.3-0.4,0.4s-0.2,0.4-0.2,0.6H169.5z"/>
		<path class="st2" d="M173.3,55.8h1.8v0.7c0.3-0.4,0.6-0.6,0.9-0.7c0.3-0.1,0.6-0.2,1-0.2c0.9,0,1.5,0.4,2,1.1
			c0.6-0.8,1.3-1.1,2.2-1.1c1.7,0,2.6,1,2.6,3.1v4.7h-1.8v-4.2c0-0.7-0.1-1.2-0.3-1.5c-0.2-0.3-0.5-0.5-0.9-0.5
			c-0.5,0-0.8,0.2-1.1,0.5c-0.2,0.4-0.3,1-0.3,1.8v3.9h-1.8v-4.2c0-1.4-0.4-2-1.2-2c-0.5,0-0.9,0.2-1.1,0.6s-0.3,1-0.3,1.8v3.9h-1.8
			V55.8z"/>
		<path class="st2" d="M185.7,52.6c0-0.3,0.1-0.6,0.3-0.8c0.2-0.2,0.5-0.3,0.8-0.3c0.3,0,0.6,0.1,0.8,0.3c0.2,0.2,0.3,0.5,0.3,0.8
			s-0.1,0.6-0.3,0.8c-0.2,0.2-0.5,0.3-0.8,0.3c-0.3,0-0.6-0.1-0.8-0.3C185.8,53.2,185.7,53,185.7,52.6z M187.7,55.8v7.6h-1.8v-7.6
			H187.7z"/>
		<path class="st2" d="M195.8,56.1v2.3c-0.4-0.5-0.8-0.8-1.1-1c-0.3-0.2-0.7-0.3-1.1-0.3c-0.7,0-1.2,0.2-1.6,0.7s-0.7,1-0.7,1.7
			c0,0.7,0.2,1.3,0.6,1.8c0.4,0.5,1,0.7,1.6,0.7c0.4,0,0.8-0.1,1.1-0.3c0.3-0.2,0.7-0.5,1.1-1v2.3c-0.7,0.4-1.4,0.6-2.1,0.6
			c-1.2,0-2.2-0.4-3-1.1c-0.8-0.8-1.2-1.7-1.2-2.9s0.4-2.1,1.2-2.9c0.8-0.8,1.8-1.2,3-1.2C194.5,55.6,195.2,55.8,195.8,56.1z"/>
		<path class="st2" d="M203.1,55.8h1.8v7.6h-1.8v-0.8c-0.7,0.7-1.5,1-2.3,1c-1.1,0-1.9-0.4-2.6-1.1c-0.7-0.8-1-1.7-1-2.9
			c0-1.1,0.3-2.1,1-2.9c0.7-0.8,1.5-1.1,2.6-1.1c0.9,0,1.7,0.4,2.4,1.1V55.8z M199,59.6c0,0.7,0.2,1.3,0.6,1.8
			c0.4,0.5,0.9,0.7,1.5,0.7c0.7,0,1.2-0.2,1.6-0.7c0.4-0.5,0.6-1.1,0.6-1.8s-0.2-1.3-0.6-1.8c-0.4-0.5-0.9-0.7-1.6-0.7
			c-0.6,0-1.1,0.2-1.5,0.7C199.2,58.3,199,58.9,199,59.6z"/>
		<path class="st2" d="M208.9,50.2v13.2h-1.8V50.2H208.9z"/>
		<path class="st2" d="M211.4,62.5c0-0.3,0.1-0.5,0.3-0.8c0.2-0.2,0.5-0.3,0.8-0.3s0.6,0.1,0.8,0.3c0.2,0.2,0.3,0.5,0.3,0.8
			c0,0.3-0.1,0.6-0.3,0.8c-0.2,0.2-0.5,0.3-0.8,0.3c-0.3,0-0.6-0.1-0.8-0.3C211.5,63.1,211.4,62.8,211.4,62.5z"/>
	</g>
</g>
<g class="st3">
	<line class="st4" x1="183.2" y1="77" x2="143.2" y2="185"/>
	
		<rect x="105.6" y="129" transform="matrix(0.3473 -0.9377 0.9377 0.3473 -16.3314 238.5376)" class="st5" width="115.2" height="4"/>
</g>
<path class="st6" d="M196.7,331.2c-1.2-43.9-15.7-126.4-99.2-191.4c-1.8-1.4-3.6-2.7-5.4-4.1c-4.1-2.4-8.8-3.8-13.9-3.8
	c-11.6,0-21.4,7.1-25.6,17.2l-1.4,4.9L2.1,324.2l-1.5,5.1c-0.1,0.7-0.3,1.5-0.4,2.2C0.1,332.2,0,333,0,333.8v2.3
	c0.6,13.1,10.4,23.8,23,26h9.2h132.3h9.2c12.2-2,21.7-12,22.9-24.5C196.7,335.5,196.7,333.4,196.7,331.2z"/>
<g>
	<g class="st1">
		<path class="st2" d="M72.6,276.3h-3.4V254h9.6v3.4h-6.2v6.1h4.5v3.4h-4.5V276.3z"/>
		<path class="st2" d="M86.4,254c1.9,0,3.2,0.5,4.1,1.5c0.8,0.9,1.2,2.2,1.2,3.8v3.2c0,1.6-0.6,2.9-1.8,4l2.5,9.7h-3.6l-2-8.4
			c-0.1,0-0.2,0-0.3,0h-1.9v8.4h-3.4V254H86.4z M88.4,259.4c0-1.3-0.6-1.9-1.9-1.9h-2v7.1h2c0.5,0,1-0.2,1.4-0.6
			c0.4-0.4,0.6-0.8,0.6-1.4V259.4z"/>
		<path class="st2" d="M99.9,253.7c1.5,0,2.7,0.5,3.8,1.6c1,1,1.6,2.3,1.6,3.8v12.1c0,1.5-0.5,2.7-1.6,3.8s-2.3,1.6-3.8,1.6
			c-1.5,0-2.7-0.5-3.8-1.6c-1-1-1.5-2.3-1.5-3.8V259c0-1.5,0.5-2.7,1.6-3.8C97.2,254.2,98.5,253.7,99.9,253.7z M101.8,259
			c0-0.5-0.2-1-0.6-1.4c-0.4-0.4-0.8-0.6-1.4-0.6c-0.5,0-1,0.2-1.4,0.6c-0.4,0.4-0.6,0.8-0.6,1.4v12.2c0,0.5,0.2,1,0.6,1.4
			c0.4,0.4,0.8,0.6,1.4,0.6c0.5,0,1-0.2,1.4-0.6c0.4-0.4,0.6-0.8,0.6-1.4V259z"/>
		<path class="st2" d="M112,254l4.5,15v-15h3.4v22.3h-3.6l-4.6-14.3v14.3h-3.4V254H112z"/>
		<path class="st2" d="M126.1,257.4h-3.6V254H133v3.4h-3.6v18.9h-3.4V257.4z"/>
		<path class="st2" d="M136.9,271.1l-0.8,5.1h-3.5l3.8-22.2h4.6l3.7,22.2h-3.5l-0.8-5.1H136.9z M138.7,259.1l-1.2,8.8h2.5
			L138.7,259.1z"/>
		<path class="st2" d="M156.7,276.3h-9.1V254h3.4v18.9h5.8V276.3z"/>
	</g>
	<g class="st1">
		<path class="st2" d="M78.4,306.3h-9.1V284h3.4v18.9h5.8V306.3z"/>
		<path class="st2" d="M86,283.7c1.5,0,2.7,0.5,3.8,1.6c1,1,1.6,2.3,1.6,3.8v12.1c0,1.5-0.5,2.7-1.6,3.8s-2.3,1.6-3.8,1.6
			c-1.5,0-2.7-0.5-3.8-1.6c-1-1-1.5-2.3-1.5-3.8V289c0-1.5,0.5-2.7,1.6-3.8C83.3,284.2,84.5,283.7,86,283.7z M87.8,289
			c0-0.5-0.2-1-0.6-1.4c-0.4-0.4-0.8-0.6-1.4-0.6c-0.5,0-1,0.2-1.4,0.6c-0.4,0.4-0.6,0.8-0.6,1.4v12.2c0,0.5,0.2,1,0.6,1.4
			c0.4,0.4,0.8,0.6,1.4,0.6c0.5,0,1-0.2,1.4-0.6c0.4-0.4,0.6-0.8,0.6-1.4V289z"/>
		<path class="st2" d="M94.2,306.3V284h5c1.3,0,2.5,0.3,3.6,1c0.9,0.6,1.6,1.5,2,2.8c0.2,0.7,0.3,1.5,0.3,2.4c0,1.5-0.4,2.7-1.2,3.6
			c-0.3,0.4-0.7,0.7-1.2,0.9c0.7,0.3,1.4,0.8,1.9,1.7c0.3,0.6,0.6,1.3,0.8,2.2c0.1,0.5,0.1,1,0.1,1.5c0,1.4-0.3,2.6-0.8,3.6
			c-0.4,0.8-1,1.4-1.8,1.8c-0.9,0.5-1.7,0.8-2.5,0.8H94.2z M97.9,293.1h1.4c1,0,1.7-0.5,2.1-1.5c0.1-0.4,0.2-0.8,0.2-1.4
			c0-0.9-0.2-1.6-0.7-2.1c-0.4-0.4-1-0.7-1.6-0.7h-1.4V293.1z M97.9,302.9h1.4c1.1,0,1.9-0.6,2.4-1.8c0.2-0.4,0.2-0.9,0.2-1.4
			c0-1.2-0.2-2.1-0.7-2.7c-0.4-0.5-1.1-0.8-1.9-0.8h-1.4V302.9z"/>
		<path class="st2" d="M108.4,306.3V284h9.6v3.4h-6.2v6.1h4.5v3.4h-4.5v6.1h6.2v3.4H108.4z"/>
	</g>
</g>
</svg>
